%TF.GenerationSoftware,KiCad,Pcbnew,8.99.0-unknown-120b06f916~181~ubuntu22.04.1*%
%TF.CreationDate,2024-11-21T04:21:53-08:00*%
%TF.ProjectId,gb_video_pico_breakout,67625f76-6964-4656-9f5f-7069636f5f62,rev?*%
%TF.SameCoordinates,Original*%
%TF.FileFunction,Drillmap*%
%TF.FilePolarity,Positive*%
%FSLAX45Y45*%
G04 Gerber Fmt 4.5, Leading zero omitted, Abs format (unit mm)*
G04 Created by KiCad (PCBNEW 8.99.0-unknown-120b06f916~181~ubuntu22.04.1) date 2024-11-21 04:21:53*
%MOMM*%
%LPD*%
G01*
G04 APERTURE LIST*
%ADD10C,0.200000*%
%ADD11C,0.100000*%
%ADD12C,0.102000*%
G04 APERTURE END LIST*
D10*
X13492132Y-6050000D02*
G75*
G02*
X12992132Y-6050000I-250000J0D01*
G01*
X12992132Y-6050000D02*
G75*
G02*
X13492132Y-6050000I250000J0D01*
G01*
X16892132Y-5600000D02*
X13092132Y-5600000D01*
X13092132Y-6500000D02*
G75*
G02*
X12792130Y-6200000I-2J300000D01*
G01*
X13192132Y-11400000D02*
X13092132Y-11400000D01*
X12792132Y-5900000D02*
G75*
G02*
X13092132Y-5600002I299998J0D01*
G01*
X13192132Y-6500000D02*
G75*
G02*
X13492130Y-6800000I-2J-300000D01*
G01*
X16792132Y-11400000D02*
X16892132Y-11400000D01*
X16892132Y-5600000D02*
G75*
G02*
X17192130Y-5900000I-2J-300000D01*
G01*
X16892132Y-11400000D02*
G75*
G02*
X17192130Y-11700000I-2J-300000D01*
G01*
X12792132Y-6200000D02*
X12792132Y-5900000D01*
X13492132Y-6800000D02*
X13492132Y-11100000D01*
D11*
X14742132Y-12900000D02*
G75*
G02*
X14692130Y-12850000I-2J50000D01*
G01*
X14742132Y-12900000D02*
X15242132Y-12900000D01*
D10*
X17192132Y-12000000D02*
G75*
G02*
X16892132Y-12300002I-300002J0D01*
G01*
D11*
X15342132Y-12300000D02*
X16892132Y-12300000D01*
D10*
X12792132Y-12000000D02*
X12792132Y-11700000D01*
D11*
X14642132Y-12300000D02*
G75*
G02*
X14692130Y-12350000I-2J-50000D01*
G01*
D10*
X16792132Y-6500000D02*
X16892132Y-6500000D01*
X12792132Y-11700000D02*
G75*
G02*
X13092132Y-11400002I299998J0D01*
G01*
D11*
X13092132Y-12300000D02*
X14642132Y-12300000D01*
D10*
X13492132Y-11100000D02*
G75*
G02*
X13192132Y-11400002I-300002J0D01*
G01*
X13492132Y-11850000D02*
G75*
G02*
X12992132Y-11850000I-250000J0D01*
G01*
X12992132Y-11850000D02*
G75*
G02*
X13492132Y-11850000I250000J0D01*
G01*
X16492132Y-6800000D02*
X16492132Y-11100000D01*
X16492132Y-6800000D02*
G75*
G02*
X16792132Y-6500002I299998J0D01*
G01*
X17192132Y-5900000D02*
X17192132Y-6200000D01*
X17192132Y-12000000D02*
X17192132Y-11700000D01*
D11*
X15292132Y-12850000D02*
X15292132Y-12350000D01*
D10*
X16992132Y-6050000D02*
G75*
G02*
X16492132Y-6050000I-250000J0D01*
G01*
X16492132Y-6050000D02*
G75*
G02*
X16992132Y-6050000I250000J0D01*
G01*
D11*
X15292132Y-12850000D02*
G75*
G02*
X15242132Y-12900002I-50002J0D01*
G01*
D10*
X16792132Y-11400000D02*
G75*
G02*
X16492130Y-11100000I-2J300000D01*
G01*
X17192132Y-6200000D02*
G75*
G02*
X16892132Y-6500002I-300002J0D01*
G01*
X13092132Y-12300000D02*
G75*
G02*
X12792130Y-12000000I-2J300000D01*
G01*
D11*
X14692132Y-12850000D02*
X14692132Y-12350000D01*
X15292132Y-12350000D02*
G75*
G02*
X15342132Y-12300002I49998J0D01*
G01*
D10*
X13192132Y-6500000D02*
X13092132Y-6500000D01*
X16992132Y-11850000D02*
G75*
G02*
X16492132Y-11850000I-250000J0D01*
G01*
X16492132Y-11850000D02*
G75*
G02*
X16992132Y-11850000I250000J0D01*
G01*
D11*
X12895000Y-6190000D02*
X12935000Y-6230000D01*
X12935000Y-6190000D02*
X12895000Y-6230000D01*
X12975000Y-5790000D02*
X13015000Y-5830000D01*
X13015000Y-5790000D02*
X12975000Y-5830000D01*
X13015000Y-11550000D02*
X13055000Y-11590000D01*
X13055000Y-11550000D02*
X13015000Y-11590000D01*
X13015000Y-12135000D02*
X13055000Y-12175000D01*
X13055000Y-12135000D02*
X13015000Y-12175000D01*
X13305000Y-6385000D02*
X13345000Y-6425000D01*
X13345000Y-6385000D02*
X13305000Y-6425000D01*
X13470000Y-12165000D02*
X13510000Y-12205000D01*
X13510000Y-12165000D02*
X13470000Y-12205000D01*
X13520000Y-5725000D02*
X13560000Y-5765000D01*
X13560000Y-5725000D02*
X13520000Y-5765000D01*
X13555000Y-6445000D02*
X13595000Y-6485000D01*
X13595000Y-6445000D02*
X13555000Y-6485000D01*
X13615000Y-10060000D02*
X13655000Y-10100000D01*
X13655000Y-10060000D02*
X13615000Y-10100000D01*
X13625000Y-10290000D02*
X13665000Y-10330000D01*
X13665000Y-10290000D02*
X13625000Y-10330000D01*
X13630000Y-7755000D02*
X13670000Y-7795000D01*
X13670000Y-7755000D02*
X13630000Y-7795000D01*
X13630000Y-8775000D02*
X13670000Y-8815000D01*
X13670000Y-8775000D02*
X13630000Y-8815000D01*
X13630000Y-9015000D02*
X13670000Y-9055000D01*
X13670000Y-9015000D02*
X13630000Y-9055000D01*
X13635000Y-7515000D02*
X13675000Y-7555000D01*
X13675000Y-7515000D02*
X13635000Y-7555000D01*
X13680000Y-11240000D02*
X13720000Y-11280000D01*
X13720000Y-11240000D02*
X13680000Y-11280000D01*
X13685000Y-10960000D02*
X13725000Y-11000000D01*
X13725000Y-10960000D02*
X13685000Y-11000000D01*
X13830000Y-11385000D02*
X13870000Y-11425000D01*
X13870000Y-11385000D02*
X13830000Y-11425000D01*
X14000000Y-10950000D02*
X14040000Y-10990000D01*
X14040000Y-10950000D02*
X14000000Y-10990000D01*
X14245000Y-7355000D02*
X14285000Y-7395000D01*
X14285000Y-7355000D02*
X14245000Y-7395000D01*
X14280000Y-10665000D02*
X14320000Y-10705000D01*
X14320000Y-10665000D02*
X14280000Y-10705000D01*
X14285000Y-7905000D02*
X14325000Y-7945000D01*
X14325000Y-7905000D02*
X14285000Y-7945000D01*
X14285000Y-9315000D02*
X14325000Y-9355000D01*
X14325000Y-9315000D02*
X14285000Y-9355000D01*
X14290000Y-8790000D02*
X14330000Y-8830000D01*
X14330000Y-8790000D02*
X14290000Y-8830000D01*
X14295000Y-8100000D02*
X14335000Y-8140000D01*
X14335000Y-8100000D02*
X14295000Y-8140000D01*
X14300000Y-8430000D02*
X14340000Y-8470000D01*
X14340000Y-8430000D02*
X14300000Y-8470000D01*
X14305000Y-10260000D02*
X14345000Y-10300000D01*
X14345000Y-10260000D02*
X14305000Y-10300000D01*
X14310000Y-9970000D02*
X14350000Y-10010000D01*
X14350000Y-9970000D02*
X14310000Y-10010000D01*
X14315000Y-11730000D02*
X14355000Y-11770000D01*
X14355000Y-11730000D02*
X14315000Y-11770000D01*
X14330000Y-7080000D02*
X14370000Y-7120000D01*
X14370000Y-7080000D02*
X14330000Y-7120000D01*
X14330000Y-7610000D02*
X14370000Y-7650000D01*
X14370000Y-7610000D02*
X14330000Y-7650000D01*
X14400000Y-5970000D02*
X14440000Y-6010000D01*
X14440000Y-5970000D02*
X14400000Y-6010000D01*
X14420000Y-7690000D02*
X14460000Y-7730000D01*
X14460000Y-7690000D02*
X14420000Y-7730000D01*
X14425000Y-11870000D02*
X14465000Y-11910000D01*
X14465000Y-11870000D02*
X14425000Y-11910000D01*
X14425000Y-12120000D02*
X14465000Y-12160000D01*
X14465000Y-12120000D02*
X14425000Y-12160000D01*
X14430000Y-6255000D02*
X14470000Y-6295000D01*
X14470000Y-6255000D02*
X14430000Y-6295000D01*
X14430000Y-6525000D02*
X14470000Y-6565000D01*
X14470000Y-6525000D02*
X14430000Y-6565000D01*
X14500000Y-7590000D02*
X14540000Y-7630000D01*
X14540000Y-7590000D02*
X14500000Y-7630000D01*
X14505000Y-6805000D02*
X14545000Y-6845000D01*
X14545000Y-6805000D02*
X14505000Y-6845000D01*
X14630000Y-8945000D02*
X14670000Y-8985000D01*
X14670000Y-8945000D02*
X14630000Y-8985000D01*
X14650000Y-8475000D02*
X14690000Y-8515000D01*
X14690000Y-8475000D02*
X14650000Y-8515000D01*
X14650000Y-9740000D02*
X14690000Y-9780000D01*
X14690000Y-9740000D02*
X14650000Y-9780000D01*
X14655000Y-9385000D02*
X14695000Y-9425000D01*
X14695000Y-9385000D02*
X14655000Y-9425000D01*
X14665000Y-10155000D02*
X14705000Y-10195000D01*
X14705000Y-10155000D02*
X14665000Y-10195000D01*
X14690000Y-7175000D02*
X14730000Y-7215000D01*
X14730000Y-7175000D02*
X14690000Y-7215000D01*
X14690000Y-7380000D02*
X14730000Y-7420000D01*
X14730000Y-7380000D02*
X14690000Y-7420000D01*
X14710000Y-8170000D02*
X14750000Y-8210000D01*
X14750000Y-8170000D02*
X14710000Y-8210000D01*
X14770000Y-7860000D02*
X14810000Y-7900000D01*
X14810000Y-7860000D02*
X14770000Y-7900000D01*
X14790000Y-11780000D02*
X14830000Y-11820000D01*
X14830000Y-11780000D02*
X14790000Y-11820000D01*
X14790000Y-11940000D02*
X14830000Y-11980000D01*
X14830000Y-11940000D02*
X14790000Y-11980000D01*
X14840000Y-11690000D02*
X14880000Y-11730000D01*
X14880000Y-11690000D02*
X14840000Y-11730000D01*
X14845000Y-11265000D02*
X14885000Y-11305000D01*
X14885000Y-11265000D02*
X14845000Y-11305000D01*
X14970000Y-8415000D02*
X15010000Y-8455000D01*
X15010000Y-8415000D02*
X14970000Y-8455000D01*
X14970000Y-8750000D02*
X15010000Y-8790000D01*
X15010000Y-8750000D02*
X14970000Y-8790000D01*
X14971583Y-12195000D02*
X15011583Y-12235000D01*
X15011583Y-12195000D02*
X14971583Y-12235000D01*
X14975000Y-9565000D02*
X15015000Y-9605000D01*
X15015000Y-9565000D02*
X14975000Y-9605000D01*
X14980000Y-10205000D02*
X15020000Y-10245000D01*
X15020000Y-10205000D02*
X14980000Y-10245000D01*
X15070000Y-12265000D02*
X15110000Y-12305000D01*
X15110000Y-12265000D02*
X15070000Y-12305000D01*
X15090000Y-7560000D02*
X15130000Y-7600000D01*
X15130000Y-7560000D02*
X15090000Y-7600000D01*
X15100000Y-11270000D02*
X15140000Y-11310000D01*
X15140000Y-11270000D02*
X15100000Y-11310000D01*
X15115000Y-6830000D02*
X15155000Y-6870000D01*
X15155000Y-6830000D02*
X15115000Y-6870000D01*
X15125000Y-6495000D02*
X15165000Y-6535000D01*
X15165000Y-6495000D02*
X15125000Y-6535000D01*
X15150000Y-11780000D02*
X15190000Y-11820000D01*
X15190000Y-11780000D02*
X15150000Y-11820000D01*
X15160000Y-11890000D02*
X15200000Y-11930000D01*
X15200000Y-11890000D02*
X15160000Y-11930000D01*
X15160000Y-12190000D02*
X15200000Y-12230000D01*
X15200000Y-12190000D02*
X15160000Y-12230000D01*
X15165000Y-8025000D02*
X15205000Y-8065000D01*
X15205000Y-8025000D02*
X15165000Y-8065000D01*
X15165000Y-12080000D02*
X15205000Y-12120000D01*
X15205000Y-12080000D02*
X15165000Y-12120000D01*
X15230000Y-8720000D02*
X15270000Y-8760000D01*
X15270000Y-8720000D02*
X15230000Y-8760000D01*
X15230000Y-9180000D02*
X15270000Y-9220000D01*
X15270000Y-9180000D02*
X15230000Y-9220000D01*
X15250000Y-10225000D02*
X15290000Y-10265000D01*
X15290000Y-10225000D02*
X15250000Y-10265000D01*
X15270000Y-9845000D02*
X15310000Y-9885000D01*
X15310000Y-9845000D02*
X15270000Y-9885000D01*
X15355000Y-11270000D02*
X15395000Y-11310000D01*
X15395000Y-11270000D02*
X15355000Y-11310000D01*
X15400000Y-7230000D02*
X15440000Y-7270000D01*
X15440000Y-7230000D02*
X15400000Y-7270000D01*
X15405000Y-8755000D02*
X15445000Y-8795000D01*
X15445000Y-8755000D02*
X15405000Y-8795000D01*
X15520000Y-6455000D02*
X15560000Y-6495000D01*
X15560000Y-6455000D02*
X15520000Y-6495000D01*
X15530000Y-12185000D02*
X15570000Y-12225000D01*
X15570000Y-12185000D02*
X15530000Y-12225000D01*
X15540000Y-11815000D02*
X15580000Y-11855000D01*
X15580000Y-11815000D02*
X15540000Y-11855000D01*
X15545000Y-7470000D02*
X15585000Y-7510000D01*
X15585000Y-7470000D02*
X15545000Y-7510000D01*
X15550000Y-8130000D02*
X15590000Y-8170000D01*
X15590000Y-8130000D02*
X15550000Y-8170000D01*
X15555000Y-7675000D02*
X15595000Y-7715000D01*
X15595000Y-7675000D02*
X15555000Y-7715000D01*
X15575000Y-9110000D02*
X15615000Y-9150000D01*
X15615000Y-9110000D02*
X15575000Y-9150000D01*
X15590000Y-10280000D02*
X15630000Y-10320000D01*
X15630000Y-10280000D02*
X15590000Y-10320000D01*
X15600000Y-5910000D02*
X15640000Y-5950000D01*
X15640000Y-5910000D02*
X15600000Y-5950000D01*
X15600000Y-10670000D02*
X15640000Y-10710000D01*
X15640000Y-10670000D02*
X15600000Y-10710000D01*
X15600000Y-11375000D02*
X15640000Y-11415000D01*
X15640000Y-11375000D02*
X15600000Y-11415000D01*
X15605000Y-8615000D02*
X15645000Y-8655000D01*
X15645000Y-8615000D02*
X15605000Y-8655000D01*
X15630000Y-9495000D02*
X15670000Y-9535000D01*
X15670000Y-9495000D02*
X15630000Y-9535000D01*
X15640000Y-9890000D02*
X15680000Y-9930000D01*
X15680000Y-9890000D02*
X15640000Y-9930000D01*
X15720000Y-11950000D02*
X15760000Y-11990000D01*
X15760000Y-11950000D02*
X15720000Y-11990000D01*
X15915000Y-10930000D02*
X15955000Y-10970000D01*
X15955000Y-10930000D02*
X15915000Y-10970000D01*
X16170000Y-11660000D02*
X16210000Y-11700000D01*
X16210000Y-11660000D02*
X16170000Y-11700000D01*
X16180000Y-11425000D02*
X16220000Y-11465000D01*
X16220000Y-11425000D02*
X16180000Y-11465000D01*
X16210000Y-11095000D02*
X16250000Y-11135000D01*
X16250000Y-11095000D02*
X16210000Y-11135000D01*
X16290000Y-11960000D02*
X16330000Y-12000000D01*
X16330000Y-11960000D02*
X16290000Y-12000000D01*
X16310000Y-10240000D02*
X16350000Y-10280000D01*
X16350000Y-10240000D02*
X16310000Y-10280000D01*
X16320000Y-10015000D02*
X16360000Y-10055000D01*
X16360000Y-10015000D02*
X16320000Y-10055000D01*
X16335000Y-7150000D02*
X16375000Y-7190000D01*
X16375000Y-7150000D02*
X16335000Y-7190000D01*
X16335000Y-7445000D02*
X16375000Y-7485000D01*
X16375000Y-7445000D02*
X16335000Y-7485000D01*
X16355000Y-7695000D02*
X16395000Y-7735000D01*
X16395000Y-7695000D02*
X16355000Y-7735000D01*
X16380000Y-8920000D02*
X16420000Y-8960000D01*
X16420000Y-8920000D02*
X16380000Y-8960000D01*
X16385000Y-8715000D02*
X16425000Y-8755000D01*
X16425000Y-8715000D02*
X16385000Y-8755000D01*
X16415000Y-6155000D02*
X16455000Y-6195000D01*
X16455000Y-6155000D02*
X16415000Y-6195000D01*
X16480000Y-12155000D02*
X16520000Y-12195000D01*
X16520000Y-12155000D02*
X16480000Y-12195000D01*
X16485000Y-11445000D02*
X16525000Y-11485000D01*
X16525000Y-11445000D02*
X16485000Y-11485000D01*
X16575000Y-5700000D02*
X16615000Y-5740000D01*
X16615000Y-5700000D02*
X16575000Y-5740000D01*
X16625000Y-6375000D02*
X16665000Y-6415000D01*
X16665000Y-6375000D02*
X16625000Y-6415000D01*
X16975000Y-12120000D02*
X17015000Y-12160000D01*
X17015000Y-12120000D02*
X16975000Y-12160000D01*
X16985000Y-11555000D02*
X17025000Y-11595000D01*
X17025000Y-11555000D02*
X16985000Y-11595000D01*
X17000000Y-5770000D02*
X17040000Y-5810000D01*
X17040000Y-5770000D02*
X17000000Y-5810000D01*
X17010000Y-6275000D02*
X17050000Y-6315000D01*
X17050000Y-6275000D02*
X17010000Y-6315000D01*
X13805000Y-11795000D02*
G75*
G02*
X13705000Y-11795000I-50000J0D01*
G01*
X13705000Y-11795000D02*
G75*
G02*
X13805000Y-11795000I50000J0D01*
G01*
X14265000Y-12095000D02*
G75*
G02*
X14165000Y-12095000I-50000J0D01*
G01*
X14165000Y-12095000D02*
G75*
G02*
X14265000Y-12095000I50000J0D01*
G01*
X14534083Y-11205000D02*
G75*
G02*
X14434083Y-11205000I-50000J0D01*
G01*
X14434083Y-11205000D02*
G75*
G02*
X14534083Y-11205000I50000J0D01*
G01*
X14788083Y-11205000D02*
G75*
G02*
X14688083Y-11205000I-50000J0D01*
G01*
X14688083Y-11205000D02*
G75*
G02*
X14788083Y-11205000I50000J0D01*
G01*
X15042083Y-11205000D02*
G75*
G02*
X14942083Y-11205000I-50000J0D01*
G01*
X14942083Y-11205000D02*
G75*
G02*
X15042083Y-11205000I50000J0D01*
G01*
X15296083Y-11205000D02*
G75*
G02*
X15196083Y-11205000I-50000J0D01*
G01*
X15196083Y-11205000D02*
G75*
G02*
X15296083Y-11205000I50000J0D01*
G01*
X15550083Y-11205000D02*
G75*
G02*
X15450083Y-11205000I-50000J0D01*
G01*
X15450083Y-11205000D02*
G75*
G02*
X15550083Y-11205000I50000J0D01*
G01*
X15950000Y-12095000D02*
G75*
G02*
X15850000Y-12095000I-50000J0D01*
G01*
X15850000Y-12095000D02*
G75*
G02*
X15950000Y-12095000I50000J0D01*
G01*
D12*
X14102583Y-5806000D02*
X14102583Y-5908000D01*
X14051583Y-5857000D02*
X14153583Y-5857000D01*
X14102583Y-6060000D02*
X14102583Y-6162000D01*
X14051583Y-6111000D02*
X14153583Y-6111000D01*
X14102583Y-6314000D02*
X14102583Y-6416000D01*
X14051583Y-6365000D02*
X14153583Y-6365000D01*
X14102583Y-6568000D02*
X14102583Y-6670000D01*
X14051583Y-6619000D02*
X14153583Y-6619000D01*
X14102583Y-6822000D02*
X14102583Y-6924000D01*
X14051583Y-6873000D02*
X14153583Y-6873000D01*
X14102583Y-7076000D02*
X14102583Y-7178000D01*
X14051583Y-7127000D02*
X14153583Y-7127000D01*
X14102583Y-7330000D02*
X14102583Y-7432000D01*
X14051583Y-7381000D02*
X14153583Y-7381000D01*
X14102583Y-7584000D02*
X14102583Y-7686000D01*
X14051583Y-7635000D02*
X14153583Y-7635000D01*
X14102583Y-7838000D02*
X14102583Y-7940000D01*
X14051583Y-7889000D02*
X14153583Y-7889000D01*
X14102583Y-8092000D02*
X14102583Y-8194000D01*
X14051583Y-8143000D02*
X14153583Y-8143000D01*
X14102583Y-8346000D02*
X14102583Y-8448000D01*
X14051583Y-8397000D02*
X14153583Y-8397000D01*
X14102583Y-8600000D02*
X14102583Y-8702000D01*
X14051583Y-8651000D02*
X14153583Y-8651000D01*
X14102583Y-8854000D02*
X14102583Y-8956000D01*
X14051583Y-8905000D02*
X14153583Y-8905000D01*
X14102583Y-9108000D02*
X14102583Y-9210000D01*
X14051583Y-9159000D02*
X14153583Y-9159000D01*
X14102583Y-9362000D02*
X14102583Y-9464000D01*
X14051583Y-9413000D02*
X14153583Y-9413000D01*
X14102583Y-9616000D02*
X14102583Y-9718000D01*
X14051583Y-9667000D02*
X14153583Y-9667000D01*
X14102583Y-9870000D02*
X14102583Y-9972000D01*
X14051583Y-9921000D02*
X14153583Y-9921000D01*
X14102583Y-10124000D02*
X14102583Y-10226000D01*
X14051583Y-10175000D02*
X14153583Y-10175000D01*
X14102583Y-10378000D02*
X14102583Y-10480000D01*
X14051583Y-10429000D02*
X14153583Y-10429000D01*
X14102583Y-10632000D02*
X14102583Y-10734000D01*
X14051583Y-10683000D02*
X14153583Y-10683000D01*
X14737583Y-10609000D02*
X14737583Y-10711000D01*
X14686583Y-10660000D02*
X14788583Y-10660000D01*
X14991583Y-10609000D02*
X14991583Y-10711000D01*
X14940583Y-10660000D02*
X15042583Y-10660000D01*
X15245583Y-10609000D02*
X15245583Y-10711000D01*
X15194583Y-10660000D02*
X15296583Y-10660000D01*
X15880583Y-5806000D02*
X15880583Y-5908000D01*
X15829583Y-5857000D02*
X15931583Y-5857000D01*
X15880583Y-6060000D02*
X15880583Y-6162000D01*
X15829583Y-6111000D02*
X15931583Y-6111000D01*
X15880583Y-6314000D02*
X15880583Y-6416000D01*
X15829583Y-6365000D02*
X15931583Y-6365000D01*
X15880583Y-6568000D02*
X15880583Y-6670000D01*
X15829583Y-6619000D02*
X15931583Y-6619000D01*
X15880583Y-6822000D02*
X15880583Y-6924000D01*
X15829583Y-6873000D02*
X15931583Y-6873000D01*
X15880583Y-7076000D02*
X15880583Y-7178000D01*
X15829583Y-7127000D02*
X15931583Y-7127000D01*
X15880583Y-7330000D02*
X15880583Y-7432000D01*
X15829583Y-7381000D02*
X15931583Y-7381000D01*
X15880583Y-7584000D02*
X15880583Y-7686000D01*
X15829583Y-7635000D02*
X15931583Y-7635000D01*
X15880583Y-7838000D02*
X15880583Y-7940000D01*
X15829583Y-7889000D02*
X15931583Y-7889000D01*
X15880583Y-8092000D02*
X15880583Y-8194000D01*
X15829583Y-8143000D02*
X15931583Y-8143000D01*
X15880583Y-8346000D02*
X15880583Y-8448000D01*
X15829583Y-8397000D02*
X15931583Y-8397000D01*
X15880583Y-8600000D02*
X15880583Y-8702000D01*
X15829583Y-8651000D02*
X15931583Y-8651000D01*
X15880583Y-8854000D02*
X15880583Y-8956000D01*
X15829583Y-8905000D02*
X15931583Y-8905000D01*
X15880583Y-9108000D02*
X15880583Y-9210000D01*
X15829583Y-9159000D02*
X15931583Y-9159000D01*
X15880583Y-9362000D02*
X15880583Y-9464000D01*
X15829583Y-9413000D02*
X15931583Y-9413000D01*
X15880583Y-9616000D02*
X15880583Y-9718000D01*
X15829583Y-9667000D02*
X15931583Y-9667000D01*
X15880583Y-9870000D02*
X15880583Y-9972000D01*
X15829583Y-9921000D02*
X15931583Y-9921000D01*
X15880583Y-10124000D02*
X15880583Y-10226000D01*
X15829583Y-10175000D02*
X15931583Y-10175000D01*
X15880583Y-10378000D02*
X15880583Y-10480000D01*
X15829583Y-10429000D02*
X15931583Y-10429000D01*
X15880583Y-10632000D02*
X15880583Y-10734000D01*
X15829583Y-10683000D02*
X15931583Y-10683000D01*
D10*
X13042909Y-13216484D02*
X13042909Y-13016484D01*
X13042909Y-13016484D02*
X13090528Y-13016484D01*
X13090528Y-13016484D02*
X13119099Y-13026008D01*
X13119099Y-13026008D02*
X13138147Y-13045055D01*
X13138147Y-13045055D02*
X13147671Y-13064103D01*
X13147671Y-13064103D02*
X13157194Y-13102198D01*
X13157194Y-13102198D02*
X13157194Y-13130769D01*
X13157194Y-13130769D02*
X13147671Y-13168865D01*
X13147671Y-13168865D02*
X13138147Y-13187912D01*
X13138147Y-13187912D02*
X13119099Y-13206960D01*
X13119099Y-13206960D02*
X13090528Y-13216484D01*
X13090528Y-13216484D02*
X13042909Y-13216484D01*
X13242909Y-13216484D02*
X13242909Y-13083150D01*
X13242909Y-13121246D02*
X13252433Y-13102198D01*
X13252433Y-13102198D02*
X13261956Y-13092674D01*
X13261956Y-13092674D02*
X13281004Y-13083150D01*
X13281004Y-13083150D02*
X13300052Y-13083150D01*
X13366718Y-13216484D02*
X13366718Y-13083150D01*
X13366718Y-13016484D02*
X13357194Y-13026008D01*
X13357194Y-13026008D02*
X13366718Y-13035531D01*
X13366718Y-13035531D02*
X13376242Y-13026008D01*
X13376242Y-13026008D02*
X13366718Y-13016484D01*
X13366718Y-13016484D02*
X13366718Y-13035531D01*
X13490528Y-13216484D02*
X13471480Y-13206960D01*
X13471480Y-13206960D02*
X13461956Y-13187912D01*
X13461956Y-13187912D02*
X13461956Y-13016484D01*
X13595290Y-13216484D02*
X13576242Y-13206960D01*
X13576242Y-13206960D02*
X13566718Y-13187912D01*
X13566718Y-13187912D02*
X13566718Y-13016484D01*
X13823861Y-13216484D02*
X13823861Y-13016484D01*
X13823861Y-13016484D02*
X13890528Y-13159341D01*
X13890528Y-13159341D02*
X13957194Y-13016484D01*
X13957194Y-13016484D02*
X13957194Y-13216484D01*
X14138147Y-13216484D02*
X14138147Y-13111722D01*
X14138147Y-13111722D02*
X14128623Y-13092674D01*
X14128623Y-13092674D02*
X14109575Y-13083150D01*
X14109575Y-13083150D02*
X14071480Y-13083150D01*
X14071480Y-13083150D02*
X14052433Y-13092674D01*
X14138147Y-13206960D02*
X14119099Y-13216484D01*
X14119099Y-13216484D02*
X14071480Y-13216484D01*
X14071480Y-13216484D02*
X14052433Y-13206960D01*
X14052433Y-13206960D02*
X14042909Y-13187912D01*
X14042909Y-13187912D02*
X14042909Y-13168865D01*
X14042909Y-13168865D02*
X14052433Y-13149817D01*
X14052433Y-13149817D02*
X14071480Y-13140293D01*
X14071480Y-13140293D02*
X14119099Y-13140293D01*
X14119099Y-13140293D02*
X14138147Y-13130769D01*
X14233385Y-13083150D02*
X14233385Y-13283150D01*
X14233385Y-13092674D02*
X14252433Y-13083150D01*
X14252433Y-13083150D02*
X14290528Y-13083150D01*
X14290528Y-13083150D02*
X14309575Y-13092674D01*
X14309575Y-13092674D02*
X14319099Y-13102198D01*
X14319099Y-13102198D02*
X14328623Y-13121246D01*
X14328623Y-13121246D02*
X14328623Y-13178388D01*
X14328623Y-13178388D02*
X14319099Y-13197436D01*
X14319099Y-13197436D02*
X14309575Y-13206960D01*
X14309575Y-13206960D02*
X14290528Y-13216484D01*
X14290528Y-13216484D02*
X14252433Y-13216484D01*
X14252433Y-13216484D02*
X14233385Y-13206960D01*
X14414337Y-13197436D02*
X14423861Y-13206960D01*
X14423861Y-13206960D02*
X14414337Y-13216484D01*
X14414337Y-13216484D02*
X14404814Y-13206960D01*
X14404814Y-13206960D02*
X14414337Y-13197436D01*
X14414337Y-13197436D02*
X14414337Y-13216484D01*
X14414337Y-13092674D02*
X14423861Y-13102198D01*
X14423861Y-13102198D02*
X14414337Y-13111722D01*
X14414337Y-13111722D02*
X14404814Y-13102198D01*
X14404814Y-13102198D02*
X14414337Y-13092674D01*
X14414337Y-13092674D02*
X14414337Y-13111722D01*
D11*
X12742132Y-13525000D02*
X12782132Y-13565000D01*
X12782132Y-13525000D02*
X12742132Y-13565000D01*
D10*
X13081004Y-13436484D02*
X13100052Y-13436484D01*
X13100052Y-13436484D02*
X13119099Y-13446008D01*
X13119099Y-13446008D02*
X13128623Y-13455531D01*
X13128623Y-13455531D02*
X13138147Y-13474579D01*
X13138147Y-13474579D02*
X13147671Y-13512674D01*
X13147671Y-13512674D02*
X13147671Y-13560293D01*
X13147671Y-13560293D02*
X13138147Y-13598388D01*
X13138147Y-13598388D02*
X13128623Y-13617436D01*
X13128623Y-13617436D02*
X13119099Y-13626960D01*
X13119099Y-13626960D02*
X13100052Y-13636484D01*
X13100052Y-13636484D02*
X13081004Y-13636484D01*
X13081004Y-13636484D02*
X13061956Y-13626960D01*
X13061956Y-13626960D02*
X13052433Y-13617436D01*
X13052433Y-13617436D02*
X13042909Y-13598388D01*
X13042909Y-13598388D02*
X13033385Y-13560293D01*
X13033385Y-13560293D02*
X13033385Y-13512674D01*
X13033385Y-13512674D02*
X13042909Y-13474579D01*
X13042909Y-13474579D02*
X13052433Y-13455531D01*
X13052433Y-13455531D02*
X13061956Y-13446008D01*
X13061956Y-13446008D02*
X13081004Y-13436484D01*
X13233385Y-13617436D02*
X13242909Y-13626960D01*
X13242909Y-13626960D02*
X13233385Y-13636484D01*
X13233385Y-13636484D02*
X13223861Y-13626960D01*
X13223861Y-13626960D02*
X13233385Y-13617436D01*
X13233385Y-13617436D02*
X13233385Y-13636484D01*
X13414337Y-13503150D02*
X13414337Y-13636484D01*
X13366718Y-13426960D02*
X13319099Y-13569817D01*
X13319099Y-13569817D02*
X13442909Y-13569817D01*
X13557194Y-13436484D02*
X13576242Y-13436484D01*
X13576242Y-13436484D02*
X13595290Y-13446008D01*
X13595290Y-13446008D02*
X13604814Y-13455531D01*
X13604814Y-13455531D02*
X13614337Y-13474579D01*
X13614337Y-13474579D02*
X13623861Y-13512674D01*
X13623861Y-13512674D02*
X13623861Y-13560293D01*
X13623861Y-13560293D02*
X13614337Y-13598388D01*
X13614337Y-13598388D02*
X13604814Y-13617436D01*
X13604814Y-13617436D02*
X13595290Y-13626960D01*
X13595290Y-13626960D02*
X13576242Y-13636484D01*
X13576242Y-13636484D02*
X13557194Y-13636484D01*
X13557194Y-13636484D02*
X13538147Y-13626960D01*
X13538147Y-13626960D02*
X13528623Y-13617436D01*
X13528623Y-13617436D02*
X13519099Y-13598388D01*
X13519099Y-13598388D02*
X13509575Y-13560293D01*
X13509575Y-13560293D02*
X13509575Y-13512674D01*
X13509575Y-13512674D02*
X13519099Y-13474579D01*
X13519099Y-13474579D02*
X13528623Y-13455531D01*
X13528623Y-13455531D02*
X13538147Y-13446008D01*
X13538147Y-13446008D02*
X13557194Y-13436484D01*
X13747671Y-13436484D02*
X13766718Y-13436484D01*
X13766718Y-13436484D02*
X13785766Y-13446008D01*
X13785766Y-13446008D02*
X13795290Y-13455531D01*
X13795290Y-13455531D02*
X13804814Y-13474579D01*
X13804814Y-13474579D02*
X13814337Y-13512674D01*
X13814337Y-13512674D02*
X13814337Y-13560293D01*
X13814337Y-13560293D02*
X13804814Y-13598388D01*
X13804814Y-13598388D02*
X13795290Y-13617436D01*
X13795290Y-13617436D02*
X13785766Y-13626960D01*
X13785766Y-13626960D02*
X13766718Y-13636484D01*
X13766718Y-13636484D02*
X13747671Y-13636484D01*
X13747671Y-13636484D02*
X13728623Y-13626960D01*
X13728623Y-13626960D02*
X13719099Y-13617436D01*
X13719099Y-13617436D02*
X13709575Y-13598388D01*
X13709575Y-13598388D02*
X13700052Y-13560293D01*
X13700052Y-13560293D02*
X13700052Y-13512674D01*
X13700052Y-13512674D02*
X13709575Y-13474579D01*
X13709575Y-13474579D02*
X13719099Y-13455531D01*
X13719099Y-13455531D02*
X13728623Y-13446008D01*
X13728623Y-13446008D02*
X13747671Y-13436484D01*
X13900052Y-13636484D02*
X13900052Y-13503150D01*
X13900052Y-13522198D02*
X13909575Y-13512674D01*
X13909575Y-13512674D02*
X13928623Y-13503150D01*
X13928623Y-13503150D02*
X13957195Y-13503150D01*
X13957195Y-13503150D02*
X13976242Y-13512674D01*
X13976242Y-13512674D02*
X13985766Y-13531722D01*
X13985766Y-13531722D02*
X13985766Y-13636484D01*
X13985766Y-13531722D02*
X13995290Y-13512674D01*
X13995290Y-13512674D02*
X14014337Y-13503150D01*
X14014337Y-13503150D02*
X14042909Y-13503150D01*
X14042909Y-13503150D02*
X14061956Y-13512674D01*
X14061956Y-13512674D02*
X14071480Y-13531722D01*
X14071480Y-13531722D02*
X14071480Y-13636484D01*
X14166718Y-13636484D02*
X14166718Y-13503150D01*
X14166718Y-13522198D02*
X14176242Y-13512674D01*
X14176242Y-13512674D02*
X14195290Y-13503150D01*
X14195290Y-13503150D02*
X14223861Y-13503150D01*
X14223861Y-13503150D02*
X14242909Y-13512674D01*
X14242909Y-13512674D02*
X14252433Y-13531722D01*
X14252433Y-13531722D02*
X14252433Y-13636484D01*
X14252433Y-13531722D02*
X14261956Y-13512674D01*
X14261956Y-13512674D02*
X14281004Y-13503150D01*
X14281004Y-13503150D02*
X14309575Y-13503150D01*
X14309575Y-13503150D02*
X14328623Y-13512674D01*
X14328623Y-13512674D02*
X14338147Y-13531722D01*
X14338147Y-13531722D02*
X14338147Y-13636484D01*
X14728623Y-13426960D02*
X14557195Y-13684103D01*
X14985766Y-13436484D02*
X15004814Y-13436484D01*
X15004814Y-13436484D02*
X15023861Y-13446008D01*
X15023861Y-13446008D02*
X15033385Y-13455531D01*
X15033385Y-13455531D02*
X15042909Y-13474579D01*
X15042909Y-13474579D02*
X15052433Y-13512674D01*
X15052433Y-13512674D02*
X15052433Y-13560293D01*
X15052433Y-13560293D02*
X15042909Y-13598388D01*
X15042909Y-13598388D02*
X15033385Y-13617436D01*
X15033385Y-13617436D02*
X15023861Y-13626960D01*
X15023861Y-13626960D02*
X15004814Y-13636484D01*
X15004814Y-13636484D02*
X14985766Y-13636484D01*
X14985766Y-13636484D02*
X14966718Y-13626960D01*
X14966718Y-13626960D02*
X14957195Y-13617436D01*
X14957195Y-13617436D02*
X14947671Y-13598388D01*
X14947671Y-13598388D02*
X14938147Y-13560293D01*
X14938147Y-13560293D02*
X14938147Y-13512674D01*
X14938147Y-13512674D02*
X14947671Y-13474579D01*
X14947671Y-13474579D02*
X14957195Y-13455531D01*
X14957195Y-13455531D02*
X14966718Y-13446008D01*
X14966718Y-13446008D02*
X14985766Y-13436484D01*
X15138147Y-13617436D02*
X15147671Y-13626960D01*
X15147671Y-13626960D02*
X15138147Y-13636484D01*
X15138147Y-13636484D02*
X15128623Y-13626960D01*
X15128623Y-13626960D02*
X15138147Y-13617436D01*
X15138147Y-13617436D02*
X15138147Y-13636484D01*
X15271480Y-13436484D02*
X15290528Y-13436484D01*
X15290528Y-13436484D02*
X15309576Y-13446008D01*
X15309576Y-13446008D02*
X15319099Y-13455531D01*
X15319099Y-13455531D02*
X15328623Y-13474579D01*
X15328623Y-13474579D02*
X15338147Y-13512674D01*
X15338147Y-13512674D02*
X15338147Y-13560293D01*
X15338147Y-13560293D02*
X15328623Y-13598388D01*
X15328623Y-13598388D02*
X15319099Y-13617436D01*
X15319099Y-13617436D02*
X15309576Y-13626960D01*
X15309576Y-13626960D02*
X15290528Y-13636484D01*
X15290528Y-13636484D02*
X15271480Y-13636484D01*
X15271480Y-13636484D02*
X15252433Y-13626960D01*
X15252433Y-13626960D02*
X15242909Y-13617436D01*
X15242909Y-13617436D02*
X15233385Y-13598388D01*
X15233385Y-13598388D02*
X15223861Y-13560293D01*
X15223861Y-13560293D02*
X15223861Y-13512674D01*
X15223861Y-13512674D02*
X15233385Y-13474579D01*
X15233385Y-13474579D02*
X15242909Y-13455531D01*
X15242909Y-13455531D02*
X15252433Y-13446008D01*
X15252433Y-13446008D02*
X15271480Y-13436484D01*
X15528623Y-13636484D02*
X15414338Y-13636484D01*
X15471480Y-13636484D02*
X15471480Y-13436484D01*
X15471480Y-13436484D02*
X15452433Y-13465055D01*
X15452433Y-13465055D02*
X15433385Y-13484103D01*
X15433385Y-13484103D02*
X15414338Y-13493627D01*
X15709576Y-13436484D02*
X15614338Y-13436484D01*
X15614338Y-13436484D02*
X15604814Y-13531722D01*
X15604814Y-13531722D02*
X15614338Y-13522198D01*
X15614338Y-13522198D02*
X15633385Y-13512674D01*
X15633385Y-13512674D02*
X15681004Y-13512674D01*
X15681004Y-13512674D02*
X15700052Y-13522198D01*
X15700052Y-13522198D02*
X15709576Y-13531722D01*
X15709576Y-13531722D02*
X15719099Y-13550769D01*
X15719099Y-13550769D02*
X15719099Y-13598388D01*
X15719099Y-13598388D02*
X15709576Y-13617436D01*
X15709576Y-13617436D02*
X15700052Y-13626960D01*
X15700052Y-13626960D02*
X15681004Y-13636484D01*
X15681004Y-13636484D02*
X15633385Y-13636484D01*
X15633385Y-13636484D02*
X15614338Y-13626960D01*
X15614338Y-13626960D02*
X15604814Y-13617436D01*
X15785766Y-13436484D02*
X15919099Y-13436484D01*
X15919099Y-13436484D02*
X15833385Y-13636484D01*
X15985766Y-13436484D02*
X15985766Y-13474579D01*
X16061957Y-13436484D02*
X16061957Y-13474579D01*
X16357195Y-13712674D02*
X16347671Y-13703150D01*
X16347671Y-13703150D02*
X16328623Y-13674579D01*
X16328623Y-13674579D02*
X16319100Y-13655531D01*
X16319100Y-13655531D02*
X16309576Y-13626960D01*
X16309576Y-13626960D02*
X16300052Y-13579341D01*
X16300052Y-13579341D02*
X16300052Y-13541246D01*
X16300052Y-13541246D02*
X16309576Y-13493627D01*
X16309576Y-13493627D02*
X16319100Y-13465055D01*
X16319100Y-13465055D02*
X16328623Y-13446008D01*
X16328623Y-13446008D02*
X16347671Y-13417436D01*
X16347671Y-13417436D02*
X16357195Y-13407912D01*
X16538147Y-13636484D02*
X16423861Y-13636484D01*
X16481004Y-13636484D02*
X16481004Y-13436484D01*
X16481004Y-13436484D02*
X16461957Y-13465055D01*
X16461957Y-13465055D02*
X16442909Y-13484103D01*
X16442909Y-13484103D02*
X16423861Y-13493627D01*
X16661957Y-13436484D02*
X16681004Y-13436484D01*
X16681004Y-13436484D02*
X16700052Y-13446008D01*
X16700052Y-13446008D02*
X16709576Y-13455531D01*
X16709576Y-13455531D02*
X16719100Y-13474579D01*
X16719100Y-13474579D02*
X16728623Y-13512674D01*
X16728623Y-13512674D02*
X16728623Y-13560293D01*
X16728623Y-13560293D02*
X16719100Y-13598388D01*
X16719100Y-13598388D02*
X16709576Y-13617436D01*
X16709576Y-13617436D02*
X16700052Y-13626960D01*
X16700052Y-13626960D02*
X16681004Y-13636484D01*
X16681004Y-13636484D02*
X16661957Y-13636484D01*
X16661957Y-13636484D02*
X16642909Y-13626960D01*
X16642909Y-13626960D02*
X16633385Y-13617436D01*
X16633385Y-13617436D02*
X16623861Y-13598388D01*
X16623861Y-13598388D02*
X16614338Y-13560293D01*
X16614338Y-13560293D02*
X16614338Y-13512674D01*
X16614338Y-13512674D02*
X16623861Y-13474579D01*
X16623861Y-13474579D02*
X16633385Y-13455531D01*
X16633385Y-13455531D02*
X16642909Y-13446008D01*
X16642909Y-13446008D02*
X16661957Y-13436484D01*
X16823862Y-13636484D02*
X16861957Y-13636484D01*
X16861957Y-13636484D02*
X16881004Y-13626960D01*
X16881004Y-13626960D02*
X16890528Y-13617436D01*
X16890528Y-13617436D02*
X16909576Y-13588865D01*
X16909576Y-13588865D02*
X16919100Y-13550769D01*
X16919100Y-13550769D02*
X16919100Y-13474579D01*
X16919100Y-13474579D02*
X16909576Y-13455531D01*
X16909576Y-13455531D02*
X16900052Y-13446008D01*
X16900052Y-13446008D02*
X16881004Y-13436484D01*
X16881004Y-13436484D02*
X16842909Y-13436484D01*
X16842909Y-13436484D02*
X16823862Y-13446008D01*
X16823862Y-13446008D02*
X16814338Y-13455531D01*
X16814338Y-13455531D02*
X16804814Y-13474579D01*
X16804814Y-13474579D02*
X16804814Y-13522198D01*
X16804814Y-13522198D02*
X16814338Y-13541246D01*
X16814338Y-13541246D02*
X16823862Y-13550769D01*
X16823862Y-13550769D02*
X16842909Y-13560293D01*
X16842909Y-13560293D02*
X16881004Y-13560293D01*
X16881004Y-13560293D02*
X16900052Y-13550769D01*
X16900052Y-13550769D02*
X16909576Y-13541246D01*
X16909576Y-13541246D02*
X16919100Y-13522198D01*
X17157195Y-13636484D02*
X17157195Y-13436484D01*
X17242909Y-13636484D02*
X17242909Y-13531722D01*
X17242909Y-13531722D02*
X17233385Y-13512674D01*
X17233385Y-13512674D02*
X17214338Y-13503150D01*
X17214338Y-13503150D02*
X17185766Y-13503150D01*
X17185766Y-13503150D02*
X17166719Y-13512674D01*
X17166719Y-13512674D02*
X17157195Y-13522198D01*
X17366719Y-13636484D02*
X17347671Y-13626960D01*
X17347671Y-13626960D02*
X17338147Y-13617436D01*
X17338147Y-13617436D02*
X17328624Y-13598388D01*
X17328624Y-13598388D02*
X17328624Y-13541246D01*
X17328624Y-13541246D02*
X17338147Y-13522198D01*
X17338147Y-13522198D02*
X17347671Y-13512674D01*
X17347671Y-13512674D02*
X17366719Y-13503150D01*
X17366719Y-13503150D02*
X17395290Y-13503150D01*
X17395290Y-13503150D02*
X17414338Y-13512674D01*
X17414338Y-13512674D02*
X17423862Y-13522198D01*
X17423862Y-13522198D02*
X17433385Y-13541246D01*
X17433385Y-13541246D02*
X17433385Y-13598388D01*
X17433385Y-13598388D02*
X17423862Y-13617436D01*
X17423862Y-13617436D02*
X17414338Y-13626960D01*
X17414338Y-13626960D02*
X17395290Y-13636484D01*
X17395290Y-13636484D02*
X17366719Y-13636484D01*
X17547671Y-13636484D02*
X17528624Y-13626960D01*
X17528624Y-13626960D02*
X17519100Y-13607912D01*
X17519100Y-13607912D02*
X17519100Y-13436484D01*
X17700052Y-13626960D02*
X17681005Y-13636484D01*
X17681005Y-13636484D02*
X17642909Y-13636484D01*
X17642909Y-13636484D02*
X17623862Y-13626960D01*
X17623862Y-13626960D02*
X17614338Y-13607912D01*
X17614338Y-13607912D02*
X17614338Y-13531722D01*
X17614338Y-13531722D02*
X17623862Y-13512674D01*
X17623862Y-13512674D02*
X17642909Y-13503150D01*
X17642909Y-13503150D02*
X17681005Y-13503150D01*
X17681005Y-13503150D02*
X17700052Y-13512674D01*
X17700052Y-13512674D02*
X17709576Y-13531722D01*
X17709576Y-13531722D02*
X17709576Y-13550769D01*
X17709576Y-13550769D02*
X17614338Y-13569817D01*
X17785766Y-13626960D02*
X17804814Y-13636484D01*
X17804814Y-13636484D02*
X17842909Y-13636484D01*
X17842909Y-13636484D02*
X17861957Y-13626960D01*
X17861957Y-13626960D02*
X17871481Y-13607912D01*
X17871481Y-13607912D02*
X17871481Y-13598388D01*
X17871481Y-13598388D02*
X17861957Y-13579341D01*
X17861957Y-13579341D02*
X17842909Y-13569817D01*
X17842909Y-13569817D02*
X17814338Y-13569817D01*
X17814338Y-13569817D02*
X17795290Y-13560293D01*
X17795290Y-13560293D02*
X17785766Y-13541246D01*
X17785766Y-13541246D02*
X17785766Y-13531722D01*
X17785766Y-13531722D02*
X17795290Y-13512674D01*
X17795290Y-13512674D02*
X17814338Y-13503150D01*
X17814338Y-13503150D02*
X17842909Y-13503150D01*
X17842909Y-13503150D02*
X17861957Y-13512674D01*
X17938147Y-13712674D02*
X17947671Y-13703150D01*
X17947671Y-13703150D02*
X17966719Y-13674579D01*
X17966719Y-13674579D02*
X17976243Y-13655531D01*
X17976243Y-13655531D02*
X17985766Y-13626960D01*
X17985766Y-13626960D02*
X17995290Y-13579341D01*
X17995290Y-13579341D02*
X17995290Y-13541246D01*
X17995290Y-13541246D02*
X17985766Y-13493627D01*
X17985766Y-13493627D02*
X17976243Y-13465055D01*
X17976243Y-13465055D02*
X17966719Y-13446008D01*
X17966719Y-13446008D02*
X17947671Y-13417436D01*
X17947671Y-13417436D02*
X17938147Y-13407912D01*
D11*
X12782132Y-13809000D02*
G75*
G02*
X12682132Y-13809000I-50000J0D01*
G01*
X12682132Y-13809000D02*
G75*
G02*
X12782132Y-13809000I50000J0D01*
G01*
D10*
X13147671Y-13900484D02*
X13033385Y-13900484D01*
X13090528Y-13900484D02*
X13090528Y-13700484D01*
X13090528Y-13700484D02*
X13071480Y-13729055D01*
X13071480Y-13729055D02*
X13052433Y-13748103D01*
X13052433Y-13748103D02*
X13033385Y-13757627D01*
X13233385Y-13881436D02*
X13242909Y-13890960D01*
X13242909Y-13890960D02*
X13233385Y-13900484D01*
X13233385Y-13900484D02*
X13223861Y-13890960D01*
X13223861Y-13890960D02*
X13233385Y-13881436D01*
X13233385Y-13881436D02*
X13233385Y-13900484D01*
X13366718Y-13700484D02*
X13385766Y-13700484D01*
X13385766Y-13700484D02*
X13404814Y-13710008D01*
X13404814Y-13710008D02*
X13414337Y-13719531D01*
X13414337Y-13719531D02*
X13423861Y-13738579D01*
X13423861Y-13738579D02*
X13433385Y-13776674D01*
X13433385Y-13776674D02*
X13433385Y-13824293D01*
X13433385Y-13824293D02*
X13423861Y-13862388D01*
X13423861Y-13862388D02*
X13414337Y-13881436D01*
X13414337Y-13881436D02*
X13404814Y-13890960D01*
X13404814Y-13890960D02*
X13385766Y-13900484D01*
X13385766Y-13900484D02*
X13366718Y-13900484D01*
X13366718Y-13900484D02*
X13347671Y-13890960D01*
X13347671Y-13890960D02*
X13338147Y-13881436D01*
X13338147Y-13881436D02*
X13328623Y-13862388D01*
X13328623Y-13862388D02*
X13319099Y-13824293D01*
X13319099Y-13824293D02*
X13319099Y-13776674D01*
X13319099Y-13776674D02*
X13328623Y-13738579D01*
X13328623Y-13738579D02*
X13338147Y-13719531D01*
X13338147Y-13719531D02*
X13347671Y-13710008D01*
X13347671Y-13710008D02*
X13366718Y-13700484D01*
X13557194Y-13700484D02*
X13576242Y-13700484D01*
X13576242Y-13700484D02*
X13595290Y-13710008D01*
X13595290Y-13710008D02*
X13604814Y-13719531D01*
X13604814Y-13719531D02*
X13614337Y-13738579D01*
X13614337Y-13738579D02*
X13623861Y-13776674D01*
X13623861Y-13776674D02*
X13623861Y-13824293D01*
X13623861Y-13824293D02*
X13614337Y-13862388D01*
X13614337Y-13862388D02*
X13604814Y-13881436D01*
X13604814Y-13881436D02*
X13595290Y-13890960D01*
X13595290Y-13890960D02*
X13576242Y-13900484D01*
X13576242Y-13900484D02*
X13557194Y-13900484D01*
X13557194Y-13900484D02*
X13538147Y-13890960D01*
X13538147Y-13890960D02*
X13528623Y-13881436D01*
X13528623Y-13881436D02*
X13519099Y-13862388D01*
X13519099Y-13862388D02*
X13509575Y-13824293D01*
X13509575Y-13824293D02*
X13509575Y-13776674D01*
X13509575Y-13776674D02*
X13519099Y-13738579D01*
X13519099Y-13738579D02*
X13528623Y-13719531D01*
X13528623Y-13719531D02*
X13538147Y-13710008D01*
X13538147Y-13710008D02*
X13557194Y-13700484D01*
X13747671Y-13700484D02*
X13766718Y-13700484D01*
X13766718Y-13700484D02*
X13785766Y-13710008D01*
X13785766Y-13710008D02*
X13795290Y-13719531D01*
X13795290Y-13719531D02*
X13804814Y-13738579D01*
X13804814Y-13738579D02*
X13814337Y-13776674D01*
X13814337Y-13776674D02*
X13814337Y-13824293D01*
X13814337Y-13824293D02*
X13804814Y-13862388D01*
X13804814Y-13862388D02*
X13795290Y-13881436D01*
X13795290Y-13881436D02*
X13785766Y-13890960D01*
X13785766Y-13890960D02*
X13766718Y-13900484D01*
X13766718Y-13900484D02*
X13747671Y-13900484D01*
X13747671Y-13900484D02*
X13728623Y-13890960D01*
X13728623Y-13890960D02*
X13719099Y-13881436D01*
X13719099Y-13881436D02*
X13709575Y-13862388D01*
X13709575Y-13862388D02*
X13700052Y-13824293D01*
X13700052Y-13824293D02*
X13700052Y-13776674D01*
X13700052Y-13776674D02*
X13709575Y-13738579D01*
X13709575Y-13738579D02*
X13719099Y-13719531D01*
X13719099Y-13719531D02*
X13728623Y-13710008D01*
X13728623Y-13710008D02*
X13747671Y-13700484D01*
X13900052Y-13900484D02*
X13900052Y-13767150D01*
X13900052Y-13786198D02*
X13909575Y-13776674D01*
X13909575Y-13776674D02*
X13928623Y-13767150D01*
X13928623Y-13767150D02*
X13957195Y-13767150D01*
X13957195Y-13767150D02*
X13976242Y-13776674D01*
X13976242Y-13776674D02*
X13985766Y-13795722D01*
X13985766Y-13795722D02*
X13985766Y-13900484D01*
X13985766Y-13795722D02*
X13995290Y-13776674D01*
X13995290Y-13776674D02*
X14014337Y-13767150D01*
X14014337Y-13767150D02*
X14042909Y-13767150D01*
X14042909Y-13767150D02*
X14061956Y-13776674D01*
X14061956Y-13776674D02*
X14071480Y-13795722D01*
X14071480Y-13795722D02*
X14071480Y-13900484D01*
X14166718Y-13900484D02*
X14166718Y-13767150D01*
X14166718Y-13786198D02*
X14176242Y-13776674D01*
X14176242Y-13776674D02*
X14195290Y-13767150D01*
X14195290Y-13767150D02*
X14223861Y-13767150D01*
X14223861Y-13767150D02*
X14242909Y-13776674D01*
X14242909Y-13776674D02*
X14252433Y-13795722D01*
X14252433Y-13795722D02*
X14252433Y-13900484D01*
X14252433Y-13795722D02*
X14261956Y-13776674D01*
X14261956Y-13776674D02*
X14281004Y-13767150D01*
X14281004Y-13767150D02*
X14309575Y-13767150D01*
X14309575Y-13767150D02*
X14328623Y-13776674D01*
X14328623Y-13776674D02*
X14338147Y-13795722D01*
X14338147Y-13795722D02*
X14338147Y-13900484D01*
X14728623Y-13690960D02*
X14557195Y-13948103D01*
X14985766Y-13700484D02*
X15004814Y-13700484D01*
X15004814Y-13700484D02*
X15023861Y-13710008D01*
X15023861Y-13710008D02*
X15033385Y-13719531D01*
X15033385Y-13719531D02*
X15042909Y-13738579D01*
X15042909Y-13738579D02*
X15052433Y-13776674D01*
X15052433Y-13776674D02*
X15052433Y-13824293D01*
X15052433Y-13824293D02*
X15042909Y-13862388D01*
X15042909Y-13862388D02*
X15033385Y-13881436D01*
X15033385Y-13881436D02*
X15023861Y-13890960D01*
X15023861Y-13890960D02*
X15004814Y-13900484D01*
X15004814Y-13900484D02*
X14985766Y-13900484D01*
X14985766Y-13900484D02*
X14966718Y-13890960D01*
X14966718Y-13890960D02*
X14957195Y-13881436D01*
X14957195Y-13881436D02*
X14947671Y-13862388D01*
X14947671Y-13862388D02*
X14938147Y-13824293D01*
X14938147Y-13824293D02*
X14938147Y-13776674D01*
X14938147Y-13776674D02*
X14947671Y-13738579D01*
X14947671Y-13738579D02*
X14957195Y-13719531D01*
X14957195Y-13719531D02*
X14966718Y-13710008D01*
X14966718Y-13710008D02*
X14985766Y-13700484D01*
X15138147Y-13881436D02*
X15147671Y-13890960D01*
X15147671Y-13890960D02*
X15138147Y-13900484D01*
X15138147Y-13900484D02*
X15128623Y-13890960D01*
X15128623Y-13890960D02*
X15138147Y-13881436D01*
X15138147Y-13881436D02*
X15138147Y-13900484D01*
X15271480Y-13700484D02*
X15290528Y-13700484D01*
X15290528Y-13700484D02*
X15309576Y-13710008D01*
X15309576Y-13710008D02*
X15319099Y-13719531D01*
X15319099Y-13719531D02*
X15328623Y-13738579D01*
X15328623Y-13738579D02*
X15338147Y-13776674D01*
X15338147Y-13776674D02*
X15338147Y-13824293D01*
X15338147Y-13824293D02*
X15328623Y-13862388D01*
X15328623Y-13862388D02*
X15319099Y-13881436D01*
X15319099Y-13881436D02*
X15309576Y-13890960D01*
X15309576Y-13890960D02*
X15290528Y-13900484D01*
X15290528Y-13900484D02*
X15271480Y-13900484D01*
X15271480Y-13900484D02*
X15252433Y-13890960D01*
X15252433Y-13890960D02*
X15242909Y-13881436D01*
X15242909Y-13881436D02*
X15233385Y-13862388D01*
X15233385Y-13862388D02*
X15223861Y-13824293D01*
X15223861Y-13824293D02*
X15223861Y-13776674D01*
X15223861Y-13776674D02*
X15233385Y-13738579D01*
X15233385Y-13738579D02*
X15242909Y-13719531D01*
X15242909Y-13719531D02*
X15252433Y-13710008D01*
X15252433Y-13710008D02*
X15271480Y-13700484D01*
X15404814Y-13700484D02*
X15528623Y-13700484D01*
X15528623Y-13700484D02*
X15461957Y-13776674D01*
X15461957Y-13776674D02*
X15490528Y-13776674D01*
X15490528Y-13776674D02*
X15509576Y-13786198D01*
X15509576Y-13786198D02*
X15519099Y-13795722D01*
X15519099Y-13795722D02*
X15528623Y-13814769D01*
X15528623Y-13814769D02*
X15528623Y-13862388D01*
X15528623Y-13862388D02*
X15519099Y-13881436D01*
X15519099Y-13881436D02*
X15509576Y-13890960D01*
X15509576Y-13890960D02*
X15490528Y-13900484D01*
X15490528Y-13900484D02*
X15433385Y-13900484D01*
X15433385Y-13900484D02*
X15414338Y-13890960D01*
X15414338Y-13890960D02*
X15404814Y-13881436D01*
X15623861Y-13900484D02*
X15661957Y-13900484D01*
X15661957Y-13900484D02*
X15681004Y-13890960D01*
X15681004Y-13890960D02*
X15690528Y-13881436D01*
X15690528Y-13881436D02*
X15709576Y-13852865D01*
X15709576Y-13852865D02*
X15719099Y-13814769D01*
X15719099Y-13814769D02*
X15719099Y-13738579D01*
X15719099Y-13738579D02*
X15709576Y-13719531D01*
X15709576Y-13719531D02*
X15700052Y-13710008D01*
X15700052Y-13710008D02*
X15681004Y-13700484D01*
X15681004Y-13700484D02*
X15642909Y-13700484D01*
X15642909Y-13700484D02*
X15623861Y-13710008D01*
X15623861Y-13710008D02*
X15614338Y-13719531D01*
X15614338Y-13719531D02*
X15604814Y-13738579D01*
X15604814Y-13738579D02*
X15604814Y-13786198D01*
X15604814Y-13786198D02*
X15614338Y-13805246D01*
X15614338Y-13805246D02*
X15623861Y-13814769D01*
X15623861Y-13814769D02*
X15642909Y-13824293D01*
X15642909Y-13824293D02*
X15681004Y-13824293D01*
X15681004Y-13824293D02*
X15700052Y-13814769D01*
X15700052Y-13814769D02*
X15709576Y-13805246D01*
X15709576Y-13805246D02*
X15719099Y-13786198D01*
X15890528Y-13767150D02*
X15890528Y-13900484D01*
X15842909Y-13690960D02*
X15795290Y-13833817D01*
X15795290Y-13833817D02*
X15919099Y-13833817D01*
X15985766Y-13700484D02*
X15985766Y-13738579D01*
X16061957Y-13700484D02*
X16061957Y-13738579D01*
X16357195Y-13976674D02*
X16347671Y-13967150D01*
X16347671Y-13967150D02*
X16328623Y-13938579D01*
X16328623Y-13938579D02*
X16319100Y-13919531D01*
X16319100Y-13919531D02*
X16309576Y-13890960D01*
X16309576Y-13890960D02*
X16300052Y-13843341D01*
X16300052Y-13843341D02*
X16300052Y-13805246D01*
X16300052Y-13805246D02*
X16309576Y-13757627D01*
X16309576Y-13757627D02*
X16319100Y-13729055D01*
X16319100Y-13729055D02*
X16328623Y-13710008D01*
X16328623Y-13710008D02*
X16347671Y-13681436D01*
X16347671Y-13681436D02*
X16357195Y-13671912D01*
X16461957Y-13786198D02*
X16442909Y-13776674D01*
X16442909Y-13776674D02*
X16433385Y-13767150D01*
X16433385Y-13767150D02*
X16423861Y-13748103D01*
X16423861Y-13748103D02*
X16423861Y-13738579D01*
X16423861Y-13738579D02*
X16433385Y-13719531D01*
X16433385Y-13719531D02*
X16442909Y-13710008D01*
X16442909Y-13710008D02*
X16461957Y-13700484D01*
X16461957Y-13700484D02*
X16500052Y-13700484D01*
X16500052Y-13700484D02*
X16519100Y-13710008D01*
X16519100Y-13710008D02*
X16528623Y-13719531D01*
X16528623Y-13719531D02*
X16538147Y-13738579D01*
X16538147Y-13738579D02*
X16538147Y-13748103D01*
X16538147Y-13748103D02*
X16528623Y-13767150D01*
X16528623Y-13767150D02*
X16519100Y-13776674D01*
X16519100Y-13776674D02*
X16500052Y-13786198D01*
X16500052Y-13786198D02*
X16461957Y-13786198D01*
X16461957Y-13786198D02*
X16442909Y-13795722D01*
X16442909Y-13795722D02*
X16433385Y-13805246D01*
X16433385Y-13805246D02*
X16423861Y-13824293D01*
X16423861Y-13824293D02*
X16423861Y-13862388D01*
X16423861Y-13862388D02*
X16433385Y-13881436D01*
X16433385Y-13881436D02*
X16442909Y-13890960D01*
X16442909Y-13890960D02*
X16461957Y-13900484D01*
X16461957Y-13900484D02*
X16500052Y-13900484D01*
X16500052Y-13900484D02*
X16519100Y-13890960D01*
X16519100Y-13890960D02*
X16528623Y-13881436D01*
X16528623Y-13881436D02*
X16538147Y-13862388D01*
X16538147Y-13862388D02*
X16538147Y-13824293D01*
X16538147Y-13824293D02*
X16528623Y-13805246D01*
X16528623Y-13805246D02*
X16519100Y-13795722D01*
X16519100Y-13795722D02*
X16500052Y-13786198D01*
X16776242Y-13900484D02*
X16776242Y-13700484D01*
X16861957Y-13900484D02*
X16861957Y-13795722D01*
X16861957Y-13795722D02*
X16852433Y-13776674D01*
X16852433Y-13776674D02*
X16833385Y-13767150D01*
X16833385Y-13767150D02*
X16804814Y-13767150D01*
X16804814Y-13767150D02*
X16785766Y-13776674D01*
X16785766Y-13776674D02*
X16776242Y-13786198D01*
X16985766Y-13900484D02*
X16966719Y-13890960D01*
X16966719Y-13890960D02*
X16957195Y-13881436D01*
X16957195Y-13881436D02*
X16947671Y-13862388D01*
X16947671Y-13862388D02*
X16947671Y-13805246D01*
X16947671Y-13805246D02*
X16957195Y-13786198D01*
X16957195Y-13786198D02*
X16966719Y-13776674D01*
X16966719Y-13776674D02*
X16985766Y-13767150D01*
X16985766Y-13767150D02*
X17014338Y-13767150D01*
X17014338Y-13767150D02*
X17033385Y-13776674D01*
X17033385Y-13776674D02*
X17042909Y-13786198D01*
X17042909Y-13786198D02*
X17052433Y-13805246D01*
X17052433Y-13805246D02*
X17052433Y-13862388D01*
X17052433Y-13862388D02*
X17042909Y-13881436D01*
X17042909Y-13881436D02*
X17033385Y-13890960D01*
X17033385Y-13890960D02*
X17014338Y-13900484D01*
X17014338Y-13900484D02*
X16985766Y-13900484D01*
X17166719Y-13900484D02*
X17147671Y-13890960D01*
X17147671Y-13890960D02*
X17138147Y-13871912D01*
X17138147Y-13871912D02*
X17138147Y-13700484D01*
X17319100Y-13890960D02*
X17300052Y-13900484D01*
X17300052Y-13900484D02*
X17261957Y-13900484D01*
X17261957Y-13900484D02*
X17242909Y-13890960D01*
X17242909Y-13890960D02*
X17233385Y-13871912D01*
X17233385Y-13871912D02*
X17233385Y-13795722D01*
X17233385Y-13795722D02*
X17242909Y-13776674D01*
X17242909Y-13776674D02*
X17261957Y-13767150D01*
X17261957Y-13767150D02*
X17300052Y-13767150D01*
X17300052Y-13767150D02*
X17319100Y-13776674D01*
X17319100Y-13776674D02*
X17328624Y-13795722D01*
X17328624Y-13795722D02*
X17328624Y-13814769D01*
X17328624Y-13814769D02*
X17233385Y-13833817D01*
X17404814Y-13890960D02*
X17423862Y-13900484D01*
X17423862Y-13900484D02*
X17461957Y-13900484D01*
X17461957Y-13900484D02*
X17481005Y-13890960D01*
X17481005Y-13890960D02*
X17490528Y-13871912D01*
X17490528Y-13871912D02*
X17490528Y-13862388D01*
X17490528Y-13862388D02*
X17481005Y-13843341D01*
X17481005Y-13843341D02*
X17461957Y-13833817D01*
X17461957Y-13833817D02*
X17433385Y-13833817D01*
X17433385Y-13833817D02*
X17414338Y-13824293D01*
X17414338Y-13824293D02*
X17404814Y-13805246D01*
X17404814Y-13805246D02*
X17404814Y-13795722D01*
X17404814Y-13795722D02*
X17414338Y-13776674D01*
X17414338Y-13776674D02*
X17433385Y-13767150D01*
X17433385Y-13767150D02*
X17461957Y-13767150D01*
X17461957Y-13767150D02*
X17481005Y-13776674D01*
X17557195Y-13976674D02*
X17566719Y-13967150D01*
X17566719Y-13967150D02*
X17585766Y-13938579D01*
X17585766Y-13938579D02*
X17595290Y-13919531D01*
X17595290Y-13919531D02*
X17604814Y-13890960D01*
X17604814Y-13890960D02*
X17614338Y-13843341D01*
X17614338Y-13843341D02*
X17614338Y-13805246D01*
X17614338Y-13805246D02*
X17604814Y-13757627D01*
X17604814Y-13757627D02*
X17595290Y-13729055D01*
X17595290Y-13729055D02*
X17585766Y-13710008D01*
X17585766Y-13710008D02*
X17566719Y-13681436D01*
X17566719Y-13681436D02*
X17557195Y-13671912D01*
D12*
X12731132Y-14022000D02*
X12731132Y-14124000D01*
X12680132Y-14073000D02*
X12782132Y-14073000D01*
D10*
X13147671Y-14164484D02*
X13033385Y-14164484D01*
X13090528Y-14164484D02*
X13090528Y-13964484D01*
X13090528Y-13964484D02*
X13071480Y-13993055D01*
X13071480Y-13993055D02*
X13052433Y-14012103D01*
X13052433Y-14012103D02*
X13033385Y-14021627D01*
X13233385Y-14145436D02*
X13242909Y-14154960D01*
X13242909Y-14154960D02*
X13233385Y-14164484D01*
X13233385Y-14164484D02*
X13223861Y-14154960D01*
X13223861Y-14154960D02*
X13233385Y-14145436D01*
X13233385Y-14145436D02*
X13233385Y-14164484D01*
X13366718Y-13964484D02*
X13385766Y-13964484D01*
X13385766Y-13964484D02*
X13404814Y-13974008D01*
X13404814Y-13974008D02*
X13414337Y-13983531D01*
X13414337Y-13983531D02*
X13423861Y-14002579D01*
X13423861Y-14002579D02*
X13433385Y-14040674D01*
X13433385Y-14040674D02*
X13433385Y-14088293D01*
X13433385Y-14088293D02*
X13423861Y-14126388D01*
X13423861Y-14126388D02*
X13414337Y-14145436D01*
X13414337Y-14145436D02*
X13404814Y-14154960D01*
X13404814Y-14154960D02*
X13385766Y-14164484D01*
X13385766Y-14164484D02*
X13366718Y-14164484D01*
X13366718Y-14164484D02*
X13347671Y-14154960D01*
X13347671Y-14154960D02*
X13338147Y-14145436D01*
X13338147Y-14145436D02*
X13328623Y-14126388D01*
X13328623Y-14126388D02*
X13319099Y-14088293D01*
X13319099Y-14088293D02*
X13319099Y-14040674D01*
X13319099Y-14040674D02*
X13328623Y-14002579D01*
X13328623Y-14002579D02*
X13338147Y-13983531D01*
X13338147Y-13983531D02*
X13347671Y-13974008D01*
X13347671Y-13974008D02*
X13366718Y-13964484D01*
X13509575Y-13983531D02*
X13519099Y-13974008D01*
X13519099Y-13974008D02*
X13538147Y-13964484D01*
X13538147Y-13964484D02*
X13585766Y-13964484D01*
X13585766Y-13964484D02*
X13604814Y-13974008D01*
X13604814Y-13974008D02*
X13614337Y-13983531D01*
X13614337Y-13983531D02*
X13623861Y-14002579D01*
X13623861Y-14002579D02*
X13623861Y-14021627D01*
X13623861Y-14021627D02*
X13614337Y-14050198D01*
X13614337Y-14050198D02*
X13500052Y-14164484D01*
X13500052Y-14164484D02*
X13623861Y-14164484D01*
X13747671Y-13964484D02*
X13766718Y-13964484D01*
X13766718Y-13964484D02*
X13785766Y-13974008D01*
X13785766Y-13974008D02*
X13795290Y-13983531D01*
X13795290Y-13983531D02*
X13804814Y-14002579D01*
X13804814Y-14002579D02*
X13814337Y-14040674D01*
X13814337Y-14040674D02*
X13814337Y-14088293D01*
X13814337Y-14088293D02*
X13804814Y-14126388D01*
X13804814Y-14126388D02*
X13795290Y-14145436D01*
X13795290Y-14145436D02*
X13785766Y-14154960D01*
X13785766Y-14154960D02*
X13766718Y-14164484D01*
X13766718Y-14164484D02*
X13747671Y-14164484D01*
X13747671Y-14164484D02*
X13728623Y-14154960D01*
X13728623Y-14154960D02*
X13719099Y-14145436D01*
X13719099Y-14145436D02*
X13709575Y-14126388D01*
X13709575Y-14126388D02*
X13700052Y-14088293D01*
X13700052Y-14088293D02*
X13700052Y-14040674D01*
X13700052Y-14040674D02*
X13709575Y-14002579D01*
X13709575Y-14002579D02*
X13719099Y-13983531D01*
X13719099Y-13983531D02*
X13728623Y-13974008D01*
X13728623Y-13974008D02*
X13747671Y-13964484D01*
X13900052Y-14164484D02*
X13900052Y-14031150D01*
X13900052Y-14050198D02*
X13909575Y-14040674D01*
X13909575Y-14040674D02*
X13928623Y-14031150D01*
X13928623Y-14031150D02*
X13957195Y-14031150D01*
X13957195Y-14031150D02*
X13976242Y-14040674D01*
X13976242Y-14040674D02*
X13985766Y-14059722D01*
X13985766Y-14059722D02*
X13985766Y-14164484D01*
X13985766Y-14059722D02*
X13995290Y-14040674D01*
X13995290Y-14040674D02*
X14014337Y-14031150D01*
X14014337Y-14031150D02*
X14042909Y-14031150D01*
X14042909Y-14031150D02*
X14061956Y-14040674D01*
X14061956Y-14040674D02*
X14071480Y-14059722D01*
X14071480Y-14059722D02*
X14071480Y-14164484D01*
X14166718Y-14164484D02*
X14166718Y-14031150D01*
X14166718Y-14050198D02*
X14176242Y-14040674D01*
X14176242Y-14040674D02*
X14195290Y-14031150D01*
X14195290Y-14031150D02*
X14223861Y-14031150D01*
X14223861Y-14031150D02*
X14242909Y-14040674D01*
X14242909Y-14040674D02*
X14252433Y-14059722D01*
X14252433Y-14059722D02*
X14252433Y-14164484D01*
X14252433Y-14059722D02*
X14261956Y-14040674D01*
X14261956Y-14040674D02*
X14281004Y-14031150D01*
X14281004Y-14031150D02*
X14309575Y-14031150D01*
X14309575Y-14031150D02*
X14328623Y-14040674D01*
X14328623Y-14040674D02*
X14338147Y-14059722D01*
X14338147Y-14059722D02*
X14338147Y-14164484D01*
X14728623Y-13954960D02*
X14557195Y-14212103D01*
X14985766Y-13964484D02*
X15004814Y-13964484D01*
X15004814Y-13964484D02*
X15023861Y-13974008D01*
X15023861Y-13974008D02*
X15033385Y-13983531D01*
X15033385Y-13983531D02*
X15042909Y-14002579D01*
X15042909Y-14002579D02*
X15052433Y-14040674D01*
X15052433Y-14040674D02*
X15052433Y-14088293D01*
X15052433Y-14088293D02*
X15042909Y-14126388D01*
X15042909Y-14126388D02*
X15033385Y-14145436D01*
X15033385Y-14145436D02*
X15023861Y-14154960D01*
X15023861Y-14154960D02*
X15004814Y-14164484D01*
X15004814Y-14164484D02*
X14985766Y-14164484D01*
X14985766Y-14164484D02*
X14966718Y-14154960D01*
X14966718Y-14154960D02*
X14957195Y-14145436D01*
X14957195Y-14145436D02*
X14947671Y-14126388D01*
X14947671Y-14126388D02*
X14938147Y-14088293D01*
X14938147Y-14088293D02*
X14938147Y-14040674D01*
X14938147Y-14040674D02*
X14947671Y-14002579D01*
X14947671Y-14002579D02*
X14957195Y-13983531D01*
X14957195Y-13983531D02*
X14966718Y-13974008D01*
X14966718Y-13974008D02*
X14985766Y-13964484D01*
X15138147Y-14145436D02*
X15147671Y-14154960D01*
X15147671Y-14154960D02*
X15138147Y-14164484D01*
X15138147Y-14164484D02*
X15128623Y-14154960D01*
X15128623Y-14154960D02*
X15138147Y-14145436D01*
X15138147Y-14145436D02*
X15138147Y-14164484D01*
X15271480Y-13964484D02*
X15290528Y-13964484D01*
X15290528Y-13964484D02*
X15309576Y-13974008D01*
X15309576Y-13974008D02*
X15319099Y-13983531D01*
X15319099Y-13983531D02*
X15328623Y-14002579D01*
X15328623Y-14002579D02*
X15338147Y-14040674D01*
X15338147Y-14040674D02*
X15338147Y-14088293D01*
X15338147Y-14088293D02*
X15328623Y-14126388D01*
X15328623Y-14126388D02*
X15319099Y-14145436D01*
X15319099Y-14145436D02*
X15309576Y-14154960D01*
X15309576Y-14154960D02*
X15290528Y-14164484D01*
X15290528Y-14164484D02*
X15271480Y-14164484D01*
X15271480Y-14164484D02*
X15252433Y-14154960D01*
X15252433Y-14154960D02*
X15242909Y-14145436D01*
X15242909Y-14145436D02*
X15233385Y-14126388D01*
X15233385Y-14126388D02*
X15223861Y-14088293D01*
X15223861Y-14088293D02*
X15223861Y-14040674D01*
X15223861Y-14040674D02*
X15233385Y-14002579D01*
X15233385Y-14002579D02*
X15242909Y-13983531D01*
X15242909Y-13983531D02*
X15252433Y-13974008D01*
X15252433Y-13974008D02*
X15271480Y-13964484D01*
X15509576Y-14031150D02*
X15509576Y-14164484D01*
X15461957Y-13954960D02*
X15414338Y-14097817D01*
X15414338Y-14097817D02*
X15538147Y-14097817D01*
X15652433Y-13964484D02*
X15671480Y-13964484D01*
X15671480Y-13964484D02*
X15690528Y-13974008D01*
X15690528Y-13974008D02*
X15700052Y-13983531D01*
X15700052Y-13983531D02*
X15709576Y-14002579D01*
X15709576Y-14002579D02*
X15719099Y-14040674D01*
X15719099Y-14040674D02*
X15719099Y-14088293D01*
X15719099Y-14088293D02*
X15709576Y-14126388D01*
X15709576Y-14126388D02*
X15700052Y-14145436D01*
X15700052Y-14145436D02*
X15690528Y-14154960D01*
X15690528Y-14154960D02*
X15671480Y-14164484D01*
X15671480Y-14164484D02*
X15652433Y-14164484D01*
X15652433Y-14164484D02*
X15633385Y-14154960D01*
X15633385Y-14154960D02*
X15623861Y-14145436D01*
X15623861Y-14145436D02*
X15614338Y-14126388D01*
X15614338Y-14126388D02*
X15604814Y-14088293D01*
X15604814Y-14088293D02*
X15604814Y-14040674D01*
X15604814Y-14040674D02*
X15614338Y-14002579D01*
X15614338Y-14002579D02*
X15623861Y-13983531D01*
X15623861Y-13983531D02*
X15633385Y-13974008D01*
X15633385Y-13974008D02*
X15652433Y-13964484D01*
X15795290Y-13983531D02*
X15804814Y-13974008D01*
X15804814Y-13974008D02*
X15823861Y-13964484D01*
X15823861Y-13964484D02*
X15871480Y-13964484D01*
X15871480Y-13964484D02*
X15890528Y-13974008D01*
X15890528Y-13974008D02*
X15900052Y-13983531D01*
X15900052Y-13983531D02*
X15909576Y-14002579D01*
X15909576Y-14002579D02*
X15909576Y-14021627D01*
X15909576Y-14021627D02*
X15900052Y-14050198D01*
X15900052Y-14050198D02*
X15785766Y-14164484D01*
X15785766Y-14164484D02*
X15909576Y-14164484D01*
X15985766Y-13964484D02*
X15985766Y-14002579D01*
X16061957Y-13964484D02*
X16061957Y-14002579D01*
X16357195Y-14240674D02*
X16347671Y-14231150D01*
X16347671Y-14231150D02*
X16328623Y-14202579D01*
X16328623Y-14202579D02*
X16319100Y-14183531D01*
X16319100Y-14183531D02*
X16309576Y-14154960D01*
X16309576Y-14154960D02*
X16300052Y-14107341D01*
X16300052Y-14107341D02*
X16300052Y-14069246D01*
X16300052Y-14069246D02*
X16309576Y-14021627D01*
X16309576Y-14021627D02*
X16319100Y-13993055D01*
X16319100Y-13993055D02*
X16328623Y-13974008D01*
X16328623Y-13974008D02*
X16347671Y-13945436D01*
X16347671Y-13945436D02*
X16357195Y-13935912D01*
X16519100Y-14031150D02*
X16519100Y-14164484D01*
X16471480Y-13954960D02*
X16423861Y-14097817D01*
X16423861Y-14097817D02*
X16547671Y-14097817D01*
X16604814Y-13964484D02*
X16728623Y-13964484D01*
X16728623Y-13964484D02*
X16661957Y-14040674D01*
X16661957Y-14040674D02*
X16690528Y-14040674D01*
X16690528Y-14040674D02*
X16709576Y-14050198D01*
X16709576Y-14050198D02*
X16719100Y-14059722D01*
X16719100Y-14059722D02*
X16728623Y-14078769D01*
X16728623Y-14078769D02*
X16728623Y-14126388D01*
X16728623Y-14126388D02*
X16719100Y-14145436D01*
X16719100Y-14145436D02*
X16709576Y-14154960D01*
X16709576Y-14154960D02*
X16690528Y-14164484D01*
X16690528Y-14164484D02*
X16633385Y-14164484D01*
X16633385Y-14164484D02*
X16614338Y-14154960D01*
X16614338Y-14154960D02*
X16604814Y-14145436D01*
X16966719Y-14164484D02*
X16966719Y-13964484D01*
X17052433Y-14164484D02*
X17052433Y-14059722D01*
X17052433Y-14059722D02*
X17042909Y-14040674D01*
X17042909Y-14040674D02*
X17023862Y-14031150D01*
X17023862Y-14031150D02*
X16995290Y-14031150D01*
X16995290Y-14031150D02*
X16976243Y-14040674D01*
X16976243Y-14040674D02*
X16966719Y-14050198D01*
X17176243Y-14164484D02*
X17157195Y-14154960D01*
X17157195Y-14154960D02*
X17147671Y-14145436D01*
X17147671Y-14145436D02*
X17138147Y-14126388D01*
X17138147Y-14126388D02*
X17138147Y-14069246D01*
X17138147Y-14069246D02*
X17147671Y-14050198D01*
X17147671Y-14050198D02*
X17157195Y-14040674D01*
X17157195Y-14040674D02*
X17176243Y-14031150D01*
X17176243Y-14031150D02*
X17204814Y-14031150D01*
X17204814Y-14031150D02*
X17223862Y-14040674D01*
X17223862Y-14040674D02*
X17233385Y-14050198D01*
X17233385Y-14050198D02*
X17242909Y-14069246D01*
X17242909Y-14069246D02*
X17242909Y-14126388D01*
X17242909Y-14126388D02*
X17233385Y-14145436D01*
X17233385Y-14145436D02*
X17223862Y-14154960D01*
X17223862Y-14154960D02*
X17204814Y-14164484D01*
X17204814Y-14164484D02*
X17176243Y-14164484D01*
X17357195Y-14164484D02*
X17338147Y-14154960D01*
X17338147Y-14154960D02*
X17328624Y-14135912D01*
X17328624Y-14135912D02*
X17328624Y-13964484D01*
X17509576Y-14154960D02*
X17490528Y-14164484D01*
X17490528Y-14164484D02*
X17452433Y-14164484D01*
X17452433Y-14164484D02*
X17433385Y-14154960D01*
X17433385Y-14154960D02*
X17423862Y-14135912D01*
X17423862Y-14135912D02*
X17423862Y-14059722D01*
X17423862Y-14059722D02*
X17433385Y-14040674D01*
X17433385Y-14040674D02*
X17452433Y-14031150D01*
X17452433Y-14031150D02*
X17490528Y-14031150D01*
X17490528Y-14031150D02*
X17509576Y-14040674D01*
X17509576Y-14040674D02*
X17519100Y-14059722D01*
X17519100Y-14059722D02*
X17519100Y-14078769D01*
X17519100Y-14078769D02*
X17423862Y-14097817D01*
X17595290Y-14154960D02*
X17614338Y-14164484D01*
X17614338Y-14164484D02*
X17652433Y-14164484D01*
X17652433Y-14164484D02*
X17671481Y-14154960D01*
X17671481Y-14154960D02*
X17681005Y-14135912D01*
X17681005Y-14135912D02*
X17681005Y-14126388D01*
X17681005Y-14126388D02*
X17671481Y-14107341D01*
X17671481Y-14107341D02*
X17652433Y-14097817D01*
X17652433Y-14097817D02*
X17623862Y-14097817D01*
X17623862Y-14097817D02*
X17604814Y-14088293D01*
X17604814Y-14088293D02*
X17595290Y-14069246D01*
X17595290Y-14069246D02*
X17595290Y-14059722D01*
X17595290Y-14059722D02*
X17604814Y-14040674D01*
X17604814Y-14040674D02*
X17623862Y-14031150D01*
X17623862Y-14031150D02*
X17652433Y-14031150D01*
X17652433Y-14031150D02*
X17671481Y-14040674D01*
X17747671Y-14240674D02*
X17757195Y-14231150D01*
X17757195Y-14231150D02*
X17776243Y-14202579D01*
X17776243Y-14202579D02*
X17785766Y-14183531D01*
X17785766Y-14183531D02*
X17795290Y-14154960D01*
X17795290Y-14154960D02*
X17804814Y-14107341D01*
X17804814Y-14107341D02*
X17804814Y-14069246D01*
X17804814Y-14069246D02*
X17795290Y-14021627D01*
X17795290Y-14021627D02*
X17785766Y-13993055D01*
X17785766Y-13993055D02*
X17776243Y-13974008D01*
X17776243Y-13974008D02*
X17757195Y-13945436D01*
X17757195Y-13945436D02*
X17747671Y-13935912D01*
M02*
