%TF.GenerationSoftware,KiCad,Pcbnew,8.99.0-unknown-120b06f916~181~ubuntu22.04.1*%
%TF.CreationDate,2024-11-21T04:22:58-08:00*%
%TF.ProjectId,gb_video_pico_breakout,67625f76-6964-4656-9f5f-7069636f5f62,rev?*%
%TF.SameCoordinates,Original*%
%TF.FileFunction,AssemblyDrawing,Top*%
%FSLAX46Y46*%
G04 Gerber Fmt 4.6, Leading zero omitted, Abs format (unit mm)*
G04 Created by KiCad (PCBNEW 8.99.0-unknown-120b06f916~181~ubuntu22.04.1) date 2024-11-21 04:22:58*
%MOMM*%
%LPD*%
G01*
G04 APERTURE LIST*
%ADD10C,0.150000*%
%ADD11C,0.080000*%
%ADD12C,0.254000*%
%ADD13C,0.100000*%
%ADD14C,0.120000*%
G04 APERTURE END LIST*
D10*
X134216666Y-119734819D02*
X134788094Y-119734819D01*
X134502380Y-120734819D02*
X134502380Y-119734819D01*
X135502380Y-120687200D02*
X135407142Y-120734819D01*
X135407142Y-120734819D02*
X135216666Y-120734819D01*
X135216666Y-120734819D02*
X135121428Y-120687200D01*
X135121428Y-120687200D02*
X135073809Y-120591961D01*
X135073809Y-120591961D02*
X135073809Y-120211009D01*
X135073809Y-120211009D02*
X135121428Y-120115771D01*
X135121428Y-120115771D02*
X135216666Y-120068152D01*
X135216666Y-120068152D02*
X135407142Y-120068152D01*
X135407142Y-120068152D02*
X135502380Y-120115771D01*
X135502380Y-120115771D02*
X135549999Y-120211009D01*
X135549999Y-120211009D02*
X135549999Y-120306247D01*
X135549999Y-120306247D02*
X135073809Y-120401485D01*
X135930952Y-120687200D02*
X136026190Y-120734819D01*
X136026190Y-120734819D02*
X136216666Y-120734819D01*
X136216666Y-120734819D02*
X136311904Y-120687200D01*
X136311904Y-120687200D02*
X136359523Y-120591961D01*
X136359523Y-120591961D02*
X136359523Y-120544342D01*
X136359523Y-120544342D02*
X136311904Y-120449104D01*
X136311904Y-120449104D02*
X136216666Y-120401485D01*
X136216666Y-120401485D02*
X136073809Y-120401485D01*
X136073809Y-120401485D02*
X135978571Y-120353866D01*
X135978571Y-120353866D02*
X135930952Y-120258628D01*
X135930952Y-120258628D02*
X135930952Y-120211009D01*
X135930952Y-120211009D02*
X135978571Y-120115771D01*
X135978571Y-120115771D02*
X136073809Y-120068152D01*
X136073809Y-120068152D02*
X136216666Y-120068152D01*
X136216666Y-120068152D02*
X136311904Y-120115771D01*
X136645238Y-120068152D02*
X137026190Y-120068152D01*
X136788095Y-119734819D02*
X136788095Y-120591961D01*
X136788095Y-120591961D02*
X136835714Y-120687200D01*
X136835714Y-120687200D02*
X136930952Y-120734819D01*
X136930952Y-120734819D02*
X137026190Y-120734819D01*
X137359524Y-120734819D02*
X137359524Y-119734819D01*
X137359524Y-119734819D02*
X137740476Y-119734819D01*
X137740476Y-119734819D02*
X137835714Y-119782438D01*
X137835714Y-119782438D02*
X137883333Y-119830057D01*
X137883333Y-119830057D02*
X137930952Y-119925295D01*
X137930952Y-119925295D02*
X137930952Y-120068152D01*
X137930952Y-120068152D02*
X137883333Y-120163390D01*
X137883333Y-120163390D02*
X137835714Y-120211009D01*
X137835714Y-120211009D02*
X137740476Y-120258628D01*
X137740476Y-120258628D02*
X137359524Y-120258628D01*
X138502381Y-120734819D02*
X138407143Y-120687200D01*
X138407143Y-120687200D02*
X138359524Y-120639580D01*
X138359524Y-120639580D02*
X138311905Y-120544342D01*
X138311905Y-120544342D02*
X138311905Y-120258628D01*
X138311905Y-120258628D02*
X138359524Y-120163390D01*
X138359524Y-120163390D02*
X138407143Y-120115771D01*
X138407143Y-120115771D02*
X138502381Y-120068152D01*
X138502381Y-120068152D02*
X138645238Y-120068152D01*
X138645238Y-120068152D02*
X138740476Y-120115771D01*
X138740476Y-120115771D02*
X138788095Y-120163390D01*
X138788095Y-120163390D02*
X138835714Y-120258628D01*
X138835714Y-120258628D02*
X138835714Y-120544342D01*
X138835714Y-120544342D02*
X138788095Y-120639580D01*
X138788095Y-120639580D02*
X138740476Y-120687200D01*
X138740476Y-120687200D02*
X138645238Y-120734819D01*
X138645238Y-120734819D02*
X138502381Y-120734819D01*
X139264286Y-120734819D02*
X139264286Y-120068152D01*
X139264286Y-119734819D02*
X139216667Y-119782438D01*
X139216667Y-119782438D02*
X139264286Y-119830057D01*
X139264286Y-119830057D02*
X139311905Y-119782438D01*
X139311905Y-119782438D02*
X139264286Y-119734819D01*
X139264286Y-119734819D02*
X139264286Y-119830057D01*
X139740476Y-120068152D02*
X139740476Y-120734819D01*
X139740476Y-120163390D02*
X139788095Y-120115771D01*
X139788095Y-120115771D02*
X139883333Y-120068152D01*
X139883333Y-120068152D02*
X140026190Y-120068152D01*
X140026190Y-120068152D02*
X140121428Y-120115771D01*
X140121428Y-120115771D02*
X140169047Y-120211009D01*
X140169047Y-120211009D02*
X140169047Y-120734819D01*
X140502381Y-120068152D02*
X140883333Y-120068152D01*
X140645238Y-119734819D02*
X140645238Y-120591961D01*
X140645238Y-120591961D02*
X140692857Y-120687200D01*
X140692857Y-120687200D02*
X140788095Y-120734819D01*
X140788095Y-120734819D02*
X140883333Y-120734819D01*
X137004819Y-119211904D02*
X137004819Y-118640476D01*
X138004819Y-118926190D02*
X137004819Y-118926190D01*
X138004819Y-118307142D02*
X137004819Y-118307142D01*
X137004819Y-118307142D02*
X137004819Y-117926190D01*
X137004819Y-117926190D02*
X137052438Y-117830952D01*
X137052438Y-117830952D02*
X137100057Y-117783333D01*
X137100057Y-117783333D02*
X137195295Y-117735714D01*
X137195295Y-117735714D02*
X137338152Y-117735714D01*
X137338152Y-117735714D02*
X137433390Y-117783333D01*
X137433390Y-117783333D02*
X137481009Y-117830952D01*
X137481009Y-117830952D02*
X137528628Y-117926190D01*
X137528628Y-117926190D02*
X137528628Y-118307142D01*
X137004819Y-117402380D02*
X137004819Y-116783333D01*
X137004819Y-116783333D02*
X137385771Y-117116666D01*
X137385771Y-117116666D02*
X137385771Y-116973809D01*
X137385771Y-116973809D02*
X137433390Y-116878571D01*
X137433390Y-116878571D02*
X137481009Y-116830952D01*
X137481009Y-116830952D02*
X137576247Y-116783333D01*
X137576247Y-116783333D02*
X137814342Y-116783333D01*
X137814342Y-116783333D02*
X137909580Y-116830952D01*
X137909580Y-116830952D02*
X137957200Y-116878571D01*
X137957200Y-116878571D02*
X138004819Y-116973809D01*
X138004819Y-116973809D02*
X138004819Y-117259523D01*
X138004819Y-117259523D02*
X137957200Y-117354761D01*
X137957200Y-117354761D02*
X137909580Y-117402380D01*
X141604819Y-122211904D02*
X141604819Y-121640476D01*
X142604819Y-121926190D02*
X141604819Y-121926190D01*
X142604819Y-121307142D02*
X141604819Y-121307142D01*
X141604819Y-121307142D02*
X141604819Y-120926190D01*
X141604819Y-120926190D02*
X141652438Y-120830952D01*
X141652438Y-120830952D02*
X141700057Y-120783333D01*
X141700057Y-120783333D02*
X141795295Y-120735714D01*
X141795295Y-120735714D02*
X141938152Y-120735714D01*
X141938152Y-120735714D02*
X142033390Y-120783333D01*
X142033390Y-120783333D02*
X142081009Y-120830952D01*
X142081009Y-120830952D02*
X142128628Y-120926190D01*
X142128628Y-120926190D02*
X142128628Y-121307142D01*
X141700057Y-120354761D02*
X141652438Y-120307142D01*
X141652438Y-120307142D02*
X141604819Y-120211904D01*
X141604819Y-120211904D02*
X141604819Y-119973809D01*
X141604819Y-119973809D02*
X141652438Y-119878571D01*
X141652438Y-119878571D02*
X141700057Y-119830952D01*
X141700057Y-119830952D02*
X141795295Y-119783333D01*
X141795295Y-119783333D02*
X141890533Y-119783333D01*
X141890533Y-119783333D02*
X142033390Y-119830952D01*
X142033390Y-119830952D02*
X142604819Y-120402380D01*
X142604819Y-120402380D02*
X142604819Y-119783333D01*
D11*
X141166666Y-118279530D02*
X141142857Y-118303340D01*
X141142857Y-118303340D02*
X141071428Y-118327149D01*
X141071428Y-118327149D02*
X141023809Y-118327149D01*
X141023809Y-118327149D02*
X140952381Y-118303340D01*
X140952381Y-118303340D02*
X140904762Y-118255720D01*
X140904762Y-118255720D02*
X140880952Y-118208101D01*
X140880952Y-118208101D02*
X140857143Y-118112863D01*
X140857143Y-118112863D02*
X140857143Y-118041435D01*
X140857143Y-118041435D02*
X140880952Y-117946197D01*
X140880952Y-117946197D02*
X140904762Y-117898578D01*
X140904762Y-117898578D02*
X140952381Y-117850959D01*
X140952381Y-117850959D02*
X141023809Y-117827149D01*
X141023809Y-117827149D02*
X141071428Y-117827149D01*
X141071428Y-117827149D02*
X141142857Y-117850959D01*
X141142857Y-117850959D02*
X141166666Y-117874768D01*
X141357143Y-117874768D02*
X141380952Y-117850959D01*
X141380952Y-117850959D02*
X141428571Y-117827149D01*
X141428571Y-117827149D02*
X141547619Y-117827149D01*
X141547619Y-117827149D02*
X141595238Y-117850959D01*
X141595238Y-117850959D02*
X141619047Y-117874768D01*
X141619047Y-117874768D02*
X141642857Y-117922387D01*
X141642857Y-117922387D02*
X141642857Y-117970006D01*
X141642857Y-117970006D02*
X141619047Y-118041435D01*
X141619047Y-118041435D02*
X141333333Y-118327149D01*
X141333333Y-118327149D02*
X141642857Y-118327149D01*
X142227149Y-112020833D02*
X141989054Y-112187499D01*
X142227149Y-112306547D02*
X141727149Y-112306547D01*
X141727149Y-112306547D02*
X141727149Y-112116071D01*
X141727149Y-112116071D02*
X141750959Y-112068452D01*
X141750959Y-112068452D02*
X141774768Y-112044642D01*
X141774768Y-112044642D02*
X141822387Y-112020833D01*
X141822387Y-112020833D02*
X141893816Y-112020833D01*
X141893816Y-112020833D02*
X141941435Y-112044642D01*
X141941435Y-112044642D02*
X141965244Y-112068452D01*
X141965244Y-112068452D02*
X141989054Y-112116071D01*
X141989054Y-112116071D02*
X141989054Y-112306547D01*
X141893816Y-111592261D02*
X142227149Y-111592261D01*
X141703340Y-111711309D02*
X142060482Y-111830356D01*
X142060482Y-111830356D02*
X142060482Y-111520833D01*
D12*
X145570151Y-120967619D02*
X146598246Y-120967619D01*
X146598246Y-120967619D02*
X146719198Y-120907142D01*
X146719198Y-120907142D02*
X146779675Y-120846666D01*
X146779675Y-120846666D02*
X146840151Y-120725714D01*
X146840151Y-120725714D02*
X146840151Y-120483809D01*
X146840151Y-120483809D02*
X146779675Y-120362857D01*
X146779675Y-120362857D02*
X146719198Y-120302380D01*
X146719198Y-120302380D02*
X146598246Y-120241904D01*
X146598246Y-120241904D02*
X145570151Y-120241904D01*
X146840151Y-118971904D02*
X146840151Y-119697619D01*
X146840151Y-119334762D02*
X145570151Y-119334762D01*
X145570151Y-119334762D02*
X145751579Y-119455714D01*
X145751579Y-119455714D02*
X145872532Y-119576666D01*
X145872532Y-119576666D02*
X145933008Y-119697619D01*
D11*
X158027149Y-115644047D02*
X157527149Y-115644047D01*
X157527149Y-115644047D02*
X157527149Y-115524999D01*
X157527149Y-115524999D02*
X157550959Y-115453571D01*
X157550959Y-115453571D02*
X157598578Y-115405952D01*
X157598578Y-115405952D02*
X157646197Y-115382142D01*
X157646197Y-115382142D02*
X157741435Y-115358333D01*
X157741435Y-115358333D02*
X157812863Y-115358333D01*
X157812863Y-115358333D02*
X157908101Y-115382142D01*
X157908101Y-115382142D02*
X157955720Y-115405952D01*
X157955720Y-115405952D02*
X158003340Y-115453571D01*
X158003340Y-115453571D02*
X158027149Y-115524999D01*
X158027149Y-115524999D02*
X158027149Y-115644047D01*
X158027149Y-114882142D02*
X158027149Y-115167856D01*
X158027149Y-115024999D02*
X157527149Y-115024999D01*
X157527149Y-115024999D02*
X157598578Y-115072618D01*
X157598578Y-115072618D02*
X157646197Y-115120237D01*
X157646197Y-115120237D02*
X157670006Y-115167856D01*
D10*
X158454819Y-122211904D02*
X158454819Y-121640476D01*
X159454819Y-121926190D02*
X158454819Y-121926190D01*
X159454819Y-121307142D02*
X158454819Y-121307142D01*
X158454819Y-121307142D02*
X158454819Y-120926190D01*
X158454819Y-120926190D02*
X158502438Y-120830952D01*
X158502438Y-120830952D02*
X158550057Y-120783333D01*
X158550057Y-120783333D02*
X158645295Y-120735714D01*
X158645295Y-120735714D02*
X158788152Y-120735714D01*
X158788152Y-120735714D02*
X158883390Y-120783333D01*
X158883390Y-120783333D02*
X158931009Y-120830952D01*
X158931009Y-120830952D02*
X158978628Y-120926190D01*
X158978628Y-120926190D02*
X158978628Y-121307142D01*
X159454819Y-119783333D02*
X159454819Y-120354761D01*
X159454819Y-120069047D02*
X158454819Y-120069047D01*
X158454819Y-120069047D02*
X158597676Y-120164285D01*
X158597676Y-120164285D02*
X158692914Y-120259523D01*
X158692914Y-120259523D02*
X158740533Y-120354761D01*
X148534881Y-85313819D02*
X148534881Y-84313819D01*
X148534881Y-84313819D02*
X148915833Y-84313819D01*
X148915833Y-84313819D02*
X149011071Y-84361438D01*
X149011071Y-84361438D02*
X149058690Y-84409057D01*
X149058690Y-84409057D02*
X149106309Y-84504295D01*
X149106309Y-84504295D02*
X149106309Y-84647152D01*
X149106309Y-84647152D02*
X149058690Y-84742390D01*
X149058690Y-84742390D02*
X149011071Y-84790009D01*
X149011071Y-84790009D02*
X148915833Y-84837628D01*
X148915833Y-84837628D02*
X148534881Y-84837628D01*
X149534881Y-85313819D02*
X149534881Y-84647152D01*
X149534881Y-84313819D02*
X149487262Y-84361438D01*
X149487262Y-84361438D02*
X149534881Y-84409057D01*
X149534881Y-84409057D02*
X149582500Y-84361438D01*
X149582500Y-84361438D02*
X149534881Y-84313819D01*
X149534881Y-84313819D02*
X149534881Y-84409057D01*
X150439642Y-85266200D02*
X150344404Y-85313819D01*
X150344404Y-85313819D02*
X150153928Y-85313819D01*
X150153928Y-85313819D02*
X150058690Y-85266200D01*
X150058690Y-85266200D02*
X150011071Y-85218580D01*
X150011071Y-85218580D02*
X149963452Y-85123342D01*
X149963452Y-85123342D02*
X149963452Y-84837628D01*
X149963452Y-84837628D02*
X150011071Y-84742390D01*
X150011071Y-84742390D02*
X150058690Y-84694771D01*
X150058690Y-84694771D02*
X150153928Y-84647152D01*
X150153928Y-84647152D02*
X150344404Y-84647152D01*
X150344404Y-84647152D02*
X150439642Y-84694771D01*
X151011071Y-85313819D02*
X150915833Y-85266200D01*
X150915833Y-85266200D02*
X150868214Y-85218580D01*
X150868214Y-85218580D02*
X150820595Y-85123342D01*
X150820595Y-85123342D02*
X150820595Y-84837628D01*
X150820595Y-84837628D02*
X150868214Y-84742390D01*
X150868214Y-84742390D02*
X150915833Y-84694771D01*
X150915833Y-84694771D02*
X151011071Y-84647152D01*
X151011071Y-84647152D02*
X151153928Y-84647152D01*
X151153928Y-84647152D02*
X151249166Y-84694771D01*
X151249166Y-84694771D02*
X151296785Y-84742390D01*
X151296785Y-84742390D02*
X151344404Y-84837628D01*
X151344404Y-84837628D02*
X151344404Y-85123342D01*
X151344404Y-85123342D02*
X151296785Y-85218580D01*
X151296785Y-85218580D02*
X151249166Y-85266200D01*
X151249166Y-85266200D02*
X151153928Y-85313819D01*
X151153928Y-85313819D02*
X151011071Y-85313819D01*
X149153928Y-82154819D02*
X149153928Y-82964342D01*
X149153928Y-82964342D02*
X149201547Y-83059580D01*
X149201547Y-83059580D02*
X149249166Y-83107200D01*
X149249166Y-83107200D02*
X149344404Y-83154819D01*
X149344404Y-83154819D02*
X149534880Y-83154819D01*
X149534880Y-83154819D02*
X149630118Y-83107200D01*
X149630118Y-83107200D02*
X149677737Y-83059580D01*
X149677737Y-83059580D02*
X149725356Y-82964342D01*
X149725356Y-82964342D02*
X149725356Y-82154819D01*
X150630118Y-82488152D02*
X150630118Y-83154819D01*
X150392023Y-82107200D02*
X150153928Y-82821485D01*
X150153928Y-82821485D02*
X150772975Y-82821485D01*
D12*
X149220151Y-120967619D02*
X150248246Y-120967619D01*
X150248246Y-120967619D02*
X150369198Y-120907142D01*
X150369198Y-120907142D02*
X150429675Y-120846666D01*
X150429675Y-120846666D02*
X150490151Y-120725714D01*
X150490151Y-120725714D02*
X150490151Y-120483809D01*
X150490151Y-120483809D02*
X150429675Y-120362857D01*
X150429675Y-120362857D02*
X150369198Y-120302380D01*
X150369198Y-120302380D02*
X150248246Y-120241904D01*
X150248246Y-120241904D02*
X149220151Y-120241904D01*
X149341103Y-119697619D02*
X149280627Y-119637143D01*
X149280627Y-119637143D02*
X149220151Y-119516190D01*
X149220151Y-119516190D02*
X149220151Y-119213809D01*
X149220151Y-119213809D02*
X149280627Y-119092857D01*
X149280627Y-119092857D02*
X149341103Y-119032381D01*
X149341103Y-119032381D02*
X149462055Y-118971904D01*
X149462055Y-118971904D02*
X149583008Y-118971904D01*
X149583008Y-118971904D02*
X149764436Y-119032381D01*
X149764436Y-119032381D02*
X150490151Y-119758095D01*
X150490151Y-119758095D02*
X150490151Y-118971904D01*
X152870151Y-120967619D02*
X153898246Y-120967619D01*
X153898246Y-120967619D02*
X154019198Y-120907142D01*
X154019198Y-120907142D02*
X154079675Y-120846666D01*
X154079675Y-120846666D02*
X154140151Y-120725714D01*
X154140151Y-120725714D02*
X154140151Y-120483809D01*
X154140151Y-120483809D02*
X154079675Y-120362857D01*
X154079675Y-120362857D02*
X154019198Y-120302380D01*
X154019198Y-120302380D02*
X153898246Y-120241904D01*
X153898246Y-120241904D02*
X152870151Y-120241904D01*
X152870151Y-119758095D02*
X152870151Y-118971904D01*
X152870151Y-118971904D02*
X153353960Y-119395238D01*
X153353960Y-119395238D02*
X153353960Y-119213809D01*
X153353960Y-119213809D02*
X153414436Y-119092857D01*
X153414436Y-119092857D02*
X153474913Y-119032381D01*
X153474913Y-119032381D02*
X153595865Y-118971904D01*
X153595865Y-118971904D02*
X153898246Y-118971904D01*
X153898246Y-118971904D02*
X154019198Y-119032381D01*
X154019198Y-119032381D02*
X154079675Y-119092857D01*
X154079675Y-119092857D02*
X154140151Y-119213809D01*
X154140151Y-119213809D02*
X154140151Y-119576666D01*
X154140151Y-119576666D02*
X154079675Y-119697619D01*
X154079675Y-119697619D02*
X154019198Y-119758095D01*
D10*
X159904819Y-111590476D02*
X159428628Y-111923809D01*
X159904819Y-112161904D02*
X158904819Y-112161904D01*
X158904819Y-112161904D02*
X158904819Y-111780952D01*
X158904819Y-111780952D02*
X158952438Y-111685714D01*
X158952438Y-111685714D02*
X159000057Y-111638095D01*
X159000057Y-111638095D02*
X159095295Y-111590476D01*
X159095295Y-111590476D02*
X159238152Y-111590476D01*
X159238152Y-111590476D02*
X159333390Y-111638095D01*
X159333390Y-111638095D02*
X159381009Y-111685714D01*
X159381009Y-111685714D02*
X159428628Y-111780952D01*
X159428628Y-111780952D02*
X159428628Y-112161904D01*
D11*
X158027149Y-111983333D02*
X157789054Y-112149999D01*
X158027149Y-112269047D02*
X157527149Y-112269047D01*
X157527149Y-112269047D02*
X157527149Y-112078571D01*
X157527149Y-112078571D02*
X157550959Y-112030952D01*
X157550959Y-112030952D02*
X157574768Y-112007142D01*
X157574768Y-112007142D02*
X157622387Y-111983333D01*
X157622387Y-111983333D02*
X157693816Y-111983333D01*
X157693816Y-111983333D02*
X157741435Y-112007142D01*
X157741435Y-112007142D02*
X157765244Y-112030952D01*
X157765244Y-112030952D02*
X157789054Y-112078571D01*
X157789054Y-112078571D02*
X157789054Y-112269047D01*
X157527149Y-111816666D02*
X157527149Y-111507142D01*
X157527149Y-111507142D02*
X157717625Y-111673809D01*
X157717625Y-111673809D02*
X157717625Y-111602380D01*
X157717625Y-111602380D02*
X157741435Y-111554761D01*
X157741435Y-111554761D02*
X157765244Y-111530952D01*
X157765244Y-111530952D02*
X157812863Y-111507142D01*
X157812863Y-111507142D02*
X157931911Y-111507142D01*
X157931911Y-111507142D02*
X157979530Y-111530952D01*
X157979530Y-111530952D02*
X158003340Y-111554761D01*
X158003340Y-111554761D02*
X158027149Y-111602380D01*
X158027149Y-111602380D02*
X158027149Y-111745237D01*
X158027149Y-111745237D02*
X158003340Y-111792856D01*
X158003340Y-111792856D02*
X157979530Y-111816666D01*
D10*
X158859523Y-118459580D02*
X158811904Y-118507200D01*
X158811904Y-118507200D02*
X158669047Y-118554819D01*
X158669047Y-118554819D02*
X158573809Y-118554819D01*
X158573809Y-118554819D02*
X158430952Y-118507200D01*
X158430952Y-118507200D02*
X158335714Y-118411961D01*
X158335714Y-118411961D02*
X158288095Y-118316723D01*
X158288095Y-118316723D02*
X158240476Y-118126247D01*
X158240476Y-118126247D02*
X158240476Y-117983390D01*
X158240476Y-117983390D02*
X158288095Y-117792914D01*
X158288095Y-117792914D02*
X158335714Y-117697676D01*
X158335714Y-117697676D02*
X158430952Y-117602438D01*
X158430952Y-117602438D02*
X158573809Y-117554819D01*
X158573809Y-117554819D02*
X158669047Y-117554819D01*
X158669047Y-117554819D02*
X158811904Y-117602438D01*
X158811904Y-117602438D02*
X158859523Y-117650057D01*
D11*
X158466666Y-118279530D02*
X158442857Y-118303340D01*
X158442857Y-118303340D02*
X158371428Y-118327149D01*
X158371428Y-118327149D02*
X158323809Y-118327149D01*
X158323809Y-118327149D02*
X158252381Y-118303340D01*
X158252381Y-118303340D02*
X158204762Y-118255720D01*
X158204762Y-118255720D02*
X158180952Y-118208101D01*
X158180952Y-118208101D02*
X158157143Y-118112863D01*
X158157143Y-118112863D02*
X158157143Y-118041435D01*
X158157143Y-118041435D02*
X158180952Y-117946197D01*
X158180952Y-117946197D02*
X158204762Y-117898578D01*
X158204762Y-117898578D02*
X158252381Y-117850959D01*
X158252381Y-117850959D02*
X158323809Y-117827149D01*
X158323809Y-117827149D02*
X158371428Y-117827149D01*
X158371428Y-117827149D02*
X158442857Y-117850959D01*
X158442857Y-117850959D02*
X158466666Y-117874768D01*
X158942857Y-118327149D02*
X158657143Y-118327149D01*
X158800000Y-118327149D02*
X158800000Y-117827149D01*
X158800000Y-117827149D02*
X158752381Y-117898578D01*
X158752381Y-117898578D02*
X158704762Y-117946197D01*
X158704762Y-117946197D02*
X158657143Y-117970006D01*
D10*
X149587499Y-111504819D02*
X149587499Y-112219104D01*
X149587499Y-112219104D02*
X149539880Y-112361961D01*
X149539880Y-112361961D02*
X149444642Y-112457200D01*
X149444642Y-112457200D02*
X149301785Y-112504819D01*
X149301785Y-112504819D02*
X149206547Y-112504819D01*
X150587499Y-112504819D02*
X150016071Y-112504819D01*
X150301785Y-112504819D02*
X150301785Y-111504819D01*
X150301785Y-111504819D02*
X150206547Y-111647676D01*
X150206547Y-111647676D02*
X150111309Y-111742914D01*
X150111309Y-111742914D02*
X150016071Y-111790533D01*
D11*
X142227149Y-115669047D02*
X141727149Y-115669047D01*
X141727149Y-115669047D02*
X141727149Y-115549999D01*
X141727149Y-115549999D02*
X141750959Y-115478571D01*
X141750959Y-115478571D02*
X141798578Y-115430952D01*
X141798578Y-115430952D02*
X141846197Y-115407142D01*
X141846197Y-115407142D02*
X141941435Y-115383333D01*
X141941435Y-115383333D02*
X142012863Y-115383333D01*
X142012863Y-115383333D02*
X142108101Y-115407142D01*
X142108101Y-115407142D02*
X142155720Y-115430952D01*
X142155720Y-115430952D02*
X142203340Y-115478571D01*
X142203340Y-115478571D02*
X142227149Y-115549999D01*
X142227149Y-115549999D02*
X142227149Y-115669047D01*
X141774768Y-115192856D02*
X141750959Y-115169047D01*
X141750959Y-115169047D02*
X141727149Y-115121428D01*
X141727149Y-115121428D02*
X141727149Y-115002380D01*
X141727149Y-115002380D02*
X141750959Y-114954761D01*
X141750959Y-114954761D02*
X141774768Y-114930952D01*
X141774768Y-114930952D02*
X141822387Y-114907142D01*
X141822387Y-114907142D02*
X141870006Y-114907142D01*
X141870006Y-114907142D02*
X141941435Y-114930952D01*
X141941435Y-114930952D02*
X142227149Y-115216666D01*
X142227149Y-115216666D02*
X142227149Y-114907142D01*
D13*
%TO.C,TP3*%
X136280000Y-117315000D02*
X136915000Y-116680000D01*
X136280000Y-119220000D02*
X136280000Y-117315000D01*
X136915000Y-116680000D02*
X138820000Y-116680000D01*
X138820000Y-116680000D02*
X138820000Y-119220000D01*
X138820000Y-119220000D02*
X136280000Y-119220000D01*
%TO.C,TP2*%
X140880000Y-120315000D02*
X141515000Y-119680000D01*
X140880000Y-122220000D02*
X140880000Y-120315000D01*
X141515000Y-119680000D02*
X143420000Y-119680000D01*
X143420000Y-119680000D02*
X143420000Y-122220000D01*
X143420000Y-122220000D02*
X140880000Y-122220000D01*
%TO.C,C2*%
X140250000Y-117475000D02*
X142250000Y-117475000D01*
X140250000Y-118725000D02*
X140250000Y-117475000D01*
X142250000Y-117475000D02*
X142250000Y-118725000D01*
X142250000Y-118725000D02*
X140250000Y-118725000D01*
%TO.C,R4*%
X141375000Y-110937500D02*
X142625000Y-110937500D01*
X141375000Y-112937500D02*
X141375000Y-110937500D01*
X142625000Y-110937500D02*
X142625000Y-112937500D01*
X142625000Y-112937500D02*
X141375000Y-112937500D01*
%TO.C,U1*%
X145265833Y-119375000D02*
X147265833Y-119375000D01*
X145265833Y-120625000D02*
X145265833Y-119375000D01*
X146615833Y-119375000D02*
X147265833Y-120025000D01*
X147265833Y-119375000D02*
X147265833Y-120625000D01*
X147265833Y-120625000D02*
X145265833Y-120625000D01*
%TO.C,D1*%
X157200000Y-114275000D02*
X157200000Y-116275000D01*
X157200000Y-116275000D02*
X158400000Y-116275000D01*
X158100000Y-114275000D02*
X157200000Y-114275000D01*
X158400000Y-114575000D02*
X158100000Y-114275000D01*
X158400000Y-116275000D02*
X158400000Y-114575000D01*
%TO.C,TP1*%
X157730000Y-120315000D02*
X158365000Y-119680000D01*
X157730000Y-122220000D02*
X157730000Y-120315000D01*
X158365000Y-119680000D02*
X160270000Y-119680000D01*
X160270000Y-119680000D02*
X160270000Y-122220000D01*
X160270000Y-122220000D02*
X157730000Y-122220000D01*
D14*
%TO.C,U4*%
X139415833Y-57200000D02*
X160415833Y-57200000D01*
X139415833Y-58500000D02*
X140715833Y-57200000D01*
X139415833Y-108200000D02*
X139415833Y-57200000D01*
X160415833Y-57200000D02*
X160415833Y-108200000D01*
X160415833Y-108200000D02*
X139415833Y-108200000D01*
D13*
%TO.C,U2*%
X148915833Y-119375000D02*
X150915833Y-119375000D01*
X148915833Y-120625000D02*
X148915833Y-119375000D01*
X149565833Y-120625000D02*
X148915833Y-119975000D01*
X150915833Y-119375000D02*
X150915833Y-120625000D01*
X150915833Y-120625000D02*
X148915833Y-120625000D01*
%TO.C,U3*%
X152565833Y-119375000D02*
X154565833Y-119375000D01*
X152565833Y-120625000D02*
X152565833Y-119375000D01*
X153215833Y-120625000D02*
X152565833Y-119975000D01*
X154565833Y-119375000D02*
X154565833Y-120625000D01*
X154565833Y-120625000D02*
X152565833Y-120625000D01*
%TO.C,R3*%
X157175000Y-110900000D02*
X158425000Y-110900000D01*
X157175000Y-112900000D02*
X157175000Y-110900000D01*
X158425000Y-110900000D02*
X158425000Y-112900000D01*
X158425000Y-112900000D02*
X157175000Y-112900000D01*
%TO.C,C1*%
X157550000Y-117475000D02*
X159550000Y-117475000D01*
X157550000Y-118725000D02*
X157550000Y-117475000D01*
X159550000Y-117475000D02*
X159550000Y-118725000D01*
X159550000Y-118725000D02*
X157550000Y-118725000D01*
%TO.C,J1*%
X143570833Y-110780000D02*
X156270833Y-110780000D01*
X143570833Y-112685000D02*
X143570833Y-110780000D01*
X144205833Y-113320000D02*
X143570833Y-112685000D01*
X156270833Y-110780000D02*
X156270833Y-113320000D01*
X156270833Y-113320000D02*
X144205833Y-113320000D01*
%TO.C,D2*%
X141400000Y-114300000D02*
X141400000Y-116300000D01*
X141400000Y-116300000D02*
X142600000Y-116300000D01*
X142300000Y-114300000D02*
X141400000Y-114300000D01*
X142600000Y-114600000D02*
X142300000Y-114300000D01*
X142600000Y-116300000D02*
X142600000Y-114600000D01*
%TD*%
M02*
