M48
; DRILL file {KiCad 8.99.0-unknown-120b06f916~181~ubuntu22.04.1} date 2024-11-21T04:21:52-0800
; FORMAT={-:-/ absolute / inch / decimal}
; #@! TF.CreationDate,2024-11-21T04:21:52-08:00
; #@! TF.GenerationSoftware,Kicad,Pcbnew,8.99.0-unknown-120b06f916~181~ubuntu22.04.1
; #@! TF.FileFunction,Plated,1,2,PTH
FMAT,2
INCH
; #@! TA.AperFunction,Plated,PTH,ViaDrill
T1C0.0157
; #@! TA.AperFunction,Plated,PTH,ComponentDrill
T2C0.0394
; #@! TA.AperFunction,Plated,PTH,ComponentDrill
T3C0.0402
%
G90
G05
T1
X5.0846Y-2.4449
X5.1161Y-2.2874
X5.1319Y-4.5551
X5.1319Y-4.7854
X5.2461Y-2.5217
X5.311Y-4.7972
X5.3307Y-2.2618
X5.3445Y-2.5453
X5.3681Y-3.9685
X5.372Y-4.0591
X5.374Y-3.061
X5.374Y-3.4626
X5.374Y-3.5571
X5.376Y-2.9665
X5.3937Y-4.4331
X5.3957Y-4.3228
X5.4528Y-4.4902
X5.5197Y-4.3189
X5.6161Y-2.9035
X5.6299Y-4.2067
X5.6319Y-3.1201
X5.6319Y-3.6752
X5.6339Y-3.4685
X5.6358Y-3.1969
X5.6378Y-3.3268
X5.6398Y-4.0472
X5.6417Y-3.9331
X5.6437Y-4.626
X5.6496Y-2.7953
X5.6496Y-3.0039
X5.6772Y-2.3583
X5.685Y-3.0354
X5.687Y-4.6811
X5.687Y-4.7795
X5.689Y-2.4705
X5.689Y-2.5768
X5.7165Y-2.9961
X5.7185Y-2.687
X5.7677Y-3.5295
X5.7756Y-3.3445
X5.7756Y-3.8425
X5.7776Y-3.7028
X5.7815Y-4.0059
X5.7913Y-2.8327
X5.7913Y-2.9134
X5.7992Y-3.2244
X5.8228Y-3.1024
X5.8307Y-4.6457
X5.8307Y-4.7087
X5.8504Y-4.6102
X5.8524Y-4.4429
X5.9016Y-3.3209
X5.9016Y-3.4528
X5.9022Y-4.8091
X5.9035Y-3.7736
X5.9055Y-4.0256
X5.9409Y-4.8366
X5.9488Y-2.9843
X5.9528Y-4.4449
X5.9587Y-2.6969
X5.9626Y-2.565
X5.9724Y-4.6457
X5.9764Y-4.689
X5.9764Y-4.8071
X5.9783Y-3.1673
X5.9783Y-4.7638
X6.0039Y-3.4409
X6.0039Y-3.622
X6.0118Y-4.0335
X6.0197Y-3.8839
X6.0531Y-4.4449
X6.0709Y-2.8543
X6.0728Y-3.4547
X6.1181Y-2.5492
X6.122Y-4.8051
X6.126Y-4.6594
X6.128Y-2.9488
X6.1299Y-3.2087
X6.1319Y-3.0295
X6.1398Y-3.5945
X6.1457Y-4.0551
X6.1496Y-2.3346
X6.1496Y-4.2087
X6.1496Y-4.4862
X6.1516Y-3.3996
X6.1614Y-3.7461
X6.1654Y-3.9016
X6.1969Y-4.7126
X6.2736Y-4.311
X6.374Y-4.5984
X6.378Y-4.5059
X6.3898Y-4.376
X6.4213Y-4.7165
X6.4291Y-4.0394
X6.4331Y-3.9508
X6.439Y-2.8228
X6.439Y-2.939
X6.4469Y-3.0374
X6.4567Y-3.5197
X6.4587Y-3.439
X6.4705Y-2.4311
X6.4961Y-4.7933
X6.498Y-4.5138
X6.5335Y-2.252
X6.5531Y-2.5177
X6.6909Y-4.7795
X6.6949Y-4.5571
X6.7008Y-2.2795
X6.7047Y-2.4783
T2
X5.4154Y-4.6437
X5.5965Y-4.7618
X5.7024Y-4.4114
X5.8024Y-4.4114
X5.9024Y-4.4114
X6.0024Y-4.4114
X6.1024Y-4.4114
X6.2598Y-4.7618
T3
X5.5522Y-2.3059
X5.5522Y-2.4059
X5.5522Y-2.5059
X5.5522Y-2.6059
X5.5522Y-2.7059
X5.5522Y-2.8059
X5.5522Y-2.9059
X5.5522Y-3.0059
X5.5522Y-3.1059
X5.5522Y-3.2059
X5.5522Y-3.3059
X5.5522Y-3.4059
X5.5522Y-3.5059
X5.5522Y-3.6059
X5.5522Y-3.7059
X5.5522Y-3.8059
X5.5522Y-3.9059
X5.5522Y-4.0059
X5.5522Y-4.1059
X5.5522Y-4.2059
X5.8022Y-4.1969
X5.9022Y-4.1969
X6.0022Y-4.1969
X6.2522Y-2.3059
X6.2522Y-2.4059
X6.2522Y-2.5059
X6.2522Y-2.6059
X6.2522Y-2.7059
X6.2522Y-2.8059
X6.2522Y-2.9059
X6.2522Y-3.0059
X6.2522Y-3.1059
X6.2522Y-3.2059
X6.2522Y-3.3059
X6.2522Y-3.4059
X6.2522Y-3.5059
X6.2522Y-3.6059
X6.2522Y-3.7059
X6.2522Y-3.8059
X6.2522Y-3.9059
X6.2522Y-4.0059
X6.2522Y-4.1059
X6.2522Y-4.2059
M30
