%TF.GenerationSoftware,KiCad,Pcbnew,8.99.0-unknown-120b06f916~181~ubuntu22.04.1*%
%TF.CreationDate,2024-11-21T04:22:58-08:00*%
%TF.ProjectId,gb_video_pico_breakout,67625f76-6964-4656-9f5f-7069636f5f62,rev?*%
%TF.SameCoordinates,Original*%
%TF.FileFunction,Profile,NP*%
%FSLAX46Y46*%
G04 Gerber Fmt 4.6, Leading zero omitted, Abs format (unit mm)*
G04 Created by KiCad (PCBNEW 8.99.0-unknown-120b06f916~181~ubuntu22.04.1) date 2024-11-21 04:22:58*
%MOMM*%
%LPD*%
G01*
G04 APERTURE LIST*
%TA.AperFunction,Profile*%
%ADD10C,0.200000*%
%TD*%
%TA.AperFunction,Profile*%
%ADD11C,0.100000*%
%TD*%
G04 APERTURE END LIST*
D10*
X134921320Y-60500000D02*
G75*
G02*
X129921320Y-60500000I-2500000J0D01*
G01*
X129921320Y-60500000D02*
G75*
G02*
X134921320Y-60500000I2500000J0D01*
G01*
X168921320Y-56000000D02*
X130921320Y-56000000D01*
X130921320Y-65000000D02*
G75*
G02*
X127921300Y-62000000I-20J3000000D01*
G01*
X131921320Y-114000000D02*
X130921320Y-114000000D01*
X127921320Y-59000000D02*
G75*
G02*
X130921320Y-56000020I2999980J0D01*
G01*
X131921320Y-65000000D02*
G75*
G02*
X134921300Y-68000000I-20J-3000000D01*
G01*
X167921320Y-114000000D02*
X168921320Y-114000000D01*
X168921320Y-56000000D02*
G75*
G02*
X171921300Y-59000000I-20J-3000000D01*
G01*
X168921320Y-114000000D02*
G75*
G02*
X171921300Y-117000000I-20J-3000000D01*
G01*
X127921320Y-62000000D02*
X127921320Y-59000000D01*
X134921320Y-68000000D02*
X134921320Y-111000000D01*
D11*
X147421320Y-129000000D02*
G75*
G02*
X146921300Y-128500000I-20J500000D01*
G01*
X147421320Y-129000000D02*
X152421320Y-129000000D01*
D10*
X171921320Y-120000000D02*
G75*
G02*
X168921320Y-123000020I-3000020J0D01*
G01*
D11*
X153421320Y-123000000D02*
X168921320Y-123000000D01*
D10*
X127921320Y-120000000D02*
X127921320Y-117000000D01*
D11*
X146421320Y-123000000D02*
G75*
G02*
X146921300Y-123500000I-20J-500000D01*
G01*
D10*
X167921320Y-65000000D02*
X168921320Y-65000000D01*
X127921320Y-117000000D02*
G75*
G02*
X130921320Y-114000020I2999980J0D01*
G01*
D11*
X130921320Y-123000000D02*
X146421320Y-123000000D01*
D10*
X134921320Y-111000000D02*
G75*
G02*
X131921320Y-114000020I-3000020J0D01*
G01*
X134921320Y-118500000D02*
G75*
G02*
X129921320Y-118500000I-2500000J0D01*
G01*
X129921320Y-118500000D02*
G75*
G02*
X134921320Y-118500000I2500000J0D01*
G01*
X164921320Y-68000000D02*
X164921320Y-111000000D01*
X164921320Y-68000000D02*
G75*
G02*
X167921320Y-65000020I2999980J0D01*
G01*
X171921320Y-59000000D02*
X171921320Y-62000000D01*
X171921320Y-120000000D02*
X171921320Y-117000000D01*
D11*
X152921320Y-128500000D02*
X152921320Y-123500000D01*
D10*
X169921320Y-60500000D02*
G75*
G02*
X164921320Y-60500000I-2500000J0D01*
G01*
X164921320Y-60500000D02*
G75*
G02*
X169921320Y-60500000I2500000J0D01*
G01*
D11*
X152921320Y-128500000D02*
G75*
G02*
X152421320Y-129000020I-500020J0D01*
G01*
D10*
X167921320Y-114000000D02*
G75*
G02*
X164921300Y-111000000I-20J3000000D01*
G01*
X171921320Y-62000000D02*
G75*
G02*
X168921320Y-65000020I-3000020J0D01*
G01*
X130921320Y-123000000D02*
G75*
G02*
X127921300Y-120000000I-20J3000000D01*
G01*
D11*
X146921320Y-128500000D02*
X146921320Y-123500000D01*
X152921320Y-123500000D02*
G75*
G02*
X153421320Y-123000020I499980J0D01*
G01*
D10*
X131921320Y-65000000D02*
X130921320Y-65000000D01*
X169921320Y-118500000D02*
G75*
G02*
X164921320Y-118500000I-2500000J0D01*
G01*
X164921320Y-118500000D02*
G75*
G02*
X169921320Y-118500000I2500000J0D01*
G01*
M02*
