%TF.GenerationSoftware,KiCad,Pcbnew,8.99.0-unknown-120b06f916~181~ubuntu22.04.1*%
%TF.CreationDate,2024-11-21T04:22:57-08:00*%
%TF.ProjectId,gb_video_pico_breakout,67625f76-6964-4656-9f5f-7069636f5f62,rev?*%
%TF.SameCoordinates,Original*%
%TF.FileFunction,Copper,L1,Top*%
%TF.FilePolarity,Positive*%
%FSLAX46Y46*%
G04 Gerber Fmt 4.6, Leading zero omitted, Abs format (unit mm)*
G04 Created by KiCad (PCBNEW 8.99.0-unknown-120b06f916~181~ubuntu22.04.1) date 2024-11-21 04:22:57*
%MOMM*%
%LPD*%
G01*
G04 APERTURE LIST*
G04 Aperture macros list*
%AMRoundRect*
0 Rectangle with rounded corners*
0 $1 Rounding radius*
0 $2 $3 $4 $5 $6 $7 $8 $9 X,Y pos of 4 corners*
0 Add a 4 corners polygon primitive as box body*
4,1,4,$2,$3,$4,$5,$6,$7,$8,$9,$2,$3,0*
0 Add four circle primitives for the rounded corners*
1,1,$1+$1,$2,$3*
1,1,$1+$1,$4,$5*
1,1,$1+$1,$6,$7*
1,1,$1+$1,$8,$9*
0 Add four rect primitives between the rounded corners*
20,1,$1+$1,$2,$3,$4,$5,0*
20,1,$1+$1,$4,$5,$6,$7,0*
20,1,$1+$1,$6,$7,$8,$9,0*
20,1,$1+$1,$8,$9,$2,$3,0*%
%AMFreePoly0*
4,1,23,0.500000,-0.750000,0.000000,-0.750000,0.000000,-0.745722,-0.065263,-0.745722,-0.191342,-0.711940,-0.304381,-0.646677,-0.396677,-0.554381,-0.461940,-0.441342,-0.495722,-0.315263,-0.495722,-0.250000,-0.500000,-0.250000,-0.500000,0.250000,-0.495722,0.250000,-0.495722,0.315263,-0.461940,0.441342,-0.396677,0.554381,-0.304381,0.646677,-0.191342,0.711940,-0.065263,0.745722,0.000000,0.745722,
0.000000,0.750000,0.500000,0.750000,0.500000,-0.750000,0.500000,-0.750000,$1*%
%AMFreePoly1*
4,1,23,0.000000,0.745722,0.065263,0.745722,0.191342,0.711940,0.304381,0.646677,0.396677,0.554381,0.461940,0.441342,0.495722,0.315263,0.495722,0.250000,0.500000,0.250000,0.500000,-0.250000,0.495722,-0.250000,0.495722,-0.315263,0.461940,-0.441342,0.396677,-0.554381,0.304381,-0.646677,0.191342,-0.711940,0.065263,-0.745722,0.000000,-0.745722,0.000000,-0.750000,-0.500000,-0.750000,
-0.500000,0.750000,0.000000,0.750000,0.000000,0.745722,0.000000,0.745722,$1*%
G04 Aperture macros list end*
%TA.AperFunction,ComponentPad*%
%ADD10R,1.700000X1.700000*%
%TD*%
%TA.AperFunction,SMDPad,CuDef*%
%ADD11RoundRect,0.250000X0.250000X0.475000X-0.250000X0.475000X-0.250000X-0.475000X0.250000X-0.475000X0*%
%TD*%
%TA.AperFunction,SMDPad,CuDef*%
%ADD12RoundRect,0.250000X0.450000X-0.262500X0.450000X0.262500X-0.450000X0.262500X-0.450000X-0.262500X0*%
%TD*%
%TA.AperFunction,ConnectorPad*%
%ADD13R,1.000000X5.000000*%
%TD*%
%TA.AperFunction,SMDPad,CuDef*%
%ADD14FreePoly0,90.000000*%
%TD*%
%TA.AperFunction,SMDPad,CuDef*%
%ADD15FreePoly1,90.000000*%
%TD*%
%TA.AperFunction,SMDPad,CuDef*%
%ADD16R,0.400000X1.200000*%
%TD*%
%TA.AperFunction,SMDPad,CuDef*%
%ADD17RoundRect,0.243750X-0.456250X0.243750X-0.456250X-0.243750X0.456250X-0.243750X0.456250X0.243750X0*%
%TD*%
%TA.AperFunction,ComponentPad*%
%ADD18O,1.700000X1.700000*%
%TD*%
%TA.AperFunction,SMDPad,CuDef*%
%ADD19R,3.500000X1.700000*%
%TD*%
%TA.AperFunction,SMDPad,CuDef*%
%ADD20R,1.700000X3.500000*%
%TD*%
%TA.AperFunction,SMDPad,CuDef*%
%ADD21RoundRect,0.250000X-0.250000X-0.475000X0.250000X-0.475000X0.250000X0.475000X-0.250000X0.475000X0*%
%TD*%
%TA.AperFunction,ViaPad*%
%ADD22C,0.800000*%
%TD*%
%TA.AperFunction,Conductor*%
%ADD23C,0.250000*%
%TD*%
%TA.AperFunction,Conductor*%
%ADD24C,0.400000*%
%TD*%
%TA.AperFunction,Conductor*%
%ADD25C,1.000000*%
%TD*%
%TA.AperFunction,Conductor*%
%ADD26C,0.800000*%
%TD*%
G04 APERTURE END LIST*
D10*
%TO.P,TP3,1,1*%
%TO.N,+3V3*%
X137550000Y-117950000D03*
%TD*%
%TO.P,TP2,1,1*%
%TO.N,GND*%
X142150000Y-120950000D03*
%TD*%
D11*
%TO.P,C2,1*%
%TO.N,+3V3*%
X142200000Y-118100000D03*
%TO.P,C2,2*%
%TO.N,GND*%
X140300000Y-118100000D03*
%TD*%
D12*
%TO.P,R4,1*%
%TO.N,Net-(D2-K)*%
X142000000Y-112850000D03*
%TO.P,R4,2*%
%TO.N,GND*%
X142000000Y-111025000D03*
%TD*%
D13*
%TO.P,GB1,2,SO*%
%TO.N,TX_5V*%
X147921320Y-126000000D03*
%TO.P,GB1,4,SD*%
%TO.N,+5V*%
X149921320Y-126000000D03*
%TO.P,GB1,6,GND*%
%TO.N,GND*%
X151921320Y-126000000D03*
%TD*%
D14*
%TO.P,JP1,1,A*%
%TO.N,+3V3*%
X144800000Y-116150000D03*
D15*
%TO.P,JP1,2,B*%
%TO.N,Net-(J1-Pin_1)*%
X144800000Y-114850000D03*
%TD*%
D16*
%TO.P,U1,1,NC*%
%TO.N,unconnected-(U1-NC-Pad1)*%
X146915833Y-119050000D03*
%TO.P,U1,2,A*%
%TO.N,TX_3V3*%
X146265833Y-119050000D03*
%TO.P,U1,3,GND*%
%TO.N,GND*%
X145615833Y-119050000D03*
%TO.P,U1,4,Y*%
%TO.N,TX_5V*%
X145615833Y-120950000D03*
%TO.P,U1,5,VCC*%
%TO.N,+5V*%
X146915833Y-120950000D03*
%TD*%
D17*
%TO.P,D1,1,K*%
%TO.N,Net-(D1-K)*%
X157800000Y-114337500D03*
%TO.P,D1,2,A*%
%TO.N,+5V*%
X157800000Y-116212500D03*
%TD*%
D10*
%TO.P,TP1,1,1*%
%TO.N,+5V*%
X159000000Y-120950000D03*
%TD*%
D14*
%TO.P,JP2,1,A*%
%TO.N,TX_3V3*%
X147350000Y-116150000D03*
D15*
%TO.P,JP2,2,B*%
%TO.N,Net-(J1-Pin_2)*%
X147350000Y-114850000D03*
%TD*%
D18*
%TO.P,U4,1,GPIO0*%
%TO.N,unconnected-(U4-GPIO0-Pad1)*%
X141025833Y-58570000D03*
D19*
X140125833Y-58570000D03*
D18*
%TO.P,U4,2,GPIO1*%
%TO.N,unconnected-(U4-GPIO1-Pad2)*%
X141025833Y-61110000D03*
D19*
X140125833Y-61110000D03*
D10*
%TO.P,U4,3,GND*%
%TO.N,GND*%
X141025833Y-63650000D03*
D19*
X140125833Y-63650000D03*
D18*
%TO.P,U4,4,GPIO2*%
%TO.N,Net-(J1-Pin_3)*%
X141025833Y-66190000D03*
D19*
X140125833Y-66190000D03*
D18*
%TO.P,U4,5,GPIO3*%
%TO.N,Net-(J1-Pin_4)*%
X141025833Y-68730000D03*
D19*
X140125833Y-68730000D03*
D18*
%TO.P,U4,6,GPIO4*%
%TO.N,Net-(J1-Pin_2)*%
X141025833Y-71270000D03*
D19*
X140125833Y-71270000D03*
D18*
%TO.P,U4,7,GPIO5*%
%TO.N,unconnected-(U4-GPIO5-Pad7)*%
X141025833Y-73810000D03*
D19*
X140125833Y-73810000D03*
D10*
%TO.P,U4,8,GND*%
%TO.N,GND*%
X141025833Y-76350000D03*
D19*
X140125833Y-76350000D03*
D18*
%TO.P,U4,9,GPIO6*%
%TO.N,unconnected-(U4-GPIO6-Pad9)*%
X141025833Y-78890000D03*
D19*
X140125833Y-78890000D03*
D18*
%TO.P,U4,10,GPIO7*%
%TO.N,unconnected-(U4-GPIO7-Pad10)*%
X141025833Y-81430000D03*
D19*
X140125833Y-81430000D03*
D18*
%TO.P,U4,11,GPIO8*%
%TO.N,unconnected-(U4-GPIO8-Pad11)*%
X141025833Y-83970000D03*
D19*
X140125833Y-83970000D03*
D18*
%TO.P,U4,12,GPIO9*%
%TO.N,unconnected-(U4-GPIO9-Pad12)*%
X141025833Y-86510000D03*
D19*
X140125833Y-86510000D03*
D10*
%TO.P,U4,13,GND*%
%TO.N,GND*%
X141025833Y-89050000D03*
D19*
X140125833Y-89050000D03*
D18*
%TO.P,U4,14,GPIO10*%
%TO.N,unconnected-(U4-GPIO10-Pad14)*%
X141025833Y-91590000D03*
D19*
X140125833Y-91590000D03*
D18*
%TO.P,U4,15,GPIO11*%
%TO.N,unconnected-(U4-GPIO11-Pad15)*%
X141025833Y-94130000D03*
D19*
X140125833Y-94130000D03*
D18*
%TO.P,U4,16,GPIO12*%
%TO.N,unconnected-(U4-GPIO12-Pad16)*%
X141025833Y-96670000D03*
D19*
X140125833Y-96670000D03*
D18*
%TO.P,U4,17,GPIO13*%
%TO.N,unconnected-(U4-GPIO13-Pad17)*%
X141025833Y-99210000D03*
D19*
X140125833Y-99210000D03*
D10*
%TO.P,U4,18,GND*%
%TO.N,GND*%
X141025833Y-101750000D03*
D19*
X140125833Y-101750000D03*
D18*
%TO.P,U4,19,GPIO14*%
%TO.N,unconnected-(U4-GPIO14-Pad19)*%
X141025833Y-104290000D03*
D19*
X140125833Y-104290000D03*
D18*
%TO.P,U4,20,GPIO15*%
%TO.N,unconnected-(U4-GPIO15-Pad20)*%
X141025833Y-106830000D03*
D19*
X140125833Y-106830000D03*
D18*
%TO.P,U4,21,GPIO16*%
%TO.N,unconnected-(U4-GPIO16-Pad21)*%
X158805833Y-106830000D03*
D19*
X159705833Y-106830000D03*
D18*
%TO.P,U4,22,GPIO17*%
%TO.N,unconnected-(U4-GPIO17-Pad22)*%
X158805833Y-104290000D03*
D19*
X159705833Y-104290000D03*
D10*
%TO.P,U4,23,GND*%
%TO.N,GND*%
X158805833Y-101750000D03*
D19*
X159705833Y-101750000D03*
D18*
%TO.P,U4,24,GPIO18*%
%TO.N,unconnected-(U4-GPIO18-Pad24)*%
X158805833Y-99210000D03*
D19*
X159705833Y-99210000D03*
D18*
%TO.P,U4,25,GPIO19*%
%TO.N,unconnected-(U4-GPIO19-Pad25)*%
X158805833Y-96670000D03*
D19*
X159705833Y-96670000D03*
D18*
%TO.P,U4,26,GPIO20*%
%TO.N,unconnected-(U4-GPIO20-Pad26)*%
X158805833Y-94130000D03*
D19*
X159705833Y-94130000D03*
D18*
%TO.P,U4,27,GPIO21*%
%TO.N,unconnected-(U4-GPIO21-Pad27)*%
X158805833Y-91590000D03*
D19*
X159705833Y-91590000D03*
D10*
%TO.P,U4,28,GND*%
%TO.N,GND*%
X158805833Y-89050000D03*
D19*
X159705833Y-89050000D03*
D18*
%TO.P,U4,29,GPIO22*%
%TO.N,unconnected-(U4-GPIO22-Pad29)*%
X158805833Y-86510000D03*
D19*
X159705833Y-86510000D03*
D18*
%TO.P,U4,30,RUN*%
%TO.N,unconnected-(U4-RUN-Pad30)*%
X158805833Y-83970000D03*
D19*
X159705833Y-83970000D03*
D18*
%TO.P,U4,31,GPIO26_ADC0*%
%TO.N,unconnected-(U4-GPIO26_ADC0-Pad31)*%
X158805833Y-81430000D03*
D19*
X159705833Y-81430000D03*
D18*
%TO.P,U4,32,GPIO27_ADC1*%
%TO.N,unconnected-(U4-GPIO27_ADC1-Pad32)*%
X158805833Y-78890000D03*
D19*
X159705833Y-78890000D03*
D10*
%TO.P,U4,33,AGND*%
%TO.N,GND*%
X158805833Y-76350000D03*
D19*
X159705833Y-76350000D03*
D18*
%TO.P,U4,34,GPIO28_ADC2*%
%TO.N,unconnected-(U4-GPIO28_ADC2-Pad34)*%
X158805833Y-73810000D03*
D19*
X159705833Y-73810000D03*
D18*
%TO.P,U4,35,ADC_VREF*%
%TO.N,unconnected-(U4-ADC_VREF-Pad35)*%
X158805833Y-71270000D03*
D19*
X159705833Y-71270000D03*
D18*
%TO.P,U4,36,3V3*%
%TO.N,Net-(J1-Pin_1)*%
X158805833Y-68730000D03*
D19*
X159705833Y-68730000D03*
D18*
%TO.P,U4,37,3V3_EN*%
%TO.N,unconnected-(U4-3V3_EN-Pad37)*%
X158805833Y-66190000D03*
D19*
X159705833Y-66190000D03*
D10*
%TO.P,U4,38,GND*%
%TO.N,GND*%
X158805833Y-63650000D03*
D19*
X159705833Y-63650000D03*
D18*
%TO.P,U4,39,VSYS*%
%TO.N,unconnected-(U4-VSYS-Pad39)*%
X158805833Y-61110000D03*
D19*
X159705833Y-61110000D03*
D18*
%TO.P,U4,40,VBUS*%
%TO.N,unconnected-(U4-VBUS-Pad40)*%
X158805833Y-58570000D03*
D19*
X159705833Y-58570000D03*
D18*
%TO.P,U4,41,SWCLK*%
%TO.N,unconnected-(U4-SWCLK-Pad41)*%
X147375833Y-106600000D03*
D20*
X147375833Y-107500000D03*
D10*
%TO.P,U4,42,GND*%
%TO.N,GND*%
X149915833Y-106600000D03*
D20*
X149915833Y-107500000D03*
D18*
%TO.P,U4,43,SWDIO*%
%TO.N,unconnected-(U4-SWDIO-Pad43)*%
X152455833Y-106600000D03*
D20*
X152455833Y-107500000D03*
%TD*%
D14*
%TO.P,JP3,1,A*%
%TO.N,RX_3V3*%
X149900000Y-116150000D03*
D15*
%TO.P,JP3,2,B*%
%TO.N,Net-(J1-Pin_3)*%
X149900000Y-114850000D03*
%TD*%
D16*
%TO.P,U2,1,NC*%
%TO.N,unconnected-(U2-NC-Pad1)*%
X149265833Y-120950000D03*
%TO.P,U2,2,A*%
%TO.N,RX_5V*%
X149915833Y-120950000D03*
%TO.P,U2,3,GND*%
%TO.N,GND*%
X150565833Y-120950000D03*
%TO.P,U2,4,Y*%
%TO.N,RX_3V3*%
X150565833Y-119050000D03*
%TO.P,U2,5,VCC*%
%TO.N,+3V3*%
X149265833Y-119050000D03*
%TD*%
%TO.P,U3,1,NC*%
%TO.N,unconnected-(U3-NC-Pad1)*%
X152915833Y-120950000D03*
%TO.P,U3,2,A*%
%TO.N,CLK_5V*%
X153565833Y-120950000D03*
%TO.P,U3,3,GND*%
%TO.N,GND*%
X154215833Y-120950000D03*
%TO.P,U3,4,Y*%
%TO.N,CLK_3V3*%
X154215833Y-119050000D03*
%TO.P,U3,5,VCC*%
%TO.N,+3V3*%
X152915833Y-119050000D03*
%TD*%
D12*
%TO.P,R3,1*%
%TO.N,Net-(D1-K)*%
X157800000Y-112812500D03*
%TO.P,R3,2*%
%TO.N,GND*%
X157800000Y-110987500D03*
%TD*%
D14*
%TO.P,JP5,1,A*%
%TO.N,GND*%
X155000000Y-116150000D03*
D15*
%TO.P,JP5,2,B*%
%TO.N,Net-(J1-Pin_5)*%
X155000000Y-114850000D03*
%TD*%
D21*
%TO.P,C1,1*%
%TO.N,+5V*%
X157600000Y-118100000D03*
%TO.P,C1,2*%
%TO.N,GND*%
X159500000Y-118100000D03*
%TD*%
D10*
%TO.P,J1,1,Pin_1*%
%TO.N,Net-(J1-Pin_1)*%
X144840833Y-112050000D03*
D18*
%TO.P,J1,2,Pin_2*%
%TO.N,Net-(J1-Pin_2)*%
X147380833Y-112050000D03*
%TO.P,J1,3,Pin_3*%
%TO.N,Net-(J1-Pin_3)*%
X149920833Y-112050000D03*
%TO.P,J1,4,Pin_4*%
%TO.N,Net-(J1-Pin_4)*%
X152460833Y-112050000D03*
%TO.P,J1,5,Pin_5*%
%TO.N,Net-(J1-Pin_5)*%
X155000833Y-112050000D03*
%TD*%
D17*
%TO.P,D2,1,K*%
%TO.N,Net-(D2-K)*%
X142000000Y-114362500D03*
%TO.P,D2,2,A*%
%TO.N,+3V3*%
X142000000Y-116237500D03*
%TD*%
D14*
%TO.P,JP4,1,A*%
%TO.N,CLK_3V3*%
X152450000Y-116150000D03*
D15*
%TO.P,JP4,2,B*%
%TO.N,Net-(J1-Pin_4)*%
X152450000Y-114850000D03*
%TD*%
D22*
%TO.N,GND*%
X144450000Y-121400000D03*
X157400000Y-119700000D03*
X155500000Y-122050000D03*
X150900000Y-122850000D03*
X156500000Y-95150000D03*
X142650000Y-73750000D03*
X137050000Y-109800000D03*
X152500000Y-92000000D03*
X136500000Y-77750000D03*
X156100000Y-103000000D03*
X148600000Y-117100000D03*
X136500000Y-90350000D03*
X164000000Y-89400000D03*
X136450000Y-103100000D03*
X151850000Y-80450000D03*
X143050000Y-93350000D03*
X163750000Y-77150000D03*
X146750000Y-94050000D03*
X152700000Y-102450000D03*
X143000000Y-106850000D03*
X151450000Y-65150000D03*
X152900000Y-98650000D03*
X155700000Y-81500000D03*
X163300000Y-102600000D03*
X151850000Y-121000000D03*
X165000000Y-121750000D03*
X138500000Y-114050000D03*
X154200000Y-72500000D03*
X169950000Y-121400000D03*
X151200000Y-112900000D03*
X133250000Y-64050000D03*
X153750000Y-112900000D03*
X156200000Y-59300000D03*
X146700000Y-97600000D03*
X149900000Y-87700000D03*
X155650000Y-74900000D03*
X147100000Y-74000000D03*
X146700000Y-84950000D03*
X165950000Y-57200000D03*
X140200000Y-109700000D03*
X143100000Y-88100000D03*
X170050000Y-115750000D03*
X156200000Y-106900000D03*
X155950000Y-91300000D03*
X136350000Y-100800000D03*
X147100000Y-71950000D03*
X144200000Y-59900000D03*
X143050000Y-79250000D03*
X129150000Y-62100000D03*
X143300000Y-99900000D03*
X135750000Y-64650000D03*
X156200000Y-113950000D03*
X162000000Y-114450000D03*
X164050000Y-87350000D03*
X155750000Y-76950000D03*
X144500000Y-62750000D03*
X155600000Y-118350000D03*
X149900000Y-84350000D03*
X151350000Y-68500000D03*
X161900000Y-116800000D03*
X159350000Y-109500000D03*
X155400000Y-64750000D03*
X152500000Y-87400000D03*
X144500000Y-65450000D03*
X130350000Y-115700000D03*
X170300000Y-62950000D03*
X166450000Y-63950000D03*
X135400000Y-57450000D03*
X143150000Y-81200000D03*
X162300000Y-111150000D03*
X146500000Y-89650000D03*
X148650000Y-112850000D03*
X151800000Y-119100000D03*
X150000000Y-102250000D03*
X165050000Y-114650000D03*
X163400000Y-100350000D03*
X145250000Y-68250000D03*
X148100000Y-119600000D03*
X130350000Y-121550000D03*
X136500000Y-87950000D03*
X170200000Y-57900000D03*
X129950000Y-58100000D03*
X156250000Y-86350000D03*
X146850000Y-101750000D03*
X163550000Y-74650000D03*
X136550000Y-75350000D03*
X143200000Y-84500000D03*
X164350000Y-61750000D03*
X156600000Y-99100000D03*
X137000000Y-112600000D03*
X134900000Y-121850000D03*
X149950000Y-95850000D03*
X143500000Y-71000000D03*
X144450000Y-118900000D03*
X151100000Y-75800000D03*
X163550000Y-71700000D03*
X143250000Y-102800000D03*
X163100000Y-119800000D03*
%TO.N,+3V3*%
X151700000Y-118000000D03*
X148100000Y-118000000D03*
X143350000Y-117500000D03*
%TO.N,CLK_5V*%
X151800000Y-122100000D03*
%TO.N,RX_5V*%
X149915833Y-122150000D03*
%TO.N,Net-(J1-Pin_3)*%
X145200000Y-76100000D03*
X147900000Y-78800000D03*
%TO.N,Net-(J1-Pin_2)*%
X143500000Y-76300000D03*
X147300000Y-81900000D03*
%TO.N,Net-(J1-Pin_4)*%
X154250000Y-87750000D03*
X144400000Y-77100000D03*
%TD*%
D23*
%TO.N,+3V3*%
X142000000Y-116237500D02*
X139262500Y-116237500D01*
X139262500Y-116237500D02*
X137550000Y-117950000D01*
%TO.N,+5V*%
X149150000Y-122875000D02*
X149575000Y-122875000D01*
X149150000Y-122875000D02*
X149150000Y-122450000D01*
X149575000Y-122875000D02*
X149150000Y-122450000D01*
X149150000Y-122450000D02*
X148400000Y-121700000D01*
X148400000Y-121700000D02*
X148400000Y-120450000D01*
X148400000Y-120450000D02*
X148850000Y-120000000D01*
X148850000Y-120000000D02*
X155100000Y-120000000D01*
X146915833Y-120950000D02*
X146915833Y-121665833D01*
X146915833Y-121665833D02*
X148125000Y-122875000D01*
X149575000Y-122875000D02*
X149921320Y-123221320D01*
X148125000Y-122875000D02*
X149150000Y-122875000D01*
X149921320Y-123221320D02*
X149921320Y-126000000D01*
%TO.N,TX_5V*%
X145615833Y-120950000D02*
X145615833Y-122215833D01*
X145750000Y-122350000D02*
X146900000Y-122350000D01*
X145615833Y-122215833D02*
X145750000Y-122350000D01*
X146900000Y-122350000D02*
X147921320Y-123371320D01*
X147921320Y-123371320D02*
X147921320Y-126000000D01*
D24*
%TO.N,Net-(D1-K)*%
X157800000Y-114337500D02*
X157800000Y-112812500D01*
D23*
%TO.N,GND*%
X151921320Y-123978680D02*
X152300000Y-123600000D01*
X151100000Y-123600000D02*
X151150000Y-123650000D01*
X151921320Y-126000000D02*
X151921320Y-124421320D01*
X152300000Y-123100000D02*
X153000000Y-122400000D01*
X151921320Y-124421320D02*
X151100000Y-123600000D01*
X151921320Y-126000000D02*
X151921320Y-123978680D01*
X153000000Y-122400000D02*
X154550000Y-122400000D01*
X152300000Y-123600000D02*
X152300000Y-123100000D01*
D24*
%TO.N,+5V*%
X155700000Y-120000000D02*
X156650000Y-120950000D01*
D23*
X157600000Y-118100000D02*
X157600000Y-116412500D01*
D24*
X155100000Y-120000000D02*
X155700000Y-120000000D01*
X155700000Y-120000000D02*
X157600000Y-118100000D01*
D23*
X157600000Y-116412500D02*
X157800000Y-116212500D01*
D24*
X156650000Y-120950000D02*
X158500000Y-120950000D01*
D23*
%TO.N,+3V3*%
X152915833Y-118415833D02*
X152915833Y-119050000D01*
X152500000Y-118000000D02*
X152915833Y-118415833D01*
X144631250Y-116318750D02*
X143600000Y-116318750D01*
X143350000Y-117500000D02*
X143350000Y-116550000D01*
X144800000Y-116150000D02*
X142087500Y-116150000D01*
X143350000Y-116550000D02*
X143368750Y-116550000D01*
X142200000Y-116437500D02*
X142200000Y-118100000D01*
X143350000Y-116318750D02*
X143100000Y-116318750D01*
X151700000Y-118000000D02*
X152500000Y-118000000D01*
X148100000Y-118000000D02*
X149000000Y-118000000D01*
X143350000Y-116550000D02*
X143331250Y-116550000D01*
X143331250Y-116550000D02*
X143100000Y-116318750D01*
X149000000Y-118000000D02*
X149265833Y-118265833D01*
X143350000Y-116550000D02*
X143350000Y-116318750D01*
X142087500Y-116150000D02*
X142000000Y-116237500D01*
X149265833Y-118265833D02*
X149265833Y-119050000D01*
X142000000Y-116237500D02*
X142200000Y-116437500D01*
X144800000Y-116150000D02*
X144631250Y-116318750D01*
X142081250Y-116318750D02*
X142000000Y-116237500D01*
X143600000Y-116318750D02*
X143350000Y-116318750D01*
X143100000Y-116318750D02*
X142081250Y-116318750D01*
X143368750Y-116550000D02*
X143600000Y-116318750D01*
D24*
%TO.N,Net-(D2-K)*%
X142000000Y-114362500D02*
X142000000Y-112850000D01*
D23*
%TO.N,CLK_3V3*%
X154215833Y-118399999D02*
X154215833Y-119050000D01*
X152450000Y-116634166D02*
X154215833Y-118399999D01*
X152450000Y-116150000D02*
X152450000Y-116634166D01*
%TO.N,TX_3V3*%
X147350000Y-116150000D02*
X147350000Y-116665833D01*
X146265833Y-117750000D02*
X146265833Y-119050000D01*
X147350000Y-116665833D02*
X146265833Y-117750000D01*
%TO.N,RX_3V3*%
X150565833Y-117300000D02*
X150565833Y-119050000D01*
X149900000Y-116150000D02*
X149900000Y-116634167D01*
X149900000Y-116634167D02*
X150565833Y-117300000D01*
%TO.N,CLK_5V*%
X153350000Y-121900000D02*
X153565833Y-121684167D01*
X151800000Y-122100000D02*
X152000000Y-121900000D01*
X152000000Y-121900000D02*
X153350000Y-121900000D01*
X153565833Y-121684167D02*
X153565833Y-120950000D01*
%TO.N,RX_5V*%
X149915833Y-122150000D02*
X149915833Y-120950000D01*
D25*
%TO.N,Net-(J1-Pin_1)*%
X158711666Y-68800000D02*
X155300000Y-68800000D01*
D23*
X144815833Y-112075000D02*
X144840833Y-112050000D01*
D25*
X158805833Y-68730000D02*
X158805833Y-68894167D01*
X144840833Y-79259167D02*
X144840833Y-112050000D01*
D26*
X144800000Y-112090833D02*
X144840833Y-112050000D01*
X144800000Y-114850000D02*
X144800000Y-112090833D01*
D25*
X158805833Y-68894167D02*
X158711666Y-68800000D01*
X155300000Y-68800000D02*
X144840833Y-79259167D01*
D23*
%TO.N,Net-(J1-Pin_3)*%
X149915833Y-114834167D02*
X149915833Y-112055000D01*
X149900000Y-114850000D02*
X149915833Y-114834167D01*
D24*
X151200000Y-82100000D02*
X151200000Y-110770833D01*
X141025833Y-66225833D02*
X141025833Y-66190000D01*
X145200000Y-70400000D02*
X141025833Y-66225833D01*
D23*
X149915833Y-112055000D02*
X149920833Y-112050000D01*
D24*
X145200000Y-76100000D02*
X145200000Y-70400000D01*
X147900000Y-78800000D02*
X151200000Y-82100000D01*
X151200000Y-110770833D02*
X149920833Y-112050000D01*
D23*
%TO.N,Net-(J1-Pin_2)*%
X147350000Y-114850000D02*
X147365833Y-114834167D01*
D24*
X148664833Y-110766000D02*
X147380833Y-112050000D01*
X148664833Y-83264833D02*
X148664833Y-110766000D01*
X142950000Y-71850000D02*
X143000000Y-71900000D01*
X143500000Y-72400000D02*
X142950000Y-71850000D01*
X142370000Y-71270000D02*
X142950000Y-71850000D01*
D23*
X147365833Y-114834167D02*
X147365833Y-112065000D01*
D24*
X143500000Y-76300000D02*
X143500000Y-72400000D01*
X147300000Y-81900000D02*
X148664833Y-83264833D01*
D23*
X147365833Y-112065000D02*
X147380833Y-112050000D01*
D24*
X141025833Y-71270000D02*
X142370000Y-71270000D01*
D23*
%TO.N,Net-(J1-Pin_5)*%
X155000000Y-114850000D02*
X155015833Y-114834167D01*
X155015833Y-114834167D02*
X155015833Y-112065000D01*
X155015833Y-112065000D02*
X155000833Y-112050000D01*
D24*
%TO.N,Net-(J1-Pin_4)*%
X144400000Y-70600000D02*
X144400000Y-77100000D01*
D23*
X152465833Y-114834167D02*
X152465833Y-112055000D01*
D24*
X154250000Y-110260833D02*
X152460833Y-112050000D01*
X154250000Y-87750000D02*
X154250000Y-110260833D01*
D23*
X152450000Y-114850000D02*
X152465833Y-114834167D01*
D24*
X141025833Y-68730000D02*
X142530000Y-68730000D01*
D23*
X152465833Y-112055000D02*
X152460833Y-112050000D01*
D24*
X142530000Y-68730000D02*
X144400000Y-70600000D01*
%TD*%
%TA.AperFunction,Conductor*%
%TO.N,GND*%
G36*
X168924096Y-56200656D02*
G01*
X169229212Y-56217793D01*
X169240239Y-56219035D01*
X169538782Y-56269761D01*
X169549599Y-56272230D01*
X169840593Y-56356065D01*
X169851064Y-56359729D01*
X170130835Y-56475616D01*
X170140830Y-56480429D01*
X170405874Y-56626916D01*
X170415271Y-56632821D01*
X170662232Y-56808051D01*
X170670912Y-56814973D01*
X170896706Y-57016756D01*
X170904556Y-57024606D01*
X171106337Y-57250401D01*
X171113259Y-57259081D01*
X171288492Y-57506050D01*
X171294398Y-57515450D01*
X171310737Y-57545013D01*
X171438112Y-57775481D01*
X171440876Y-57780481D01*
X171445691Y-57790480D01*
X171474729Y-57860585D01*
X171561574Y-58070249D01*
X171565241Y-58080728D01*
X171649072Y-58371715D01*
X171651542Y-58382538D01*
X171702265Y-58681075D01*
X171703508Y-58692107D01*
X171720664Y-58997588D01*
X171720820Y-59003139D01*
X171720820Y-61997226D01*
X171720664Y-62002777D01*
X171703528Y-62307894D01*
X171702285Y-62318926D01*
X171651562Y-62617463D01*
X171649092Y-62628286D01*
X171565260Y-62919277D01*
X171561593Y-62929757D01*
X171445709Y-63209527D01*
X171440892Y-63219529D01*
X171294415Y-63484560D01*
X171288509Y-63493960D01*
X171113275Y-63740931D01*
X171106353Y-63749611D01*
X170904570Y-63975407D01*
X170896720Y-63983257D01*
X170670925Y-64185041D01*
X170662245Y-64191963D01*
X170415282Y-64367195D01*
X170405882Y-64373102D01*
X170140842Y-64519586D01*
X170130839Y-64524403D01*
X169851074Y-64640286D01*
X169840595Y-64643953D01*
X169549606Y-64727788D01*
X169538782Y-64730258D01*
X169240243Y-64780983D01*
X169229212Y-64782226D01*
X168924452Y-64799344D01*
X168918900Y-64799500D01*
X167872184Y-64799500D01*
X167871982Y-64799519D01*
X167753587Y-64799519D01*
X167419966Y-64834582D01*
X167091834Y-64904327D01*
X166772792Y-65007987D01*
X166772784Y-65007990D01*
X166466343Y-65144425D01*
X166466334Y-65144429D01*
X166338696Y-65218121D01*
X166175813Y-65312161D01*
X166175810Y-65312162D01*
X166175805Y-65312166D01*
X166175803Y-65312167D01*
X165904425Y-65509333D01*
X165655122Y-65733805D01*
X165655110Y-65733817D01*
X165430653Y-65983099D01*
X165430651Y-65983102D01*
X165233482Y-66254480D01*
X165233464Y-66254507D01*
X165065747Y-66545000D01*
X165065738Y-66545017D01*
X164929296Y-66851472D01*
X164929294Y-66851475D01*
X164825633Y-67170508D01*
X164755886Y-67498643D01*
X164720820Y-67832267D01*
X164720820Y-110958973D01*
X164720800Y-110959034D01*
X164720800Y-111167735D01*
X164755866Y-111501358D01*
X164825614Y-111829497D01*
X164929275Y-112148531D01*
X164929276Y-112148533D01*
X164929277Y-112148535D01*
X165029936Y-112374618D01*
X165065728Y-112455007D01*
X165233427Y-112745466D01*
X165233456Y-112745516D01*
X165320978Y-112865979D01*
X165430642Y-113016918D01*
X165592970Y-113197199D01*
X165655107Y-113266208D01*
X165904406Y-113490676D01*
X166165040Y-113680037D01*
X166175808Y-113687860D01*
X166466319Y-113855584D01*
X166466332Y-113855590D01*
X166772784Y-113992030D01*
X166998092Y-114065236D01*
X167091830Y-114095693D01*
X167419963Y-114165437D01*
X167753590Y-114200501D01*
X167921321Y-114200500D01*
X167961203Y-114200500D01*
X168881437Y-114200500D01*
X168918544Y-114200500D01*
X168924096Y-114200656D01*
X169229212Y-114217793D01*
X169240239Y-114219035D01*
X169538782Y-114269761D01*
X169549599Y-114272230D01*
X169840593Y-114356065D01*
X169851064Y-114359729D01*
X170130835Y-114475616D01*
X170140830Y-114480429D01*
X170405874Y-114626916D01*
X170415271Y-114632821D01*
X170662232Y-114808051D01*
X170670912Y-114814973D01*
X170896706Y-115016756D01*
X170904556Y-115024606D01*
X171106337Y-115250401D01*
X171113259Y-115259081D01*
X171288492Y-115506050D01*
X171294398Y-115515450D01*
X171368760Y-115649998D01*
X171428906Y-115758824D01*
X171440876Y-115780481D01*
X171445691Y-115790480D01*
X171484934Y-115885222D01*
X171561574Y-116070249D01*
X171565241Y-116080728D01*
X171649072Y-116371715D01*
X171651542Y-116382538D01*
X171702265Y-116681075D01*
X171703508Y-116692107D01*
X171720664Y-116997588D01*
X171720820Y-117003139D01*
X171720820Y-119997226D01*
X171720664Y-120002777D01*
X171703528Y-120307894D01*
X171702285Y-120318926D01*
X171651562Y-120617463D01*
X171649092Y-120628286D01*
X171565260Y-120919277D01*
X171561593Y-120929757D01*
X171445709Y-121209527D01*
X171440892Y-121219529D01*
X171294415Y-121484560D01*
X171288509Y-121493960D01*
X171113275Y-121740931D01*
X171106353Y-121749611D01*
X170904570Y-121975407D01*
X170896720Y-121983257D01*
X170670925Y-122185041D01*
X170662245Y-122191963D01*
X170415282Y-122367195D01*
X170405882Y-122373102D01*
X170140842Y-122519586D01*
X170130839Y-122524403D01*
X169851074Y-122640286D01*
X169840595Y-122643953D01*
X169549606Y-122727788D01*
X169538782Y-122730258D01*
X169240243Y-122780983D01*
X169229212Y-122782226D01*
X168924452Y-122799344D01*
X168918900Y-122799500D01*
X153372277Y-122799500D01*
X153372085Y-122799518D01*
X153352332Y-122799518D01*
X153217009Y-122826430D01*
X153217001Y-122826432D01*
X153089520Y-122879232D01*
X153089510Y-122879237D01*
X152974786Y-122955889D01*
X152974777Y-122955896D01*
X152877211Y-123053459D01*
X152877210Y-123053459D01*
X152800552Y-123168181D01*
X152800548Y-123168188D01*
X152768448Y-123245682D01*
X152747766Y-123295614D01*
X152747739Y-123295678D01*
X152743346Y-123317762D01*
X152713448Y-123371145D01*
X152657882Y-123396759D01*
X152597873Y-123384821D01*
X152573146Y-123361962D01*
X152572406Y-123362703D01*
X152565509Y-123355806D01*
X152499356Y-123311603D01*
X152441020Y-123300000D01*
X152321321Y-123300000D01*
X152321320Y-123300001D01*
X152321320Y-123800000D01*
X151521320Y-123800000D01*
X151521320Y-123300001D01*
X151521319Y-123300000D01*
X151401619Y-123300000D01*
X151343283Y-123311603D01*
X151277130Y-123355806D01*
X151277126Y-123355810D01*
X151232923Y-123421963D01*
X151221320Y-123480299D01*
X151221320Y-123701000D01*
X151202413Y-123759191D01*
X151152913Y-123795155D01*
X151122320Y-123800000D01*
X150720820Y-123800000D01*
X150662629Y-123781093D01*
X150626665Y-123731593D01*
X150621820Y-123701000D01*
X150621820Y-123480253D01*
X150621818Y-123480241D01*
X150617805Y-123460069D01*
X150610187Y-123421769D01*
X150565872Y-123355448D01*
X150565868Y-123355445D01*
X150499553Y-123311134D01*
X150499551Y-123311133D01*
X150499548Y-123311132D01*
X150499547Y-123311132D01*
X150441078Y-123299501D01*
X150441068Y-123299500D01*
X150441067Y-123299500D01*
X150345820Y-123299500D01*
X150287629Y-123280593D01*
X150251665Y-123231093D01*
X150246820Y-123200500D01*
X150246820Y-123178468D01*
X150244068Y-123168197D01*
X150224638Y-123095682D01*
X150181785Y-123021458D01*
X150152357Y-122992030D01*
X150121182Y-122960854D01*
X150121182Y-122960855D01*
X150049841Y-122889514D01*
X150022064Y-122834997D01*
X150031635Y-122774565D01*
X150074900Y-122731300D01*
X150094215Y-122723885D01*
X150147617Y-122709577D01*
X150284549Y-122630520D01*
X150396353Y-122518716D01*
X150475410Y-122381784D01*
X150516333Y-122229057D01*
X150516333Y-122070943D01*
X150475410Y-121918216D01*
X150396353Y-121781284D01*
X150396349Y-121781280D01*
X150394824Y-121779754D01*
X150394121Y-121778375D01*
X150392402Y-121776134D01*
X150392817Y-121775815D01*
X150367051Y-121725235D01*
X150365833Y-121709756D01*
X150365833Y-121150001D01*
X150765833Y-121150001D01*
X150765833Y-121749999D01*
X150765834Y-121750000D01*
X150785530Y-121750000D01*
X150785533Y-121749999D01*
X150843869Y-121738396D01*
X150910022Y-121694193D01*
X150910026Y-121694189D01*
X150954229Y-121628036D01*
X150965832Y-121569700D01*
X150965833Y-121569697D01*
X150965833Y-121150001D01*
X150965832Y-121150000D01*
X150765834Y-121150000D01*
X150765833Y-121150001D01*
X150365833Y-121150001D01*
X150365833Y-121049000D01*
X150384740Y-120990809D01*
X150434240Y-120954845D01*
X150464833Y-120950000D01*
X150565832Y-120950000D01*
X150565833Y-120949999D01*
X150565833Y-120849000D01*
X150584740Y-120790809D01*
X150634240Y-120754845D01*
X150664833Y-120750000D01*
X150965832Y-120750000D01*
X150965833Y-120749999D01*
X150965833Y-120424500D01*
X150984740Y-120366309D01*
X151034240Y-120330345D01*
X151064833Y-120325500D01*
X152416333Y-120325500D01*
X152474524Y-120344407D01*
X152510488Y-120393907D01*
X152515333Y-120424500D01*
X152515333Y-121475500D01*
X152496426Y-121533691D01*
X152446926Y-121569655D01*
X152416333Y-121574500D01*
X152117334Y-121574500D01*
X152067836Y-121561237D01*
X152031784Y-121540423D01*
X151879057Y-121499500D01*
X151720943Y-121499500D01*
X151568216Y-121540423D01*
X151431284Y-121619480D01*
X151319480Y-121731284D01*
X151240423Y-121868216D01*
X151199500Y-122020943D01*
X151199500Y-122179057D01*
X151240423Y-122331784D01*
X151319480Y-122468716D01*
X151431284Y-122580520D01*
X151568216Y-122659577D01*
X151720943Y-122700500D01*
X151720945Y-122700500D01*
X151879055Y-122700500D01*
X151879057Y-122700500D01*
X152031784Y-122659577D01*
X152168716Y-122580520D01*
X152280520Y-122468716D01*
X152359577Y-122331784D01*
X152368394Y-122298875D01*
X152401718Y-122247562D01*
X152458840Y-122225636D01*
X152464021Y-122225500D01*
X153392851Y-122225500D01*
X153392853Y-122225500D01*
X153475639Y-122203318D01*
X153475641Y-122203316D01*
X153475643Y-122203316D01*
X153549857Y-122160468D01*
X153549857Y-122160467D01*
X153549862Y-122160465D01*
X153826298Y-121884029D01*
X153869151Y-121809806D01*
X153869153Y-121809798D01*
X153870606Y-121806291D01*
X153872382Y-121804210D01*
X153872396Y-121804187D01*
X153872400Y-121804189D01*
X153910336Y-121759760D01*
X153969829Y-121745468D01*
X153981394Y-121747067D01*
X153996135Y-121749999D01*
X153996136Y-121750000D01*
X154015832Y-121750000D01*
X154015833Y-121749999D01*
X154015833Y-121150001D01*
X154415833Y-121150001D01*
X154415833Y-121749999D01*
X154415834Y-121750000D01*
X154435530Y-121750000D01*
X154435533Y-121749999D01*
X154493869Y-121738396D01*
X154560022Y-121694193D01*
X154560026Y-121694189D01*
X154604229Y-121628036D01*
X154615832Y-121569700D01*
X154615833Y-121569697D01*
X154615833Y-121150001D01*
X154615832Y-121150000D01*
X154415834Y-121150000D01*
X154415833Y-121150001D01*
X154015833Y-121150001D01*
X154015833Y-121049000D01*
X154034740Y-120990809D01*
X154084240Y-120954845D01*
X154114833Y-120950000D01*
X154215832Y-120950000D01*
X154215833Y-120949999D01*
X154215833Y-120849000D01*
X154234740Y-120790809D01*
X154284240Y-120754845D01*
X154314833Y-120750000D01*
X154615832Y-120750000D01*
X154615833Y-120749999D01*
X154615833Y-120424500D01*
X154620678Y-120409588D01*
X154620678Y-120393907D01*
X154629894Y-120381221D01*
X154634740Y-120366309D01*
X154647425Y-120357092D01*
X154656642Y-120344407D01*
X154671554Y-120339561D01*
X154684240Y-120330345D01*
X154714833Y-120325500D01*
X154836255Y-120325500D01*
X154885753Y-120338762D01*
X154945413Y-120373207D01*
X155047273Y-120400500D01*
X155493099Y-120400500D01*
X155551290Y-120419407D01*
X155563103Y-120429496D01*
X156404087Y-121270480D01*
X156404089Y-121270481D01*
X156404090Y-121270482D01*
X156404091Y-121270483D01*
X156495408Y-121323205D01*
X156495406Y-121323205D01*
X156495410Y-121323206D01*
X156495412Y-121323207D01*
X156597273Y-121350500D01*
X157850500Y-121350500D01*
X157908691Y-121369407D01*
X157944655Y-121418907D01*
X157949500Y-121449500D01*
X157949500Y-121819746D01*
X157949501Y-121819758D01*
X157961132Y-121878227D01*
X157961134Y-121878233D01*
X157998197Y-121933701D01*
X158005448Y-121944552D01*
X158071769Y-121988867D01*
X158116231Y-121997711D01*
X158130241Y-122000498D01*
X158130246Y-122000498D01*
X158130252Y-122000500D01*
X158130253Y-122000500D01*
X159869747Y-122000500D01*
X159869748Y-122000500D01*
X159928231Y-121988867D01*
X159994552Y-121944552D01*
X160038867Y-121878231D01*
X160050500Y-121819748D01*
X160050500Y-120080252D01*
X160038867Y-120021769D01*
X160022705Y-119997582D01*
X159994554Y-119955451D01*
X159994552Y-119955448D01*
X159994548Y-119955445D01*
X159928233Y-119911134D01*
X159928231Y-119911133D01*
X159928228Y-119911132D01*
X159928227Y-119911132D01*
X159869758Y-119899501D01*
X159869748Y-119899500D01*
X158130252Y-119899500D01*
X158130251Y-119899500D01*
X158130241Y-119899501D01*
X158071772Y-119911132D01*
X158071766Y-119911134D01*
X158005451Y-119955445D01*
X158005445Y-119955451D01*
X157961134Y-120021766D01*
X157961132Y-120021772D01*
X157949501Y-120080241D01*
X157949500Y-120080253D01*
X157949500Y-120450500D01*
X157930593Y-120508691D01*
X157881093Y-120544655D01*
X157850500Y-120549500D01*
X156856901Y-120549500D01*
X156798710Y-120530593D01*
X156786897Y-120520504D01*
X156336396Y-120070003D01*
X156308619Y-120015486D01*
X156318190Y-119955054D01*
X156336396Y-119929995D01*
X156749348Y-119517043D01*
X157212685Y-119053705D01*
X157267200Y-119025930D01*
X157291934Y-119025144D01*
X157295729Y-119025500D01*
X157295734Y-119025500D01*
X157904273Y-119025500D01*
X157904273Y-119025499D01*
X157934699Y-119022646D01*
X158062882Y-118977793D01*
X158172150Y-118897150D01*
X158252793Y-118787882D01*
X158297646Y-118659699D01*
X158300499Y-118629273D01*
X158300500Y-118629273D01*
X158300500Y-118500001D01*
X158800001Y-118500001D01*
X158800001Y-118629203D01*
X158802850Y-118659600D01*
X158802850Y-118659602D01*
X158847654Y-118787647D01*
X158928207Y-118896790D01*
X158928209Y-118896792D01*
X159037352Y-118977344D01*
X159100000Y-118999265D01*
X159100000Y-118500001D01*
X159900000Y-118500001D01*
X159900000Y-118999265D01*
X159962647Y-118977344D01*
X160071790Y-118896792D01*
X160071792Y-118896790D01*
X160152345Y-118787647D01*
X160197149Y-118659601D01*
X160199999Y-118629211D01*
X160200000Y-118629210D01*
X160200000Y-118500001D01*
X160199999Y-118500000D01*
X159900001Y-118500000D01*
X159900000Y-118500001D01*
X159100000Y-118500001D01*
X159099999Y-118500000D01*
X158800002Y-118500000D01*
X158800001Y-118500001D01*
X158300500Y-118500001D01*
X158300500Y-118348341D01*
X164720820Y-118348341D01*
X164720820Y-118651658D01*
X164754779Y-118953061D01*
X164822274Y-119248775D01*
X164922451Y-119535063D01*
X164922452Y-119535065D01*
X165054047Y-119808326D01*
X165054051Y-119808333D01*
X165054055Y-119808341D01*
X165215428Y-120065164D01*
X165404541Y-120302304D01*
X165619016Y-120516779D01*
X165856156Y-120705892D01*
X166112979Y-120867265D01*
X166112990Y-120867270D01*
X166112993Y-120867272D01*
X166148091Y-120884174D01*
X166386255Y-120998868D01*
X166519900Y-121045632D01*
X166672544Y-121099045D01*
X166672547Y-121099045D01*
X166672548Y-121099046D01*
X166968257Y-121166540D01*
X167269663Y-121200500D01*
X167269664Y-121200500D01*
X167572976Y-121200500D01*
X167572977Y-121200500D01*
X167874383Y-121166540D01*
X168170092Y-121099046D01*
X168456385Y-120998868D01*
X168729661Y-120867265D01*
X168986484Y-120705892D01*
X169223624Y-120516779D01*
X169438099Y-120302304D01*
X169627212Y-120065164D01*
X169788585Y-119808341D01*
X169920188Y-119535065D01*
X170020366Y-119248772D01*
X170087860Y-118953063D01*
X170121820Y-118651657D01*
X170121820Y-118348343D01*
X170087860Y-118046937D01*
X170020366Y-117751228D01*
X170016274Y-117739535D01*
X169946594Y-117540399D01*
X169920188Y-117464935D01*
X169803511Y-117222653D01*
X169788592Y-117191673D01*
X169788590Y-117191670D01*
X169788585Y-117191659D01*
X169627212Y-116934836D01*
X169438099Y-116697696D01*
X169223624Y-116483221D01*
X168986484Y-116294108D01*
X168729661Y-116132735D01*
X168729653Y-116132731D01*
X168729646Y-116132727D01*
X168456385Y-116001132D01*
X168456383Y-116001131D01*
X168170095Y-115900954D01*
X167874381Y-115833459D01*
X167572978Y-115799500D01*
X167572977Y-115799500D01*
X167269663Y-115799500D01*
X167269661Y-115799500D01*
X166968258Y-115833459D01*
X166672544Y-115900954D01*
X166386256Y-116001131D01*
X166386254Y-116001132D01*
X166112993Y-116132727D01*
X166112981Y-116132734D01*
X165856155Y-116294108D01*
X165619017Y-116483220D01*
X165404540Y-116697697D01*
X165215428Y-116934835D01*
X165160806Y-117021766D01*
X165063044Y-117177354D01*
X165054054Y-117191661D01*
X165054047Y-117191673D01*
X164922452Y-117464934D01*
X164922451Y-117464936D01*
X164822274Y-117751224D01*
X164754779Y-118046938D01*
X164720820Y-118348341D01*
X158300500Y-118348341D01*
X158300500Y-117570788D01*
X158800000Y-117570788D01*
X158800000Y-117699999D01*
X158800001Y-117700000D01*
X159099999Y-117700000D01*
X159100000Y-117699999D01*
X159900000Y-117699999D01*
X159900001Y-117700000D01*
X160199998Y-117700000D01*
X160199999Y-117699999D01*
X160199999Y-117570796D01*
X160197149Y-117540399D01*
X160197149Y-117540397D01*
X160152345Y-117412352D01*
X160071792Y-117303209D01*
X160071790Y-117303207D01*
X159962645Y-117222653D01*
X159962643Y-117222652D01*
X159900000Y-117200732D01*
X159900000Y-117699999D01*
X159100000Y-117699999D01*
X159100000Y-117200732D01*
X159037356Y-117222652D01*
X159037354Y-117222653D01*
X158928209Y-117303207D01*
X158928207Y-117303209D01*
X158847654Y-117412352D01*
X158802850Y-117540398D01*
X158800000Y-117570788D01*
X158300500Y-117570788D01*
X158300500Y-117570727D01*
X158300499Y-117570725D01*
X158298569Y-117550142D01*
X158297646Y-117540301D01*
X158252793Y-117412118D01*
X158244465Y-117400834D01*
X158172154Y-117302855D01*
X158172152Y-117302853D01*
X158172150Y-117302850D01*
X158172146Y-117302847D01*
X158172144Y-117302845D01*
X158062884Y-117222207D01*
X157991801Y-117197334D01*
X157968314Y-117179451D01*
X157944407Y-117162081D01*
X157944047Y-117160973D01*
X157943121Y-117160268D01*
X157925500Y-117103890D01*
X157925500Y-116999500D01*
X157944407Y-116941309D01*
X157993907Y-116905345D01*
X158024500Y-116900500D01*
X158309770Y-116900500D01*
X158309772Y-116900499D01*
X158339774Y-116897686D01*
X158466179Y-116853455D01*
X158573930Y-116773930D01*
X158653455Y-116666179D01*
X158697686Y-116539774D01*
X158700499Y-116509772D01*
X158700500Y-116509770D01*
X158700500Y-115915230D01*
X158700499Y-115915226D01*
X158697686Y-115885226D01*
X158653455Y-115758821D01*
X158573930Y-115651070D01*
X158466179Y-115571545D01*
X158466176Y-115571544D01*
X158466175Y-115571543D01*
X158339777Y-115527315D01*
X158339776Y-115527314D01*
X158339774Y-115527314D01*
X158339771Y-115527313D01*
X158339768Y-115527313D01*
X158309773Y-115524500D01*
X158309764Y-115524500D01*
X157290236Y-115524500D01*
X157290226Y-115524500D01*
X157260231Y-115527313D01*
X157260222Y-115527315D01*
X157133824Y-115571543D01*
X157026071Y-115651069D01*
X157026069Y-115651071D01*
X156946543Y-115758824D01*
X156902315Y-115885222D01*
X156902313Y-115885231D01*
X156899500Y-115915226D01*
X156899500Y-116509773D01*
X156902313Y-116539768D01*
X156902315Y-116539777D01*
X156946543Y-116666175D01*
X156946544Y-116666176D01*
X156946545Y-116666179D01*
X157026070Y-116773930D01*
X157133821Y-116853455D01*
X157208200Y-116879481D01*
X157231694Y-116897369D01*
X157255593Y-116914733D01*
X157255952Y-116915839D01*
X157256878Y-116916544D01*
X157274500Y-116972924D01*
X157274500Y-117103890D01*
X157255593Y-117162081D01*
X157208199Y-117197334D01*
X157137115Y-117222207D01*
X157027855Y-117302845D01*
X157027845Y-117302855D01*
X156947207Y-117412116D01*
X156902355Y-117540296D01*
X156902353Y-117540305D01*
X156899500Y-117570725D01*
X156899500Y-118193099D01*
X156880593Y-118251290D01*
X156870504Y-118263103D01*
X155563103Y-119570504D01*
X155508586Y-119598281D01*
X155493099Y-119599500D01*
X155047273Y-119599500D01*
X154945413Y-119626793D01*
X154885753Y-119661237D01*
X154836255Y-119674500D01*
X154715333Y-119674500D01*
X154657142Y-119655593D01*
X154621178Y-119606093D01*
X154616333Y-119575500D01*
X154616333Y-118430253D01*
X154616331Y-118430241D01*
X154613544Y-118416231D01*
X154604700Y-118371769D01*
X154560385Y-118305448D01*
X154555083Y-118301905D01*
X154541664Y-118292938D01*
X154510933Y-118260125D01*
X154476301Y-118200141D01*
X154476300Y-118200140D01*
X154476299Y-118200139D01*
X154476298Y-118200137D01*
X153129869Y-116853708D01*
X153102092Y-116799191D01*
X153111663Y-116738759D01*
X153139605Y-116705162D01*
X153152317Y-116695409D01*
X153245409Y-116602317D01*
X153278067Y-116559757D01*
X153343893Y-116445743D01*
X153364422Y-116396181D01*
X153398497Y-116269014D01*
X153405500Y-116215826D01*
X153405500Y-115650000D01*
X153400348Y-115604272D01*
X153372039Y-115545490D01*
X153363827Y-115484859D01*
X153383838Y-115440807D01*
X153383950Y-115440665D01*
X153385149Y-115439163D01*
X153405500Y-115350000D01*
X153405500Y-114784174D01*
X153398497Y-114730986D01*
X153364422Y-114603819D01*
X153343893Y-114554257D01*
X153278067Y-114440243D01*
X153278063Y-114440238D01*
X153278061Y-114440234D01*
X153245415Y-114397690D01*
X153245412Y-114397687D01*
X153245409Y-114397683D01*
X153152317Y-114304591D01*
X153152312Y-114304587D01*
X153152309Y-114304584D01*
X153109765Y-114271938D01*
X153109759Y-114271934D01*
X153109757Y-114271933D01*
X152995743Y-114206107D01*
X152995741Y-114206106D01*
X152995739Y-114206105D01*
X152981222Y-114200092D01*
X152946181Y-114185578D01*
X152946173Y-114185576D01*
X152946163Y-114185572D01*
X152864709Y-114163746D01*
X152813395Y-114130422D01*
X152791469Y-114073300D01*
X152791333Y-114068120D01*
X152791333Y-113116304D01*
X152810240Y-113058113D01*
X152852446Y-113024840D01*
X152958431Y-112980941D01*
X153130488Y-112865977D01*
X153276810Y-112719655D01*
X153391774Y-112547598D01*
X153470963Y-112356420D01*
X153511333Y-112153465D01*
X153511333Y-111946535D01*
X153511332Y-111946532D01*
X153950333Y-111946532D01*
X153950333Y-112153467D01*
X153990702Y-112356418D01*
X154069891Y-112547597D01*
X154069892Y-112547598D01*
X154184856Y-112719655D01*
X154331178Y-112865977D01*
X154503235Y-112980941D01*
X154629219Y-113033124D01*
X154675744Y-113072860D01*
X154690333Y-113124588D01*
X154690333Y-114059636D01*
X154671426Y-114117827D01*
X154621926Y-114153791D01*
X154616977Y-114155256D01*
X154503819Y-114185578D01*
X154486298Y-114192835D01*
X154454260Y-114206105D01*
X154340234Y-114271938D01*
X154297690Y-114304584D01*
X154204584Y-114397690D01*
X154171938Y-114440234D01*
X154106105Y-114554260D01*
X154092835Y-114586298D01*
X154085578Y-114603819D01*
X154069247Y-114664768D01*
X154051502Y-114730991D01*
X154044500Y-114784174D01*
X154044500Y-115350001D01*
X154049651Y-115395727D01*
X154071361Y-115440807D01*
X154089334Y-115478127D01*
X154160837Y-115535149D01*
X154250000Y-115555500D01*
X155749999Y-115555500D01*
X155750000Y-115555500D01*
X155795728Y-115550348D01*
X155878127Y-115510666D01*
X155935149Y-115439163D01*
X155955500Y-115350000D01*
X155955500Y-114784174D01*
X155948497Y-114730986D01*
X155914422Y-114603819D01*
X155893893Y-114554257D01*
X155828067Y-114440243D01*
X155828063Y-114440238D01*
X155828061Y-114440234D01*
X155795415Y-114397690D01*
X155795412Y-114397687D01*
X155795409Y-114397683D01*
X155702317Y-114304591D01*
X155702312Y-114304587D01*
X155702309Y-114304584D01*
X155659765Y-114271938D01*
X155659759Y-114271934D01*
X155659757Y-114271933D01*
X155545743Y-114206107D01*
X155545741Y-114206106D01*
X155545739Y-114206105D01*
X155531222Y-114200092D01*
X155496181Y-114185578D01*
X155496173Y-114185576D01*
X155496163Y-114185572D01*
X155414709Y-114163746D01*
X155363395Y-114130422D01*
X155341469Y-114073300D01*
X155341333Y-114068120D01*
X155341333Y-113112162D01*
X155360240Y-113053971D01*
X155402446Y-113020698D01*
X155498431Y-112980941D01*
X155670488Y-112865977D01*
X155816810Y-112719655D01*
X155931774Y-112547598D01*
X155953261Y-112495725D01*
X156899500Y-112495725D01*
X156899500Y-113129274D01*
X156902353Y-113159694D01*
X156902355Y-113159703D01*
X156947207Y-113287883D01*
X157027845Y-113397144D01*
X157027847Y-113397146D01*
X157027850Y-113397150D01*
X157027853Y-113397152D01*
X157027855Y-113397154D01*
X157137116Y-113477792D01*
X157137118Y-113477793D01*
X157180999Y-113493148D01*
X157229680Y-113530213D01*
X157247277Y-113588813D01*
X157227069Y-113646565D01*
X157181000Y-113680036D01*
X157133824Y-113696543D01*
X157026071Y-113776069D01*
X157026069Y-113776071D01*
X157007619Y-113801070D01*
X156967382Y-113855589D01*
X156946543Y-113883824D01*
X156902315Y-114010222D01*
X156902313Y-114010231D01*
X156899500Y-114040226D01*
X156899500Y-114634773D01*
X156902313Y-114664768D01*
X156902315Y-114664777D01*
X156946543Y-114791175D01*
X156946544Y-114791176D01*
X156946545Y-114791179D01*
X157026070Y-114898930D01*
X157133821Y-114978455D01*
X157260226Y-115022686D01*
X157290226Y-115025499D01*
X157290230Y-115025500D01*
X157290236Y-115025500D01*
X158309770Y-115025500D01*
X158309772Y-115025499D01*
X158339774Y-115022686D01*
X158466179Y-114978455D01*
X158573930Y-114898930D01*
X158653455Y-114791179D01*
X158697686Y-114664774D01*
X158700499Y-114634772D01*
X158700500Y-114634770D01*
X158700500Y-114040230D01*
X158700499Y-114040226D01*
X158697686Y-114010231D01*
X158697686Y-114010226D01*
X158653455Y-113883821D01*
X158573930Y-113776070D01*
X158466179Y-113696545D01*
X158418998Y-113680035D01*
X158370319Y-113642971D01*
X158352722Y-113584371D01*
X158372930Y-113526619D01*
X158418997Y-113493148D01*
X158462882Y-113477793D01*
X158572150Y-113397150D01*
X158652793Y-113287882D01*
X158697646Y-113159699D01*
X158700499Y-113129273D01*
X158700500Y-113129273D01*
X158700500Y-112495727D01*
X158700499Y-112495725D01*
X158699909Y-112489429D01*
X158697646Y-112465301D01*
X158652793Y-112337118D01*
X158599822Y-112265345D01*
X158572154Y-112227855D01*
X158572152Y-112227853D01*
X158572150Y-112227850D01*
X158572146Y-112227847D01*
X158572144Y-112227845D01*
X158462883Y-112147207D01*
X158334703Y-112102355D01*
X158334694Y-112102353D01*
X158304274Y-112099500D01*
X158304266Y-112099500D01*
X157295734Y-112099500D01*
X157295725Y-112099500D01*
X157265305Y-112102353D01*
X157265296Y-112102355D01*
X157137116Y-112147207D01*
X157027855Y-112227845D01*
X157027845Y-112227855D01*
X156947207Y-112337116D01*
X156902355Y-112465296D01*
X156902353Y-112465305D01*
X156899500Y-112495725D01*
X155953261Y-112495725D01*
X156010963Y-112356420D01*
X156051333Y-112153465D01*
X156051333Y-111946535D01*
X156010963Y-111743580D01*
X155931774Y-111552402D01*
X155821591Y-111387500D01*
X156921361Y-111387500D01*
X156947655Y-111462647D01*
X157028207Y-111571790D01*
X157028209Y-111571792D01*
X157137352Y-111652345D01*
X157265398Y-111697149D01*
X157295789Y-111699999D01*
X157400000Y-111699999D01*
X157400000Y-111387501D01*
X158200000Y-111387501D01*
X158200000Y-111699998D01*
X158200001Y-111699999D01*
X158304203Y-111699999D01*
X158334600Y-111697149D01*
X158334602Y-111697149D01*
X158462647Y-111652345D01*
X158571790Y-111571792D01*
X158571792Y-111571790D01*
X158652344Y-111462647D01*
X158678639Y-111387500D01*
X158200001Y-111387500D01*
X158200000Y-111387501D01*
X157400000Y-111387501D01*
X157399999Y-111387500D01*
X156921361Y-111387500D01*
X155821591Y-111387500D01*
X155816810Y-111380345D01*
X155670488Y-111234023D01*
X155590015Y-111180253D01*
X155498430Y-111119058D01*
X155307251Y-111039869D01*
X155104300Y-110999500D01*
X155104298Y-110999500D01*
X154897368Y-110999500D01*
X154897365Y-110999500D01*
X154694414Y-111039869D01*
X154503235Y-111119058D01*
X154331181Y-111234020D01*
X154184853Y-111380348D01*
X154069891Y-111552402D01*
X153990702Y-111743581D01*
X153950333Y-111946532D01*
X153511332Y-111946532D01*
X153470963Y-111743580D01*
X153470960Y-111743572D01*
X153456058Y-111707595D01*
X153451257Y-111646599D01*
X153477516Y-111599708D01*
X154489726Y-110587500D01*
X156921361Y-110587500D01*
X157399999Y-110587500D01*
X157400000Y-110587499D01*
X157400000Y-110275001D01*
X158200000Y-110275001D01*
X158200000Y-110587499D01*
X158200001Y-110587500D01*
X158678639Y-110587500D01*
X158652344Y-110512352D01*
X158571792Y-110403209D01*
X158571790Y-110403207D01*
X158462647Y-110322654D01*
X158334601Y-110277850D01*
X158304211Y-110275000D01*
X158200001Y-110275000D01*
X158200000Y-110275001D01*
X157400000Y-110275001D01*
X157400000Y-110275000D01*
X157295796Y-110275000D01*
X157265399Y-110277850D01*
X157265397Y-110277850D01*
X157137352Y-110322654D01*
X157028209Y-110403207D01*
X157028207Y-110403209D01*
X156947655Y-110512352D01*
X156921361Y-110587500D01*
X154489726Y-110587500D01*
X154570480Y-110506746D01*
X154623207Y-110415421D01*
X154650500Y-110313560D01*
X154650500Y-110208106D01*
X154650500Y-105960253D01*
X157755333Y-105960253D01*
X157755333Y-107699746D01*
X157755334Y-107699758D01*
X157766965Y-107758227D01*
X157766966Y-107758231D01*
X157811281Y-107824552D01*
X157877602Y-107868867D01*
X157922064Y-107877711D01*
X157936074Y-107880498D01*
X157936079Y-107880498D01*
X157936085Y-107880500D01*
X157936086Y-107880500D01*
X161475580Y-107880500D01*
X161475581Y-107880500D01*
X161534064Y-107868867D01*
X161600385Y-107824552D01*
X161644700Y-107758231D01*
X161656333Y-107699748D01*
X161656333Y-105960252D01*
X161644700Y-105901769D01*
X161600385Y-105835448D01*
X161600381Y-105835445D01*
X161534066Y-105791134D01*
X161534064Y-105791133D01*
X161534061Y-105791132D01*
X161534060Y-105791132D01*
X161475591Y-105779501D01*
X161475581Y-105779500D01*
X157936085Y-105779500D01*
X157936084Y-105779500D01*
X157936074Y-105779501D01*
X157877605Y-105791132D01*
X157877599Y-105791134D01*
X157811284Y-105835445D01*
X157811278Y-105835451D01*
X157766967Y-105901766D01*
X157766965Y-105901772D01*
X157755334Y-105960241D01*
X157755333Y-105960253D01*
X154650500Y-105960253D01*
X154650500Y-103420253D01*
X157755333Y-103420253D01*
X157755333Y-105159746D01*
X157755334Y-105159758D01*
X157766965Y-105218227D01*
X157766966Y-105218231D01*
X157811281Y-105284552D01*
X157877602Y-105328867D01*
X157922064Y-105337711D01*
X157936074Y-105340498D01*
X157936079Y-105340498D01*
X157936085Y-105340500D01*
X157936086Y-105340500D01*
X161475580Y-105340500D01*
X161475581Y-105340500D01*
X161534064Y-105328867D01*
X161600385Y-105284552D01*
X161644700Y-105218231D01*
X161656333Y-105159748D01*
X161656333Y-103420252D01*
X161644700Y-103361769D01*
X161600385Y-103295448D01*
X161600381Y-103295445D01*
X161534066Y-103251134D01*
X161534064Y-103251133D01*
X161534061Y-103251132D01*
X161534060Y-103251132D01*
X161475591Y-103239501D01*
X161475581Y-103239500D01*
X157936085Y-103239500D01*
X157936084Y-103239500D01*
X157936074Y-103239501D01*
X157877605Y-103251132D01*
X157877599Y-103251134D01*
X157811284Y-103295445D01*
X157811278Y-103295451D01*
X157766967Y-103361766D01*
X157766965Y-103361772D01*
X157755334Y-103420241D01*
X157755333Y-103420253D01*
X154650500Y-103420253D01*
X154650500Y-102150001D01*
X157755833Y-102150001D01*
X157755833Y-102619700D01*
X157767436Y-102678036D01*
X157811639Y-102744189D01*
X157811643Y-102744193D01*
X157877796Y-102788396D01*
X157936132Y-102799999D01*
X157936136Y-102800000D01*
X158405832Y-102800000D01*
X158405833Y-102799999D01*
X158405833Y-102150001D01*
X158405832Y-102150000D01*
X157755834Y-102150000D01*
X157755833Y-102150001D01*
X154650500Y-102150001D01*
X154650500Y-101682857D01*
X158295833Y-101682857D01*
X158295833Y-101817143D01*
X158330588Y-101946853D01*
X158397731Y-102063147D01*
X158492686Y-102158102D01*
X158608980Y-102225245D01*
X158738690Y-102260000D01*
X158872976Y-102260000D01*
X159002686Y-102225245D01*
X159118980Y-102158102D01*
X159127081Y-102150001D01*
X159205833Y-102150001D01*
X159205833Y-102799999D01*
X159205834Y-102800000D01*
X159305832Y-102800000D01*
X159305833Y-102799999D01*
X159305833Y-102150001D01*
X160105833Y-102150001D01*
X160105833Y-102799999D01*
X160105834Y-102800000D01*
X161475530Y-102800000D01*
X161475533Y-102799999D01*
X161533869Y-102788396D01*
X161600022Y-102744193D01*
X161600026Y-102744189D01*
X161644229Y-102678036D01*
X161655832Y-102619700D01*
X161655833Y-102619697D01*
X161655833Y-102150001D01*
X161655832Y-102150000D01*
X160105834Y-102150000D01*
X160105833Y-102150001D01*
X159305833Y-102150001D01*
X159305832Y-102150000D01*
X159205834Y-102150000D01*
X159205833Y-102150001D01*
X159127081Y-102150001D01*
X159213935Y-102063147D01*
X159281078Y-101946853D01*
X159315833Y-101817143D01*
X159315833Y-101682857D01*
X159281078Y-101553147D01*
X159213935Y-101436853D01*
X159118980Y-101341898D01*
X159002686Y-101274755D01*
X158872976Y-101240000D01*
X158738690Y-101240000D01*
X158608980Y-101274755D01*
X158492686Y-101341898D01*
X158397731Y-101436853D01*
X158330588Y-101553147D01*
X158295833Y-101682857D01*
X154650500Y-101682857D01*
X154650500Y-100880299D01*
X157755833Y-100880299D01*
X157755833Y-101349999D01*
X157755834Y-101350000D01*
X158405832Y-101350000D01*
X158405833Y-101349999D01*
X158405833Y-100700001D01*
X159205833Y-100700001D01*
X159205833Y-101349999D01*
X159205834Y-101350000D01*
X159305832Y-101350000D01*
X159305833Y-101349999D01*
X159305833Y-100700001D01*
X160105833Y-100700001D01*
X160105833Y-101349999D01*
X160105834Y-101350000D01*
X161655832Y-101350000D01*
X161655833Y-101349999D01*
X161655833Y-100880302D01*
X161655832Y-100880299D01*
X161644229Y-100821963D01*
X161600026Y-100755810D01*
X161600022Y-100755806D01*
X161533869Y-100711603D01*
X161475533Y-100700000D01*
X160105834Y-100700000D01*
X160105833Y-100700001D01*
X159305833Y-100700001D01*
X159305832Y-100700000D01*
X159205834Y-100700000D01*
X159205833Y-100700001D01*
X158405833Y-100700001D01*
X158405832Y-100700000D01*
X157936132Y-100700000D01*
X157877796Y-100711603D01*
X157811643Y-100755806D01*
X157811639Y-100755810D01*
X157767436Y-100821963D01*
X157755833Y-100880299D01*
X154650500Y-100880299D01*
X154650500Y-98340253D01*
X157755333Y-98340253D01*
X157755333Y-100079746D01*
X157755334Y-100079758D01*
X157766965Y-100138227D01*
X157766966Y-100138231D01*
X157811281Y-100204552D01*
X157877602Y-100248867D01*
X157922064Y-100257711D01*
X157936074Y-100260498D01*
X157936079Y-100260498D01*
X157936085Y-100260500D01*
X157936086Y-100260500D01*
X161475580Y-100260500D01*
X161475581Y-100260500D01*
X161534064Y-100248867D01*
X161600385Y-100204552D01*
X161644700Y-100138231D01*
X161656333Y-100079748D01*
X161656333Y-98340252D01*
X161644700Y-98281769D01*
X161600385Y-98215448D01*
X161600381Y-98215445D01*
X161534066Y-98171134D01*
X161534064Y-98171133D01*
X161534061Y-98171132D01*
X161534060Y-98171132D01*
X161475591Y-98159501D01*
X161475581Y-98159500D01*
X157936085Y-98159500D01*
X157936084Y-98159500D01*
X157936074Y-98159501D01*
X157877605Y-98171132D01*
X157877599Y-98171134D01*
X157811284Y-98215445D01*
X157811278Y-98215451D01*
X157766967Y-98281766D01*
X157766965Y-98281772D01*
X157755334Y-98340241D01*
X157755333Y-98340253D01*
X154650500Y-98340253D01*
X154650500Y-95800253D01*
X157755333Y-95800253D01*
X157755333Y-97539746D01*
X157755334Y-97539758D01*
X157766965Y-97598227D01*
X157766966Y-97598231D01*
X157811281Y-97664552D01*
X157877602Y-97708867D01*
X157922064Y-97717711D01*
X157936074Y-97720498D01*
X157936079Y-97720498D01*
X157936085Y-97720500D01*
X157936086Y-97720500D01*
X161475580Y-97720500D01*
X161475581Y-97720500D01*
X161534064Y-97708867D01*
X161600385Y-97664552D01*
X161644700Y-97598231D01*
X161656333Y-97539748D01*
X161656333Y-95800252D01*
X161644700Y-95741769D01*
X161600385Y-95675448D01*
X161600381Y-95675445D01*
X161534066Y-95631134D01*
X161534064Y-95631133D01*
X161534061Y-95631132D01*
X161534060Y-95631132D01*
X161475591Y-95619501D01*
X161475581Y-95619500D01*
X157936085Y-95619500D01*
X157936084Y-95619500D01*
X157936074Y-95619501D01*
X157877605Y-95631132D01*
X157877599Y-95631134D01*
X157811284Y-95675445D01*
X157811278Y-95675451D01*
X157766967Y-95741766D01*
X157766965Y-95741772D01*
X157755334Y-95800241D01*
X157755333Y-95800253D01*
X154650500Y-95800253D01*
X154650500Y-93260253D01*
X157755333Y-93260253D01*
X157755333Y-94999746D01*
X157755334Y-94999758D01*
X157766965Y-95058227D01*
X157766966Y-95058231D01*
X157811281Y-95124552D01*
X157877602Y-95168867D01*
X157922064Y-95177711D01*
X157936074Y-95180498D01*
X157936079Y-95180498D01*
X157936085Y-95180500D01*
X157936086Y-95180500D01*
X161475580Y-95180500D01*
X161475581Y-95180500D01*
X161534064Y-95168867D01*
X161600385Y-95124552D01*
X161644700Y-95058231D01*
X161656333Y-94999748D01*
X161656333Y-93260252D01*
X161644700Y-93201769D01*
X161600385Y-93135448D01*
X161600381Y-93135445D01*
X161534066Y-93091134D01*
X161534064Y-93091133D01*
X161534061Y-93091132D01*
X161534060Y-93091132D01*
X161475591Y-93079501D01*
X161475581Y-93079500D01*
X157936085Y-93079500D01*
X157936084Y-93079500D01*
X157936074Y-93079501D01*
X157877605Y-93091132D01*
X157877599Y-93091134D01*
X157811284Y-93135445D01*
X157811278Y-93135451D01*
X157766967Y-93201766D01*
X157766965Y-93201772D01*
X157755334Y-93260241D01*
X157755333Y-93260253D01*
X154650500Y-93260253D01*
X154650500Y-90720253D01*
X157755333Y-90720253D01*
X157755333Y-92459746D01*
X157755334Y-92459758D01*
X157766965Y-92518227D01*
X157766966Y-92518231D01*
X157811281Y-92584552D01*
X157877602Y-92628867D01*
X157922064Y-92637711D01*
X157936074Y-92640498D01*
X157936079Y-92640498D01*
X157936085Y-92640500D01*
X157936086Y-92640500D01*
X161475580Y-92640500D01*
X161475581Y-92640500D01*
X161534064Y-92628867D01*
X161600385Y-92584552D01*
X161644700Y-92518231D01*
X161656333Y-92459748D01*
X161656333Y-90720252D01*
X161644700Y-90661769D01*
X161600385Y-90595448D01*
X161600381Y-90595445D01*
X161534066Y-90551134D01*
X161534064Y-90551133D01*
X161534061Y-90551132D01*
X161534060Y-90551132D01*
X161475591Y-90539501D01*
X161475581Y-90539500D01*
X157936085Y-90539500D01*
X157936084Y-90539500D01*
X157936074Y-90539501D01*
X157877605Y-90551132D01*
X157877599Y-90551134D01*
X157811284Y-90595445D01*
X157811278Y-90595451D01*
X157766967Y-90661766D01*
X157766965Y-90661772D01*
X157755334Y-90720241D01*
X157755333Y-90720253D01*
X154650500Y-90720253D01*
X154650500Y-89450001D01*
X157755833Y-89450001D01*
X157755833Y-89919700D01*
X157767436Y-89978036D01*
X157811639Y-90044189D01*
X157811643Y-90044193D01*
X157877796Y-90088396D01*
X157936132Y-90099999D01*
X157936136Y-90100000D01*
X158405832Y-90100000D01*
X158405833Y-90099999D01*
X158405833Y-89450001D01*
X158405832Y-89450000D01*
X157755834Y-89450000D01*
X157755833Y-89450001D01*
X154650500Y-89450001D01*
X154650500Y-88982857D01*
X158295833Y-88982857D01*
X158295833Y-89117143D01*
X158330588Y-89246853D01*
X158397731Y-89363147D01*
X158492686Y-89458102D01*
X158608980Y-89525245D01*
X158738690Y-89560000D01*
X158872976Y-89560000D01*
X159002686Y-89525245D01*
X159118980Y-89458102D01*
X159127081Y-89450001D01*
X159205833Y-89450001D01*
X159205833Y-90099999D01*
X159205834Y-90100000D01*
X159305832Y-90100000D01*
X159305833Y-90099999D01*
X159305833Y-89450001D01*
X160105833Y-89450001D01*
X160105833Y-90099999D01*
X160105834Y-90100000D01*
X161475530Y-90100000D01*
X161475533Y-90099999D01*
X161533869Y-90088396D01*
X161600022Y-90044193D01*
X161600026Y-90044189D01*
X161644229Y-89978036D01*
X161655832Y-89919700D01*
X161655833Y-89919697D01*
X161655833Y-89450001D01*
X161655832Y-89450000D01*
X160105834Y-89450000D01*
X160105833Y-89450001D01*
X159305833Y-89450001D01*
X159305832Y-89450000D01*
X159205834Y-89450000D01*
X159205833Y-89450001D01*
X159127081Y-89450001D01*
X159213935Y-89363147D01*
X159281078Y-89246853D01*
X159315833Y-89117143D01*
X159315833Y-88982857D01*
X159281078Y-88853147D01*
X159213935Y-88736853D01*
X159118980Y-88641898D01*
X159002686Y-88574755D01*
X158872976Y-88540000D01*
X158738690Y-88540000D01*
X158608980Y-88574755D01*
X158492686Y-88641898D01*
X158397731Y-88736853D01*
X158330588Y-88853147D01*
X158295833Y-88982857D01*
X154650500Y-88982857D01*
X154650500Y-88239743D01*
X154652722Y-88232903D01*
X154651484Y-88225820D01*
X154661611Y-88205544D01*
X154669407Y-88181552D01*
X154670460Y-88180299D01*
X157755833Y-88180299D01*
X157755833Y-88649999D01*
X157755834Y-88650000D01*
X158405832Y-88650000D01*
X158405833Y-88649999D01*
X158405833Y-88000001D01*
X159205833Y-88000001D01*
X159205833Y-88649999D01*
X159205834Y-88650000D01*
X159305832Y-88650000D01*
X159305833Y-88649999D01*
X159305833Y-88000001D01*
X160105833Y-88000001D01*
X160105833Y-88649999D01*
X160105834Y-88650000D01*
X161655832Y-88650000D01*
X161655833Y-88649999D01*
X161655833Y-88180302D01*
X161655832Y-88180299D01*
X161644229Y-88121963D01*
X161600026Y-88055810D01*
X161600022Y-88055806D01*
X161533869Y-88011603D01*
X161475533Y-88000000D01*
X160105834Y-88000000D01*
X160105833Y-88000001D01*
X159305833Y-88000001D01*
X159305832Y-88000000D01*
X159205834Y-88000000D01*
X159205833Y-88000001D01*
X158405833Y-88000001D01*
X158405832Y-88000000D01*
X157936132Y-88000000D01*
X157877796Y-88011603D01*
X157811643Y-88055806D01*
X157811639Y-88055810D01*
X157767436Y-88121963D01*
X157755833Y-88180299D01*
X154670460Y-88180299D01*
X154678387Y-88170867D01*
X154678940Y-88170295D01*
X154730520Y-88118716D01*
X154809577Y-87981784D01*
X154850500Y-87829057D01*
X154850500Y-87670943D01*
X154809577Y-87518216D01*
X154730520Y-87381284D01*
X154618716Y-87269480D01*
X154481784Y-87190423D01*
X154329057Y-87149500D01*
X154170943Y-87149500D01*
X154018216Y-87190423D01*
X153881284Y-87269480D01*
X153769480Y-87381284D01*
X153690423Y-87518216D01*
X153649500Y-87670943D01*
X153649500Y-87829057D01*
X153690423Y-87981784D01*
X153769480Y-88118716D01*
X153820505Y-88169741D01*
X153848281Y-88224256D01*
X153849500Y-88239743D01*
X153849500Y-110053931D01*
X153830593Y-110112122D01*
X153820504Y-110123935D01*
X152911124Y-111033314D01*
X152856607Y-111061091D01*
X152803235Y-111054774D01*
X152767253Y-111039870D01*
X152564300Y-110999500D01*
X152564298Y-110999500D01*
X152357368Y-110999500D01*
X152357365Y-110999500D01*
X152154414Y-111039869D01*
X151963235Y-111119058D01*
X151791181Y-111234020D01*
X151644853Y-111380348D01*
X151529891Y-111552402D01*
X151450702Y-111743581D01*
X151410333Y-111946532D01*
X151410333Y-112153467D01*
X151450702Y-112356418D01*
X151529891Y-112547597D01*
X151529892Y-112547598D01*
X151644856Y-112719655D01*
X151791178Y-112865977D01*
X151963235Y-112980941D01*
X152079219Y-113028982D01*
X152125744Y-113068718D01*
X152140333Y-113120446D01*
X152140333Y-114059636D01*
X152121426Y-114117827D01*
X152071926Y-114153791D01*
X152066977Y-114155256D01*
X151953819Y-114185578D01*
X151936298Y-114192835D01*
X151904260Y-114206105D01*
X151790234Y-114271938D01*
X151747690Y-114304584D01*
X151654584Y-114397690D01*
X151621938Y-114440234D01*
X151556105Y-114554260D01*
X151542835Y-114586298D01*
X151535578Y-114603819D01*
X151519247Y-114664768D01*
X151501502Y-114730991D01*
X151494500Y-114784174D01*
X151494500Y-115350001D01*
X151499651Y-115395727D01*
X151513769Y-115425043D01*
X151527960Y-115454509D01*
X151536173Y-115515139D01*
X151516168Y-115559185D01*
X151514851Y-115560836D01*
X151514850Y-115560837D01*
X151504937Y-115604272D01*
X151494500Y-115650000D01*
X151494500Y-116215826D01*
X151501503Y-116269014D01*
X151535578Y-116396181D01*
X151556107Y-116445743D01*
X151610392Y-116539768D01*
X151621938Y-116559765D01*
X151654584Y-116602309D01*
X151654587Y-116602312D01*
X151654591Y-116602317D01*
X151747683Y-116695409D01*
X151747687Y-116695412D01*
X151747690Y-116695415D01*
X151790234Y-116728061D01*
X151790238Y-116728063D01*
X151790243Y-116728067D01*
X151904257Y-116793893D01*
X151953819Y-116814422D01*
X152080986Y-116848497D01*
X152134174Y-116855500D01*
X152169999Y-116855500D01*
X152228190Y-116874407D01*
X152240003Y-116884496D01*
X153786337Y-118430830D01*
X153814114Y-118485347D01*
X153815333Y-118500834D01*
X153815333Y-119575500D01*
X153796426Y-119633691D01*
X153746926Y-119669655D01*
X153716333Y-119674500D01*
X153415333Y-119674500D01*
X153357142Y-119655593D01*
X153321178Y-119606093D01*
X153316333Y-119575500D01*
X153316333Y-118430253D01*
X153316331Y-118430241D01*
X153313544Y-118416231D01*
X153304700Y-118371769D01*
X153260385Y-118305448D01*
X153226781Y-118282994D01*
X153205910Y-118264272D01*
X153200363Y-118257654D01*
X153176298Y-118215971D01*
X153115695Y-118155368D01*
X153115692Y-118155366D01*
X152699862Y-117739535D01*
X152699857Y-117739531D01*
X152625643Y-117696683D01*
X152615863Y-117694062D01*
X152542853Y-117674500D01*
X152542851Y-117674500D01*
X152262502Y-117674500D01*
X152204311Y-117655593D01*
X152183960Y-117635767D01*
X152180523Y-117631288D01*
X152180521Y-117631286D01*
X152180520Y-117631284D01*
X152068716Y-117519480D01*
X151931784Y-117440423D01*
X151779057Y-117399500D01*
X151620943Y-117399500D01*
X151468216Y-117440423D01*
X151331284Y-117519480D01*
X151219480Y-117631284D01*
X151140423Y-117768216D01*
X151099500Y-117920943D01*
X151099500Y-118079057D01*
X151140423Y-118231784D01*
X151219480Y-118368716D01*
X151331284Y-118480520D01*
X151468216Y-118559577D01*
X151620943Y-118600500D01*
X151620945Y-118600500D01*
X151779055Y-118600500D01*
X151779057Y-118600500D01*
X151931784Y-118559577D01*
X152068716Y-118480520D01*
X152180520Y-118368716D01*
X152180523Y-118368711D01*
X152183960Y-118364233D01*
X152195837Y-118356069D01*
X152204311Y-118344407D01*
X152220423Y-118339171D01*
X152234384Y-118329577D01*
X152262502Y-118325500D01*
X152324166Y-118325500D01*
X152382357Y-118344407D01*
X152394169Y-118354496D01*
X152486336Y-118446662D01*
X152514114Y-118501178D01*
X152515333Y-118516666D01*
X152515333Y-119575500D01*
X152496426Y-119633691D01*
X152446926Y-119669655D01*
X152416333Y-119674500D01*
X151065333Y-119674500D01*
X151007142Y-119655593D01*
X150971178Y-119606093D01*
X150966333Y-119575500D01*
X150966333Y-118430253D01*
X150966331Y-118430241D01*
X150963544Y-118416231D01*
X150954700Y-118371769D01*
X150949665Y-118364233D01*
X150908018Y-118301905D01*
X150891333Y-118246903D01*
X150891333Y-117257148D01*
X150891333Y-117257147D01*
X150869953Y-117177354D01*
X150869151Y-117174361D01*
X150869151Y-117174360D01*
X150826301Y-117100142D01*
X150826299Y-117100140D01*
X150826298Y-117100138D01*
X150579866Y-116853706D01*
X150552091Y-116799192D01*
X150561662Y-116738760D01*
X150589604Y-116705163D01*
X150602317Y-116695409D01*
X150695409Y-116602317D01*
X150728067Y-116559757D01*
X150793893Y-116445743D01*
X150814422Y-116396181D01*
X150848497Y-116269014D01*
X150855500Y-116215826D01*
X150855500Y-115650000D01*
X150850348Y-115604272D01*
X150822039Y-115545490D01*
X150813827Y-115484859D01*
X150833838Y-115440807D01*
X150833950Y-115440665D01*
X150835149Y-115439163D01*
X150855500Y-115350000D01*
X150855500Y-114784174D01*
X150848497Y-114730986D01*
X150814422Y-114603819D01*
X150793893Y-114554257D01*
X150728067Y-114440243D01*
X150728063Y-114440238D01*
X150728061Y-114440234D01*
X150695415Y-114397690D01*
X150695412Y-114397687D01*
X150695409Y-114397683D01*
X150602317Y-114304591D01*
X150602312Y-114304587D01*
X150602309Y-114304584D01*
X150559765Y-114271938D01*
X150559759Y-114271934D01*
X150559757Y-114271933D01*
X150445743Y-114206107D01*
X150445741Y-114206106D01*
X150445739Y-114206105D01*
X150431222Y-114200092D01*
X150396181Y-114185578D01*
X150396173Y-114185576D01*
X150396163Y-114185572D01*
X150314709Y-114163746D01*
X150263395Y-114130422D01*
X150241469Y-114073300D01*
X150241333Y-114068120D01*
X150241333Y-113120446D01*
X150260240Y-113062255D01*
X150302446Y-113028982D01*
X150418431Y-112980941D01*
X150590488Y-112865977D01*
X150736810Y-112719655D01*
X150851774Y-112547598D01*
X150930963Y-112356420D01*
X150971333Y-112153465D01*
X150971333Y-111946535D01*
X150930963Y-111743580D01*
X150930960Y-111743572D01*
X150916058Y-111707595D01*
X150911257Y-111646599D01*
X150937516Y-111599708D01*
X151520480Y-111016746D01*
X151553998Y-110958691D01*
X151573169Y-110925486D01*
X151573179Y-110925467D01*
X151573206Y-110925421D01*
X151573207Y-110925420D01*
X151600500Y-110823560D01*
X151600500Y-109549500D01*
X151619407Y-109491309D01*
X151668907Y-109455345D01*
X151699500Y-109450500D01*
X153325580Y-109450500D01*
X153325581Y-109450500D01*
X153384064Y-109438867D01*
X153450385Y-109394552D01*
X153494700Y-109328231D01*
X153506333Y-109269748D01*
X153506333Y-105730252D01*
X153494700Y-105671769D01*
X153450385Y-105605448D01*
X153450381Y-105605445D01*
X153384066Y-105561134D01*
X153384064Y-105561133D01*
X153384061Y-105561132D01*
X153384060Y-105561132D01*
X153325591Y-105549501D01*
X153325581Y-105549500D01*
X153325580Y-105549500D01*
X151699500Y-105549500D01*
X151641309Y-105530593D01*
X151605345Y-105481093D01*
X151600500Y-105450500D01*
X151600500Y-85640253D01*
X157755333Y-85640253D01*
X157755333Y-87379746D01*
X157755334Y-87379758D01*
X157766965Y-87438227D01*
X157766966Y-87438231D01*
X157811281Y-87504552D01*
X157877602Y-87548867D01*
X157922064Y-87557711D01*
X157936074Y-87560498D01*
X157936079Y-87560498D01*
X157936085Y-87560500D01*
X157936086Y-87560500D01*
X161475580Y-87560500D01*
X161475581Y-87560500D01*
X161534064Y-87548867D01*
X161600385Y-87504552D01*
X161644700Y-87438231D01*
X161656333Y-87379748D01*
X161656333Y-85640252D01*
X161644700Y-85581769D01*
X161600385Y-85515448D01*
X161600381Y-85515445D01*
X161534066Y-85471134D01*
X161534064Y-85471133D01*
X161534061Y-85471132D01*
X161534060Y-85471132D01*
X161475591Y-85459501D01*
X161475581Y-85459500D01*
X157936085Y-85459500D01*
X157936084Y-85459500D01*
X157936074Y-85459501D01*
X157877605Y-85471132D01*
X157877599Y-85471134D01*
X157811284Y-85515445D01*
X157811278Y-85515451D01*
X157766967Y-85581766D01*
X157766965Y-85581772D01*
X157755334Y-85640241D01*
X157755333Y-85640253D01*
X151600500Y-85640253D01*
X151600500Y-83100253D01*
X157755333Y-83100253D01*
X157755333Y-84839746D01*
X157755334Y-84839758D01*
X157766965Y-84898227D01*
X157766966Y-84898231D01*
X157811281Y-84964552D01*
X157877602Y-85008867D01*
X157922064Y-85017711D01*
X157936074Y-85020498D01*
X157936079Y-85020498D01*
X157936085Y-85020500D01*
X157936086Y-85020500D01*
X161475580Y-85020500D01*
X161475581Y-85020500D01*
X161534064Y-85008867D01*
X161600385Y-84964552D01*
X161644700Y-84898231D01*
X161656333Y-84839748D01*
X161656333Y-83100252D01*
X161644700Y-83041769D01*
X161600385Y-82975448D01*
X161553849Y-82944353D01*
X161534066Y-82931134D01*
X161534064Y-82931133D01*
X161534061Y-82931132D01*
X161534060Y-82931132D01*
X161475591Y-82919501D01*
X161475581Y-82919500D01*
X157936085Y-82919500D01*
X157936084Y-82919500D01*
X157936074Y-82919501D01*
X157877605Y-82931132D01*
X157877599Y-82931134D01*
X157811284Y-82975445D01*
X157811278Y-82975451D01*
X157766967Y-83041766D01*
X157766965Y-83041772D01*
X157755334Y-83100241D01*
X157755333Y-83100253D01*
X151600500Y-83100253D01*
X151600500Y-82160714D01*
X151600501Y-82160701D01*
X151600501Y-82047275D01*
X151600501Y-82047273D01*
X151573207Y-81945412D01*
X151537125Y-81882917D01*
X151520480Y-81854087D01*
X151445913Y-81779520D01*
X151445910Y-81779518D01*
X150226645Y-80560253D01*
X157755333Y-80560253D01*
X157755333Y-82299746D01*
X157755334Y-82299758D01*
X157766965Y-82358227D01*
X157766967Y-82358233D01*
X157781859Y-82380520D01*
X157811281Y-82424552D01*
X157877602Y-82468867D01*
X157922064Y-82477711D01*
X157936074Y-82480498D01*
X157936079Y-82480498D01*
X157936085Y-82480500D01*
X157936086Y-82480500D01*
X161475580Y-82480500D01*
X161475581Y-82480500D01*
X161534064Y-82468867D01*
X161600385Y-82424552D01*
X161644700Y-82358231D01*
X161656333Y-82299748D01*
X161656333Y-80560252D01*
X161644700Y-80501769D01*
X161600385Y-80435448D01*
X161600381Y-80435445D01*
X161534066Y-80391134D01*
X161534064Y-80391133D01*
X161534061Y-80391132D01*
X161534060Y-80391132D01*
X161475591Y-80379501D01*
X161475581Y-80379500D01*
X157936085Y-80379500D01*
X157936084Y-80379500D01*
X157936074Y-80379501D01*
X157877605Y-80391132D01*
X157877599Y-80391134D01*
X157811284Y-80435445D01*
X157811278Y-80435451D01*
X157766967Y-80501766D01*
X157766965Y-80501772D01*
X157755334Y-80560241D01*
X157755333Y-80560253D01*
X150226645Y-80560253D01*
X148529496Y-78863103D01*
X148501719Y-78808586D01*
X148500500Y-78793099D01*
X148500500Y-78720944D01*
X148500500Y-78720943D01*
X148459577Y-78568216D01*
X148380520Y-78431284D01*
X148268716Y-78319480D01*
X148131784Y-78240423D01*
X147979057Y-78199500D01*
X147820943Y-78199500D01*
X147668216Y-78240423D01*
X147531284Y-78319480D01*
X147419480Y-78431284D01*
X147340423Y-78568216D01*
X147299500Y-78720943D01*
X147299500Y-78879057D01*
X147340423Y-79031784D01*
X147419480Y-79168716D01*
X147531284Y-79280520D01*
X147668216Y-79359577D01*
X147820943Y-79400500D01*
X147893099Y-79400500D01*
X147951290Y-79419407D01*
X147963103Y-79429496D01*
X150770504Y-82236896D01*
X150798281Y-82291413D01*
X150799500Y-82306900D01*
X150799500Y-105451000D01*
X150780593Y-105509191D01*
X150731093Y-105545155D01*
X150700500Y-105550000D01*
X150315834Y-105550000D01*
X150315833Y-105550001D01*
X150315833Y-106278751D01*
X150228980Y-106191898D01*
X150112686Y-106124755D01*
X149982976Y-106090000D01*
X149848690Y-106090000D01*
X149718980Y-106124755D01*
X149602686Y-106191898D01*
X149515833Y-106278751D01*
X149515833Y-105550001D01*
X149515832Y-105550000D01*
X149164333Y-105550000D01*
X149106142Y-105531093D01*
X149070178Y-105481593D01*
X149065333Y-105451000D01*
X149065333Y-83212107D01*
X149065333Y-83212106D01*
X149038040Y-83110246D01*
X148985313Y-83018920D01*
X148910746Y-82944352D01*
X148910746Y-82944353D01*
X147929496Y-81963103D01*
X147901719Y-81908586D01*
X147900500Y-81893099D01*
X147900500Y-81820944D01*
X147900500Y-81820943D01*
X147859577Y-81668216D01*
X147780520Y-81531284D01*
X147668716Y-81419480D01*
X147531784Y-81340423D01*
X147379057Y-81299500D01*
X147220943Y-81299500D01*
X147068216Y-81340423D01*
X146931284Y-81419480D01*
X146819480Y-81531284D01*
X146740423Y-81668216D01*
X146699500Y-81820943D01*
X146699500Y-81979057D01*
X146740423Y-82131784D01*
X146819480Y-82268716D01*
X146931284Y-82380520D01*
X147068216Y-82459577D01*
X147220943Y-82500500D01*
X147293099Y-82500500D01*
X147351290Y-82519407D01*
X147363103Y-82529496D01*
X148235337Y-83401730D01*
X148263114Y-83456247D01*
X148264333Y-83471734D01*
X148264333Y-105450500D01*
X148245426Y-105508691D01*
X148195926Y-105544655D01*
X148165333Y-105549500D01*
X146506085Y-105549500D01*
X146506084Y-105549500D01*
X146506074Y-105549501D01*
X146447605Y-105561132D01*
X146447599Y-105561134D01*
X146381284Y-105605445D01*
X146381278Y-105605451D01*
X146336967Y-105671766D01*
X146336965Y-105671772D01*
X146325334Y-105730241D01*
X146325333Y-105730253D01*
X146325333Y-109269746D01*
X146325334Y-109269758D01*
X146336965Y-109328227D01*
X146336966Y-109328231D01*
X146381281Y-109394552D01*
X146447602Y-109438867D01*
X146487328Y-109446769D01*
X146506074Y-109450498D01*
X146506079Y-109450498D01*
X146506085Y-109450500D01*
X146506086Y-109450500D01*
X148165333Y-109450500D01*
X148223524Y-109469407D01*
X148259488Y-109518907D01*
X148264333Y-109549500D01*
X148264333Y-110559099D01*
X148245426Y-110617290D01*
X148235336Y-110629103D01*
X147831124Y-111033314D01*
X147776608Y-111061091D01*
X147723237Y-111054775D01*
X147687251Y-111039869D01*
X147484300Y-110999500D01*
X147484298Y-110999500D01*
X147277368Y-110999500D01*
X147277365Y-110999500D01*
X147074414Y-111039869D01*
X146883235Y-111119058D01*
X146711181Y-111234020D01*
X146564853Y-111380348D01*
X146449891Y-111552402D01*
X146370702Y-111743581D01*
X146330333Y-111946532D01*
X146330333Y-112153467D01*
X146370702Y-112356418D01*
X146449891Y-112547597D01*
X146449892Y-112547598D01*
X146564856Y-112719655D01*
X146711178Y-112865977D01*
X146883235Y-112980941D01*
X146979218Y-113020698D01*
X147025744Y-113060434D01*
X147040333Y-113112162D01*
X147040333Y-114059636D01*
X147021426Y-114117827D01*
X146971926Y-114153791D01*
X146966977Y-114155256D01*
X146853819Y-114185578D01*
X146836298Y-114192835D01*
X146804260Y-114206105D01*
X146690234Y-114271938D01*
X146647690Y-114304584D01*
X146554584Y-114397690D01*
X146521938Y-114440234D01*
X146456105Y-114554260D01*
X146442835Y-114586298D01*
X146435578Y-114603819D01*
X146419247Y-114664768D01*
X146401502Y-114730991D01*
X146394500Y-114784174D01*
X146394500Y-115350001D01*
X146399651Y-115395727D01*
X146413769Y-115425043D01*
X146427960Y-115454509D01*
X146436173Y-115515139D01*
X146416168Y-115559185D01*
X146414851Y-115560836D01*
X146414850Y-115560837D01*
X146404937Y-115604272D01*
X146394500Y-115650000D01*
X146394500Y-116215826D01*
X146401503Y-116269014D01*
X146435578Y-116396181D01*
X146456107Y-116445743D01*
X146510392Y-116539768D01*
X146521938Y-116559765D01*
X146554584Y-116602309D01*
X146554587Y-116602312D01*
X146554591Y-116602317D01*
X146647683Y-116695409D01*
X146647687Y-116695412D01*
X146647690Y-116695415D01*
X146678312Y-116718913D01*
X146712968Y-116769338D01*
X146711365Y-116830502D01*
X146688048Y-116867458D01*
X146005364Y-117550142D01*
X145962516Y-117624356D01*
X145951681Y-117664791D01*
X145943137Y-117696682D01*
X145943137Y-117696683D01*
X145943136Y-117696682D01*
X145940333Y-117707144D01*
X145940333Y-118151092D01*
X145932642Y-118174760D01*
X145927871Y-118199176D01*
X145923339Y-118203392D01*
X145921426Y-118209283D01*
X145901291Y-118223911D01*
X145883081Y-118240859D01*
X145815833Y-118272133D01*
X145815833Y-119849999D01*
X145815834Y-119850000D01*
X145835530Y-119850000D01*
X145835533Y-119849999D01*
X145893866Y-119838396D01*
X145902404Y-119834860D01*
X145963400Y-119830057D01*
X145978041Y-119836457D01*
X145978590Y-119835134D01*
X145987597Y-119838863D01*
X145987602Y-119838867D01*
X146032064Y-119847711D01*
X146046074Y-119850498D01*
X146046079Y-119850498D01*
X146046085Y-119850500D01*
X146046086Y-119850500D01*
X146485580Y-119850500D01*
X146485581Y-119850500D01*
X146544064Y-119838867D01*
X146544069Y-119838863D01*
X146552946Y-119835187D01*
X146613943Y-119830386D01*
X146628720Y-119835187D01*
X146637598Y-119838864D01*
X146637602Y-119838867D01*
X146696085Y-119850500D01*
X146696086Y-119850500D01*
X147135580Y-119850500D01*
X147135581Y-119850500D01*
X147194064Y-119838867D01*
X147260385Y-119794552D01*
X147304700Y-119728231D01*
X147316333Y-119669748D01*
X147316333Y-118430252D01*
X147315365Y-118425388D01*
X147313544Y-118416231D01*
X147304700Y-118371769D01*
X147260385Y-118305448D01*
X147241334Y-118292718D01*
X147194066Y-118261134D01*
X147194064Y-118261133D01*
X147194061Y-118261132D01*
X147194060Y-118261132D01*
X147135591Y-118249501D01*
X147135581Y-118249500D01*
X146696085Y-118249500D01*
X146691221Y-118249500D01*
X146691221Y-118247187D01*
X146640229Y-118235972D01*
X146599610Y-118190215D01*
X146591333Y-118150587D01*
X146591333Y-117925833D01*
X146610240Y-117867642D01*
X146620323Y-117855835D01*
X147549859Y-116926299D01*
X147549862Y-116926298D01*
X147591665Y-116884494D01*
X147646180Y-116856719D01*
X147661667Y-116855500D01*
X147665824Y-116855500D01*
X147665826Y-116855500D01*
X147719014Y-116848497D01*
X147846181Y-116814422D01*
X147895743Y-116793893D01*
X148009757Y-116728067D01*
X148052317Y-116695409D01*
X148145409Y-116602317D01*
X148178067Y-116559757D01*
X148243893Y-116445743D01*
X148264422Y-116396181D01*
X148298497Y-116269014D01*
X148305500Y-116215826D01*
X148305500Y-115650000D01*
X148300348Y-115604272D01*
X148272039Y-115545490D01*
X148263827Y-115484859D01*
X148283838Y-115440807D01*
X148283950Y-115440665D01*
X148285149Y-115439163D01*
X148305500Y-115350000D01*
X148305500Y-114784174D01*
X148298497Y-114730986D01*
X148264422Y-114603819D01*
X148243893Y-114554257D01*
X148178067Y-114440243D01*
X148178063Y-114440238D01*
X148178061Y-114440234D01*
X148145415Y-114397690D01*
X148145412Y-114397687D01*
X148145409Y-114397683D01*
X148052317Y-114304591D01*
X148052312Y-114304587D01*
X148052309Y-114304584D01*
X148009765Y-114271938D01*
X148009759Y-114271934D01*
X148009757Y-114271933D01*
X147895743Y-114206107D01*
X147895741Y-114206106D01*
X147895739Y-114206105D01*
X147881222Y-114200092D01*
X147846181Y-114185578D01*
X147846173Y-114185576D01*
X147846163Y-114185572D01*
X147764709Y-114163746D01*
X147713395Y-114130422D01*
X147691469Y-114073300D01*
X147691333Y-114068120D01*
X147691333Y-113124588D01*
X147710240Y-113066397D01*
X147752446Y-113033125D01*
X147878431Y-112980941D01*
X148050488Y-112865977D01*
X148196810Y-112719655D01*
X148311774Y-112547598D01*
X148390963Y-112356420D01*
X148431333Y-112153465D01*
X148431333Y-111946535D01*
X148390963Y-111743580D01*
X148390960Y-111743572D01*
X148376058Y-111707595D01*
X148371257Y-111646599D01*
X148397516Y-111599708D01*
X148985313Y-111011913D01*
X148985764Y-111011132D01*
X149038038Y-110920592D01*
X149038038Y-110920590D01*
X149038040Y-110920588D01*
X149065333Y-110818727D01*
X149065333Y-110713273D01*
X149065333Y-109549000D01*
X149084240Y-109490809D01*
X149133740Y-109454845D01*
X149164333Y-109450000D01*
X149515832Y-109450000D01*
X149515833Y-109449999D01*
X149515833Y-106921249D01*
X149602686Y-107008102D01*
X149718980Y-107075245D01*
X149848690Y-107110000D01*
X149982976Y-107110000D01*
X150112686Y-107075245D01*
X150228980Y-107008102D01*
X150315833Y-106921249D01*
X150315833Y-109449999D01*
X150315834Y-109450000D01*
X150700500Y-109450000D01*
X150758691Y-109468907D01*
X150794655Y-109518407D01*
X150799500Y-109549000D01*
X150799500Y-110563932D01*
X150780593Y-110622123D01*
X150770503Y-110633936D01*
X150371124Y-111033314D01*
X150316608Y-111061091D01*
X150263237Y-111054775D01*
X150227251Y-111039869D01*
X150024300Y-110999500D01*
X150024298Y-110999500D01*
X149817368Y-110999500D01*
X149817365Y-110999500D01*
X149614414Y-111039869D01*
X149423235Y-111119058D01*
X149251181Y-111234020D01*
X149104853Y-111380348D01*
X148989891Y-111552402D01*
X148910702Y-111743581D01*
X148870333Y-111946532D01*
X148870333Y-112153467D01*
X148910702Y-112356418D01*
X148989891Y-112547597D01*
X148989892Y-112547598D01*
X149104856Y-112719655D01*
X149251178Y-112865977D01*
X149423235Y-112980941D01*
X149529218Y-113024840D01*
X149575744Y-113064576D01*
X149590333Y-113116304D01*
X149590333Y-114059636D01*
X149571426Y-114117827D01*
X149521926Y-114153791D01*
X149516977Y-114155256D01*
X149403819Y-114185578D01*
X149386298Y-114192835D01*
X149354260Y-114206105D01*
X149240234Y-114271938D01*
X149197690Y-114304584D01*
X149104584Y-114397690D01*
X149071938Y-114440234D01*
X149006105Y-114554260D01*
X148992835Y-114586298D01*
X148985578Y-114603819D01*
X148969247Y-114664768D01*
X148951502Y-114730991D01*
X148944500Y-114784174D01*
X148944500Y-115350001D01*
X148949651Y-115395727D01*
X148963769Y-115425043D01*
X148977960Y-115454509D01*
X148986173Y-115515139D01*
X148966168Y-115559185D01*
X148964851Y-115560836D01*
X148964850Y-115560837D01*
X148954937Y-115604272D01*
X148944500Y-115650000D01*
X148944500Y-116215826D01*
X148951503Y-116269014D01*
X148985578Y-116396181D01*
X149006107Y-116445743D01*
X149060392Y-116539768D01*
X149071938Y-116559765D01*
X149104584Y-116602309D01*
X149104587Y-116602312D01*
X149104591Y-116602317D01*
X149197683Y-116695409D01*
X149197687Y-116695412D01*
X149197690Y-116695415D01*
X149240234Y-116728061D01*
X149240238Y-116728063D01*
X149240243Y-116728067D01*
X149354257Y-116793893D01*
X149403819Y-116814422D01*
X149530986Y-116848497D01*
X149584174Y-116855500D01*
X149619998Y-116855500D01*
X149678189Y-116874407D01*
X149690002Y-116884496D01*
X150211337Y-117405831D01*
X150239114Y-117460348D01*
X150240333Y-117475835D01*
X150240333Y-118246903D01*
X150223648Y-118301905D01*
X150176967Y-118371766D01*
X150176965Y-118371772D01*
X150165334Y-118430241D01*
X150165333Y-118430253D01*
X150165333Y-119575500D01*
X150146426Y-119633691D01*
X150096926Y-119669655D01*
X150066333Y-119674500D01*
X149765333Y-119674500D01*
X149707142Y-119655593D01*
X149671178Y-119606093D01*
X149666333Y-119575500D01*
X149666333Y-118430253D01*
X149666331Y-118430241D01*
X149663544Y-118416231D01*
X149654700Y-118371769D01*
X149610385Y-118305448D01*
X149610384Y-118305447D01*
X149608019Y-118301907D01*
X149594445Y-118271528D01*
X149591334Y-118259413D01*
X149591334Y-118222980D01*
X149569151Y-118140195D01*
X149560747Y-118125639D01*
X149526298Y-118065971D01*
X149507264Y-118046937D01*
X149465695Y-118005367D01*
X149465695Y-118005368D01*
X149465693Y-118005366D01*
X149465693Y-118005365D01*
X149199862Y-117739535D01*
X149199857Y-117739531D01*
X149125643Y-117696683D01*
X149115863Y-117694062D01*
X149042853Y-117674500D01*
X149042851Y-117674500D01*
X148662502Y-117674500D01*
X148604311Y-117655593D01*
X148583960Y-117635767D01*
X148580523Y-117631288D01*
X148580521Y-117631286D01*
X148580520Y-117631284D01*
X148468716Y-117519480D01*
X148331784Y-117440423D01*
X148179057Y-117399500D01*
X148020943Y-117399500D01*
X147868216Y-117440423D01*
X147731284Y-117519480D01*
X147619480Y-117631284D01*
X147540423Y-117768216D01*
X147499500Y-117920943D01*
X147499500Y-118079057D01*
X147540423Y-118231784D01*
X147619480Y-118368716D01*
X147731284Y-118480520D01*
X147868216Y-118559577D01*
X148020943Y-118600500D01*
X148020945Y-118600500D01*
X148179055Y-118600500D01*
X148179057Y-118600500D01*
X148331784Y-118559577D01*
X148468716Y-118480520D01*
X148580520Y-118368716D01*
X148580523Y-118368711D01*
X148583960Y-118364233D01*
X148595837Y-118356069D01*
X148604311Y-118344407D01*
X148620423Y-118339171D01*
X148634384Y-118329577D01*
X148662502Y-118325500D01*
X148766420Y-118325500D01*
X148824611Y-118344407D01*
X148860575Y-118393907D01*
X148863996Y-118425388D01*
X148865333Y-118425388D01*
X148865333Y-119582943D01*
X148846426Y-119641134D01*
X148796926Y-119677098D01*
X148791954Y-119678570D01*
X148724361Y-119696682D01*
X148724359Y-119696682D01*
X148724355Y-119696684D01*
X148650142Y-119739531D01*
X148139531Y-120250142D01*
X148096682Y-120324360D01*
X148096681Y-120324360D01*
X148096682Y-120324361D01*
X148095079Y-120330345D01*
X148074500Y-120407147D01*
X148074500Y-121657147D01*
X148074500Y-121742853D01*
X148087527Y-121791472D01*
X148096683Y-121825643D01*
X148139531Y-121899857D01*
X148139535Y-121899862D01*
X148620169Y-122380497D01*
X148647946Y-122435013D01*
X148638375Y-122495445D01*
X148595110Y-122538710D01*
X148550165Y-122549500D01*
X148300835Y-122549500D01*
X148242644Y-122530593D01*
X148230831Y-122520504D01*
X147345329Y-121635002D01*
X147317552Y-121580485D01*
X147316333Y-121564998D01*
X147316333Y-120330253D01*
X147316331Y-120330241D01*
X147310773Y-120302302D01*
X147304700Y-120271769D01*
X147260385Y-120205448D01*
X147203940Y-120167732D01*
X147194066Y-120161134D01*
X147194064Y-120161133D01*
X147194061Y-120161132D01*
X147194060Y-120161132D01*
X147135591Y-120149501D01*
X147135581Y-120149500D01*
X146696085Y-120149500D01*
X146696084Y-120149500D01*
X146696074Y-120149501D01*
X146637605Y-120161132D01*
X146637599Y-120161134D01*
X146571284Y-120205445D01*
X146571278Y-120205451D01*
X146526967Y-120271766D01*
X146526965Y-120271772D01*
X146515334Y-120330241D01*
X146515333Y-120330253D01*
X146515333Y-121569746D01*
X146515334Y-121569758D01*
X146526965Y-121628227D01*
X146526967Y-121628233D01*
X146554528Y-121669480D01*
X146571281Y-121694552D01*
X146571284Y-121694554D01*
X146573376Y-121696646D01*
X146593307Y-121725264D01*
X146596821Y-121732900D01*
X146612515Y-121791472D01*
X146655368Y-121865695D01*
X146660114Y-121870441D01*
X146666406Y-121884114D01*
X146668747Y-121904019D01*
X146675437Y-121922908D01*
X146672239Y-121933701D01*
X146673555Y-121944880D01*
X146663752Y-121962356D01*
X146658060Y-121981573D01*
X146649129Y-121988426D01*
X146643622Y-121998244D01*
X146625416Y-122006621D01*
X146609519Y-122018821D01*
X146592583Y-122021731D01*
X146588040Y-122023822D01*
X146584513Y-122023117D01*
X146576471Y-122024500D01*
X146040333Y-122024500D01*
X145982142Y-122005593D01*
X145946178Y-121956093D01*
X145941333Y-121925500D01*
X145941333Y-121753096D01*
X145958018Y-121698094D01*
X145960385Y-121694552D01*
X146004700Y-121628231D01*
X146016333Y-121569748D01*
X146016333Y-120330252D01*
X146015161Y-120324362D01*
X146010773Y-120302302D01*
X146004700Y-120271769D01*
X145960385Y-120205448D01*
X145903940Y-120167732D01*
X145894066Y-120161134D01*
X145894064Y-120161133D01*
X145894061Y-120161132D01*
X145894060Y-120161132D01*
X145835591Y-120149501D01*
X145835581Y-120149500D01*
X145396085Y-120149500D01*
X145396084Y-120149500D01*
X145396074Y-120149501D01*
X145337605Y-120161132D01*
X145337599Y-120161134D01*
X145271284Y-120205445D01*
X145271278Y-120205451D01*
X145226967Y-120271766D01*
X145226965Y-120271772D01*
X145215334Y-120330241D01*
X145215333Y-120330253D01*
X145215333Y-121569746D01*
X145215334Y-121569758D01*
X145225225Y-121619480D01*
X145226966Y-121628231D01*
X145271278Y-121694548D01*
X145273648Y-121698094D01*
X145290333Y-121753096D01*
X145290333Y-122172980D01*
X145290333Y-122258686D01*
X145301102Y-122298877D01*
X145312516Y-122341476D01*
X145355367Y-122415695D01*
X145458389Y-122518715D01*
X145489534Y-122549860D01*
X145489535Y-122549862D01*
X145550138Y-122610465D01*
X145566963Y-122620179D01*
X145574952Y-122627496D01*
X145584946Y-122645152D01*
X145598523Y-122660230D01*
X145599673Y-122671169D01*
X145605092Y-122680743D01*
X145602798Y-122700903D01*
X145604920Y-122721080D01*
X145599420Y-122730606D01*
X145598177Y-122741537D01*
X145584472Y-122756498D01*
X145574329Y-122774069D01*
X145564279Y-122778543D01*
X145556850Y-122786655D01*
X145536968Y-122790704D01*
X145518434Y-122798957D01*
X145508083Y-122799500D01*
X130924091Y-122799500D01*
X130918541Y-122799344D01*
X130894953Y-122798019D01*
X130613422Y-122782210D01*
X130602390Y-122780967D01*
X130303852Y-122730245D01*
X130293029Y-122727775D01*
X130002038Y-122643944D01*
X129991559Y-122640277D01*
X129746349Y-122538710D01*
X129711787Y-122524394D01*
X129701792Y-122519581D01*
X129548776Y-122435013D01*
X129436754Y-122373101D01*
X129427354Y-122367195D01*
X129180383Y-122191961D01*
X129171703Y-122185039D01*
X129144208Y-122160468D01*
X128945898Y-121983249D01*
X128938063Y-121975414D01*
X128736266Y-121749604D01*
X128729353Y-121740935D01*
X128727551Y-121738396D01*
X128554114Y-121493960D01*
X128548209Y-121484562D01*
X128477642Y-121356881D01*
X128473840Y-121350001D01*
X141100000Y-121350001D01*
X141100000Y-121819700D01*
X141111603Y-121878036D01*
X141155806Y-121944189D01*
X141155810Y-121944193D01*
X141221963Y-121988396D01*
X141280299Y-121999999D01*
X141280303Y-122000000D01*
X141749999Y-122000000D01*
X141750000Y-121999999D01*
X141750000Y-121350001D01*
X141749999Y-121350000D01*
X141100001Y-121350000D01*
X141100000Y-121350001D01*
X128473840Y-121350001D01*
X128401730Y-121219529D01*
X128396913Y-121209527D01*
X128309654Y-120998867D01*
X128281026Y-120929754D01*
X128277361Y-120919279D01*
X128193523Y-120628273D01*
X128191060Y-120617479D01*
X128140333Y-120318924D01*
X128139091Y-120307894D01*
X128137062Y-120271772D01*
X128121976Y-120003133D01*
X128121820Y-119997582D01*
X128121820Y-118348341D01*
X129720820Y-118348341D01*
X129720820Y-118651658D01*
X129754779Y-118953061D01*
X129822274Y-119248775D01*
X129922451Y-119535063D01*
X129922452Y-119535065D01*
X130054047Y-119808326D01*
X130054051Y-119808333D01*
X130054055Y-119808341D01*
X130215428Y-120065164D01*
X130404541Y-120302304D01*
X130619016Y-120516779D01*
X130856156Y-120705892D01*
X131112979Y-120867265D01*
X131112990Y-120867270D01*
X131112993Y-120867272D01*
X131148091Y-120884174D01*
X131386255Y-120998868D01*
X131519900Y-121045632D01*
X131672544Y-121099045D01*
X131672547Y-121099045D01*
X131672548Y-121099046D01*
X131968257Y-121166540D01*
X132269663Y-121200500D01*
X132269664Y-121200500D01*
X132572976Y-121200500D01*
X132572977Y-121200500D01*
X132874383Y-121166540D01*
X133170092Y-121099046D01*
X133456385Y-120998868D01*
X133694549Y-120884174D01*
X141650000Y-120884174D01*
X141650000Y-121015826D01*
X141684075Y-121142993D01*
X141749901Y-121257007D01*
X141842993Y-121350099D01*
X141957007Y-121415925D01*
X142084174Y-121450000D01*
X142215826Y-121450000D01*
X142342993Y-121415925D01*
X142457007Y-121350099D01*
X142457105Y-121350001D01*
X142550000Y-121350001D01*
X142550000Y-121999999D01*
X142550001Y-122000000D01*
X143019697Y-122000000D01*
X143019700Y-121999999D01*
X143078036Y-121988396D01*
X143144189Y-121944193D01*
X143144193Y-121944189D01*
X143188396Y-121878036D01*
X143199999Y-121819700D01*
X143200000Y-121819697D01*
X143200000Y-121350001D01*
X143199999Y-121350000D01*
X142550001Y-121350000D01*
X142550000Y-121350001D01*
X142457105Y-121350001D01*
X142550099Y-121257007D01*
X142615925Y-121142993D01*
X142650000Y-121015826D01*
X142650000Y-120884174D01*
X142615925Y-120757007D01*
X142550099Y-120642993D01*
X142457007Y-120549901D01*
X142342993Y-120484075D01*
X142215826Y-120450000D01*
X142084174Y-120450000D01*
X141957007Y-120484075D01*
X141842993Y-120549901D01*
X141749901Y-120642993D01*
X141684075Y-120757007D01*
X141650000Y-120884174D01*
X133694549Y-120884174D01*
X133729661Y-120867265D01*
X133986484Y-120705892D01*
X134223624Y-120516779D01*
X134438099Y-120302304D01*
X134615142Y-120080299D01*
X141100000Y-120080299D01*
X141100000Y-120549999D01*
X141100001Y-120550000D01*
X141749999Y-120550000D01*
X141750000Y-120549999D01*
X141750000Y-119900001D01*
X142550000Y-119900001D01*
X142550000Y-120549999D01*
X142550001Y-120550000D01*
X143199999Y-120550000D01*
X143200000Y-120549999D01*
X143200000Y-120080302D01*
X143199999Y-120080299D01*
X143188396Y-120021963D01*
X143144193Y-119955810D01*
X143144189Y-119955806D01*
X143078036Y-119911603D01*
X143019700Y-119900000D01*
X142550001Y-119900000D01*
X142550000Y-119900001D01*
X141750000Y-119900001D01*
X141749999Y-119900000D01*
X141280299Y-119900000D01*
X141221963Y-119911603D01*
X141155810Y-119955806D01*
X141155806Y-119955810D01*
X141111603Y-120021963D01*
X141100000Y-120080299D01*
X134615142Y-120080299D01*
X134627212Y-120065164D01*
X134788585Y-119808341D01*
X134920188Y-119535065D01*
X135019936Y-119250001D01*
X145215833Y-119250001D01*
X145215833Y-119669700D01*
X145227436Y-119728036D01*
X145271639Y-119794189D01*
X145271643Y-119794193D01*
X145337796Y-119838396D01*
X145396132Y-119849999D01*
X145396136Y-119850000D01*
X145415832Y-119850000D01*
X145415833Y-119849999D01*
X145415833Y-119250001D01*
X145415832Y-119250000D01*
X145215834Y-119250000D01*
X145215833Y-119250001D01*
X135019936Y-119250001D01*
X135020366Y-119248772D01*
X135071229Y-119025930D01*
X135087860Y-118953063D01*
X135094160Y-118897150D01*
X135121820Y-118651657D01*
X135121820Y-118348343D01*
X135087860Y-118046937D01*
X135020366Y-117751228D01*
X135016274Y-117739535D01*
X134946594Y-117540399D01*
X134920188Y-117464935D01*
X134803511Y-117222653D01*
X134788592Y-117191673D01*
X134788590Y-117191670D01*
X134788585Y-117191659D01*
X134718584Y-117080253D01*
X136499500Y-117080253D01*
X136499500Y-118819746D01*
X136499501Y-118819758D01*
X136511132Y-118878227D01*
X136511133Y-118878231D01*
X136555448Y-118944552D01*
X136621769Y-118988867D01*
X136666231Y-118997711D01*
X136680241Y-119000498D01*
X136680246Y-119000498D01*
X136680252Y-119000500D01*
X136680253Y-119000500D01*
X138419747Y-119000500D01*
X138419748Y-119000500D01*
X138478231Y-118988867D01*
X138544552Y-118944552D01*
X138588867Y-118878231D01*
X138600500Y-118819748D01*
X138600500Y-118500001D01*
X139600001Y-118500001D01*
X139600001Y-118629203D01*
X139602850Y-118659600D01*
X139602850Y-118659602D01*
X139647654Y-118787647D01*
X139728207Y-118896790D01*
X139728209Y-118896792D01*
X139837352Y-118977344D01*
X139900000Y-118999265D01*
X139900000Y-118500001D01*
X140700000Y-118500001D01*
X140700000Y-118999265D01*
X140762647Y-118977344D01*
X140871790Y-118896792D01*
X140871792Y-118896790D01*
X140952345Y-118787647D01*
X140997149Y-118659601D01*
X140999999Y-118629211D01*
X141000000Y-118629210D01*
X141000000Y-118500001D01*
X140999999Y-118500000D01*
X140700001Y-118500000D01*
X140700000Y-118500001D01*
X139900000Y-118500001D01*
X139899999Y-118500000D01*
X139600002Y-118500000D01*
X139600001Y-118500001D01*
X138600500Y-118500001D01*
X138600500Y-117570788D01*
X139600000Y-117570788D01*
X139600000Y-117699999D01*
X139600001Y-117700000D01*
X139899999Y-117700000D01*
X139900000Y-117699999D01*
X140700000Y-117699999D01*
X140700001Y-117700000D01*
X140999998Y-117700000D01*
X140999999Y-117699999D01*
X140999999Y-117570796D01*
X140997149Y-117540399D01*
X140997149Y-117540397D01*
X140952345Y-117412352D01*
X140871792Y-117303209D01*
X140871790Y-117303207D01*
X140762645Y-117222653D01*
X140762643Y-117222652D01*
X140700000Y-117200732D01*
X140700000Y-117699999D01*
X139900000Y-117699999D01*
X139900000Y-117200732D01*
X139837356Y-117222652D01*
X139837354Y-117222653D01*
X139728209Y-117303207D01*
X139728207Y-117303209D01*
X139647654Y-117412352D01*
X139602850Y-117540398D01*
X139600000Y-117570788D01*
X138600500Y-117570788D01*
X138600500Y-117400834D01*
X138619407Y-117342643D01*
X138629496Y-117330830D01*
X139368330Y-116591996D01*
X139422847Y-116564219D01*
X139438334Y-116563000D01*
X141031449Y-116563000D01*
X141089640Y-116581907D01*
X141124893Y-116629302D01*
X141146543Y-116691175D01*
X141146544Y-116691176D01*
X141146545Y-116691179D01*
X141226070Y-116798930D01*
X141333821Y-116878455D01*
X141460226Y-116922686D01*
X141490226Y-116925499D01*
X141490230Y-116925500D01*
X141490236Y-116925500D01*
X141775500Y-116925500D01*
X141790412Y-116930345D01*
X141806093Y-116930345D01*
X141818778Y-116939561D01*
X141833691Y-116944407D01*
X141842907Y-116957092D01*
X141855593Y-116966309D01*
X141860438Y-116981221D01*
X141869655Y-116993907D01*
X141874500Y-117024500D01*
X141874500Y-117103890D01*
X141855593Y-117162081D01*
X141808199Y-117197334D01*
X141737115Y-117222207D01*
X141627855Y-117302845D01*
X141627845Y-117302855D01*
X141547207Y-117412116D01*
X141502355Y-117540296D01*
X141502353Y-117540305D01*
X141499500Y-117570725D01*
X141499500Y-118629274D01*
X141502353Y-118659694D01*
X141502355Y-118659703D01*
X141547207Y-118787883D01*
X141627845Y-118897144D01*
X141627847Y-118897146D01*
X141627850Y-118897150D01*
X141627853Y-118897152D01*
X141627855Y-118897154D01*
X141737116Y-118977792D01*
X141737117Y-118977792D01*
X141737118Y-118977793D01*
X141865301Y-119022646D01*
X141895725Y-119025499D01*
X141895727Y-119025500D01*
X141895734Y-119025500D01*
X142504273Y-119025500D01*
X142504273Y-119025499D01*
X142534699Y-119022646D01*
X142662882Y-118977793D01*
X142772150Y-118897150D01*
X142852793Y-118787882D01*
X142897646Y-118659699D01*
X142900499Y-118629273D01*
X142900500Y-118629273D01*
X142900500Y-118430299D01*
X145215833Y-118430299D01*
X145215833Y-118849999D01*
X145215834Y-118850000D01*
X145415832Y-118850000D01*
X145415833Y-118849999D01*
X145415833Y-118250001D01*
X145415832Y-118250000D01*
X145396132Y-118250000D01*
X145337796Y-118261603D01*
X145271643Y-118305806D01*
X145271639Y-118305810D01*
X145227436Y-118371963D01*
X145215833Y-118430299D01*
X142900500Y-118430299D01*
X142900500Y-118105351D01*
X142919407Y-118047160D01*
X142968907Y-118011196D01*
X143030093Y-118011196D01*
X143048996Y-118019613D01*
X143118216Y-118059577D01*
X143270943Y-118100500D01*
X143270945Y-118100500D01*
X143429055Y-118100500D01*
X143429057Y-118100500D01*
X143581784Y-118059577D01*
X143718716Y-117980520D01*
X143830520Y-117868716D01*
X143909577Y-117731784D01*
X143950500Y-117579057D01*
X143950500Y-117420943D01*
X143909577Y-117268216D01*
X143830520Y-117131284D01*
X143718716Y-117019480D01*
X143718713Y-117019478D01*
X143718712Y-117019477D01*
X143714228Y-117016036D01*
X143706066Y-117004158D01*
X143694407Y-116995688D01*
X143689171Y-116979573D01*
X143679575Y-116965609D01*
X143675500Y-116937497D01*
X143675500Y-116744585D01*
X143694407Y-116686394D01*
X143704496Y-116674581D01*
X143705831Y-116673246D01*
X143728168Y-116661864D01*
X143743907Y-116650430D01*
X143750611Y-116650430D01*
X143760348Y-116645469D01*
X143775835Y-116644250D01*
X144005517Y-116644250D01*
X144063708Y-116663157D01*
X144075514Y-116673240D01*
X144097683Y-116695409D01*
X144097687Y-116695412D01*
X144097690Y-116695415D01*
X144140234Y-116728061D01*
X144140238Y-116728063D01*
X144140243Y-116728067D01*
X144254257Y-116793893D01*
X144303819Y-116814422D01*
X144430986Y-116848497D01*
X144484174Y-116855500D01*
X144484175Y-116855500D01*
X145115824Y-116855500D01*
X145115826Y-116855500D01*
X145169014Y-116848497D01*
X145296181Y-116814422D01*
X145345743Y-116793893D01*
X145459757Y-116728067D01*
X145502317Y-116695409D01*
X145595409Y-116602317D01*
X145628067Y-116559757D01*
X145693893Y-116445743D01*
X145714422Y-116396181D01*
X145748497Y-116269014D01*
X145755500Y-116215826D01*
X145755500Y-115650000D01*
X145750348Y-115604272D01*
X145722039Y-115545490D01*
X145713827Y-115484859D01*
X145733838Y-115440807D01*
X145733950Y-115440665D01*
X145735149Y-115439163D01*
X145755500Y-115350000D01*
X145755500Y-114784174D01*
X145748497Y-114730986D01*
X145714422Y-114603819D01*
X145693893Y-114554257D01*
X145628067Y-114440243D01*
X145628063Y-114440238D01*
X145628061Y-114440234D01*
X145595415Y-114397690D01*
X145595412Y-114397687D01*
X145595409Y-114397683D01*
X145502317Y-114304591D01*
X145502312Y-114304587D01*
X145502310Y-114304585D01*
X145460145Y-114272231D01*
X145459757Y-114271933D01*
X145449996Y-114266297D01*
X145409058Y-114220827D01*
X145400500Y-114180563D01*
X145400500Y-113199500D01*
X145419407Y-113141309D01*
X145468907Y-113105345D01*
X145499500Y-113100500D01*
X145710580Y-113100500D01*
X145710581Y-113100500D01*
X145769064Y-113088867D01*
X145835385Y-113044552D01*
X145879700Y-112978231D01*
X145891333Y-112919748D01*
X145891333Y-111180252D01*
X145879700Y-111121769D01*
X145835385Y-111055448D01*
X145834378Y-111054775D01*
X145769066Y-111011134D01*
X145769064Y-111011133D01*
X145769061Y-111011132D01*
X145769060Y-111011132D01*
X145710591Y-110999501D01*
X145710581Y-110999500D01*
X145710580Y-110999500D01*
X145640333Y-110999500D01*
X145582142Y-110980593D01*
X145546178Y-110931093D01*
X145541333Y-110900500D01*
X145541333Y-79590332D01*
X145560240Y-79532141D01*
X145570329Y-79520328D01*
X147070404Y-78020253D01*
X157755333Y-78020253D01*
X157755333Y-79759746D01*
X157755334Y-79759758D01*
X157766965Y-79818227D01*
X157766966Y-79818231D01*
X157811281Y-79884552D01*
X157877602Y-79928867D01*
X157922064Y-79937711D01*
X157936074Y-79940498D01*
X157936079Y-79940498D01*
X157936085Y-79940500D01*
X157936086Y-79940500D01*
X161475580Y-79940500D01*
X161475581Y-79940500D01*
X161534064Y-79928867D01*
X161600385Y-79884552D01*
X161644700Y-79818231D01*
X161656333Y-79759748D01*
X161656333Y-78020252D01*
X161644700Y-77961769D01*
X161600385Y-77895448D01*
X161600381Y-77895445D01*
X161534066Y-77851134D01*
X161534064Y-77851133D01*
X161534061Y-77851132D01*
X161534060Y-77851132D01*
X161475591Y-77839501D01*
X161475581Y-77839500D01*
X157936085Y-77839500D01*
X157936084Y-77839500D01*
X157936074Y-77839501D01*
X157877605Y-77851132D01*
X157877599Y-77851134D01*
X157811284Y-77895445D01*
X157811278Y-77895451D01*
X157766967Y-77961766D01*
X157766965Y-77961772D01*
X157755334Y-78020241D01*
X157755333Y-78020253D01*
X147070404Y-78020253D01*
X148340656Y-76750001D01*
X157755833Y-76750001D01*
X157755833Y-77219700D01*
X157767436Y-77278036D01*
X157811639Y-77344189D01*
X157811643Y-77344193D01*
X157877796Y-77388396D01*
X157936132Y-77399999D01*
X157936136Y-77400000D01*
X158405832Y-77400000D01*
X158405833Y-77399999D01*
X158405833Y-76750001D01*
X158405832Y-76750000D01*
X157755834Y-76750000D01*
X157755833Y-76750001D01*
X148340656Y-76750001D01*
X148807800Y-76282857D01*
X158295833Y-76282857D01*
X158295833Y-76417143D01*
X158330588Y-76546853D01*
X158397731Y-76663147D01*
X158492686Y-76758102D01*
X158608980Y-76825245D01*
X158738690Y-76860000D01*
X158872976Y-76860000D01*
X159002686Y-76825245D01*
X159118980Y-76758102D01*
X159127081Y-76750001D01*
X159205833Y-76750001D01*
X159205833Y-77399999D01*
X159205834Y-77400000D01*
X159305832Y-77400000D01*
X159305833Y-77399999D01*
X159305833Y-76750001D01*
X160105833Y-76750001D01*
X160105833Y-77399999D01*
X160105834Y-77400000D01*
X161475530Y-77400000D01*
X161475533Y-77399999D01*
X161533869Y-77388396D01*
X161600022Y-77344193D01*
X161600026Y-77344189D01*
X161644229Y-77278036D01*
X161655832Y-77219700D01*
X161655833Y-77219697D01*
X161655833Y-76750001D01*
X161655832Y-76750000D01*
X160105834Y-76750000D01*
X160105833Y-76750001D01*
X159305833Y-76750001D01*
X159305832Y-76750000D01*
X159205834Y-76750000D01*
X159205833Y-76750001D01*
X159127081Y-76750001D01*
X159213935Y-76663147D01*
X159281078Y-76546853D01*
X159315833Y-76417143D01*
X159315833Y-76282857D01*
X159281078Y-76153147D01*
X159213935Y-76036853D01*
X159118980Y-75941898D01*
X159002686Y-75874755D01*
X158872976Y-75840000D01*
X158738690Y-75840000D01*
X158608980Y-75874755D01*
X158492686Y-75941898D01*
X158397731Y-76036853D01*
X158330588Y-76153147D01*
X158295833Y-76282857D01*
X148807800Y-76282857D01*
X149610358Y-75480299D01*
X157755833Y-75480299D01*
X157755833Y-75949999D01*
X157755834Y-75950000D01*
X158405832Y-75950000D01*
X158405833Y-75949999D01*
X158405833Y-75300001D01*
X159205833Y-75300001D01*
X159205833Y-75949999D01*
X159205834Y-75950000D01*
X159305832Y-75950000D01*
X159305833Y-75949999D01*
X159305833Y-75300001D01*
X160105833Y-75300001D01*
X160105833Y-75949999D01*
X160105834Y-75950000D01*
X161655832Y-75950000D01*
X161655833Y-75949999D01*
X161655833Y-75480302D01*
X161655832Y-75480299D01*
X161644229Y-75421963D01*
X161600026Y-75355810D01*
X161600022Y-75355806D01*
X161533869Y-75311603D01*
X161475533Y-75300000D01*
X160105834Y-75300000D01*
X160105833Y-75300001D01*
X159305833Y-75300001D01*
X159305832Y-75300000D01*
X159205834Y-75300000D01*
X159205833Y-75300001D01*
X158405833Y-75300001D01*
X158405832Y-75300000D01*
X157936132Y-75300000D01*
X157877796Y-75311603D01*
X157811643Y-75355806D01*
X157811639Y-75355810D01*
X157767436Y-75421963D01*
X157755833Y-75480299D01*
X149610358Y-75480299D01*
X152150404Y-72940253D01*
X157755333Y-72940253D01*
X157755333Y-74679746D01*
X157755334Y-74679758D01*
X157766965Y-74738227D01*
X157766966Y-74738231D01*
X157811281Y-74804552D01*
X157877602Y-74848867D01*
X157922064Y-74857711D01*
X157936074Y-74860498D01*
X157936079Y-74860498D01*
X157936085Y-74860500D01*
X157936086Y-74860500D01*
X161475580Y-74860500D01*
X161475581Y-74860500D01*
X161534064Y-74848867D01*
X161600385Y-74804552D01*
X161644700Y-74738231D01*
X161656333Y-74679748D01*
X161656333Y-72940252D01*
X161644700Y-72881769D01*
X161600385Y-72815448D01*
X161600381Y-72815445D01*
X161534066Y-72771134D01*
X161534064Y-72771133D01*
X161534061Y-72771132D01*
X161534060Y-72771132D01*
X161475591Y-72759501D01*
X161475581Y-72759500D01*
X157936085Y-72759500D01*
X157936084Y-72759500D01*
X157936074Y-72759501D01*
X157877605Y-72771132D01*
X157877599Y-72771134D01*
X157811284Y-72815445D01*
X157811278Y-72815451D01*
X157766967Y-72881766D01*
X157766965Y-72881772D01*
X157755334Y-72940241D01*
X157755333Y-72940253D01*
X152150404Y-72940253D01*
X154690404Y-70400253D01*
X157755333Y-70400253D01*
X157755333Y-72139746D01*
X157755334Y-72139758D01*
X157766965Y-72198227D01*
X157766967Y-72198233D01*
X157811278Y-72264548D01*
X157811281Y-72264552D01*
X157877602Y-72308867D01*
X157922064Y-72317711D01*
X157936074Y-72320498D01*
X157936079Y-72320498D01*
X157936085Y-72320500D01*
X157936086Y-72320500D01*
X161475580Y-72320500D01*
X161475581Y-72320500D01*
X161534064Y-72308867D01*
X161600385Y-72264552D01*
X161644700Y-72198231D01*
X161656333Y-72139748D01*
X161656333Y-70400252D01*
X161644700Y-70341769D01*
X161600385Y-70275448D01*
X161600381Y-70275445D01*
X161534066Y-70231134D01*
X161534064Y-70231133D01*
X161534061Y-70231132D01*
X161534060Y-70231132D01*
X161475591Y-70219501D01*
X161475581Y-70219500D01*
X157936085Y-70219500D01*
X157936084Y-70219500D01*
X157936074Y-70219501D01*
X157877605Y-70231132D01*
X157877599Y-70231134D01*
X157811284Y-70275445D01*
X157811278Y-70275451D01*
X157766967Y-70341766D01*
X157766965Y-70341772D01*
X157755334Y-70400241D01*
X157755333Y-70400253D01*
X154690404Y-70400253D01*
X155561161Y-69529496D01*
X155615678Y-69501719D01*
X155631165Y-69500500D01*
X157656333Y-69500500D01*
X157714524Y-69519407D01*
X157750488Y-69568907D01*
X157754610Y-69594936D01*
X157754857Y-69594912D01*
X157755268Y-69599094D01*
X157755333Y-69599500D01*
X157755333Y-69599746D01*
X157755334Y-69599758D01*
X157766965Y-69658227D01*
X157766966Y-69658231D01*
X157811281Y-69724552D01*
X157877602Y-69768867D01*
X157922064Y-69777711D01*
X157936074Y-69780498D01*
X157936079Y-69780498D01*
X157936085Y-69780500D01*
X157936086Y-69780500D01*
X161475580Y-69780500D01*
X161475581Y-69780500D01*
X161534064Y-69768867D01*
X161600385Y-69724552D01*
X161644700Y-69658231D01*
X161656333Y-69599748D01*
X161656333Y-67860252D01*
X161644700Y-67801769D01*
X161600385Y-67735448D01*
X161600381Y-67735445D01*
X161534066Y-67691134D01*
X161534064Y-67691133D01*
X161534061Y-67691132D01*
X161534060Y-67691132D01*
X161475591Y-67679501D01*
X161475581Y-67679500D01*
X157936085Y-67679500D01*
X157936084Y-67679500D01*
X157936074Y-67679501D01*
X157877605Y-67691132D01*
X157877599Y-67691134D01*
X157811284Y-67735445D01*
X157811278Y-67735451D01*
X157766967Y-67801766D01*
X157766965Y-67801772D01*
X157755334Y-67860241D01*
X157755333Y-67860253D01*
X157755333Y-68000500D01*
X157736426Y-68058691D01*
X157686926Y-68094655D01*
X157656333Y-68099500D01*
X155231003Y-68099500D01*
X155095672Y-68126420D01*
X155095670Y-68126420D01*
X154968191Y-68179223D01*
X154853460Y-68255883D01*
X144296718Y-78812625D01*
X144252329Y-78879056D01*
X144252330Y-78879057D01*
X144220056Y-78927358D01*
X144167253Y-79054837D01*
X144167253Y-79054839D01*
X144140333Y-79190171D01*
X144140333Y-110900500D01*
X144121426Y-110958691D01*
X144071926Y-110994655D01*
X144041333Y-110999500D01*
X143971085Y-110999500D01*
X143971084Y-110999500D01*
X143971074Y-110999501D01*
X143912605Y-111011132D01*
X143912599Y-111011134D01*
X143846284Y-111055445D01*
X143846278Y-111055451D01*
X143801967Y-111121766D01*
X143801965Y-111121772D01*
X143790334Y-111180241D01*
X143790333Y-111180253D01*
X143790333Y-112919746D01*
X143790334Y-112919758D01*
X143801965Y-112978227D01*
X143801967Y-112978233D01*
X143835877Y-113028982D01*
X143846281Y-113044552D01*
X143912602Y-113088867D01*
X143957064Y-113097711D01*
X143971074Y-113100498D01*
X143971079Y-113100498D01*
X143971085Y-113100500D01*
X144100500Y-113100500D01*
X144158691Y-113119407D01*
X144194655Y-113168907D01*
X144199500Y-113199500D01*
X144199500Y-114180563D01*
X144180593Y-114238754D01*
X144150003Y-114266298D01*
X144140241Y-114271934D01*
X144097689Y-114304585D01*
X144004584Y-114397690D01*
X143971938Y-114440234D01*
X143906105Y-114554260D01*
X143892835Y-114586298D01*
X143885578Y-114603819D01*
X143869247Y-114664768D01*
X143851502Y-114730991D01*
X143844500Y-114784174D01*
X143844500Y-115350001D01*
X143849651Y-115395727D01*
X143863769Y-115425043D01*
X143877960Y-115454509D01*
X143886173Y-115515139D01*
X143866168Y-115559185D01*
X143864851Y-115560836D01*
X143864850Y-115560837D01*
X143844500Y-115650000D01*
X143844500Y-115725500D01*
X143825593Y-115783691D01*
X143776093Y-115819655D01*
X143745500Y-115824500D01*
X142933455Y-115824500D01*
X142875264Y-115805593D01*
X142853800Y-115784289D01*
X142850990Y-115780481D01*
X142773930Y-115676070D01*
X142666179Y-115596545D01*
X142666176Y-115596544D01*
X142666175Y-115596543D01*
X142539777Y-115552315D01*
X142539776Y-115552314D01*
X142539774Y-115552314D01*
X142539771Y-115552313D01*
X142539768Y-115552313D01*
X142509773Y-115549500D01*
X142509764Y-115549500D01*
X141490236Y-115549500D01*
X141490226Y-115549500D01*
X141460231Y-115552313D01*
X141460222Y-115552315D01*
X141333824Y-115596543D01*
X141333821Y-115596544D01*
X141333821Y-115596545D01*
X141285359Y-115632311D01*
X141226071Y-115676069D01*
X141226069Y-115676071D01*
X141146543Y-115783824D01*
X141124893Y-115845698D01*
X141087828Y-115894378D01*
X141031449Y-115912000D01*
X139311432Y-115912000D01*
X139311416Y-115911999D01*
X139305353Y-115911999D01*
X139219647Y-115911999D01*
X139219644Y-115911999D01*
X139136861Y-115934181D01*
X139113334Y-115947765D01*
X139099750Y-115955608D01*
X139076221Y-115969192D01*
X139062637Y-115977035D01*
X139002034Y-116037637D01*
X139002035Y-116037638D01*
X138169169Y-116870504D01*
X138114652Y-116898281D01*
X138099165Y-116899500D01*
X136680252Y-116899500D01*
X136680251Y-116899500D01*
X136680241Y-116899501D01*
X136621772Y-116911132D01*
X136621766Y-116911134D01*
X136555451Y-116955445D01*
X136555445Y-116955451D01*
X136511134Y-117021766D01*
X136511132Y-117021772D01*
X136499501Y-117080241D01*
X136499500Y-117080253D01*
X134718584Y-117080253D01*
X134627212Y-116934836D01*
X134438099Y-116697696D01*
X134223624Y-116483221D01*
X133986484Y-116294108D01*
X133729661Y-116132735D01*
X133729653Y-116132731D01*
X133729646Y-116132727D01*
X133456385Y-116001132D01*
X133456383Y-116001131D01*
X133170095Y-115900954D01*
X132874381Y-115833459D01*
X132572978Y-115799500D01*
X132572977Y-115799500D01*
X132269663Y-115799500D01*
X132269661Y-115799500D01*
X131968258Y-115833459D01*
X131672544Y-115900954D01*
X131386256Y-116001131D01*
X131386254Y-116001132D01*
X131112993Y-116132727D01*
X131112981Y-116132734D01*
X130856155Y-116294108D01*
X130619017Y-116483220D01*
X130404540Y-116697697D01*
X130215428Y-116934835D01*
X130160806Y-117021766D01*
X130063044Y-117177354D01*
X130054054Y-117191661D01*
X130054047Y-117191673D01*
X129922452Y-117464934D01*
X129922451Y-117464936D01*
X129822274Y-117751224D01*
X129754779Y-118046938D01*
X129720820Y-118348341D01*
X128121820Y-118348341D01*
X128121820Y-117002773D01*
X128121976Y-116997222D01*
X128124060Y-116960118D01*
X128139111Y-116692100D01*
X128140354Y-116681074D01*
X128191080Y-116382520D01*
X128193541Y-116371734D01*
X128277383Y-116080718D01*
X128281047Y-116070249D01*
X128396934Y-115790473D01*
X128401748Y-115780478D01*
X128413716Y-115758824D01*
X128548231Y-115515438D01*
X128554127Y-115506055D01*
X128729375Y-115259068D01*
X128736274Y-115250416D01*
X128938085Y-115024590D01*
X128945902Y-115016773D01*
X129171725Y-114814967D01*
X129180383Y-114808062D01*
X129427372Y-114632816D01*
X129436757Y-114626919D01*
X129701815Y-114480429D01*
X129711781Y-114475629D01*
X129991574Y-114359737D01*
X130002034Y-114356077D01*
X130293035Y-114272242D01*
X130303856Y-114269773D01*
X130602399Y-114219051D01*
X130613418Y-114217809D01*
X130769464Y-114209047D01*
X130918903Y-114200656D01*
X130924453Y-114200500D01*
X130961201Y-114200500D01*
X131880294Y-114200500D01*
X131880355Y-114200519D01*
X131921321Y-114200519D01*
X131921321Y-114200520D01*
X132089053Y-114200519D01*
X132422678Y-114165451D01*
X132750809Y-114095703D01*
X133069853Y-113992037D01*
X133376313Y-113855591D01*
X133666832Y-113687858D01*
X133938226Y-113490677D01*
X134187523Y-113266207D01*
X134411990Y-113016909D01*
X134609170Y-112745514D01*
X134731734Y-112533225D01*
X141099500Y-112533225D01*
X141099500Y-113166774D01*
X141102353Y-113197194D01*
X141102355Y-113197203D01*
X141147207Y-113325383D01*
X141227845Y-113434644D01*
X141227847Y-113434646D01*
X141227850Y-113434650D01*
X141227853Y-113434652D01*
X141227855Y-113434654D01*
X141337116Y-113515292D01*
X141337117Y-113515292D01*
X141337118Y-113515293D01*
X141351495Y-113520323D01*
X141363138Y-113524398D01*
X141411818Y-113561463D01*
X141429415Y-113620064D01*
X141409207Y-113677815D01*
X141363139Y-113711286D01*
X141333823Y-113721544D01*
X141333822Y-113721544D01*
X141333821Y-113721545D01*
X141323295Y-113729314D01*
X141226071Y-113801069D01*
X141226069Y-113801071D01*
X141146543Y-113908824D01*
X141102315Y-114035222D01*
X141102313Y-114035231D01*
X141099500Y-114065226D01*
X141099500Y-114659773D01*
X141102313Y-114689768D01*
X141102315Y-114689777D01*
X141146543Y-114816175D01*
X141146544Y-114816176D01*
X141146545Y-114816179D01*
X141226070Y-114923930D01*
X141333821Y-115003455D01*
X141460226Y-115047686D01*
X141490226Y-115050499D01*
X141490230Y-115050500D01*
X141490236Y-115050500D01*
X142509770Y-115050500D01*
X142509772Y-115050499D01*
X142539774Y-115047686D01*
X142666179Y-115003455D01*
X142773930Y-114923930D01*
X142853455Y-114816179D01*
X142897686Y-114689774D01*
X142900499Y-114659772D01*
X142900500Y-114659770D01*
X142900500Y-114065230D01*
X142900499Y-114065226D01*
X142899975Y-114059636D01*
X142897686Y-114035226D01*
X142853455Y-113908821D01*
X142773930Y-113801070D01*
X142666179Y-113721545D01*
X142666176Y-113721544D01*
X142666175Y-113721543D01*
X142636861Y-113711286D01*
X142588181Y-113674221D01*
X142570584Y-113615620D01*
X142590792Y-113557869D01*
X142636859Y-113524398D01*
X142662882Y-113515293D01*
X142772150Y-113434650D01*
X142852793Y-113325382D01*
X142897646Y-113197199D01*
X142900499Y-113166773D01*
X142900500Y-113166773D01*
X142900500Y-112533227D01*
X142900499Y-112533225D01*
X142897646Y-112502805D01*
X142897646Y-112502801D01*
X142852793Y-112374618D01*
X142839363Y-112356421D01*
X142772154Y-112265355D01*
X142772152Y-112265353D01*
X142772150Y-112265350D01*
X142772146Y-112265347D01*
X142772144Y-112265345D01*
X142662883Y-112184707D01*
X142534703Y-112139855D01*
X142534694Y-112139853D01*
X142504274Y-112137000D01*
X142504266Y-112137000D01*
X141495734Y-112137000D01*
X141495725Y-112137000D01*
X141465305Y-112139853D01*
X141465296Y-112139855D01*
X141337116Y-112184707D01*
X141227855Y-112265345D01*
X141227845Y-112265355D01*
X141147207Y-112374616D01*
X141102355Y-112502796D01*
X141102353Y-112502805D01*
X141099500Y-112533225D01*
X134731734Y-112533225D01*
X134776900Y-112454994D01*
X134913345Y-112148533D01*
X135017008Y-111829489D01*
X135086755Y-111501357D01*
X135094780Y-111425000D01*
X141121361Y-111425000D01*
X141147655Y-111500147D01*
X141228207Y-111609290D01*
X141228209Y-111609292D01*
X141337352Y-111689845D01*
X141465398Y-111734649D01*
X141495789Y-111737499D01*
X141600000Y-111737499D01*
X141600000Y-111425001D01*
X142400000Y-111425001D01*
X142400000Y-111737498D01*
X142400001Y-111737499D01*
X142504203Y-111737499D01*
X142534600Y-111734649D01*
X142534602Y-111734649D01*
X142662647Y-111689845D01*
X142771790Y-111609292D01*
X142771792Y-111609290D01*
X142852344Y-111500147D01*
X142878639Y-111425000D01*
X142400001Y-111425000D01*
X142400000Y-111425001D01*
X141600000Y-111425001D01*
X141599999Y-111425000D01*
X141121361Y-111425000D01*
X135094780Y-111425000D01*
X135121820Y-111167731D01*
X135121820Y-111000000D01*
X135121820Y-110960118D01*
X135121820Y-110625000D01*
X141121361Y-110625000D01*
X141599999Y-110625000D01*
X141600000Y-110624999D01*
X141600000Y-110312501D01*
X142400000Y-110312501D01*
X142400000Y-110624999D01*
X142400001Y-110625000D01*
X142878639Y-110625000D01*
X142852344Y-110549852D01*
X142771792Y-110440709D01*
X142771790Y-110440707D01*
X142662647Y-110360154D01*
X142534601Y-110315350D01*
X142504211Y-110312500D01*
X142400001Y-110312500D01*
X142400000Y-110312501D01*
X141600000Y-110312501D01*
X141600000Y-110312500D01*
X141495796Y-110312500D01*
X141465399Y-110315350D01*
X141465397Y-110315350D01*
X141337352Y-110360154D01*
X141228209Y-110440707D01*
X141228207Y-110440709D01*
X141147655Y-110549852D01*
X141121361Y-110625000D01*
X135121820Y-110625000D01*
X135121820Y-105960253D01*
X138175333Y-105960253D01*
X138175333Y-107699746D01*
X138175334Y-107699758D01*
X138186965Y-107758227D01*
X138186966Y-107758231D01*
X138231281Y-107824552D01*
X138297602Y-107868867D01*
X138342064Y-107877711D01*
X138356074Y-107880498D01*
X138356079Y-107880498D01*
X138356085Y-107880500D01*
X138356086Y-107880500D01*
X141895580Y-107880500D01*
X141895581Y-107880500D01*
X141954064Y-107868867D01*
X142020385Y-107824552D01*
X142064700Y-107758231D01*
X142076333Y-107699748D01*
X142076333Y-105960252D01*
X142064700Y-105901769D01*
X142020385Y-105835448D01*
X142020381Y-105835445D01*
X141954066Y-105791134D01*
X141954064Y-105791133D01*
X141954061Y-105791132D01*
X141954060Y-105791132D01*
X141895591Y-105779501D01*
X141895581Y-105779500D01*
X138356085Y-105779500D01*
X138356084Y-105779500D01*
X138356074Y-105779501D01*
X138297605Y-105791132D01*
X138297599Y-105791134D01*
X138231284Y-105835445D01*
X138231278Y-105835451D01*
X138186967Y-105901766D01*
X138186965Y-105901772D01*
X138175334Y-105960241D01*
X138175333Y-105960253D01*
X135121820Y-105960253D01*
X135121820Y-103420253D01*
X138175333Y-103420253D01*
X138175333Y-105159746D01*
X138175334Y-105159758D01*
X138186965Y-105218227D01*
X138186966Y-105218231D01*
X138231281Y-105284552D01*
X138297602Y-105328867D01*
X138342064Y-105337711D01*
X138356074Y-105340498D01*
X138356079Y-105340498D01*
X138356085Y-105340500D01*
X138356086Y-105340500D01*
X141895580Y-105340500D01*
X141895581Y-105340500D01*
X141954064Y-105328867D01*
X142020385Y-105284552D01*
X142064700Y-105218231D01*
X142076333Y-105159748D01*
X142076333Y-103420252D01*
X142064700Y-103361769D01*
X142020385Y-103295448D01*
X142020381Y-103295445D01*
X141954066Y-103251134D01*
X141954064Y-103251133D01*
X141954061Y-103251132D01*
X141954060Y-103251132D01*
X141895591Y-103239501D01*
X141895581Y-103239500D01*
X138356085Y-103239500D01*
X138356084Y-103239500D01*
X138356074Y-103239501D01*
X138297605Y-103251132D01*
X138297599Y-103251134D01*
X138231284Y-103295445D01*
X138231278Y-103295451D01*
X138186967Y-103361766D01*
X138186965Y-103361772D01*
X138175334Y-103420241D01*
X138175333Y-103420253D01*
X135121820Y-103420253D01*
X135121820Y-102150001D01*
X138175833Y-102150001D01*
X138175833Y-102619700D01*
X138187436Y-102678036D01*
X138231639Y-102744189D01*
X138231643Y-102744193D01*
X138297796Y-102788396D01*
X138356132Y-102799999D01*
X138356136Y-102800000D01*
X139725832Y-102800000D01*
X139725833Y-102799999D01*
X139725833Y-102150001D01*
X140525833Y-102150001D01*
X140525833Y-102799999D01*
X140525834Y-102800000D01*
X140625832Y-102800000D01*
X140625833Y-102799999D01*
X140625833Y-102150001D01*
X140625832Y-102150000D01*
X140525834Y-102150000D01*
X140525833Y-102150001D01*
X139725833Y-102150001D01*
X139725832Y-102150000D01*
X138175834Y-102150000D01*
X138175833Y-102150001D01*
X135121820Y-102150001D01*
X135121820Y-101682857D01*
X140515833Y-101682857D01*
X140515833Y-101817143D01*
X140550588Y-101946853D01*
X140617731Y-102063147D01*
X140712686Y-102158102D01*
X140828980Y-102225245D01*
X140958690Y-102260000D01*
X141092976Y-102260000D01*
X141222686Y-102225245D01*
X141338980Y-102158102D01*
X141347081Y-102150001D01*
X141425833Y-102150001D01*
X141425833Y-102799999D01*
X141425834Y-102800000D01*
X141895530Y-102800000D01*
X141895533Y-102799999D01*
X141953869Y-102788396D01*
X142020022Y-102744193D01*
X142020026Y-102744189D01*
X142064229Y-102678036D01*
X142075832Y-102619700D01*
X142075833Y-102619697D01*
X142075833Y-102150001D01*
X142075832Y-102150000D01*
X141425834Y-102150000D01*
X141425833Y-102150001D01*
X141347081Y-102150001D01*
X141433935Y-102063147D01*
X141501078Y-101946853D01*
X141535833Y-101817143D01*
X141535833Y-101682857D01*
X141501078Y-101553147D01*
X141433935Y-101436853D01*
X141338980Y-101341898D01*
X141222686Y-101274755D01*
X141092976Y-101240000D01*
X140958690Y-101240000D01*
X140828980Y-101274755D01*
X140712686Y-101341898D01*
X140617731Y-101436853D01*
X140550588Y-101553147D01*
X140515833Y-101682857D01*
X135121820Y-101682857D01*
X135121820Y-100880299D01*
X138175833Y-100880299D01*
X138175833Y-101349999D01*
X138175834Y-101350000D01*
X139725832Y-101350000D01*
X139725833Y-101349999D01*
X139725833Y-100700001D01*
X140525833Y-100700001D01*
X140525833Y-101349999D01*
X140525834Y-101350000D01*
X140625832Y-101350000D01*
X140625833Y-101349999D01*
X140625833Y-100700001D01*
X141425833Y-100700001D01*
X141425833Y-101349999D01*
X141425834Y-101350000D01*
X142075832Y-101350000D01*
X142075833Y-101349999D01*
X142075833Y-100880302D01*
X142075832Y-100880299D01*
X142064229Y-100821963D01*
X142020026Y-100755810D01*
X142020022Y-100755806D01*
X141953869Y-100711603D01*
X141895533Y-100700000D01*
X141425834Y-100700000D01*
X141425833Y-100700001D01*
X140625833Y-100700001D01*
X140625832Y-100700000D01*
X140525834Y-100700000D01*
X140525833Y-100700001D01*
X139725833Y-100700001D01*
X139725832Y-100700000D01*
X138356132Y-100700000D01*
X138297796Y-100711603D01*
X138231643Y-100755806D01*
X138231639Y-100755810D01*
X138187436Y-100821963D01*
X138175833Y-100880299D01*
X135121820Y-100880299D01*
X135121820Y-98340253D01*
X138175333Y-98340253D01*
X138175333Y-100079746D01*
X138175334Y-100079758D01*
X138186965Y-100138227D01*
X138186966Y-100138231D01*
X138231281Y-100204552D01*
X138297602Y-100248867D01*
X138342064Y-100257711D01*
X138356074Y-100260498D01*
X138356079Y-100260498D01*
X138356085Y-100260500D01*
X138356086Y-100260500D01*
X141895580Y-100260500D01*
X141895581Y-100260500D01*
X141954064Y-100248867D01*
X142020385Y-100204552D01*
X142064700Y-100138231D01*
X142076333Y-100079748D01*
X142076333Y-98340252D01*
X142064700Y-98281769D01*
X142020385Y-98215448D01*
X142020381Y-98215445D01*
X141954066Y-98171134D01*
X141954064Y-98171133D01*
X141954061Y-98171132D01*
X141954060Y-98171132D01*
X141895591Y-98159501D01*
X141895581Y-98159500D01*
X138356085Y-98159500D01*
X138356084Y-98159500D01*
X138356074Y-98159501D01*
X138297605Y-98171132D01*
X138297599Y-98171134D01*
X138231284Y-98215445D01*
X138231278Y-98215451D01*
X138186967Y-98281766D01*
X138186965Y-98281772D01*
X138175334Y-98340241D01*
X138175333Y-98340253D01*
X135121820Y-98340253D01*
X135121820Y-95800253D01*
X138175333Y-95800253D01*
X138175333Y-97539746D01*
X138175334Y-97539758D01*
X138186965Y-97598227D01*
X138186966Y-97598231D01*
X138231281Y-97664552D01*
X138297602Y-97708867D01*
X138342064Y-97717711D01*
X138356074Y-97720498D01*
X138356079Y-97720498D01*
X138356085Y-97720500D01*
X138356086Y-97720500D01*
X141895580Y-97720500D01*
X141895581Y-97720500D01*
X141954064Y-97708867D01*
X142020385Y-97664552D01*
X142064700Y-97598231D01*
X142076333Y-97539748D01*
X142076333Y-95800252D01*
X142064700Y-95741769D01*
X142020385Y-95675448D01*
X142020381Y-95675445D01*
X141954066Y-95631134D01*
X141954064Y-95631133D01*
X141954061Y-95631132D01*
X141954060Y-95631132D01*
X141895591Y-95619501D01*
X141895581Y-95619500D01*
X138356085Y-95619500D01*
X138356084Y-95619500D01*
X138356074Y-95619501D01*
X138297605Y-95631132D01*
X138297599Y-95631134D01*
X138231284Y-95675445D01*
X138231278Y-95675451D01*
X138186967Y-95741766D01*
X138186965Y-95741772D01*
X138175334Y-95800241D01*
X138175333Y-95800253D01*
X135121820Y-95800253D01*
X135121820Y-93260253D01*
X138175333Y-93260253D01*
X138175333Y-94999746D01*
X138175334Y-94999758D01*
X138186965Y-95058227D01*
X138186966Y-95058231D01*
X138231281Y-95124552D01*
X138297602Y-95168867D01*
X138342064Y-95177711D01*
X138356074Y-95180498D01*
X138356079Y-95180498D01*
X138356085Y-95180500D01*
X138356086Y-95180500D01*
X141895580Y-95180500D01*
X141895581Y-95180500D01*
X141954064Y-95168867D01*
X142020385Y-95124552D01*
X142064700Y-95058231D01*
X142076333Y-94999748D01*
X142076333Y-93260252D01*
X142064700Y-93201769D01*
X142020385Y-93135448D01*
X142020381Y-93135445D01*
X141954066Y-93091134D01*
X141954064Y-93091133D01*
X141954061Y-93091132D01*
X141954060Y-93091132D01*
X141895591Y-93079501D01*
X141895581Y-93079500D01*
X138356085Y-93079500D01*
X138356084Y-93079500D01*
X138356074Y-93079501D01*
X138297605Y-93091132D01*
X138297599Y-93091134D01*
X138231284Y-93135445D01*
X138231278Y-93135451D01*
X138186967Y-93201766D01*
X138186965Y-93201772D01*
X138175334Y-93260241D01*
X138175333Y-93260253D01*
X135121820Y-93260253D01*
X135121820Y-90720253D01*
X138175333Y-90720253D01*
X138175333Y-92459746D01*
X138175334Y-92459758D01*
X138186965Y-92518227D01*
X138186966Y-92518231D01*
X138231281Y-92584552D01*
X138297602Y-92628867D01*
X138342064Y-92637711D01*
X138356074Y-92640498D01*
X138356079Y-92640498D01*
X138356085Y-92640500D01*
X138356086Y-92640500D01*
X141895580Y-92640500D01*
X141895581Y-92640500D01*
X141954064Y-92628867D01*
X142020385Y-92584552D01*
X142064700Y-92518231D01*
X142076333Y-92459748D01*
X142076333Y-90720252D01*
X142064700Y-90661769D01*
X142020385Y-90595448D01*
X142020381Y-90595445D01*
X141954066Y-90551134D01*
X141954064Y-90551133D01*
X141954061Y-90551132D01*
X141954060Y-90551132D01*
X141895591Y-90539501D01*
X141895581Y-90539500D01*
X138356085Y-90539500D01*
X138356084Y-90539500D01*
X138356074Y-90539501D01*
X138297605Y-90551132D01*
X138297599Y-90551134D01*
X138231284Y-90595445D01*
X138231278Y-90595451D01*
X138186967Y-90661766D01*
X138186965Y-90661772D01*
X138175334Y-90720241D01*
X138175333Y-90720253D01*
X135121820Y-90720253D01*
X135121820Y-89450001D01*
X138175833Y-89450001D01*
X138175833Y-89919700D01*
X138187436Y-89978036D01*
X138231639Y-90044189D01*
X138231643Y-90044193D01*
X138297796Y-90088396D01*
X138356132Y-90099999D01*
X138356136Y-90100000D01*
X139725832Y-90100000D01*
X139725833Y-90099999D01*
X139725833Y-89450001D01*
X140525833Y-89450001D01*
X140525833Y-90099999D01*
X140525834Y-90100000D01*
X140625832Y-90100000D01*
X140625833Y-90099999D01*
X140625833Y-89450001D01*
X140625832Y-89450000D01*
X140525834Y-89450000D01*
X140525833Y-89450001D01*
X139725833Y-89450001D01*
X139725832Y-89450000D01*
X138175834Y-89450000D01*
X138175833Y-89450001D01*
X135121820Y-89450001D01*
X135121820Y-88982857D01*
X140515833Y-88982857D01*
X140515833Y-89117143D01*
X140550588Y-89246853D01*
X140617731Y-89363147D01*
X140712686Y-89458102D01*
X140828980Y-89525245D01*
X140958690Y-89560000D01*
X141092976Y-89560000D01*
X141222686Y-89525245D01*
X141338980Y-89458102D01*
X141347081Y-89450001D01*
X141425833Y-89450001D01*
X141425833Y-90099999D01*
X141425834Y-90100000D01*
X141895530Y-90100000D01*
X141895533Y-90099999D01*
X141953869Y-90088396D01*
X142020022Y-90044193D01*
X142020026Y-90044189D01*
X142064229Y-89978036D01*
X142075832Y-89919700D01*
X142075833Y-89919697D01*
X142075833Y-89450001D01*
X142075832Y-89450000D01*
X141425834Y-89450000D01*
X141425833Y-89450001D01*
X141347081Y-89450001D01*
X141433935Y-89363147D01*
X141501078Y-89246853D01*
X141535833Y-89117143D01*
X141535833Y-88982857D01*
X141501078Y-88853147D01*
X141433935Y-88736853D01*
X141338980Y-88641898D01*
X141222686Y-88574755D01*
X141092976Y-88540000D01*
X140958690Y-88540000D01*
X140828980Y-88574755D01*
X140712686Y-88641898D01*
X140617731Y-88736853D01*
X140550588Y-88853147D01*
X140515833Y-88982857D01*
X135121820Y-88982857D01*
X135121820Y-88180299D01*
X138175833Y-88180299D01*
X138175833Y-88649999D01*
X138175834Y-88650000D01*
X139725832Y-88650000D01*
X139725833Y-88649999D01*
X139725833Y-88000001D01*
X140525833Y-88000001D01*
X140525833Y-88649999D01*
X140525834Y-88650000D01*
X140625832Y-88650000D01*
X140625833Y-88649999D01*
X140625833Y-88000001D01*
X141425833Y-88000001D01*
X141425833Y-88649999D01*
X141425834Y-88650000D01*
X142075832Y-88650000D01*
X142075833Y-88649999D01*
X142075833Y-88180302D01*
X142075832Y-88180299D01*
X142064229Y-88121963D01*
X142020026Y-88055810D01*
X142020022Y-88055806D01*
X141953869Y-88011603D01*
X141895533Y-88000000D01*
X141425834Y-88000000D01*
X141425833Y-88000001D01*
X140625833Y-88000001D01*
X140625832Y-88000000D01*
X140525834Y-88000000D01*
X140525833Y-88000001D01*
X139725833Y-88000001D01*
X139725832Y-88000000D01*
X138356132Y-88000000D01*
X138297796Y-88011603D01*
X138231643Y-88055806D01*
X138231639Y-88055810D01*
X138187436Y-88121963D01*
X138175833Y-88180299D01*
X135121820Y-88180299D01*
X135121820Y-85640253D01*
X138175333Y-85640253D01*
X138175333Y-87379746D01*
X138175334Y-87379758D01*
X138186965Y-87438227D01*
X138186966Y-87438231D01*
X138231281Y-87504552D01*
X138297602Y-87548867D01*
X138342064Y-87557711D01*
X138356074Y-87560498D01*
X138356079Y-87560498D01*
X138356085Y-87560500D01*
X138356086Y-87560500D01*
X141895580Y-87560500D01*
X141895581Y-87560500D01*
X141954064Y-87548867D01*
X142020385Y-87504552D01*
X142064700Y-87438231D01*
X142076333Y-87379748D01*
X142076333Y-85640252D01*
X142064700Y-85581769D01*
X142020385Y-85515448D01*
X142020381Y-85515445D01*
X141954066Y-85471134D01*
X141954064Y-85471133D01*
X141954061Y-85471132D01*
X141954060Y-85471132D01*
X141895591Y-85459501D01*
X141895581Y-85459500D01*
X138356085Y-85459500D01*
X138356084Y-85459500D01*
X138356074Y-85459501D01*
X138297605Y-85471132D01*
X138297599Y-85471134D01*
X138231284Y-85515445D01*
X138231278Y-85515451D01*
X138186967Y-85581766D01*
X138186965Y-85581772D01*
X138175334Y-85640241D01*
X138175333Y-85640253D01*
X135121820Y-85640253D01*
X135121820Y-83100253D01*
X138175333Y-83100253D01*
X138175333Y-84839746D01*
X138175334Y-84839758D01*
X138186965Y-84898227D01*
X138186966Y-84898231D01*
X138231281Y-84964552D01*
X138297602Y-85008867D01*
X138342064Y-85017711D01*
X138356074Y-85020498D01*
X138356079Y-85020498D01*
X138356085Y-85020500D01*
X138356086Y-85020500D01*
X141895580Y-85020500D01*
X141895581Y-85020500D01*
X141954064Y-85008867D01*
X142020385Y-84964552D01*
X142064700Y-84898231D01*
X142076333Y-84839748D01*
X142076333Y-83100252D01*
X142064700Y-83041769D01*
X142020385Y-82975448D01*
X141973849Y-82944353D01*
X141954066Y-82931134D01*
X141954064Y-82931133D01*
X141954061Y-82931132D01*
X141954060Y-82931132D01*
X141895591Y-82919501D01*
X141895581Y-82919500D01*
X138356085Y-82919500D01*
X138356084Y-82919500D01*
X138356074Y-82919501D01*
X138297605Y-82931132D01*
X138297599Y-82931134D01*
X138231284Y-82975445D01*
X138231278Y-82975451D01*
X138186967Y-83041766D01*
X138186965Y-83041772D01*
X138175334Y-83100241D01*
X138175333Y-83100253D01*
X135121820Y-83100253D01*
X135121820Y-80560253D01*
X138175333Y-80560253D01*
X138175333Y-82299746D01*
X138175334Y-82299758D01*
X138186965Y-82358227D01*
X138186967Y-82358233D01*
X138201859Y-82380520D01*
X138231281Y-82424552D01*
X138297602Y-82468867D01*
X138342064Y-82477711D01*
X138356074Y-82480498D01*
X138356079Y-82480498D01*
X138356085Y-82480500D01*
X138356086Y-82480500D01*
X141895580Y-82480500D01*
X141895581Y-82480500D01*
X141954064Y-82468867D01*
X142020385Y-82424552D01*
X142064700Y-82358231D01*
X142076333Y-82299748D01*
X142076333Y-80560252D01*
X142064700Y-80501769D01*
X142020385Y-80435448D01*
X142020381Y-80435445D01*
X141954066Y-80391134D01*
X141954064Y-80391133D01*
X141954061Y-80391132D01*
X141954060Y-80391132D01*
X141895591Y-80379501D01*
X141895581Y-80379500D01*
X138356085Y-80379500D01*
X138356084Y-80379500D01*
X138356074Y-80379501D01*
X138297605Y-80391132D01*
X138297599Y-80391134D01*
X138231284Y-80435445D01*
X138231278Y-80435451D01*
X138186967Y-80501766D01*
X138186965Y-80501772D01*
X138175334Y-80560241D01*
X138175333Y-80560253D01*
X135121820Y-80560253D01*
X135121820Y-78020253D01*
X138175333Y-78020253D01*
X138175333Y-79759746D01*
X138175334Y-79759758D01*
X138186965Y-79818227D01*
X138186966Y-79818231D01*
X138231281Y-79884552D01*
X138297602Y-79928867D01*
X138342064Y-79937711D01*
X138356074Y-79940498D01*
X138356079Y-79940498D01*
X138356085Y-79940500D01*
X138356086Y-79940500D01*
X141895580Y-79940500D01*
X141895581Y-79940500D01*
X141954064Y-79928867D01*
X142020385Y-79884552D01*
X142064700Y-79818231D01*
X142076333Y-79759748D01*
X142076333Y-78020252D01*
X142064700Y-77961769D01*
X142020385Y-77895448D01*
X142020381Y-77895445D01*
X141954066Y-77851134D01*
X141954064Y-77851133D01*
X141954061Y-77851132D01*
X141954060Y-77851132D01*
X141895591Y-77839501D01*
X141895581Y-77839500D01*
X138356085Y-77839500D01*
X138356084Y-77839500D01*
X138356074Y-77839501D01*
X138297605Y-77851132D01*
X138297599Y-77851134D01*
X138231284Y-77895445D01*
X138231278Y-77895451D01*
X138186967Y-77961766D01*
X138186965Y-77961772D01*
X138175334Y-78020241D01*
X138175333Y-78020253D01*
X135121820Y-78020253D01*
X135121820Y-76750001D01*
X138175833Y-76750001D01*
X138175833Y-77219700D01*
X138187436Y-77278036D01*
X138231639Y-77344189D01*
X138231643Y-77344193D01*
X138297796Y-77388396D01*
X138356132Y-77399999D01*
X138356136Y-77400000D01*
X139725832Y-77400000D01*
X139725833Y-77399999D01*
X139725833Y-76750001D01*
X140525833Y-76750001D01*
X140525833Y-77399999D01*
X140525834Y-77400000D01*
X140625832Y-77400000D01*
X140625833Y-77399999D01*
X140625833Y-76750001D01*
X140625832Y-76750000D01*
X140525834Y-76750000D01*
X140525833Y-76750001D01*
X139725833Y-76750001D01*
X139725832Y-76750000D01*
X138175834Y-76750000D01*
X138175833Y-76750001D01*
X135121820Y-76750001D01*
X135121820Y-76282857D01*
X140515833Y-76282857D01*
X140515833Y-76417143D01*
X140550588Y-76546853D01*
X140617731Y-76663147D01*
X140712686Y-76758102D01*
X140828980Y-76825245D01*
X140958690Y-76860000D01*
X141092976Y-76860000D01*
X141222686Y-76825245D01*
X141338980Y-76758102D01*
X141347081Y-76750001D01*
X141425833Y-76750001D01*
X141425833Y-77399999D01*
X141425834Y-77400000D01*
X141895530Y-77400000D01*
X141895533Y-77399999D01*
X141953869Y-77388396D01*
X142020022Y-77344193D01*
X142020026Y-77344189D01*
X142064229Y-77278036D01*
X142075832Y-77219700D01*
X142075833Y-77219697D01*
X142075833Y-76750001D01*
X142075832Y-76750000D01*
X141425834Y-76750000D01*
X141425833Y-76750001D01*
X141347081Y-76750001D01*
X141433935Y-76663147D01*
X141501078Y-76546853D01*
X141535833Y-76417143D01*
X141535833Y-76282857D01*
X141501078Y-76153147D01*
X141433935Y-76036853D01*
X141338980Y-75941898D01*
X141222686Y-75874755D01*
X141092976Y-75840000D01*
X140958690Y-75840000D01*
X140828980Y-75874755D01*
X140712686Y-75941898D01*
X140617731Y-76036853D01*
X140550588Y-76153147D01*
X140515833Y-76282857D01*
X135121820Y-76282857D01*
X135121820Y-75480299D01*
X138175833Y-75480299D01*
X138175833Y-75949999D01*
X138175834Y-75950000D01*
X139725832Y-75950000D01*
X139725833Y-75949999D01*
X139725833Y-75300001D01*
X140525833Y-75300001D01*
X140525833Y-75949999D01*
X140525834Y-75950000D01*
X140625832Y-75950000D01*
X140625833Y-75949999D01*
X140625833Y-75300001D01*
X141425833Y-75300001D01*
X141425833Y-75949999D01*
X141425834Y-75950000D01*
X142075832Y-75950000D01*
X142075833Y-75949999D01*
X142075833Y-75480302D01*
X142075832Y-75480299D01*
X142064229Y-75421963D01*
X142020026Y-75355810D01*
X142020022Y-75355806D01*
X141953869Y-75311603D01*
X141895533Y-75300000D01*
X141425834Y-75300000D01*
X141425833Y-75300001D01*
X140625833Y-75300001D01*
X140625832Y-75300000D01*
X140525834Y-75300000D01*
X140525833Y-75300001D01*
X139725833Y-75300001D01*
X139725832Y-75300000D01*
X138356132Y-75300000D01*
X138297796Y-75311603D01*
X138231643Y-75355806D01*
X138231639Y-75355810D01*
X138187436Y-75421963D01*
X138175833Y-75480299D01*
X135121820Y-75480299D01*
X135121820Y-72940253D01*
X138175333Y-72940253D01*
X138175333Y-74679746D01*
X138175334Y-74679758D01*
X138186965Y-74738227D01*
X138186966Y-74738231D01*
X138231281Y-74804552D01*
X138297602Y-74848867D01*
X138342064Y-74857711D01*
X138356074Y-74860498D01*
X138356079Y-74860498D01*
X138356085Y-74860500D01*
X138356086Y-74860500D01*
X141895580Y-74860500D01*
X141895581Y-74860500D01*
X141954064Y-74848867D01*
X142020385Y-74804552D01*
X142064700Y-74738231D01*
X142076333Y-74679748D01*
X142076333Y-72940252D01*
X142064700Y-72881769D01*
X142020385Y-72815448D01*
X142020381Y-72815445D01*
X141954066Y-72771134D01*
X141954064Y-72771133D01*
X141954061Y-72771132D01*
X141954060Y-72771132D01*
X141895591Y-72759501D01*
X141895581Y-72759500D01*
X138356085Y-72759500D01*
X138356084Y-72759500D01*
X138356074Y-72759501D01*
X138297605Y-72771132D01*
X138297599Y-72771134D01*
X138231284Y-72815445D01*
X138231278Y-72815451D01*
X138186967Y-72881766D01*
X138186965Y-72881772D01*
X138175334Y-72940241D01*
X138175333Y-72940253D01*
X135121820Y-72940253D01*
X135121820Y-67960118D01*
X135121820Y-67950600D01*
X135121800Y-67950395D01*
X135121800Y-67832272D01*
X135121800Y-67832269D01*
X135086735Y-67498647D01*
X135016989Y-67170516D01*
X134913326Y-66851474D01*
X134883884Y-66785346D01*
X134776885Y-66545019D01*
X134776884Y-66545017D01*
X134757003Y-66510582D01*
X134609153Y-66254497D01*
X134411975Y-65983103D01*
X134187508Y-65733807D01*
X134187496Y-65733796D01*
X133938215Y-65509340D01*
X133938212Y-65509338D01*
X133781504Y-65395481D01*
X133781503Y-65395481D01*
X133781502Y-65395480D01*
X133677963Y-65320253D01*
X138175333Y-65320253D01*
X138175333Y-67059746D01*
X138175334Y-67059758D01*
X138186965Y-67118227D01*
X138186967Y-67118233D01*
X138231278Y-67184548D01*
X138231281Y-67184552D01*
X138297602Y-67228867D01*
X138342064Y-67237711D01*
X138356074Y-67240498D01*
X138356079Y-67240498D01*
X138356085Y-67240500D01*
X140922368Y-67240500D01*
X141129298Y-67240500D01*
X141433100Y-67240500D01*
X141491291Y-67259407D01*
X141503103Y-67269496D01*
X141744104Y-67510496D01*
X141771882Y-67565013D01*
X141762311Y-67625445D01*
X141719046Y-67668710D01*
X141674101Y-67679500D01*
X138356085Y-67679500D01*
X138356084Y-67679500D01*
X138356074Y-67679501D01*
X138297605Y-67691132D01*
X138297599Y-67691134D01*
X138231284Y-67735445D01*
X138231278Y-67735451D01*
X138186967Y-67801766D01*
X138186965Y-67801772D01*
X138175334Y-67860241D01*
X138175333Y-67860253D01*
X138175333Y-69599746D01*
X138175334Y-69599758D01*
X138186965Y-69658227D01*
X138186966Y-69658231D01*
X138231281Y-69724552D01*
X138297602Y-69768867D01*
X138342064Y-69777711D01*
X138356074Y-69780498D01*
X138356079Y-69780498D01*
X138356085Y-69780500D01*
X138356086Y-69780500D01*
X141895580Y-69780500D01*
X141895581Y-69780500D01*
X141954064Y-69768867D01*
X142020385Y-69724552D01*
X142064700Y-69658231D01*
X142076333Y-69599748D01*
X142076333Y-69229500D01*
X142081178Y-69214588D01*
X142081178Y-69198907D01*
X142090394Y-69186221D01*
X142095240Y-69171309D01*
X142107925Y-69162092D01*
X142117142Y-69149407D01*
X142132054Y-69144561D01*
X142144740Y-69135345D01*
X142175333Y-69130500D01*
X142323099Y-69130500D01*
X142381290Y-69149407D01*
X142393103Y-69159496D01*
X143970504Y-70736897D01*
X143998281Y-70791414D01*
X143999500Y-70806901D01*
X143999500Y-72095746D01*
X143980593Y-72153937D01*
X143931093Y-72189901D01*
X143869907Y-72189901D01*
X143825339Y-72158403D01*
X143825068Y-72158675D01*
X143823485Y-72157092D01*
X143821958Y-72156013D01*
X143820480Y-72154087D01*
X143745913Y-72079519D01*
X143745913Y-72079520D01*
X143195913Y-71529520D01*
X142615913Y-70949520D01*
X142615910Y-70949518D01*
X142615909Y-70949517D01*
X142615908Y-70949516D01*
X142524591Y-70896794D01*
X142524593Y-70896794D01*
X142485070Y-70886204D01*
X142422727Y-70869500D01*
X142422725Y-70869500D01*
X142175333Y-70869500D01*
X142117142Y-70850593D01*
X142081178Y-70801093D01*
X142076333Y-70770500D01*
X142076333Y-70400253D01*
X142076331Y-70400241D01*
X142073544Y-70386231D01*
X142064700Y-70341769D01*
X142020385Y-70275448D01*
X142020381Y-70275445D01*
X141954066Y-70231134D01*
X141954064Y-70231133D01*
X141954061Y-70231132D01*
X141954060Y-70231132D01*
X141895591Y-70219501D01*
X141895581Y-70219500D01*
X138356085Y-70219500D01*
X138356084Y-70219500D01*
X138356074Y-70219501D01*
X138297605Y-70231132D01*
X138297599Y-70231134D01*
X138231284Y-70275445D01*
X138231278Y-70275451D01*
X138186967Y-70341766D01*
X138186965Y-70341772D01*
X138175334Y-70400241D01*
X138175333Y-70400253D01*
X138175333Y-72139746D01*
X138175334Y-72139758D01*
X138186965Y-72198227D01*
X138186967Y-72198233D01*
X138231278Y-72264548D01*
X138231281Y-72264552D01*
X138297602Y-72308867D01*
X138342064Y-72317711D01*
X138356074Y-72320498D01*
X138356079Y-72320498D01*
X138356085Y-72320500D01*
X138356086Y-72320500D01*
X141895580Y-72320500D01*
X141895581Y-72320500D01*
X141954064Y-72308867D01*
X142020385Y-72264552D01*
X142064700Y-72198231D01*
X142076333Y-72139748D01*
X142076333Y-71781734D01*
X142095240Y-71723543D01*
X142144740Y-71687579D01*
X142205926Y-71687579D01*
X142245337Y-71711730D01*
X143070504Y-72536897D01*
X143098281Y-72591414D01*
X143099500Y-72606901D01*
X143099500Y-75810256D01*
X143080593Y-75868447D01*
X143070504Y-75880259D01*
X143019482Y-75931281D01*
X143019480Y-75931283D01*
X143019480Y-75931284D01*
X142940423Y-76068216D01*
X142899500Y-76220943D01*
X142899500Y-76379057D01*
X142940423Y-76531784D01*
X143019480Y-76668716D01*
X143131284Y-76780520D01*
X143268216Y-76859577D01*
X143420943Y-76900500D01*
X143420945Y-76900500D01*
X143579055Y-76900500D01*
X143579057Y-76900500D01*
X143685692Y-76871927D01*
X143746791Y-76875129D01*
X143794341Y-76913635D01*
X143810177Y-76972735D01*
X143806940Y-76993176D01*
X143799500Y-77020943D01*
X143799500Y-77179057D01*
X143840423Y-77331784D01*
X143919480Y-77468716D01*
X144031284Y-77580520D01*
X144168216Y-77659577D01*
X144320943Y-77700500D01*
X144320945Y-77700500D01*
X144479055Y-77700500D01*
X144479057Y-77700500D01*
X144631784Y-77659577D01*
X144768716Y-77580520D01*
X144880520Y-77468716D01*
X144959577Y-77331784D01*
X145000500Y-77179057D01*
X145000500Y-77020943D01*
X144959577Y-76868216D01*
X144954589Y-76859577D01*
X144934996Y-76825640D01*
X144922274Y-76765792D01*
X144947161Y-76709896D01*
X145000149Y-76679303D01*
X145046353Y-76680513D01*
X145120943Y-76700500D01*
X145120944Y-76700500D01*
X145279055Y-76700500D01*
X145279057Y-76700500D01*
X145431784Y-76659577D01*
X145568716Y-76580520D01*
X145680520Y-76468716D01*
X145759577Y-76331784D01*
X145800500Y-76179057D01*
X145800500Y-76020943D01*
X145759577Y-75868216D01*
X145680520Y-75731284D01*
X145680517Y-75731281D01*
X145629496Y-75680259D01*
X145601719Y-75625742D01*
X145600500Y-75610256D01*
X145600500Y-70460714D01*
X145600501Y-70460701D01*
X145600501Y-70347272D01*
X145600500Y-70347270D01*
X145573207Y-70245413D01*
X145564962Y-70231132D01*
X145546699Y-70199500D01*
X145520480Y-70154087D01*
X145445913Y-70079520D01*
X145445910Y-70079518D01*
X142105329Y-66738936D01*
X142077552Y-66684419D01*
X142076333Y-66668932D01*
X142076333Y-65320253D01*
X157755333Y-65320253D01*
X157755333Y-67059746D01*
X157755334Y-67059758D01*
X157766965Y-67118227D01*
X157766967Y-67118233D01*
X157811278Y-67184548D01*
X157811281Y-67184552D01*
X157877602Y-67228867D01*
X157922064Y-67237711D01*
X157936074Y-67240498D01*
X157936079Y-67240498D01*
X157936085Y-67240500D01*
X157936086Y-67240500D01*
X161475580Y-67240500D01*
X161475581Y-67240500D01*
X161534064Y-67228867D01*
X161600385Y-67184552D01*
X161644700Y-67118231D01*
X161656333Y-67059748D01*
X161656333Y-65320252D01*
X161644700Y-65261769D01*
X161600385Y-65195448D01*
X161600381Y-65195445D01*
X161534066Y-65151134D01*
X161534064Y-65151133D01*
X161534061Y-65151132D01*
X161534060Y-65151132D01*
X161475591Y-65139501D01*
X161475581Y-65139500D01*
X157936085Y-65139500D01*
X157936084Y-65139500D01*
X157936074Y-65139501D01*
X157877605Y-65151132D01*
X157877599Y-65151134D01*
X157811284Y-65195445D01*
X157811278Y-65195451D01*
X157766967Y-65261766D01*
X157766965Y-65261772D01*
X157755334Y-65320241D01*
X157755333Y-65320253D01*
X142076333Y-65320253D01*
X142076331Y-65320241D01*
X142066475Y-65270693D01*
X142064700Y-65261769D01*
X142020385Y-65195448D01*
X142020381Y-65195445D01*
X141954066Y-65151134D01*
X141954064Y-65151133D01*
X141954061Y-65151132D01*
X141954060Y-65151132D01*
X141895591Y-65139501D01*
X141895581Y-65139500D01*
X138356085Y-65139500D01*
X138356084Y-65139500D01*
X138356074Y-65139501D01*
X138297605Y-65151132D01*
X138297599Y-65151134D01*
X138231284Y-65195445D01*
X138231278Y-65195451D01*
X138186967Y-65261766D01*
X138186965Y-65261772D01*
X138175334Y-65320241D01*
X138175333Y-65320253D01*
X133677963Y-65320253D01*
X133666821Y-65312158D01*
X133666816Y-65312155D01*
X133376313Y-65144432D01*
X133376307Y-65144429D01*
X133376304Y-65144427D01*
X133221855Y-65075660D01*
X133069847Y-65007981D01*
X133069835Y-65007977D01*
X132750812Y-64904318D01*
X132750807Y-64904317D01*
X132632137Y-64879092D01*
X132422675Y-64834569D01*
X132313496Y-64823092D01*
X132089053Y-64799501D01*
X132089050Y-64799500D01*
X131961202Y-64799500D01*
X130924091Y-64799500D01*
X130918541Y-64799344D01*
X130894953Y-64798019D01*
X130613422Y-64782210D01*
X130602390Y-64780967D01*
X130303852Y-64730245D01*
X130293029Y-64727775D01*
X130002038Y-64643944D01*
X129991559Y-64640277D01*
X129711808Y-64524403D01*
X129711787Y-64524394D01*
X129701792Y-64519581D01*
X129588549Y-64456994D01*
X129436754Y-64373101D01*
X129427354Y-64367195D01*
X129180383Y-64191961D01*
X129171703Y-64185039D01*
X129057310Y-64082812D01*
X129020594Y-64050001D01*
X138175833Y-64050001D01*
X138175833Y-64519700D01*
X138187436Y-64578036D01*
X138231639Y-64644189D01*
X138231643Y-64644193D01*
X138297796Y-64688396D01*
X138356132Y-64699999D01*
X138356136Y-64700000D01*
X139725832Y-64700000D01*
X139725833Y-64699999D01*
X139725833Y-64050001D01*
X140525833Y-64050001D01*
X140525833Y-64699999D01*
X140525834Y-64700000D01*
X140625832Y-64700000D01*
X140625833Y-64699999D01*
X140625833Y-64050001D01*
X140625832Y-64050000D01*
X140525834Y-64050000D01*
X140525833Y-64050001D01*
X139725833Y-64050001D01*
X139725832Y-64050000D01*
X138175834Y-64050000D01*
X138175833Y-64050001D01*
X129020594Y-64050001D01*
X128945901Y-63983252D01*
X128938063Y-63975414D01*
X128736266Y-63749604D01*
X128729353Y-63740935D01*
X128617190Y-63582857D01*
X140515833Y-63582857D01*
X140515833Y-63717143D01*
X140550588Y-63846853D01*
X140617731Y-63963147D01*
X140712686Y-64058102D01*
X140828980Y-64125245D01*
X140958690Y-64160000D01*
X141092976Y-64160000D01*
X141222686Y-64125245D01*
X141338980Y-64058102D01*
X141347081Y-64050001D01*
X141425833Y-64050001D01*
X141425833Y-64699999D01*
X141425834Y-64700000D01*
X141895530Y-64700000D01*
X141895533Y-64699999D01*
X141953869Y-64688396D01*
X142020022Y-64644193D01*
X142020026Y-64644189D01*
X142064229Y-64578036D01*
X142075832Y-64519700D01*
X142075833Y-64519697D01*
X142075833Y-64050001D01*
X157755833Y-64050001D01*
X157755833Y-64519700D01*
X157767436Y-64578036D01*
X157811639Y-64644189D01*
X157811643Y-64644193D01*
X157877796Y-64688396D01*
X157936132Y-64699999D01*
X157936136Y-64700000D01*
X158405832Y-64700000D01*
X158405833Y-64699999D01*
X158405833Y-64050001D01*
X158405832Y-64050000D01*
X157755834Y-64050000D01*
X157755833Y-64050001D01*
X142075833Y-64050001D01*
X142075832Y-64050000D01*
X141425834Y-64050000D01*
X141425833Y-64050001D01*
X141347081Y-64050001D01*
X141433935Y-63963147D01*
X141501078Y-63846853D01*
X141535833Y-63717143D01*
X141535833Y-63582857D01*
X158295833Y-63582857D01*
X158295833Y-63717143D01*
X158330588Y-63846853D01*
X158397731Y-63963147D01*
X158492686Y-64058102D01*
X158608980Y-64125245D01*
X158738690Y-64160000D01*
X158872976Y-64160000D01*
X159002686Y-64125245D01*
X159118980Y-64058102D01*
X159127081Y-64050001D01*
X159205833Y-64050001D01*
X159205833Y-64699999D01*
X159205834Y-64700000D01*
X159305832Y-64700000D01*
X159305833Y-64699999D01*
X159305833Y-64050001D01*
X160105833Y-64050001D01*
X160105833Y-64699999D01*
X160105834Y-64700000D01*
X161475530Y-64700000D01*
X161475533Y-64699999D01*
X161533869Y-64688396D01*
X161600022Y-64644193D01*
X161600026Y-64644189D01*
X161644229Y-64578036D01*
X161655832Y-64519700D01*
X161655833Y-64519697D01*
X161655833Y-64050001D01*
X161655832Y-64050000D01*
X160105834Y-64050000D01*
X160105833Y-64050001D01*
X159305833Y-64050001D01*
X159305832Y-64050000D01*
X159205834Y-64050000D01*
X159205833Y-64050001D01*
X159127081Y-64050001D01*
X159213935Y-63963147D01*
X159281078Y-63846853D01*
X159315833Y-63717143D01*
X159315833Y-63582857D01*
X159281078Y-63453147D01*
X159213935Y-63336853D01*
X159118980Y-63241898D01*
X159002686Y-63174755D01*
X158872976Y-63140000D01*
X158738690Y-63140000D01*
X158608980Y-63174755D01*
X158492686Y-63241898D01*
X158397731Y-63336853D01*
X158330588Y-63453147D01*
X158295833Y-63582857D01*
X141535833Y-63582857D01*
X141501078Y-63453147D01*
X141433935Y-63336853D01*
X141338980Y-63241898D01*
X141222686Y-63174755D01*
X141092976Y-63140000D01*
X140958690Y-63140000D01*
X140828980Y-63174755D01*
X140712686Y-63241898D01*
X140617731Y-63336853D01*
X140550588Y-63453147D01*
X140515833Y-63582857D01*
X128617190Y-63582857D01*
X128554116Y-63493963D01*
X128548209Y-63484562D01*
X128530846Y-63453147D01*
X128401730Y-63219529D01*
X128396913Y-63209527D01*
X128281028Y-62929758D01*
X128277361Y-62919279D01*
X128193523Y-62628273D01*
X128191060Y-62617479D01*
X128140333Y-62318924D01*
X128139091Y-62307894D01*
X128131921Y-62180229D01*
X128121976Y-62003133D01*
X128121820Y-61997582D01*
X128121820Y-60348341D01*
X129720820Y-60348341D01*
X129720820Y-60651658D01*
X129754779Y-60953061D01*
X129822274Y-61248775D01*
X129922451Y-61535063D01*
X129922452Y-61535065D01*
X130054047Y-61808326D01*
X130054051Y-61808333D01*
X130054055Y-61808341D01*
X130215428Y-62065164D01*
X130404541Y-62302304D01*
X130619016Y-62516779D01*
X130856156Y-62705892D01*
X131112979Y-62867265D01*
X131112990Y-62867270D01*
X131112993Y-62867272D01*
X131203782Y-62910993D01*
X131386255Y-62998868D01*
X131519900Y-63045632D01*
X131672544Y-63099045D01*
X131672547Y-63099045D01*
X131672548Y-63099046D01*
X131968257Y-63166540D01*
X132269663Y-63200500D01*
X132269664Y-63200500D01*
X132572976Y-63200500D01*
X132572977Y-63200500D01*
X132874383Y-63166540D01*
X133170092Y-63099046D01*
X133456385Y-62998868D01*
X133729661Y-62867265D01*
X133868066Y-62780299D01*
X138175833Y-62780299D01*
X138175833Y-63249999D01*
X138175834Y-63250000D01*
X139725832Y-63250000D01*
X139725833Y-63249999D01*
X139725833Y-62600001D01*
X140525833Y-62600001D01*
X140525833Y-63249999D01*
X140525834Y-63250000D01*
X140625832Y-63250000D01*
X140625833Y-63249999D01*
X140625833Y-62600001D01*
X141425833Y-62600001D01*
X141425833Y-63249999D01*
X141425834Y-63250000D01*
X142075832Y-63250000D01*
X142075833Y-63249999D01*
X142075833Y-62780302D01*
X142075832Y-62780299D01*
X157755833Y-62780299D01*
X157755833Y-63249999D01*
X157755834Y-63250000D01*
X158405832Y-63250000D01*
X158405833Y-63249999D01*
X158405833Y-62600001D01*
X159205833Y-62600001D01*
X159205833Y-63249999D01*
X159205834Y-63250000D01*
X159305832Y-63250000D01*
X159305833Y-63249999D01*
X159305833Y-62600001D01*
X160105833Y-62600001D01*
X160105833Y-63249999D01*
X160105834Y-63250000D01*
X161655832Y-63250000D01*
X161655833Y-63249999D01*
X161655833Y-62780302D01*
X161655832Y-62780299D01*
X161644229Y-62721963D01*
X161600026Y-62655810D01*
X161600022Y-62655806D01*
X161533869Y-62611603D01*
X161475533Y-62600000D01*
X160105834Y-62600000D01*
X160105833Y-62600001D01*
X159305833Y-62600001D01*
X159305832Y-62600000D01*
X159205834Y-62600000D01*
X159205833Y-62600001D01*
X158405833Y-62600001D01*
X158405832Y-62600000D01*
X157936132Y-62600000D01*
X157877796Y-62611603D01*
X157811643Y-62655806D01*
X157811639Y-62655810D01*
X157767436Y-62721963D01*
X157755833Y-62780299D01*
X142075832Y-62780299D01*
X142064229Y-62721963D01*
X142020026Y-62655810D01*
X142020022Y-62655806D01*
X141953869Y-62611603D01*
X141895533Y-62600000D01*
X141425834Y-62600000D01*
X141425833Y-62600001D01*
X140625833Y-62600001D01*
X140625832Y-62600000D01*
X140525834Y-62600000D01*
X140525833Y-62600001D01*
X139725833Y-62600001D01*
X139725832Y-62600000D01*
X138356132Y-62600000D01*
X138297796Y-62611603D01*
X138231643Y-62655806D01*
X138231639Y-62655810D01*
X138187436Y-62721963D01*
X138175833Y-62780299D01*
X133868066Y-62780299D01*
X133986484Y-62705892D01*
X134223624Y-62516779D01*
X134438099Y-62302304D01*
X134627212Y-62065164D01*
X134788585Y-61808341D01*
X134920188Y-61535065D01*
X135020366Y-61248772D01*
X135087860Y-60953063D01*
X135121820Y-60651657D01*
X135121820Y-60348343D01*
X135109641Y-60240253D01*
X138175333Y-60240253D01*
X138175333Y-61979746D01*
X138175334Y-61979758D01*
X138186965Y-62038227D01*
X138186966Y-62038231D01*
X138231281Y-62104552D01*
X138297602Y-62148867D01*
X138342064Y-62157711D01*
X138356074Y-62160498D01*
X138356079Y-62160498D01*
X138356085Y-62160500D01*
X138356086Y-62160500D01*
X141895580Y-62160500D01*
X141895581Y-62160500D01*
X141954064Y-62148867D01*
X142020385Y-62104552D01*
X142064700Y-62038231D01*
X142076333Y-61979748D01*
X142076333Y-61636381D01*
X146540333Y-61636381D01*
X146540333Y-61823618D01*
X146576859Y-62007249D01*
X146648510Y-62180229D01*
X146648514Y-62180238D01*
X146722898Y-62291559D01*
X146752531Y-62335908D01*
X146884925Y-62468302D01*
X146934397Y-62501358D01*
X147040594Y-62572318D01*
X147040600Y-62572320D01*
X147040602Y-62572322D01*
X147213582Y-62643973D01*
X147397217Y-62680500D01*
X147397218Y-62680500D01*
X147584448Y-62680500D01*
X147584449Y-62680500D01*
X147768084Y-62643973D01*
X147941064Y-62572322D01*
X147941067Y-62572319D01*
X147941071Y-62572318D01*
X147986020Y-62542282D01*
X148096741Y-62468302D01*
X148229135Y-62335908D01*
X148303115Y-62225187D01*
X148333151Y-62180238D01*
X148333152Y-62180234D01*
X148333155Y-62180231D01*
X148404806Y-62007251D01*
X148441333Y-61823616D01*
X148441333Y-61636384D01*
X148441332Y-61636381D01*
X151390333Y-61636381D01*
X151390333Y-61823618D01*
X151426859Y-62007249D01*
X151498510Y-62180229D01*
X151498514Y-62180238D01*
X151572898Y-62291559D01*
X151602531Y-62335908D01*
X151734925Y-62468302D01*
X151784397Y-62501358D01*
X151890594Y-62572318D01*
X151890600Y-62572320D01*
X151890602Y-62572322D01*
X152063582Y-62643973D01*
X152247217Y-62680500D01*
X152247218Y-62680500D01*
X152434448Y-62680500D01*
X152434449Y-62680500D01*
X152442831Y-62678832D01*
X152445304Y-62678341D01*
X152498638Y-62667732D01*
X152618084Y-62643973D01*
X152791064Y-62572322D01*
X152791067Y-62572319D01*
X152791071Y-62572318D01*
X152836020Y-62542282D01*
X152946741Y-62468302D01*
X153079135Y-62335908D01*
X153153115Y-62225187D01*
X153183151Y-62180238D01*
X153183152Y-62180234D01*
X153183155Y-62180231D01*
X153254806Y-62007251D01*
X153291333Y-61823616D01*
X153291333Y-61636384D01*
X153254806Y-61452749D01*
X153183155Y-61279769D01*
X153183153Y-61279767D01*
X153183151Y-61279761D01*
X153123482Y-61190463D01*
X153079135Y-61124092D01*
X152946741Y-60991698D01*
X152888917Y-60953061D01*
X152791071Y-60887681D01*
X152791062Y-60887677D01*
X152618082Y-60816026D01*
X152434451Y-60779500D01*
X152434449Y-60779500D01*
X152247217Y-60779500D01*
X152247214Y-60779500D01*
X152063583Y-60816026D01*
X151890603Y-60887677D01*
X151890594Y-60887681D01*
X151734925Y-60991698D01*
X151734921Y-60991701D01*
X151602534Y-61124088D01*
X151602531Y-61124092D01*
X151498514Y-61279761D01*
X151498510Y-61279770D01*
X151426859Y-61452750D01*
X151390333Y-61636381D01*
X148441332Y-61636381D01*
X148404806Y-61452749D01*
X148333155Y-61279769D01*
X148333153Y-61279767D01*
X148333151Y-61279761D01*
X148273482Y-61190463D01*
X148229135Y-61124092D01*
X148096741Y-60991698D01*
X148038917Y-60953061D01*
X147941071Y-60887681D01*
X147941062Y-60887677D01*
X147768082Y-60816026D01*
X147584451Y-60779500D01*
X147584449Y-60779500D01*
X147397217Y-60779500D01*
X147397214Y-60779500D01*
X147213583Y-60816026D01*
X147040603Y-60887677D01*
X147040594Y-60887681D01*
X146884925Y-60991698D01*
X146884921Y-60991701D01*
X146752534Y-61124088D01*
X146752531Y-61124092D01*
X146648514Y-61279761D01*
X146648510Y-61279770D01*
X146576859Y-61452750D01*
X146540333Y-61636381D01*
X142076333Y-61636381D01*
X142076333Y-60240253D01*
X157755333Y-60240253D01*
X157755333Y-61979746D01*
X157755334Y-61979758D01*
X157766965Y-62038227D01*
X157766966Y-62038231D01*
X157811281Y-62104552D01*
X157877602Y-62148867D01*
X157922064Y-62157711D01*
X157936074Y-62160498D01*
X157936079Y-62160498D01*
X157936085Y-62160500D01*
X157936086Y-62160500D01*
X161475580Y-62160500D01*
X161475581Y-62160500D01*
X161534064Y-62148867D01*
X161600385Y-62104552D01*
X161644700Y-62038231D01*
X161656333Y-61979748D01*
X161656333Y-60348341D01*
X164720820Y-60348341D01*
X164720820Y-60651658D01*
X164754779Y-60953061D01*
X164822274Y-61248775D01*
X164922451Y-61535063D01*
X164922452Y-61535065D01*
X165054047Y-61808326D01*
X165054051Y-61808333D01*
X165054055Y-61808341D01*
X165215428Y-62065164D01*
X165404541Y-62302304D01*
X165619016Y-62516779D01*
X165856156Y-62705892D01*
X166112979Y-62867265D01*
X166112990Y-62867270D01*
X166112993Y-62867272D01*
X166203782Y-62910993D01*
X166386255Y-62998868D01*
X166519900Y-63045632D01*
X166672544Y-63099045D01*
X166672547Y-63099045D01*
X166672548Y-63099046D01*
X166968257Y-63166540D01*
X167269663Y-63200500D01*
X167269664Y-63200500D01*
X167572976Y-63200500D01*
X167572977Y-63200500D01*
X167874383Y-63166540D01*
X168170092Y-63099046D01*
X168456385Y-62998868D01*
X168729661Y-62867265D01*
X168986484Y-62705892D01*
X169223624Y-62516779D01*
X169438099Y-62302304D01*
X169627212Y-62065164D01*
X169788585Y-61808341D01*
X169920188Y-61535065D01*
X170020366Y-61248772D01*
X170087860Y-60953063D01*
X170121820Y-60651657D01*
X170121820Y-60348343D01*
X170087860Y-60046937D01*
X170020366Y-59751228D01*
X170009395Y-59719876D01*
X169931839Y-59498233D01*
X169920188Y-59464935D01*
X169788585Y-59191659D01*
X169627212Y-58934836D01*
X169438099Y-58697696D01*
X169223624Y-58483221D01*
X168986484Y-58294108D01*
X168729661Y-58132735D01*
X168729653Y-58132731D01*
X168729646Y-58132727D01*
X168456385Y-58001132D01*
X168456383Y-58001131D01*
X168170095Y-57900954D01*
X167874381Y-57833459D01*
X167572978Y-57799500D01*
X167572977Y-57799500D01*
X167269663Y-57799500D01*
X167269661Y-57799500D01*
X166968258Y-57833459D01*
X166672544Y-57900954D01*
X166386256Y-58001131D01*
X166386254Y-58001132D01*
X166112993Y-58132727D01*
X166112981Y-58132734D01*
X165856155Y-58294108D01*
X165619017Y-58483220D01*
X165404540Y-58697697D01*
X165215428Y-58934835D01*
X165054054Y-59191661D01*
X165054047Y-59191673D01*
X164922452Y-59464934D01*
X164922451Y-59464936D01*
X164822274Y-59751224D01*
X164754779Y-60046938D01*
X164720820Y-60348341D01*
X161656333Y-60348341D01*
X161656333Y-60240252D01*
X161644700Y-60181769D01*
X161600385Y-60115448D01*
X161600381Y-60115445D01*
X161534066Y-60071134D01*
X161534064Y-60071133D01*
X161534061Y-60071132D01*
X161534060Y-60071132D01*
X161475591Y-60059501D01*
X161475581Y-60059500D01*
X157936085Y-60059500D01*
X157936084Y-60059500D01*
X157936074Y-60059501D01*
X157877605Y-60071132D01*
X157877599Y-60071134D01*
X157811284Y-60115445D01*
X157811278Y-60115451D01*
X157766967Y-60181766D01*
X157766965Y-60181772D01*
X157755334Y-60240241D01*
X157755333Y-60240253D01*
X142076333Y-60240253D01*
X142076333Y-60240252D01*
X142064700Y-60181769D01*
X142020385Y-60115448D01*
X142020381Y-60115445D01*
X141954066Y-60071134D01*
X141954064Y-60071133D01*
X141954061Y-60071132D01*
X141954060Y-60071132D01*
X141895591Y-60059501D01*
X141895581Y-60059500D01*
X138356085Y-60059500D01*
X138356084Y-60059500D01*
X138356074Y-60059501D01*
X138297605Y-60071132D01*
X138297599Y-60071134D01*
X138231284Y-60115445D01*
X138231278Y-60115451D01*
X138186967Y-60181766D01*
X138186965Y-60181772D01*
X138175334Y-60240241D01*
X138175333Y-60240253D01*
X135109641Y-60240253D01*
X135087860Y-60046937D01*
X135020366Y-59751228D01*
X135009395Y-59719876D01*
X134931839Y-59498233D01*
X134920188Y-59464935D01*
X134788585Y-59191659D01*
X134627212Y-58934836D01*
X134438099Y-58697696D01*
X134223624Y-58483221D01*
X133986484Y-58294108D01*
X133729661Y-58132735D01*
X133729653Y-58132731D01*
X133729646Y-58132727D01*
X133456385Y-58001132D01*
X133456383Y-58001131D01*
X133170095Y-57900954D01*
X132874381Y-57833459D01*
X132572978Y-57799500D01*
X132572977Y-57799500D01*
X132269663Y-57799500D01*
X132269661Y-57799500D01*
X131968258Y-57833459D01*
X131672544Y-57900954D01*
X131386256Y-58001131D01*
X131386254Y-58001132D01*
X131112993Y-58132727D01*
X131112981Y-58132734D01*
X130856155Y-58294108D01*
X130619017Y-58483220D01*
X130404540Y-58697697D01*
X130215428Y-58934835D01*
X130054054Y-59191661D01*
X130054047Y-59191673D01*
X129922452Y-59464934D01*
X129922451Y-59464936D01*
X129822274Y-59751224D01*
X129754779Y-60046938D01*
X129720820Y-60348341D01*
X128121820Y-60348341D01*
X128121820Y-59002773D01*
X128121976Y-58997222D01*
X128124060Y-58960118D01*
X128139111Y-58692100D01*
X128140354Y-58681074D01*
X128151855Y-58613385D01*
X128191080Y-58382520D01*
X128193541Y-58371734D01*
X128277383Y-58080718D01*
X128281047Y-58070249D01*
X128396934Y-57790473D01*
X128401748Y-57780478D01*
X128413748Y-57758767D01*
X128446088Y-57700253D01*
X138175333Y-57700253D01*
X138175333Y-59439746D01*
X138175334Y-59439758D01*
X138186965Y-59498227D01*
X138186966Y-59498231D01*
X138231281Y-59564552D01*
X138297602Y-59608867D01*
X138342064Y-59617711D01*
X138356074Y-59620498D01*
X138356079Y-59620498D01*
X138356085Y-59620500D01*
X138356086Y-59620500D01*
X141895580Y-59620500D01*
X141895581Y-59620500D01*
X141954064Y-59608867D01*
X142020385Y-59564552D01*
X142064700Y-59498231D01*
X142076333Y-59439748D01*
X142076333Y-58613385D01*
X146090333Y-58613385D01*
X146090333Y-58786614D01*
X146117430Y-58957702D01*
X146117431Y-58957706D01*
X146170956Y-59122438D01*
X146170958Y-59122441D01*
X146170959Y-59122444D01*
X146170960Y-59122445D01*
X146249601Y-59276788D01*
X146351419Y-59416928D01*
X146473905Y-59539414D01*
X146614045Y-59641232D01*
X146768388Y-59719873D01*
X146768390Y-59719873D01*
X146768391Y-59719874D01*
X146768394Y-59719876D01*
X146933126Y-59773401D01*
X146933130Y-59773402D01*
X147104219Y-59800500D01*
X147104222Y-59800500D01*
X147277447Y-59800500D01*
X147448535Y-59773402D01*
X147448539Y-59773401D01*
X147613271Y-59719876D01*
X147613273Y-59719874D01*
X147613278Y-59719873D01*
X147767621Y-59641232D01*
X147907761Y-59539414D01*
X148030247Y-59416928D01*
X148132065Y-59276788D01*
X148210706Y-59122445D01*
X148210707Y-59122440D01*
X148210709Y-59122438D01*
X148264234Y-58957706D01*
X148264235Y-58957702D01*
X148291333Y-58786614D01*
X148291333Y-58613385D01*
X151540333Y-58613385D01*
X151540333Y-58786614D01*
X151567430Y-58957702D01*
X151567431Y-58957706D01*
X151620956Y-59122438D01*
X151620958Y-59122441D01*
X151620959Y-59122444D01*
X151620960Y-59122445D01*
X151699601Y-59276788D01*
X151801419Y-59416928D01*
X151923905Y-59539414D01*
X152064045Y-59641232D01*
X152218388Y-59719873D01*
X152218390Y-59719873D01*
X152218391Y-59719874D01*
X152218394Y-59719876D01*
X152383126Y-59773401D01*
X152383130Y-59773402D01*
X152554219Y-59800500D01*
X152554222Y-59800500D01*
X152727447Y-59800500D01*
X152898535Y-59773402D01*
X152898539Y-59773401D01*
X153063271Y-59719876D01*
X153063273Y-59719874D01*
X153063278Y-59719873D01*
X153217621Y-59641232D01*
X153357761Y-59539414D01*
X153480247Y-59416928D01*
X153582065Y-59276788D01*
X153660706Y-59122445D01*
X153660707Y-59122440D01*
X153660709Y-59122438D01*
X153714234Y-58957706D01*
X153714235Y-58957702D01*
X153741333Y-58786614D01*
X153741333Y-58613385D01*
X153714235Y-58442297D01*
X153714234Y-58442293D01*
X153660709Y-58277561D01*
X153660707Y-58277558D01*
X153660706Y-58277557D01*
X153660706Y-58277555D01*
X153582065Y-58123212D01*
X153480247Y-57983072D01*
X153357761Y-57860586D01*
X153217621Y-57758768D01*
X153102778Y-57700253D01*
X157755333Y-57700253D01*
X157755333Y-59439746D01*
X157755334Y-59439758D01*
X157766965Y-59498227D01*
X157766966Y-59498231D01*
X157811281Y-59564552D01*
X157877602Y-59608867D01*
X157922064Y-59617711D01*
X157936074Y-59620498D01*
X157936079Y-59620498D01*
X157936085Y-59620500D01*
X157936086Y-59620500D01*
X161475580Y-59620500D01*
X161475581Y-59620500D01*
X161534064Y-59608867D01*
X161600385Y-59564552D01*
X161644700Y-59498231D01*
X161656333Y-59439748D01*
X161656333Y-57700252D01*
X161644700Y-57641769D01*
X161600385Y-57575448D01*
X161554837Y-57545013D01*
X161534066Y-57531134D01*
X161534064Y-57531133D01*
X161534061Y-57531132D01*
X161534060Y-57531132D01*
X161475591Y-57519501D01*
X161475581Y-57519500D01*
X157936085Y-57519500D01*
X157936084Y-57519500D01*
X157936074Y-57519501D01*
X157877605Y-57531132D01*
X157877599Y-57531134D01*
X157811284Y-57575445D01*
X157811278Y-57575451D01*
X157766967Y-57641766D01*
X157766965Y-57641772D01*
X157755334Y-57700241D01*
X157755333Y-57700253D01*
X153102778Y-57700253D01*
X153063278Y-57680127D01*
X153063277Y-57680126D01*
X153063274Y-57680125D01*
X153063271Y-57680123D01*
X152898539Y-57626598D01*
X152898535Y-57626597D01*
X152727447Y-57599500D01*
X152727444Y-57599500D01*
X152554222Y-57599500D01*
X152554219Y-57599500D01*
X152383130Y-57626597D01*
X152383126Y-57626598D01*
X152218394Y-57680123D01*
X152218391Y-57680125D01*
X152064047Y-57758766D01*
X151923906Y-57860585D01*
X151801418Y-57983073D01*
X151699599Y-58123214D01*
X151620958Y-58277558D01*
X151620956Y-58277561D01*
X151567431Y-58442293D01*
X151567430Y-58442297D01*
X151540333Y-58613385D01*
X148291333Y-58613385D01*
X148264235Y-58442297D01*
X148264234Y-58442293D01*
X148210709Y-58277561D01*
X148210707Y-58277558D01*
X148210706Y-58277557D01*
X148210706Y-58277555D01*
X148132065Y-58123212D01*
X148030247Y-57983072D01*
X147907761Y-57860586D01*
X147767621Y-57758768D01*
X147767620Y-57758767D01*
X147767618Y-57758766D01*
X147613274Y-57680125D01*
X147613271Y-57680123D01*
X147448539Y-57626598D01*
X147448535Y-57626597D01*
X147277447Y-57599500D01*
X147277444Y-57599500D01*
X147104222Y-57599500D01*
X147104219Y-57599500D01*
X146933130Y-57626597D01*
X146933126Y-57626598D01*
X146768394Y-57680123D01*
X146768391Y-57680125D01*
X146614047Y-57758766D01*
X146473906Y-57860585D01*
X146351418Y-57983073D01*
X146249599Y-58123214D01*
X146170958Y-58277558D01*
X146170956Y-58277561D01*
X146117431Y-58442293D01*
X146117430Y-58442297D01*
X146090333Y-58613385D01*
X142076333Y-58613385D01*
X142076333Y-57700252D01*
X142064700Y-57641769D01*
X142020385Y-57575448D01*
X141974837Y-57545013D01*
X141954066Y-57531134D01*
X141954064Y-57531133D01*
X141954061Y-57531132D01*
X141954060Y-57531132D01*
X141895591Y-57519501D01*
X141895581Y-57519500D01*
X138356085Y-57519500D01*
X138356084Y-57519500D01*
X138356074Y-57519501D01*
X138297605Y-57531132D01*
X138297599Y-57531134D01*
X138231284Y-57575445D01*
X138231278Y-57575451D01*
X138186967Y-57641766D01*
X138186965Y-57641772D01*
X138175334Y-57700241D01*
X138175333Y-57700253D01*
X128446088Y-57700253D01*
X128548231Y-57515438D01*
X128554127Y-57506055D01*
X128729375Y-57259068D01*
X128736274Y-57250416D01*
X128938085Y-57024590D01*
X128945902Y-57016773D01*
X129171725Y-56814967D01*
X129180383Y-56808062D01*
X129427372Y-56632816D01*
X129436757Y-56626919D01*
X129701815Y-56480429D01*
X129711781Y-56475629D01*
X129991574Y-56359737D01*
X130002034Y-56356077D01*
X130293035Y-56272242D01*
X130303856Y-56269773D01*
X130602399Y-56219051D01*
X130613418Y-56217809D01*
X130769464Y-56209047D01*
X130918903Y-56200656D01*
X130924453Y-56200500D01*
X130961201Y-56200500D01*
X168881437Y-56200500D01*
X168918544Y-56200500D01*
X168924096Y-56200656D01*
G37*
%TD.AperFunction*%
%TD*%
M02*
