%TF.GenerationSoftware,KiCad,Pcbnew,8.99.0-unknown-120b06f916~181~ubuntu22.04.1*%
%TF.CreationDate,2024-11-21T04:22:58-08:00*%
%TF.ProjectId,gb_video_pico_breakout,67625f76-6964-4656-9f5f-7069636f5f62,rev?*%
%TF.SameCoordinates,Original*%
%TF.FileFunction,OtherDrawing,Comment*%
%FSLAX46Y46*%
G04 Gerber Fmt 4.6, Leading zero omitted, Abs format (unit mm)*
G04 Created by KiCad (PCBNEW 8.99.0-unknown-120b06f916~181~ubuntu22.04.1) date 2024-11-21 04:22:58*
%MOMM*%
%LPD*%
G01*
G04 APERTURE LIST*
%ADD10C,0.100000*%
G04 APERTURE END LIST*
D10*
%TO.C,U4*%
X148415833Y-66200000D02*
X146415833Y-66200000D01*
X146415833Y-64200000D01*
X148415833Y-64200000D01*
X148415833Y-66200000D01*
G36*
X148415833Y-66200000D02*
G01*
X146415833Y-66200000D01*
X146415833Y-64200000D01*
X148415833Y-64200000D01*
X148415833Y-66200000D01*
G37*
X148415833Y-68700000D02*
X146415833Y-68700000D01*
X146415833Y-66700000D01*
X148415833Y-66700000D01*
X148415833Y-68700000D01*
G36*
X148415833Y-68700000D02*
G01*
X146415833Y-68700000D01*
X146415833Y-66700000D01*
X148415833Y-66700000D01*
X148415833Y-68700000D01*
G37*
X148415833Y-71200000D02*
X146415833Y-71200000D01*
X146415833Y-69200000D01*
X148415833Y-69200000D01*
X148415833Y-71200000D01*
G36*
X148415833Y-71200000D02*
G01*
X146415833Y-71200000D01*
X146415833Y-69200000D01*
X148415833Y-69200000D01*
X148415833Y-71200000D01*
G37*
X153615833Y-62500000D02*
X146215833Y-62500000D01*
X146215833Y-57800000D01*
X153615833Y-57800000D01*
X153615833Y-62500000D01*
G36*
X153615833Y-62500000D02*
G01*
X146215833Y-62500000D01*
X146215833Y-57800000D01*
X153615833Y-57800000D01*
X153615833Y-62500000D01*
G37*
%TD*%
M02*
