%TF.GenerationSoftware,KiCad,Pcbnew,8.99.0-unknown-079855af18~181~ubuntu22.04.1*%
%TF.CreationDate,2024-11-15T17:57:23-08:00*%
%TF.ProjectId,gb_video_breakout,67625f76-6964-4656-9f5f-627265616b6f,rev?*%
%TF.SameCoordinates,Original*%
%TF.FileFunction,Legend,Top*%
%TF.FilePolarity,Positive*%
%FSLAX46Y46*%
G04 Gerber Fmt 4.6, Leading zero omitted, Abs format (unit mm)*
G04 Created by KiCad (PCBNEW 8.99.0-unknown-079855af18~181~ubuntu22.04.1) date 2024-11-15 17:57:23*
%MOMM*%
%LPD*%
G01*
G04 APERTURE LIST*
%ADD10C,0.250000*%
%ADD11C,0.125000*%
%ADD12C,0.200000*%
%ADD13C,0.120000*%
G04 APERTURE END LIST*
D10*
G36*
X141699755Y-90830000D02*
G01*
X141612316Y-90830000D01*
X141524877Y-90830000D01*
X141524877Y-90742744D01*
X141524877Y-90655427D01*
X141524877Y-90568171D01*
X141437438Y-90568171D01*
X141437438Y-90480915D01*
X141437438Y-90393599D01*
X141437438Y-90306343D01*
X141350000Y-90306343D01*
X141350000Y-90218415D01*
X141350000Y-90130488D01*
X141350000Y-90042561D01*
X141350000Y-89954633D01*
X141437438Y-89954633D01*
X141524877Y-89954633D01*
X141524877Y-90042561D01*
X141524877Y-90130488D01*
X141524877Y-90218415D01*
X141524877Y-90306343D01*
X141612316Y-90306343D01*
X141612316Y-90393599D01*
X141612316Y-90480915D01*
X141612316Y-90568171D01*
X141699755Y-90568171D01*
X141699755Y-90480915D01*
X141699755Y-90393599D01*
X141699755Y-90306343D01*
X141787194Y-90306343D01*
X141787194Y-90218415D01*
X141787194Y-90130488D01*
X141787194Y-90042561D01*
X141787194Y-89954633D01*
X141874633Y-89954633D01*
X141962072Y-89954633D01*
X141962072Y-90042561D01*
X141962072Y-90130488D01*
X141962072Y-90218415D01*
X141962072Y-90306343D01*
X141874633Y-90306343D01*
X141874633Y-90393599D01*
X141874633Y-90480915D01*
X141874633Y-90568171D01*
X141787194Y-90568171D01*
X141787194Y-90655427D01*
X141787194Y-90742744D01*
X141787194Y-90830000D01*
X141699755Y-90830000D01*
G37*
G36*
X142574145Y-89866400D02*
G01*
X142661584Y-89866400D01*
X142661584Y-89953961D01*
X142661584Y-90041584D01*
X142661584Y-90129206D01*
X142661584Y-90216767D01*
X142661584Y-90304389D01*
X142661584Y-90392011D01*
X142661584Y-90479572D01*
X142661584Y-90567194D01*
X142661584Y-90654816D01*
X142661584Y-90742377D01*
X142574145Y-90742377D01*
X142574145Y-90830000D01*
X142486706Y-90830000D01*
X142399267Y-90830000D01*
X142311828Y-90830000D01*
X142224389Y-90830000D01*
X142136950Y-90830000D01*
X142136950Y-90743049D01*
X142049511Y-90743049D01*
X142049511Y-90656099D01*
X142049511Y-90569148D01*
X142049511Y-90482198D01*
X142224389Y-90482198D01*
X142224389Y-90568171D01*
X142224389Y-90654145D01*
X142311828Y-90654145D01*
X142399267Y-90654145D01*
X142486706Y-90654145D01*
X142486706Y-90567194D01*
X142486706Y-90480244D01*
X142486706Y-90393293D01*
X142486706Y-90306343D01*
X142399267Y-90306343D01*
X142399267Y-90392316D01*
X142311828Y-90392316D01*
X142311828Y-90482198D01*
X142224389Y-90482198D01*
X142049511Y-90482198D01*
X142049511Y-90392316D01*
X142049511Y-90306343D01*
X142049511Y-90216461D01*
X142049511Y-90130488D01*
X142049511Y-90042561D01*
X142224389Y-90042561D01*
X142224389Y-90130488D01*
X142224389Y-90218415D01*
X142224389Y-90306343D01*
X142311828Y-90306343D01*
X142311828Y-90216461D01*
X142399267Y-90216461D01*
X142399267Y-90130488D01*
X142486706Y-90130488D01*
X142486706Y-90042561D01*
X142486706Y-89954633D01*
X142399267Y-89954633D01*
X142311828Y-89954633D01*
X142224389Y-89954633D01*
X142224389Y-90042561D01*
X142049511Y-90042561D01*
X142049511Y-89954633D01*
X142049511Y-89866706D01*
X142136950Y-89866706D01*
X142136950Y-89778778D01*
X142224389Y-89778778D01*
X142311828Y-89778778D01*
X142399267Y-89778778D01*
X142486706Y-89778778D01*
X142574145Y-89778778D01*
X142574145Y-89866400D01*
G37*
G36*
X142923900Y-90830000D02*
G01*
X142836461Y-90830000D01*
X142749023Y-90830000D01*
X142749023Y-90742744D01*
X142749023Y-90655427D01*
X142749023Y-90568171D01*
X142836461Y-90568171D01*
X142923900Y-90568171D01*
X143011339Y-90568171D01*
X143011339Y-90655427D01*
X143011339Y-90742744D01*
X143011339Y-90830000D01*
X142923900Y-90830000D01*
G37*
G36*
X143535973Y-90830000D02*
G01*
X143448534Y-90830000D01*
X143361095Y-90830000D01*
X143273656Y-90830000D01*
X143186217Y-90830000D01*
X143186217Y-90744026D01*
X143098778Y-90744026D01*
X143098778Y-90656770D01*
X143098778Y-90569453D01*
X143098778Y-90482198D01*
X143186217Y-90482198D01*
X143273656Y-90482198D01*
X143273656Y-90568171D01*
X143273656Y-90654145D01*
X143361095Y-90654145D01*
X143448534Y-90654145D01*
X143535973Y-90654145D01*
X143535973Y-90566889D01*
X143535973Y-90479572D01*
X143535973Y-90392316D01*
X143448534Y-90392316D01*
X143361095Y-90392316D01*
X143273656Y-90392316D01*
X143186217Y-90392316D01*
X143098778Y-90392316D01*
X143098778Y-90304694D01*
X143098778Y-90217011D01*
X143098778Y-90129389D01*
X143098778Y-90041706D01*
X143098778Y-89954084D01*
X143098778Y-89866400D01*
X143098778Y-89778778D01*
X143186217Y-89778778D01*
X143273656Y-89778778D01*
X143361095Y-89778778D01*
X143448534Y-89778778D01*
X143535973Y-89778778D01*
X143623412Y-89778778D01*
X143710851Y-89778778D01*
X143710851Y-89866706D01*
X143710851Y-89954633D01*
X143623412Y-89954633D01*
X143535973Y-89954633D01*
X143448534Y-89954633D01*
X143361095Y-89954633D01*
X143273656Y-89954633D01*
X143273656Y-90041889D01*
X143273656Y-90129206D01*
X143273656Y-90216461D01*
X143361095Y-90216461D01*
X143448534Y-90216461D01*
X143535973Y-90216461D01*
X143623412Y-90216461D01*
X143623412Y-90304389D01*
X143710851Y-90304389D01*
X143710851Y-90392316D01*
X143710851Y-90480244D01*
X143710851Y-90568171D01*
X143710851Y-90656099D01*
X143710851Y-90744026D01*
X143623412Y-90744026D01*
X143623412Y-90830000D01*
X143535973Y-90830000D01*
G37*
D11*
G36*
X149177896Y-80772500D02*
G01*
X149112316Y-80772500D01*
X149046737Y-80772500D01*
X148981158Y-80772500D01*
X148915579Y-80772500D01*
X148915579Y-80706829D01*
X148850000Y-80706829D01*
X148850000Y-80641204D01*
X148850000Y-80575533D01*
X148850000Y-80509908D01*
X148850000Y-80444237D01*
X148850000Y-80378292D01*
X148850000Y-80312346D01*
X148850000Y-80247866D01*
X148850000Y-80182424D01*
X148850000Y-80116936D01*
X148850000Y-80051495D01*
X148915579Y-80051495D01*
X148915579Y-79984084D01*
X148981158Y-79984084D01*
X149046737Y-79984084D01*
X149112316Y-79984084D01*
X149177896Y-79984084D01*
X149243475Y-79984084D01*
X149243475Y-80051495D01*
X149309054Y-80051495D01*
X149309054Y-80116936D01*
X149309054Y-80182424D01*
X149309054Y-80247866D01*
X149243475Y-80247866D01*
X149177896Y-80247866D01*
X149177896Y-80181920D01*
X149177896Y-80115975D01*
X149112316Y-80115975D01*
X149046737Y-80115975D01*
X148981158Y-80115975D01*
X148981158Y-80181554D01*
X148981158Y-80247133D01*
X148981158Y-80312712D01*
X148981158Y-80378292D01*
X148981158Y-80443871D01*
X148981158Y-80509450D01*
X148981158Y-80575029D01*
X148981158Y-80640608D01*
X149046737Y-80640608D01*
X149112316Y-80640608D01*
X149177896Y-80640608D01*
X149177896Y-80575167D01*
X149177896Y-80509679D01*
X149177896Y-80444237D01*
X149112316Y-80444237D01*
X149046737Y-80444237D01*
X149046737Y-80378292D01*
X149046737Y-80312346D01*
X149112316Y-80312346D01*
X149177896Y-80312346D01*
X149243475Y-80312346D01*
X149309054Y-80312346D01*
X149309054Y-80378063D01*
X149309054Y-80443825D01*
X149309054Y-80509542D01*
X149309054Y-80575304D01*
X149309054Y-80641021D01*
X149309054Y-80706783D01*
X149243475Y-80706783D01*
X149243475Y-80772500D01*
X149177896Y-80772500D01*
G37*
G36*
X149768108Y-80772500D02*
G01*
X149702529Y-80772500D01*
X149702529Y-80706554D01*
X149702529Y-80640608D01*
X149702529Y-80574663D01*
X149702529Y-80508717D01*
X149636950Y-80508717D01*
X149571371Y-80508717D01*
X149571371Y-80444237D01*
X149571371Y-80379757D01*
X149505792Y-80379757D01*
X149505792Y-80445199D01*
X149505792Y-80510686D01*
X149505792Y-80576128D01*
X149505792Y-80641570D01*
X149505792Y-80707058D01*
X149505792Y-80772500D01*
X149440212Y-80772500D01*
X149374633Y-80772500D01*
X149374633Y-80706783D01*
X149374633Y-80641112D01*
X149374633Y-80575396D01*
X149374633Y-80509679D01*
X149374633Y-80444008D01*
X149374633Y-80378292D01*
X149374633Y-80312575D01*
X149374633Y-80246904D01*
X149374633Y-80181188D01*
X149374633Y-80115471D01*
X149374633Y-80049800D01*
X149374633Y-79984084D01*
X149440212Y-79984084D01*
X149505792Y-79984084D01*
X149505792Y-80050533D01*
X149505792Y-80116936D01*
X149505792Y-80183386D01*
X149571371Y-80183386D01*
X149636950Y-80183386D01*
X149636950Y-80247866D01*
X149636950Y-80312346D01*
X149702529Y-80312346D01*
X149702529Y-80246675D01*
X149702529Y-80181050D01*
X149702529Y-80115379D01*
X149702529Y-80049754D01*
X149702529Y-79984084D01*
X149768108Y-79984084D01*
X149833688Y-79984084D01*
X149833688Y-80049800D01*
X149833688Y-80115471D01*
X149833688Y-80181188D01*
X149833688Y-80246904D01*
X149833688Y-80312575D01*
X149833688Y-80378292D01*
X149833688Y-80444008D01*
X149833688Y-80509679D01*
X149833688Y-80575396D01*
X149833688Y-80641112D01*
X149833688Y-80706783D01*
X149833688Y-80772500D01*
X149768108Y-80772500D01*
G37*
G36*
X150292742Y-80049800D02*
G01*
X150358321Y-80049800D01*
X150358321Y-80115471D01*
X150358321Y-80181188D01*
X150358321Y-80246904D01*
X150358321Y-80312575D01*
X150358321Y-80378292D01*
X150358321Y-80444008D01*
X150358321Y-80509679D01*
X150358321Y-80575396D01*
X150358321Y-80641112D01*
X150358321Y-80706783D01*
X150292742Y-80706783D01*
X150292742Y-80772500D01*
X150227163Y-80772500D01*
X150161584Y-80772500D01*
X150096004Y-80772500D01*
X150030425Y-80772500D01*
X149964846Y-80772500D01*
X149899267Y-80772500D01*
X149899267Y-80706783D01*
X149899267Y-80641112D01*
X149899267Y-80575396D01*
X149899267Y-80509679D01*
X149899267Y-80444008D01*
X149899267Y-80378292D01*
X149899267Y-80312575D01*
X149899267Y-80246904D01*
X149899267Y-80181554D01*
X150030425Y-80181554D01*
X150030425Y-80247133D01*
X150030425Y-80312712D01*
X150030425Y-80378292D01*
X150030425Y-80443871D01*
X150030425Y-80509450D01*
X150030425Y-80575029D01*
X150030425Y-80640608D01*
X150096004Y-80640608D01*
X150161584Y-80640608D01*
X150227163Y-80640608D01*
X150227163Y-80575029D01*
X150227163Y-80509450D01*
X150227163Y-80443871D01*
X150227163Y-80378292D01*
X150227163Y-80312712D01*
X150227163Y-80247133D01*
X150227163Y-80181554D01*
X150227163Y-80115975D01*
X150161584Y-80115975D01*
X150096004Y-80115975D01*
X150030425Y-80115975D01*
X150030425Y-80181554D01*
X149899267Y-80181554D01*
X149899267Y-80181188D01*
X149899267Y-80115471D01*
X149899267Y-80049800D01*
X149899267Y-79984084D01*
X149964846Y-79984084D01*
X150030425Y-79984084D01*
X150096004Y-79984084D01*
X150161584Y-79984084D01*
X150227163Y-79984084D01*
X150292742Y-79984084D01*
X150292742Y-80049800D01*
G37*
G36*
X146627896Y-80772500D02*
G01*
X146562316Y-80772500D01*
X146496737Y-80772500D01*
X146431158Y-80772500D01*
X146365579Y-80772500D01*
X146365579Y-80708019D01*
X146300000Y-80708019D01*
X146300000Y-80642578D01*
X146300000Y-80577090D01*
X146300000Y-80511648D01*
X146300000Y-80445703D01*
X146300000Y-80379757D01*
X146300000Y-80313811D01*
X146300000Y-80247866D01*
X146300000Y-80182424D01*
X146300000Y-80116936D01*
X146300000Y-80051495D01*
X146365579Y-80051495D01*
X146365579Y-79984084D01*
X146431158Y-79984084D01*
X146496737Y-79984084D01*
X146562316Y-79984084D01*
X146627896Y-79984084D01*
X146693475Y-79984084D01*
X146693475Y-80051495D01*
X146759054Y-80051495D01*
X146759054Y-80116936D01*
X146759054Y-80182424D01*
X146759054Y-80247866D01*
X146693475Y-80247866D01*
X146627896Y-80247866D01*
X146627896Y-80181920D01*
X146627896Y-80115975D01*
X146562316Y-80115975D01*
X146496737Y-80115975D01*
X146431158Y-80115975D01*
X146431158Y-80181554D01*
X146431158Y-80247133D01*
X146431158Y-80312712D01*
X146431158Y-80378292D01*
X146431158Y-80443871D01*
X146431158Y-80509450D01*
X146431158Y-80575029D01*
X146431158Y-80640608D01*
X146496737Y-80640608D01*
X146562316Y-80640608D01*
X146627896Y-80640608D01*
X146627896Y-80576128D01*
X146627896Y-80511648D01*
X146693475Y-80511648D01*
X146759054Y-80511648D01*
X146759054Y-80577090D01*
X146759054Y-80642578D01*
X146759054Y-80708019D01*
X146693475Y-80708019D01*
X146693475Y-80772500D01*
X146627896Y-80772500D01*
G37*
G36*
X147218108Y-80772500D02*
G01*
X147152529Y-80772500D01*
X147086950Y-80772500D01*
X147021371Y-80772500D01*
X146955792Y-80772500D01*
X146890212Y-80772500D01*
X146824633Y-80772500D01*
X146824633Y-80706783D01*
X146824633Y-80641112D01*
X146824633Y-80575396D01*
X146824633Y-80509679D01*
X146824633Y-80444008D01*
X146824633Y-80378292D01*
X146824633Y-80312575D01*
X146824633Y-80246904D01*
X146824633Y-80181188D01*
X146824633Y-80115471D01*
X146824633Y-80049800D01*
X146824633Y-79984084D01*
X146890212Y-79984084D01*
X146955792Y-79984084D01*
X146955792Y-80049754D01*
X146955792Y-80115379D01*
X146955792Y-80181050D01*
X146955792Y-80246675D01*
X146955792Y-80312346D01*
X146955792Y-80378017D01*
X146955792Y-80443642D01*
X146955792Y-80509313D01*
X146955792Y-80574938D01*
X146955792Y-80640608D01*
X147021371Y-80640608D01*
X147086950Y-80640608D01*
X147152529Y-80640608D01*
X147218108Y-80640608D01*
X147283688Y-80640608D01*
X147283688Y-80706554D01*
X147283688Y-80772500D01*
X147218108Y-80772500D01*
G37*
G36*
X147742742Y-80772500D02*
G01*
X147677163Y-80772500D01*
X147677163Y-80707058D01*
X147677163Y-80641570D01*
X147611584Y-80641570D01*
X147611584Y-80576128D01*
X147546004Y-80576128D01*
X147546004Y-80508717D01*
X147480425Y-80508717D01*
X147480425Y-80574663D01*
X147480425Y-80640608D01*
X147480425Y-80706554D01*
X147480425Y-80772500D01*
X147414846Y-80772500D01*
X147349267Y-80772500D01*
X147349267Y-80706829D01*
X147349267Y-80641204D01*
X147349267Y-80575533D01*
X147349267Y-80509908D01*
X147349267Y-80444237D01*
X147349267Y-80378566D01*
X147349267Y-80312941D01*
X147349267Y-80247271D01*
X147349267Y-80181646D01*
X147349267Y-80115975D01*
X147349267Y-80050029D01*
X147349267Y-79984084D01*
X147414846Y-79984084D01*
X147480425Y-79984084D01*
X147480425Y-80050029D01*
X147480425Y-80115975D01*
X147480425Y-80181920D01*
X147480425Y-80247866D01*
X147546004Y-80247866D01*
X147546004Y-80180455D01*
X147611584Y-80180455D01*
X147611584Y-80115975D01*
X147677163Y-80115975D01*
X147677163Y-80050029D01*
X147677163Y-79984084D01*
X147742742Y-79984084D01*
X147808321Y-79984084D01*
X147808321Y-80050029D01*
X147808321Y-80115975D01*
X147808321Y-80180455D01*
X147742742Y-80180455D01*
X147742742Y-80247866D01*
X147677163Y-80247866D01*
X147677163Y-80313079D01*
X147611584Y-80313079D01*
X147611584Y-80378292D01*
X147611584Y-80443504D01*
X147677163Y-80443504D01*
X147677163Y-80508717D01*
X147742742Y-80508717D01*
X147742742Y-80576128D01*
X147808321Y-80576128D01*
X147808321Y-80641570D01*
X147808321Y-80707058D01*
X147808321Y-80772500D01*
X147742742Y-80772500D01*
G37*
G36*
X144393475Y-80049754D02*
G01*
X144459054Y-80049754D01*
X144459054Y-80115379D01*
X144459054Y-80181050D01*
X144459054Y-80246675D01*
X144459054Y-80312346D01*
X144393475Y-80312346D01*
X144393475Y-80378063D01*
X144459054Y-80378063D01*
X144459054Y-80443825D01*
X144459054Y-80509542D01*
X144459054Y-80575304D01*
X144459054Y-80641021D01*
X144459054Y-80706783D01*
X144459054Y-80772500D01*
X144393475Y-80772500D01*
X144327896Y-80772500D01*
X144327896Y-80706829D01*
X144327896Y-80641204D01*
X144327896Y-80575533D01*
X144327896Y-80509908D01*
X144327896Y-80444237D01*
X144262316Y-80444237D01*
X144196737Y-80444237D01*
X144131158Y-80444237D01*
X144131158Y-80509908D01*
X144131158Y-80575533D01*
X144131158Y-80641204D01*
X144131158Y-80706829D01*
X144131158Y-80772500D01*
X144065579Y-80772500D01*
X144000000Y-80772500D01*
X144000000Y-80706783D01*
X144000000Y-80641112D01*
X144000000Y-80575396D01*
X144000000Y-80509679D01*
X144000000Y-80444008D01*
X144000000Y-80378292D01*
X144000000Y-80312575D01*
X144000000Y-80246904D01*
X144000000Y-80181417D01*
X144131158Y-80181417D01*
X144131158Y-80246904D01*
X144131158Y-80312346D01*
X144196737Y-80312346D01*
X144262316Y-80312346D01*
X144327896Y-80312346D01*
X144327896Y-80246904D01*
X144327896Y-80181417D01*
X144327896Y-80115975D01*
X144262316Y-80115975D01*
X144196737Y-80115975D01*
X144131158Y-80115975D01*
X144131158Y-80181417D01*
X144000000Y-80181417D01*
X144000000Y-80181188D01*
X144000000Y-80115471D01*
X144000000Y-80049800D01*
X144000000Y-79984084D01*
X144065579Y-79984084D01*
X144131158Y-79984084D01*
X144196737Y-79984084D01*
X144262316Y-79984084D01*
X144327896Y-79984084D01*
X144393475Y-79984084D01*
X144393475Y-80049754D01*
G37*
G36*
X144918108Y-80772500D02*
G01*
X144852529Y-80772500D01*
X144852529Y-80707058D01*
X144852529Y-80641570D01*
X144852529Y-80576128D01*
X144786950Y-80576128D01*
X144786950Y-80510183D01*
X144786950Y-80444237D01*
X144721371Y-80444237D01*
X144721371Y-80510183D01*
X144721371Y-80576128D01*
X144655792Y-80576128D01*
X144655792Y-80641570D01*
X144655792Y-80707058D01*
X144655792Y-80772500D01*
X144590212Y-80772500D01*
X144524633Y-80772500D01*
X144524633Y-80707058D01*
X144524633Y-80641570D01*
X144524633Y-80576128D01*
X144590212Y-80576128D01*
X144590212Y-80510183D01*
X144590212Y-80444237D01*
X144655792Y-80444237D01*
X144655792Y-80378292D01*
X144655792Y-80312346D01*
X144590212Y-80312346D01*
X144590212Y-80246400D01*
X144590212Y-80180455D01*
X144524633Y-80180455D01*
X144524633Y-80115013D01*
X144524633Y-80049525D01*
X144524633Y-79984084D01*
X144590212Y-79984084D01*
X144655792Y-79984084D01*
X144655792Y-80049525D01*
X144655792Y-80115013D01*
X144655792Y-80180455D01*
X144721371Y-80180455D01*
X144721371Y-80246400D01*
X144721371Y-80312346D01*
X144786950Y-80312346D01*
X144786950Y-80246400D01*
X144786950Y-80180455D01*
X144852529Y-80180455D01*
X144852529Y-80115013D01*
X144852529Y-80049525D01*
X144852529Y-79984084D01*
X144918108Y-79984084D01*
X144983688Y-79984084D01*
X144983688Y-80049525D01*
X144983688Y-80115013D01*
X144983688Y-80180455D01*
X144918108Y-80180455D01*
X144918108Y-80246400D01*
X144918108Y-80312346D01*
X144852529Y-80312346D01*
X144852529Y-80378292D01*
X144852529Y-80444237D01*
X144918108Y-80444237D01*
X144918108Y-80510183D01*
X144918108Y-80576128D01*
X144983688Y-80576128D01*
X144983688Y-80641570D01*
X144983688Y-80707058D01*
X144983688Y-80772500D01*
X144918108Y-80772500D01*
G37*
G36*
X141612316Y-80772500D02*
G01*
X141546737Y-80772500D01*
X141546737Y-80706829D01*
X141546737Y-80641204D01*
X141546737Y-80575533D01*
X141546737Y-80509908D01*
X141546737Y-80444237D01*
X141546737Y-80378566D01*
X141546737Y-80312941D01*
X141546737Y-80247271D01*
X141546737Y-80181646D01*
X141546737Y-80115975D01*
X141481158Y-80115975D01*
X141415579Y-80115975D01*
X141350000Y-80115975D01*
X141350000Y-80050029D01*
X141350000Y-79984084D01*
X141415579Y-79984084D01*
X141481158Y-79984084D01*
X141546737Y-79984084D01*
X141612316Y-79984084D01*
X141677896Y-79984084D01*
X141743475Y-79984084D01*
X141809054Y-79984084D01*
X141874633Y-79984084D01*
X141874633Y-80050029D01*
X141874633Y-80115975D01*
X141809054Y-80115975D01*
X141743475Y-80115975D01*
X141677896Y-80115975D01*
X141677896Y-80181646D01*
X141677896Y-80247271D01*
X141677896Y-80312941D01*
X141677896Y-80378566D01*
X141677896Y-80444237D01*
X141677896Y-80509908D01*
X141677896Y-80575533D01*
X141677896Y-80641204D01*
X141677896Y-80706829D01*
X141677896Y-80772500D01*
X141612316Y-80772500D01*
G37*
G36*
X142334054Y-80772500D02*
G01*
X142268475Y-80772500D01*
X142268475Y-80707058D01*
X142268475Y-80641570D01*
X142268475Y-80576128D01*
X142202896Y-80576128D01*
X142202896Y-80510183D01*
X142202896Y-80444237D01*
X142137316Y-80444237D01*
X142137316Y-80510183D01*
X142137316Y-80576128D01*
X142071737Y-80576128D01*
X142071737Y-80641570D01*
X142071737Y-80707058D01*
X142071737Y-80772500D01*
X142006158Y-80772500D01*
X141940579Y-80772500D01*
X141940579Y-80707058D01*
X141940579Y-80641570D01*
X141940579Y-80576128D01*
X142006158Y-80576128D01*
X142006158Y-80510183D01*
X142006158Y-80444237D01*
X142071737Y-80444237D01*
X142071737Y-80378292D01*
X142071737Y-80312346D01*
X142006158Y-80312346D01*
X142006158Y-80246400D01*
X142006158Y-80180455D01*
X141940579Y-80180455D01*
X141940579Y-80115013D01*
X141940579Y-80049525D01*
X141940579Y-79984084D01*
X142006158Y-79984084D01*
X142071737Y-79984084D01*
X142071737Y-80049525D01*
X142071737Y-80115013D01*
X142071737Y-80180455D01*
X142137316Y-80180455D01*
X142137316Y-80246400D01*
X142137316Y-80312346D01*
X142202896Y-80312346D01*
X142202896Y-80246400D01*
X142202896Y-80180455D01*
X142268475Y-80180455D01*
X142268475Y-80115013D01*
X142268475Y-80049525D01*
X142268475Y-79984084D01*
X142334054Y-79984084D01*
X142399633Y-79984084D01*
X142399633Y-80049525D01*
X142399633Y-80115013D01*
X142399633Y-80180455D01*
X142334054Y-80180455D01*
X142334054Y-80246400D01*
X142334054Y-80312346D01*
X142268475Y-80312346D01*
X142268475Y-80378292D01*
X142268475Y-80444237D01*
X142334054Y-80444237D01*
X142334054Y-80510183D01*
X142334054Y-80576128D01*
X142399633Y-80576128D01*
X142399633Y-80641570D01*
X142399633Y-80707058D01*
X142399633Y-80772500D01*
X142334054Y-80772500D01*
G37*
G36*
X139027896Y-80772500D02*
G01*
X138962316Y-80772500D01*
X138896737Y-80772500D01*
X138831158Y-80772500D01*
X138765579Y-80772500D01*
X138765579Y-80708019D01*
X138700000Y-80708019D01*
X138700000Y-80642578D01*
X138700000Y-80577090D01*
X138700000Y-80511648D01*
X138765579Y-80511648D01*
X138831158Y-80511648D01*
X138831158Y-80576128D01*
X138831158Y-80640608D01*
X138896737Y-80640608D01*
X138962316Y-80640608D01*
X139027896Y-80640608D01*
X139027896Y-80575167D01*
X139027896Y-80509679D01*
X139027896Y-80444237D01*
X138962316Y-80444237D01*
X138896737Y-80444237D01*
X138831158Y-80444237D01*
X138831158Y-80379757D01*
X138831158Y-80315277D01*
X138896737Y-80315277D01*
X138962316Y-80315277D01*
X139027896Y-80312346D01*
X139027896Y-80247866D01*
X139027896Y-80181920D01*
X139027896Y-80115975D01*
X138962316Y-80115975D01*
X138896737Y-80115975D01*
X138831158Y-80115975D01*
X138831158Y-80181920D01*
X138831158Y-80247866D01*
X138765579Y-80247866D01*
X138700000Y-80247866D01*
X138700000Y-80182424D01*
X138700000Y-80116936D01*
X138700000Y-80051495D01*
X138765579Y-80051495D01*
X138765579Y-79984084D01*
X138831158Y-79984084D01*
X138896737Y-79984084D01*
X138962316Y-79984084D01*
X139027896Y-79984084D01*
X139093475Y-79984084D01*
X139093475Y-80051495D01*
X139159054Y-80051495D01*
X139159054Y-80117440D01*
X139159054Y-80183386D01*
X139159054Y-80249331D01*
X139159054Y-80315277D01*
X139093475Y-80312346D01*
X139093475Y-80378292D01*
X139093475Y-80444237D01*
X139159054Y-80444237D01*
X139159054Y-80510183D01*
X139159054Y-80576128D01*
X139159054Y-80642074D01*
X139159054Y-80708019D01*
X139093475Y-80708019D01*
X139093475Y-80772500D01*
X139027896Y-80772500D01*
G37*
G36*
X139486950Y-80772500D02*
G01*
X139421371Y-80772500D01*
X139355792Y-80772500D01*
X139355792Y-80706783D01*
X139355792Y-80641112D01*
X139355792Y-80575396D01*
X139290212Y-80575396D01*
X139290212Y-80509679D01*
X139290212Y-80444008D01*
X139224633Y-80444008D01*
X139224633Y-80378292D01*
X139224633Y-80312575D01*
X139224633Y-80246904D01*
X139224633Y-80181188D01*
X139224633Y-80115471D01*
X139224633Y-80049800D01*
X139224633Y-79984084D01*
X139290212Y-79984084D01*
X139355792Y-79984084D01*
X139355792Y-80049663D01*
X139355792Y-80115242D01*
X139355792Y-80180821D01*
X139355792Y-80246400D01*
X139355792Y-80311980D01*
X139355792Y-80377559D01*
X139421371Y-80377559D01*
X139421371Y-80443138D01*
X139421371Y-80508717D01*
X139486950Y-80508717D01*
X139486950Y-80443138D01*
X139486950Y-80377559D01*
X139552529Y-80377559D01*
X139552529Y-80311980D01*
X139552529Y-80246400D01*
X139552529Y-80180821D01*
X139552529Y-80115242D01*
X139552529Y-80049663D01*
X139552529Y-79984084D01*
X139618108Y-79984084D01*
X139683688Y-79984084D01*
X139683688Y-80049800D01*
X139683688Y-80115471D01*
X139683688Y-80181188D01*
X139683688Y-80246904D01*
X139683688Y-80312575D01*
X139683688Y-80378292D01*
X139683688Y-80444008D01*
X139618108Y-80444008D01*
X139618108Y-80509679D01*
X139618108Y-80575396D01*
X139552529Y-80575396D01*
X139552529Y-80641112D01*
X139552529Y-80706783D01*
X139552529Y-80772500D01*
X139486950Y-80772500D01*
G37*
G36*
X140077163Y-80772500D02*
G01*
X140011584Y-80772500D01*
X139946004Y-80772500D01*
X139880425Y-80772500D01*
X139814846Y-80772500D01*
X139814846Y-80708019D01*
X139749267Y-80708019D01*
X139749267Y-80642578D01*
X139749267Y-80577090D01*
X139749267Y-80511648D01*
X139814846Y-80511648D01*
X139880425Y-80511648D01*
X139880425Y-80576128D01*
X139880425Y-80640608D01*
X139946004Y-80640608D01*
X140011584Y-80640608D01*
X140077163Y-80640608D01*
X140077163Y-80575167D01*
X140077163Y-80509679D01*
X140077163Y-80444237D01*
X140011584Y-80444237D01*
X139946004Y-80444237D01*
X139880425Y-80444237D01*
X139880425Y-80379757D01*
X139880425Y-80315277D01*
X139946004Y-80315277D01*
X140011584Y-80315277D01*
X140077163Y-80312346D01*
X140077163Y-80247866D01*
X140077163Y-80181920D01*
X140077163Y-80115975D01*
X140011584Y-80115975D01*
X139946004Y-80115975D01*
X139880425Y-80115975D01*
X139880425Y-80181920D01*
X139880425Y-80247866D01*
X139814846Y-80247866D01*
X139749267Y-80247866D01*
X139749267Y-80182424D01*
X139749267Y-80116936D01*
X139749267Y-80051495D01*
X139814846Y-80051495D01*
X139814846Y-79984084D01*
X139880425Y-79984084D01*
X139946004Y-79984084D01*
X140011584Y-79984084D01*
X140077163Y-79984084D01*
X140142742Y-79984084D01*
X140142742Y-80051495D01*
X140208321Y-80051495D01*
X140208321Y-80117440D01*
X140208321Y-80183386D01*
X140208321Y-80249331D01*
X140208321Y-80315277D01*
X140142742Y-80312346D01*
X140142742Y-80378292D01*
X140142742Y-80444237D01*
X140208321Y-80444237D01*
X140208321Y-80510183D01*
X140208321Y-80576128D01*
X140208321Y-80642074D01*
X140208321Y-80708019D01*
X140142742Y-80708019D01*
X140142742Y-80772500D01*
X140077163Y-80772500D01*
G37*
D12*
%TO.C,U3*%
X146050000Y-89350000D02*
X146050000Y-88150000D01*
%TO.C,U2*%
X143400000Y-89350000D02*
X143400000Y-88150000D01*
%TO.C,U1*%
X142950000Y-86250000D02*
X142950000Y-87450000D01*
D13*
%TO.C,C2*%
X141438748Y-83965000D02*
X141961252Y-83965000D01*
X141438748Y-85435000D02*
X141961252Y-85435000D01*
%TO.C,C1*%
X148111252Y-85635000D02*
X147588748Y-85635000D01*
X148111252Y-84165000D02*
X147588748Y-84165000D01*
%TO.C,R4*%
X138190000Y-88535436D02*
X138190000Y-88989564D01*
X139660000Y-88535436D02*
X139660000Y-88989564D01*
%TO.C,D1*%
X149540000Y-87140000D02*
X149540000Y-89825000D01*
X151460000Y-87140000D02*
X149540000Y-87140000D01*
X151460000Y-89825000D02*
X151460000Y-87140000D01*
%TO.C,R3*%
X149765000Y-85677064D02*
X149765000Y-85222936D01*
X151235000Y-85677064D02*
X151235000Y-85222936D01*
%TO.C,D2*%
X137965000Y-84400000D02*
X137965000Y-87085000D01*
X137965000Y-87085000D02*
X139885000Y-87085000D01*
X139885000Y-87085000D02*
X139885000Y-84400000D01*
%TD*%
M02*
