%TF.GenerationSoftware,KiCad,Pcbnew,8.99.0-unknown-079855af18~181~ubuntu22.04.1*%
%TF.CreationDate,2024-11-15T17:57:23-08:00*%
%TF.ProjectId,gb_video_breakout,67625f76-6964-4656-9f5f-627265616b6f,rev?*%
%TF.SameCoordinates,Original*%
%TF.FileFunction,Copper,L2,Bot*%
%TF.FilePolarity,Positive*%
%FSLAX46Y46*%
G04 Gerber Fmt 4.6, Leading zero omitted, Abs format (unit mm)*
G04 Created by KiCad (PCBNEW 8.99.0-unknown-079855af18~181~ubuntu22.04.1) date 2024-11-15 17:57:23*
%MOMM*%
%LPD*%
G01*
G04 APERTURE LIST*
%TA.AperFunction,ComponentPad*%
%ADD10R,1.700000X1.700000*%
%TD*%
%TA.AperFunction,ComponentPad*%
%ADD11O,1.700000X1.700000*%
%TD*%
%TA.AperFunction,ConnectorPad*%
%ADD12R,1.000000X5.000000*%
%TD*%
%TA.AperFunction,ViaPad*%
%ADD13C,0.800000*%
%TD*%
%TA.AperFunction,Conductor*%
%ADD14C,0.250000*%
%TD*%
G04 APERTURE END LIST*
D10*
%TO.P,J1,1,Pin_1*%
%TO.N,+3V3*%
X139425000Y-81850000D03*
D11*
%TO.P,J1,2,Pin_2*%
%TO.N,TX_3V3*%
X141965000Y-81850000D03*
%TO.P,J1,3,Pin_3*%
%TO.N,RX_3V3*%
X144505000Y-81850000D03*
%TO.P,J1,4,Pin_4*%
%TO.N,CLK_3V3*%
X147045000Y-81850000D03*
%TO.P,J1,5,Pin_5*%
%TO.N,GND*%
X149585000Y-81850000D03*
%TD*%
D12*
%TO.P,GB1,1,VDD35*%
%TO.N,unconnected-(GB1-VDD35-Pad1)*%
X142500000Y-94000000D03*
%TO.P,GB1,3,SI*%
%TO.N,RX_5V*%
X144500000Y-94000000D03*
%TO.P,GB1,5,SC*%
%TO.N,CLK_5V*%
X146500000Y-94000000D03*
%TD*%
D13*
%TO.N,+3V3*%
X145881241Y-84052445D03*
X140250000Y-85950000D03*
%TO.N,GND*%
X151100000Y-80550000D03*
X148450000Y-80500000D03*
X145700000Y-80450000D03*
X143350000Y-80450000D03*
X140850000Y-80550000D03*
X137800000Y-81400000D03*
X137950000Y-83250000D03*
X151000000Y-82900000D03*
X148850000Y-83400000D03*
X146900000Y-83400000D03*
X140850000Y-83200000D03*
X143300000Y-83000000D03*
X140250000Y-87850000D03*
X140700000Y-90350000D03*
X148550000Y-90150000D03*
X148600000Y-86750000D03*
X148600000Y-88550000D03*
%TO.N,+3V3*%
X143850000Y-84850000D03*
%TO.N,CLK_5V*%
X146850000Y-90150000D03*
%TO.N,RX_5V*%
X144500000Y-90200000D03*
%TD*%
D14*
%TO.N,RX_5V*%
X144500000Y-90200000D02*
X144500000Y-94000000D01*
%TO.N,CLK_5V*%
X146850000Y-90150000D02*
X146500000Y-90500000D01*
X146500000Y-90500000D02*
X146500000Y-94000000D01*
%TO.N,+3V3*%
X142750000Y-85950000D02*
X143850000Y-84850000D01*
X140250000Y-85950000D02*
X142750000Y-85950000D01*
X145828796Y-84000000D02*
X144700000Y-84000000D01*
X145881241Y-84052445D02*
X145828796Y-84000000D01*
X144700000Y-84000000D02*
X143850000Y-84850000D01*
%TD*%
%TA.AperFunction,Conductor*%
%TO.N,GND*%
G36*
X150806061Y-79901097D02*
G01*
X150816051Y-79902080D01*
X150943824Y-79914665D01*
X150967652Y-79919404D01*
X151094277Y-79957815D01*
X151116725Y-79967114D01*
X151233406Y-80029482D01*
X151253616Y-80042986D01*
X151355891Y-80126920D01*
X151373079Y-80144108D01*
X151457012Y-80246381D01*
X151470517Y-80266593D01*
X151532883Y-80383271D01*
X151542186Y-80405728D01*
X151580593Y-80532338D01*
X151585335Y-80556180D01*
X151598903Y-80693938D01*
X151599500Y-80706092D01*
X151599500Y-89993907D01*
X151598903Y-90006060D01*
X151598903Y-90006061D01*
X151585335Y-90143819D01*
X151580593Y-90167661D01*
X151542186Y-90294271D01*
X151532883Y-90316728D01*
X151470517Y-90433406D01*
X151457012Y-90453618D01*
X151373079Y-90555891D01*
X151355891Y-90573079D01*
X151253618Y-90657012D01*
X151233406Y-90670517D01*
X151116728Y-90732883D01*
X151094271Y-90742186D01*
X150967661Y-90780593D01*
X150943819Y-90785335D01*
X150806062Y-90798903D01*
X150793908Y-90799500D01*
X147931005Y-90799500D01*
X147795677Y-90826418D01*
X147795667Y-90826421D01*
X147668195Y-90879221D01*
X147668182Y-90879228D01*
X147553458Y-90955885D01*
X147553454Y-90955888D01*
X147455888Y-91053454D01*
X147455885Y-91053458D01*
X147379228Y-91168182D01*
X147379225Y-91168188D01*
X147344933Y-91250976D01*
X147301091Y-91305379D01*
X147234797Y-91327443D01*
X147190673Y-91320995D01*
X147175126Y-91315741D01*
X147097740Y-91264034D01*
X147024674Y-91249500D01*
X146979115Y-91249500D01*
X146959801Y-91242973D01*
X146947211Y-91234146D01*
X146932461Y-91229815D01*
X146919189Y-91214499D01*
X146902592Y-91202862D01*
X146896773Y-91188628D01*
X146886706Y-91177011D01*
X146880658Y-91149214D01*
X146876151Y-91138188D01*
X146877120Y-91132950D01*
X146875500Y-91125500D01*
X146875500Y-90909935D01*
X146895185Y-90842896D01*
X146947989Y-90797141D01*
X146975298Y-90788320D01*
X147039744Y-90775501D01*
X147158127Y-90726465D01*
X147264669Y-90655276D01*
X147355276Y-90564669D01*
X147426465Y-90458127D01*
X147475501Y-90339744D01*
X147490554Y-90264069D01*
X147500500Y-90214071D01*
X147500500Y-90085928D01*
X147475502Y-89960261D01*
X147475501Y-89960260D01*
X147475501Y-89960256D01*
X147426465Y-89841873D01*
X147426464Y-89841872D01*
X147426461Y-89841866D01*
X147355276Y-89735331D01*
X147355273Y-89735327D01*
X147264672Y-89644726D01*
X147264668Y-89644723D01*
X147158133Y-89573538D01*
X147158124Y-89573533D01*
X147039744Y-89524499D01*
X147039738Y-89524497D01*
X146914071Y-89499500D01*
X146914069Y-89499500D01*
X146785931Y-89499500D01*
X146785929Y-89499500D01*
X146660261Y-89524497D01*
X146660255Y-89524499D01*
X146541875Y-89573533D01*
X146541866Y-89573538D01*
X146435331Y-89644723D01*
X146435327Y-89644726D01*
X146344726Y-89735327D01*
X146344723Y-89735331D01*
X146273538Y-89841866D01*
X146273533Y-89841875D01*
X146224499Y-89960255D01*
X146224497Y-89960261D01*
X146199500Y-90085928D01*
X146199500Y-90214070D01*
X146200097Y-90220132D01*
X146197627Y-90220375D01*
X146192351Y-90279137D01*
X146184363Y-90295699D01*
X146150090Y-90355061D01*
X146150090Y-90355062D01*
X146124500Y-90450565D01*
X146124500Y-90450567D01*
X146124500Y-91125500D01*
X146104815Y-91192539D01*
X146052011Y-91238294D01*
X146000500Y-91249500D01*
X145975323Y-91249500D01*
X145902264Y-91264032D01*
X145902260Y-91264033D01*
X145819399Y-91319399D01*
X145764033Y-91402260D01*
X145764032Y-91402264D01*
X145749500Y-91475321D01*
X145749500Y-96524678D01*
X145764032Y-96597735D01*
X145764035Y-96597743D01*
X145769960Y-96606610D01*
X145790838Y-96673287D01*
X145772353Y-96740667D01*
X145720374Y-96787357D01*
X145666858Y-96799500D01*
X145333142Y-96799500D01*
X145266103Y-96779815D01*
X145220348Y-96727011D01*
X145210404Y-96657853D01*
X145230040Y-96606610D01*
X145235964Y-96597743D01*
X145235964Y-96597742D01*
X145235966Y-96597740D01*
X145250500Y-96524674D01*
X145250500Y-91475326D01*
X145250500Y-91475323D01*
X145250499Y-91475321D01*
X145235967Y-91402264D01*
X145235966Y-91402260D01*
X145180601Y-91319399D01*
X145097740Y-91264034D01*
X145097739Y-91264033D01*
X145097735Y-91264032D01*
X145024677Y-91249500D01*
X145024674Y-91249500D01*
X144999500Y-91249500D01*
X144932461Y-91229815D01*
X144886706Y-91177011D01*
X144875500Y-91125500D01*
X144875500Y-90795807D01*
X144895185Y-90728768D01*
X144911819Y-90708125D01*
X144914665Y-90705278D01*
X144914669Y-90705276D01*
X145005276Y-90614669D01*
X145076465Y-90508127D01*
X145125501Y-90389744D01*
X145144208Y-90295699D01*
X145150500Y-90264071D01*
X145150500Y-90135928D01*
X145125502Y-90010261D01*
X145125501Y-90010260D01*
X145125501Y-90010256D01*
X145076465Y-89891873D01*
X145076464Y-89891872D01*
X145076461Y-89891866D01*
X145005276Y-89785331D01*
X145005273Y-89785327D01*
X144914672Y-89694726D01*
X144914668Y-89694723D01*
X144808133Y-89623538D01*
X144808124Y-89623533D01*
X144689744Y-89574499D01*
X144689738Y-89574497D01*
X144564071Y-89549500D01*
X144564069Y-89549500D01*
X144435931Y-89549500D01*
X144435929Y-89549500D01*
X144310261Y-89574497D01*
X144310255Y-89574499D01*
X144191875Y-89623533D01*
X144191866Y-89623538D01*
X144085331Y-89694723D01*
X144085327Y-89694726D01*
X143994726Y-89785327D01*
X143994723Y-89785331D01*
X143923538Y-89891866D01*
X143923533Y-89891875D01*
X143874499Y-90010255D01*
X143874497Y-90010261D01*
X143849500Y-90135928D01*
X143849500Y-90135931D01*
X143849500Y-90264069D01*
X143849500Y-90264071D01*
X143849499Y-90264071D01*
X143874497Y-90389738D01*
X143874499Y-90389744D01*
X143923533Y-90508124D01*
X143923538Y-90508133D01*
X143994722Y-90614667D01*
X143994723Y-90614668D01*
X143994724Y-90614669D01*
X144085331Y-90705276D01*
X144085333Y-90705277D01*
X144088181Y-90708125D01*
X144121666Y-90769448D01*
X144124500Y-90795807D01*
X144124500Y-91125500D01*
X144104815Y-91192539D01*
X144052011Y-91238294D01*
X144000500Y-91249500D01*
X143975323Y-91249500D01*
X143902264Y-91264032D01*
X143902260Y-91264033D01*
X143819399Y-91319399D01*
X143764033Y-91402260D01*
X143764032Y-91402264D01*
X143749500Y-91475321D01*
X143749500Y-96524678D01*
X143764032Y-96597735D01*
X143764035Y-96597743D01*
X143769960Y-96606610D01*
X143790838Y-96673287D01*
X143772353Y-96740667D01*
X143720374Y-96787357D01*
X143666858Y-96799500D01*
X143333142Y-96799500D01*
X143266103Y-96779815D01*
X143220348Y-96727011D01*
X143210404Y-96657853D01*
X143230040Y-96606610D01*
X143235964Y-96597743D01*
X143235964Y-96597742D01*
X143235966Y-96597740D01*
X143250500Y-96524674D01*
X143250500Y-91475326D01*
X143250500Y-91475323D01*
X143250499Y-91475321D01*
X143235967Y-91402264D01*
X143235966Y-91402260D01*
X143180601Y-91319399D01*
X143097740Y-91264034D01*
X143097739Y-91264033D01*
X143097735Y-91264032D01*
X143024677Y-91249500D01*
X143024674Y-91249500D01*
X141975326Y-91249500D01*
X141975323Y-91249500D01*
X141902264Y-91264032D01*
X141902260Y-91264033D01*
X141838517Y-91306625D01*
X141771839Y-91327502D01*
X141704459Y-91309017D01*
X141657769Y-91257037D01*
X141655066Y-91250974D01*
X141620778Y-91168195D01*
X141620771Y-91168182D01*
X141544114Y-91053458D01*
X141544111Y-91053454D01*
X141446545Y-90955888D01*
X141446541Y-90955885D01*
X141331817Y-90879228D01*
X141331804Y-90879221D01*
X141204332Y-90826421D01*
X141204322Y-90826418D01*
X141068995Y-90799500D01*
X141068993Y-90799500D01*
X141039882Y-90799500D01*
X138206092Y-90799500D01*
X138193938Y-90798903D01*
X138056180Y-90785335D01*
X138032340Y-90780593D01*
X137905728Y-90742186D01*
X137883271Y-90732883D01*
X137766593Y-90670517D01*
X137746381Y-90657012D01*
X137644108Y-90573079D01*
X137626920Y-90555891D01*
X137587719Y-90508124D01*
X137542986Y-90453616D01*
X137529482Y-90433406D01*
X137487606Y-90355061D01*
X137467114Y-90316725D01*
X137457815Y-90294277D01*
X137419404Y-90167652D01*
X137414665Y-90143824D01*
X137401097Y-90006060D01*
X137400500Y-89993907D01*
X137400500Y-86014071D01*
X139599499Y-86014071D01*
X139624497Y-86139738D01*
X139624499Y-86139744D01*
X139673533Y-86258124D01*
X139673538Y-86258133D01*
X139744723Y-86364668D01*
X139744726Y-86364672D01*
X139835327Y-86455273D01*
X139835331Y-86455276D01*
X139941866Y-86526461D01*
X139941872Y-86526464D01*
X139941873Y-86526465D01*
X140060256Y-86575501D01*
X140060260Y-86575501D01*
X140060261Y-86575502D01*
X140185928Y-86600500D01*
X140185931Y-86600500D01*
X140314071Y-86600500D01*
X140398615Y-86583682D01*
X140439744Y-86575501D01*
X140558127Y-86526465D01*
X140664669Y-86455276D01*
X140664672Y-86455273D01*
X140758127Y-86361819D01*
X140819450Y-86328334D01*
X140845808Y-86325500D01*
X142799434Y-86325500D01*
X142799436Y-86325500D01*
X142845684Y-86313107D01*
X142855458Y-86310489D01*
X142868617Y-86306962D01*
X142894938Y-86299910D01*
X142980562Y-86250475D01*
X143050475Y-86180562D01*
X143694217Y-85536818D01*
X143755540Y-85503334D01*
X143781898Y-85500500D01*
X143914071Y-85500500D01*
X143998615Y-85483682D01*
X144039744Y-85475501D01*
X144158127Y-85426465D01*
X144264669Y-85355276D01*
X144355276Y-85264669D01*
X144426465Y-85158127D01*
X144475501Y-85039744D01*
X144486363Y-84985139D01*
X144500500Y-84914071D01*
X144500500Y-84781898D01*
X144520185Y-84714859D01*
X144536819Y-84694217D01*
X144819218Y-84411819D01*
X144880541Y-84378334D01*
X144906899Y-84375500D01*
X145248471Y-84375500D01*
X145315510Y-84395185D01*
X145351573Y-84430610D01*
X145375961Y-84467109D01*
X145375967Y-84467117D01*
X145466568Y-84557718D01*
X145466572Y-84557721D01*
X145573107Y-84628906D01*
X145573113Y-84628909D01*
X145573114Y-84628910D01*
X145691497Y-84677946D01*
X145691501Y-84677946D01*
X145691502Y-84677947D01*
X145817169Y-84702945D01*
X145817172Y-84702945D01*
X145945312Y-84702945D01*
X146029856Y-84686127D01*
X146070985Y-84677946D01*
X146189368Y-84628910D01*
X146295910Y-84557721D01*
X146386517Y-84467114D01*
X146457706Y-84360572D01*
X146506742Y-84242189D01*
X146531741Y-84116514D01*
X146531741Y-83988376D01*
X146531741Y-83988373D01*
X146506743Y-83862706D01*
X146506742Y-83862705D01*
X146506742Y-83862701D01*
X146457706Y-83744318D01*
X146457705Y-83744317D01*
X146457702Y-83744311D01*
X146386517Y-83637776D01*
X146386514Y-83637772D01*
X146295913Y-83547171D01*
X146295909Y-83547168D01*
X146189374Y-83475983D01*
X146189365Y-83475978D01*
X146070985Y-83426944D01*
X146070979Y-83426942D01*
X145945312Y-83401945D01*
X145945310Y-83401945D01*
X145817172Y-83401945D01*
X145817170Y-83401945D01*
X145691502Y-83426942D01*
X145691496Y-83426944D01*
X145573116Y-83475978D01*
X145573107Y-83475983D01*
X145466572Y-83547168D01*
X145466568Y-83547171D01*
X145425561Y-83588180D01*
X145364238Y-83621666D01*
X145337879Y-83624500D01*
X144650564Y-83624500D01*
X144555061Y-83650089D01*
X144469438Y-83699525D01*
X144469435Y-83699527D01*
X144005781Y-84163181D01*
X143944458Y-84196666D01*
X143918100Y-84199500D01*
X143785929Y-84199500D01*
X143660261Y-84224497D01*
X143660255Y-84224499D01*
X143541875Y-84273533D01*
X143541866Y-84273538D01*
X143435331Y-84344723D01*
X143435327Y-84344726D01*
X143344726Y-84435327D01*
X143344723Y-84435331D01*
X143273538Y-84541866D01*
X143273533Y-84541875D01*
X143224499Y-84660255D01*
X143224497Y-84660261D01*
X143199500Y-84785928D01*
X143199500Y-84918100D01*
X143179815Y-84985139D01*
X143163181Y-85005781D01*
X142630782Y-85538181D01*
X142569459Y-85571666D01*
X142543101Y-85574500D01*
X140845808Y-85574500D01*
X140778769Y-85554815D01*
X140758127Y-85538181D01*
X140664672Y-85444726D01*
X140664668Y-85444723D01*
X140558133Y-85373538D01*
X140558124Y-85373533D01*
X140439744Y-85324499D01*
X140439738Y-85324497D01*
X140314071Y-85299500D01*
X140314069Y-85299500D01*
X140185931Y-85299500D01*
X140185929Y-85299500D01*
X140060261Y-85324497D01*
X140060255Y-85324499D01*
X139941875Y-85373533D01*
X139941866Y-85373538D01*
X139835331Y-85444723D01*
X139835327Y-85444726D01*
X139744726Y-85535327D01*
X139744723Y-85535331D01*
X139673538Y-85641866D01*
X139673533Y-85641875D01*
X139624499Y-85760255D01*
X139624497Y-85760261D01*
X139599500Y-85885928D01*
X139599500Y-85885931D01*
X139599500Y-86014069D01*
X139599500Y-86014071D01*
X139599499Y-86014071D01*
X137400500Y-86014071D01*
X137400500Y-80975321D01*
X138324500Y-80975321D01*
X138324500Y-82724678D01*
X138339032Y-82797735D01*
X138339033Y-82797739D01*
X138339034Y-82797740D01*
X138394399Y-82880601D01*
X138477260Y-82935966D01*
X138477264Y-82935967D01*
X138550321Y-82950499D01*
X138550324Y-82950500D01*
X138550326Y-82950500D01*
X140299676Y-82950500D01*
X140299677Y-82950499D01*
X140372740Y-82935966D01*
X140455601Y-82880601D01*
X140510966Y-82797740D01*
X140525500Y-82724674D01*
X140525500Y-81763389D01*
X140864500Y-81763389D01*
X140864500Y-81936610D01*
X140891579Y-82107585D01*
X140891598Y-82107701D01*
X140945127Y-82272445D01*
X141023768Y-82426788D01*
X141125586Y-82566928D01*
X141248072Y-82689414D01*
X141388212Y-82791232D01*
X141542555Y-82869873D01*
X141707299Y-82923402D01*
X141878389Y-82950500D01*
X141878390Y-82950500D01*
X142051610Y-82950500D01*
X142051611Y-82950500D01*
X142222701Y-82923402D01*
X142387445Y-82869873D01*
X142541788Y-82791232D01*
X142681928Y-82689414D01*
X142804414Y-82566928D01*
X142906232Y-82426788D01*
X142984873Y-82272445D01*
X143038402Y-82107701D01*
X143065500Y-81936611D01*
X143065500Y-81763389D01*
X143404500Y-81763389D01*
X143404500Y-81936610D01*
X143431579Y-82107585D01*
X143431598Y-82107701D01*
X143485127Y-82272445D01*
X143563768Y-82426788D01*
X143665586Y-82566928D01*
X143788072Y-82689414D01*
X143928212Y-82791232D01*
X144082555Y-82869873D01*
X144247299Y-82923402D01*
X144418389Y-82950500D01*
X144418390Y-82950500D01*
X144591610Y-82950500D01*
X144591611Y-82950500D01*
X144762701Y-82923402D01*
X144927445Y-82869873D01*
X145081788Y-82791232D01*
X145221928Y-82689414D01*
X145344414Y-82566928D01*
X145446232Y-82426788D01*
X145524873Y-82272445D01*
X145578402Y-82107701D01*
X145605500Y-81936611D01*
X145605500Y-81763389D01*
X145944500Y-81763389D01*
X145944500Y-81936610D01*
X145971579Y-82107585D01*
X145971598Y-82107701D01*
X146025127Y-82272445D01*
X146103768Y-82426788D01*
X146205586Y-82566928D01*
X146328072Y-82689414D01*
X146468212Y-82791232D01*
X146622555Y-82869873D01*
X146787299Y-82923402D01*
X146958389Y-82950500D01*
X146958390Y-82950500D01*
X147131610Y-82950500D01*
X147131611Y-82950500D01*
X147302701Y-82923402D01*
X147467445Y-82869873D01*
X147621788Y-82791232D01*
X147761928Y-82689414D01*
X147884414Y-82566928D01*
X147986232Y-82426788D01*
X148064873Y-82272445D01*
X148118402Y-82107701D01*
X148145500Y-81936611D01*
X148145500Y-81763389D01*
X148139420Y-81725000D01*
X148491086Y-81725000D01*
X149100856Y-81725000D01*
X149085000Y-81784174D01*
X149085000Y-81915826D01*
X149100856Y-81975000D01*
X148491086Y-81975000D01*
X148512086Y-82107585D01*
X148565591Y-82272257D01*
X148644195Y-82426524D01*
X148745967Y-82566602D01*
X148868397Y-82689032D01*
X149008475Y-82790804D01*
X149162744Y-82869408D01*
X149327415Y-82922913D01*
X149460000Y-82943913D01*
X149460000Y-82334144D01*
X149519174Y-82350000D01*
X149650826Y-82350000D01*
X149710000Y-82334144D01*
X149710000Y-82943912D01*
X149842584Y-82922913D01*
X150007255Y-82869408D01*
X150161524Y-82790804D01*
X150301602Y-82689032D01*
X150424032Y-82566602D01*
X150525804Y-82426524D01*
X150604408Y-82272257D01*
X150657913Y-82107585D01*
X150678914Y-81975000D01*
X150069144Y-81975000D01*
X150085000Y-81915826D01*
X150085000Y-81784174D01*
X150069144Y-81725000D01*
X150678914Y-81725000D01*
X150657913Y-81592414D01*
X150604408Y-81427742D01*
X150525804Y-81273475D01*
X150424032Y-81133397D01*
X150301602Y-81010967D01*
X150161524Y-80909195D01*
X150007257Y-80830591D01*
X149842585Y-80777086D01*
X149710000Y-80756086D01*
X149710000Y-81365855D01*
X149650826Y-81350000D01*
X149519174Y-81350000D01*
X149460000Y-81365855D01*
X149460000Y-80756086D01*
X149327414Y-80777086D01*
X149162742Y-80830591D01*
X149008475Y-80909195D01*
X148868397Y-81010967D01*
X148745967Y-81133397D01*
X148644195Y-81273475D01*
X148565591Y-81427742D01*
X148512086Y-81592414D01*
X148491086Y-81725000D01*
X148139420Y-81725000D01*
X148118402Y-81592299D01*
X148064873Y-81427555D01*
X147986232Y-81273212D01*
X147884414Y-81133072D01*
X147761928Y-81010586D01*
X147621788Y-80908768D01*
X147467445Y-80830127D01*
X147302701Y-80776598D01*
X147302699Y-80776597D01*
X147302698Y-80776597D01*
X147171271Y-80755781D01*
X147131611Y-80749500D01*
X146958389Y-80749500D01*
X146918728Y-80755781D01*
X146787302Y-80776597D01*
X146622552Y-80830128D01*
X146468211Y-80908768D01*
X146388256Y-80966859D01*
X146328072Y-81010586D01*
X146328070Y-81010588D01*
X146328069Y-81010588D01*
X146205588Y-81133069D01*
X146205588Y-81133070D01*
X146205586Y-81133072D01*
X146205350Y-81133397D01*
X146103768Y-81273211D01*
X146025128Y-81427552D01*
X145971597Y-81592302D01*
X145944500Y-81763389D01*
X145605500Y-81763389D01*
X145578402Y-81592299D01*
X145524873Y-81427555D01*
X145446232Y-81273212D01*
X145344414Y-81133072D01*
X145221928Y-81010586D01*
X145081788Y-80908768D01*
X144927445Y-80830127D01*
X144762701Y-80776598D01*
X144762699Y-80776597D01*
X144762698Y-80776597D01*
X144631271Y-80755781D01*
X144591611Y-80749500D01*
X144418389Y-80749500D01*
X144378728Y-80755781D01*
X144247302Y-80776597D01*
X144082552Y-80830128D01*
X143928211Y-80908768D01*
X143848256Y-80966859D01*
X143788072Y-81010586D01*
X143788070Y-81010588D01*
X143788069Y-81010588D01*
X143665588Y-81133069D01*
X143665588Y-81133070D01*
X143665586Y-81133072D01*
X143665350Y-81133397D01*
X143563768Y-81273211D01*
X143485128Y-81427552D01*
X143431597Y-81592302D01*
X143404500Y-81763389D01*
X143065500Y-81763389D01*
X143038402Y-81592299D01*
X142984873Y-81427555D01*
X142906232Y-81273212D01*
X142804414Y-81133072D01*
X142681928Y-81010586D01*
X142541788Y-80908768D01*
X142387445Y-80830127D01*
X142222701Y-80776598D01*
X142222699Y-80776597D01*
X142222698Y-80776597D01*
X142091271Y-80755781D01*
X142051611Y-80749500D01*
X141878389Y-80749500D01*
X141838728Y-80755781D01*
X141707302Y-80776597D01*
X141542552Y-80830128D01*
X141388211Y-80908768D01*
X141308256Y-80966859D01*
X141248072Y-81010586D01*
X141248070Y-81010588D01*
X141248069Y-81010588D01*
X141125588Y-81133069D01*
X141125588Y-81133070D01*
X141125586Y-81133072D01*
X141125350Y-81133397D01*
X141023768Y-81273211D01*
X140945128Y-81427552D01*
X140891597Y-81592302D01*
X140864500Y-81763389D01*
X140525500Y-81763389D01*
X140525500Y-80975326D01*
X140525500Y-80975323D01*
X140525499Y-80975321D01*
X140510967Y-80902264D01*
X140510966Y-80902260D01*
X140455601Y-80819399D01*
X140372740Y-80764034D01*
X140372739Y-80764033D01*
X140372735Y-80764032D01*
X140299677Y-80749500D01*
X140299674Y-80749500D01*
X138550326Y-80749500D01*
X138550323Y-80749500D01*
X138477264Y-80764032D01*
X138477260Y-80764033D01*
X138394399Y-80819399D01*
X138339033Y-80902260D01*
X138339032Y-80902264D01*
X138324500Y-80975321D01*
X137400500Y-80975321D01*
X137400500Y-80706092D01*
X137401097Y-80693939D01*
X137409805Y-80605519D01*
X137414665Y-80556171D01*
X137419403Y-80532349D01*
X137457816Y-80405719D01*
X137467113Y-80383278D01*
X137529485Y-80266587D01*
X137542982Y-80246387D01*
X137626924Y-80144103D01*
X137644103Y-80126924D01*
X137746387Y-80042982D01*
X137766587Y-80029485D01*
X137883278Y-79967113D01*
X137905719Y-79957816D01*
X138032349Y-79919403D01*
X138056173Y-79914665D01*
X138185170Y-79901960D01*
X138193939Y-79901097D01*
X138206092Y-79900500D01*
X138239882Y-79900500D01*
X150760118Y-79900500D01*
X150793908Y-79900500D01*
X150806061Y-79901097D01*
G37*
%TD.AperFunction*%
%TD*%
M02*
