%TF.GenerationSoftware,KiCad,Pcbnew,8.99.0-unknown-079855af18~181~ubuntu22.04.1*%
%TF.CreationDate,2024-11-15T17:57:20-08:00*%
%TF.ProjectId,gb_video_breakout,67625f76-6964-4656-9f5f-627265616b6f,rev?*%
%TF.SameCoordinates,Original*%
%TF.FileFunction,Drillmap*%
%TF.FilePolarity,Positive*%
%FSLAX45Y45*%
G04 Gerber Fmt 4.5, Leading zero omitted, Abs format (unit mm)*
G04 Created by KiCad (PCBNEW 8.99.0-unknown-079855af18~181~ubuntu22.04.1) date 2024-11-15 17:57:20*
%MOMM*%
%LPD*%
G01*
G04 APERTURE LIST*
%ADD10C,0.100000*%
%ADD11C,0.200000*%
G04 APERTURE END LIST*
D10*
X13820000Y-7970000D02*
X15080000Y-7970000D01*
X13720000Y-8070000D02*
G75*
G02*
X13820000Y-7970000I100000J0D01*
G01*
X15080000Y-7970000D02*
G75*
G02*
X15180000Y-8070000I0J-100000D01*
G01*
X13820000Y-9100000D02*
G75*
G02*
X13720000Y-9000000I0J100000D01*
G01*
X15180000Y-9000000D02*
G75*
G02*
X15080000Y-9100000I-100000J0D01*
G01*
X13720000Y-9000000D02*
X13720000Y-8070000D01*
X15180000Y-9000000D02*
X15180000Y-8070000D01*
X13820000Y-9100000D02*
X14100000Y-9100000D01*
X14800000Y-9100000D02*
X15080000Y-9100000D01*
X14200000Y-9700000D02*
G75*
G02*
X14150000Y-9650000I0J50000D01*
G01*
X14200000Y-9700000D02*
X14700000Y-9700000D01*
X14100000Y-9100000D02*
G75*
G02*
X14150000Y-9150000I0J-50000D01*
G01*
X14750000Y-9650000D02*
X14750000Y-9150000D01*
X14750000Y-9650000D02*
G75*
G02*
X14700000Y-9700000I-50000J0D01*
G01*
X14150000Y-9650000D02*
X14150000Y-9150000D01*
X14750000Y-9150000D02*
G75*
G02*
X14800000Y-9100000I50000J0D01*
G01*
D11*
D10*
X13760000Y-8120000D02*
X13800000Y-8160000D01*
X13800000Y-8120000D02*
X13760000Y-8160000D01*
X13775000Y-8305000D02*
X13815000Y-8345000D01*
X13815000Y-8305000D02*
X13775000Y-8345000D01*
X14005000Y-8575000D02*
X14045000Y-8615000D01*
X14045000Y-8575000D02*
X14005000Y-8615000D01*
X14005000Y-8765000D02*
X14045000Y-8805000D01*
X14045000Y-8765000D02*
X14005000Y-8805000D01*
X14050000Y-9015000D02*
X14090000Y-9055000D01*
X14090000Y-9015000D02*
X14050000Y-9055000D01*
X14065000Y-8035000D02*
X14105000Y-8075000D01*
X14105000Y-8035000D02*
X14065000Y-8075000D01*
X14065000Y-8300000D02*
X14105000Y-8340000D01*
X14105000Y-8300000D02*
X14065000Y-8340000D01*
X14310000Y-8280000D02*
X14350000Y-8320000D01*
X14350000Y-8280000D02*
X14310000Y-8320000D01*
X14315000Y-8025000D02*
X14355000Y-8065000D01*
X14355000Y-8025000D02*
X14315000Y-8065000D01*
X14365000Y-8465000D02*
X14405000Y-8505000D01*
X14405000Y-8465000D02*
X14365000Y-8505000D01*
X14430000Y-9000000D02*
X14470000Y-9040000D01*
X14470000Y-9000000D02*
X14430000Y-9040000D01*
X14550000Y-8025000D02*
X14590000Y-8065000D01*
X14590000Y-8025000D02*
X14550000Y-8065000D01*
X14568124Y-8385244D02*
X14608124Y-8425245D01*
X14608124Y-8385244D02*
X14568124Y-8425245D01*
X14665000Y-8995000D02*
X14705000Y-9035000D01*
X14705000Y-8995000D02*
X14665000Y-9035000D01*
X14670000Y-8320000D02*
X14710000Y-8360000D01*
X14710000Y-8320000D02*
X14670000Y-8360000D01*
X14825000Y-8030000D02*
X14865000Y-8070000D01*
X14865000Y-8030000D02*
X14825000Y-8070000D01*
X14835000Y-8995000D02*
X14875000Y-9035000D01*
X14875000Y-8995000D02*
X14835000Y-9035000D01*
X14840000Y-8655000D02*
X14880000Y-8695000D01*
X14880000Y-8655000D02*
X14840000Y-8695000D01*
X14840000Y-8835000D02*
X14880000Y-8875000D01*
X14880000Y-8835000D02*
X14840000Y-8875000D01*
X14865000Y-8320000D02*
X14905000Y-8360000D01*
X14905000Y-8320000D02*
X14865000Y-8360000D01*
X15080000Y-8270000D02*
X15120000Y-8310000D01*
X15120000Y-8270000D02*
X15080000Y-8310000D01*
X15090000Y-8035000D02*
X15130000Y-8075000D01*
X15130000Y-8035000D02*
X15090000Y-8075000D01*
X13992500Y-8185000D02*
G75*
G02*
X13892500Y-8185000I-50000J0D01*
G01*
X13892500Y-8185000D02*
G75*
G02*
X13992500Y-8185000I50000J0D01*
G01*
X14246500Y-8185000D02*
G75*
G02*
X14146500Y-8185000I-50000J0D01*
G01*
X14146500Y-8185000D02*
G75*
G02*
X14246500Y-8185000I50000J0D01*
G01*
X14500500Y-8185000D02*
G75*
G02*
X14400500Y-8185000I-50000J0D01*
G01*
X14400500Y-8185000D02*
G75*
G02*
X14500500Y-8185000I50000J0D01*
G01*
X14754500Y-8185000D02*
G75*
G02*
X14654500Y-8185000I-50000J0D01*
G01*
X14654500Y-8185000D02*
G75*
G02*
X14754500Y-8185000I50000J0D01*
G01*
X15008500Y-8185000D02*
G75*
G02*
X14908500Y-8185000I-50000J0D01*
G01*
X14908500Y-8185000D02*
G75*
G02*
X15008500Y-8185000I50000J0D01*
G01*
D11*
X13975777Y-10016484D02*
X13975777Y-9816484D01*
X13975777Y-9816484D02*
X14023396Y-9816484D01*
X14023396Y-9816484D02*
X14051967Y-9826008D01*
X14051967Y-9826008D02*
X14071015Y-9845055D01*
X14071015Y-9845055D02*
X14080539Y-9864103D01*
X14080539Y-9864103D02*
X14090062Y-9902198D01*
X14090062Y-9902198D02*
X14090062Y-9930770D01*
X14090062Y-9930770D02*
X14080539Y-9968865D01*
X14080539Y-9968865D02*
X14071015Y-9987912D01*
X14071015Y-9987912D02*
X14051967Y-10006960D01*
X14051967Y-10006960D02*
X14023396Y-10016484D01*
X14023396Y-10016484D02*
X13975777Y-10016484D01*
X14175777Y-10016484D02*
X14175777Y-9883150D01*
X14175777Y-9921246D02*
X14185301Y-9902198D01*
X14185301Y-9902198D02*
X14194824Y-9892674D01*
X14194824Y-9892674D02*
X14213872Y-9883150D01*
X14213872Y-9883150D02*
X14232920Y-9883150D01*
X14299586Y-10016484D02*
X14299586Y-9883150D01*
X14299586Y-9816484D02*
X14290062Y-9826008D01*
X14290062Y-9826008D02*
X14299586Y-9835531D01*
X14299586Y-9835531D02*
X14309110Y-9826008D01*
X14309110Y-9826008D02*
X14299586Y-9816484D01*
X14299586Y-9816484D02*
X14299586Y-9835531D01*
X14423396Y-10016484D02*
X14404348Y-10006960D01*
X14404348Y-10006960D02*
X14394824Y-9987912D01*
X14394824Y-9987912D02*
X14394824Y-9816484D01*
X14528158Y-10016484D02*
X14509110Y-10006960D01*
X14509110Y-10006960D02*
X14499586Y-9987912D01*
X14499586Y-9987912D02*
X14499586Y-9816484D01*
X14756729Y-10016484D02*
X14756729Y-9816484D01*
X14756729Y-9816484D02*
X14823396Y-9959341D01*
X14823396Y-9959341D02*
X14890062Y-9816484D01*
X14890062Y-9816484D02*
X14890062Y-10016484D01*
X15071015Y-10016484D02*
X15071015Y-9911722D01*
X15071015Y-9911722D02*
X15061491Y-9892674D01*
X15061491Y-9892674D02*
X15042443Y-9883150D01*
X15042443Y-9883150D02*
X15004348Y-9883150D01*
X15004348Y-9883150D02*
X14985301Y-9892674D01*
X15071015Y-10006960D02*
X15051967Y-10016484D01*
X15051967Y-10016484D02*
X15004348Y-10016484D01*
X15004348Y-10016484D02*
X14985301Y-10006960D01*
X14985301Y-10006960D02*
X14975777Y-9987912D01*
X14975777Y-9987912D02*
X14975777Y-9968865D01*
X14975777Y-9968865D02*
X14985301Y-9949817D01*
X14985301Y-9949817D02*
X15004348Y-9940293D01*
X15004348Y-9940293D02*
X15051967Y-9940293D01*
X15051967Y-9940293D02*
X15071015Y-9930770D01*
X15166253Y-9883150D02*
X15166253Y-10083150D01*
X15166253Y-9892674D02*
X15185301Y-9883150D01*
X15185301Y-9883150D02*
X15223396Y-9883150D01*
X15223396Y-9883150D02*
X15242443Y-9892674D01*
X15242443Y-9892674D02*
X15251967Y-9902198D01*
X15251967Y-9902198D02*
X15261491Y-9921246D01*
X15261491Y-9921246D02*
X15261491Y-9978389D01*
X15261491Y-9978389D02*
X15251967Y-9997436D01*
X15251967Y-9997436D02*
X15242443Y-10006960D01*
X15242443Y-10006960D02*
X15223396Y-10016484D01*
X15223396Y-10016484D02*
X15185301Y-10016484D01*
X15185301Y-10016484D02*
X15166253Y-10006960D01*
X15347205Y-9997436D02*
X15356729Y-10006960D01*
X15356729Y-10006960D02*
X15347205Y-10016484D01*
X15347205Y-10016484D02*
X15337682Y-10006960D01*
X15337682Y-10006960D02*
X15347205Y-9997436D01*
X15347205Y-9997436D02*
X15347205Y-10016484D01*
X15347205Y-9892674D02*
X15356729Y-9902198D01*
X15356729Y-9902198D02*
X15347205Y-9911722D01*
X15347205Y-9911722D02*
X15337682Y-9902198D01*
X15337682Y-9902198D02*
X15347205Y-9892674D01*
X15347205Y-9892674D02*
X15347205Y-9911722D01*
D10*
X13675000Y-10325000D02*
X13715000Y-10365000D01*
X13715000Y-10325000D02*
X13675000Y-10365000D01*
D11*
X14013872Y-10236484D02*
X14032920Y-10236484D01*
X14032920Y-10236484D02*
X14051967Y-10246008D01*
X14051967Y-10246008D02*
X14061491Y-10255531D01*
X14061491Y-10255531D02*
X14071015Y-10274579D01*
X14071015Y-10274579D02*
X14080539Y-10312674D01*
X14080539Y-10312674D02*
X14080539Y-10360293D01*
X14080539Y-10360293D02*
X14071015Y-10398389D01*
X14071015Y-10398389D02*
X14061491Y-10417436D01*
X14061491Y-10417436D02*
X14051967Y-10426960D01*
X14051967Y-10426960D02*
X14032920Y-10436484D01*
X14032920Y-10436484D02*
X14013872Y-10436484D01*
X14013872Y-10436484D02*
X13994824Y-10426960D01*
X13994824Y-10426960D02*
X13985301Y-10417436D01*
X13985301Y-10417436D02*
X13975777Y-10398389D01*
X13975777Y-10398389D02*
X13966253Y-10360293D01*
X13966253Y-10360293D02*
X13966253Y-10312674D01*
X13966253Y-10312674D02*
X13975777Y-10274579D01*
X13975777Y-10274579D02*
X13985301Y-10255531D01*
X13985301Y-10255531D02*
X13994824Y-10246008D01*
X13994824Y-10246008D02*
X14013872Y-10236484D01*
X14166253Y-10417436D02*
X14175777Y-10426960D01*
X14175777Y-10426960D02*
X14166253Y-10436484D01*
X14166253Y-10436484D02*
X14156729Y-10426960D01*
X14156729Y-10426960D02*
X14166253Y-10417436D01*
X14166253Y-10417436D02*
X14166253Y-10436484D01*
X14347205Y-10303150D02*
X14347205Y-10436484D01*
X14299586Y-10226960D02*
X14251967Y-10369817D01*
X14251967Y-10369817D02*
X14375777Y-10369817D01*
X14490062Y-10236484D02*
X14509110Y-10236484D01*
X14509110Y-10236484D02*
X14528158Y-10246008D01*
X14528158Y-10246008D02*
X14537682Y-10255531D01*
X14537682Y-10255531D02*
X14547205Y-10274579D01*
X14547205Y-10274579D02*
X14556729Y-10312674D01*
X14556729Y-10312674D02*
X14556729Y-10360293D01*
X14556729Y-10360293D02*
X14547205Y-10398389D01*
X14547205Y-10398389D02*
X14537682Y-10417436D01*
X14537682Y-10417436D02*
X14528158Y-10426960D01*
X14528158Y-10426960D02*
X14509110Y-10436484D01*
X14509110Y-10436484D02*
X14490062Y-10436484D01*
X14490062Y-10436484D02*
X14471015Y-10426960D01*
X14471015Y-10426960D02*
X14461491Y-10417436D01*
X14461491Y-10417436D02*
X14451967Y-10398389D01*
X14451967Y-10398389D02*
X14442443Y-10360293D01*
X14442443Y-10360293D02*
X14442443Y-10312674D01*
X14442443Y-10312674D02*
X14451967Y-10274579D01*
X14451967Y-10274579D02*
X14461491Y-10255531D01*
X14461491Y-10255531D02*
X14471015Y-10246008D01*
X14471015Y-10246008D02*
X14490062Y-10236484D01*
X14680539Y-10236484D02*
X14699586Y-10236484D01*
X14699586Y-10236484D02*
X14718634Y-10246008D01*
X14718634Y-10246008D02*
X14728158Y-10255531D01*
X14728158Y-10255531D02*
X14737682Y-10274579D01*
X14737682Y-10274579D02*
X14747205Y-10312674D01*
X14747205Y-10312674D02*
X14747205Y-10360293D01*
X14747205Y-10360293D02*
X14737682Y-10398389D01*
X14737682Y-10398389D02*
X14728158Y-10417436D01*
X14728158Y-10417436D02*
X14718634Y-10426960D01*
X14718634Y-10426960D02*
X14699586Y-10436484D01*
X14699586Y-10436484D02*
X14680539Y-10436484D01*
X14680539Y-10436484D02*
X14661491Y-10426960D01*
X14661491Y-10426960D02*
X14651967Y-10417436D01*
X14651967Y-10417436D02*
X14642443Y-10398389D01*
X14642443Y-10398389D02*
X14632920Y-10360293D01*
X14632920Y-10360293D02*
X14632920Y-10312674D01*
X14632920Y-10312674D02*
X14642443Y-10274579D01*
X14642443Y-10274579D02*
X14651967Y-10255531D01*
X14651967Y-10255531D02*
X14661491Y-10246008D01*
X14661491Y-10246008D02*
X14680539Y-10236484D01*
X14832920Y-10436484D02*
X14832920Y-10303150D01*
X14832920Y-10322198D02*
X14842443Y-10312674D01*
X14842443Y-10312674D02*
X14861491Y-10303150D01*
X14861491Y-10303150D02*
X14890063Y-10303150D01*
X14890063Y-10303150D02*
X14909110Y-10312674D01*
X14909110Y-10312674D02*
X14918634Y-10331722D01*
X14918634Y-10331722D02*
X14918634Y-10436484D01*
X14918634Y-10331722D02*
X14928158Y-10312674D01*
X14928158Y-10312674D02*
X14947205Y-10303150D01*
X14947205Y-10303150D02*
X14975777Y-10303150D01*
X14975777Y-10303150D02*
X14994824Y-10312674D01*
X14994824Y-10312674D02*
X15004348Y-10331722D01*
X15004348Y-10331722D02*
X15004348Y-10436484D01*
X15099586Y-10436484D02*
X15099586Y-10303150D01*
X15099586Y-10322198D02*
X15109110Y-10312674D01*
X15109110Y-10312674D02*
X15128158Y-10303150D01*
X15128158Y-10303150D02*
X15156729Y-10303150D01*
X15156729Y-10303150D02*
X15175777Y-10312674D01*
X15175777Y-10312674D02*
X15185301Y-10331722D01*
X15185301Y-10331722D02*
X15185301Y-10436484D01*
X15185301Y-10331722D02*
X15194824Y-10312674D01*
X15194824Y-10312674D02*
X15213872Y-10303150D01*
X15213872Y-10303150D02*
X15242443Y-10303150D01*
X15242443Y-10303150D02*
X15261491Y-10312674D01*
X15261491Y-10312674D02*
X15271015Y-10331722D01*
X15271015Y-10331722D02*
X15271015Y-10436484D01*
X15661491Y-10226960D02*
X15490063Y-10484103D01*
X15918634Y-10236484D02*
X15937682Y-10236484D01*
X15937682Y-10236484D02*
X15956729Y-10246008D01*
X15956729Y-10246008D02*
X15966253Y-10255531D01*
X15966253Y-10255531D02*
X15975777Y-10274579D01*
X15975777Y-10274579D02*
X15985301Y-10312674D01*
X15985301Y-10312674D02*
X15985301Y-10360293D01*
X15985301Y-10360293D02*
X15975777Y-10398389D01*
X15975777Y-10398389D02*
X15966253Y-10417436D01*
X15966253Y-10417436D02*
X15956729Y-10426960D01*
X15956729Y-10426960D02*
X15937682Y-10436484D01*
X15937682Y-10436484D02*
X15918634Y-10436484D01*
X15918634Y-10436484D02*
X15899586Y-10426960D01*
X15899586Y-10426960D02*
X15890063Y-10417436D01*
X15890063Y-10417436D02*
X15880539Y-10398389D01*
X15880539Y-10398389D02*
X15871015Y-10360293D01*
X15871015Y-10360293D02*
X15871015Y-10312674D01*
X15871015Y-10312674D02*
X15880539Y-10274579D01*
X15880539Y-10274579D02*
X15890063Y-10255531D01*
X15890063Y-10255531D02*
X15899586Y-10246008D01*
X15899586Y-10246008D02*
X15918634Y-10236484D01*
X16071015Y-10417436D02*
X16080539Y-10426960D01*
X16080539Y-10426960D02*
X16071015Y-10436484D01*
X16071015Y-10436484D02*
X16061491Y-10426960D01*
X16061491Y-10426960D02*
X16071015Y-10417436D01*
X16071015Y-10417436D02*
X16071015Y-10436484D01*
X16204348Y-10236484D02*
X16223396Y-10236484D01*
X16223396Y-10236484D02*
X16242444Y-10246008D01*
X16242444Y-10246008D02*
X16251967Y-10255531D01*
X16251967Y-10255531D02*
X16261491Y-10274579D01*
X16261491Y-10274579D02*
X16271015Y-10312674D01*
X16271015Y-10312674D02*
X16271015Y-10360293D01*
X16271015Y-10360293D02*
X16261491Y-10398389D01*
X16261491Y-10398389D02*
X16251967Y-10417436D01*
X16251967Y-10417436D02*
X16242444Y-10426960D01*
X16242444Y-10426960D02*
X16223396Y-10436484D01*
X16223396Y-10436484D02*
X16204348Y-10436484D01*
X16204348Y-10436484D02*
X16185301Y-10426960D01*
X16185301Y-10426960D02*
X16175777Y-10417436D01*
X16175777Y-10417436D02*
X16166253Y-10398389D01*
X16166253Y-10398389D02*
X16156729Y-10360293D01*
X16156729Y-10360293D02*
X16156729Y-10312674D01*
X16156729Y-10312674D02*
X16166253Y-10274579D01*
X16166253Y-10274579D02*
X16175777Y-10255531D01*
X16175777Y-10255531D02*
X16185301Y-10246008D01*
X16185301Y-10246008D02*
X16204348Y-10236484D01*
X16461491Y-10436484D02*
X16347206Y-10436484D01*
X16404348Y-10436484D02*
X16404348Y-10236484D01*
X16404348Y-10236484D02*
X16385301Y-10265055D01*
X16385301Y-10265055D02*
X16366253Y-10284103D01*
X16366253Y-10284103D02*
X16347206Y-10293627D01*
X16642444Y-10236484D02*
X16547206Y-10236484D01*
X16547206Y-10236484D02*
X16537682Y-10331722D01*
X16537682Y-10331722D02*
X16547206Y-10322198D01*
X16547206Y-10322198D02*
X16566253Y-10312674D01*
X16566253Y-10312674D02*
X16613872Y-10312674D01*
X16613872Y-10312674D02*
X16632920Y-10322198D01*
X16632920Y-10322198D02*
X16642444Y-10331722D01*
X16642444Y-10331722D02*
X16651967Y-10350770D01*
X16651967Y-10350770D02*
X16651967Y-10398389D01*
X16651967Y-10398389D02*
X16642444Y-10417436D01*
X16642444Y-10417436D02*
X16632920Y-10426960D01*
X16632920Y-10426960D02*
X16613872Y-10436484D01*
X16613872Y-10436484D02*
X16566253Y-10436484D01*
X16566253Y-10436484D02*
X16547206Y-10426960D01*
X16547206Y-10426960D02*
X16537682Y-10417436D01*
X16718634Y-10236484D02*
X16851968Y-10236484D01*
X16851968Y-10236484D02*
X16766253Y-10436484D01*
X16918634Y-10236484D02*
X16918634Y-10274579D01*
X16994825Y-10236484D02*
X16994825Y-10274579D01*
X17290063Y-10512674D02*
X17280539Y-10503150D01*
X17280539Y-10503150D02*
X17261491Y-10474579D01*
X17261491Y-10474579D02*
X17251968Y-10455531D01*
X17251968Y-10455531D02*
X17242444Y-10426960D01*
X17242444Y-10426960D02*
X17232920Y-10379341D01*
X17232920Y-10379341D02*
X17232920Y-10341246D01*
X17232920Y-10341246D02*
X17242444Y-10293627D01*
X17242444Y-10293627D02*
X17251968Y-10265055D01*
X17251968Y-10265055D02*
X17261491Y-10246008D01*
X17261491Y-10246008D02*
X17280539Y-10217436D01*
X17280539Y-10217436D02*
X17290063Y-10207912D01*
X17356730Y-10255531D02*
X17366253Y-10246008D01*
X17366253Y-10246008D02*
X17385301Y-10236484D01*
X17385301Y-10236484D02*
X17432920Y-10236484D01*
X17432920Y-10236484D02*
X17451968Y-10246008D01*
X17451968Y-10246008D02*
X17461491Y-10255531D01*
X17461491Y-10255531D02*
X17471015Y-10274579D01*
X17471015Y-10274579D02*
X17471015Y-10293627D01*
X17471015Y-10293627D02*
X17461491Y-10322198D01*
X17461491Y-10322198D02*
X17347206Y-10436484D01*
X17347206Y-10436484D02*
X17471015Y-10436484D01*
X17547206Y-10255531D02*
X17556730Y-10246008D01*
X17556730Y-10246008D02*
X17575777Y-10236484D01*
X17575777Y-10236484D02*
X17623396Y-10236484D01*
X17623396Y-10236484D02*
X17642444Y-10246008D01*
X17642444Y-10246008D02*
X17651968Y-10255531D01*
X17651968Y-10255531D02*
X17661491Y-10274579D01*
X17661491Y-10274579D02*
X17661491Y-10293627D01*
X17661491Y-10293627D02*
X17651968Y-10322198D01*
X17651968Y-10322198D02*
X17537682Y-10436484D01*
X17537682Y-10436484D02*
X17661491Y-10436484D01*
X17899587Y-10436484D02*
X17899587Y-10236484D01*
X17985301Y-10436484D02*
X17985301Y-10331722D01*
X17985301Y-10331722D02*
X17975777Y-10312674D01*
X17975777Y-10312674D02*
X17956730Y-10303150D01*
X17956730Y-10303150D02*
X17928158Y-10303150D01*
X17928158Y-10303150D02*
X17909111Y-10312674D01*
X17909111Y-10312674D02*
X17899587Y-10322198D01*
X18109111Y-10436484D02*
X18090063Y-10426960D01*
X18090063Y-10426960D02*
X18080539Y-10417436D01*
X18080539Y-10417436D02*
X18071015Y-10398389D01*
X18071015Y-10398389D02*
X18071015Y-10341246D01*
X18071015Y-10341246D02*
X18080539Y-10322198D01*
X18080539Y-10322198D02*
X18090063Y-10312674D01*
X18090063Y-10312674D02*
X18109111Y-10303150D01*
X18109111Y-10303150D02*
X18137682Y-10303150D01*
X18137682Y-10303150D02*
X18156730Y-10312674D01*
X18156730Y-10312674D02*
X18166253Y-10322198D01*
X18166253Y-10322198D02*
X18175777Y-10341246D01*
X18175777Y-10341246D02*
X18175777Y-10398389D01*
X18175777Y-10398389D02*
X18166253Y-10417436D01*
X18166253Y-10417436D02*
X18156730Y-10426960D01*
X18156730Y-10426960D02*
X18137682Y-10436484D01*
X18137682Y-10436484D02*
X18109111Y-10436484D01*
X18290063Y-10436484D02*
X18271015Y-10426960D01*
X18271015Y-10426960D02*
X18261492Y-10407912D01*
X18261492Y-10407912D02*
X18261492Y-10236484D01*
X18442444Y-10426960D02*
X18423396Y-10436484D01*
X18423396Y-10436484D02*
X18385301Y-10436484D01*
X18385301Y-10436484D02*
X18366253Y-10426960D01*
X18366253Y-10426960D02*
X18356730Y-10407912D01*
X18356730Y-10407912D02*
X18356730Y-10331722D01*
X18356730Y-10331722D02*
X18366253Y-10312674D01*
X18366253Y-10312674D02*
X18385301Y-10303150D01*
X18385301Y-10303150D02*
X18423396Y-10303150D01*
X18423396Y-10303150D02*
X18442444Y-10312674D01*
X18442444Y-10312674D02*
X18451968Y-10331722D01*
X18451968Y-10331722D02*
X18451968Y-10350770D01*
X18451968Y-10350770D02*
X18356730Y-10369817D01*
X18528158Y-10426960D02*
X18547206Y-10436484D01*
X18547206Y-10436484D02*
X18585301Y-10436484D01*
X18585301Y-10436484D02*
X18604349Y-10426960D01*
X18604349Y-10426960D02*
X18613873Y-10407912D01*
X18613873Y-10407912D02*
X18613873Y-10398389D01*
X18613873Y-10398389D02*
X18604349Y-10379341D01*
X18604349Y-10379341D02*
X18585301Y-10369817D01*
X18585301Y-10369817D02*
X18556730Y-10369817D01*
X18556730Y-10369817D02*
X18537682Y-10360293D01*
X18537682Y-10360293D02*
X18528158Y-10341246D01*
X18528158Y-10341246D02*
X18528158Y-10331722D01*
X18528158Y-10331722D02*
X18537682Y-10312674D01*
X18537682Y-10312674D02*
X18556730Y-10303150D01*
X18556730Y-10303150D02*
X18585301Y-10303150D01*
X18585301Y-10303150D02*
X18604349Y-10312674D01*
X18680539Y-10512674D02*
X18690063Y-10503150D01*
X18690063Y-10503150D02*
X18709111Y-10474579D01*
X18709111Y-10474579D02*
X18718634Y-10455531D01*
X18718634Y-10455531D02*
X18728158Y-10426960D01*
X18728158Y-10426960D02*
X18737682Y-10379341D01*
X18737682Y-10379341D02*
X18737682Y-10341246D01*
X18737682Y-10341246D02*
X18728158Y-10293627D01*
X18728158Y-10293627D02*
X18718634Y-10265055D01*
X18718634Y-10265055D02*
X18709111Y-10246008D01*
X18709111Y-10246008D02*
X18690063Y-10217436D01*
X18690063Y-10217436D02*
X18680539Y-10207912D01*
D10*
X13715000Y-10609000D02*
G75*
G02*
X13615000Y-10609000I-50000J0D01*
G01*
X13615000Y-10609000D02*
G75*
G02*
X13715000Y-10609000I50000J0D01*
G01*
D11*
X14080539Y-10700484D02*
X13966253Y-10700484D01*
X14023396Y-10700484D02*
X14023396Y-10500484D01*
X14023396Y-10500484D02*
X14004348Y-10529055D01*
X14004348Y-10529055D02*
X13985301Y-10548103D01*
X13985301Y-10548103D02*
X13966253Y-10557627D01*
X14166253Y-10681436D02*
X14175777Y-10690960D01*
X14175777Y-10690960D02*
X14166253Y-10700484D01*
X14166253Y-10700484D02*
X14156729Y-10690960D01*
X14156729Y-10690960D02*
X14166253Y-10681436D01*
X14166253Y-10681436D02*
X14166253Y-10700484D01*
X14299586Y-10500484D02*
X14318634Y-10500484D01*
X14318634Y-10500484D02*
X14337682Y-10510008D01*
X14337682Y-10510008D02*
X14347205Y-10519531D01*
X14347205Y-10519531D02*
X14356729Y-10538579D01*
X14356729Y-10538579D02*
X14366253Y-10576674D01*
X14366253Y-10576674D02*
X14366253Y-10624293D01*
X14366253Y-10624293D02*
X14356729Y-10662389D01*
X14356729Y-10662389D02*
X14347205Y-10681436D01*
X14347205Y-10681436D02*
X14337682Y-10690960D01*
X14337682Y-10690960D02*
X14318634Y-10700484D01*
X14318634Y-10700484D02*
X14299586Y-10700484D01*
X14299586Y-10700484D02*
X14280539Y-10690960D01*
X14280539Y-10690960D02*
X14271015Y-10681436D01*
X14271015Y-10681436D02*
X14261491Y-10662389D01*
X14261491Y-10662389D02*
X14251967Y-10624293D01*
X14251967Y-10624293D02*
X14251967Y-10576674D01*
X14251967Y-10576674D02*
X14261491Y-10538579D01*
X14261491Y-10538579D02*
X14271015Y-10519531D01*
X14271015Y-10519531D02*
X14280539Y-10510008D01*
X14280539Y-10510008D02*
X14299586Y-10500484D01*
X14490062Y-10500484D02*
X14509110Y-10500484D01*
X14509110Y-10500484D02*
X14528158Y-10510008D01*
X14528158Y-10510008D02*
X14537682Y-10519531D01*
X14537682Y-10519531D02*
X14547205Y-10538579D01*
X14547205Y-10538579D02*
X14556729Y-10576674D01*
X14556729Y-10576674D02*
X14556729Y-10624293D01*
X14556729Y-10624293D02*
X14547205Y-10662389D01*
X14547205Y-10662389D02*
X14537682Y-10681436D01*
X14537682Y-10681436D02*
X14528158Y-10690960D01*
X14528158Y-10690960D02*
X14509110Y-10700484D01*
X14509110Y-10700484D02*
X14490062Y-10700484D01*
X14490062Y-10700484D02*
X14471015Y-10690960D01*
X14471015Y-10690960D02*
X14461491Y-10681436D01*
X14461491Y-10681436D02*
X14451967Y-10662389D01*
X14451967Y-10662389D02*
X14442443Y-10624293D01*
X14442443Y-10624293D02*
X14442443Y-10576674D01*
X14442443Y-10576674D02*
X14451967Y-10538579D01*
X14451967Y-10538579D02*
X14461491Y-10519531D01*
X14461491Y-10519531D02*
X14471015Y-10510008D01*
X14471015Y-10510008D02*
X14490062Y-10500484D01*
X14680539Y-10500484D02*
X14699586Y-10500484D01*
X14699586Y-10500484D02*
X14718634Y-10510008D01*
X14718634Y-10510008D02*
X14728158Y-10519531D01*
X14728158Y-10519531D02*
X14737682Y-10538579D01*
X14737682Y-10538579D02*
X14747205Y-10576674D01*
X14747205Y-10576674D02*
X14747205Y-10624293D01*
X14747205Y-10624293D02*
X14737682Y-10662389D01*
X14737682Y-10662389D02*
X14728158Y-10681436D01*
X14728158Y-10681436D02*
X14718634Y-10690960D01*
X14718634Y-10690960D02*
X14699586Y-10700484D01*
X14699586Y-10700484D02*
X14680539Y-10700484D01*
X14680539Y-10700484D02*
X14661491Y-10690960D01*
X14661491Y-10690960D02*
X14651967Y-10681436D01*
X14651967Y-10681436D02*
X14642443Y-10662389D01*
X14642443Y-10662389D02*
X14632920Y-10624293D01*
X14632920Y-10624293D02*
X14632920Y-10576674D01*
X14632920Y-10576674D02*
X14642443Y-10538579D01*
X14642443Y-10538579D02*
X14651967Y-10519531D01*
X14651967Y-10519531D02*
X14661491Y-10510008D01*
X14661491Y-10510008D02*
X14680539Y-10500484D01*
X14832920Y-10700484D02*
X14832920Y-10567150D01*
X14832920Y-10586198D02*
X14842443Y-10576674D01*
X14842443Y-10576674D02*
X14861491Y-10567150D01*
X14861491Y-10567150D02*
X14890063Y-10567150D01*
X14890063Y-10567150D02*
X14909110Y-10576674D01*
X14909110Y-10576674D02*
X14918634Y-10595722D01*
X14918634Y-10595722D02*
X14918634Y-10700484D01*
X14918634Y-10595722D02*
X14928158Y-10576674D01*
X14928158Y-10576674D02*
X14947205Y-10567150D01*
X14947205Y-10567150D02*
X14975777Y-10567150D01*
X14975777Y-10567150D02*
X14994824Y-10576674D01*
X14994824Y-10576674D02*
X15004348Y-10595722D01*
X15004348Y-10595722D02*
X15004348Y-10700484D01*
X15099586Y-10700484D02*
X15099586Y-10567150D01*
X15099586Y-10586198D02*
X15109110Y-10576674D01*
X15109110Y-10576674D02*
X15128158Y-10567150D01*
X15128158Y-10567150D02*
X15156729Y-10567150D01*
X15156729Y-10567150D02*
X15175777Y-10576674D01*
X15175777Y-10576674D02*
X15185301Y-10595722D01*
X15185301Y-10595722D02*
X15185301Y-10700484D01*
X15185301Y-10595722D02*
X15194824Y-10576674D01*
X15194824Y-10576674D02*
X15213872Y-10567150D01*
X15213872Y-10567150D02*
X15242443Y-10567150D01*
X15242443Y-10567150D02*
X15261491Y-10576674D01*
X15261491Y-10576674D02*
X15271015Y-10595722D01*
X15271015Y-10595722D02*
X15271015Y-10700484D01*
X15661491Y-10490960D02*
X15490063Y-10748103D01*
X15918634Y-10500484D02*
X15937682Y-10500484D01*
X15937682Y-10500484D02*
X15956729Y-10510008D01*
X15956729Y-10510008D02*
X15966253Y-10519531D01*
X15966253Y-10519531D02*
X15975777Y-10538579D01*
X15975777Y-10538579D02*
X15985301Y-10576674D01*
X15985301Y-10576674D02*
X15985301Y-10624293D01*
X15985301Y-10624293D02*
X15975777Y-10662389D01*
X15975777Y-10662389D02*
X15966253Y-10681436D01*
X15966253Y-10681436D02*
X15956729Y-10690960D01*
X15956729Y-10690960D02*
X15937682Y-10700484D01*
X15937682Y-10700484D02*
X15918634Y-10700484D01*
X15918634Y-10700484D02*
X15899586Y-10690960D01*
X15899586Y-10690960D02*
X15890063Y-10681436D01*
X15890063Y-10681436D02*
X15880539Y-10662389D01*
X15880539Y-10662389D02*
X15871015Y-10624293D01*
X15871015Y-10624293D02*
X15871015Y-10576674D01*
X15871015Y-10576674D02*
X15880539Y-10538579D01*
X15880539Y-10538579D02*
X15890063Y-10519531D01*
X15890063Y-10519531D02*
X15899586Y-10510008D01*
X15899586Y-10510008D02*
X15918634Y-10500484D01*
X16071015Y-10681436D02*
X16080539Y-10690960D01*
X16080539Y-10690960D02*
X16071015Y-10700484D01*
X16071015Y-10700484D02*
X16061491Y-10690960D01*
X16061491Y-10690960D02*
X16071015Y-10681436D01*
X16071015Y-10681436D02*
X16071015Y-10700484D01*
X16204348Y-10500484D02*
X16223396Y-10500484D01*
X16223396Y-10500484D02*
X16242444Y-10510008D01*
X16242444Y-10510008D02*
X16251967Y-10519531D01*
X16251967Y-10519531D02*
X16261491Y-10538579D01*
X16261491Y-10538579D02*
X16271015Y-10576674D01*
X16271015Y-10576674D02*
X16271015Y-10624293D01*
X16271015Y-10624293D02*
X16261491Y-10662389D01*
X16261491Y-10662389D02*
X16251967Y-10681436D01*
X16251967Y-10681436D02*
X16242444Y-10690960D01*
X16242444Y-10690960D02*
X16223396Y-10700484D01*
X16223396Y-10700484D02*
X16204348Y-10700484D01*
X16204348Y-10700484D02*
X16185301Y-10690960D01*
X16185301Y-10690960D02*
X16175777Y-10681436D01*
X16175777Y-10681436D02*
X16166253Y-10662389D01*
X16166253Y-10662389D02*
X16156729Y-10624293D01*
X16156729Y-10624293D02*
X16156729Y-10576674D01*
X16156729Y-10576674D02*
X16166253Y-10538579D01*
X16166253Y-10538579D02*
X16175777Y-10519531D01*
X16175777Y-10519531D02*
X16185301Y-10510008D01*
X16185301Y-10510008D02*
X16204348Y-10500484D01*
X16337682Y-10500484D02*
X16461491Y-10500484D01*
X16461491Y-10500484D02*
X16394825Y-10576674D01*
X16394825Y-10576674D02*
X16423396Y-10576674D01*
X16423396Y-10576674D02*
X16442444Y-10586198D01*
X16442444Y-10586198D02*
X16451967Y-10595722D01*
X16451967Y-10595722D02*
X16461491Y-10614770D01*
X16461491Y-10614770D02*
X16461491Y-10662389D01*
X16461491Y-10662389D02*
X16451967Y-10681436D01*
X16451967Y-10681436D02*
X16442444Y-10690960D01*
X16442444Y-10690960D02*
X16423396Y-10700484D01*
X16423396Y-10700484D02*
X16366253Y-10700484D01*
X16366253Y-10700484D02*
X16347206Y-10690960D01*
X16347206Y-10690960D02*
X16337682Y-10681436D01*
X16556729Y-10700484D02*
X16594825Y-10700484D01*
X16594825Y-10700484D02*
X16613872Y-10690960D01*
X16613872Y-10690960D02*
X16623396Y-10681436D01*
X16623396Y-10681436D02*
X16642444Y-10652865D01*
X16642444Y-10652865D02*
X16651967Y-10614770D01*
X16651967Y-10614770D02*
X16651967Y-10538579D01*
X16651967Y-10538579D02*
X16642444Y-10519531D01*
X16642444Y-10519531D02*
X16632920Y-10510008D01*
X16632920Y-10510008D02*
X16613872Y-10500484D01*
X16613872Y-10500484D02*
X16575777Y-10500484D01*
X16575777Y-10500484D02*
X16556729Y-10510008D01*
X16556729Y-10510008D02*
X16547206Y-10519531D01*
X16547206Y-10519531D02*
X16537682Y-10538579D01*
X16537682Y-10538579D02*
X16537682Y-10586198D01*
X16537682Y-10586198D02*
X16547206Y-10605246D01*
X16547206Y-10605246D02*
X16556729Y-10614770D01*
X16556729Y-10614770D02*
X16575777Y-10624293D01*
X16575777Y-10624293D02*
X16613872Y-10624293D01*
X16613872Y-10624293D02*
X16632920Y-10614770D01*
X16632920Y-10614770D02*
X16642444Y-10605246D01*
X16642444Y-10605246D02*
X16651967Y-10586198D01*
X16823396Y-10567150D02*
X16823396Y-10700484D01*
X16775777Y-10490960D02*
X16728158Y-10633817D01*
X16728158Y-10633817D02*
X16851968Y-10633817D01*
X16918634Y-10500484D02*
X16918634Y-10538579D01*
X16994825Y-10500484D02*
X16994825Y-10538579D01*
X17290063Y-10776674D02*
X17280539Y-10767150D01*
X17280539Y-10767150D02*
X17261491Y-10738579D01*
X17261491Y-10738579D02*
X17251968Y-10719531D01*
X17251968Y-10719531D02*
X17242444Y-10690960D01*
X17242444Y-10690960D02*
X17232920Y-10643341D01*
X17232920Y-10643341D02*
X17232920Y-10605246D01*
X17232920Y-10605246D02*
X17242444Y-10557627D01*
X17242444Y-10557627D02*
X17251968Y-10529055D01*
X17251968Y-10529055D02*
X17261491Y-10510008D01*
X17261491Y-10510008D02*
X17280539Y-10481436D01*
X17280539Y-10481436D02*
X17290063Y-10471912D01*
X17461491Y-10500484D02*
X17366253Y-10500484D01*
X17366253Y-10500484D02*
X17356730Y-10595722D01*
X17356730Y-10595722D02*
X17366253Y-10586198D01*
X17366253Y-10586198D02*
X17385301Y-10576674D01*
X17385301Y-10576674D02*
X17432920Y-10576674D01*
X17432920Y-10576674D02*
X17451968Y-10586198D01*
X17451968Y-10586198D02*
X17461491Y-10595722D01*
X17461491Y-10595722D02*
X17471015Y-10614770D01*
X17471015Y-10614770D02*
X17471015Y-10662389D01*
X17471015Y-10662389D02*
X17461491Y-10681436D01*
X17461491Y-10681436D02*
X17451968Y-10690960D01*
X17451968Y-10690960D02*
X17432920Y-10700484D01*
X17432920Y-10700484D02*
X17385301Y-10700484D01*
X17385301Y-10700484D02*
X17366253Y-10690960D01*
X17366253Y-10690960D02*
X17356730Y-10681436D01*
X17709111Y-10700484D02*
X17709111Y-10500484D01*
X17794825Y-10700484D02*
X17794825Y-10595722D01*
X17794825Y-10595722D02*
X17785301Y-10576674D01*
X17785301Y-10576674D02*
X17766253Y-10567150D01*
X17766253Y-10567150D02*
X17737682Y-10567150D01*
X17737682Y-10567150D02*
X17718634Y-10576674D01*
X17718634Y-10576674D02*
X17709111Y-10586198D01*
X17918634Y-10700484D02*
X17899587Y-10690960D01*
X17899587Y-10690960D02*
X17890063Y-10681436D01*
X17890063Y-10681436D02*
X17880539Y-10662389D01*
X17880539Y-10662389D02*
X17880539Y-10605246D01*
X17880539Y-10605246D02*
X17890063Y-10586198D01*
X17890063Y-10586198D02*
X17899587Y-10576674D01*
X17899587Y-10576674D02*
X17918634Y-10567150D01*
X17918634Y-10567150D02*
X17947206Y-10567150D01*
X17947206Y-10567150D02*
X17966253Y-10576674D01*
X17966253Y-10576674D02*
X17975777Y-10586198D01*
X17975777Y-10586198D02*
X17985301Y-10605246D01*
X17985301Y-10605246D02*
X17985301Y-10662389D01*
X17985301Y-10662389D02*
X17975777Y-10681436D01*
X17975777Y-10681436D02*
X17966253Y-10690960D01*
X17966253Y-10690960D02*
X17947206Y-10700484D01*
X17947206Y-10700484D02*
X17918634Y-10700484D01*
X18099587Y-10700484D02*
X18080539Y-10690960D01*
X18080539Y-10690960D02*
X18071015Y-10671912D01*
X18071015Y-10671912D02*
X18071015Y-10500484D01*
X18251968Y-10690960D02*
X18232920Y-10700484D01*
X18232920Y-10700484D02*
X18194825Y-10700484D01*
X18194825Y-10700484D02*
X18175777Y-10690960D01*
X18175777Y-10690960D02*
X18166253Y-10671912D01*
X18166253Y-10671912D02*
X18166253Y-10595722D01*
X18166253Y-10595722D02*
X18175777Y-10576674D01*
X18175777Y-10576674D02*
X18194825Y-10567150D01*
X18194825Y-10567150D02*
X18232920Y-10567150D01*
X18232920Y-10567150D02*
X18251968Y-10576674D01*
X18251968Y-10576674D02*
X18261492Y-10595722D01*
X18261492Y-10595722D02*
X18261492Y-10614770D01*
X18261492Y-10614770D02*
X18166253Y-10633817D01*
X18337682Y-10690960D02*
X18356730Y-10700484D01*
X18356730Y-10700484D02*
X18394825Y-10700484D01*
X18394825Y-10700484D02*
X18413873Y-10690960D01*
X18413873Y-10690960D02*
X18423396Y-10671912D01*
X18423396Y-10671912D02*
X18423396Y-10662389D01*
X18423396Y-10662389D02*
X18413873Y-10643341D01*
X18413873Y-10643341D02*
X18394825Y-10633817D01*
X18394825Y-10633817D02*
X18366253Y-10633817D01*
X18366253Y-10633817D02*
X18347206Y-10624293D01*
X18347206Y-10624293D02*
X18337682Y-10605246D01*
X18337682Y-10605246D02*
X18337682Y-10595722D01*
X18337682Y-10595722D02*
X18347206Y-10576674D01*
X18347206Y-10576674D02*
X18366253Y-10567150D01*
X18366253Y-10567150D02*
X18394825Y-10567150D01*
X18394825Y-10567150D02*
X18413873Y-10576674D01*
X18490063Y-10776674D02*
X18499587Y-10767150D01*
X18499587Y-10767150D02*
X18518634Y-10738579D01*
X18518634Y-10738579D02*
X18528158Y-10719531D01*
X18528158Y-10719531D02*
X18537682Y-10690960D01*
X18537682Y-10690960D02*
X18547206Y-10643341D01*
X18547206Y-10643341D02*
X18547206Y-10605246D01*
X18547206Y-10605246D02*
X18537682Y-10557627D01*
X18537682Y-10557627D02*
X18528158Y-10529055D01*
X18528158Y-10529055D02*
X18518634Y-10510008D01*
X18518634Y-10510008D02*
X18499587Y-10481436D01*
X18499587Y-10481436D02*
X18490063Y-10471912D01*
M02*
