M48
; DRILL file {KiCad 8.99.0-unknown-079855af18~181~ubuntu22.04.1} date 2024-11-15T17:57:20-0800
; FORMAT={-:-/ absolute / inch / decimal}
; #@! TF.CreationDate,2024-11-15T17:57:20-08:00
; #@! TF.GenerationSoftware,Kicad,Pcbnew,8.99.0-unknown-079855af18~181~ubuntu22.04.1
; #@! TF.FileFunction,Plated,1,2,PTH
FMAT,2
INCH
; #@! TA.AperFunction,Plated,PTH,ViaDrill
T1C0.0157
; #@! TA.AperFunction,Plated,PTH,ComponentDrill
T2C0.0394
%
G90
G05
T1
X5.4252Y-3.2047
X5.4311Y-3.2776
X5.5217Y-3.3839
X5.5217Y-3.4587
X5.5394Y-3.5571
X5.5453Y-3.1713
X5.5453Y-3.2756
X5.6417Y-3.2677
X5.6437Y-3.1673
X5.6634Y-3.3406
X5.689Y-3.5512
X5.7362Y-3.1673
X5.7434Y-3.3092
X5.7815Y-3.5492
X5.7835Y-3.2835
X5.8445Y-3.1693
X5.8484Y-3.5492
X5.8504Y-3.4154
X5.8504Y-3.4862
X5.8602Y-3.2835
X5.9449Y-3.2638
X5.9488Y-3.1713
T2
X5.4892Y-3.2224
X5.5892Y-3.2224
X5.6892Y-3.2224
X5.7892Y-3.2224
X5.8892Y-3.2224
M30
