%TF.GenerationSoftware,KiCad,Pcbnew,8.99.0-unknown-079855af18~181~ubuntu22.04.1*%
%TF.CreationDate,2024-11-15T17:57:20-08:00*%
%TF.ProjectId,gb_video_breakout,67625f76-6964-4656-9f5f-627265616b6f,rev?*%
%TF.SameCoordinates,Original*%
%TF.FileFunction,Drillmap*%
%TF.FilePolarity,Positive*%
%FSLAX45Y45*%
G04 Gerber Fmt 4.5, Leading zero omitted, Abs format (unit mm)*
G04 Created by KiCad (PCBNEW 8.99.0-unknown-079855af18~181~ubuntu22.04.1) date 2024-11-15 17:57:20*
%MOMM*%
%LPD*%
G01*
G04 APERTURE LIST*
%ADD10C,0.100000*%
%ADD11C,0.200000*%
G04 APERTURE END LIST*
D10*
X13820000Y-7970000D02*
X15080000Y-7970000D01*
X13720000Y-8070000D02*
G75*
G02*
X13820000Y-7970000I100000J0D01*
G01*
X15080000Y-7970000D02*
G75*
G02*
X15180000Y-8070000I0J-100000D01*
G01*
X13820000Y-9100000D02*
G75*
G02*
X13720000Y-9000000I0J100000D01*
G01*
X15180000Y-9000000D02*
G75*
G02*
X15080000Y-9100000I-100000J0D01*
G01*
X13720000Y-9000000D02*
X13720000Y-8070000D01*
X15180000Y-9000000D02*
X15180000Y-8070000D01*
X13820000Y-9100000D02*
X14100000Y-9100000D01*
X14800000Y-9100000D02*
X15080000Y-9100000D01*
X14200000Y-9700000D02*
G75*
G02*
X14150000Y-9650000I0J50000D01*
G01*
X14200000Y-9700000D02*
X14700000Y-9700000D01*
X14100000Y-9100000D02*
G75*
G02*
X14150000Y-9150000I0J-50000D01*
G01*
X14750000Y-9650000D02*
X14750000Y-9150000D01*
X14750000Y-9650000D02*
G75*
G02*
X14700000Y-9700000I-50000J0D01*
G01*
X14150000Y-9650000D02*
X14150000Y-9150000D01*
X14750000Y-9150000D02*
G75*
G02*
X14800000Y-9100000I50000J0D01*
G01*
D11*
X13975777Y-10016484D02*
X13975777Y-9816484D01*
X13975777Y-9816484D02*
X14023396Y-9816484D01*
X14023396Y-9816484D02*
X14051967Y-9826008D01*
X14051967Y-9826008D02*
X14071015Y-9845055D01*
X14071015Y-9845055D02*
X14080539Y-9864103D01*
X14080539Y-9864103D02*
X14090062Y-9902198D01*
X14090062Y-9902198D02*
X14090062Y-9930770D01*
X14090062Y-9930770D02*
X14080539Y-9968865D01*
X14080539Y-9968865D02*
X14071015Y-9987912D01*
X14071015Y-9987912D02*
X14051967Y-10006960D01*
X14051967Y-10006960D02*
X14023396Y-10016484D01*
X14023396Y-10016484D02*
X13975777Y-10016484D01*
X14175777Y-10016484D02*
X14175777Y-9883150D01*
X14175777Y-9921246D02*
X14185301Y-9902198D01*
X14185301Y-9902198D02*
X14194824Y-9892674D01*
X14194824Y-9892674D02*
X14213872Y-9883150D01*
X14213872Y-9883150D02*
X14232920Y-9883150D01*
X14299586Y-10016484D02*
X14299586Y-9883150D01*
X14299586Y-9816484D02*
X14290062Y-9826008D01*
X14290062Y-9826008D02*
X14299586Y-9835531D01*
X14299586Y-9835531D02*
X14309110Y-9826008D01*
X14309110Y-9826008D02*
X14299586Y-9816484D01*
X14299586Y-9816484D02*
X14299586Y-9835531D01*
X14423396Y-10016484D02*
X14404348Y-10006960D01*
X14404348Y-10006960D02*
X14394824Y-9987912D01*
X14394824Y-9987912D02*
X14394824Y-9816484D01*
X14528158Y-10016484D02*
X14509110Y-10006960D01*
X14509110Y-10006960D02*
X14499586Y-9987912D01*
X14499586Y-9987912D02*
X14499586Y-9816484D01*
X14756729Y-10016484D02*
X14756729Y-9816484D01*
X14756729Y-9816484D02*
X14823396Y-9959341D01*
X14823396Y-9959341D02*
X14890062Y-9816484D01*
X14890062Y-9816484D02*
X14890062Y-10016484D01*
X15071015Y-10016484D02*
X15071015Y-9911722D01*
X15071015Y-9911722D02*
X15061491Y-9892674D01*
X15061491Y-9892674D02*
X15042443Y-9883150D01*
X15042443Y-9883150D02*
X15004348Y-9883150D01*
X15004348Y-9883150D02*
X14985301Y-9892674D01*
X15071015Y-10006960D02*
X15051967Y-10016484D01*
X15051967Y-10016484D02*
X15004348Y-10016484D01*
X15004348Y-10016484D02*
X14985301Y-10006960D01*
X14985301Y-10006960D02*
X14975777Y-9987912D01*
X14975777Y-9987912D02*
X14975777Y-9968865D01*
X14975777Y-9968865D02*
X14985301Y-9949817D01*
X14985301Y-9949817D02*
X15004348Y-9940293D01*
X15004348Y-9940293D02*
X15051967Y-9940293D01*
X15051967Y-9940293D02*
X15071015Y-9930770D01*
X15166253Y-9883150D02*
X15166253Y-10083150D01*
X15166253Y-9892674D02*
X15185301Y-9883150D01*
X15185301Y-9883150D02*
X15223396Y-9883150D01*
X15223396Y-9883150D02*
X15242443Y-9892674D01*
X15242443Y-9892674D02*
X15251967Y-9902198D01*
X15251967Y-9902198D02*
X15261491Y-9921246D01*
X15261491Y-9921246D02*
X15261491Y-9978389D01*
X15261491Y-9978389D02*
X15251967Y-9997436D01*
X15251967Y-9997436D02*
X15242443Y-10006960D01*
X15242443Y-10006960D02*
X15223396Y-10016484D01*
X15223396Y-10016484D02*
X15185301Y-10016484D01*
X15185301Y-10016484D02*
X15166253Y-10006960D01*
X15347205Y-9997436D02*
X15356729Y-10006960D01*
X15356729Y-10006960D02*
X15347205Y-10016484D01*
X15347205Y-10016484D02*
X15337682Y-10006960D01*
X15337682Y-10006960D02*
X15347205Y-9997436D01*
X15347205Y-9997436D02*
X15347205Y-10016484D01*
X15347205Y-9892674D02*
X15356729Y-9902198D01*
X15356729Y-9902198D02*
X15347205Y-9911722D01*
X15347205Y-9911722D02*
X15337682Y-9902198D01*
X15337682Y-9902198D02*
X15347205Y-9892674D01*
X15347205Y-9892674D02*
X15347205Y-9911722D01*
M02*
