%TF.GenerationSoftware,KiCad,Pcbnew,8.99.0-unknown-079855af18~181~ubuntu22.04.1*%
%TF.CreationDate,2024-11-15T17:57:23-08:00*%
%TF.ProjectId,gb_video_breakout,67625f76-6964-4656-9f5f-627265616b6f,rev?*%
%TF.SameCoordinates,Original*%
%TF.FileFunction,Copper,L1,Top*%
%TF.FilePolarity,Positive*%
%FSLAX46Y46*%
G04 Gerber Fmt 4.6, Leading zero omitted, Abs format (unit mm)*
G04 Created by KiCad (PCBNEW 8.99.0-unknown-079855af18~181~ubuntu22.04.1) date 2024-11-15 17:57:23*
%MOMM*%
%LPD*%
G01*
G04 APERTURE LIST*
G04 Aperture macros list*
%AMRoundRect*
0 Rectangle with rounded corners*
0 $1 Rounding radius*
0 $2 $3 $4 $5 $6 $7 $8 $9 X,Y pos of 4 corners*
0 Add a 4 corners polygon primitive as box body*
4,1,4,$2,$3,$4,$5,$6,$7,$8,$9,$2,$3,0*
0 Add four circle primitives for the rounded corners*
1,1,$1+$1,$2,$3*
1,1,$1+$1,$4,$5*
1,1,$1+$1,$6,$7*
1,1,$1+$1,$8,$9*
0 Add four rect primitives between the rounded corners*
20,1,$1+$1,$2,$3,$4,$5,0*
20,1,$1+$1,$4,$5,$6,$7,0*
20,1,$1+$1,$6,$7,$8,$9,0*
20,1,$1+$1,$8,$9,$2,$3,0*%
G04 Aperture macros list end*
%TA.AperFunction,SMDPad,CuDef*%
%ADD10R,0.400000X1.200000*%
%TD*%
%TA.AperFunction,SMDPad,CuDef*%
%ADD11RoundRect,0.250000X-0.250000X-0.475000X0.250000X-0.475000X0.250000X0.475000X-0.250000X0.475000X0*%
%TD*%
%TA.AperFunction,SMDPad,CuDef*%
%ADD12RoundRect,0.250000X0.250000X0.475000X-0.250000X0.475000X-0.250000X-0.475000X0.250000X-0.475000X0*%
%TD*%
%TA.AperFunction,ComponentPad*%
%ADD13R,1.700000X1.700000*%
%TD*%
%TA.AperFunction,ComponentPad*%
%ADD14O,1.700000X1.700000*%
%TD*%
%TA.AperFunction,SMDPad,CuDef*%
%ADD15RoundRect,0.250000X-0.450000X0.262500X-0.450000X-0.262500X0.450000X-0.262500X0.450000X0.262500X0*%
%TD*%
%TA.AperFunction,ConnectorPad*%
%ADD16R,1.000000X5.000000*%
%TD*%
%TA.AperFunction,SMDPad,CuDef*%
%ADD17RoundRect,0.243750X-0.456250X0.243750X-0.456250X-0.243750X0.456250X-0.243750X0.456250X0.243750X0*%
%TD*%
%TA.AperFunction,SMDPad,CuDef*%
%ADD18RoundRect,0.250000X0.450000X-0.262500X0.450000X0.262500X-0.450000X0.262500X-0.450000X-0.262500X0*%
%TD*%
%TA.AperFunction,SMDPad,CuDef*%
%ADD19RoundRect,0.243750X0.456250X-0.243750X0.456250X0.243750X-0.456250X0.243750X-0.456250X-0.243750X0*%
%TD*%
%TA.AperFunction,ViaPad*%
%ADD20C,0.800000*%
%TD*%
%TA.AperFunction,Conductor*%
%ADD21C,0.250000*%
%TD*%
G04 APERTURE END LIST*
D10*
%TO.P,U3,1,NC*%
%TO.N,unconnected-(U3-NC-Pad1)*%
X146500000Y-88750000D03*
%TO.P,U3,2,A*%
%TO.N,CLK_5V*%
X147150000Y-88750000D03*
%TO.P,U3,3,GND*%
%TO.N,GND*%
X147800000Y-88750000D03*
%TO.P,U3,4,Y*%
%TO.N,CLK_3V3*%
X147800000Y-86850000D03*
%TO.P,U3,5,VCC*%
%TO.N,+3V3*%
X146500000Y-86850000D03*
%TD*%
%TO.P,U2,1,NC*%
%TO.N,unconnected-(U2-NC-Pad1)*%
X143850000Y-88750000D03*
%TO.P,U2,2,A*%
%TO.N,RX_5V*%
X144500000Y-88750000D03*
%TO.P,U2,3,GND*%
%TO.N,GND*%
X145150000Y-88750000D03*
%TO.P,U2,4,Y*%
%TO.N,RX_3V3*%
X145150000Y-86850000D03*
%TO.P,U2,5,VCC*%
%TO.N,+3V3*%
X143850000Y-86850000D03*
%TD*%
%TO.P,U1,1,NC*%
%TO.N,unconnected-(U1-NC-Pad1)*%
X142500000Y-86850000D03*
%TO.P,U1,2,A*%
%TO.N,TX_3V3*%
X141850000Y-86850000D03*
%TO.P,U1,3,GND*%
%TO.N,GND*%
X141200000Y-86850000D03*
%TO.P,U1,4,Y*%
%TO.N,TX_5V*%
X141200000Y-88750000D03*
%TO.P,U1,5,VCC*%
%TO.N,+5V*%
X142500000Y-88750000D03*
%TD*%
D11*
%TO.P,C2,1*%
%TO.N,+3V3*%
X140750000Y-84700000D03*
%TO.P,C2,2*%
%TO.N,GND*%
X142650000Y-84700000D03*
%TD*%
D12*
%TO.P,C1,1*%
%TO.N,+5V*%
X148800000Y-84900000D03*
%TO.P,C1,2*%
%TO.N,GND*%
X146900000Y-84900000D03*
%TD*%
D13*
%TO.P,J1,1,Pin_1*%
%TO.N,+3V3*%
X139425000Y-81850000D03*
D14*
%TO.P,J1,2,Pin_2*%
%TO.N,TX_3V3*%
X141965000Y-81850000D03*
%TO.P,J1,3,Pin_3*%
%TO.N,RX_3V3*%
X144505000Y-81850000D03*
%TO.P,J1,4,Pin_4*%
%TO.N,CLK_3V3*%
X147045000Y-81850000D03*
%TO.P,J1,5,Pin_5*%
%TO.N,GND*%
X149585000Y-81850000D03*
%TD*%
D15*
%TO.P,R4,1*%
%TO.N,Net-(D2-K)*%
X138925000Y-87850000D03*
%TO.P,R4,2*%
%TO.N,GND*%
X138925000Y-89675000D03*
%TD*%
D16*
%TO.P,GB1,2,SO*%
%TO.N,TX_5V*%
X142500000Y-94000000D03*
%TO.P,GB1,4,SD*%
%TO.N,+5V*%
X144500000Y-94000000D03*
%TO.P,GB1,6,GND*%
%TO.N,GND*%
X146500000Y-94000000D03*
%TD*%
D17*
%TO.P,D1,1,K*%
%TO.N,Net-(D1-K)*%
X150500000Y-87887500D03*
%TO.P,D1,2,A*%
%TO.N,+5V*%
X150500000Y-89762500D03*
%TD*%
D18*
%TO.P,R3,1*%
%TO.N,Net-(D1-K)*%
X150500000Y-86362500D03*
%TO.P,R3,2*%
%TO.N,GND*%
X150500000Y-84537500D03*
%TD*%
D19*
%TO.P,D2,1,K*%
%TO.N,Net-(D2-K)*%
X138925000Y-86337500D03*
%TO.P,D2,2,A*%
%TO.N,+3V3*%
X138925000Y-84462500D03*
%TD*%
D20*
%TO.N,+3V3*%
X145881241Y-84052445D03*
X140250000Y-85950000D03*
%TO.N,GND*%
X151100000Y-80550000D03*
X148450000Y-80500000D03*
X145700000Y-80450000D03*
X143350000Y-80450000D03*
X140850000Y-80550000D03*
X137800000Y-81400000D03*
X137950000Y-83250000D03*
X151000000Y-82900000D03*
X148850000Y-83400000D03*
X146900000Y-83400000D03*
X140850000Y-83200000D03*
X143300000Y-83000000D03*
X140250000Y-87850000D03*
X140700000Y-90350000D03*
X148550000Y-90150000D03*
X148600000Y-86750000D03*
X148600000Y-88550000D03*
%TO.N,+3V3*%
X143850000Y-84850000D03*
%TO.N,CLK_5V*%
X146850000Y-90150000D03*
%TO.N,RX_5V*%
X144500000Y-90200000D03*
%TD*%
D21*
%TO.N,RX_3V3*%
X144505000Y-81850000D02*
X145150000Y-82495000D01*
X145150000Y-82495000D02*
X145150000Y-86850000D01*
%TO.N,TX_3V3*%
X141965000Y-81850000D02*
X141733005Y-82081995D01*
X141733005Y-82081995D02*
X141733005Y-86033005D01*
X141733005Y-86033005D02*
X141850000Y-86150000D01*
X141850000Y-86150000D02*
X141850000Y-86850000D01*
%TO.N,+5V*%
X149350000Y-87750000D02*
X149350000Y-88000000D01*
X149100000Y-87776000D02*
X149126000Y-87776000D01*
X149126000Y-87776000D02*
X149350000Y-88000000D01*
X149100000Y-87776000D02*
X149324000Y-87776000D01*
X149350000Y-85450000D02*
X149350000Y-87550000D01*
X149100000Y-87776000D02*
X149124000Y-87776000D01*
X149124000Y-87776000D02*
X149350000Y-87550000D01*
%TO.N,CLK_5V*%
X147150000Y-88750000D02*
X147150000Y-89850000D01*
X147150000Y-89850000D02*
X146850000Y-90150000D01*
%TO.N,+5V*%
X142500000Y-88750000D02*
X142500000Y-88100000D01*
X142500000Y-88100000D02*
X142824000Y-87776000D01*
X142824000Y-87776000D02*
X149100000Y-87776000D01*
X149324000Y-87776000D02*
X149350000Y-87750000D01*
X149350000Y-88000000D02*
X149350000Y-88967823D01*
X149350000Y-88967823D02*
X150144677Y-89762500D01*
X150144677Y-89762500D02*
X150500000Y-89762500D01*
X149350000Y-87550000D02*
X149350000Y-87750000D01*
%TO.N,+3V3*%
X145881241Y-84052445D02*
X145946959Y-84052445D01*
X145850000Y-85396514D02*
X146550000Y-86096514D01*
X145946959Y-84052445D02*
X145850000Y-84149404D01*
X145850000Y-84149404D02*
X145850000Y-85396514D01*
X146550000Y-86096514D02*
X146550000Y-86800000D01*
X146550000Y-86800000D02*
X146500000Y-86850000D01*
%TO.N,+5V*%
X148800000Y-84900000D02*
X149350000Y-85450000D01*
%TO.N,+3V3*%
X143850000Y-84850000D02*
X143850000Y-86850000D01*
%TO.N,+5V*%
X144500000Y-91050000D02*
X144200000Y-91050000D01*
X144200000Y-91050000D02*
X142500000Y-89350000D01*
X142500000Y-89350000D02*
X142500000Y-88750000D01*
X144500000Y-91900000D02*
X144500000Y-91050000D01*
X144500000Y-94000000D02*
X144500000Y-91900000D01*
%TO.N,RX_5V*%
X144500000Y-88750000D02*
X144500000Y-90200000D01*
%TO.N,+3V3*%
X138925000Y-84462500D02*
X140687500Y-84462500D01*
X140687500Y-84462500D02*
X140700000Y-84450000D01*
%TO.N,TX_5V*%
X141200000Y-89350000D02*
X142400000Y-90550000D01*
X141200000Y-88750000D02*
X141200000Y-89350000D01*
X142400000Y-90550000D02*
X142400000Y-93900000D01*
X142400000Y-93900000D02*
X142500000Y-94000000D01*
%TO.N,CLK_3V3*%
X147045000Y-81850000D02*
X147800000Y-82605000D01*
X147800000Y-82605000D02*
X147800000Y-86850000D01*
%TO.N,+3V3*%
X139425000Y-81850000D02*
X138925000Y-82350000D01*
X138925000Y-82350000D02*
X138925000Y-84462500D01*
%TO.N,Net-(D2-K)*%
X138925000Y-87850000D02*
X138925000Y-86337500D01*
%TO.N,Net-(D1-K)*%
X149925000Y-87837500D02*
X149925000Y-86312500D01*
%TO.N,GND*%
X146500000Y-94000000D02*
X146500000Y-91600000D01*
%TO.N,TX_5V*%
X142140000Y-93640000D02*
X142500000Y-94000000D01*
%TO.N,+3V3*%
X140250000Y-85950000D02*
X140250000Y-85200000D01*
X140250000Y-85200000D02*
X140750000Y-84700000D01*
%TD*%
%TA.AperFunction,Conductor*%
%TO.N,GND*%
G36*
X145992539Y-88171185D02*
G01*
X146038294Y-88223989D01*
X146049500Y-88275500D01*
X146049500Y-89374678D01*
X146064032Y-89447735D01*
X146064033Y-89447739D01*
X146074106Y-89462814D01*
X146119399Y-89530601D01*
X146149811Y-89550921D01*
X146202260Y-89585966D01*
X146202263Y-89585967D01*
X146234090Y-89592298D01*
X146296001Y-89624682D01*
X146330575Y-89685398D01*
X146326836Y-89755168D01*
X146313002Y-89782805D01*
X146273537Y-89841868D01*
X146273533Y-89841875D01*
X146224499Y-89960255D01*
X146224497Y-89960261D01*
X146199500Y-90085928D01*
X146199500Y-90085931D01*
X146199500Y-90214069D01*
X146199500Y-90214071D01*
X146199499Y-90214071D01*
X146224497Y-90339738D01*
X146224499Y-90339744D01*
X146273533Y-90458124D01*
X146273538Y-90458133D01*
X146344723Y-90564668D01*
X146344726Y-90564672D01*
X146435327Y-90655273D01*
X146435331Y-90655276D01*
X146541866Y-90726461D01*
X146541875Y-90726466D01*
X146551713Y-90730541D01*
X146660256Y-90775501D01*
X146660260Y-90775501D01*
X146660261Y-90775502D01*
X146785928Y-90800500D01*
X146785931Y-90800500D01*
X146914071Y-90800500D01*
X147014145Y-90780593D01*
X147039744Y-90775501D01*
X147158127Y-90726465D01*
X147264669Y-90655276D01*
X147355276Y-90564669D01*
X147426465Y-90458127D01*
X147475501Y-90339744D01*
X147500500Y-90214069D01*
X147500500Y-90085931D01*
X147495419Y-90060389D01*
X147495850Y-90047652D01*
X147493065Y-90038873D01*
X147496824Y-90018872D01*
X147497333Y-90003838D01*
X147499588Y-89995495D01*
X147499910Y-89994938D01*
X147519082Y-89923387D01*
X147525500Y-89899436D01*
X147525500Y-89800564D01*
X147525500Y-89724000D01*
X147545185Y-89656961D01*
X147597989Y-89611206D01*
X147649500Y-89600000D01*
X147675000Y-89600000D01*
X147925000Y-89600000D01*
X148024626Y-89600000D01*
X148024628Y-89599999D01*
X148097540Y-89585496D01*
X148097544Y-89585494D01*
X148180239Y-89530239D01*
X148235494Y-89447544D01*
X148235496Y-89447540D01*
X148249999Y-89374628D01*
X148250000Y-89374626D01*
X148250000Y-88875000D01*
X147925000Y-88875000D01*
X147925000Y-89600000D01*
X147675000Y-89600000D01*
X147675000Y-88874000D01*
X147677550Y-88865314D01*
X147676262Y-88856353D01*
X147687240Y-88832312D01*
X147694685Y-88806961D01*
X147701525Y-88801033D01*
X147705287Y-88792797D01*
X147727521Y-88778507D01*
X147747489Y-88761206D01*
X147758003Y-88758918D01*
X147764065Y-88755023D01*
X147799000Y-88750000D01*
X147800000Y-88750000D01*
X147800000Y-88749000D01*
X147819685Y-88681961D01*
X147872489Y-88636206D01*
X147924000Y-88625000D01*
X148250000Y-88625000D01*
X148250000Y-88275500D01*
X148269685Y-88208461D01*
X148322489Y-88162706D01*
X148374000Y-88151500D01*
X148850500Y-88151500D01*
X148917539Y-88171185D01*
X148963294Y-88223989D01*
X148974500Y-88275500D01*
X148974500Y-89017258D01*
X149000090Y-89112761D01*
X149039331Y-89180729D01*
X149049526Y-89198386D01*
X149513181Y-89662041D01*
X149546666Y-89723364D01*
X149549500Y-89749722D01*
X149549500Y-90053516D01*
X149549501Y-90053526D01*
X149555828Y-90112391D01*
X149593754Y-90214071D01*
X149605497Y-90245554D01*
X149690669Y-90359331D01*
X149804446Y-90444503D01*
X149937609Y-90494171D01*
X149996479Y-90500500D01*
X151003520Y-90500499D01*
X151054852Y-90494981D01*
X151066482Y-90497079D01*
X151078051Y-90494671D01*
X151100232Y-90503169D01*
X151123610Y-90507388D01*
X151132258Y-90515440D01*
X151143295Y-90519669D01*
X151157361Y-90538812D01*
X151174747Y-90554999D01*
X151177669Y-90566449D01*
X151184667Y-90575973D01*
X151186150Y-90599681D01*
X151192025Y-90622698D01*
X151188292Y-90633910D01*
X151189031Y-90645707D01*
X151177460Y-90666455D01*
X151169959Y-90688992D01*
X151159896Y-90697949D01*
X151155001Y-90706729D01*
X151126560Y-90727628D01*
X151116731Y-90732882D01*
X151094271Y-90742186D01*
X150967661Y-90780593D01*
X150943819Y-90785335D01*
X150806062Y-90798903D01*
X150793908Y-90799500D01*
X147931005Y-90799500D01*
X147795677Y-90826418D01*
X147795667Y-90826421D01*
X147668195Y-90879221D01*
X147668182Y-90879228D01*
X147553458Y-90955885D01*
X147553454Y-90955888D01*
X147455888Y-91053454D01*
X147455885Y-91053458D01*
X147379228Y-91168182D01*
X147379223Y-91168192D01*
X147344738Y-91251447D01*
X147300897Y-91305850D01*
X147234603Y-91327915D01*
X147166903Y-91310636D01*
X147161286Y-91307096D01*
X147097544Y-91264505D01*
X147097540Y-91264503D01*
X147024627Y-91250000D01*
X146625000Y-91250000D01*
X146625000Y-93876000D01*
X146622449Y-93884685D01*
X146623738Y-93893647D01*
X146612759Y-93917687D01*
X146605315Y-93943039D01*
X146598474Y-93948966D01*
X146594713Y-93957203D01*
X146572478Y-93971492D01*
X146552511Y-93988794D01*
X146541996Y-93991081D01*
X146535935Y-93994977D01*
X146501000Y-94000000D01*
X146500000Y-94000000D01*
X146500000Y-94001000D01*
X146480315Y-94068039D01*
X146427511Y-94113794D01*
X146376000Y-94125000D01*
X145750000Y-94125000D01*
X145750000Y-96524628D01*
X145764503Y-96597540D01*
X145764503Y-96597541D01*
X145770562Y-96606608D01*
X145791440Y-96673285D01*
X145772956Y-96740666D01*
X145720978Y-96787356D01*
X145667460Y-96799500D01*
X145333142Y-96799500D01*
X145266103Y-96779815D01*
X145220348Y-96727011D01*
X145210404Y-96657853D01*
X145230040Y-96606610D01*
X145235964Y-96597743D01*
X145235964Y-96597742D01*
X145235966Y-96597740D01*
X145250500Y-96524674D01*
X145250500Y-91475371D01*
X145750000Y-91475371D01*
X145750000Y-93875000D01*
X146375000Y-93875000D01*
X146375000Y-91250000D01*
X145975373Y-91250000D01*
X145902459Y-91264503D01*
X145902455Y-91264505D01*
X145819760Y-91319760D01*
X145764505Y-91402455D01*
X145764503Y-91402459D01*
X145750000Y-91475371D01*
X145250500Y-91475371D01*
X145250500Y-91475326D01*
X145250500Y-91475323D01*
X145250499Y-91475321D01*
X145235967Y-91402264D01*
X145235966Y-91402260D01*
X145180601Y-91319399D01*
X145097740Y-91264034D01*
X145097739Y-91264033D01*
X145097735Y-91264032D01*
X145024677Y-91249500D01*
X145024674Y-91249500D01*
X144999500Y-91249500D01*
X144932461Y-91229815D01*
X144886706Y-91177011D01*
X144875500Y-91125500D01*
X144875500Y-91000567D01*
X144875500Y-91000565D01*
X144849910Y-90905062D01*
X144842770Y-90892696D01*
X144826297Y-90824798D01*
X144849148Y-90758771D01*
X144881265Y-90727595D01*
X144914669Y-90705276D01*
X145005276Y-90614669D01*
X145076465Y-90508127D01*
X145125501Y-90389744D01*
X145144410Y-90294687D01*
X145150500Y-90264071D01*
X145150500Y-90135928D01*
X145125502Y-90010261D01*
X145125501Y-90010260D01*
X145125501Y-90010256D01*
X145079598Y-89899436D01*
X145076466Y-89891875D01*
X145076461Y-89891866D01*
X145005278Y-89785334D01*
X145001928Y-89781252D01*
X144974612Y-89716943D01*
X144986401Y-89648075D01*
X145010098Y-89614901D01*
X145024999Y-89600000D01*
X145275000Y-89600000D01*
X145374626Y-89600000D01*
X145374628Y-89599999D01*
X145447540Y-89585496D01*
X145447544Y-89585494D01*
X145530239Y-89530239D01*
X145585494Y-89447544D01*
X145585496Y-89447540D01*
X145599999Y-89374628D01*
X145600000Y-89374626D01*
X145600000Y-88875000D01*
X145275000Y-88875000D01*
X145275000Y-89600000D01*
X145024999Y-89600000D01*
X145025000Y-89599999D01*
X145025000Y-88874000D01*
X145027550Y-88865314D01*
X145026262Y-88856353D01*
X145037240Y-88832312D01*
X145044685Y-88806961D01*
X145051525Y-88801033D01*
X145055287Y-88792797D01*
X145077521Y-88778507D01*
X145097489Y-88761206D01*
X145108003Y-88758918D01*
X145114065Y-88755023D01*
X145149000Y-88750000D01*
X145150000Y-88750000D01*
X145150000Y-88749000D01*
X145169685Y-88681961D01*
X145222489Y-88636206D01*
X145274000Y-88625000D01*
X145600000Y-88625000D01*
X145600000Y-88275500D01*
X145602550Y-88266814D01*
X145601262Y-88257853D01*
X145612240Y-88233812D01*
X145619685Y-88208461D01*
X145626525Y-88202533D01*
X145630287Y-88194297D01*
X145652521Y-88180007D01*
X145672489Y-88162706D01*
X145683003Y-88160418D01*
X145689065Y-88156523D01*
X145724000Y-88151500D01*
X145925500Y-88151500D01*
X145992539Y-88171185D01*
G37*
%TD.AperFunction*%
%TA.AperFunction,Conductor*%
G36*
X150806061Y-79901097D02*
G01*
X150816051Y-79902080D01*
X150943824Y-79914665D01*
X150967652Y-79919404D01*
X151094277Y-79957815D01*
X151116725Y-79967114D01*
X151233406Y-80029482D01*
X151253616Y-80042986D01*
X151355891Y-80126920D01*
X151373079Y-80144108D01*
X151457012Y-80246381D01*
X151470517Y-80266593D01*
X151532883Y-80383271D01*
X151542186Y-80405728D01*
X151580593Y-80532338D01*
X151585335Y-80556180D01*
X151598903Y-80693938D01*
X151599500Y-80706092D01*
X151599500Y-83935730D01*
X151579815Y-84002769D01*
X151527011Y-84048524D01*
X151457853Y-84058468D01*
X151394297Y-84029443D01*
X151376234Y-84010042D01*
X151307187Y-83917809D01*
X151192093Y-83831649D01*
X151192086Y-83831645D01*
X151057379Y-83781403D01*
X151057372Y-83781401D01*
X150997844Y-83775000D01*
X150625000Y-83775000D01*
X150625000Y-85300000D01*
X150997828Y-85300000D01*
X150997844Y-85299999D01*
X151057372Y-85293598D01*
X151057379Y-85293596D01*
X151192086Y-85243354D01*
X151192093Y-85243350D01*
X151307187Y-85157190D01*
X151307190Y-85157187D01*
X151376234Y-85064958D01*
X151432168Y-85023087D01*
X151501859Y-85018103D01*
X151563182Y-85051589D01*
X151596666Y-85112912D01*
X151599500Y-85139269D01*
X151599500Y-85759897D01*
X151579815Y-85826936D01*
X151527011Y-85872691D01*
X151457853Y-85882635D01*
X151394297Y-85853610D01*
X151376234Y-85834208D01*
X151307547Y-85742455D01*
X151307544Y-85742452D01*
X151192335Y-85656206D01*
X151192328Y-85656202D01*
X151057482Y-85605908D01*
X151057483Y-85605908D01*
X150997883Y-85599501D01*
X150997881Y-85599500D01*
X150997873Y-85599500D01*
X150997864Y-85599500D01*
X150002129Y-85599500D01*
X150002123Y-85599501D01*
X149942514Y-85605909D01*
X149892832Y-85624439D01*
X149862309Y-85626621D01*
X149832032Y-85631020D01*
X149827790Y-85629090D01*
X149823140Y-85629423D01*
X149796278Y-85614754D01*
X149768434Y-85602088D01*
X149765908Y-85598171D01*
X149761817Y-85595937D01*
X149747152Y-85569079D01*
X149730574Y-85543366D01*
X149729660Y-85537043D01*
X149728333Y-85534613D01*
X149725500Y-85508438D01*
X149725500Y-85400565D01*
X149725341Y-85399973D01*
X149725329Y-85391326D01*
X149732951Y-85365226D01*
X149737125Y-85338361D01*
X149742601Y-85332183D01*
X149744916Y-85324258D01*
X149765438Y-85306422D01*
X149783474Y-85286078D01*
X149791421Y-85283841D01*
X149797653Y-85278426D01*
X149824558Y-85274517D01*
X149850732Y-85267153D01*
X149861478Y-85269154D01*
X149866797Y-85268382D01*
X149873360Y-85271367D01*
X149892663Y-85274963D01*
X149942623Y-85293597D01*
X149942627Y-85293598D01*
X150002155Y-85299999D01*
X150002172Y-85300000D01*
X150375000Y-85300000D01*
X150375000Y-83775000D01*
X150002155Y-83775000D01*
X149942627Y-83781401D01*
X149942620Y-83781403D01*
X149807913Y-83831645D01*
X149807906Y-83831649D01*
X149692812Y-83917809D01*
X149692809Y-83917812D01*
X149606649Y-84032907D01*
X149603509Y-84038657D01*
X149554101Y-84088060D01*
X149485827Y-84102909D01*
X149420364Y-84078489D01*
X149408162Y-84067915D01*
X149292335Y-83981206D01*
X149292328Y-83981202D01*
X149157486Y-83930910D01*
X149157485Y-83930909D01*
X149157483Y-83930909D01*
X149097873Y-83924500D01*
X149097863Y-83924500D01*
X148502129Y-83924500D01*
X148502123Y-83924501D01*
X148442516Y-83930908D01*
X148342833Y-83968088D01*
X148273141Y-83973072D01*
X148211818Y-83939586D01*
X148178334Y-83878263D01*
X148175500Y-83851906D01*
X148175500Y-82555567D01*
X148175500Y-82555565D01*
X148149910Y-82460062D01*
X148100475Y-82374438D01*
X148100473Y-82374436D01*
X148100472Y-82374434D01*
X148095526Y-82367988D01*
X148097122Y-82366762D01*
X148068837Y-82314962D01*
X148072071Y-82250289D01*
X148118402Y-82107701D01*
X148145500Y-81936611D01*
X148145500Y-81763389D01*
X148139420Y-81725000D01*
X148491086Y-81725000D01*
X149100856Y-81725000D01*
X149085000Y-81784174D01*
X149085000Y-81915826D01*
X149100856Y-81975000D01*
X148491086Y-81975000D01*
X148512086Y-82107585D01*
X148565591Y-82272257D01*
X148644195Y-82426524D01*
X148745967Y-82566602D01*
X148868397Y-82689032D01*
X149008475Y-82790804D01*
X149162744Y-82869408D01*
X149327415Y-82922913D01*
X149460000Y-82943913D01*
X149460000Y-82334144D01*
X149519174Y-82350000D01*
X149650826Y-82350000D01*
X149710000Y-82334144D01*
X149710000Y-82943912D01*
X149842584Y-82922913D01*
X150007255Y-82869408D01*
X150161524Y-82790804D01*
X150301602Y-82689032D01*
X150424032Y-82566602D01*
X150525804Y-82426524D01*
X150604408Y-82272257D01*
X150657913Y-82107585D01*
X150678914Y-81975000D01*
X150069144Y-81975000D01*
X150085000Y-81915826D01*
X150085000Y-81784174D01*
X150069144Y-81725000D01*
X150678914Y-81725000D01*
X150657913Y-81592414D01*
X150604408Y-81427742D01*
X150525804Y-81273475D01*
X150424032Y-81133397D01*
X150301602Y-81010967D01*
X150161524Y-80909195D01*
X150007257Y-80830591D01*
X149842585Y-80777086D01*
X149710000Y-80756086D01*
X149710000Y-81365855D01*
X149650826Y-81350000D01*
X149519174Y-81350000D01*
X149460000Y-81365855D01*
X149460000Y-80756086D01*
X149327414Y-80777086D01*
X149162742Y-80830591D01*
X149008475Y-80909195D01*
X148868397Y-81010967D01*
X148745967Y-81133397D01*
X148644195Y-81273475D01*
X148565591Y-81427742D01*
X148512086Y-81592414D01*
X148491086Y-81725000D01*
X148139420Y-81725000D01*
X148118402Y-81592299D01*
X148064873Y-81427555D01*
X147986232Y-81273212D01*
X147884414Y-81133072D01*
X147761928Y-81010586D01*
X147621788Y-80908768D01*
X147467445Y-80830127D01*
X147302701Y-80776598D01*
X147302699Y-80776597D01*
X147302698Y-80776597D01*
X147171271Y-80755781D01*
X147131611Y-80749500D01*
X146958389Y-80749500D01*
X146918728Y-80755781D01*
X146787302Y-80776597D01*
X146622552Y-80830128D01*
X146468211Y-80908768D01*
X146388256Y-80966859D01*
X146328072Y-81010586D01*
X146328070Y-81010588D01*
X146328069Y-81010588D01*
X146205588Y-81133069D01*
X146205588Y-81133070D01*
X146205586Y-81133072D01*
X146205350Y-81133397D01*
X146103768Y-81273211D01*
X146025128Y-81427552D01*
X145971597Y-81592302D01*
X145944500Y-81763389D01*
X145944500Y-81936610D01*
X145971579Y-82107585D01*
X145971598Y-82107701D01*
X146025127Y-82272445D01*
X146103768Y-82426788D01*
X146205586Y-82566928D01*
X146328072Y-82689414D01*
X146468212Y-82791232D01*
X146622555Y-82869873D01*
X146787299Y-82923402D01*
X146958389Y-82950500D01*
X146958390Y-82950500D01*
X147131610Y-82950500D01*
X147131611Y-82950500D01*
X147281102Y-82926823D01*
X147350396Y-82935778D01*
X147403848Y-82980774D01*
X147424487Y-83047525D01*
X147424500Y-83049296D01*
X147424500Y-83815141D01*
X147404815Y-83882180D01*
X147352011Y-83927935D01*
X147282853Y-83937879D01*
X147258698Y-83931714D01*
X147257372Y-83931401D01*
X147197844Y-83925000D01*
X147025000Y-83925000D01*
X147025000Y-84776000D01*
X147022449Y-84784685D01*
X147023738Y-84793647D01*
X147012759Y-84817687D01*
X147005315Y-84843039D01*
X146998474Y-84848966D01*
X146994713Y-84857203D01*
X146972478Y-84871492D01*
X146952511Y-84888794D01*
X146941996Y-84891081D01*
X146935935Y-84894977D01*
X146901000Y-84900000D01*
X146899000Y-84900000D01*
X146831961Y-84880315D01*
X146786206Y-84827511D01*
X146775000Y-84776000D01*
X146775000Y-83925000D01*
X146615401Y-83925000D01*
X146548362Y-83905315D01*
X146502607Y-83852511D01*
X146500840Y-83848452D01*
X146457709Y-83744324D01*
X146457702Y-83744311D01*
X146386517Y-83637776D01*
X146386514Y-83637772D01*
X146295913Y-83547171D01*
X146295909Y-83547168D01*
X146189374Y-83475983D01*
X146189365Y-83475978D01*
X146070985Y-83426944D01*
X146070979Y-83426942D01*
X145945312Y-83401945D01*
X145945310Y-83401945D01*
X145817172Y-83401945D01*
X145817170Y-83401945D01*
X145691502Y-83426942D01*
X145685670Y-83428712D01*
X145684851Y-83426013D01*
X145627335Y-83432126D01*
X145564894Y-83400775D01*
X145529315Y-83340643D01*
X145525500Y-83310123D01*
X145525500Y-82445567D01*
X145525499Y-82445563D01*
X145513141Y-82399440D01*
X145513141Y-82399441D01*
X145513140Y-82399436D01*
X145507203Y-82377278D01*
X145508864Y-82307433D01*
X145516488Y-82288900D01*
X145524873Y-82272445D01*
X145578402Y-82107701D01*
X145605500Y-81936611D01*
X145605500Y-81763389D01*
X145578402Y-81592299D01*
X145524873Y-81427555D01*
X145446232Y-81273212D01*
X145344414Y-81133072D01*
X145221928Y-81010586D01*
X145081788Y-80908768D01*
X144927445Y-80830127D01*
X144762701Y-80776598D01*
X144762699Y-80776597D01*
X144762698Y-80776597D01*
X144631271Y-80755781D01*
X144591611Y-80749500D01*
X144418389Y-80749500D01*
X144378728Y-80755781D01*
X144247302Y-80776597D01*
X144082552Y-80830128D01*
X143928211Y-80908768D01*
X143848256Y-80966859D01*
X143788072Y-81010586D01*
X143788070Y-81010588D01*
X143788069Y-81010588D01*
X143665588Y-81133069D01*
X143665588Y-81133070D01*
X143665586Y-81133072D01*
X143665350Y-81133397D01*
X143563768Y-81273211D01*
X143485128Y-81427552D01*
X143431597Y-81592302D01*
X143404500Y-81763389D01*
X143404500Y-81936610D01*
X143431579Y-82107585D01*
X143431598Y-82107701D01*
X143485127Y-82272445D01*
X143563768Y-82426788D01*
X143665586Y-82566928D01*
X143788072Y-82689414D01*
X143928212Y-82791232D01*
X144082555Y-82869873D01*
X144247299Y-82923402D01*
X144418389Y-82950500D01*
X144418390Y-82950500D01*
X144591610Y-82950500D01*
X144591611Y-82950500D01*
X144631102Y-82944245D01*
X144700395Y-82953199D01*
X144753847Y-82998196D01*
X144774487Y-83064947D01*
X144774500Y-83066718D01*
X144774500Y-86024150D01*
X144754815Y-86091189D01*
X144753603Y-86093040D01*
X144714033Y-86152260D01*
X144714032Y-86152264D01*
X144699500Y-86225321D01*
X144699500Y-87276500D01*
X144696949Y-87285185D01*
X144698238Y-87294147D01*
X144687259Y-87318187D01*
X144679815Y-87343539D01*
X144672974Y-87349466D01*
X144669213Y-87357703D01*
X144646978Y-87371992D01*
X144627011Y-87389294D01*
X144616496Y-87391581D01*
X144610435Y-87395477D01*
X144575500Y-87400500D01*
X144424500Y-87400500D01*
X144357461Y-87380815D01*
X144311706Y-87328011D01*
X144300500Y-87276500D01*
X144300500Y-86225323D01*
X144300499Y-86225321D01*
X144285967Y-86152264D01*
X144285966Y-86152260D01*
X144281690Y-86145860D01*
X144246396Y-86093039D01*
X144225520Y-86026362D01*
X144225500Y-86024150D01*
X144225500Y-85445807D01*
X144245185Y-85378768D01*
X144261819Y-85358125D01*
X144264665Y-85355278D01*
X144264669Y-85355276D01*
X144355276Y-85264669D01*
X144426465Y-85158127D01*
X144475501Y-85039744D01*
X144494237Y-84945554D01*
X144500500Y-84914071D01*
X144500500Y-84785928D01*
X144475502Y-84660261D01*
X144475501Y-84660260D01*
X144475501Y-84660256D01*
X144437574Y-84568692D01*
X144426466Y-84541875D01*
X144426461Y-84541866D01*
X144355276Y-84435331D01*
X144355273Y-84435327D01*
X144264672Y-84344726D01*
X144264668Y-84344723D01*
X144158133Y-84273538D01*
X144158124Y-84273533D01*
X144039744Y-84224499D01*
X144039738Y-84224497D01*
X143914071Y-84199500D01*
X143914069Y-84199500D01*
X143785931Y-84199500D01*
X143785929Y-84199500D01*
X143660261Y-84224497D01*
X143660251Y-84224500D01*
X143569002Y-84262297D01*
X143499533Y-84269766D01*
X143437054Y-84238491D01*
X143401402Y-84178402D01*
X143398261Y-84160992D01*
X143393598Y-84117627D01*
X143393596Y-84117620D01*
X143343354Y-83982913D01*
X143343350Y-83982906D01*
X143257190Y-83867812D01*
X143257187Y-83867809D01*
X143142093Y-83781649D01*
X143142086Y-83781645D01*
X143007379Y-83731403D01*
X143007372Y-83731401D01*
X142947844Y-83725000D01*
X142775000Y-83725000D01*
X142775000Y-85675000D01*
X142947828Y-85675000D01*
X142947844Y-85674999D01*
X143007372Y-85668598D01*
X143007379Y-85668596D01*
X143142086Y-85618354D01*
X143142093Y-85618350D01*
X143257187Y-85532190D01*
X143262819Y-85526559D01*
X143324142Y-85493074D01*
X143393834Y-85498058D01*
X143449767Y-85539930D01*
X143474184Y-85605394D01*
X143474500Y-85614240D01*
X143474500Y-86024150D01*
X143454815Y-86091189D01*
X143453603Y-86093040D01*
X143414033Y-86152260D01*
X143414032Y-86152264D01*
X143399500Y-86225321D01*
X143399500Y-87276500D01*
X143396949Y-87285185D01*
X143398238Y-87294147D01*
X143387259Y-87318187D01*
X143379815Y-87343539D01*
X143372974Y-87349466D01*
X143369213Y-87357703D01*
X143346978Y-87371992D01*
X143327011Y-87389294D01*
X143316496Y-87391581D01*
X143310435Y-87395477D01*
X143275500Y-87400500D01*
X143074500Y-87400500D01*
X143007461Y-87380815D01*
X142961706Y-87328011D01*
X142950500Y-87276500D01*
X142950500Y-86225323D01*
X142950499Y-86225321D01*
X142935967Y-86152264D01*
X142935966Y-86152260D01*
X142931690Y-86145860D01*
X142880601Y-86069399D01*
X142818825Y-86028122D01*
X142797739Y-86014033D01*
X142797735Y-86014032D01*
X142724677Y-85999500D01*
X142724674Y-85999500D01*
X142275326Y-85999500D01*
X142269235Y-85999500D01*
X142269235Y-85996859D01*
X142268994Y-85996813D01*
X142257539Y-85999117D01*
X142235293Y-85990416D01*
X142211830Y-85985963D01*
X142201695Y-85977276D01*
X142192469Y-85973668D01*
X142177525Y-85956560D01*
X142167910Y-85948319D01*
X142164159Y-85943139D01*
X142150475Y-85919438D01*
X142137854Y-85906817D01*
X142132075Y-85898837D01*
X142123549Y-85874825D01*
X142111339Y-85852464D01*
X142109484Y-85835211D01*
X142108697Y-85832995D01*
X142109073Y-85831389D01*
X142108505Y-85826106D01*
X142108505Y-85778519D01*
X142128190Y-85711480D01*
X142180994Y-85665725D01*
X142250152Y-85655781D01*
X142275840Y-85662338D01*
X142292619Y-85668596D01*
X142292627Y-85668598D01*
X142352155Y-85674999D01*
X142352172Y-85675000D01*
X142525000Y-85675000D01*
X142525000Y-83725000D01*
X142352155Y-83725000D01*
X142292627Y-83731401D01*
X142292620Y-83731403D01*
X142275836Y-83737663D01*
X142206144Y-83742646D01*
X142144822Y-83709159D01*
X142111338Y-83647835D01*
X142108505Y-83621480D01*
X142108505Y-83047394D01*
X142128190Y-82980355D01*
X142180994Y-82934600D01*
X142213107Y-82924921D01*
X142222701Y-82923402D01*
X142387445Y-82869873D01*
X142541788Y-82791232D01*
X142681928Y-82689414D01*
X142804414Y-82566928D01*
X142906232Y-82426788D01*
X142984873Y-82272445D01*
X143038402Y-82107701D01*
X143065500Y-81936611D01*
X143065500Y-81763389D01*
X143038402Y-81592299D01*
X142984873Y-81427555D01*
X142906232Y-81273212D01*
X142804414Y-81133072D01*
X142681928Y-81010586D01*
X142541788Y-80908768D01*
X142387445Y-80830127D01*
X142222701Y-80776598D01*
X142222699Y-80776597D01*
X142222698Y-80776597D01*
X142091271Y-80755781D01*
X142051611Y-80749500D01*
X141878389Y-80749500D01*
X141838728Y-80755781D01*
X141707302Y-80776597D01*
X141542552Y-80830128D01*
X141388211Y-80908768D01*
X141308256Y-80966859D01*
X141248072Y-81010586D01*
X141248070Y-81010588D01*
X141248069Y-81010588D01*
X141125588Y-81133069D01*
X141125588Y-81133070D01*
X141125586Y-81133072D01*
X141125350Y-81133397D01*
X141023768Y-81273211D01*
X140945128Y-81427552D01*
X140891597Y-81592302D01*
X140864500Y-81763389D01*
X140864500Y-81936610D01*
X140891579Y-82107585D01*
X140891598Y-82107701D01*
X140945127Y-82272445D01*
X141023768Y-82426788D01*
X141125586Y-82566928D01*
X141125588Y-82566930D01*
X141248075Y-82689417D01*
X141287521Y-82718075D01*
X141306389Y-82731783D01*
X141349055Y-82787112D01*
X141357505Y-82832102D01*
X141357505Y-83645567D01*
X141337820Y-83712606D01*
X141285016Y-83758361D01*
X141215858Y-83768305D01*
X141190173Y-83761749D01*
X141107488Y-83730910D01*
X141107484Y-83730909D01*
X141107483Y-83730909D01*
X141047873Y-83724500D01*
X141047863Y-83724500D01*
X140452129Y-83724500D01*
X140452123Y-83724501D01*
X140392516Y-83730908D01*
X140257671Y-83781202D01*
X140257664Y-83781206D01*
X140142455Y-83867452D01*
X140142452Y-83867455D01*
X140056206Y-83982664D01*
X140056202Y-83982672D01*
X140054635Y-83986874D01*
X140012763Y-84042806D01*
X139947298Y-84067222D01*
X139879025Y-84052369D01*
X139829621Y-84002963D01*
X139822273Y-83986874D01*
X139819503Y-83979446D01*
X139734331Y-83865669D01*
X139665962Y-83814489D01*
X139620556Y-83780498D01*
X139620554Y-83780497D01*
X139487391Y-83730829D01*
X139487389Y-83730828D01*
X139487387Y-83730828D01*
X139428537Y-83724500D01*
X139428521Y-83724500D01*
X139424500Y-83724500D01*
X139357461Y-83704815D01*
X139311706Y-83652011D01*
X139300500Y-83600500D01*
X139300500Y-83074500D01*
X139320185Y-83007461D01*
X139372989Y-82961706D01*
X139424500Y-82950500D01*
X140299676Y-82950500D01*
X140299677Y-82950499D01*
X140372740Y-82935966D01*
X140455601Y-82880601D01*
X140510966Y-82797740D01*
X140525500Y-82724674D01*
X140525500Y-80975326D01*
X140525500Y-80975323D01*
X140525499Y-80975321D01*
X140510967Y-80902264D01*
X140510966Y-80902260D01*
X140455601Y-80819399D01*
X140372740Y-80764034D01*
X140372739Y-80764033D01*
X140372735Y-80764032D01*
X140299677Y-80749500D01*
X140299674Y-80749500D01*
X138550326Y-80749500D01*
X138550323Y-80749500D01*
X138477264Y-80764032D01*
X138477260Y-80764033D01*
X138394399Y-80819399D01*
X138339033Y-80902260D01*
X138339032Y-80902264D01*
X138324500Y-80975321D01*
X138324500Y-82724678D01*
X138339032Y-82797735D01*
X138339033Y-82797739D01*
X138339034Y-82797740D01*
X138394399Y-82880601D01*
X138475216Y-82934600D01*
X138487415Y-82942751D01*
X138486074Y-82944756D01*
X138527355Y-82978021D01*
X138549421Y-83044315D01*
X138549500Y-83048743D01*
X138549500Y-83600500D01*
X138529815Y-83667539D01*
X138477011Y-83713294D01*
X138425517Y-83724500D01*
X138421491Y-83724500D01*
X138421473Y-83724501D01*
X138362608Y-83730828D01*
X138229445Y-83780497D01*
X138115669Y-83865669D01*
X138030498Y-83979443D01*
X138029297Y-83982664D01*
X137989986Y-84088060D01*
X137980828Y-84112612D01*
X137974500Y-84171462D01*
X137974500Y-84753517D01*
X137974501Y-84753526D01*
X137980828Y-84812391D01*
X138018754Y-84914071D01*
X138030497Y-84945554D01*
X138115669Y-85059331D01*
X138229446Y-85144503D01*
X138362609Y-85194171D01*
X138421479Y-85200500D01*
X139428520Y-85200499D01*
X139487391Y-85194171D01*
X139620554Y-85144503D01*
X139676190Y-85102853D01*
X139688810Y-85098146D01*
X139698989Y-85089327D01*
X139720904Y-85086175D01*
X139741652Y-85078437D01*
X139754814Y-85081300D01*
X139768147Y-85079383D01*
X139788288Y-85088581D01*
X139809926Y-85093288D01*
X139819450Y-85102812D01*
X139831703Y-85108408D01*
X139843675Y-85127037D01*
X139859331Y-85142693D01*
X139863017Y-85157134D01*
X139869477Y-85167186D01*
X139874500Y-85202121D01*
X139874500Y-85354192D01*
X139854815Y-85421231D01*
X139838181Y-85441873D01*
X139744726Y-85535327D01*
X139710186Y-85587020D01*
X139656573Y-85631824D01*
X139587248Y-85640531D01*
X139563751Y-85634310D01*
X139487605Y-85605909D01*
X139487391Y-85605829D01*
X139487390Y-85605828D01*
X139487389Y-85605828D01*
X139428529Y-85599500D01*
X138421482Y-85599500D01*
X138421473Y-85599501D01*
X138362608Y-85605828D01*
X138229445Y-85655497D01*
X138115669Y-85740669D01*
X138030498Y-85854443D01*
X138015303Y-85895183D01*
X137995608Y-85947987D01*
X137980828Y-85987612D01*
X137974500Y-86046462D01*
X137974500Y-86628517D01*
X137974501Y-86628526D01*
X137980828Y-86687391D01*
X138010778Y-86767687D01*
X138030497Y-86820554D01*
X138115669Y-86934331D01*
X138181409Y-86983543D01*
X138223280Y-87039477D01*
X138228264Y-87109169D01*
X138194779Y-87170492D01*
X138181410Y-87182076D01*
X138117452Y-87229955D01*
X138031206Y-87345164D01*
X138031202Y-87345171D01*
X137980910Y-87480013D01*
X137980909Y-87480017D01*
X137974500Y-87539627D01*
X137974500Y-87539634D01*
X137974500Y-87539635D01*
X137974500Y-88160370D01*
X137974501Y-88160376D01*
X137980908Y-88219983D01*
X138031202Y-88354828D01*
X138031206Y-88354835D01*
X138117452Y-88470044D01*
X138117455Y-88470047D01*
X138232664Y-88556293D01*
X138232671Y-88556297D01*
X138367517Y-88606591D01*
X138367516Y-88606591D01*
X138374444Y-88607335D01*
X138427127Y-88613000D01*
X139422872Y-88612999D01*
X139482483Y-88606591D01*
X139617331Y-88556296D01*
X139732546Y-88470046D01*
X139818796Y-88354831D01*
X139869091Y-88219983D01*
X139875500Y-88160373D01*
X139875499Y-87539628D01*
X139869091Y-87480017D01*
X139867098Y-87474674D01*
X139818797Y-87345171D01*
X139818793Y-87345164D01*
X139732547Y-87229956D01*
X139732548Y-87229956D01*
X139732546Y-87229954D01*
X139668589Y-87182075D01*
X139626719Y-87126143D01*
X139621735Y-87056451D01*
X139655220Y-86995128D01*
X139668591Y-86983543D01*
X139734331Y-86934331D01*
X139819503Y-86820554D01*
X139869171Y-86687391D01*
X139871128Y-86669190D01*
X139897866Y-86604639D01*
X139955259Y-86564791D01*
X140025084Y-86562298D01*
X140041866Y-86567883D01*
X140060256Y-86575501D01*
X140060260Y-86575501D01*
X140060261Y-86575502D01*
X140185928Y-86600500D01*
X140185931Y-86600500D01*
X140314071Y-86600500D01*
X140398615Y-86583682D01*
X140439744Y-86575501D01*
X140558127Y-86526465D01*
X140558131Y-86526461D01*
X140563502Y-86523592D01*
X140564214Y-86524924D01*
X140623768Y-86506267D01*
X140691151Y-86524742D01*
X140737849Y-86576714D01*
X140750000Y-86630247D01*
X140750000Y-86725000D01*
X141075000Y-86725000D01*
X141075000Y-86000000D01*
X141024122Y-86000000D01*
X140993065Y-85990880D01*
X140961636Y-85983105D01*
X140959735Y-85981093D01*
X140957083Y-85980315D01*
X140935892Y-85955859D01*
X140913650Y-85932320D01*
X140912708Y-85929104D01*
X140911328Y-85927511D01*
X140902258Y-85898915D01*
X140900500Y-85889565D01*
X140900500Y-85885931D01*
X140888005Y-85823118D01*
X140887873Y-85822414D01*
X140891291Y-85788250D01*
X140894347Y-85754099D01*
X140894761Y-85753565D01*
X140894829Y-85752891D01*
X140916172Y-85726002D01*
X140937210Y-85698922D01*
X140937848Y-85698696D01*
X140938269Y-85698167D01*
X140970757Y-85687086D01*
X141003100Y-85675677D01*
X141004308Y-85675644D01*
X141004398Y-85675614D01*
X141004500Y-85675639D01*
X141009737Y-85675499D01*
X141047871Y-85675499D01*
X141047872Y-85675499D01*
X141107483Y-85669091D01*
X141190172Y-85638249D01*
X141259863Y-85633266D01*
X141321186Y-85666751D01*
X141354671Y-85728074D01*
X141357505Y-85754432D01*
X141357505Y-85916133D01*
X141337820Y-85983172D01*
X141325000Y-85999081D01*
X141325000Y-86726000D01*
X141322449Y-86734685D01*
X141323738Y-86743647D01*
X141312759Y-86767687D01*
X141305315Y-86793039D01*
X141298474Y-86798966D01*
X141294713Y-86807203D01*
X141272478Y-86821492D01*
X141252511Y-86838794D01*
X141241996Y-86841081D01*
X141235935Y-86844977D01*
X141201000Y-86850000D01*
X141200000Y-86850000D01*
X141200000Y-86851000D01*
X141180315Y-86918039D01*
X141127511Y-86963794D01*
X141076000Y-86975000D01*
X140750000Y-86975000D01*
X140750000Y-87474628D01*
X140764503Y-87547540D01*
X140764505Y-87547544D01*
X140819760Y-87630239D01*
X140912610Y-87692280D01*
X140911866Y-87693393D01*
X140956054Y-87729000D01*
X140978121Y-87795293D01*
X140960844Y-87862993D01*
X140909708Y-87910605D01*
X140902390Y-87913947D01*
X140819399Y-87969399D01*
X140764033Y-88052260D01*
X140764032Y-88052264D01*
X140749500Y-88125321D01*
X140749500Y-89374678D01*
X140764032Y-89447735D01*
X140764033Y-89447739D01*
X140774106Y-89462814D01*
X140819398Y-89530600D01*
X140819400Y-89530602D01*
X140900150Y-89584557D01*
X140918941Y-89599978D01*
X141988181Y-90669218D01*
X142021666Y-90730541D01*
X142024500Y-90756899D01*
X142024500Y-91137954D01*
X142004815Y-91204993D01*
X141956044Y-91248818D01*
X141941089Y-91256310D01*
X141902260Y-91264034D01*
X141832088Y-91310920D01*
X141825171Y-91314386D01*
X141798097Y-91319280D01*
X141771839Y-91327502D01*
X141764204Y-91325407D01*
X141756415Y-91326816D01*
X141730992Y-91316296D01*
X141704459Y-91309017D01*
X141699168Y-91303127D01*
X141691855Y-91300101D01*
X141676155Y-91277506D01*
X141657769Y-91257037D01*
X141655066Y-91250974D01*
X141620778Y-91168195D01*
X141620771Y-91168182D01*
X141544114Y-91053458D01*
X141544111Y-91053454D01*
X141446545Y-90955888D01*
X141446541Y-90955885D01*
X141331817Y-90879228D01*
X141331804Y-90879221D01*
X141204332Y-90826421D01*
X141204322Y-90826418D01*
X141068995Y-90799500D01*
X141068993Y-90799500D01*
X141039882Y-90799500D01*
X138206092Y-90799500D01*
X138193938Y-90798903D01*
X138056180Y-90785335D01*
X138032340Y-90780593D01*
X137905728Y-90742186D01*
X137883271Y-90732883D01*
X137766593Y-90670517D01*
X137746381Y-90657012D01*
X137644108Y-90573079D01*
X137626920Y-90555891D01*
X137612904Y-90538812D01*
X137542986Y-90453616D01*
X137529482Y-90433406D01*
X137467114Y-90316725D01*
X137457815Y-90294277D01*
X137419404Y-90167652D01*
X137414665Y-90143824D01*
X137401097Y-90006060D01*
X137400500Y-89993907D01*
X137400500Y-89985344D01*
X137975000Y-89985344D01*
X137981401Y-90044872D01*
X137981403Y-90044879D01*
X138031645Y-90179586D01*
X138031649Y-90179593D01*
X138117809Y-90294687D01*
X138117812Y-90294690D01*
X138232906Y-90380850D01*
X138232913Y-90380854D01*
X138367620Y-90431096D01*
X138367627Y-90431098D01*
X138427155Y-90437499D01*
X138427172Y-90437500D01*
X138800000Y-90437500D01*
X139050000Y-90437500D01*
X139422828Y-90437500D01*
X139422844Y-90437499D01*
X139482372Y-90431098D01*
X139482379Y-90431096D01*
X139617086Y-90380854D01*
X139617093Y-90380850D01*
X139732187Y-90294690D01*
X139732190Y-90294687D01*
X139818350Y-90179593D01*
X139818354Y-90179586D01*
X139868596Y-90044879D01*
X139868598Y-90044872D01*
X139874999Y-89985344D01*
X139875000Y-89985327D01*
X139875000Y-89800000D01*
X139050000Y-89800000D01*
X139050000Y-90437500D01*
X138800000Y-90437500D01*
X138800000Y-89800000D01*
X137975000Y-89800000D01*
X137975000Y-89985344D01*
X137400500Y-89985344D01*
X137400500Y-89364655D01*
X137975000Y-89364655D01*
X137975000Y-89550000D01*
X138800000Y-89550000D01*
X139050000Y-89550000D01*
X139875000Y-89550000D01*
X139875000Y-89364672D01*
X139874999Y-89364655D01*
X139868598Y-89305127D01*
X139868596Y-89305120D01*
X139818354Y-89170413D01*
X139818350Y-89170406D01*
X139732190Y-89055312D01*
X139732187Y-89055309D01*
X139617093Y-88969149D01*
X139617086Y-88969145D01*
X139482379Y-88918903D01*
X139482372Y-88918901D01*
X139422844Y-88912500D01*
X139050000Y-88912500D01*
X139050000Y-89550000D01*
X138800000Y-89550000D01*
X138800000Y-88912500D01*
X138427155Y-88912500D01*
X138367627Y-88918901D01*
X138367620Y-88918903D01*
X138232913Y-88969145D01*
X138232906Y-88969149D01*
X138117812Y-89055309D01*
X138117809Y-89055312D01*
X138031649Y-89170406D01*
X138031645Y-89170413D01*
X137981403Y-89305120D01*
X137981401Y-89305127D01*
X137975000Y-89364655D01*
X137400500Y-89364655D01*
X137400500Y-80706092D01*
X137401097Y-80693939D01*
X137409805Y-80605519D01*
X137414665Y-80556171D01*
X137419403Y-80532349D01*
X137457816Y-80405719D01*
X137467113Y-80383278D01*
X137529485Y-80266587D01*
X137542982Y-80246387D01*
X137626924Y-80144103D01*
X137644103Y-80126924D01*
X137746387Y-80042982D01*
X137766587Y-80029485D01*
X137883278Y-79967113D01*
X137905719Y-79957816D01*
X138032349Y-79919403D01*
X138056173Y-79914665D01*
X138185170Y-79901960D01*
X138193939Y-79901097D01*
X138206092Y-79900500D01*
X138239882Y-79900500D01*
X150760118Y-79900500D01*
X150793908Y-79900500D01*
X150806061Y-79901097D01*
G37*
%TD.AperFunction*%
%TA.AperFunction,Conductor*%
G36*
X148342828Y-85831909D02*
G01*
X148442517Y-85869091D01*
X148502127Y-85875500D01*
X148850500Y-85875499D01*
X148917539Y-85895183D01*
X148963294Y-85947987D01*
X148974500Y-85999499D01*
X148974500Y-87276500D01*
X148954815Y-87343539D01*
X148902011Y-87389294D01*
X148850500Y-87400500D01*
X148374500Y-87400500D01*
X148307461Y-87380815D01*
X148261706Y-87328011D01*
X148250500Y-87276500D01*
X148250500Y-86225323D01*
X148250499Y-86225321D01*
X148235967Y-86152264D01*
X148235966Y-86152260D01*
X148231690Y-86145860D01*
X148196396Y-86093039D01*
X148188905Y-86069114D01*
X148177577Y-86046750D01*
X148178645Y-86036344D01*
X148175520Y-86026362D01*
X148175500Y-86024150D01*
X148175500Y-85948093D01*
X148195185Y-85881054D01*
X148247989Y-85835299D01*
X148317147Y-85825355D01*
X148342828Y-85831909D01*
G37*
%TD.AperFunction*%
%TD*%
%TA.AperFunction,NonConductor*%
G36*
X147388180Y-85897175D02*
G01*
X147421666Y-85958498D01*
X147424500Y-85984858D01*
X147424500Y-86024150D01*
X147404815Y-86091189D01*
X147403603Y-86093040D01*
X147364033Y-86152260D01*
X147364032Y-86152264D01*
X147349500Y-86225321D01*
X147349500Y-87276500D01*
X147346949Y-87285185D01*
X147348238Y-87294147D01*
X147337259Y-87318187D01*
X147329815Y-87343539D01*
X147322974Y-87349466D01*
X147319213Y-87357703D01*
X147296978Y-87371992D01*
X147277011Y-87389294D01*
X147266496Y-87391581D01*
X147260435Y-87395477D01*
X147225500Y-87400500D01*
X147074500Y-87400500D01*
X147007461Y-87380815D01*
X146961706Y-87328011D01*
X146950500Y-87276500D01*
X146950500Y-86225323D01*
X146935966Y-86152261D01*
X146934938Y-86149778D01*
X146933924Y-86145273D01*
X146932420Y-86143172D01*
X146929280Y-86124639D01*
X146925655Y-86108532D01*
X146925500Y-86105438D01*
X146925500Y-86047079D01*
X146925339Y-86046480D01*
X146921217Y-86031095D01*
X146921396Y-86023543D01*
X146921244Y-86020498D01*
X146921493Y-86019457D01*
X146922878Y-85961245D01*
X146962040Y-85903382D01*
X147026268Y-85875877D01*
X147040991Y-85875000D01*
X147197828Y-85875000D01*
X147197844Y-85874999D01*
X147257372Y-85868598D01*
X147264930Y-85866813D01*
X147265233Y-85868099D01*
X147326856Y-85863691D01*
X147388180Y-85897175D01*
G37*
%TD.AperFunction*%
%TA.AperFunction,NonConductor*%
G36*
X145730703Y-85808700D02*
G01*
X145737181Y-85814732D01*
X146018937Y-86096488D01*
X146052422Y-86157811D01*
X146052874Y-86208355D01*
X146049500Y-86225318D01*
X146049500Y-87276500D01*
X146046949Y-87285185D01*
X146048238Y-87294147D01*
X146037259Y-87318187D01*
X146029815Y-87343539D01*
X146022974Y-87349466D01*
X146019213Y-87357703D01*
X145996978Y-87371992D01*
X145977011Y-87389294D01*
X145966496Y-87391581D01*
X145960435Y-87395477D01*
X145925500Y-87400500D01*
X145724500Y-87400500D01*
X145657461Y-87380815D01*
X145611706Y-87328011D01*
X145600500Y-87276500D01*
X145600500Y-86225323D01*
X145600499Y-86225321D01*
X145585967Y-86152264D01*
X145585966Y-86152260D01*
X145581690Y-86145860D01*
X145546396Y-86093039D01*
X145540746Y-86074993D01*
X145530523Y-86059085D01*
X145526071Y-86028122D01*
X145525520Y-86026362D01*
X145525500Y-86024150D01*
X145525500Y-85902413D01*
X145545185Y-85835374D01*
X145597989Y-85789619D01*
X145667147Y-85779675D01*
X145730703Y-85808700D01*
G37*
%TD.AperFunction*%
%TA.AperFunction,NonConductor*%
G36*
X151563182Y-86877421D02*
G01*
X151596666Y-86938745D01*
X151599500Y-86965102D01*
X151599500Y-87305729D01*
X151593067Y-87327635D01*
X151591178Y-87350389D01*
X151583411Y-87360520D01*
X151579815Y-87372768D01*
X151562562Y-87387717D01*
X151548670Y-87405840D01*
X151536657Y-87410164D01*
X151527011Y-87418523D01*
X151504412Y-87421772D01*
X151482930Y-87429506D01*
X151470488Y-87426650D01*
X151457853Y-87428467D01*
X151437083Y-87418981D01*
X151414832Y-87413874D01*
X151398523Y-87401372D01*
X151394297Y-87399442D01*
X151390036Y-87394866D01*
X151386821Y-87392401D01*
X151381119Y-87386566D01*
X151309331Y-87290669D01*
X151227572Y-87229465D01*
X151220873Y-87222611D01*
X151188092Y-87160909D01*
X151193874Y-87091279D01*
X151235240Y-87036673D01*
X151307546Y-86982546D01*
X151376234Y-86890789D01*
X151432167Y-86848920D01*
X151501859Y-86843936D01*
X151563182Y-86877421D01*
G37*
%TD.AperFunction*%
%TA.AperFunction,NonConductor*%
G36*
X151563181Y-88381589D02*
G01*
X151596666Y-88442912D01*
X151599500Y-88469270D01*
X151599500Y-89180729D01*
X151579815Y-89247768D01*
X151527011Y-89293523D01*
X151457853Y-89303467D01*
X151394297Y-89274442D01*
X151376233Y-89255040D01*
X151348581Y-89218101D01*
X151309331Y-89165669D01*
X151238654Y-89112761D01*
X151195556Y-89080498D01*
X151195554Y-89080497D01*
X151062391Y-89030829D01*
X151062389Y-89030828D01*
X151062387Y-89030828D01*
X151003529Y-89024500D01*
X149996477Y-89024500D01*
X149995897Y-89024532D01*
X149995765Y-89024500D01*
X149993160Y-89024501D01*
X149993160Y-89023884D01*
X149962931Y-89016735D01*
X149929857Y-89009540D01*
X149928630Y-89008622D01*
X149927903Y-89008450D01*
X149901603Y-88988389D01*
X149761819Y-88848605D01*
X149728334Y-88787282D01*
X149725500Y-88760924D01*
X149725500Y-88718651D01*
X149745185Y-88651612D01*
X149797989Y-88605857D01*
X149867147Y-88595913D01*
X149892827Y-88602468D01*
X149937609Y-88619171D01*
X149996479Y-88625500D01*
X151003520Y-88625499D01*
X151062391Y-88619171D01*
X151195554Y-88569503D01*
X151309331Y-88484331D01*
X151376233Y-88394960D01*
X151432166Y-88353088D01*
X151501858Y-88348104D01*
X151563181Y-88381589D01*
G37*
%TD.AperFunction*%
%TA.AperFunction,NonConductor*%
G36*
X141613148Y-87698077D02*
G01*
X141625325Y-87700500D01*
X142080766Y-87700500D01*
X142080766Y-87702941D01*
X142082190Y-87703211D01*
X142094166Y-87700903D01*
X142115876Y-87709594D01*
X142138854Y-87713949D01*
X142147707Y-87722337D01*
X142159030Y-87726871D01*
X142172596Y-87745922D01*
X142189571Y-87762007D01*
X142192483Y-87773849D01*
X142199558Y-87783785D01*
X142200670Y-87807145D01*
X142206255Y-87829855D01*
X142202383Y-87843115D01*
X142202882Y-87853576D01*
X142189765Y-87886342D01*
X142170345Y-87919978D01*
X142131851Y-87961078D01*
X142119399Y-87969398D01*
X142064034Y-88052260D01*
X142064032Y-88052264D01*
X142049500Y-88125321D01*
X142049500Y-89369101D01*
X142043261Y-89390346D01*
X142041682Y-89412435D01*
X142033609Y-89423218D01*
X142029815Y-89436140D01*
X142013081Y-89450639D01*
X141999810Y-89468368D01*
X141987189Y-89473075D01*
X141977011Y-89481895D01*
X141955093Y-89485046D01*
X141934346Y-89492785D01*
X141921185Y-89489922D01*
X141907853Y-89491839D01*
X141887709Y-89482639D01*
X141866073Y-89477933D01*
X141848347Y-89464664D01*
X141844297Y-89462814D01*
X141837819Y-89456782D01*
X141686819Y-89305782D01*
X141653334Y-89244459D01*
X141650500Y-89218101D01*
X141650500Y-88125323D01*
X141650499Y-88125321D01*
X141635967Y-88052264D01*
X141635966Y-88052260D01*
X141580600Y-87969398D01*
X141506951Y-87920188D01*
X141462146Y-87866576D01*
X141453439Y-87797251D01*
X141483593Y-87734224D01*
X141543036Y-87697504D01*
X141600034Y-87695469D01*
X141613148Y-87698077D01*
G37*
%TD.AperFunction*%
%TA.AperFunction,NonConductor*%
G36*
X143342539Y-88171185D02*
G01*
X143388294Y-88223989D01*
X143399500Y-88275500D01*
X143399500Y-89374673D01*
X143405116Y-89402909D01*
X143398887Y-89472501D01*
X143356024Y-89527677D01*
X143290134Y-89550921D01*
X143222137Y-89534852D01*
X143195817Y-89514780D01*
X142986819Y-89305782D01*
X142953334Y-89244459D01*
X142950500Y-89218101D01*
X142950500Y-88275500D01*
X142953050Y-88266814D01*
X142951762Y-88257853D01*
X142962740Y-88233812D01*
X142970185Y-88208461D01*
X142977025Y-88202533D01*
X142980787Y-88194297D01*
X143003021Y-88180007D01*
X143022989Y-88162706D01*
X143033503Y-88160418D01*
X143039565Y-88156523D01*
X143074500Y-88151500D01*
X143275500Y-88151500D01*
X143342539Y-88171185D01*
G37*
%TD.AperFunction*%
%TA.AperFunction,NonConductor*%
G36*
X143597093Y-89594884D02*
G01*
X143625325Y-89600500D01*
X143886236Y-89600500D01*
X143891021Y-89601905D01*
X143895903Y-89600877D01*
X143924216Y-89611652D01*
X143953275Y-89620185D01*
X143956541Y-89623954D01*
X143961204Y-89625729D01*
X143979197Y-89650101D01*
X143999030Y-89672989D01*
X143999739Y-89677925D01*
X144002703Y-89681939D01*
X144004663Y-89712169D01*
X144008974Y-89742147D01*
X144006990Y-89748041D01*
X144007225Y-89751662D01*
X144000462Y-89767437D01*
X143994671Y-89784648D01*
X143992181Y-89789136D01*
X143923535Y-89891873D01*
X143889156Y-89974868D01*
X143885731Y-89981045D01*
X143865687Y-90000823D01*
X143848016Y-90022753D01*
X143841149Y-90025038D01*
X143835999Y-90030121D01*
X143808442Y-90035924D01*
X143781722Y-90044818D01*
X143774710Y-90043028D01*
X143767629Y-90044520D01*
X143741309Y-90034503D01*
X143714023Y-90027539D01*
X143705391Y-90020834D01*
X143702328Y-90019668D01*
X143700226Y-90016821D01*
X143689615Y-90008578D01*
X143485219Y-89804182D01*
X143451734Y-89742859D01*
X143456718Y-89673167D01*
X143498590Y-89617234D01*
X143564054Y-89592817D01*
X143597093Y-89594884D01*
G37*
%TD.AperFunction*%
%TA.AperFunction,NonConductor*%
G36*
X142943309Y-90333989D02*
G01*
X142976807Y-90357844D01*
X143795090Y-91176127D01*
X143828575Y-91237450D01*
X143823591Y-91307142D01*
X143810513Y-91332697D01*
X143764033Y-91402261D01*
X143764032Y-91402264D01*
X143749500Y-91475321D01*
X143749500Y-96524678D01*
X143764032Y-96597735D01*
X143764035Y-96597743D01*
X143769960Y-96606610D01*
X143790838Y-96673287D01*
X143772353Y-96740667D01*
X143720374Y-96787357D01*
X143666858Y-96799500D01*
X143333142Y-96799500D01*
X143266103Y-96779815D01*
X143220348Y-96727011D01*
X143210404Y-96657853D01*
X143230040Y-96606610D01*
X143235964Y-96597743D01*
X143235964Y-96597742D01*
X143235966Y-96597740D01*
X143250500Y-96524674D01*
X143250500Y-91475326D01*
X143250500Y-91475323D01*
X143250499Y-91475321D01*
X143235967Y-91402264D01*
X143235966Y-91402260D01*
X143180601Y-91319399D01*
X143097740Y-91264034D01*
X143097739Y-91264033D01*
X143097735Y-91264032D01*
X143024677Y-91249500D01*
X143024674Y-91249500D01*
X142899500Y-91249500D01*
X142832461Y-91229815D01*
X142786706Y-91177011D01*
X142775500Y-91125500D01*
X142775500Y-90500562D01*
X142775390Y-90500156D01*
X142774003Y-90494981D01*
X142769351Y-90477617D01*
X142771014Y-90407767D01*
X142810178Y-90349905D01*
X142874406Y-90322402D01*
X142943309Y-90333989D01*
G37*
%TD.AperFunction*%
M02*
