%TF.GenerationSoftware,KiCad,Pcbnew,8.0.6-8.0.6-0~ubuntu22.04.1*%
%TF.CreationDate,2024-11-07T23:47:04-08:00*%
%TF.ProjectId,gbvideo_breakout,67627669-6465-46f5-9f62-7265616b6f75,rev?*%
%TF.SameCoordinates,Original*%
%TF.FileFunction,Copper,L2,Bot*%
%TF.FilePolarity,Positive*%
%FSLAX46Y46*%
G04 Gerber Fmt 4.6, Leading zero omitted, Abs format (unit mm)*
G04 Created by KiCad (PCBNEW 8.0.6-8.0.6-0~ubuntu22.04.1) date 2024-11-07 23:47:04*
%MOMM*%
%LPD*%
G01*
G04 APERTURE LIST*
%TA.AperFunction,ComponentPad*%
%ADD10C,3.400000*%
%TD*%
%TA.AperFunction,ComponentPad*%
%ADD11O,1.700000X1.700000*%
%TD*%
%TA.AperFunction,ComponentPad*%
%ADD12R,1.700000X1.700000*%
%TD*%
%TA.AperFunction,ConnectorPad*%
%ADD13R,1.000000X5.000000*%
%TD*%
%TA.AperFunction,ViaPad*%
%ADD14C,0.800000*%
%TD*%
%TA.AperFunction,Conductor*%
%ADD15C,0.400000*%
%TD*%
G04 APERTURE END LIST*
D10*
%TO.P,,2*%
%TO.N,N/C*%
X145344000Y-87757000D03*
%TD*%
%TO.P,,2*%
%TO.N,N/C*%
X154450000Y-119350000D03*
%TD*%
%TO.P,REF\u002A\u002A,2*%
%TO.N,N/C*%
X136250000Y-119370000D03*
%TD*%
D11*
%TO.P,U3,43,SWDIO*%
%TO.N,unconnected-(U3-SWDIO-Pad43)*%
X148005481Y-95451800D03*
D12*
%TO.P,U3,42,GND*%
%TO.N,unconnected-(U3-GND-Pad42)*%
X145465481Y-95451800D03*
D11*
%TO.P,U3,41,SWCLK*%
%TO.N,unconnected-(U3-SWCLK-Pad41)*%
X142925481Y-95451800D03*
%TO.P,U3,40,VBUS*%
%TO.N,+5V*%
X154355481Y-47421800D03*
%TO.P,U3,39,VSYS*%
%TO.N,unconnected-(U3-VSYS-Pad39)*%
X154355481Y-49961800D03*
D12*
%TO.P,U3,38,GND*%
%TO.N,GND*%
X154355481Y-52501800D03*
D11*
%TO.P,U3,37,3V3_EN*%
%TO.N,unconnected-(U3-3V3_EN-Pad37)*%
X154355481Y-55041800D03*
%TO.P,U3,36,3V3*%
%TO.N,+3.3V*%
X154355481Y-57581800D03*
%TO.P,U3,35,ADC_VREF*%
%TO.N,unconnected-(U3-ADC_VREF-Pad35)*%
X154355481Y-60121800D03*
%TO.P,U3,34,GPIO28_ADC2*%
%TO.N,unconnected-(U3-GPIO28_ADC2-Pad34)*%
X154355481Y-62661800D03*
D12*
%TO.P,U3,33,AGND*%
%TO.N,GND*%
X154355481Y-65201800D03*
D11*
%TO.P,U3,32,GPIO27_ADC1*%
%TO.N,unconnected-(U3-GPIO27_ADC1-Pad32)*%
X154355481Y-67741800D03*
%TO.P,U3,31,GPIO26_ADC0*%
%TO.N,unconnected-(U3-GPIO26_ADC0-Pad31)*%
X154355481Y-70281800D03*
%TO.P,U3,30,RUN*%
%TO.N,unconnected-(U3-RUN-Pad30)*%
X154355481Y-72821800D03*
%TO.P,U3,29,GPIO22*%
%TO.N,unconnected-(U3-GPIO22-Pad29)*%
X154355481Y-75361800D03*
D12*
%TO.P,U3,28,GND*%
%TO.N,GND*%
X154355481Y-77901800D03*
D11*
%TO.P,U3,27,GPIO21*%
%TO.N,unconnected-(U3-GPIO21-Pad27)*%
X154355481Y-80441800D03*
%TO.P,U3,26,GPIO20*%
%TO.N,unconnected-(U3-GPIO20-Pad26)*%
X154355481Y-82981800D03*
%TO.P,U3,25,GPIO19*%
%TO.N,unconnected-(U3-GPIO19-Pad25)*%
X154355481Y-85521800D03*
%TO.P,U3,24,GPIO18*%
%TO.N,unconnected-(U3-GPIO18-Pad24)*%
X154355481Y-88061800D03*
D12*
%TO.P,U3,23,GND*%
%TO.N,GND*%
X154355481Y-90601800D03*
D11*
%TO.P,U3,22,GPIO17*%
%TO.N,unconnected-(U3-GPIO17-Pad22)*%
X154355481Y-93141800D03*
%TO.P,U3,21,GPIO16*%
%TO.N,unconnected-(U3-GPIO16-Pad21)*%
X154355481Y-95681800D03*
%TO.P,U3,20,GPIO15*%
%TO.N,unconnected-(U3-GPIO15-Pad20)*%
X136575481Y-95681800D03*
%TO.P,U3,19,GPIO14*%
%TO.N,unconnected-(U3-GPIO14-Pad19)*%
X136575481Y-93141800D03*
D12*
%TO.P,U3,18,GND*%
%TO.N,GND*%
X136575481Y-90601800D03*
D11*
%TO.P,U3,17,GPIO13*%
%TO.N,unconnected-(U3-GPIO13-Pad17)*%
X136575481Y-88061800D03*
%TO.P,U3,16,GPIO12*%
%TO.N,unconnected-(U3-GPIO12-Pad16)*%
X136575481Y-85521800D03*
%TO.P,U3,15,GPIO11*%
%TO.N,unconnected-(U3-GPIO11-Pad15)*%
X136575481Y-82981800D03*
%TO.P,U3,14,GPIO10*%
%TO.N,unconnected-(U3-GPIO10-Pad14)*%
X136575481Y-80441800D03*
D12*
%TO.P,U3,13,GND*%
%TO.N,GND*%
X136575481Y-77901800D03*
D11*
%TO.P,U3,12,GPIO9*%
%TO.N,unconnected-(U3-GPIO9-Pad12)*%
X136575481Y-75361800D03*
%TO.P,U3,11,GPIO8*%
%TO.N,unconnected-(U3-GPIO8-Pad11)*%
X136575481Y-72821800D03*
%TO.P,U3,10,GPIO7*%
%TO.N,unconnected-(U3-GPIO7-Pad10)*%
X136575481Y-70281800D03*
%TO.P,U3,9,GPIO6*%
%TO.N,unconnected-(U3-GPIO6-Pad9)*%
X136575481Y-67741800D03*
D12*
%TO.P,U3,8,GND*%
%TO.N,GND*%
X136575481Y-65201800D03*
D11*
%TO.P,U3,7,GPIO5*%
%TO.N,unconnected-(U3-GPIO5-Pad7)*%
X136575481Y-62661800D03*
%TO.P,U3,6,GPIO4*%
%TO.N,TX_3V3*%
X136575481Y-60121800D03*
%TO.P,U3,5,GPIO3*%
%TO.N,CLK_3V3*%
X136575481Y-57581800D03*
%TO.P,U3,4,GPIO2*%
%TO.N,RX_3V3*%
X136575481Y-55041800D03*
D12*
%TO.P,U3,3,GND*%
%TO.N,GND*%
X136575481Y-52501800D03*
D11*
%TO.P,U3,2,GPIO1*%
%TO.N,unconnected-(U3-GPIO1-Pad2)*%
X136575481Y-49961800D03*
%TO.P,U3,1,GPIO0*%
%TO.N,unconnected-(U3-GPIO0-Pad1)*%
X136575481Y-47421800D03*
%TD*%
D12*
%TO.P,J1,1,Pin_1*%
%TO.N,+5V*%
X139121600Y-101198000D03*
D11*
%TO.P,J1,2,Pin_2*%
%TO.N,+3.3V*%
X141661600Y-101198000D03*
%TO.P,J1,3,Pin_3*%
%TO.N,TX_3V3*%
X144201600Y-101198000D03*
%TO.P,J1,4,Pin_4*%
%TO.N,RX_3V3*%
X146741600Y-101198000D03*
%TO.P,J1,5,Pin_5*%
%TO.N,CLK_3V3*%
X149281600Y-101198000D03*
%TO.P,J1,6,Pin_6*%
%TO.N,GND*%
X151821600Y-101198000D03*
%TD*%
D13*
%TO.P,GB1,5,SC*%
%TO.N,CLK_5V*%
X147344000Y-125712800D03*
%TO.P,GB1,3,SI*%
%TO.N,RX_5V*%
X145344000Y-125712800D03*
%TO.P,GB1,1,VDD35*%
%TO.N,unconnected-(GB1-VDD35-Pad1)*%
X143344000Y-125712800D03*
%TD*%
D14*
%TO.N,GND*%
X137800000Y-104300000D03*
X140200000Y-103900000D03*
X136400000Y-106100000D03*
X134700000Y-108000000D03*
X151200000Y-77800000D03*
X151700000Y-90700000D03*
X138200000Y-94500000D03*
X138100000Y-90700000D03*
X138100000Y-86600000D03*
X138100000Y-78000000D03*
X152500000Y-51300000D03*
X152500000Y-53800000D03*
X152400000Y-55800000D03*
X151200000Y-65400000D03*
X143800000Y-66600000D03*
X148900000Y-61600000D03*
X151000000Y-59200000D03*
X147500000Y-57300000D03*
X144600000Y-60300000D03*
X141700000Y-63200000D03*
X139900000Y-55300000D03*
X138500000Y-59600000D03*
X138100000Y-66900000D03*
X146200000Y-68200000D03*
X146100000Y-77600000D03*
X146100000Y-83800000D03*
X145500000Y-110100000D03*
X145000000Y-106900000D03*
X153600000Y-105000000D03*
X153400000Y-110600000D03*
X153400000Y-115700000D03*
X136400000Y-115700000D03*
X139300000Y-114000000D03*
X156300000Y-99700000D03*
X151400000Y-47300000D03*
X147000000Y-54600000D03*
X139800000Y-52700000D03*
X139800000Y-47300000D03*
X151200000Y-63500000D03*
X151200000Y-71400000D03*
X151200000Y-80400000D03*
X151400000Y-87900000D03*
X151500000Y-94500000D03*
X134100000Y-98700000D03*
X134200000Y-102700000D03*
X156300000Y-105000000D03*
X156300000Y-110700000D03*
X156400000Y-115700000D03*
X151100000Y-121100000D03*
X139900000Y-118400000D03*
X140000000Y-121100000D03*
X147900000Y-111000000D03*
X144600000Y-115700000D03*
X144600000Y-118900000D03*
X136300000Y-110900000D03*
%TO.N,+3.3V*%
X142200000Y-104900000D03*
X144400000Y-105300000D03*
X146100000Y-105300000D03*
X150600000Y-104600000D03*
%TO.N,+5V*%
X139200000Y-109100000D03*
X147800000Y-113400000D03*
X144500000Y-112600000D03*
%TO.N,CLK_5V*%
X148100000Y-120900000D03*
%TO.N,RX_5V*%
X145400000Y-121400000D03*
%TO.N,TX_3V3*%
X141000000Y-69000000D03*
%TO.N,RX_3V3*%
X139700000Y-65200000D03*
X141800000Y-68200000D03*
%TO.N,CLK_3V3*%
X145900000Y-64700000D03*
%TD*%
D15*
%TO.N,RX_3V3*%
X141800000Y-68200000D02*
X141800000Y-67300000D01*
X141800000Y-67300000D02*
X139700000Y-65200000D01*
%TO.N,TX_3V3*%
X141000000Y-69000000D02*
X141000000Y-68100000D01*
X141000000Y-68100000D02*
X138800000Y-65900000D01*
X138800000Y-65900000D02*
X138800000Y-62346319D01*
X138800000Y-62346319D02*
X136575481Y-60121800D01*
%TO.N,+3.3V*%
X142200000Y-104900000D02*
X144000000Y-104900000D01*
X144000000Y-104900000D02*
X144400000Y-105300000D01*
X150600000Y-104600000D02*
X146800000Y-104600000D01*
X146800000Y-104600000D02*
X146100000Y-105300000D01*
%TO.N,+5V*%
X139200000Y-109100000D02*
X140900000Y-110800000D01*
X140900000Y-110800000D02*
X142700000Y-110800000D01*
X142700000Y-110800000D02*
X144500000Y-112600000D01*
X147000000Y-112600000D02*
X147800000Y-113400000D01*
X144500000Y-112600000D02*
X147000000Y-112600000D01*
%TO.N,CLK_5V*%
X148100000Y-120900000D02*
X147344000Y-121656000D01*
X147344000Y-121656000D02*
X147344000Y-125712800D01*
%TO.N,RX_5V*%
X145400000Y-121400000D02*
X145400000Y-125656800D01*
X145400000Y-125656800D02*
X145344000Y-125712800D01*
%TO.N,CLK_3V3*%
X145900000Y-64700000D02*
X138781800Y-57581800D01*
X138781800Y-57581800D02*
X136575481Y-57581800D01*
%TD*%
%TA.AperFunction,Conductor*%
%TO.N,GND*%
G36*
X155738418Y-45512816D02*
G01*
X155967020Y-45529165D01*
X155984529Y-45531683D01*
X156204144Y-45579458D01*
X156221103Y-45584437D01*
X156431694Y-45662983D01*
X156447777Y-45670327D01*
X156645036Y-45778040D01*
X156659919Y-45787605D01*
X156839836Y-45922289D01*
X156853207Y-45933875D01*
X157012124Y-46092792D01*
X157023710Y-46106163D01*
X157158394Y-46286080D01*
X157167959Y-46300963D01*
X157275669Y-46498217D01*
X157283019Y-46514311D01*
X157361559Y-46724887D01*
X157366543Y-46741862D01*
X157414316Y-46961470D01*
X157416834Y-46978982D01*
X157433184Y-47207581D01*
X157433500Y-47216427D01*
X157433500Y-120677572D01*
X157433184Y-120686418D01*
X157416834Y-120915017D01*
X157414316Y-120932529D01*
X157366543Y-121152137D01*
X157361559Y-121169112D01*
X157283019Y-121379688D01*
X157275669Y-121395782D01*
X157167959Y-121593036D01*
X157158394Y-121607919D01*
X157023710Y-121787836D01*
X157012124Y-121801207D01*
X156853207Y-121960124D01*
X156839836Y-121971710D01*
X156659919Y-122106394D01*
X156645036Y-122115959D01*
X156447782Y-122223669D01*
X156431688Y-122231019D01*
X156221112Y-122309559D01*
X156204137Y-122314543D01*
X155984529Y-122362316D01*
X155967017Y-122364834D01*
X155738418Y-122381184D01*
X155729572Y-122381500D01*
X148765155Y-122381500D01*
X148610510Y-122412261D01*
X148610498Y-122412264D01*
X148464827Y-122472602D01*
X148464814Y-122472609D01*
X148333711Y-122560210D01*
X148333707Y-122560213D01*
X148256181Y-122637740D01*
X148194858Y-122671225D01*
X148125166Y-122666241D01*
X148069233Y-122624369D01*
X148044816Y-122558905D01*
X148044500Y-122550059D01*
X148044500Y-121997519D01*
X148064185Y-121930480D01*
X148080819Y-121909838D01*
X148162974Y-121827683D01*
X148224297Y-121794198D01*
X148224421Y-121794171D01*
X148379803Y-121761144D01*
X148379807Y-121761142D01*
X148379808Y-121761142D01*
X148438058Y-121735206D01*
X148552730Y-121684151D01*
X148705871Y-121572888D01*
X148832533Y-121432216D01*
X148927179Y-121268284D01*
X148985674Y-121088256D01*
X149005460Y-120900000D01*
X148985674Y-120711744D01*
X148927179Y-120531716D01*
X148832533Y-120367784D01*
X148705871Y-120227112D01*
X148705870Y-120227111D01*
X148552734Y-120115851D01*
X148552729Y-120115848D01*
X148379807Y-120038857D01*
X148379802Y-120038855D01*
X148234001Y-120007865D01*
X148194646Y-119999500D01*
X148005354Y-119999500D01*
X147972897Y-120006398D01*
X147820197Y-120038855D01*
X147820192Y-120038857D01*
X147647270Y-120115848D01*
X147647265Y-120115851D01*
X147494129Y-120227111D01*
X147367466Y-120367785D01*
X147272821Y-120531715D01*
X147272818Y-120531722D01*
X147214327Y-120711739D01*
X147214325Y-120711750D01*
X147209134Y-120761129D01*
X147182549Y-120825743D01*
X147173495Y-120835846D01*
X146799887Y-121209454D01*
X146766261Y-121259780D01*
X146728516Y-121316270D01*
X146728515Y-121316270D01*
X146723225Y-121324187D01*
X146670420Y-121451671D01*
X146670418Y-121451677D01*
X146643500Y-121587004D01*
X146643500Y-122675619D01*
X146623815Y-122742658D01*
X146593812Y-122774885D01*
X146486454Y-122855254D01*
X146443266Y-122912945D01*
X146387332Y-122954815D01*
X146317640Y-122959799D01*
X146256317Y-122926313D01*
X146244734Y-122912945D01*
X146201546Y-122855254D01*
X146201542Y-122855250D01*
X146150188Y-122816806D01*
X146108317Y-122760871D01*
X146100500Y-122717540D01*
X146100500Y-122015391D01*
X146120185Y-121948352D01*
X146132352Y-121932417D01*
X146132533Y-121932216D01*
X146227179Y-121768284D01*
X146285674Y-121588256D01*
X146305460Y-121400000D01*
X146285674Y-121211744D01*
X146227179Y-121031716D01*
X146132533Y-120867784D01*
X146005871Y-120727112D01*
X145985696Y-120712454D01*
X145852734Y-120615851D01*
X145852729Y-120615848D01*
X145679807Y-120538857D01*
X145679802Y-120538855D01*
X145534001Y-120507865D01*
X145494646Y-120499500D01*
X145305354Y-120499500D01*
X145272897Y-120506398D01*
X145120197Y-120538855D01*
X145120192Y-120538857D01*
X144947270Y-120615848D01*
X144947265Y-120615851D01*
X144794129Y-120727111D01*
X144667466Y-120867785D01*
X144572821Y-121031715D01*
X144572818Y-121031722D01*
X144528178Y-121169112D01*
X144514326Y-121211744D01*
X144494540Y-121400000D01*
X144514326Y-121588256D01*
X144514327Y-121588259D01*
X144572818Y-121768277D01*
X144572821Y-121768284D01*
X144667466Y-121932215D01*
X144667648Y-121932417D01*
X144667716Y-121932559D01*
X144671285Y-121937471D01*
X144670386Y-121938123D01*
X144697879Y-121995408D01*
X144699500Y-122015391D01*
X144699500Y-122646420D01*
X144679815Y-122713459D01*
X144627011Y-122759214D01*
X144618836Y-122762601D01*
X144601665Y-122769005D01*
X144486455Y-122855252D01*
X144443266Y-122912945D01*
X144387332Y-122954815D01*
X144317640Y-122959799D01*
X144256317Y-122926313D01*
X144244734Y-122912945D01*
X144221830Y-122882350D01*
X144201546Y-122855254D01*
X144201544Y-122855253D01*
X144201544Y-122855252D01*
X144086335Y-122769006D01*
X144086328Y-122769002D01*
X143951482Y-122718708D01*
X143951483Y-122718708D01*
X143891883Y-122712301D01*
X143891881Y-122712300D01*
X143891873Y-122712300D01*
X143891864Y-122712300D01*
X142796129Y-122712300D01*
X142796123Y-122712301D01*
X142736516Y-122718708D01*
X142636863Y-122755877D01*
X142567171Y-122760861D01*
X142505848Y-122727376D01*
X142490427Y-122708585D01*
X142465787Y-122671708D01*
X142354292Y-122560213D01*
X142354288Y-122560210D01*
X142223185Y-122472609D01*
X142223172Y-122472602D01*
X142077501Y-122412264D01*
X142077489Y-122412261D01*
X141922845Y-122381500D01*
X141922842Y-122381500D01*
X141883562Y-122381500D01*
X134958428Y-122381500D01*
X134949582Y-122381184D01*
X134720982Y-122364834D01*
X134703470Y-122362316D01*
X134483862Y-122314543D01*
X134466887Y-122309559D01*
X134256311Y-122231019D01*
X134240217Y-122223669D01*
X134042963Y-122115959D01*
X134028080Y-122106394D01*
X133848163Y-121971710D01*
X133834792Y-121960124D01*
X133675875Y-121801207D01*
X133664289Y-121787836D01*
X133529605Y-121607919D01*
X133520040Y-121593036D01*
X133500011Y-121556356D01*
X133412327Y-121395777D01*
X133404983Y-121379694D01*
X133326437Y-121169103D01*
X133321458Y-121152144D01*
X133273683Y-120932529D01*
X133271165Y-120915017D01*
X133254816Y-120686418D01*
X133254500Y-120677572D01*
X133254500Y-119370000D01*
X134044778Y-119370000D01*
X134063644Y-119657837D01*
X134063646Y-119657849D01*
X134119917Y-119940745D01*
X134119921Y-119940760D01*
X134212642Y-120213905D01*
X134340219Y-120472606D01*
X134340223Y-120472613D01*
X134500478Y-120712452D01*
X134690672Y-120929327D01*
X134907547Y-121119521D01*
X135130187Y-121268284D01*
X135147389Y-121279778D01*
X135406098Y-121407359D01*
X135679247Y-121500081D01*
X135962161Y-121556356D01*
X136250000Y-121575222D01*
X136537839Y-121556356D01*
X136820753Y-121500081D01*
X137093902Y-121407359D01*
X137352611Y-121279778D01*
X137592454Y-121119520D01*
X137809327Y-120929327D01*
X137999520Y-120712454D01*
X138159778Y-120472611D01*
X138287359Y-120213902D01*
X138380081Y-119940753D01*
X138436356Y-119657839D01*
X138455222Y-119370000D01*
X138453911Y-119350000D01*
X152244778Y-119350000D01*
X152263644Y-119637837D01*
X152263646Y-119637849D01*
X152319917Y-119920745D01*
X152319921Y-119920760D01*
X152412642Y-120193905D01*
X152540219Y-120452606D01*
X152540223Y-120452613D01*
X152700478Y-120692452D01*
X152890672Y-120909327D01*
X153107547Y-121099521D01*
X153272074Y-121209454D01*
X153347389Y-121259778D01*
X153606098Y-121387359D01*
X153879247Y-121480081D01*
X154162161Y-121536356D01*
X154450000Y-121555222D01*
X154737839Y-121536356D01*
X155020753Y-121480081D01*
X155293902Y-121387359D01*
X155552611Y-121259778D01*
X155792454Y-121099520D01*
X156009327Y-120909327D01*
X156199520Y-120692454D01*
X156359778Y-120452611D01*
X156487359Y-120193902D01*
X156580081Y-119920753D01*
X156636356Y-119637839D01*
X156655222Y-119350000D01*
X156636356Y-119062161D01*
X156580081Y-118779247D01*
X156487359Y-118506098D01*
X156359778Y-118247389D01*
X156359776Y-118247386D01*
X156199521Y-118007547D01*
X156009327Y-117790672D01*
X155792452Y-117600478D01*
X155552613Y-117440223D01*
X155552606Y-117440219D01*
X155293905Y-117312642D01*
X155020760Y-117219921D01*
X155020754Y-117219919D01*
X155020753Y-117219919D01*
X155020751Y-117219918D01*
X155020745Y-117219917D01*
X154737849Y-117163646D01*
X154737839Y-117163644D01*
X154450000Y-117144778D01*
X154162161Y-117163644D01*
X154162155Y-117163645D01*
X154162150Y-117163646D01*
X153879254Y-117219917D01*
X153879239Y-117219921D01*
X153606094Y-117312642D01*
X153347393Y-117440219D01*
X153347386Y-117440223D01*
X153107547Y-117600478D01*
X152890672Y-117790672D01*
X152700478Y-118007547D01*
X152540223Y-118247386D01*
X152540219Y-118247393D01*
X152412642Y-118506094D01*
X152319921Y-118779239D01*
X152319917Y-118779254D01*
X152263646Y-119062150D01*
X152263644Y-119062162D01*
X152244778Y-119350000D01*
X138453911Y-119350000D01*
X138436356Y-119082161D01*
X138380081Y-118799247D01*
X138287359Y-118526098D01*
X138159778Y-118267389D01*
X137999520Y-118027546D01*
X137981981Y-118007547D01*
X137809327Y-117810672D01*
X137592452Y-117620478D01*
X137352613Y-117460223D01*
X137352606Y-117460219D01*
X137093905Y-117332642D01*
X136820760Y-117239921D01*
X136820754Y-117239919D01*
X136820753Y-117239919D01*
X136820751Y-117239918D01*
X136820745Y-117239917D01*
X136537849Y-117183646D01*
X136537839Y-117183644D01*
X136250000Y-117164778D01*
X135962161Y-117183644D01*
X135962155Y-117183645D01*
X135962150Y-117183646D01*
X135679254Y-117239917D01*
X135679239Y-117239921D01*
X135406094Y-117332642D01*
X135147393Y-117460219D01*
X135147386Y-117460223D01*
X134907547Y-117620478D01*
X134690672Y-117810672D01*
X134500478Y-118027547D01*
X134340223Y-118267386D01*
X134340219Y-118267393D01*
X134212642Y-118526094D01*
X134119921Y-118799239D01*
X134119917Y-118799254D01*
X134063646Y-119082150D01*
X134063644Y-119082162D01*
X134044778Y-119370000D01*
X133254500Y-119370000D01*
X133254500Y-109100000D01*
X138294540Y-109100000D01*
X138314326Y-109288256D01*
X138314327Y-109288259D01*
X138372818Y-109468277D01*
X138372821Y-109468284D01*
X138467467Y-109632216D01*
X138594129Y-109772888D01*
X138747265Y-109884148D01*
X138747270Y-109884151D01*
X138920191Y-109961142D01*
X138920193Y-109961142D01*
X138920197Y-109961144D01*
X139075130Y-109994075D01*
X139136607Y-110027266D01*
X139137026Y-110027683D01*
X140453453Y-111344111D01*
X140453454Y-111344112D01*
X140568192Y-111420777D01*
X140695667Y-111473578D01*
X140695672Y-111473580D01*
X140695676Y-111473580D01*
X140695677Y-111473581D01*
X140831003Y-111500500D01*
X140831006Y-111500500D01*
X140831007Y-111500500D01*
X142358481Y-111500500D01*
X142425520Y-111520185D01*
X142446162Y-111536819D01*
X143573495Y-112664152D01*
X143606980Y-112725475D01*
X143609134Y-112738869D01*
X143614325Y-112788249D01*
X143614327Y-112788260D01*
X143672818Y-112968277D01*
X143672821Y-112968284D01*
X143767467Y-113132216D01*
X143839071Y-113211740D01*
X143894129Y-113272888D01*
X144047265Y-113384148D01*
X144047270Y-113384151D01*
X144220192Y-113461142D01*
X144220197Y-113461144D01*
X144405354Y-113500500D01*
X144405355Y-113500500D01*
X144594644Y-113500500D01*
X144594646Y-113500500D01*
X144779803Y-113461144D01*
X144952730Y-113384151D01*
X145017877Y-113336819D01*
X145035271Y-113324182D01*
X145101077Y-113300702D01*
X145108156Y-113300500D01*
X146658481Y-113300500D01*
X146725520Y-113320185D01*
X146746162Y-113336819D01*
X146873495Y-113464152D01*
X146906980Y-113525475D01*
X146909134Y-113538869D01*
X146914325Y-113588249D01*
X146914327Y-113588260D01*
X146972818Y-113768277D01*
X146972821Y-113768284D01*
X147067467Y-113932216D01*
X147194129Y-114072888D01*
X147347265Y-114184148D01*
X147347270Y-114184151D01*
X147520192Y-114261142D01*
X147520197Y-114261144D01*
X147705354Y-114300500D01*
X147705355Y-114300500D01*
X147894644Y-114300500D01*
X147894646Y-114300500D01*
X148079803Y-114261144D01*
X148252730Y-114184151D01*
X148405871Y-114072888D01*
X148532533Y-113932216D01*
X148627179Y-113768284D01*
X148685674Y-113588256D01*
X148705460Y-113400000D01*
X148685674Y-113211744D01*
X148627179Y-113031716D01*
X148532533Y-112867784D01*
X148405871Y-112727112D01*
X148403618Y-112725475D01*
X148252734Y-112615851D01*
X148252729Y-112615848D01*
X148079807Y-112538857D01*
X148079802Y-112538855D01*
X147943490Y-112509882D01*
X147924872Y-112505924D01*
X147863391Y-112472733D01*
X147862973Y-112472316D01*
X147446546Y-112055888D01*
X147446545Y-112055887D01*
X147331807Y-111979222D01*
X147204332Y-111926421D01*
X147204322Y-111926418D01*
X147068996Y-111899500D01*
X147068994Y-111899500D01*
X147068993Y-111899500D01*
X145108156Y-111899500D01*
X145041117Y-111879815D01*
X145035271Y-111875818D01*
X144952734Y-111815851D01*
X144952729Y-111815848D01*
X144779807Y-111738857D01*
X144779802Y-111738855D01*
X144624871Y-111705924D01*
X144563389Y-111672732D01*
X144562971Y-111672315D01*
X143146546Y-110255888D01*
X143146545Y-110255887D01*
X143031807Y-110179222D01*
X142904332Y-110126421D01*
X142904322Y-110126418D01*
X142768996Y-110099500D01*
X142768994Y-110099500D01*
X142768993Y-110099500D01*
X141241519Y-110099500D01*
X141174480Y-110079815D01*
X141153838Y-110063181D01*
X140126503Y-109035846D01*
X140093018Y-108974523D01*
X140090865Y-108961143D01*
X140085674Y-108911744D01*
X140027179Y-108731716D01*
X139932533Y-108567784D01*
X139805871Y-108427112D01*
X139805870Y-108427111D01*
X139652734Y-108315851D01*
X139652729Y-108315848D01*
X139479807Y-108238857D01*
X139479802Y-108238855D01*
X139334001Y-108207865D01*
X139294646Y-108199500D01*
X139105354Y-108199500D01*
X139072897Y-108206398D01*
X138920197Y-108238855D01*
X138920192Y-108238857D01*
X138747270Y-108315848D01*
X138747265Y-108315851D01*
X138594129Y-108427111D01*
X138467466Y-108567785D01*
X138372821Y-108731715D01*
X138372818Y-108731722D01*
X138314327Y-108911740D01*
X138314326Y-108911744D01*
X138294540Y-109100000D01*
X133254500Y-109100000D01*
X133254500Y-104900000D01*
X141294540Y-104900000D01*
X141314326Y-105088256D01*
X141314327Y-105088259D01*
X141372818Y-105268277D01*
X141372821Y-105268284D01*
X141467467Y-105432216D01*
X141594129Y-105572888D01*
X141747265Y-105684148D01*
X141747270Y-105684151D01*
X141920192Y-105761142D01*
X141920197Y-105761144D01*
X142105354Y-105800500D01*
X142105355Y-105800500D01*
X142294644Y-105800500D01*
X142294646Y-105800500D01*
X142479803Y-105761144D01*
X142652730Y-105684151D01*
X142680401Y-105664047D01*
X142735271Y-105624182D01*
X142801077Y-105600702D01*
X142808156Y-105600500D01*
X143462115Y-105600500D01*
X143529154Y-105620185D01*
X143567161Y-105664047D01*
X143569571Y-105662656D01*
X143667465Y-105832214D01*
X143794129Y-105972888D01*
X143947265Y-106084148D01*
X143947270Y-106084151D01*
X144120192Y-106161142D01*
X144120197Y-106161144D01*
X144305354Y-106200500D01*
X144305355Y-106200500D01*
X144494644Y-106200500D01*
X144494646Y-106200500D01*
X144679803Y-106161144D01*
X144852730Y-106084151D01*
X145005871Y-105972888D01*
X145132533Y-105832216D01*
X145142612Y-105814757D01*
X145193179Y-105766542D01*
X145261786Y-105753318D01*
X145326651Y-105779286D01*
X145357388Y-105814758D01*
X145367467Y-105832216D01*
X145494129Y-105972888D01*
X145647265Y-106084148D01*
X145647270Y-106084151D01*
X145820192Y-106161142D01*
X145820197Y-106161144D01*
X146005354Y-106200500D01*
X146005355Y-106200500D01*
X146194644Y-106200500D01*
X146194646Y-106200500D01*
X146379803Y-106161144D01*
X146552730Y-106084151D01*
X146705871Y-105972888D01*
X146832533Y-105832216D01*
X146927179Y-105668284D01*
X146985674Y-105488256D01*
X146990864Y-105438869D01*
X147017447Y-105374258D01*
X147026486Y-105364169D01*
X147053840Y-105336815D01*
X147115162Y-105303333D01*
X147141518Y-105300500D01*
X149991844Y-105300500D01*
X150058883Y-105320185D01*
X150064729Y-105324182D01*
X150147265Y-105384148D01*
X150147270Y-105384151D01*
X150320192Y-105461142D01*
X150320197Y-105461144D01*
X150505354Y-105500500D01*
X150505355Y-105500500D01*
X150694644Y-105500500D01*
X150694646Y-105500500D01*
X150879803Y-105461144D01*
X151052730Y-105384151D01*
X151205871Y-105272888D01*
X151332533Y-105132216D01*
X151427179Y-104968284D01*
X151485674Y-104788256D01*
X151505460Y-104600000D01*
X151485674Y-104411744D01*
X151427179Y-104231716D01*
X151332533Y-104067784D01*
X151205871Y-103927112D01*
X151204919Y-103926420D01*
X151052734Y-103815851D01*
X151052729Y-103815848D01*
X150879807Y-103738857D01*
X150879802Y-103738855D01*
X150734001Y-103707865D01*
X150694646Y-103699500D01*
X150505354Y-103699500D01*
X150472897Y-103706398D01*
X150320197Y-103738855D01*
X150320192Y-103738857D01*
X150147270Y-103815848D01*
X150147265Y-103815851D01*
X150064729Y-103875818D01*
X149998923Y-103899298D01*
X149991844Y-103899500D01*
X146731003Y-103899500D01*
X146622590Y-103921065D01*
X146622589Y-103921065D01*
X146606379Y-103924289D01*
X146595669Y-103926420D01*
X146562379Y-103940210D01*
X146468191Y-103979223D01*
X146378947Y-104038855D01*
X146353457Y-104055886D01*
X146353451Y-104055891D01*
X146037028Y-104372315D01*
X145975705Y-104405800D01*
X145975128Y-104405924D01*
X145820197Y-104438855D01*
X145820192Y-104438857D01*
X145647270Y-104515848D01*
X145647265Y-104515851D01*
X145494129Y-104627111D01*
X145367467Y-104767783D01*
X145357387Y-104785243D01*
X145306819Y-104833458D01*
X145238212Y-104846680D01*
X145173347Y-104820712D01*
X145142613Y-104785243D01*
X145132532Y-104767783D01*
X145005870Y-104627111D01*
X144852734Y-104515851D01*
X144852729Y-104515848D01*
X144679807Y-104438857D01*
X144679802Y-104438855D01*
X144543490Y-104409882D01*
X144524872Y-104405924D01*
X144463391Y-104372733D01*
X144462971Y-104372314D01*
X144446545Y-104355887D01*
X144331807Y-104279222D01*
X144204332Y-104226421D01*
X144204322Y-104226418D01*
X144068996Y-104199500D01*
X144068994Y-104199500D01*
X144068993Y-104199500D01*
X142808156Y-104199500D01*
X142741117Y-104179815D01*
X142735271Y-104175818D01*
X142652734Y-104115851D01*
X142652729Y-104115848D01*
X142479807Y-104038857D01*
X142479802Y-104038855D01*
X142334001Y-104007865D01*
X142294646Y-103999500D01*
X142105354Y-103999500D01*
X142072897Y-104006398D01*
X141920197Y-104038855D01*
X141920192Y-104038857D01*
X141747270Y-104115848D01*
X141747265Y-104115851D01*
X141594129Y-104227111D01*
X141467466Y-104367785D01*
X141372821Y-104531715D01*
X141372818Y-104531722D01*
X141314327Y-104711740D01*
X141314326Y-104711744D01*
X141294540Y-104900000D01*
X133254500Y-104900000D01*
X133254500Y-100300135D01*
X137771100Y-100300135D01*
X137771100Y-102095870D01*
X137771101Y-102095876D01*
X137777508Y-102155483D01*
X137827802Y-102290328D01*
X137827806Y-102290335D01*
X137914052Y-102405544D01*
X137914055Y-102405547D01*
X138029264Y-102491793D01*
X138029271Y-102491797D01*
X138164117Y-102542091D01*
X138164116Y-102542091D01*
X138171044Y-102542835D01*
X138223727Y-102548500D01*
X140019472Y-102548499D01*
X140079083Y-102542091D01*
X140213931Y-102491796D01*
X140329146Y-102405546D01*
X140415396Y-102290331D01*
X140464410Y-102158916D01*
X140506281Y-102102984D01*
X140571745Y-102078566D01*
X140640018Y-102093417D01*
X140668273Y-102114569D01*
X140790199Y-102236495D01*
X140886984Y-102304265D01*
X140983765Y-102372032D01*
X140983767Y-102372033D01*
X140983770Y-102372035D01*
X141197937Y-102471903D01*
X141426192Y-102533063D01*
X141602634Y-102548500D01*
X141661599Y-102553659D01*
X141661600Y-102553659D01*
X141661601Y-102553659D01*
X141720566Y-102548500D01*
X141897008Y-102533063D01*
X142125263Y-102471903D01*
X142339430Y-102372035D01*
X142533001Y-102236495D01*
X142700095Y-102069401D01*
X142830025Y-101883842D01*
X142884602Y-101840217D01*
X142954100Y-101833023D01*
X143016455Y-101864546D01*
X143033175Y-101883842D01*
X143162881Y-102069082D01*
X143163105Y-102069401D01*
X143330199Y-102236495D01*
X143426984Y-102304265D01*
X143523765Y-102372032D01*
X143523767Y-102372033D01*
X143523770Y-102372035D01*
X143737937Y-102471903D01*
X143966192Y-102533063D01*
X144142634Y-102548500D01*
X144201599Y-102553659D01*
X144201600Y-102553659D01*
X144201601Y-102553659D01*
X144260566Y-102548500D01*
X144437008Y-102533063D01*
X144665263Y-102471903D01*
X144879430Y-102372035D01*
X145073001Y-102236495D01*
X145240095Y-102069401D01*
X145370025Y-101883842D01*
X145424602Y-101840217D01*
X145494100Y-101833023D01*
X145556455Y-101864546D01*
X145573175Y-101883842D01*
X145702881Y-102069082D01*
X145703105Y-102069401D01*
X145870199Y-102236495D01*
X145966984Y-102304265D01*
X146063765Y-102372032D01*
X146063767Y-102372033D01*
X146063770Y-102372035D01*
X146277937Y-102471903D01*
X146506192Y-102533063D01*
X146682634Y-102548500D01*
X146741599Y-102553659D01*
X146741600Y-102553659D01*
X146741601Y-102553659D01*
X146800566Y-102548500D01*
X146977008Y-102533063D01*
X147205263Y-102471903D01*
X147419430Y-102372035D01*
X147613001Y-102236495D01*
X147780095Y-102069401D01*
X147910025Y-101883842D01*
X147964602Y-101840217D01*
X148034100Y-101833023D01*
X148096455Y-101864546D01*
X148113175Y-101883842D01*
X148242881Y-102069082D01*
X148243105Y-102069401D01*
X148410199Y-102236495D01*
X148506984Y-102304265D01*
X148603765Y-102372032D01*
X148603767Y-102372033D01*
X148603770Y-102372035D01*
X148817937Y-102471903D01*
X149046192Y-102533063D01*
X149222634Y-102548500D01*
X149281599Y-102553659D01*
X149281600Y-102553659D01*
X149281601Y-102553659D01*
X149340566Y-102548500D01*
X149517008Y-102533063D01*
X149745263Y-102471903D01*
X149959430Y-102372035D01*
X150153001Y-102236495D01*
X150320095Y-102069401D01*
X150450330Y-101883405D01*
X150504907Y-101839781D01*
X150574405Y-101832587D01*
X150636760Y-101864110D01*
X150653479Y-101883405D01*
X150783490Y-102069078D01*
X150950517Y-102236105D01*
X151144021Y-102371600D01*
X151358107Y-102471429D01*
X151358116Y-102471433D01*
X151571600Y-102528634D01*
X151571600Y-101631012D01*
X151628607Y-101663925D01*
X151755774Y-101698000D01*
X151887426Y-101698000D01*
X152014593Y-101663925D01*
X152071600Y-101631012D01*
X152071600Y-102528633D01*
X152285083Y-102471433D01*
X152285092Y-102471429D01*
X152499178Y-102371600D01*
X152692682Y-102236105D01*
X152859705Y-102069082D01*
X152995200Y-101875578D01*
X153095029Y-101661492D01*
X153095032Y-101661486D01*
X153152236Y-101448000D01*
X152254612Y-101448000D01*
X152287525Y-101390993D01*
X152321600Y-101263826D01*
X152321600Y-101132174D01*
X152287525Y-101005007D01*
X152254612Y-100948000D01*
X153152236Y-100948000D01*
X153152235Y-100947999D01*
X153095032Y-100734513D01*
X153095029Y-100734507D01*
X152995200Y-100520422D01*
X152995199Y-100520420D01*
X152859713Y-100326926D01*
X152859708Y-100326920D01*
X152692682Y-100159894D01*
X152499178Y-100024399D01*
X152285092Y-99924570D01*
X152285086Y-99924567D01*
X152071600Y-99867364D01*
X152071600Y-100764988D01*
X152014593Y-100732075D01*
X151887426Y-100698000D01*
X151755774Y-100698000D01*
X151628607Y-100732075D01*
X151571600Y-100764988D01*
X151571600Y-99867364D01*
X151571599Y-99867364D01*
X151358113Y-99924567D01*
X151358107Y-99924570D01*
X151144022Y-100024399D01*
X151144020Y-100024400D01*
X150950526Y-100159886D01*
X150950520Y-100159891D01*
X150783491Y-100326920D01*
X150783490Y-100326922D01*
X150653480Y-100512595D01*
X150598903Y-100556219D01*
X150529404Y-100563412D01*
X150467050Y-100531890D01*
X150450330Y-100512594D01*
X150320094Y-100326597D01*
X150153002Y-100159506D01*
X150152995Y-100159501D01*
X149959434Y-100023967D01*
X149959430Y-100023965D01*
X149959428Y-100023964D01*
X149745263Y-99924097D01*
X149745259Y-99924096D01*
X149745255Y-99924094D01*
X149517013Y-99862938D01*
X149517003Y-99862936D01*
X149281601Y-99842341D01*
X149281599Y-99842341D01*
X149046196Y-99862936D01*
X149046186Y-99862938D01*
X148817944Y-99924094D01*
X148817935Y-99924098D01*
X148603771Y-100023964D01*
X148603769Y-100023965D01*
X148410197Y-100159505D01*
X148243105Y-100326597D01*
X148113175Y-100512158D01*
X148058598Y-100555783D01*
X147989100Y-100562977D01*
X147926745Y-100531454D01*
X147910025Y-100512158D01*
X147780094Y-100326597D01*
X147613002Y-100159506D01*
X147612995Y-100159501D01*
X147419434Y-100023967D01*
X147419430Y-100023965D01*
X147419428Y-100023964D01*
X147205263Y-99924097D01*
X147205259Y-99924096D01*
X147205255Y-99924094D01*
X146977013Y-99862938D01*
X146977003Y-99862936D01*
X146741601Y-99842341D01*
X146741599Y-99842341D01*
X146506196Y-99862936D01*
X146506186Y-99862938D01*
X146277944Y-99924094D01*
X146277935Y-99924098D01*
X146063771Y-100023964D01*
X146063769Y-100023965D01*
X145870197Y-100159505D01*
X145703105Y-100326597D01*
X145573175Y-100512158D01*
X145518598Y-100555783D01*
X145449100Y-100562977D01*
X145386745Y-100531454D01*
X145370025Y-100512158D01*
X145240094Y-100326597D01*
X145073002Y-100159506D01*
X145072995Y-100159501D01*
X144879434Y-100023967D01*
X144879430Y-100023965D01*
X144879428Y-100023964D01*
X144665263Y-99924097D01*
X144665259Y-99924096D01*
X144665255Y-99924094D01*
X144437013Y-99862938D01*
X144437003Y-99862936D01*
X144201601Y-99842341D01*
X144201599Y-99842341D01*
X143966196Y-99862936D01*
X143966186Y-99862938D01*
X143737944Y-99924094D01*
X143737935Y-99924098D01*
X143523771Y-100023964D01*
X143523769Y-100023965D01*
X143330197Y-100159505D01*
X143163105Y-100326597D01*
X143033175Y-100512158D01*
X142978598Y-100555783D01*
X142909100Y-100562977D01*
X142846745Y-100531454D01*
X142830025Y-100512158D01*
X142700094Y-100326597D01*
X142533002Y-100159506D01*
X142532995Y-100159501D01*
X142339434Y-100023967D01*
X142339430Y-100023965D01*
X142339428Y-100023964D01*
X142125263Y-99924097D01*
X142125259Y-99924096D01*
X142125255Y-99924094D01*
X141897013Y-99862938D01*
X141897003Y-99862936D01*
X141661601Y-99842341D01*
X141661599Y-99842341D01*
X141426196Y-99862936D01*
X141426186Y-99862938D01*
X141197944Y-99924094D01*
X141197935Y-99924098D01*
X140983771Y-100023964D01*
X140983769Y-100023965D01*
X140790200Y-100159503D01*
X140668273Y-100281430D01*
X140606950Y-100314914D01*
X140537258Y-100309930D01*
X140481325Y-100268058D01*
X140464410Y-100237081D01*
X140415397Y-100105671D01*
X140415393Y-100105664D01*
X140329147Y-99990455D01*
X140329144Y-99990452D01*
X140213935Y-99904206D01*
X140213928Y-99904202D01*
X140079082Y-99853908D01*
X140079083Y-99853908D01*
X140019483Y-99847501D01*
X140019481Y-99847500D01*
X140019473Y-99847500D01*
X140019464Y-99847500D01*
X138223729Y-99847500D01*
X138223723Y-99847501D01*
X138164116Y-99853908D01*
X138029271Y-99904202D01*
X138029264Y-99904206D01*
X137914055Y-99990452D01*
X137914052Y-99990455D01*
X137827806Y-100105664D01*
X137827802Y-100105671D01*
X137777508Y-100240517D01*
X137771101Y-100300116D01*
X137771100Y-100300135D01*
X133254500Y-100300135D01*
X133254500Y-47421799D01*
X135219822Y-47421799D01*
X135219822Y-47421800D01*
X135240417Y-47657203D01*
X135240419Y-47657213D01*
X135301575Y-47885455D01*
X135301577Y-47885459D01*
X135301578Y-47885463D01*
X135358765Y-48008100D01*
X135401446Y-48099630D01*
X135401448Y-48099634D01*
X135536982Y-48293195D01*
X135536987Y-48293202D01*
X135704078Y-48460293D01*
X135704084Y-48460298D01*
X135889639Y-48590225D01*
X135933264Y-48644802D01*
X135940458Y-48714300D01*
X135908935Y-48776655D01*
X135889639Y-48793375D01*
X135704078Y-48923305D01*
X135536986Y-49090397D01*
X135401446Y-49283969D01*
X135401445Y-49283971D01*
X135301579Y-49498135D01*
X135301575Y-49498144D01*
X135240419Y-49726386D01*
X135240417Y-49726396D01*
X135219822Y-49961799D01*
X135219822Y-49961800D01*
X135240417Y-50197203D01*
X135240419Y-50197213D01*
X135301575Y-50425455D01*
X135301577Y-50425459D01*
X135301578Y-50425463D01*
X135374478Y-50581797D01*
X135401446Y-50639630D01*
X135401448Y-50639634D01*
X135509762Y-50794321D01*
X135536982Y-50833196D01*
X135536987Y-50833202D01*
X135659299Y-50955514D01*
X135692784Y-51016837D01*
X135687800Y-51086529D01*
X135645928Y-51142462D01*
X135614952Y-51159377D01*
X135483393Y-51208446D01*
X135483387Y-51208449D01*
X135368293Y-51294609D01*
X135368290Y-51294612D01*
X135282130Y-51409706D01*
X135282126Y-51409713D01*
X135231884Y-51544420D01*
X135231882Y-51544427D01*
X135225481Y-51603955D01*
X135225481Y-52251800D01*
X136130921Y-52251800D01*
X136100236Y-52304947D01*
X136065481Y-52434657D01*
X136065481Y-52568943D01*
X136100236Y-52698653D01*
X136130921Y-52751800D01*
X135225481Y-52751800D01*
X135225481Y-53399644D01*
X135231882Y-53459172D01*
X135231884Y-53459179D01*
X135282126Y-53593886D01*
X135282130Y-53593893D01*
X135368290Y-53708987D01*
X135368293Y-53708990D01*
X135483387Y-53795150D01*
X135483394Y-53795154D01*
X135614951Y-53844221D01*
X135670884Y-53886092D01*
X135695302Y-53951556D01*
X135680451Y-54019829D01*
X135659300Y-54048084D01*
X135536984Y-54170400D01*
X135401446Y-54363969D01*
X135401445Y-54363971D01*
X135301579Y-54578135D01*
X135301575Y-54578144D01*
X135240419Y-54806386D01*
X135240417Y-54806396D01*
X135219822Y-55041799D01*
X135219822Y-55041800D01*
X135240417Y-55277203D01*
X135240419Y-55277213D01*
X135301575Y-55505455D01*
X135301577Y-55505459D01*
X135301578Y-55505463D01*
X135401446Y-55719630D01*
X135401448Y-55719634D01*
X135536982Y-55913195D01*
X135536987Y-55913202D01*
X135704078Y-56080293D01*
X135704084Y-56080298D01*
X135889639Y-56210225D01*
X135933264Y-56264802D01*
X135940458Y-56334300D01*
X135908935Y-56396655D01*
X135889639Y-56413375D01*
X135704078Y-56543305D01*
X135536986Y-56710397D01*
X135401446Y-56903969D01*
X135401445Y-56903971D01*
X135301579Y-57118135D01*
X135301575Y-57118144D01*
X135240419Y-57346386D01*
X135240417Y-57346396D01*
X135219822Y-57581799D01*
X135219822Y-57581800D01*
X135240417Y-57817203D01*
X135240419Y-57817213D01*
X135301575Y-58045455D01*
X135301577Y-58045459D01*
X135301578Y-58045463D01*
X135401446Y-58259630D01*
X135401448Y-58259634D01*
X135536982Y-58453195D01*
X135536987Y-58453202D01*
X135704078Y-58620293D01*
X135704084Y-58620298D01*
X135889639Y-58750225D01*
X135933264Y-58804802D01*
X135940458Y-58874300D01*
X135908935Y-58936655D01*
X135889639Y-58953375D01*
X135704078Y-59083305D01*
X135536986Y-59250397D01*
X135401446Y-59443969D01*
X135401445Y-59443971D01*
X135301579Y-59658135D01*
X135301575Y-59658144D01*
X135240419Y-59886386D01*
X135240417Y-59886396D01*
X135219822Y-60121799D01*
X135219822Y-60121800D01*
X135240417Y-60357203D01*
X135240419Y-60357213D01*
X135301575Y-60585455D01*
X135301577Y-60585459D01*
X135301578Y-60585463D01*
X135401446Y-60799630D01*
X135401448Y-60799634D01*
X135536982Y-60993195D01*
X135536987Y-60993202D01*
X135704078Y-61160293D01*
X135704084Y-61160298D01*
X135889639Y-61290225D01*
X135933264Y-61344802D01*
X135940458Y-61414300D01*
X135908935Y-61476655D01*
X135889639Y-61493375D01*
X135704078Y-61623305D01*
X135536986Y-61790397D01*
X135401446Y-61983969D01*
X135401445Y-61983971D01*
X135301579Y-62198135D01*
X135301575Y-62198144D01*
X135240419Y-62426386D01*
X135240417Y-62426396D01*
X135219822Y-62661799D01*
X135219822Y-62661800D01*
X135240417Y-62897203D01*
X135240419Y-62897213D01*
X135301575Y-63125455D01*
X135301577Y-63125459D01*
X135301578Y-63125463D01*
X135401446Y-63339630D01*
X135401448Y-63339634D01*
X135509762Y-63494321D01*
X135536982Y-63533196D01*
X135536987Y-63533202D01*
X135659299Y-63655514D01*
X135692784Y-63716837D01*
X135687800Y-63786529D01*
X135645928Y-63842462D01*
X135614952Y-63859377D01*
X135483393Y-63908446D01*
X135483387Y-63908449D01*
X135368293Y-63994609D01*
X135368290Y-63994612D01*
X135282130Y-64109706D01*
X135282126Y-64109713D01*
X135231884Y-64244420D01*
X135231882Y-64244427D01*
X135225481Y-64303955D01*
X135225481Y-64951800D01*
X136130921Y-64951800D01*
X136100236Y-65004947D01*
X136065481Y-65134657D01*
X136065481Y-65268943D01*
X136100236Y-65398653D01*
X136130921Y-65451800D01*
X135225481Y-65451800D01*
X135225481Y-66099644D01*
X135231882Y-66159172D01*
X135231884Y-66159179D01*
X135282126Y-66293886D01*
X135282130Y-66293893D01*
X135368290Y-66408987D01*
X135368293Y-66408990D01*
X135483387Y-66495150D01*
X135483394Y-66495154D01*
X135614951Y-66544221D01*
X135670884Y-66586092D01*
X135695302Y-66651556D01*
X135680451Y-66719829D01*
X135659300Y-66748084D01*
X135536984Y-66870400D01*
X135401446Y-67063969D01*
X135401445Y-67063971D01*
X135301579Y-67278135D01*
X135301575Y-67278144D01*
X135240419Y-67506386D01*
X135240417Y-67506396D01*
X135219822Y-67741799D01*
X135219822Y-67741800D01*
X135240417Y-67977203D01*
X135240419Y-67977213D01*
X135301575Y-68205455D01*
X135301577Y-68205459D01*
X135301578Y-68205463D01*
X135388704Y-68392305D01*
X135401446Y-68419630D01*
X135401448Y-68419634D01*
X135536982Y-68613195D01*
X135536987Y-68613202D01*
X135704078Y-68780293D01*
X135704084Y-68780298D01*
X135889639Y-68910225D01*
X135933264Y-68964802D01*
X135940458Y-69034300D01*
X135908935Y-69096655D01*
X135889639Y-69113375D01*
X135704078Y-69243305D01*
X135536986Y-69410397D01*
X135401446Y-69603969D01*
X135401445Y-69603971D01*
X135301579Y-69818135D01*
X135301575Y-69818144D01*
X135240419Y-70046386D01*
X135240417Y-70046396D01*
X135219822Y-70281799D01*
X135219822Y-70281800D01*
X135240417Y-70517203D01*
X135240419Y-70517213D01*
X135301575Y-70745455D01*
X135301577Y-70745459D01*
X135301578Y-70745463D01*
X135401446Y-70959630D01*
X135401448Y-70959634D01*
X135536982Y-71153195D01*
X135536987Y-71153202D01*
X135704078Y-71320293D01*
X135704084Y-71320298D01*
X135889639Y-71450225D01*
X135933264Y-71504802D01*
X135940458Y-71574300D01*
X135908935Y-71636655D01*
X135889639Y-71653375D01*
X135704078Y-71783305D01*
X135536986Y-71950397D01*
X135401446Y-72143969D01*
X135401445Y-72143971D01*
X135301579Y-72358135D01*
X135301575Y-72358144D01*
X135240419Y-72586386D01*
X135240417Y-72586396D01*
X135219822Y-72821799D01*
X135219822Y-72821800D01*
X135240417Y-73057203D01*
X135240419Y-73057213D01*
X135301575Y-73285455D01*
X135301577Y-73285459D01*
X135301578Y-73285463D01*
X135401446Y-73499630D01*
X135401448Y-73499634D01*
X135536982Y-73693195D01*
X135536987Y-73693202D01*
X135704078Y-73860293D01*
X135704084Y-73860298D01*
X135889639Y-73990225D01*
X135933264Y-74044802D01*
X135940458Y-74114300D01*
X135908935Y-74176655D01*
X135889639Y-74193375D01*
X135704078Y-74323305D01*
X135536986Y-74490397D01*
X135401446Y-74683969D01*
X135401445Y-74683971D01*
X135301579Y-74898135D01*
X135301575Y-74898144D01*
X135240419Y-75126386D01*
X135240417Y-75126396D01*
X135219822Y-75361799D01*
X135219822Y-75361800D01*
X135240417Y-75597203D01*
X135240419Y-75597213D01*
X135301575Y-75825455D01*
X135301577Y-75825459D01*
X135301578Y-75825463D01*
X135401446Y-76039630D01*
X135401448Y-76039634D01*
X135509762Y-76194321D01*
X135536982Y-76233196D01*
X135536987Y-76233202D01*
X135659299Y-76355514D01*
X135692784Y-76416837D01*
X135687800Y-76486529D01*
X135645928Y-76542462D01*
X135614952Y-76559377D01*
X135483393Y-76608446D01*
X135483387Y-76608449D01*
X135368293Y-76694609D01*
X135368290Y-76694612D01*
X135282130Y-76809706D01*
X135282126Y-76809713D01*
X135231884Y-76944420D01*
X135231882Y-76944427D01*
X135225481Y-77003955D01*
X135225481Y-77651800D01*
X136130921Y-77651800D01*
X136100236Y-77704947D01*
X136065481Y-77834657D01*
X136065481Y-77968943D01*
X136100236Y-78098653D01*
X136130921Y-78151800D01*
X135225481Y-78151800D01*
X135225481Y-78799644D01*
X135231882Y-78859172D01*
X135231884Y-78859179D01*
X135282126Y-78993886D01*
X135282130Y-78993893D01*
X135368290Y-79108987D01*
X135368293Y-79108990D01*
X135483387Y-79195150D01*
X135483394Y-79195154D01*
X135614951Y-79244221D01*
X135670884Y-79286092D01*
X135695302Y-79351556D01*
X135680451Y-79419829D01*
X135659300Y-79448084D01*
X135536984Y-79570400D01*
X135401446Y-79763969D01*
X135401445Y-79763971D01*
X135301579Y-79978135D01*
X135301575Y-79978144D01*
X135240419Y-80206386D01*
X135240417Y-80206396D01*
X135219822Y-80441799D01*
X135219822Y-80441800D01*
X135240417Y-80677203D01*
X135240419Y-80677213D01*
X135301575Y-80905455D01*
X135301577Y-80905459D01*
X135301578Y-80905463D01*
X135401446Y-81119630D01*
X135401448Y-81119634D01*
X135536982Y-81313195D01*
X135536987Y-81313202D01*
X135704078Y-81480293D01*
X135704084Y-81480298D01*
X135889639Y-81610225D01*
X135933264Y-81664802D01*
X135940458Y-81734300D01*
X135908935Y-81796655D01*
X135889639Y-81813375D01*
X135704078Y-81943305D01*
X135536986Y-82110397D01*
X135401446Y-82303969D01*
X135401445Y-82303971D01*
X135301579Y-82518135D01*
X135301575Y-82518144D01*
X135240419Y-82746386D01*
X135240417Y-82746396D01*
X135219822Y-82981799D01*
X135219822Y-82981800D01*
X135240417Y-83217203D01*
X135240419Y-83217213D01*
X135301575Y-83445455D01*
X135301577Y-83445459D01*
X135301578Y-83445463D01*
X135401446Y-83659630D01*
X135401448Y-83659634D01*
X135536982Y-83853195D01*
X135536987Y-83853202D01*
X135704078Y-84020293D01*
X135704084Y-84020298D01*
X135889639Y-84150225D01*
X135933264Y-84204802D01*
X135940458Y-84274300D01*
X135908935Y-84336655D01*
X135889639Y-84353375D01*
X135704078Y-84483305D01*
X135536986Y-84650397D01*
X135401446Y-84843969D01*
X135401445Y-84843971D01*
X135301579Y-85058135D01*
X135301575Y-85058144D01*
X135240419Y-85286386D01*
X135240417Y-85286396D01*
X135219822Y-85521799D01*
X135219822Y-85521800D01*
X135240417Y-85757203D01*
X135240419Y-85757213D01*
X135301575Y-85985455D01*
X135301577Y-85985459D01*
X135301578Y-85985463D01*
X135311844Y-86007478D01*
X135401446Y-86199630D01*
X135401448Y-86199634D01*
X135536982Y-86393195D01*
X135536987Y-86393202D01*
X135704078Y-86560293D01*
X135704084Y-86560298D01*
X135889639Y-86690225D01*
X135933264Y-86744802D01*
X135940458Y-86814300D01*
X135908935Y-86876655D01*
X135889639Y-86893375D01*
X135704078Y-87023305D01*
X135536986Y-87190397D01*
X135401446Y-87383969D01*
X135401445Y-87383971D01*
X135301579Y-87598135D01*
X135301575Y-87598144D01*
X135240419Y-87826386D01*
X135240417Y-87826396D01*
X135219822Y-88061799D01*
X135219822Y-88061800D01*
X135240417Y-88297203D01*
X135240419Y-88297213D01*
X135301575Y-88525455D01*
X135301577Y-88525459D01*
X135301578Y-88525463D01*
X135401446Y-88739630D01*
X135401448Y-88739634D01*
X135485459Y-88859613D01*
X135536982Y-88933196D01*
X135536987Y-88933202D01*
X135659299Y-89055514D01*
X135692784Y-89116837D01*
X135687800Y-89186529D01*
X135645928Y-89242462D01*
X135614952Y-89259377D01*
X135483393Y-89308446D01*
X135483387Y-89308449D01*
X135368293Y-89394609D01*
X135368290Y-89394612D01*
X135282130Y-89509706D01*
X135282126Y-89509713D01*
X135231884Y-89644420D01*
X135231882Y-89644427D01*
X135225481Y-89703955D01*
X135225481Y-90351800D01*
X136130921Y-90351800D01*
X136100236Y-90404947D01*
X136065481Y-90534657D01*
X136065481Y-90668943D01*
X136100236Y-90798653D01*
X136130921Y-90851800D01*
X135225481Y-90851800D01*
X135225481Y-91499644D01*
X135231882Y-91559172D01*
X135231884Y-91559179D01*
X135282126Y-91693886D01*
X135282130Y-91693893D01*
X135368290Y-91808987D01*
X135368293Y-91808990D01*
X135483387Y-91895150D01*
X135483394Y-91895154D01*
X135614951Y-91944221D01*
X135670884Y-91986092D01*
X135695302Y-92051556D01*
X135680451Y-92119829D01*
X135659300Y-92148084D01*
X135536984Y-92270400D01*
X135401446Y-92463969D01*
X135401445Y-92463971D01*
X135301579Y-92678135D01*
X135301575Y-92678144D01*
X135240419Y-92906386D01*
X135240417Y-92906396D01*
X135219822Y-93141799D01*
X135219822Y-93141800D01*
X135240417Y-93377203D01*
X135240419Y-93377213D01*
X135301575Y-93605455D01*
X135301577Y-93605459D01*
X135301578Y-93605463D01*
X135401446Y-93819630D01*
X135401448Y-93819634D01*
X135536982Y-94013195D01*
X135536987Y-94013202D01*
X135704078Y-94180293D01*
X135704084Y-94180298D01*
X135889639Y-94310225D01*
X135933264Y-94364802D01*
X135940458Y-94434300D01*
X135908935Y-94496655D01*
X135889639Y-94513375D01*
X135704078Y-94643305D01*
X135536986Y-94810397D01*
X135401446Y-95003969D01*
X135401445Y-95003971D01*
X135301579Y-95218135D01*
X135301575Y-95218144D01*
X135240419Y-95446386D01*
X135240417Y-95446396D01*
X135219822Y-95681799D01*
X135219822Y-95681800D01*
X135240417Y-95917203D01*
X135240419Y-95917213D01*
X135301575Y-96145455D01*
X135301577Y-96145459D01*
X135301578Y-96145463D01*
X135396803Y-96349673D01*
X135401446Y-96359630D01*
X135401448Y-96359634D01*
X135492937Y-96490293D01*
X135536986Y-96553201D01*
X135704080Y-96720295D01*
X135740214Y-96745596D01*
X135897646Y-96855832D01*
X135897648Y-96855833D01*
X135897651Y-96855835D01*
X136111818Y-96955703D01*
X136340073Y-97016863D01*
X136528399Y-97033339D01*
X136575480Y-97037459D01*
X136575481Y-97037459D01*
X136575482Y-97037459D01*
X136614715Y-97034026D01*
X136810889Y-97016863D01*
X137039144Y-96955703D01*
X137253311Y-96855835D01*
X137446882Y-96720295D01*
X137613976Y-96553201D01*
X137749516Y-96359630D01*
X137849384Y-96145463D01*
X137910544Y-95917208D01*
X137931140Y-95681800D01*
X137911017Y-95451799D01*
X141569822Y-95451799D01*
X141569822Y-95451800D01*
X141590417Y-95687203D01*
X141590419Y-95687213D01*
X141651575Y-95915455D01*
X141651577Y-95915459D01*
X141651578Y-95915463D01*
X141735980Y-96096463D01*
X141751446Y-96129630D01*
X141751448Y-96129634D01*
X141859762Y-96284321D01*
X141886986Y-96323201D01*
X142054080Y-96490295D01*
X142143910Y-96553195D01*
X142247646Y-96625832D01*
X142247648Y-96625833D01*
X142247651Y-96625835D01*
X142461818Y-96725703D01*
X142690073Y-96786863D01*
X142866515Y-96802300D01*
X142925480Y-96807459D01*
X142925481Y-96807459D01*
X142925482Y-96807459D01*
X142984447Y-96802300D01*
X143160889Y-96786863D01*
X143389144Y-96725703D01*
X143603311Y-96625835D01*
X143796882Y-96490295D01*
X143918810Y-96368366D01*
X143980129Y-96334884D01*
X144049821Y-96339868D01*
X144105755Y-96381739D01*
X144122670Y-96412717D01*
X144171683Y-96544128D01*
X144171687Y-96544135D01*
X144257933Y-96659344D01*
X144257936Y-96659347D01*
X144373145Y-96745593D01*
X144373152Y-96745597D01*
X144507998Y-96795891D01*
X144507997Y-96795891D01*
X144514925Y-96796635D01*
X144567608Y-96802300D01*
X146363353Y-96802299D01*
X146422964Y-96795891D01*
X146557812Y-96745596D01*
X146673027Y-96659346D01*
X146759277Y-96544131D01*
X146808291Y-96412716D01*
X146850162Y-96356784D01*
X146915626Y-96332366D01*
X146983899Y-96347217D01*
X147012154Y-96368369D01*
X147134080Y-96490295D01*
X147223910Y-96553195D01*
X147327646Y-96625832D01*
X147327648Y-96625833D01*
X147327651Y-96625835D01*
X147541818Y-96725703D01*
X147770073Y-96786863D01*
X147946515Y-96802300D01*
X148005480Y-96807459D01*
X148005481Y-96807459D01*
X148005482Y-96807459D01*
X148064447Y-96802300D01*
X148240889Y-96786863D01*
X148469144Y-96725703D01*
X148683311Y-96625835D01*
X148876882Y-96490295D01*
X149043976Y-96323201D01*
X149179516Y-96129630D01*
X149279384Y-95915463D01*
X149340544Y-95687208D01*
X149361140Y-95451800D01*
X149340544Y-95216392D01*
X149279384Y-94988137D01*
X149179516Y-94773971D01*
X149088021Y-94643301D01*
X149043975Y-94580397D01*
X148876883Y-94413306D01*
X148876876Y-94413301D01*
X148874732Y-94411800D01*
X148799999Y-94359471D01*
X148683315Y-94277767D01*
X148683311Y-94277765D01*
X148683309Y-94277764D01*
X148469144Y-94177897D01*
X148469140Y-94177896D01*
X148469136Y-94177894D01*
X148240894Y-94116738D01*
X148240884Y-94116736D01*
X148005482Y-94096141D01*
X148005480Y-94096141D01*
X147770077Y-94116736D01*
X147770067Y-94116738D01*
X147541825Y-94177894D01*
X147541816Y-94177898D01*
X147327652Y-94277764D01*
X147327650Y-94277765D01*
X147134081Y-94413303D01*
X147012154Y-94535230D01*
X146950831Y-94568714D01*
X146881139Y-94563730D01*
X146825206Y-94521858D01*
X146808291Y-94490881D01*
X146759278Y-94359471D01*
X146759274Y-94359464D01*
X146673028Y-94244255D01*
X146673025Y-94244252D01*
X146557816Y-94158006D01*
X146557809Y-94158002D01*
X146422963Y-94107708D01*
X146422964Y-94107708D01*
X146363364Y-94101301D01*
X146363362Y-94101300D01*
X146363354Y-94101300D01*
X146363345Y-94101300D01*
X144567610Y-94101300D01*
X144567604Y-94101301D01*
X144507997Y-94107708D01*
X144373152Y-94158002D01*
X144373145Y-94158006D01*
X144257936Y-94244252D01*
X144257933Y-94244255D01*
X144171687Y-94359464D01*
X144171684Y-94359469D01*
X144122670Y-94490883D01*
X144080798Y-94546816D01*
X144015334Y-94571233D01*
X143947061Y-94556381D01*
X143918807Y-94535230D01*
X143796883Y-94413306D01*
X143796876Y-94413301D01*
X143794732Y-94411800D01*
X143719999Y-94359471D01*
X143603315Y-94277767D01*
X143603311Y-94277765D01*
X143603309Y-94277764D01*
X143389144Y-94177897D01*
X143389140Y-94177896D01*
X143389136Y-94177894D01*
X143160894Y-94116738D01*
X143160884Y-94116736D01*
X142925482Y-94096141D01*
X142925480Y-94096141D01*
X142690077Y-94116736D01*
X142690067Y-94116738D01*
X142461825Y-94177894D01*
X142461816Y-94177898D01*
X142247652Y-94277764D01*
X142247650Y-94277765D01*
X142054078Y-94413305D01*
X141886986Y-94580397D01*
X141751446Y-94773969D01*
X141751445Y-94773971D01*
X141651579Y-94988135D01*
X141651575Y-94988144D01*
X141590419Y-95216386D01*
X141590417Y-95216396D01*
X141569822Y-95451799D01*
X137911017Y-95451799D01*
X137910544Y-95446392D01*
X137849384Y-95218137D01*
X137749516Y-95003971D01*
X137613976Y-94810399D01*
X137613975Y-94810397D01*
X137446883Y-94643306D01*
X137446877Y-94643301D01*
X137261323Y-94513375D01*
X137217698Y-94458798D01*
X137210504Y-94389300D01*
X137242027Y-94326945D01*
X137261323Y-94310225D01*
X137307678Y-94277767D01*
X137446882Y-94180295D01*
X137613976Y-94013201D01*
X137749516Y-93819630D01*
X137849384Y-93605463D01*
X137910544Y-93377208D01*
X137931140Y-93141800D01*
X137910544Y-92906392D01*
X137849384Y-92678137D01*
X137749516Y-92463971D01*
X137613976Y-92270399D01*
X137491660Y-92148083D01*
X137458177Y-92086763D01*
X137463161Y-92017071D01*
X137505032Y-91961137D01*
X137536010Y-91944222D01*
X137667567Y-91895154D01*
X137667574Y-91895150D01*
X137782668Y-91808990D01*
X137782671Y-91808987D01*
X137868831Y-91693893D01*
X137868835Y-91693886D01*
X137919077Y-91559179D01*
X137919079Y-91559172D01*
X137925480Y-91499644D01*
X137925481Y-91499627D01*
X137925481Y-90851800D01*
X137020041Y-90851800D01*
X137050726Y-90798653D01*
X137085481Y-90668943D01*
X137085481Y-90534657D01*
X137050726Y-90404947D01*
X137020041Y-90351800D01*
X137925481Y-90351800D01*
X137925481Y-89703972D01*
X137925480Y-89703955D01*
X137919079Y-89644427D01*
X137919077Y-89644420D01*
X137868835Y-89509713D01*
X137868831Y-89509706D01*
X137782671Y-89394612D01*
X137782668Y-89394609D01*
X137667574Y-89308449D01*
X137667569Y-89308446D01*
X137536009Y-89259377D01*
X137480076Y-89217505D01*
X137455659Y-89152041D01*
X137470511Y-89083768D01*
X137491656Y-89055520D01*
X137613976Y-88933201D01*
X137749516Y-88739630D01*
X137849384Y-88525463D01*
X137910544Y-88297208D01*
X137931140Y-88061800D01*
X137910544Y-87826392D01*
X137891951Y-87757000D01*
X143138778Y-87757000D01*
X143157644Y-88044837D01*
X143157646Y-88044849D01*
X143213917Y-88327745D01*
X143213921Y-88327760D01*
X143306642Y-88600905D01*
X143434219Y-88859606D01*
X143434223Y-88859613D01*
X143594478Y-89099452D01*
X143784672Y-89316327D01*
X144001547Y-89506521D01*
X144207928Y-89644420D01*
X144241389Y-89666778D01*
X144500098Y-89794359D01*
X144773247Y-89887081D01*
X145056161Y-89943356D01*
X145344000Y-89962222D01*
X145631839Y-89943356D01*
X145914753Y-89887081D01*
X146187902Y-89794359D01*
X146446611Y-89666778D01*
X146686454Y-89506520D01*
X146903327Y-89316327D01*
X147093520Y-89099454D01*
X147253778Y-88859611D01*
X147381359Y-88600902D01*
X147474081Y-88327753D01*
X147530356Y-88044839D01*
X147549222Y-87757000D01*
X147530356Y-87469161D01*
X147474081Y-87186247D01*
X147381359Y-86913098D01*
X147253778Y-86654389D01*
X147253776Y-86654386D01*
X147093521Y-86414547D01*
X146903327Y-86197672D01*
X146686452Y-86007478D01*
X146446613Y-85847223D01*
X146446606Y-85847219D01*
X146187905Y-85719642D01*
X145914760Y-85626921D01*
X145914754Y-85626919D01*
X145914753Y-85626919D01*
X145914751Y-85626918D01*
X145914745Y-85626917D01*
X145631849Y-85570646D01*
X145631839Y-85570644D01*
X145344000Y-85551778D01*
X145056161Y-85570644D01*
X145056155Y-85570645D01*
X145056150Y-85570646D01*
X144773254Y-85626917D01*
X144773239Y-85626921D01*
X144500094Y-85719642D01*
X144241393Y-85847219D01*
X144241386Y-85847223D01*
X144001547Y-86007478D01*
X143784672Y-86197672D01*
X143594478Y-86414547D01*
X143434223Y-86654386D01*
X143434219Y-86654393D01*
X143306642Y-86913094D01*
X143213921Y-87186239D01*
X143213919Y-87186244D01*
X143213919Y-87186247D01*
X143175706Y-87378352D01*
X143157646Y-87469150D01*
X143157644Y-87469162D01*
X143138778Y-87757000D01*
X137891951Y-87757000D01*
X137849384Y-87598137D01*
X137749516Y-87383971D01*
X137613976Y-87190399D01*
X137613975Y-87190397D01*
X137446883Y-87023306D01*
X137446877Y-87023301D01*
X137261323Y-86893375D01*
X137217698Y-86838798D01*
X137210504Y-86769300D01*
X137242027Y-86706945D01*
X137261323Y-86690225D01*
X137312506Y-86654386D01*
X137446882Y-86560295D01*
X137613976Y-86393201D01*
X137749516Y-86199630D01*
X137849384Y-85985463D01*
X137910544Y-85757208D01*
X137931140Y-85521800D01*
X137910544Y-85286392D01*
X137849384Y-85058137D01*
X137749516Y-84843971D01*
X137613976Y-84650399D01*
X137613975Y-84650397D01*
X137446883Y-84483306D01*
X137446877Y-84483301D01*
X137261323Y-84353375D01*
X137217698Y-84298798D01*
X137210504Y-84229300D01*
X137242027Y-84166945D01*
X137261323Y-84150225D01*
X137283507Y-84134691D01*
X137446882Y-84020295D01*
X137613976Y-83853201D01*
X137749516Y-83659630D01*
X137849384Y-83445463D01*
X137910544Y-83217208D01*
X137931140Y-82981800D01*
X137910544Y-82746392D01*
X137849384Y-82518137D01*
X137749516Y-82303971D01*
X137613976Y-82110399D01*
X137613975Y-82110397D01*
X137446883Y-81943306D01*
X137446877Y-81943301D01*
X137261323Y-81813375D01*
X137217698Y-81758798D01*
X137210504Y-81689300D01*
X137242027Y-81626945D01*
X137261323Y-81610225D01*
X137283507Y-81594691D01*
X137446882Y-81480295D01*
X137613976Y-81313201D01*
X137749516Y-81119630D01*
X137849384Y-80905463D01*
X137910544Y-80677208D01*
X137931140Y-80441800D01*
X137910544Y-80206392D01*
X137849384Y-79978137D01*
X137749516Y-79763971D01*
X137613976Y-79570399D01*
X137491660Y-79448083D01*
X137458177Y-79386763D01*
X137463161Y-79317071D01*
X137505032Y-79261137D01*
X137536010Y-79244222D01*
X137667567Y-79195154D01*
X137667574Y-79195150D01*
X137782668Y-79108990D01*
X137782671Y-79108987D01*
X137868831Y-78993893D01*
X137868835Y-78993886D01*
X137919077Y-78859179D01*
X137919079Y-78859172D01*
X137925480Y-78799644D01*
X137925481Y-78799627D01*
X137925481Y-78151800D01*
X137020041Y-78151800D01*
X137050726Y-78098653D01*
X137085481Y-77968943D01*
X137085481Y-77834657D01*
X137050726Y-77704947D01*
X137020041Y-77651800D01*
X137925481Y-77651800D01*
X137925481Y-77003972D01*
X137925480Y-77003955D01*
X137919079Y-76944427D01*
X137919077Y-76944420D01*
X137868835Y-76809713D01*
X137868831Y-76809706D01*
X137782671Y-76694612D01*
X137782668Y-76694609D01*
X137667574Y-76608449D01*
X137667569Y-76608446D01*
X137536009Y-76559377D01*
X137480076Y-76517505D01*
X137455659Y-76452041D01*
X137470511Y-76383768D01*
X137491656Y-76355520D01*
X137613976Y-76233201D01*
X137749516Y-76039630D01*
X137849384Y-75825463D01*
X137910544Y-75597208D01*
X137931140Y-75361800D01*
X137910544Y-75126392D01*
X137849384Y-74898137D01*
X137749516Y-74683971D01*
X137613976Y-74490399D01*
X137613975Y-74490397D01*
X137446883Y-74323306D01*
X137446877Y-74323301D01*
X137261323Y-74193375D01*
X137217698Y-74138798D01*
X137210504Y-74069300D01*
X137242027Y-74006945D01*
X137261323Y-73990225D01*
X137283507Y-73974691D01*
X137446882Y-73860295D01*
X137613976Y-73693201D01*
X137749516Y-73499630D01*
X137849384Y-73285463D01*
X137910544Y-73057208D01*
X137931140Y-72821800D01*
X137910544Y-72586392D01*
X137849384Y-72358137D01*
X137749516Y-72143971D01*
X137613976Y-71950399D01*
X137613975Y-71950397D01*
X137446883Y-71783306D01*
X137446877Y-71783301D01*
X137261323Y-71653375D01*
X137217698Y-71598798D01*
X137210504Y-71529300D01*
X137242027Y-71466945D01*
X137261323Y-71450225D01*
X137283507Y-71434691D01*
X137446882Y-71320295D01*
X137613976Y-71153201D01*
X137749516Y-70959630D01*
X137849384Y-70745463D01*
X137910544Y-70517208D01*
X137931140Y-70281800D01*
X137910544Y-70046392D01*
X137849384Y-69818137D01*
X137749516Y-69603971D01*
X137699272Y-69532214D01*
X137613975Y-69410397D01*
X137446883Y-69243306D01*
X137446877Y-69243301D01*
X137261323Y-69113375D01*
X137217698Y-69058798D01*
X137210504Y-68989300D01*
X137242027Y-68926945D01*
X137261323Y-68910225D01*
X137283507Y-68894691D01*
X137446882Y-68780295D01*
X137613976Y-68613201D01*
X137749516Y-68419630D01*
X137849384Y-68205463D01*
X137910544Y-67977208D01*
X137931140Y-67741800D01*
X137910544Y-67506392D01*
X137849384Y-67278137D01*
X137749516Y-67063971D01*
X137682453Y-66968195D01*
X137613977Y-66870400D01*
X137597035Y-66853458D01*
X137491660Y-66748083D01*
X137458177Y-66686763D01*
X137463161Y-66617071D01*
X137505032Y-66561137D01*
X137536010Y-66544222D01*
X137667567Y-66495154D01*
X137667574Y-66495150D01*
X137782668Y-66408990D01*
X137782671Y-66408987D01*
X137868831Y-66293893D01*
X137868835Y-66293886D01*
X137917946Y-66162212D01*
X137959817Y-66106279D01*
X138025281Y-66081861D01*
X138093554Y-66096712D01*
X138142960Y-66146117D01*
X138148689Y-66158092D01*
X138179223Y-66231808D01*
X138255887Y-66346545D01*
X138255888Y-66346546D01*
X140240325Y-68330982D01*
X140273810Y-68392305D01*
X140268826Y-68461997D01*
X140260031Y-68480663D01*
X140172821Y-68631715D01*
X140172818Y-68631722D01*
X140140166Y-68732216D01*
X140114326Y-68811744D01*
X140094540Y-69000000D01*
X140114326Y-69188256D01*
X140114327Y-69188259D01*
X140172818Y-69368277D01*
X140172821Y-69368284D01*
X140267467Y-69532216D01*
X140332074Y-69603969D01*
X140394129Y-69672888D01*
X140547265Y-69784148D01*
X140547270Y-69784151D01*
X140720192Y-69861142D01*
X140720197Y-69861144D01*
X140905354Y-69900500D01*
X140905355Y-69900500D01*
X141094644Y-69900500D01*
X141094646Y-69900500D01*
X141279803Y-69861144D01*
X141452730Y-69784151D01*
X141605871Y-69672888D01*
X141732533Y-69532216D01*
X141827179Y-69368284D01*
X141885674Y-69188256D01*
X141885674Y-69188248D01*
X141887024Y-69181903D01*
X141888691Y-69182257D01*
X141912062Y-69125437D01*
X141969355Y-69085447D01*
X141983022Y-69081714D01*
X142079803Y-69061144D01*
X142079806Y-69061142D01*
X142079808Y-69061142D01*
X142190630Y-69011800D01*
X142252730Y-68984151D01*
X142405871Y-68872888D01*
X142532533Y-68732216D01*
X142627179Y-68568284D01*
X142685674Y-68388256D01*
X142705460Y-68200000D01*
X142685674Y-68011744D01*
X142627179Y-67831716D01*
X142532533Y-67667784D01*
X142532344Y-67667574D01*
X142532273Y-67667427D01*
X142528714Y-67662528D01*
X142529610Y-67661876D01*
X142502119Y-67604580D01*
X142500500Y-67584608D01*
X142500500Y-67231004D01*
X142473581Y-67095677D01*
X142473580Y-67095676D01*
X142473580Y-67095672D01*
X142460448Y-67063969D01*
X142420778Y-66968195D01*
X142420771Y-66968182D01*
X142344115Y-66853459D01*
X142344114Y-66853458D01*
X142246542Y-66755886D01*
X140626503Y-65135846D01*
X140593018Y-65074523D01*
X140590865Y-65061143D01*
X140585674Y-65011744D01*
X140545551Y-64888260D01*
X140527181Y-64831722D01*
X140527180Y-64831721D01*
X140527179Y-64831716D01*
X140432533Y-64667784D01*
X140305871Y-64527112D01*
X140284719Y-64511744D01*
X140152734Y-64415851D01*
X140152729Y-64415848D01*
X139979807Y-64338857D01*
X139979802Y-64338855D01*
X139815605Y-64303955D01*
X139794646Y-64299500D01*
X139624500Y-64299500D01*
X139557461Y-64279815D01*
X139511706Y-64227011D01*
X139500500Y-64175500D01*
X139500500Y-62277323D01*
X139473581Y-62141996D01*
X139473580Y-62141995D01*
X139473580Y-62141991D01*
X139420775Y-62014508D01*
X139400371Y-61983971D01*
X139344114Y-61899776D01*
X139344112Y-61899773D01*
X139344111Y-61899772D01*
X137938132Y-60493794D01*
X137904647Y-60432471D01*
X137906039Y-60374017D01*
X137910544Y-60357208D01*
X137931140Y-60121800D01*
X137910544Y-59886392D01*
X137849384Y-59658137D01*
X137749516Y-59443971D01*
X137613976Y-59250399D01*
X137613975Y-59250397D01*
X137446883Y-59083306D01*
X137446877Y-59083301D01*
X137261323Y-58953375D01*
X137217698Y-58898798D01*
X137210504Y-58829300D01*
X137242027Y-58766945D01*
X137261323Y-58750225D01*
X137283507Y-58734691D01*
X137446882Y-58620295D01*
X137613976Y-58453201D01*
X137696617Y-58335176D01*
X137751194Y-58291552D01*
X137798192Y-58282300D01*
X138440281Y-58282300D01*
X138507320Y-58301985D01*
X138527962Y-58318619D01*
X144973495Y-64764152D01*
X145006980Y-64825475D01*
X145009134Y-64838869D01*
X145014325Y-64888249D01*
X145014327Y-64888260D01*
X145072818Y-65068277D01*
X145072821Y-65068284D01*
X145167467Y-65232216D01*
X145294129Y-65372888D01*
X145447265Y-65484148D01*
X145447270Y-65484151D01*
X145620192Y-65561142D01*
X145620197Y-65561144D01*
X145805354Y-65600500D01*
X145805355Y-65600500D01*
X145994644Y-65600500D01*
X145994646Y-65600500D01*
X146179803Y-65561144D01*
X146352730Y-65484151D01*
X146505871Y-65372888D01*
X146632533Y-65232216D01*
X146727179Y-65068284D01*
X146785674Y-64888256D01*
X146805460Y-64700000D01*
X146785674Y-64511744D01*
X146727179Y-64331716D01*
X146632533Y-64167784D01*
X146505871Y-64027112D01*
X146464237Y-63996863D01*
X146352734Y-63915851D01*
X146352729Y-63915848D01*
X146179807Y-63838857D01*
X146179802Y-63838855D01*
X146043490Y-63809882D01*
X146024872Y-63805924D01*
X145963391Y-63772733D01*
X145962973Y-63772316D01*
X139228346Y-57037688D01*
X139228345Y-57037687D01*
X139113607Y-56961022D01*
X138986132Y-56908221D01*
X138986122Y-56908218D01*
X138850796Y-56881300D01*
X138850794Y-56881300D01*
X138850793Y-56881300D01*
X137798192Y-56881300D01*
X137731153Y-56861615D01*
X137696617Y-56828423D01*
X137613975Y-56710397D01*
X137446883Y-56543306D01*
X137446877Y-56543301D01*
X137261323Y-56413375D01*
X137217698Y-56358798D01*
X137210504Y-56289300D01*
X137242027Y-56226945D01*
X137261323Y-56210225D01*
X137283507Y-56194691D01*
X137446882Y-56080295D01*
X137613976Y-55913201D01*
X137749516Y-55719630D01*
X137849384Y-55505463D01*
X137910544Y-55277208D01*
X137931140Y-55041800D01*
X137910544Y-54806392D01*
X137849384Y-54578137D01*
X137749516Y-54363971D01*
X137613976Y-54170399D01*
X137491660Y-54048083D01*
X137458177Y-53986763D01*
X137463161Y-53917071D01*
X137505032Y-53861137D01*
X137536010Y-53844222D01*
X137667567Y-53795154D01*
X137667574Y-53795150D01*
X137782668Y-53708990D01*
X137782671Y-53708987D01*
X137868831Y-53593893D01*
X137868835Y-53593886D01*
X137919077Y-53459179D01*
X137919079Y-53459172D01*
X137925480Y-53399644D01*
X137925481Y-53399627D01*
X137925481Y-52751800D01*
X137020041Y-52751800D01*
X137050726Y-52698653D01*
X137085481Y-52568943D01*
X137085481Y-52434657D01*
X137050726Y-52304947D01*
X137020041Y-52251800D01*
X137925481Y-52251800D01*
X137925481Y-51603972D01*
X137925480Y-51603955D01*
X137919079Y-51544427D01*
X137919077Y-51544420D01*
X137868835Y-51409713D01*
X137868831Y-51409706D01*
X137782671Y-51294612D01*
X137782668Y-51294609D01*
X137667574Y-51208449D01*
X137667569Y-51208446D01*
X137536009Y-51159377D01*
X137480076Y-51117505D01*
X137455659Y-51052041D01*
X137470511Y-50983768D01*
X137491656Y-50955520D01*
X137613976Y-50833201D01*
X137749516Y-50639630D01*
X137776484Y-50581797D01*
X141785204Y-50581797D01*
X141785204Y-50581802D01*
X141804274Y-50799775D01*
X141804274Y-50799779D01*
X141860903Y-51011122D01*
X141860905Y-51011126D01*
X141860906Y-51011130D01*
X141879983Y-51052041D01*
X141953378Y-51209438D01*
X141953379Y-51209439D01*
X142078883Y-51388677D01*
X142233604Y-51543398D01*
X142412842Y-51668902D01*
X142611151Y-51761375D01*
X142822504Y-51818007D01*
X143005407Y-51834008D01*
X143040479Y-51837077D01*
X143040481Y-51837077D01*
X143040483Y-51837077D01*
X143068735Y-51834605D01*
X143258458Y-51818007D01*
X143469811Y-51761375D01*
X143668120Y-51668902D01*
X143847358Y-51543398D01*
X144002079Y-51388677D01*
X144127583Y-51209439D01*
X144220056Y-51011130D01*
X144276688Y-50799777D01*
X144295758Y-50581800D01*
X144295758Y-50581797D01*
X146635204Y-50581797D01*
X146635204Y-50581802D01*
X146654274Y-50799775D01*
X146654274Y-50799779D01*
X146710903Y-51011122D01*
X146710905Y-51011126D01*
X146710906Y-51011130D01*
X146729983Y-51052041D01*
X146803378Y-51209438D01*
X146803379Y-51209439D01*
X146928883Y-51388677D01*
X147083604Y-51543398D01*
X147262842Y-51668902D01*
X147461151Y-51761375D01*
X147672504Y-51818007D01*
X147855407Y-51834008D01*
X147890479Y-51837077D01*
X147890481Y-51837077D01*
X147890483Y-51837077D01*
X147918735Y-51834605D01*
X148108458Y-51818007D01*
X148319811Y-51761375D01*
X148518120Y-51668902D01*
X148697358Y-51543398D01*
X148852079Y-51388677D01*
X148977583Y-51209439D01*
X149070056Y-51011130D01*
X149126688Y-50799777D01*
X149145758Y-50581800D01*
X149126688Y-50363823D01*
X149070056Y-50152470D01*
X148977583Y-49954162D01*
X148977581Y-49954159D01*
X148977580Y-49954157D01*
X148852080Y-49774924D01*
X148803542Y-49726386D01*
X148697358Y-49620202D01*
X148559459Y-49523644D01*
X148518119Y-49494697D01*
X148418965Y-49448461D01*
X148319811Y-49402225D01*
X148319807Y-49402224D01*
X148319803Y-49402222D01*
X148108458Y-49345593D01*
X147890483Y-49326523D01*
X147890479Y-49326523D01*
X147745163Y-49339236D01*
X147672504Y-49345593D01*
X147672501Y-49345593D01*
X147461158Y-49402222D01*
X147461149Y-49402226D01*
X147262842Y-49494698D01*
X147262838Y-49494700D01*
X147083602Y-49620202D01*
X146928883Y-49774921D01*
X146803381Y-49954157D01*
X146803379Y-49954161D01*
X146710907Y-50152468D01*
X146710903Y-50152477D01*
X146654274Y-50363820D01*
X146654274Y-50363824D01*
X146635204Y-50581797D01*
X144295758Y-50581797D01*
X144276688Y-50363823D01*
X144220056Y-50152470D01*
X144127583Y-49954162D01*
X144127581Y-49954159D01*
X144127580Y-49954157D01*
X144002080Y-49774924D01*
X143953542Y-49726386D01*
X143847358Y-49620202D01*
X143709459Y-49523644D01*
X143668119Y-49494697D01*
X143568965Y-49448461D01*
X143469811Y-49402225D01*
X143469807Y-49402224D01*
X143469803Y-49402222D01*
X143258458Y-49345593D01*
X143040483Y-49326523D01*
X143040479Y-49326523D01*
X142895163Y-49339236D01*
X142822504Y-49345593D01*
X142822501Y-49345593D01*
X142611158Y-49402222D01*
X142611149Y-49402226D01*
X142412842Y-49494698D01*
X142412838Y-49494700D01*
X142233602Y-49620202D01*
X142078883Y-49774921D01*
X141953381Y-49954157D01*
X141953379Y-49954161D01*
X141860907Y-50152468D01*
X141860903Y-50152477D01*
X141804274Y-50363820D01*
X141804274Y-50363824D01*
X141785204Y-50581797D01*
X137776484Y-50581797D01*
X137849384Y-50425463D01*
X137910544Y-50197208D01*
X137931140Y-49961800D01*
X137910544Y-49726392D01*
X137849384Y-49498137D01*
X137749516Y-49283971D01*
X137613976Y-49090399D01*
X137613975Y-49090397D01*
X137446883Y-48923306D01*
X137446877Y-48923301D01*
X137261323Y-48793375D01*
X137217698Y-48738798D01*
X137210504Y-48669300D01*
X137242027Y-48606945D01*
X137261323Y-48590225D01*
X137283507Y-48574691D01*
X137446882Y-48460295D01*
X137613976Y-48293201D01*
X137749516Y-48099630D01*
X137849384Y-47885463D01*
X137910544Y-47657208D01*
X137919767Y-47551793D01*
X141335181Y-47551793D01*
X141335181Y-47551806D01*
X141354345Y-47783097D01*
X141354347Y-47783108D01*
X141411323Y-48008100D01*
X141504556Y-48220648D01*
X141631497Y-48414947D01*
X141631500Y-48414951D01*
X141631502Y-48414953D01*
X141788697Y-48585713D01*
X141788700Y-48585715D01*
X141788703Y-48585718D01*
X141971846Y-48728264D01*
X141971852Y-48728268D01*
X141971855Y-48728270D01*
X142175978Y-48838736D01*
X142289968Y-48877868D01*
X142395496Y-48914097D01*
X142395498Y-48914097D01*
X142395500Y-48914098D01*
X142624432Y-48952300D01*
X142624433Y-48952300D01*
X142856529Y-48952300D01*
X142856530Y-48952300D01*
X143085462Y-48914098D01*
X143304984Y-48838736D01*
X143509107Y-48728270D01*
X143692265Y-48585713D01*
X143849460Y-48414953D01*
X143976405Y-48220649D01*
X144069638Y-48008100D01*
X144126615Y-47783105D01*
X144126616Y-47783097D01*
X144145781Y-47551806D01*
X144145781Y-47551793D01*
X146785181Y-47551793D01*
X146785181Y-47551806D01*
X146804345Y-47783097D01*
X146804347Y-47783108D01*
X146861323Y-48008100D01*
X146954556Y-48220648D01*
X147081497Y-48414947D01*
X147081500Y-48414951D01*
X147081502Y-48414953D01*
X147238697Y-48585713D01*
X147238700Y-48585715D01*
X147238703Y-48585718D01*
X147421846Y-48728264D01*
X147421852Y-48728268D01*
X147421855Y-48728270D01*
X147625978Y-48838736D01*
X147739968Y-48877868D01*
X147845496Y-48914097D01*
X147845498Y-48914097D01*
X147845500Y-48914098D01*
X148074432Y-48952300D01*
X148074433Y-48952300D01*
X148306529Y-48952300D01*
X148306530Y-48952300D01*
X148535462Y-48914098D01*
X148754984Y-48838736D01*
X148959107Y-48728270D01*
X149142265Y-48585713D01*
X149299460Y-48414953D01*
X149426405Y-48220649D01*
X149519638Y-48008100D01*
X149576615Y-47783105D01*
X149576616Y-47783097D01*
X149595781Y-47551806D01*
X149595781Y-47551793D01*
X149585010Y-47421799D01*
X152999822Y-47421799D01*
X152999822Y-47421800D01*
X153020417Y-47657203D01*
X153020419Y-47657213D01*
X153081575Y-47885455D01*
X153081577Y-47885459D01*
X153081578Y-47885463D01*
X153138765Y-48008100D01*
X153181446Y-48099630D01*
X153181448Y-48099634D01*
X153316982Y-48293195D01*
X153316987Y-48293202D01*
X153484078Y-48460293D01*
X153484084Y-48460298D01*
X153669639Y-48590225D01*
X153713264Y-48644802D01*
X153720458Y-48714300D01*
X153688935Y-48776655D01*
X153669639Y-48793375D01*
X153484078Y-48923305D01*
X153316986Y-49090397D01*
X153181446Y-49283969D01*
X153181445Y-49283971D01*
X153081579Y-49498135D01*
X153081575Y-49498144D01*
X153020419Y-49726386D01*
X153020417Y-49726396D01*
X152999822Y-49961799D01*
X152999822Y-49961800D01*
X153020417Y-50197203D01*
X153020419Y-50197213D01*
X153081575Y-50425455D01*
X153081577Y-50425459D01*
X153081578Y-50425463D01*
X153154478Y-50581797D01*
X153181446Y-50639630D01*
X153181448Y-50639634D01*
X153289762Y-50794321D01*
X153316982Y-50833196D01*
X153316987Y-50833202D01*
X153439299Y-50955514D01*
X153472784Y-51016837D01*
X153467800Y-51086529D01*
X153425928Y-51142462D01*
X153394952Y-51159377D01*
X153263393Y-51208446D01*
X153263387Y-51208449D01*
X153148293Y-51294609D01*
X153148290Y-51294612D01*
X153062130Y-51409706D01*
X153062126Y-51409713D01*
X153011884Y-51544420D01*
X153011882Y-51544427D01*
X153005481Y-51603955D01*
X153005481Y-52251800D01*
X153910921Y-52251800D01*
X153880236Y-52304947D01*
X153845481Y-52434657D01*
X153845481Y-52568943D01*
X153880236Y-52698653D01*
X153910921Y-52751800D01*
X153005481Y-52751800D01*
X153005481Y-53399644D01*
X153011882Y-53459172D01*
X153011884Y-53459179D01*
X153062126Y-53593886D01*
X153062130Y-53593893D01*
X153148290Y-53708987D01*
X153148293Y-53708990D01*
X153263387Y-53795150D01*
X153263394Y-53795154D01*
X153394951Y-53844221D01*
X153450884Y-53886092D01*
X153475302Y-53951556D01*
X153460451Y-54019829D01*
X153439300Y-54048084D01*
X153316984Y-54170400D01*
X153181446Y-54363969D01*
X153181445Y-54363971D01*
X153081579Y-54578135D01*
X153081575Y-54578144D01*
X153020419Y-54806386D01*
X153020417Y-54806396D01*
X152999822Y-55041799D01*
X152999822Y-55041800D01*
X153020417Y-55277203D01*
X153020419Y-55277213D01*
X153081575Y-55505455D01*
X153081577Y-55505459D01*
X153081578Y-55505463D01*
X153181446Y-55719630D01*
X153181448Y-55719634D01*
X153316982Y-55913195D01*
X153316987Y-55913202D01*
X153484078Y-56080293D01*
X153484084Y-56080298D01*
X153669639Y-56210225D01*
X153713264Y-56264802D01*
X153720458Y-56334300D01*
X153688935Y-56396655D01*
X153669639Y-56413375D01*
X153484078Y-56543305D01*
X153316986Y-56710397D01*
X153181446Y-56903969D01*
X153181445Y-56903971D01*
X153081579Y-57118135D01*
X153081575Y-57118144D01*
X153020419Y-57346386D01*
X153020417Y-57346396D01*
X152999822Y-57581799D01*
X152999822Y-57581800D01*
X153020417Y-57817203D01*
X153020419Y-57817213D01*
X153081575Y-58045455D01*
X153081577Y-58045459D01*
X153081578Y-58045463D01*
X153181446Y-58259630D01*
X153181448Y-58259634D01*
X153316982Y-58453195D01*
X153316987Y-58453202D01*
X153484078Y-58620293D01*
X153484084Y-58620298D01*
X153669639Y-58750225D01*
X153713264Y-58804802D01*
X153720458Y-58874300D01*
X153688935Y-58936655D01*
X153669639Y-58953375D01*
X153484078Y-59083305D01*
X153316986Y-59250397D01*
X153181446Y-59443969D01*
X153181445Y-59443971D01*
X153081579Y-59658135D01*
X153081575Y-59658144D01*
X153020419Y-59886386D01*
X153020417Y-59886396D01*
X152999822Y-60121799D01*
X152999822Y-60121800D01*
X153020417Y-60357203D01*
X153020419Y-60357213D01*
X153081575Y-60585455D01*
X153081577Y-60585459D01*
X153081578Y-60585463D01*
X153181446Y-60799630D01*
X153181448Y-60799634D01*
X153316982Y-60993195D01*
X153316987Y-60993202D01*
X153484078Y-61160293D01*
X153484084Y-61160298D01*
X153669639Y-61290225D01*
X153713264Y-61344802D01*
X153720458Y-61414300D01*
X153688935Y-61476655D01*
X153669639Y-61493375D01*
X153484078Y-61623305D01*
X153316986Y-61790397D01*
X153181446Y-61983969D01*
X153181445Y-61983971D01*
X153081579Y-62198135D01*
X153081575Y-62198144D01*
X153020419Y-62426386D01*
X153020417Y-62426396D01*
X152999822Y-62661799D01*
X152999822Y-62661800D01*
X153020417Y-62897203D01*
X153020419Y-62897213D01*
X153081575Y-63125455D01*
X153081577Y-63125459D01*
X153081578Y-63125463D01*
X153181446Y-63339630D01*
X153181448Y-63339634D01*
X153289762Y-63494321D01*
X153316982Y-63533196D01*
X153316987Y-63533202D01*
X153439299Y-63655514D01*
X153472784Y-63716837D01*
X153467800Y-63786529D01*
X153425928Y-63842462D01*
X153394952Y-63859377D01*
X153263393Y-63908446D01*
X153263387Y-63908449D01*
X153148293Y-63994609D01*
X153148290Y-63994612D01*
X153062130Y-64109706D01*
X153062126Y-64109713D01*
X153011884Y-64244420D01*
X153011882Y-64244427D01*
X153005481Y-64303955D01*
X153005481Y-64951800D01*
X153910921Y-64951800D01*
X153880236Y-65004947D01*
X153845481Y-65134657D01*
X153845481Y-65268943D01*
X153880236Y-65398653D01*
X153910921Y-65451800D01*
X153005481Y-65451800D01*
X153005481Y-66099644D01*
X153011882Y-66159172D01*
X153011884Y-66159179D01*
X153062126Y-66293886D01*
X153062130Y-66293893D01*
X153148290Y-66408987D01*
X153148293Y-66408990D01*
X153263387Y-66495150D01*
X153263394Y-66495154D01*
X153394951Y-66544221D01*
X153450884Y-66586092D01*
X153475302Y-66651556D01*
X153460451Y-66719829D01*
X153439300Y-66748084D01*
X153316984Y-66870400D01*
X153181446Y-67063969D01*
X153181445Y-67063971D01*
X153081579Y-67278135D01*
X153081575Y-67278144D01*
X153020419Y-67506386D01*
X153020417Y-67506396D01*
X152999822Y-67741799D01*
X152999822Y-67741800D01*
X153020417Y-67977203D01*
X153020419Y-67977213D01*
X153081575Y-68205455D01*
X153081577Y-68205459D01*
X153081578Y-68205463D01*
X153168704Y-68392305D01*
X153181446Y-68419630D01*
X153181448Y-68419634D01*
X153316982Y-68613195D01*
X153316987Y-68613202D01*
X153484078Y-68780293D01*
X153484084Y-68780298D01*
X153669639Y-68910225D01*
X153713264Y-68964802D01*
X153720458Y-69034300D01*
X153688935Y-69096655D01*
X153669639Y-69113375D01*
X153484078Y-69243305D01*
X153316986Y-69410397D01*
X153181446Y-69603969D01*
X153181445Y-69603971D01*
X153081579Y-69818135D01*
X153081575Y-69818144D01*
X153020419Y-70046386D01*
X153020417Y-70046396D01*
X152999822Y-70281799D01*
X152999822Y-70281800D01*
X153020417Y-70517203D01*
X153020419Y-70517213D01*
X153081575Y-70745455D01*
X153081577Y-70745459D01*
X153081578Y-70745463D01*
X153181446Y-70959630D01*
X153181448Y-70959634D01*
X153316982Y-71153195D01*
X153316987Y-71153202D01*
X153484078Y-71320293D01*
X153484084Y-71320298D01*
X153669639Y-71450225D01*
X153713264Y-71504802D01*
X153720458Y-71574300D01*
X153688935Y-71636655D01*
X153669639Y-71653375D01*
X153484078Y-71783305D01*
X153316986Y-71950397D01*
X153181446Y-72143969D01*
X153181445Y-72143971D01*
X153081579Y-72358135D01*
X153081575Y-72358144D01*
X153020419Y-72586386D01*
X153020417Y-72586396D01*
X152999822Y-72821799D01*
X152999822Y-72821800D01*
X153020417Y-73057203D01*
X153020419Y-73057213D01*
X153081575Y-73285455D01*
X153081577Y-73285459D01*
X153081578Y-73285463D01*
X153181446Y-73499630D01*
X153181448Y-73499634D01*
X153316982Y-73693195D01*
X153316987Y-73693202D01*
X153484078Y-73860293D01*
X153484084Y-73860298D01*
X153669639Y-73990225D01*
X153713264Y-74044802D01*
X153720458Y-74114300D01*
X153688935Y-74176655D01*
X153669639Y-74193375D01*
X153484078Y-74323305D01*
X153316986Y-74490397D01*
X153181446Y-74683969D01*
X153181445Y-74683971D01*
X153081579Y-74898135D01*
X153081575Y-74898144D01*
X153020419Y-75126386D01*
X153020417Y-75126396D01*
X152999822Y-75361799D01*
X152999822Y-75361800D01*
X153020417Y-75597203D01*
X153020419Y-75597213D01*
X153081575Y-75825455D01*
X153081577Y-75825459D01*
X153081578Y-75825463D01*
X153181446Y-76039630D01*
X153181448Y-76039634D01*
X153289762Y-76194321D01*
X153316982Y-76233196D01*
X153316987Y-76233202D01*
X153439299Y-76355514D01*
X153472784Y-76416837D01*
X153467800Y-76486529D01*
X153425928Y-76542462D01*
X153394952Y-76559377D01*
X153263393Y-76608446D01*
X153263387Y-76608449D01*
X153148293Y-76694609D01*
X153148290Y-76694612D01*
X153062130Y-76809706D01*
X153062126Y-76809713D01*
X153011884Y-76944420D01*
X153011882Y-76944427D01*
X153005481Y-77003955D01*
X153005481Y-77651800D01*
X153910921Y-77651800D01*
X153880236Y-77704947D01*
X153845481Y-77834657D01*
X153845481Y-77968943D01*
X153880236Y-78098653D01*
X153910921Y-78151800D01*
X153005481Y-78151800D01*
X153005481Y-78799644D01*
X153011882Y-78859172D01*
X153011884Y-78859179D01*
X153062126Y-78993886D01*
X153062130Y-78993893D01*
X153148290Y-79108987D01*
X153148293Y-79108990D01*
X153263387Y-79195150D01*
X153263394Y-79195154D01*
X153394951Y-79244221D01*
X153450884Y-79286092D01*
X153475302Y-79351556D01*
X153460451Y-79419829D01*
X153439300Y-79448084D01*
X153316984Y-79570400D01*
X153181446Y-79763969D01*
X153181445Y-79763971D01*
X153081579Y-79978135D01*
X153081575Y-79978144D01*
X153020419Y-80206386D01*
X153020417Y-80206396D01*
X152999822Y-80441799D01*
X152999822Y-80441800D01*
X153020417Y-80677203D01*
X153020419Y-80677213D01*
X153081575Y-80905455D01*
X153081577Y-80905459D01*
X153081578Y-80905463D01*
X153181446Y-81119630D01*
X153181448Y-81119634D01*
X153316982Y-81313195D01*
X153316987Y-81313202D01*
X153484078Y-81480293D01*
X153484084Y-81480298D01*
X153669639Y-81610225D01*
X153713264Y-81664802D01*
X153720458Y-81734300D01*
X153688935Y-81796655D01*
X153669639Y-81813375D01*
X153484078Y-81943305D01*
X153316986Y-82110397D01*
X153181446Y-82303969D01*
X153181445Y-82303971D01*
X153081579Y-82518135D01*
X153081575Y-82518144D01*
X153020419Y-82746386D01*
X153020417Y-82746396D01*
X152999822Y-82981799D01*
X152999822Y-82981800D01*
X153020417Y-83217203D01*
X153020419Y-83217213D01*
X153081575Y-83445455D01*
X153081577Y-83445459D01*
X153081578Y-83445463D01*
X153181446Y-83659630D01*
X153181448Y-83659634D01*
X153316982Y-83853195D01*
X153316987Y-83853202D01*
X153484078Y-84020293D01*
X153484084Y-84020298D01*
X153669639Y-84150225D01*
X153713264Y-84204802D01*
X153720458Y-84274300D01*
X153688935Y-84336655D01*
X153669639Y-84353375D01*
X153484078Y-84483305D01*
X153316986Y-84650397D01*
X153181446Y-84843969D01*
X153181445Y-84843971D01*
X153081579Y-85058135D01*
X153081575Y-85058144D01*
X153020419Y-85286386D01*
X153020417Y-85286396D01*
X152999822Y-85521799D01*
X152999822Y-85521800D01*
X153020417Y-85757203D01*
X153020419Y-85757213D01*
X153081575Y-85985455D01*
X153081577Y-85985459D01*
X153081578Y-85985463D01*
X153091844Y-86007478D01*
X153181446Y-86199630D01*
X153181448Y-86199634D01*
X153316982Y-86393195D01*
X153316987Y-86393202D01*
X153484078Y-86560293D01*
X153484084Y-86560298D01*
X153669639Y-86690225D01*
X153713264Y-86744802D01*
X153720458Y-86814300D01*
X153688935Y-86876655D01*
X153669639Y-86893375D01*
X153484078Y-87023305D01*
X153316986Y-87190397D01*
X153181446Y-87383969D01*
X153181445Y-87383971D01*
X153081579Y-87598135D01*
X153081575Y-87598144D01*
X153020419Y-87826386D01*
X153020417Y-87826396D01*
X152999822Y-88061799D01*
X152999822Y-88061800D01*
X153020417Y-88297203D01*
X153020419Y-88297213D01*
X153081575Y-88525455D01*
X153081577Y-88525459D01*
X153081578Y-88525463D01*
X153181446Y-88739630D01*
X153181448Y-88739634D01*
X153265459Y-88859613D01*
X153316982Y-88933196D01*
X153316987Y-88933202D01*
X153439299Y-89055514D01*
X153472784Y-89116837D01*
X153467800Y-89186529D01*
X153425928Y-89242462D01*
X153394952Y-89259377D01*
X153263393Y-89308446D01*
X153263387Y-89308449D01*
X153148293Y-89394609D01*
X153148290Y-89394612D01*
X153062130Y-89509706D01*
X153062126Y-89509713D01*
X153011884Y-89644420D01*
X153011882Y-89644427D01*
X153005481Y-89703955D01*
X153005481Y-90351800D01*
X153910921Y-90351800D01*
X153880236Y-90404947D01*
X153845481Y-90534657D01*
X153845481Y-90668943D01*
X153880236Y-90798653D01*
X153910921Y-90851800D01*
X153005481Y-90851800D01*
X153005481Y-91499644D01*
X153011882Y-91559172D01*
X153011884Y-91559179D01*
X153062126Y-91693886D01*
X153062130Y-91693893D01*
X153148290Y-91808987D01*
X153148293Y-91808990D01*
X153263387Y-91895150D01*
X153263394Y-91895154D01*
X153394951Y-91944221D01*
X153450884Y-91986092D01*
X153475302Y-92051556D01*
X153460451Y-92119829D01*
X153439300Y-92148084D01*
X153316984Y-92270400D01*
X153181446Y-92463969D01*
X153181445Y-92463971D01*
X153081579Y-92678135D01*
X153081575Y-92678144D01*
X153020419Y-92906386D01*
X153020417Y-92906396D01*
X152999822Y-93141799D01*
X152999822Y-93141800D01*
X153020417Y-93377203D01*
X153020419Y-93377213D01*
X153081575Y-93605455D01*
X153081577Y-93605459D01*
X153081578Y-93605463D01*
X153181446Y-93819630D01*
X153181448Y-93819634D01*
X153316982Y-94013195D01*
X153316987Y-94013202D01*
X153484078Y-94180293D01*
X153484084Y-94180298D01*
X153669639Y-94310225D01*
X153713264Y-94364802D01*
X153720458Y-94434300D01*
X153688935Y-94496655D01*
X153669639Y-94513375D01*
X153484078Y-94643305D01*
X153316986Y-94810397D01*
X153181446Y-95003969D01*
X153181445Y-95003971D01*
X153081579Y-95218135D01*
X153081575Y-95218144D01*
X153020419Y-95446386D01*
X153020417Y-95446396D01*
X152999822Y-95681799D01*
X152999822Y-95681800D01*
X153020417Y-95917203D01*
X153020419Y-95917213D01*
X153081575Y-96145455D01*
X153081577Y-96145459D01*
X153081578Y-96145463D01*
X153176803Y-96349673D01*
X153181446Y-96359630D01*
X153181448Y-96359634D01*
X153272937Y-96490293D01*
X153316986Y-96553201D01*
X153484080Y-96720295D01*
X153520214Y-96745596D01*
X153677646Y-96855832D01*
X153677648Y-96855833D01*
X153677651Y-96855835D01*
X153891818Y-96955703D01*
X154120073Y-97016863D01*
X154308399Y-97033339D01*
X154355480Y-97037459D01*
X154355481Y-97037459D01*
X154355482Y-97037459D01*
X154394715Y-97034026D01*
X154590889Y-97016863D01*
X154819144Y-96955703D01*
X155033311Y-96855835D01*
X155226882Y-96720295D01*
X155393976Y-96553201D01*
X155529516Y-96359630D01*
X155629384Y-96145463D01*
X155690544Y-95917208D01*
X155711140Y-95681800D01*
X155690544Y-95446392D01*
X155629384Y-95218137D01*
X155529516Y-95003971D01*
X155393976Y-94810399D01*
X155393975Y-94810397D01*
X155226883Y-94643306D01*
X155226877Y-94643301D01*
X155041323Y-94513375D01*
X154997698Y-94458798D01*
X154990504Y-94389300D01*
X155022027Y-94326945D01*
X155041323Y-94310225D01*
X155087678Y-94277767D01*
X155226882Y-94180295D01*
X155393976Y-94013201D01*
X155529516Y-93819630D01*
X155629384Y-93605463D01*
X155690544Y-93377208D01*
X155711140Y-93141800D01*
X155690544Y-92906392D01*
X155629384Y-92678137D01*
X155529516Y-92463971D01*
X155393976Y-92270399D01*
X155271660Y-92148083D01*
X155238177Y-92086763D01*
X155243161Y-92017071D01*
X155285032Y-91961137D01*
X155316010Y-91944222D01*
X155447567Y-91895154D01*
X155447574Y-91895150D01*
X155562668Y-91808990D01*
X155562671Y-91808987D01*
X155648831Y-91693893D01*
X155648835Y-91693886D01*
X155699077Y-91559179D01*
X155699079Y-91559172D01*
X155705480Y-91499644D01*
X155705481Y-91499627D01*
X155705481Y-90851800D01*
X154800041Y-90851800D01*
X154830726Y-90798653D01*
X154865481Y-90668943D01*
X154865481Y-90534657D01*
X154830726Y-90404947D01*
X154800041Y-90351800D01*
X155705481Y-90351800D01*
X155705481Y-89703972D01*
X155705480Y-89703955D01*
X155699079Y-89644427D01*
X155699077Y-89644420D01*
X155648835Y-89509713D01*
X155648831Y-89509706D01*
X155562671Y-89394612D01*
X155562668Y-89394609D01*
X155447574Y-89308449D01*
X155447569Y-89308446D01*
X155316009Y-89259377D01*
X155260076Y-89217505D01*
X155235659Y-89152041D01*
X155250511Y-89083768D01*
X155271656Y-89055520D01*
X155393976Y-88933201D01*
X155529516Y-88739630D01*
X155629384Y-88525463D01*
X155690544Y-88297208D01*
X155711140Y-88061800D01*
X155690544Y-87826392D01*
X155629384Y-87598137D01*
X155529516Y-87383971D01*
X155393976Y-87190399D01*
X155393975Y-87190397D01*
X155226883Y-87023306D01*
X155226877Y-87023301D01*
X155041323Y-86893375D01*
X154997698Y-86838798D01*
X154990504Y-86769300D01*
X155022027Y-86706945D01*
X155041323Y-86690225D01*
X155092506Y-86654386D01*
X155226882Y-86560295D01*
X155393976Y-86393201D01*
X155529516Y-86199630D01*
X155629384Y-85985463D01*
X155690544Y-85757208D01*
X155711140Y-85521800D01*
X155690544Y-85286392D01*
X155629384Y-85058137D01*
X155529516Y-84843971D01*
X155393976Y-84650399D01*
X155393975Y-84650397D01*
X155226883Y-84483306D01*
X155226877Y-84483301D01*
X155041323Y-84353375D01*
X154997698Y-84298798D01*
X154990504Y-84229300D01*
X155022027Y-84166945D01*
X155041323Y-84150225D01*
X155063507Y-84134691D01*
X155226882Y-84020295D01*
X155393976Y-83853201D01*
X155529516Y-83659630D01*
X155629384Y-83445463D01*
X155690544Y-83217208D01*
X155711140Y-82981800D01*
X155690544Y-82746392D01*
X155629384Y-82518137D01*
X155529516Y-82303971D01*
X155393976Y-82110399D01*
X155393975Y-82110397D01*
X155226883Y-81943306D01*
X155226877Y-81943301D01*
X155041323Y-81813375D01*
X154997698Y-81758798D01*
X154990504Y-81689300D01*
X155022027Y-81626945D01*
X155041323Y-81610225D01*
X155063507Y-81594691D01*
X155226882Y-81480295D01*
X155393976Y-81313201D01*
X155529516Y-81119630D01*
X155629384Y-80905463D01*
X155690544Y-80677208D01*
X155711140Y-80441800D01*
X155690544Y-80206392D01*
X155629384Y-79978137D01*
X155529516Y-79763971D01*
X155393976Y-79570399D01*
X155271660Y-79448083D01*
X155238177Y-79386763D01*
X155243161Y-79317071D01*
X155285032Y-79261137D01*
X155316010Y-79244222D01*
X155447567Y-79195154D01*
X155447574Y-79195150D01*
X155562668Y-79108990D01*
X155562671Y-79108987D01*
X155648831Y-78993893D01*
X155648835Y-78993886D01*
X155699077Y-78859179D01*
X155699079Y-78859172D01*
X155705480Y-78799644D01*
X155705481Y-78799627D01*
X155705481Y-78151800D01*
X154800041Y-78151800D01*
X154830726Y-78098653D01*
X154865481Y-77968943D01*
X154865481Y-77834657D01*
X154830726Y-77704947D01*
X154800041Y-77651800D01*
X155705481Y-77651800D01*
X155705481Y-77003972D01*
X155705480Y-77003955D01*
X155699079Y-76944427D01*
X155699077Y-76944420D01*
X155648835Y-76809713D01*
X155648831Y-76809706D01*
X155562671Y-76694612D01*
X155562668Y-76694609D01*
X155447574Y-76608449D01*
X155447569Y-76608446D01*
X155316009Y-76559377D01*
X155260076Y-76517505D01*
X155235659Y-76452041D01*
X155250511Y-76383768D01*
X155271656Y-76355520D01*
X155393976Y-76233201D01*
X155529516Y-76039630D01*
X155629384Y-75825463D01*
X155690544Y-75597208D01*
X155711140Y-75361800D01*
X155690544Y-75126392D01*
X155629384Y-74898137D01*
X155529516Y-74683971D01*
X155393976Y-74490399D01*
X155393975Y-74490397D01*
X155226883Y-74323306D01*
X155226877Y-74323301D01*
X155041323Y-74193375D01*
X154997698Y-74138798D01*
X154990504Y-74069300D01*
X155022027Y-74006945D01*
X155041323Y-73990225D01*
X155063507Y-73974691D01*
X155226882Y-73860295D01*
X155393976Y-73693201D01*
X155529516Y-73499630D01*
X155629384Y-73285463D01*
X155690544Y-73057208D01*
X155711140Y-72821800D01*
X155690544Y-72586392D01*
X155629384Y-72358137D01*
X155529516Y-72143971D01*
X155393976Y-71950399D01*
X155393975Y-71950397D01*
X155226883Y-71783306D01*
X155226877Y-71783301D01*
X155041323Y-71653375D01*
X154997698Y-71598798D01*
X154990504Y-71529300D01*
X155022027Y-71466945D01*
X155041323Y-71450225D01*
X155063507Y-71434691D01*
X155226882Y-71320295D01*
X155393976Y-71153201D01*
X155529516Y-70959630D01*
X155629384Y-70745463D01*
X155690544Y-70517208D01*
X155711140Y-70281800D01*
X155690544Y-70046392D01*
X155629384Y-69818137D01*
X155529516Y-69603971D01*
X155479272Y-69532214D01*
X155393975Y-69410397D01*
X155226883Y-69243306D01*
X155226877Y-69243301D01*
X155041323Y-69113375D01*
X154997698Y-69058798D01*
X154990504Y-68989300D01*
X155022027Y-68926945D01*
X155041323Y-68910225D01*
X155063507Y-68894691D01*
X155226882Y-68780295D01*
X155393976Y-68613201D01*
X155529516Y-68419630D01*
X155629384Y-68205463D01*
X155690544Y-67977208D01*
X155711140Y-67741800D01*
X155690544Y-67506392D01*
X155629384Y-67278137D01*
X155529516Y-67063971D01*
X155462453Y-66968195D01*
X155393977Y-66870400D01*
X155377035Y-66853458D01*
X155271660Y-66748083D01*
X155238177Y-66686763D01*
X155243161Y-66617071D01*
X155285032Y-66561137D01*
X155316010Y-66544222D01*
X155447567Y-66495154D01*
X155447574Y-66495150D01*
X155562668Y-66408990D01*
X155562671Y-66408987D01*
X155648831Y-66293893D01*
X155648835Y-66293886D01*
X155699077Y-66159179D01*
X155699079Y-66159172D01*
X155705480Y-66099644D01*
X155705481Y-66099627D01*
X155705481Y-65451800D01*
X154800041Y-65451800D01*
X154830726Y-65398653D01*
X154865481Y-65268943D01*
X154865481Y-65134657D01*
X154830726Y-65004947D01*
X154800041Y-64951800D01*
X155705481Y-64951800D01*
X155705481Y-64303972D01*
X155705480Y-64303955D01*
X155699079Y-64244427D01*
X155699077Y-64244420D01*
X155648835Y-64109713D01*
X155648831Y-64109706D01*
X155562671Y-63994612D01*
X155562668Y-63994609D01*
X155447574Y-63908449D01*
X155447569Y-63908446D01*
X155316009Y-63859377D01*
X155260076Y-63817505D01*
X155235659Y-63752041D01*
X155250511Y-63683768D01*
X155271656Y-63655520D01*
X155393976Y-63533201D01*
X155529516Y-63339630D01*
X155629384Y-63125463D01*
X155690544Y-62897208D01*
X155711140Y-62661800D01*
X155690544Y-62426392D01*
X155629384Y-62198137D01*
X155529516Y-61983971D01*
X155470563Y-61899776D01*
X155393975Y-61790397D01*
X155226883Y-61623306D01*
X155226877Y-61623301D01*
X155041323Y-61493375D01*
X154997698Y-61438798D01*
X154990504Y-61369300D01*
X155022027Y-61306945D01*
X155041323Y-61290225D01*
X155063507Y-61274691D01*
X155226882Y-61160295D01*
X155393976Y-60993201D01*
X155529516Y-60799630D01*
X155629384Y-60585463D01*
X155690544Y-60357208D01*
X155711140Y-60121800D01*
X155690544Y-59886392D01*
X155629384Y-59658137D01*
X155529516Y-59443971D01*
X155393976Y-59250399D01*
X155393975Y-59250397D01*
X155226883Y-59083306D01*
X155226877Y-59083301D01*
X155041323Y-58953375D01*
X154997698Y-58898798D01*
X154990504Y-58829300D01*
X155022027Y-58766945D01*
X155041323Y-58750225D01*
X155063507Y-58734691D01*
X155226882Y-58620295D01*
X155393976Y-58453201D01*
X155529516Y-58259630D01*
X155629384Y-58045463D01*
X155690544Y-57817208D01*
X155711140Y-57581800D01*
X155690544Y-57346392D01*
X155629384Y-57118137D01*
X155529516Y-56903971D01*
X155499859Y-56861615D01*
X155393975Y-56710397D01*
X155226883Y-56543306D01*
X155226877Y-56543301D01*
X155041323Y-56413375D01*
X154997698Y-56358798D01*
X154990504Y-56289300D01*
X155022027Y-56226945D01*
X155041323Y-56210225D01*
X155063507Y-56194691D01*
X155226882Y-56080295D01*
X155393976Y-55913201D01*
X155529516Y-55719630D01*
X155629384Y-55505463D01*
X155690544Y-55277208D01*
X155711140Y-55041800D01*
X155690544Y-54806392D01*
X155629384Y-54578137D01*
X155529516Y-54363971D01*
X155393976Y-54170399D01*
X155271660Y-54048083D01*
X155238177Y-53986763D01*
X155243161Y-53917071D01*
X155285032Y-53861137D01*
X155316010Y-53844222D01*
X155447567Y-53795154D01*
X155447574Y-53795150D01*
X155562668Y-53708990D01*
X155562671Y-53708987D01*
X155648831Y-53593893D01*
X155648835Y-53593886D01*
X155699077Y-53459179D01*
X155699079Y-53459172D01*
X155705480Y-53399644D01*
X155705481Y-53399627D01*
X155705481Y-52751800D01*
X154800041Y-52751800D01*
X154830726Y-52698653D01*
X154865481Y-52568943D01*
X154865481Y-52434657D01*
X154830726Y-52304947D01*
X154800041Y-52251800D01*
X155705481Y-52251800D01*
X155705481Y-51603972D01*
X155705480Y-51603955D01*
X155699079Y-51544427D01*
X155699077Y-51544420D01*
X155648835Y-51409713D01*
X155648831Y-51409706D01*
X155562671Y-51294612D01*
X155562668Y-51294609D01*
X155447574Y-51208449D01*
X155447569Y-51208446D01*
X155316009Y-51159377D01*
X155260076Y-51117505D01*
X155235659Y-51052041D01*
X155250511Y-50983768D01*
X155271656Y-50955520D01*
X155393976Y-50833201D01*
X155529516Y-50639630D01*
X155629384Y-50425463D01*
X155690544Y-50197208D01*
X155711140Y-49961800D01*
X155690544Y-49726392D01*
X155629384Y-49498137D01*
X155529516Y-49283971D01*
X155393976Y-49090399D01*
X155393975Y-49090397D01*
X155226883Y-48923306D01*
X155226877Y-48923301D01*
X155041323Y-48793375D01*
X154997698Y-48738798D01*
X154990504Y-48669300D01*
X155022027Y-48606945D01*
X155041323Y-48590225D01*
X155063507Y-48574691D01*
X155226882Y-48460295D01*
X155393976Y-48293201D01*
X155529516Y-48099630D01*
X155629384Y-47885463D01*
X155690544Y-47657208D01*
X155711140Y-47421800D01*
X155690544Y-47186392D01*
X155629384Y-46958137D01*
X155529516Y-46743971D01*
X155528040Y-46741862D01*
X155393975Y-46550397D01*
X155226883Y-46383306D01*
X155226876Y-46383301D01*
X155215499Y-46375335D01*
X155098172Y-46293181D01*
X155033315Y-46247767D01*
X155033311Y-46247765D01*
X155033309Y-46247764D01*
X154819144Y-46147897D01*
X154819140Y-46147896D01*
X154819136Y-46147894D01*
X154590894Y-46086738D01*
X154590884Y-46086736D01*
X154355482Y-46066141D01*
X154355480Y-46066141D01*
X154120077Y-46086736D01*
X154120067Y-46086738D01*
X153891825Y-46147894D01*
X153891816Y-46147898D01*
X153677652Y-46247764D01*
X153677650Y-46247765D01*
X153484078Y-46383305D01*
X153316986Y-46550397D01*
X153181446Y-46743969D01*
X153181445Y-46743971D01*
X153081579Y-46958135D01*
X153081575Y-46958144D01*
X153020419Y-47186386D01*
X153020417Y-47186396D01*
X152999822Y-47421799D01*
X149585010Y-47421799D01*
X149576616Y-47320502D01*
X149576614Y-47320491D01*
X149519638Y-47095499D01*
X149426405Y-46882951D01*
X149299464Y-46688652D01*
X149299461Y-46688649D01*
X149299460Y-46688647D01*
X149142265Y-46517887D01*
X149142260Y-46517883D01*
X149142258Y-46517881D01*
X148959115Y-46375335D01*
X148959109Y-46375331D01*
X148754985Y-46264864D01*
X148754976Y-46264861D01*
X148535465Y-46189502D01*
X148363763Y-46160850D01*
X148306530Y-46151300D01*
X148074432Y-46151300D01*
X148028645Y-46158940D01*
X147845496Y-46189502D01*
X147625985Y-46264861D01*
X147625976Y-46264864D01*
X147421852Y-46375331D01*
X147421846Y-46375335D01*
X147238703Y-46517881D01*
X147238700Y-46517884D01*
X147081497Y-46688652D01*
X146954556Y-46882951D01*
X146861323Y-47095499D01*
X146804347Y-47320491D01*
X146804345Y-47320502D01*
X146785181Y-47551793D01*
X144145781Y-47551793D01*
X144126616Y-47320502D01*
X144126614Y-47320491D01*
X144069638Y-47095499D01*
X143976405Y-46882951D01*
X143849464Y-46688652D01*
X143849461Y-46688649D01*
X143849460Y-46688647D01*
X143692265Y-46517887D01*
X143692260Y-46517883D01*
X143692258Y-46517881D01*
X143509115Y-46375335D01*
X143509109Y-46375331D01*
X143304985Y-46264864D01*
X143304976Y-46264861D01*
X143085465Y-46189502D01*
X142913763Y-46160850D01*
X142856530Y-46151300D01*
X142624432Y-46151300D01*
X142578645Y-46158940D01*
X142395496Y-46189502D01*
X142175985Y-46264861D01*
X142175976Y-46264864D01*
X141971852Y-46375331D01*
X141971846Y-46375335D01*
X141788703Y-46517881D01*
X141788700Y-46517884D01*
X141631497Y-46688652D01*
X141504556Y-46882951D01*
X141411323Y-47095499D01*
X141354347Y-47320491D01*
X141354345Y-47320502D01*
X141335181Y-47551793D01*
X137919767Y-47551793D01*
X137931140Y-47421800D01*
X137910544Y-47186392D01*
X137849384Y-46958137D01*
X137749516Y-46743971D01*
X137748040Y-46741862D01*
X137613975Y-46550397D01*
X137446883Y-46383306D01*
X137446876Y-46383301D01*
X137435499Y-46375335D01*
X137318172Y-46293181D01*
X137253315Y-46247767D01*
X137253311Y-46247765D01*
X137253309Y-46247764D01*
X137039144Y-46147897D01*
X137039140Y-46147896D01*
X137039136Y-46147894D01*
X136810894Y-46086738D01*
X136810884Y-46086736D01*
X136575482Y-46066141D01*
X136575480Y-46066141D01*
X136340077Y-46086736D01*
X136340067Y-46086738D01*
X136111825Y-46147894D01*
X136111816Y-46147898D01*
X135897652Y-46247764D01*
X135897650Y-46247765D01*
X135704078Y-46383305D01*
X135536986Y-46550397D01*
X135401446Y-46743969D01*
X135401445Y-46743971D01*
X135301579Y-46958135D01*
X135301575Y-46958144D01*
X135240419Y-47186386D01*
X135240417Y-47186396D01*
X135219822Y-47421799D01*
X133254500Y-47421799D01*
X133254500Y-47216427D01*
X133254816Y-47207581D01*
X133271165Y-46978982D01*
X133273683Y-46961470D01*
X133274408Y-46958137D01*
X133321459Y-46741851D01*
X133326436Y-46724900D01*
X133404985Y-46514299D01*
X133412325Y-46498227D01*
X133520044Y-46300956D01*
X133529600Y-46286086D01*
X133664294Y-46106156D01*
X133675868Y-46092799D01*
X133834799Y-45933868D01*
X133848156Y-45922294D01*
X134028086Y-45787600D01*
X134042956Y-45778044D01*
X134240227Y-45670325D01*
X134256299Y-45662985D01*
X134466900Y-45584436D01*
X134483851Y-45579459D01*
X134703472Y-45531682D01*
X134720977Y-45529165D01*
X134949582Y-45512816D01*
X134958428Y-45512500D01*
X135001595Y-45512500D01*
X155686405Y-45512500D01*
X155729572Y-45512500D01*
X155738418Y-45512816D01*
G37*
%TD.AperFunction*%
%TD*%
M02*
