%TF.GenerationSoftware,KiCad,Pcbnew,8.0.6-8.0.6-0~ubuntu22.04.1*%
%TF.CreationDate,2024-11-07T23:47:04-08:00*%
%TF.ProjectId,gbvideo_breakout,67627669-6465-46f5-9f62-7265616b6f75,rev?*%
%TF.SameCoordinates,Original*%
%TF.FileFunction,Legend,Top*%
%TF.FilePolarity,Positive*%
%FSLAX46Y46*%
G04 Gerber Fmt 4.6, Leading zero omitted, Abs format (unit mm)*
G04 Created by KiCad (PCBNEW 8.0.6-8.0.6-0~ubuntu22.04.1) date 2024-11-07 23:47:04*
%MOMM*%
%LPD*%
G01*
G04 APERTURE LIST*
%ADD10C,0.150000*%
%ADD11C,0.120000*%
%ADD12C,0.200000*%
G04 APERTURE END LIST*
D10*
G36*
X146569653Y-103357669D02*
G01*
X146657580Y-103357669D01*
X146657580Y-103448283D01*
X146657580Y-103539141D01*
X146657580Y-103629755D01*
X146657580Y-103720369D01*
X146569653Y-103720369D01*
X146569653Y-103807564D01*
X146657580Y-103807564D01*
X146657580Y-103894515D01*
X146657580Y-103981709D01*
X146657580Y-104068660D01*
X146657580Y-104155854D01*
X146657580Y-104242805D01*
X146657580Y-104330000D01*
X146569653Y-104330000D01*
X146481726Y-104330000D01*
X146481726Y-104242561D01*
X146481726Y-104154877D01*
X146481726Y-104067438D01*
X146481726Y-103979755D01*
X146481726Y-103892316D01*
X146393798Y-103892316D01*
X146305871Y-103892316D01*
X146217943Y-103892316D01*
X146217943Y-103979755D01*
X146217943Y-104067438D01*
X146217943Y-104154877D01*
X146217943Y-104242561D01*
X146217943Y-104330000D01*
X146130016Y-104330000D01*
X146042089Y-104330000D01*
X146042089Y-104241339D01*
X146042089Y-104152923D01*
X146042089Y-104064263D01*
X146042089Y-103975603D01*
X146042089Y-103887187D01*
X146042089Y-103798527D01*
X146042089Y-103709867D01*
X146042089Y-103621451D01*
X146042089Y-103532791D01*
X146217943Y-103532791D01*
X146217943Y-103626580D01*
X146217943Y-103720369D01*
X146305871Y-103720369D01*
X146393798Y-103720369D01*
X146481726Y-103720369D01*
X146481726Y-103626580D01*
X146481726Y-103532791D01*
X146481726Y-103439002D01*
X146393798Y-103439002D01*
X146305871Y-103439002D01*
X146217943Y-103439002D01*
X146217943Y-103532791D01*
X146042089Y-103532791D01*
X146042089Y-103444131D01*
X146042089Y-103355715D01*
X146042089Y-103267055D01*
X146130016Y-103267055D01*
X146217943Y-103267055D01*
X146305871Y-103267055D01*
X146393798Y-103267055D01*
X146481726Y-103267055D01*
X146569653Y-103267055D01*
X146569653Y-103357669D01*
G37*
G36*
X147269165Y-104330000D02*
G01*
X147181237Y-104330000D01*
X147181237Y-104241339D01*
X147181237Y-104152923D01*
X147181237Y-104064263D01*
X147093310Y-104064263D01*
X147093310Y-103978290D01*
X147093310Y-103892316D01*
X147005382Y-103892316D01*
X147005382Y-103978290D01*
X147005382Y-104064263D01*
X146917455Y-104064263D01*
X146917455Y-104152923D01*
X146917455Y-104241339D01*
X146917455Y-104330000D01*
X146829527Y-104330000D01*
X146741600Y-104330000D01*
X146741600Y-104241339D01*
X146741600Y-104152923D01*
X146741600Y-104064263D01*
X146829527Y-104064263D01*
X146829527Y-103978290D01*
X146829527Y-103892316D01*
X146917455Y-103892316D01*
X146917455Y-103806343D01*
X146917455Y-103720369D01*
X146829527Y-103720369D01*
X146829527Y-103626580D01*
X146829527Y-103532791D01*
X146741600Y-103532791D01*
X146741600Y-103444131D01*
X146741600Y-103355715D01*
X146741600Y-103267055D01*
X146829527Y-103267055D01*
X146917455Y-103267055D01*
X146917455Y-103355715D01*
X146917455Y-103444131D01*
X146917455Y-103532791D01*
X147005382Y-103532791D01*
X147005382Y-103626580D01*
X147005382Y-103720369D01*
X147093310Y-103720369D01*
X147093310Y-103626580D01*
X147093310Y-103532791D01*
X147181237Y-103532791D01*
X147181237Y-103444131D01*
X147181237Y-103355715D01*
X147181237Y-103267055D01*
X147269165Y-103267055D01*
X147357092Y-103267055D01*
X147357092Y-103355715D01*
X147357092Y-103444131D01*
X147357092Y-103532791D01*
X147269165Y-103532791D01*
X147269165Y-103626580D01*
X147269165Y-103720369D01*
X147181237Y-103720369D01*
X147181237Y-103806343D01*
X147181237Y-103892316D01*
X147269165Y-103892316D01*
X147269165Y-103978290D01*
X147269165Y-104064263D01*
X147357092Y-104064263D01*
X147357092Y-104152923D01*
X147357092Y-104241339D01*
X147357092Y-104330000D01*
X147269165Y-104330000D01*
G37*
G36*
X141053176Y-104330000D02*
G01*
X140965248Y-104330000D01*
X140877321Y-104330000D01*
X140789393Y-104330000D01*
X140701466Y-104330000D01*
X140701466Y-104251842D01*
X140613539Y-104251842D01*
X140613539Y-104163182D01*
X140613539Y-104074766D01*
X140613539Y-103986106D01*
X140701466Y-103986106D01*
X140789393Y-103986106D01*
X140789393Y-104072079D01*
X140789393Y-104158053D01*
X140877321Y-104158053D01*
X140965248Y-104158053D01*
X141053176Y-104158053D01*
X141053176Y-104069392D01*
X141053176Y-103980976D01*
X141053176Y-103892316D01*
X140965248Y-103892316D01*
X140877321Y-103892316D01*
X140789393Y-103892316D01*
X140789393Y-103806343D01*
X140789393Y-103720369D01*
X140877321Y-103720369D01*
X140965248Y-103720369D01*
X141053176Y-103720369D01*
X141053176Y-103626580D01*
X141053176Y-103532791D01*
X141053176Y-103439002D01*
X140965248Y-103439002D01*
X140877321Y-103439002D01*
X140789393Y-103439002D01*
X140789393Y-103532791D01*
X140789393Y-103626580D01*
X140701466Y-103626580D01*
X140613539Y-103626580D01*
X140613539Y-103537920D01*
X140613539Y-103449504D01*
X140613539Y-103360844D01*
X140701466Y-103360844D01*
X140701466Y-103267055D01*
X140789393Y-103267055D01*
X140877321Y-103267055D01*
X140965248Y-103267055D01*
X141053176Y-103267055D01*
X141141103Y-103267055D01*
X141141103Y-103360844D01*
X141229030Y-103360844D01*
X141229030Y-103450725D01*
X141229030Y-103540607D01*
X141229030Y-103630488D01*
X141229030Y-103720369D01*
X141141103Y-103720369D01*
X141141103Y-103806343D01*
X141141103Y-103892316D01*
X141229030Y-103892316D01*
X141229030Y-103982198D01*
X141229030Y-104072079D01*
X141229030Y-104161960D01*
X141229030Y-104251842D01*
X141141103Y-104251842D01*
X141141103Y-104330000D01*
X141053176Y-104330000D01*
G37*
G36*
X141488905Y-104330000D02*
G01*
X141400977Y-104330000D01*
X141313050Y-104330000D01*
X141313050Y-104241339D01*
X141313050Y-104152923D01*
X141313050Y-104064263D01*
X141400977Y-104064263D01*
X141488905Y-104064263D01*
X141576832Y-104064263D01*
X141576832Y-104152923D01*
X141576832Y-104241339D01*
X141576832Y-104330000D01*
X141488905Y-104330000D01*
G37*
G36*
X142102443Y-104330000D02*
G01*
X142014515Y-104330000D01*
X141926588Y-104330000D01*
X141838661Y-104330000D01*
X141750733Y-104330000D01*
X141750733Y-104251842D01*
X141662806Y-104251842D01*
X141662806Y-104163182D01*
X141662806Y-104074766D01*
X141662806Y-103986106D01*
X141750733Y-103986106D01*
X141838661Y-103986106D01*
X141838661Y-104072079D01*
X141838661Y-104158053D01*
X141926588Y-104158053D01*
X142014515Y-104158053D01*
X142102443Y-104158053D01*
X142102443Y-104069392D01*
X142102443Y-103980976D01*
X142102443Y-103892316D01*
X142014515Y-103892316D01*
X141926588Y-103892316D01*
X141838661Y-103892316D01*
X141838661Y-103806343D01*
X141838661Y-103720369D01*
X141926588Y-103720369D01*
X142014515Y-103720369D01*
X142102443Y-103720369D01*
X142102443Y-103626580D01*
X142102443Y-103532791D01*
X142102443Y-103439002D01*
X142014515Y-103439002D01*
X141926588Y-103439002D01*
X141838661Y-103439002D01*
X141838661Y-103532791D01*
X141838661Y-103626580D01*
X141750733Y-103626580D01*
X141662806Y-103626580D01*
X141662806Y-103537920D01*
X141662806Y-103449504D01*
X141662806Y-103360844D01*
X141750733Y-103360844D01*
X141750733Y-103267055D01*
X141838661Y-103267055D01*
X141926588Y-103267055D01*
X142014515Y-103267055D01*
X142102443Y-103267055D01*
X142190370Y-103267055D01*
X142190370Y-103360844D01*
X142278298Y-103360844D01*
X142278298Y-103450725D01*
X142278298Y-103540607D01*
X142278298Y-103630488D01*
X142278298Y-103720369D01*
X142190370Y-103720369D01*
X142190370Y-103806343D01*
X142190370Y-103892316D01*
X142278298Y-103892316D01*
X142278298Y-103982198D01*
X142278298Y-104072079D01*
X142278298Y-104161960D01*
X142278298Y-104251842D01*
X142190370Y-104251842D01*
X142190370Y-104330000D01*
X142102443Y-104330000D01*
G37*
G36*
X142714027Y-104330000D02*
G01*
X142626100Y-104330000D01*
X142538172Y-104330000D01*
X142538172Y-104241339D01*
X142538172Y-104152923D01*
X142538172Y-104064263D01*
X142450245Y-104064263D01*
X142450245Y-103975603D01*
X142450245Y-103887187D01*
X142362317Y-103887187D01*
X142362317Y-103798527D01*
X142362317Y-103709867D01*
X142362317Y-103621451D01*
X142362317Y-103532791D01*
X142362317Y-103444131D01*
X142362317Y-103355715D01*
X142362317Y-103267055D01*
X142450245Y-103267055D01*
X142538172Y-103267055D01*
X142538172Y-103354982D01*
X142538172Y-103442909D01*
X142538172Y-103530837D01*
X142538172Y-103618764D01*
X142538172Y-103706692D01*
X142538172Y-103794619D01*
X142626100Y-103794619D01*
X142626100Y-103882547D01*
X142626100Y-103970474D01*
X142714027Y-103970474D01*
X142714027Y-103882547D01*
X142714027Y-103794619D01*
X142801954Y-103794619D01*
X142801954Y-103706692D01*
X142801954Y-103618764D01*
X142801954Y-103530837D01*
X142801954Y-103442909D01*
X142801954Y-103354982D01*
X142801954Y-103267055D01*
X142889882Y-103267055D01*
X142977809Y-103267055D01*
X142977809Y-103355715D01*
X142977809Y-103444131D01*
X142977809Y-103532791D01*
X142977809Y-103621451D01*
X142977809Y-103709867D01*
X142977809Y-103798527D01*
X142977809Y-103887187D01*
X142889882Y-103887187D01*
X142889882Y-103975603D01*
X142889882Y-104064263D01*
X142801954Y-104064263D01*
X142801954Y-104152923D01*
X142801954Y-104241339D01*
X142801954Y-104330000D01*
X142714027Y-104330000D01*
G37*
G36*
X143809834Y-104330000D02*
G01*
X143721907Y-104330000D01*
X143721907Y-104240851D01*
X143721907Y-104151702D01*
X143721907Y-104062798D01*
X143721907Y-103973649D01*
X143721907Y-103884501D01*
X143721907Y-103795352D01*
X143721907Y-103706203D01*
X143721907Y-103617299D01*
X143721907Y-103528150D01*
X143721907Y-103439002D01*
X143633979Y-103439002D01*
X143546052Y-103439002D01*
X143458125Y-103439002D01*
X143458125Y-103353028D01*
X143458125Y-103267055D01*
X143546052Y-103267055D01*
X143633979Y-103267055D01*
X143721907Y-103267055D01*
X143809834Y-103267055D01*
X143897762Y-103267055D01*
X143985689Y-103267055D01*
X144073616Y-103267055D01*
X144161544Y-103267055D01*
X144161544Y-103353028D01*
X144161544Y-103439002D01*
X144073616Y-103439002D01*
X143985689Y-103439002D01*
X143897762Y-103439002D01*
X143897762Y-103528150D01*
X143897762Y-103617299D01*
X143897762Y-103706203D01*
X143897762Y-103795352D01*
X143897762Y-103884501D01*
X143897762Y-103973649D01*
X143897762Y-104062798D01*
X143897762Y-104151702D01*
X143897762Y-104240851D01*
X143897762Y-104330000D01*
X143809834Y-104330000D01*
G37*
G36*
X144773128Y-104330000D02*
G01*
X144685201Y-104330000D01*
X144685201Y-104241339D01*
X144685201Y-104152923D01*
X144685201Y-104064263D01*
X144597273Y-104064263D01*
X144597273Y-103978290D01*
X144597273Y-103892316D01*
X144509346Y-103892316D01*
X144509346Y-103978290D01*
X144509346Y-104064263D01*
X144421418Y-104064263D01*
X144421418Y-104152923D01*
X144421418Y-104241339D01*
X144421418Y-104330000D01*
X144333491Y-104330000D01*
X144245563Y-104330000D01*
X144245563Y-104241339D01*
X144245563Y-104152923D01*
X144245563Y-104064263D01*
X144333491Y-104064263D01*
X144333491Y-103978290D01*
X144333491Y-103892316D01*
X144421418Y-103892316D01*
X144421418Y-103806343D01*
X144421418Y-103720369D01*
X144333491Y-103720369D01*
X144333491Y-103626580D01*
X144333491Y-103532791D01*
X144245563Y-103532791D01*
X144245563Y-103444131D01*
X144245563Y-103355715D01*
X144245563Y-103267055D01*
X144333491Y-103267055D01*
X144421418Y-103267055D01*
X144421418Y-103355715D01*
X144421418Y-103444131D01*
X144421418Y-103532791D01*
X144509346Y-103532791D01*
X144509346Y-103626580D01*
X144509346Y-103720369D01*
X144597273Y-103720369D01*
X144597273Y-103626580D01*
X144597273Y-103532791D01*
X144685201Y-103532791D01*
X144685201Y-103444131D01*
X144685201Y-103355715D01*
X144685201Y-103267055D01*
X144773128Y-103267055D01*
X144861055Y-103267055D01*
X144861055Y-103355715D01*
X144861055Y-103444131D01*
X144861055Y-103532791D01*
X144773128Y-103532791D01*
X144773128Y-103626580D01*
X144773128Y-103720369D01*
X144685201Y-103720369D01*
X144685201Y-103806343D01*
X144685201Y-103892316D01*
X144773128Y-103892316D01*
X144773128Y-103978290D01*
X144773128Y-104064263D01*
X144861055Y-104064263D01*
X144861055Y-104152923D01*
X144861055Y-104241339D01*
X144861055Y-104330000D01*
X144773128Y-104330000D01*
G37*
G36*
X138861726Y-104330000D02*
G01*
X138773798Y-104330000D01*
X138685871Y-104330000D01*
X138597943Y-104330000D01*
X138510016Y-104330000D01*
X138510016Y-104236210D01*
X138422089Y-104236210D01*
X138422089Y-104147550D01*
X138422089Y-104059134D01*
X138422089Y-103970474D01*
X138510016Y-103970474D01*
X138597943Y-103970474D01*
X138597943Y-104064263D01*
X138597943Y-104158053D01*
X138685871Y-104158053D01*
X138773798Y-104158053D01*
X138861726Y-104158053D01*
X138861726Y-104069392D01*
X138861726Y-103980976D01*
X138861726Y-103892316D01*
X138773798Y-103892316D01*
X138685871Y-103892316D01*
X138597943Y-103892316D01*
X138510016Y-103892316D01*
X138422089Y-103892316D01*
X138422089Y-103802923D01*
X138422089Y-103713775D01*
X138422089Y-103624382D01*
X138422089Y-103534989D01*
X138422089Y-103445596D01*
X138422089Y-103356448D01*
X138422089Y-103267055D01*
X138510016Y-103267055D01*
X138597943Y-103267055D01*
X138685871Y-103267055D01*
X138773798Y-103267055D01*
X138861726Y-103267055D01*
X138949653Y-103267055D01*
X139037580Y-103267055D01*
X139037580Y-103353028D01*
X139037580Y-103439002D01*
X138949653Y-103439002D01*
X138861726Y-103439002D01*
X138773798Y-103439002D01*
X138685871Y-103439002D01*
X138597943Y-103439002D01*
X138597943Y-103532791D01*
X138597943Y-103626580D01*
X138597943Y-103720369D01*
X138685871Y-103720369D01*
X138773798Y-103720369D01*
X138861726Y-103720369D01*
X138949653Y-103720369D01*
X138949653Y-103806343D01*
X139037580Y-103806343D01*
X139037580Y-103892316D01*
X139037580Y-103978290D01*
X139037580Y-104064263D01*
X139037580Y-104150237D01*
X139037580Y-104236210D01*
X138949653Y-104236210D01*
X138949653Y-104330000D01*
X138861726Y-104330000D01*
G37*
G36*
X139473310Y-104330000D02*
G01*
X139385382Y-104330000D01*
X139297455Y-104330000D01*
X139297455Y-104241339D01*
X139297455Y-104152923D01*
X139297455Y-104064263D01*
X139209527Y-104064263D01*
X139209527Y-103975603D01*
X139209527Y-103887187D01*
X139121600Y-103887187D01*
X139121600Y-103798527D01*
X139121600Y-103709867D01*
X139121600Y-103621451D01*
X139121600Y-103532791D01*
X139121600Y-103444131D01*
X139121600Y-103355715D01*
X139121600Y-103267055D01*
X139209527Y-103267055D01*
X139297455Y-103267055D01*
X139297455Y-103354982D01*
X139297455Y-103442909D01*
X139297455Y-103530837D01*
X139297455Y-103618764D01*
X139297455Y-103706692D01*
X139297455Y-103794619D01*
X139385382Y-103794619D01*
X139385382Y-103882547D01*
X139385382Y-103970474D01*
X139473310Y-103970474D01*
X139473310Y-103882547D01*
X139473310Y-103794619D01*
X139561237Y-103794619D01*
X139561237Y-103706692D01*
X139561237Y-103618764D01*
X139561237Y-103530837D01*
X139561237Y-103442909D01*
X139561237Y-103354982D01*
X139561237Y-103267055D01*
X139649165Y-103267055D01*
X139737092Y-103267055D01*
X139737092Y-103355715D01*
X139737092Y-103444131D01*
X139737092Y-103532791D01*
X139737092Y-103621451D01*
X139737092Y-103709867D01*
X139737092Y-103798527D01*
X139737092Y-103887187D01*
X139649165Y-103887187D01*
X139649165Y-103975603D01*
X139649165Y-104064263D01*
X139561237Y-104064263D01*
X139561237Y-104152923D01*
X139561237Y-104241339D01*
X139561237Y-104330000D01*
X139473310Y-104330000D01*
G37*
G36*
X148671970Y-104330000D02*
G01*
X148584042Y-104330000D01*
X148496115Y-104330000D01*
X148408187Y-104330000D01*
X148320260Y-104330000D01*
X148320260Y-104236210D01*
X148232333Y-104236210D01*
X148232333Y-104147550D01*
X148232333Y-104059134D01*
X148232333Y-103970474D01*
X148232333Y-103884501D01*
X148232333Y-103798527D01*
X148232333Y-103712554D01*
X148232333Y-103626580D01*
X148232333Y-103537920D01*
X148232333Y-103449504D01*
X148232333Y-103360844D01*
X148320260Y-103360844D01*
X148320260Y-103267055D01*
X148408187Y-103267055D01*
X148496115Y-103267055D01*
X148584042Y-103267055D01*
X148671970Y-103267055D01*
X148759897Y-103267055D01*
X148759897Y-103360844D01*
X148847824Y-103360844D01*
X148847824Y-103449504D01*
X148847824Y-103537920D01*
X148847824Y-103626580D01*
X148759897Y-103626580D01*
X148671970Y-103626580D01*
X148671970Y-103532791D01*
X148671970Y-103439002D01*
X148584042Y-103439002D01*
X148496115Y-103439002D01*
X148408187Y-103439002D01*
X148408187Y-103528883D01*
X148408187Y-103618764D01*
X148408187Y-103708646D01*
X148408187Y-103798527D01*
X148408187Y-103888408D01*
X148408187Y-103978290D01*
X148408187Y-104068171D01*
X148408187Y-104158053D01*
X148496115Y-104158053D01*
X148584042Y-104158053D01*
X148671970Y-104158053D01*
X148671970Y-104064263D01*
X148671970Y-103970474D01*
X148759897Y-103970474D01*
X148847824Y-103970474D01*
X148847824Y-104059134D01*
X148847824Y-104147550D01*
X148847824Y-104236210D01*
X148759897Y-104236210D01*
X148759897Y-104330000D01*
X148671970Y-104330000D01*
G37*
G36*
X149459409Y-104330000D02*
G01*
X149371481Y-104330000D01*
X149283554Y-104330000D01*
X149195626Y-104330000D01*
X149107699Y-104330000D01*
X149019771Y-104330000D01*
X148931844Y-104330000D01*
X148931844Y-104241339D01*
X148931844Y-104152923D01*
X148931844Y-104064263D01*
X148931844Y-103975603D01*
X148931844Y-103887187D01*
X148931844Y-103798527D01*
X148931844Y-103709867D01*
X148931844Y-103621451D01*
X148931844Y-103532791D01*
X148931844Y-103444131D01*
X148931844Y-103355715D01*
X148931844Y-103267055D01*
X149019771Y-103267055D01*
X149107699Y-103267055D01*
X149107699Y-103356203D01*
X149107699Y-103445352D01*
X149107699Y-103534256D01*
X149107699Y-103623405D01*
X149107699Y-103712554D01*
X149107699Y-103801702D01*
X149107699Y-103890851D01*
X149107699Y-103979755D01*
X149107699Y-104068904D01*
X149107699Y-104158053D01*
X149195626Y-104158053D01*
X149283554Y-104158053D01*
X149371481Y-104158053D01*
X149459409Y-104158053D01*
X149547336Y-104158053D01*
X149547336Y-104244026D01*
X149547336Y-104330000D01*
X149459409Y-104330000D01*
G37*
G36*
X150158920Y-104330000D02*
G01*
X150070993Y-104330000D01*
X150070993Y-104241339D01*
X150070993Y-104152923D01*
X149983065Y-104152923D01*
X149983065Y-104064263D01*
X149895138Y-104064263D01*
X149895138Y-103970474D01*
X149807210Y-103970474D01*
X149807210Y-104060355D01*
X149807210Y-104150237D01*
X149807210Y-104240118D01*
X149807210Y-104330000D01*
X149719283Y-104330000D01*
X149631356Y-104330000D01*
X149631356Y-104242561D01*
X149631356Y-104154877D01*
X149631356Y-104067438D01*
X149631356Y-103979755D01*
X149631356Y-103892316D01*
X149631356Y-103804877D01*
X149631356Y-103717194D01*
X149631356Y-103629755D01*
X149631356Y-103542072D01*
X149631356Y-103454633D01*
X149631356Y-103360844D01*
X149631356Y-103267055D01*
X149719283Y-103267055D01*
X149807210Y-103267055D01*
X149807210Y-103360844D01*
X149807210Y-103454633D01*
X149807210Y-103540607D01*
X149807210Y-103626580D01*
X149895138Y-103626580D01*
X149895138Y-103532791D01*
X149983065Y-103532791D01*
X149983065Y-103454633D01*
X150070993Y-103454633D01*
X150070993Y-103360844D01*
X150070993Y-103267055D01*
X150158920Y-103267055D01*
X150246848Y-103267055D01*
X150246848Y-103360844D01*
X150246848Y-103454633D01*
X150246848Y-103532791D01*
X150158920Y-103532791D01*
X150158920Y-103626580D01*
X150070993Y-103626580D01*
X150070993Y-103712554D01*
X149983065Y-103712554D01*
X149983065Y-103798527D01*
X149983065Y-103884501D01*
X150070993Y-103884501D01*
X150070993Y-103970474D01*
X150158920Y-103970474D01*
X150158920Y-104064263D01*
X150246848Y-104064263D01*
X150246848Y-104152923D01*
X150246848Y-104241339D01*
X150246848Y-104330000D01*
X150158920Y-104330000D01*
G37*
G36*
X151346837Y-104330000D02*
G01*
X151258909Y-104330000D01*
X151170982Y-104330000D01*
X151083054Y-104330000D01*
X150995127Y-104330000D01*
X150995127Y-104242561D01*
X150907200Y-104242561D01*
X150907200Y-104154877D01*
X150907200Y-104067438D01*
X150907200Y-103979755D01*
X150907200Y-103892316D01*
X150907200Y-103806343D01*
X150907200Y-103720369D01*
X150907200Y-103626580D01*
X150907200Y-103537920D01*
X150907200Y-103449504D01*
X150907200Y-103360844D01*
X150995127Y-103360844D01*
X150995127Y-103267055D01*
X151083054Y-103267055D01*
X151170982Y-103267055D01*
X151258909Y-103267055D01*
X151346837Y-103267055D01*
X151434764Y-103267055D01*
X151434764Y-103360844D01*
X151522691Y-103360844D01*
X151522691Y-103449504D01*
X151522691Y-103537920D01*
X151522691Y-103626580D01*
X151434764Y-103626580D01*
X151346837Y-103626580D01*
X151346837Y-103532791D01*
X151346837Y-103439002D01*
X151258909Y-103439002D01*
X151170982Y-103439002D01*
X151083054Y-103439002D01*
X151083054Y-103528883D01*
X151083054Y-103618764D01*
X151083054Y-103708646D01*
X151083054Y-103798527D01*
X151083054Y-103888408D01*
X151083054Y-103978290D01*
X151083054Y-104068171D01*
X151083054Y-104158053D01*
X151170982Y-104158053D01*
X151258909Y-104158053D01*
X151346837Y-104158053D01*
X151346837Y-104069392D01*
X151346837Y-103980976D01*
X151346837Y-103892316D01*
X151258909Y-103892316D01*
X151170982Y-103892316D01*
X151170982Y-103806343D01*
X151170982Y-103720369D01*
X151258909Y-103720369D01*
X151346837Y-103720369D01*
X151434764Y-103720369D01*
X151522691Y-103720369D01*
X151522691Y-103807564D01*
X151522691Y-103894515D01*
X151522691Y-103981709D01*
X151522691Y-104068660D01*
X151522691Y-104155854D01*
X151522691Y-104242805D01*
X151434764Y-104242805D01*
X151434764Y-104330000D01*
X151346837Y-104330000D01*
G37*
G36*
X152134276Y-104330000D02*
G01*
X152046348Y-104330000D01*
X152046348Y-104244026D01*
X152046348Y-104158053D01*
X152046348Y-104072079D01*
X152046348Y-103986106D01*
X151958421Y-103986106D01*
X151870493Y-103986106D01*
X151870493Y-103892316D01*
X151870493Y-103798527D01*
X151782566Y-103798527D01*
X151782566Y-103887187D01*
X151782566Y-103975603D01*
X151782566Y-104064263D01*
X151782566Y-104152923D01*
X151782566Y-104241339D01*
X151782566Y-104330000D01*
X151694638Y-104330000D01*
X151606711Y-104330000D01*
X151606711Y-104241339D01*
X151606711Y-104152923D01*
X151606711Y-104064263D01*
X151606711Y-103975603D01*
X151606711Y-103887187D01*
X151606711Y-103798527D01*
X151606711Y-103709867D01*
X151606711Y-103621451D01*
X151606711Y-103532791D01*
X151606711Y-103444131D01*
X151606711Y-103355715D01*
X151606711Y-103267055D01*
X151694638Y-103267055D01*
X151782566Y-103267055D01*
X151782566Y-103355715D01*
X151782566Y-103444131D01*
X151782566Y-103532791D01*
X151870493Y-103532791D01*
X151958421Y-103532791D01*
X151958421Y-103626580D01*
X151958421Y-103720369D01*
X152046348Y-103720369D01*
X152046348Y-103629755D01*
X152046348Y-103539141D01*
X152046348Y-103448283D01*
X152046348Y-103357669D01*
X152046348Y-103267055D01*
X152134276Y-103267055D01*
X152222203Y-103267055D01*
X152222203Y-103355715D01*
X152222203Y-103444131D01*
X152222203Y-103532791D01*
X152222203Y-103621451D01*
X152222203Y-103709867D01*
X152222203Y-103798527D01*
X152222203Y-103887187D01*
X152222203Y-103975603D01*
X152222203Y-104064263D01*
X152222203Y-104152923D01*
X152222203Y-104241339D01*
X152222203Y-104330000D01*
X152134276Y-104330000D01*
G37*
G36*
X152833787Y-103355715D02*
G01*
X152921715Y-103355715D01*
X152921715Y-103444131D01*
X152921715Y-103532791D01*
X152921715Y-103621451D01*
X152921715Y-103709867D01*
X152921715Y-103798527D01*
X152921715Y-103887187D01*
X152921715Y-103975603D01*
X152921715Y-104064263D01*
X152921715Y-104152923D01*
X152921715Y-104241339D01*
X152833787Y-104241339D01*
X152833787Y-104330000D01*
X152745860Y-104330000D01*
X152657932Y-104330000D01*
X152570005Y-104330000D01*
X152482077Y-104330000D01*
X152394150Y-104330000D01*
X152306223Y-104330000D01*
X152306223Y-104241339D01*
X152306223Y-104152923D01*
X152306223Y-104064263D01*
X152306223Y-103975603D01*
X152306223Y-103887187D01*
X152306223Y-103798527D01*
X152306223Y-103709867D01*
X152306223Y-103621451D01*
X152306223Y-103532791D01*
X152306223Y-103528883D01*
X152482077Y-103528883D01*
X152482077Y-103618764D01*
X152482077Y-103708646D01*
X152482077Y-103798527D01*
X152482077Y-103888408D01*
X152482077Y-103978290D01*
X152482077Y-104068171D01*
X152482077Y-104158053D01*
X152570005Y-104158053D01*
X152657932Y-104158053D01*
X152745860Y-104158053D01*
X152745860Y-104068171D01*
X152745860Y-103978290D01*
X152745860Y-103888408D01*
X152745860Y-103798527D01*
X152745860Y-103708646D01*
X152745860Y-103618764D01*
X152745860Y-103528883D01*
X152745860Y-103439002D01*
X152657932Y-103439002D01*
X152570005Y-103439002D01*
X152482077Y-103439002D01*
X152482077Y-103528883D01*
X152306223Y-103528883D01*
X152306223Y-103444131D01*
X152306223Y-103355715D01*
X152306223Y-103267055D01*
X152394150Y-103267055D01*
X152482077Y-103267055D01*
X152570005Y-103267055D01*
X152657932Y-103267055D01*
X152745860Y-103267055D01*
X152833787Y-103267055D01*
X152833787Y-103355715D01*
G37*
X144703576Y-71006619D02*
X144703576Y-71816142D01*
X144703576Y-71816142D02*
X144751195Y-71911380D01*
X144751195Y-71911380D02*
X144798814Y-71959000D01*
X144798814Y-71959000D02*
X144894052Y-72006619D01*
X144894052Y-72006619D02*
X145084528Y-72006619D01*
X145084528Y-72006619D02*
X145179766Y-71959000D01*
X145179766Y-71959000D02*
X145227385Y-71911380D01*
X145227385Y-71911380D02*
X145275004Y-71816142D01*
X145275004Y-71816142D02*
X145275004Y-71006619D01*
X145655957Y-71006619D02*
X146275004Y-71006619D01*
X146275004Y-71006619D02*
X145941671Y-71387571D01*
X145941671Y-71387571D02*
X146084528Y-71387571D01*
X146084528Y-71387571D02*
X146179766Y-71435190D01*
X146179766Y-71435190D02*
X146227385Y-71482809D01*
X146227385Y-71482809D02*
X146275004Y-71578047D01*
X146275004Y-71578047D02*
X146275004Y-71816142D01*
X146275004Y-71816142D02*
X146227385Y-71911380D01*
X146227385Y-71911380D02*
X146179766Y-71959000D01*
X146179766Y-71959000D02*
X146084528Y-72006619D01*
X146084528Y-72006619D02*
X145798814Y-72006619D01*
X145798814Y-72006619D02*
X145703576Y-71959000D01*
X145703576Y-71959000D02*
X145655957Y-71911380D01*
X149370242Y-98076000D02*
X149484528Y-98114095D01*
X149484528Y-98114095D02*
X149675004Y-98114095D01*
X149675004Y-98114095D02*
X149751195Y-98076000D01*
X149751195Y-98076000D02*
X149789290Y-98037904D01*
X149789290Y-98037904D02*
X149827385Y-97961714D01*
X149827385Y-97961714D02*
X149827385Y-97885523D01*
X149827385Y-97885523D02*
X149789290Y-97809333D01*
X149789290Y-97809333D02*
X149751195Y-97771238D01*
X149751195Y-97771238D02*
X149675004Y-97733142D01*
X149675004Y-97733142D02*
X149522623Y-97695047D01*
X149522623Y-97695047D02*
X149446433Y-97656952D01*
X149446433Y-97656952D02*
X149408338Y-97618857D01*
X149408338Y-97618857D02*
X149370242Y-97542666D01*
X149370242Y-97542666D02*
X149370242Y-97466476D01*
X149370242Y-97466476D02*
X149408338Y-97390285D01*
X149408338Y-97390285D02*
X149446433Y-97352190D01*
X149446433Y-97352190D02*
X149522623Y-97314095D01*
X149522623Y-97314095D02*
X149713100Y-97314095D01*
X149713100Y-97314095D02*
X149827385Y-97352190D01*
X150094052Y-97314095D02*
X150284528Y-98114095D01*
X150284528Y-98114095D02*
X150436909Y-97542666D01*
X150436909Y-97542666D02*
X150589290Y-98114095D01*
X150589290Y-98114095D02*
X150779767Y-97314095D01*
X151084529Y-98114095D02*
X151084529Y-97314095D01*
X151084529Y-97314095D02*
X151275005Y-97314095D01*
X151275005Y-97314095D02*
X151389291Y-97352190D01*
X151389291Y-97352190D02*
X151465481Y-97428380D01*
X151465481Y-97428380D02*
X151503576Y-97504571D01*
X151503576Y-97504571D02*
X151541672Y-97656952D01*
X151541672Y-97656952D02*
X151541672Y-97771238D01*
X151541672Y-97771238D02*
X151503576Y-97923619D01*
X151503576Y-97923619D02*
X151465481Y-97999809D01*
X151465481Y-97999809D02*
X151389291Y-98076000D01*
X151389291Y-98076000D02*
X151275005Y-98114095D01*
X151275005Y-98114095D02*
X151084529Y-98114095D01*
X151884529Y-98114095D02*
X151884529Y-97314095D01*
X152417862Y-97314095D02*
X152570243Y-97314095D01*
X152570243Y-97314095D02*
X152646433Y-97352190D01*
X152646433Y-97352190D02*
X152722624Y-97428380D01*
X152722624Y-97428380D02*
X152760719Y-97580761D01*
X152760719Y-97580761D02*
X152760719Y-97847428D01*
X152760719Y-97847428D02*
X152722624Y-97999809D01*
X152722624Y-97999809D02*
X152646433Y-98076000D01*
X152646433Y-98076000D02*
X152570243Y-98114095D01*
X152570243Y-98114095D02*
X152417862Y-98114095D01*
X152417862Y-98114095D02*
X152341671Y-98076000D01*
X152341671Y-98076000D02*
X152265481Y-97999809D01*
X152265481Y-97999809D02*
X152227385Y-97847428D01*
X152227385Y-97847428D02*
X152227385Y-97580761D01*
X152227385Y-97580761D02*
X152265481Y-97428380D01*
X152265481Y-97428380D02*
X152341671Y-97352190D01*
X152341671Y-97352190D02*
X152417862Y-97314095D01*
X137955956Y-98076000D02*
X138070242Y-98114095D01*
X138070242Y-98114095D02*
X138260718Y-98114095D01*
X138260718Y-98114095D02*
X138336909Y-98076000D01*
X138336909Y-98076000D02*
X138375004Y-98037904D01*
X138375004Y-98037904D02*
X138413099Y-97961714D01*
X138413099Y-97961714D02*
X138413099Y-97885523D01*
X138413099Y-97885523D02*
X138375004Y-97809333D01*
X138375004Y-97809333D02*
X138336909Y-97771238D01*
X138336909Y-97771238D02*
X138260718Y-97733142D01*
X138260718Y-97733142D02*
X138108337Y-97695047D01*
X138108337Y-97695047D02*
X138032147Y-97656952D01*
X138032147Y-97656952D02*
X137994052Y-97618857D01*
X137994052Y-97618857D02*
X137955956Y-97542666D01*
X137955956Y-97542666D02*
X137955956Y-97466476D01*
X137955956Y-97466476D02*
X137994052Y-97390285D01*
X137994052Y-97390285D02*
X138032147Y-97352190D01*
X138032147Y-97352190D02*
X138108337Y-97314095D01*
X138108337Y-97314095D02*
X138298814Y-97314095D01*
X138298814Y-97314095D02*
X138413099Y-97352190D01*
X138679766Y-97314095D02*
X138870242Y-98114095D01*
X138870242Y-98114095D02*
X139022623Y-97542666D01*
X139022623Y-97542666D02*
X139175004Y-98114095D01*
X139175004Y-98114095D02*
X139365481Y-97314095D01*
X140127386Y-98037904D02*
X140089290Y-98076000D01*
X140089290Y-98076000D02*
X139975005Y-98114095D01*
X139975005Y-98114095D02*
X139898814Y-98114095D01*
X139898814Y-98114095D02*
X139784528Y-98076000D01*
X139784528Y-98076000D02*
X139708338Y-97999809D01*
X139708338Y-97999809D02*
X139670243Y-97923619D01*
X139670243Y-97923619D02*
X139632147Y-97771238D01*
X139632147Y-97771238D02*
X139632147Y-97656952D01*
X139632147Y-97656952D02*
X139670243Y-97504571D01*
X139670243Y-97504571D02*
X139708338Y-97428380D01*
X139708338Y-97428380D02*
X139784528Y-97352190D01*
X139784528Y-97352190D02*
X139898814Y-97314095D01*
X139898814Y-97314095D02*
X139975005Y-97314095D01*
X139975005Y-97314095D02*
X140089290Y-97352190D01*
X140089290Y-97352190D02*
X140127386Y-97390285D01*
X140851195Y-98114095D02*
X140470243Y-98114095D01*
X140470243Y-98114095D02*
X140470243Y-97314095D01*
X141117862Y-98114095D02*
X141117862Y-97314095D01*
X141575005Y-98114095D02*
X141232147Y-97656952D01*
X141575005Y-97314095D02*
X141117862Y-97771238D01*
X138870833Y-106654819D02*
X138537500Y-106178628D01*
X138299405Y-106654819D02*
X138299405Y-105654819D01*
X138299405Y-105654819D02*
X138680357Y-105654819D01*
X138680357Y-105654819D02*
X138775595Y-105702438D01*
X138775595Y-105702438D02*
X138823214Y-105750057D01*
X138823214Y-105750057D02*
X138870833Y-105845295D01*
X138870833Y-105845295D02*
X138870833Y-105988152D01*
X138870833Y-105988152D02*
X138823214Y-106083390D01*
X138823214Y-106083390D02*
X138775595Y-106131009D01*
X138775595Y-106131009D02*
X138680357Y-106178628D01*
X138680357Y-106178628D02*
X138299405Y-106178628D01*
X139204167Y-105654819D02*
X139823214Y-105654819D01*
X139823214Y-105654819D02*
X139489881Y-106035771D01*
X139489881Y-106035771D02*
X139632738Y-106035771D01*
X139632738Y-106035771D02*
X139727976Y-106083390D01*
X139727976Y-106083390D02*
X139775595Y-106131009D01*
X139775595Y-106131009D02*
X139823214Y-106226247D01*
X139823214Y-106226247D02*
X139823214Y-106464342D01*
X139823214Y-106464342D02*
X139775595Y-106559580D01*
X139775595Y-106559580D02*
X139727976Y-106607200D01*
X139727976Y-106607200D02*
X139632738Y-106654819D01*
X139632738Y-106654819D02*
X139347024Y-106654819D01*
X139347024Y-106654819D02*
X139251786Y-106607200D01*
X139251786Y-106607200D02*
X139204167Y-106559580D01*
X135049580Y-107950666D02*
X135097200Y-107998285D01*
X135097200Y-107998285D02*
X135144819Y-108141142D01*
X135144819Y-108141142D02*
X135144819Y-108236380D01*
X135144819Y-108236380D02*
X135097200Y-108379237D01*
X135097200Y-108379237D02*
X135001961Y-108474475D01*
X135001961Y-108474475D02*
X134906723Y-108522094D01*
X134906723Y-108522094D02*
X134716247Y-108569713D01*
X134716247Y-108569713D02*
X134573390Y-108569713D01*
X134573390Y-108569713D02*
X134382914Y-108522094D01*
X134382914Y-108522094D02*
X134287676Y-108474475D01*
X134287676Y-108474475D02*
X134192438Y-108379237D01*
X134192438Y-108379237D02*
X134144819Y-108236380D01*
X134144819Y-108236380D02*
X134144819Y-108141142D01*
X134144819Y-108141142D02*
X134192438Y-107998285D01*
X134192438Y-107998285D02*
X134240057Y-107950666D01*
X135144819Y-106998285D02*
X135144819Y-107569713D01*
X135144819Y-107283999D02*
X134144819Y-107283999D01*
X134144819Y-107283999D02*
X134287676Y-107379237D01*
X134287676Y-107379237D02*
X134382914Y-107474475D01*
X134382914Y-107474475D02*
X134430533Y-107569713D01*
X134959580Y-114185866D02*
X135007200Y-114233485D01*
X135007200Y-114233485D02*
X135054819Y-114376342D01*
X135054819Y-114376342D02*
X135054819Y-114471580D01*
X135054819Y-114471580D02*
X135007200Y-114614437D01*
X135007200Y-114614437D02*
X134911961Y-114709675D01*
X134911961Y-114709675D02*
X134816723Y-114757294D01*
X134816723Y-114757294D02*
X134626247Y-114804913D01*
X134626247Y-114804913D02*
X134483390Y-114804913D01*
X134483390Y-114804913D02*
X134292914Y-114757294D01*
X134292914Y-114757294D02*
X134197676Y-114709675D01*
X134197676Y-114709675D02*
X134102438Y-114614437D01*
X134102438Y-114614437D02*
X134054819Y-114471580D01*
X134054819Y-114471580D02*
X134054819Y-114376342D01*
X134054819Y-114376342D02*
X134102438Y-114233485D01*
X134102438Y-114233485D02*
X134150057Y-114185866D01*
X134150057Y-113804913D02*
X134102438Y-113757294D01*
X134102438Y-113757294D02*
X134054819Y-113662056D01*
X134054819Y-113662056D02*
X134054819Y-113423961D01*
X134054819Y-113423961D02*
X134102438Y-113328723D01*
X134102438Y-113328723D02*
X134150057Y-113281104D01*
X134150057Y-113281104D02*
X134245295Y-113233485D01*
X134245295Y-113233485D02*
X134340533Y-113233485D01*
X134340533Y-113233485D02*
X134483390Y-113281104D01*
X134483390Y-113281104D02*
X135054819Y-113852532D01*
X135054819Y-113852532D02*
X135054819Y-113233485D01*
X149433333Y-117154819D02*
X149100000Y-116678628D01*
X148861905Y-117154819D02*
X148861905Y-116154819D01*
X148861905Y-116154819D02*
X149242857Y-116154819D01*
X149242857Y-116154819D02*
X149338095Y-116202438D01*
X149338095Y-116202438D02*
X149385714Y-116250057D01*
X149385714Y-116250057D02*
X149433333Y-116345295D01*
X149433333Y-116345295D02*
X149433333Y-116488152D01*
X149433333Y-116488152D02*
X149385714Y-116583390D01*
X149385714Y-116583390D02*
X149338095Y-116631009D01*
X149338095Y-116631009D02*
X149242857Y-116678628D01*
X149242857Y-116678628D02*
X148861905Y-116678628D01*
X150338095Y-116154819D02*
X149861905Y-116154819D01*
X149861905Y-116154819D02*
X149814286Y-116631009D01*
X149814286Y-116631009D02*
X149861905Y-116583390D01*
X149861905Y-116583390D02*
X149957143Y-116535771D01*
X149957143Y-116535771D02*
X150195238Y-116535771D01*
X150195238Y-116535771D02*
X150290476Y-116583390D01*
X150290476Y-116583390D02*
X150338095Y-116631009D01*
X150338095Y-116631009D02*
X150385714Y-116726247D01*
X150385714Y-116726247D02*
X150385714Y-116964342D01*
X150385714Y-116964342D02*
X150338095Y-117059580D01*
X150338095Y-117059580D02*
X150290476Y-117107200D01*
X150290476Y-117107200D02*
X150195238Y-117154819D01*
X150195238Y-117154819D02*
X149957143Y-117154819D01*
X149957143Y-117154819D02*
X149861905Y-117107200D01*
X149861905Y-117107200D02*
X149814286Y-117059580D01*
X150533333Y-106354819D02*
X150200000Y-105878628D01*
X149961905Y-106354819D02*
X149961905Y-105354819D01*
X149961905Y-105354819D02*
X150342857Y-105354819D01*
X150342857Y-105354819D02*
X150438095Y-105402438D01*
X150438095Y-105402438D02*
X150485714Y-105450057D01*
X150485714Y-105450057D02*
X150533333Y-105545295D01*
X150533333Y-105545295D02*
X150533333Y-105688152D01*
X150533333Y-105688152D02*
X150485714Y-105783390D01*
X150485714Y-105783390D02*
X150438095Y-105831009D01*
X150438095Y-105831009D02*
X150342857Y-105878628D01*
X150342857Y-105878628D02*
X149961905Y-105878628D01*
X151485714Y-106354819D02*
X150914286Y-106354819D01*
X151200000Y-106354819D02*
X151200000Y-105354819D01*
X151200000Y-105354819D02*
X151104762Y-105497676D01*
X151104762Y-105497676D02*
X151009524Y-105592914D01*
X151009524Y-105592914D02*
X150914286Y-105640533D01*
X139090733Y-116049019D02*
X138757400Y-115572828D01*
X138519305Y-116049019D02*
X138519305Y-115049019D01*
X138519305Y-115049019D02*
X138900257Y-115049019D01*
X138900257Y-115049019D02*
X138995495Y-115096638D01*
X138995495Y-115096638D02*
X139043114Y-115144257D01*
X139043114Y-115144257D02*
X139090733Y-115239495D01*
X139090733Y-115239495D02*
X139090733Y-115382352D01*
X139090733Y-115382352D02*
X139043114Y-115477590D01*
X139043114Y-115477590D02*
X138995495Y-115525209D01*
X138995495Y-115525209D02*
X138900257Y-115572828D01*
X138900257Y-115572828D02*
X138519305Y-115572828D01*
X139947876Y-115382352D02*
X139947876Y-116049019D01*
X139709781Y-115001400D02*
X139471686Y-115715685D01*
X139471686Y-115715685D02*
X140090733Y-115715685D01*
D11*
%TO.C,U3*%
X155965481Y-86651800D02*
X155965481Y-87051800D01*
X134965481Y-53551800D02*
X134965481Y-53951800D01*
X155965481Y-46051800D02*
X155965481Y-46351800D01*
X134965481Y-73851800D02*
X134965481Y-74251800D01*
X155965481Y-53551800D02*
X155965481Y-53951800D01*
X155965481Y-84051800D02*
X155965481Y-84451800D01*
X155965481Y-91651800D02*
X155965481Y-92051800D01*
X134965481Y-46051800D02*
X134965481Y-46351800D01*
X155965481Y-63751800D02*
X155965481Y-64151800D01*
X155965481Y-89151800D02*
X155965481Y-89551800D01*
X155965481Y-61151800D02*
X155965481Y-61551800D01*
X155965481Y-78951800D02*
X155965481Y-79351800D01*
X134965481Y-84051800D02*
X134965481Y-84451800D01*
X134965481Y-89151800D02*
X134965481Y-89551800D01*
X134965481Y-71351800D02*
X134965481Y-71751800D01*
X134965481Y-61151800D02*
X134965481Y-61551800D01*
X155965481Y-73851800D02*
X155965481Y-74251800D01*
X134965481Y-81551800D02*
X134965481Y-81951800D01*
X155965481Y-58651800D02*
X155965481Y-59051800D01*
X146565481Y-97051800D02*
X146965481Y-97051800D01*
X134965481Y-86651800D02*
X134965481Y-87051800D01*
X155965481Y-51051800D02*
X155965481Y-51451800D01*
X134965481Y-58651800D02*
X134965481Y-59051800D01*
X143965481Y-97051800D02*
X144365481Y-97051800D01*
X134965481Y-76451800D02*
X134965481Y-76851800D01*
X134965481Y-63751800D02*
X134965481Y-64151800D01*
X134965481Y-48718800D02*
X137972481Y-48718800D01*
X134965481Y-78951800D02*
X134965481Y-79351800D01*
X155965481Y-56151800D02*
X155965481Y-56551800D01*
X155965481Y-97051800D02*
X149165481Y-97051800D01*
X155965481Y-68851800D02*
X155965481Y-69251800D01*
X134965481Y-66251800D02*
X134965481Y-66651800D01*
X134965481Y-56151800D02*
X134965481Y-56551800D01*
X134965481Y-94251800D02*
X134965481Y-94651800D01*
X134965481Y-68851800D02*
X134965481Y-69251800D01*
X134965481Y-91651800D02*
X134965481Y-92051800D01*
X134965481Y-46051800D02*
X155965481Y-46051800D01*
X155965481Y-66251800D02*
X155965481Y-66651800D01*
X137972481Y-48718800D02*
X137972481Y-46051800D01*
X155965481Y-48451800D02*
X155965481Y-48851800D01*
X155965481Y-94251800D02*
X155965481Y-94651800D01*
X155965481Y-71351800D02*
X155965481Y-71751800D01*
X141765481Y-97051800D02*
X134965481Y-97051800D01*
X155965481Y-81551800D02*
X155965481Y-81951800D01*
X134965481Y-51051800D02*
X134965481Y-51451800D01*
X134965481Y-48451800D02*
X134965481Y-48851800D01*
X155965481Y-76451800D02*
X155965481Y-76851800D01*
D12*
%TO.C,U2*%
X145500000Y-109250000D02*
X145500000Y-108050000D01*
%TO.C,U1*%
X144500000Y-106150000D02*
X144500000Y-107350000D01*
D11*
%TO.C,Q1*%
X151960000Y-108310833D02*
X151630000Y-108070833D01*
X151960000Y-107830833D01*
X151960000Y-108310833D01*
G36*
X151960000Y-108310833D02*
G01*
X151630000Y-108070833D01*
X151960000Y-107830833D01*
X151960000Y-108310833D01*
G37*
X151680000Y-109233333D02*
X151680000Y-109883333D01*
X151680000Y-109233333D02*
X151680000Y-108583333D01*
X148560000Y-109233333D02*
X148560000Y-109883333D01*
X148560000Y-109233333D02*
X148560000Y-108583333D01*
%TO.C,LED_3V3*%
X141485000Y-111265000D02*
X137600000Y-111265000D01*
X141485000Y-113535000D02*
X141485000Y-111265000D01*
X137600000Y-113535000D02*
X141485000Y-113535000D01*
%TO.C,LED_5V1*%
X141485000Y-110335000D02*
X141485000Y-108065000D01*
X141485000Y-108065000D02*
X137600000Y-108065000D01*
X137600000Y-110335000D02*
X141485000Y-110335000D01*
%TO.C,R3*%
X139764564Y-107110000D02*
X138310436Y-107110000D01*
X139764564Y-105290000D02*
X138310436Y-105290000D01*
%TO.C,C1*%
X133780000Y-107072748D02*
X133780000Y-108495252D01*
X135600000Y-107072748D02*
X135600000Y-108495252D01*
%TO.C,C2*%
X135510000Y-114736252D02*
X135510000Y-113313748D01*
X133690000Y-114736252D02*
X133690000Y-113313748D01*
%TO.C,J1*%
X137791600Y-102528000D02*
X137791600Y-101198000D01*
X139121600Y-102528000D02*
X137791600Y-102528000D01*
X140391600Y-99868000D02*
X153151600Y-99868000D01*
X140391600Y-102528000D02*
X140391600Y-99868000D01*
X140391600Y-102528000D02*
X153151600Y-102528000D01*
X153151600Y-102528000D02*
X153151600Y-99868000D01*
%TO.C,R5*%
X148872936Y-117610000D02*
X150327064Y-117610000D01*
X148872936Y-115790000D02*
X150327064Y-115790000D01*
%TO.C,R1*%
X151427064Y-106810000D02*
X149972936Y-106810000D01*
X151427064Y-104990000D02*
X149972936Y-104990000D01*
%TO.C,R4*%
X140027064Y-114690000D02*
X138572936Y-114690000D01*
X140027064Y-116510000D02*
X138572936Y-116510000D01*
%TO.C,Q2*%
X148590000Y-114362500D02*
X148260000Y-114602500D01*
X148260000Y-114122500D01*
X148590000Y-114362500D01*
G36*
X148590000Y-114362500D02*
G01*
X148260000Y-114602500D01*
X148260000Y-114122500D01*
X148590000Y-114362500D01*
G37*
X151660000Y-113200000D02*
X151660000Y-113850000D01*
X151660000Y-113200000D02*
X151660000Y-112550000D01*
X148540000Y-113200000D02*
X148540000Y-113850000D01*
X148540000Y-113200000D02*
X148540000Y-112550000D01*
%TD*%
M02*
