%TF.GenerationSoftware,KiCad,Pcbnew,8.0.6-8.0.6-0~ubuntu22.04.1*%
%TF.CreationDate,2024-11-07T23:46:59-08:00*%
%TF.ProjectId,gbvideo_breakout,67627669-6465-46f5-9f62-7265616b6f75,rev?*%
%TF.SameCoordinates,Original*%
%TF.FileFunction,Drillmap*%
%TF.FilePolarity,Positive*%
%FSLAX45Y45*%
G04 Gerber Fmt 4.5, Leading zero omitted, Abs format (unit mm)*
G04 Created by KiCad (PCBNEW 8.0.6-8.0.6-0~ubuntu22.04.1) date 2024-11-07 23:46:59*
%MOMM*%
%LPD*%
G01*
G04 APERTURE LIST*
%ADD10C,0.100000*%
%ADD11C,0.200000*%
%ADD12C,0.102000*%
%ADD13C,0.300000*%
G04 APERTURE END LIST*
D10*
X15773400Y-12068200D02*
G75*
G02*
X15573400Y-12268200I-200000J0D01*
G01*
X15573400Y-4521200D02*
G75*
G02*
X15773400Y-4721200I0J-200000D01*
G01*
X13295400Y-4721200D02*
G75*
G02*
X13495400Y-4521200I200000J0D01*
G01*
X13495400Y-12268200D02*
G75*
G02*
X13295400Y-12068200I0J200000D01*
G01*
X13495400Y-4521200D02*
X15573400Y-4521200D01*
X13495400Y-12268200D02*
X14184400Y-12268200D01*
X15773400Y-12068200D02*
X15773400Y-4721200D01*
X14884400Y-12268200D02*
X15573400Y-12268200D01*
X14284400Y-12868200D02*
G75*
G02*
X14234400Y-12818200I0J50000D01*
G01*
X14284400Y-12868200D02*
X14784400Y-12868200D01*
X14184400Y-12268200D02*
G75*
G02*
X14234400Y-12318200I0J-50000D01*
G01*
X14834400Y-12818200D02*
X14834400Y-12318200D01*
X14834400Y-12818200D02*
G75*
G02*
X14784400Y-12868200I-50000J0D01*
G01*
X14234400Y-12818200D02*
X14234400Y-12318200D01*
X14834400Y-12318200D02*
G75*
G02*
X14884400Y-12268200I50000J0D01*
G01*
X13295400Y-12068200D02*
X13295400Y-4721200D01*
D11*
D10*
X13390000Y-9850000D02*
X13430000Y-9890000D01*
X13430000Y-9850000D02*
X13390000Y-9890000D01*
X13400000Y-10250000D02*
X13440000Y-10290000D01*
X13440000Y-10250000D02*
X13400000Y-10290000D01*
X13450000Y-10780000D02*
X13490000Y-10820000D01*
X13490000Y-10780000D02*
X13450000Y-10820000D01*
X13610000Y-11070000D02*
X13650000Y-11110000D01*
X13650000Y-11070000D02*
X13610000Y-11110000D01*
X13620000Y-10590000D02*
X13660000Y-10630000D01*
X13660000Y-10590000D02*
X13620000Y-10630000D01*
X13620000Y-11550000D02*
X13660000Y-11590000D01*
X13660000Y-11550000D02*
X13620000Y-11590000D01*
X13760000Y-10410000D02*
X13800000Y-10450000D01*
X13800000Y-10410000D02*
X13760000Y-10450000D01*
X13790000Y-6670000D02*
X13830000Y-6710000D01*
X13830000Y-6670000D02*
X13790000Y-6710000D01*
X13790000Y-7780000D02*
X13830000Y-7820000D01*
X13830000Y-7780000D02*
X13790000Y-7820000D01*
X13790000Y-8640000D02*
X13830000Y-8680000D01*
X13830000Y-8640000D02*
X13790000Y-8680000D01*
X13790000Y-9050000D02*
X13830000Y-9090000D01*
X13830000Y-9050000D02*
X13790000Y-9090000D01*
X13800000Y-9430000D02*
X13840000Y-9470000D01*
X13840000Y-9430000D02*
X13800000Y-9470000D01*
X13830000Y-5940000D02*
X13870000Y-5980000D01*
X13870000Y-5940000D02*
X13830000Y-5980000D01*
X13900000Y-10890000D02*
X13940000Y-10930000D01*
X13940000Y-10890000D02*
X13900000Y-10930000D01*
X13910000Y-11380000D02*
X13950000Y-11420000D01*
X13950000Y-11380000D02*
X13910000Y-11420000D01*
X13950000Y-6500000D02*
X13990000Y-6540000D01*
X13990000Y-6500000D02*
X13950000Y-6540000D01*
X13960000Y-4710000D02*
X14000000Y-4750000D01*
X14000000Y-4710000D02*
X13960000Y-4750000D01*
X13960000Y-5250000D02*
X14000000Y-5290000D01*
X14000000Y-5250000D02*
X13960000Y-5290000D01*
X13970000Y-5510000D02*
X14010000Y-5550000D01*
X14010000Y-5510000D02*
X13970000Y-5550000D01*
X13970000Y-11820000D02*
X14010000Y-11860000D01*
X14010000Y-11820000D02*
X13970000Y-11860000D01*
X13980000Y-12090000D02*
X14020000Y-12130000D01*
X14020000Y-12090000D02*
X13980000Y-12130000D01*
X14000000Y-10370000D02*
X14040000Y-10410000D01*
X14040000Y-10370000D02*
X14000000Y-10410000D01*
X14080000Y-6880000D02*
X14120000Y-6920000D01*
X14120000Y-6880000D02*
X14080000Y-6920000D01*
X14150000Y-6300000D02*
X14190000Y-6340000D01*
X14190000Y-6300000D02*
X14150000Y-6340000D01*
X14160000Y-6800000D02*
X14200000Y-6840000D01*
X14200000Y-6800000D02*
X14160000Y-6840000D01*
X14200000Y-10470000D02*
X14240000Y-10510000D01*
X14240000Y-10470000D02*
X14200000Y-10510000D01*
X14360000Y-6640000D02*
X14400000Y-6680000D01*
X14400000Y-6640000D02*
X14360000Y-6680000D01*
X14420000Y-10510000D02*
X14460000Y-10550000D01*
X14460000Y-10510000D02*
X14420000Y-10550000D01*
X14430000Y-11240000D02*
X14470000Y-11280000D01*
X14470000Y-11240000D02*
X14430000Y-11280000D01*
X14440000Y-6010000D02*
X14480000Y-6050000D01*
X14480000Y-6010000D02*
X14440000Y-6050000D01*
X14440000Y-11550000D02*
X14480000Y-11590000D01*
X14480000Y-11550000D02*
X14440000Y-11590000D01*
X14440000Y-11870000D02*
X14480000Y-11910000D01*
X14480000Y-11870000D02*
X14440000Y-11910000D01*
X14480000Y-10670000D02*
X14520000Y-10710000D01*
X14520000Y-10670000D02*
X14480000Y-10710000D01*
X14520000Y-12120000D02*
X14560000Y-12160000D01*
X14560000Y-12120000D02*
X14520000Y-12160000D01*
X14530000Y-10990000D02*
X14570000Y-11030000D01*
X14570000Y-10990000D02*
X14530000Y-11030000D01*
X14570000Y-6450000D02*
X14610000Y-6490000D01*
X14610000Y-6450000D02*
X14570000Y-6490000D01*
X14590000Y-7740000D02*
X14630000Y-7780000D01*
X14630000Y-7740000D02*
X14590000Y-7780000D01*
X14590000Y-8360000D02*
X14630000Y-8400000D01*
X14630000Y-8360000D02*
X14590000Y-8400000D01*
X14590000Y-10510000D02*
X14630000Y-10550000D01*
X14630000Y-10510000D02*
X14590000Y-10550000D01*
X14600000Y-6800000D02*
X14640000Y-6840000D01*
X14640000Y-6800000D02*
X14600000Y-6840000D01*
X14680000Y-5440000D02*
X14720000Y-5480000D01*
X14720000Y-5440000D02*
X14680000Y-5480000D01*
X14730000Y-5710000D02*
X14770000Y-5750000D01*
X14770000Y-5710000D02*
X14730000Y-5750000D01*
X14760000Y-11320000D02*
X14800000Y-11360000D01*
X14800000Y-11320000D02*
X14760000Y-11360000D01*
X14770000Y-11080000D02*
X14810000Y-11120000D01*
X14810000Y-11080000D02*
X14770000Y-11120000D01*
X14790000Y-12070000D02*
X14830000Y-12110000D01*
X14830000Y-12070000D02*
X14790000Y-12110000D01*
X14870000Y-6140000D02*
X14910000Y-6180000D01*
X14910000Y-6140000D02*
X14870000Y-6180000D01*
X15040000Y-10440000D02*
X15080000Y-10480000D01*
X15080000Y-10440000D02*
X15040000Y-10480000D01*
X15080000Y-5900000D02*
X15120000Y-5940000D01*
X15120000Y-5900000D02*
X15080000Y-5940000D01*
X15090000Y-12090000D02*
X15130000Y-12130000D01*
X15130000Y-12090000D02*
X15090000Y-12130000D01*
X15100000Y-6330000D02*
X15140000Y-6370000D01*
X15140000Y-6330000D02*
X15100000Y-6370000D01*
X15100000Y-6520000D02*
X15140000Y-6560000D01*
X15140000Y-6520000D02*
X15100000Y-6560000D01*
X15100000Y-7120000D02*
X15140000Y-7160000D01*
X15140000Y-7120000D02*
X15100000Y-7160000D01*
X15100000Y-7760000D02*
X15140000Y-7800000D01*
X15140000Y-7760000D02*
X15100000Y-7800000D01*
X15100000Y-8020000D02*
X15140000Y-8060000D01*
X15140000Y-8020000D02*
X15100000Y-8060000D01*
X15120000Y-4710000D02*
X15160000Y-4750000D01*
X15160000Y-4710000D02*
X15120000Y-4750000D01*
X15120000Y-8770000D02*
X15160000Y-8810000D01*
X15160000Y-8770000D02*
X15120000Y-8810000D01*
X15130000Y-9430000D02*
X15170000Y-9470000D01*
X15170000Y-9430000D02*
X15130000Y-9470000D01*
X15150000Y-9050000D02*
X15190000Y-9090000D01*
X15190000Y-9050000D02*
X15150000Y-9090000D01*
X15220000Y-5560000D02*
X15260000Y-5600000D01*
X15260000Y-5560000D02*
X15220000Y-5600000D01*
X15230000Y-5110000D02*
X15270000Y-5150000D01*
X15270000Y-5110000D02*
X15230000Y-5150000D01*
X15230000Y-5360000D02*
X15270000Y-5400000D01*
X15270000Y-5360000D02*
X15230000Y-5400000D01*
X15320000Y-11040000D02*
X15360000Y-11080000D01*
X15360000Y-11040000D02*
X15320000Y-11080000D01*
X15320000Y-11550000D02*
X15360000Y-11590000D01*
X15360000Y-11550000D02*
X15320000Y-11590000D01*
X15340000Y-10480000D02*
X15380000Y-10520000D01*
X15380000Y-10480000D02*
X15340000Y-10520000D01*
X15610000Y-9950000D02*
X15650000Y-9990000D01*
X15650000Y-9950000D02*
X15610000Y-9990000D01*
X15610000Y-10480000D02*
X15650000Y-10520000D01*
X15650000Y-10480000D02*
X15610000Y-10520000D01*
X15610000Y-11050000D02*
X15650000Y-11090000D01*
X15650000Y-11050000D02*
X15610000Y-11090000D01*
X15620000Y-11550000D02*
X15660000Y-11590000D01*
X15660000Y-11550000D02*
X15620000Y-11590000D01*
X13962160Y-10119800D02*
G75*
G02*
X13862160Y-10119800I-50000J0D01*
G01*
X13862160Y-10119800D02*
G75*
G02*
X13962160Y-10119800I50000J0D01*
G01*
X14216160Y-10119800D02*
G75*
G02*
X14116160Y-10119800I-50000J0D01*
G01*
X14116160Y-10119800D02*
G75*
G02*
X14216160Y-10119800I50000J0D01*
G01*
X14470160Y-10119800D02*
G75*
G02*
X14370160Y-10119800I-50000J0D01*
G01*
X14370160Y-10119800D02*
G75*
G02*
X14470160Y-10119800I50000J0D01*
G01*
X14724160Y-10119800D02*
G75*
G02*
X14624160Y-10119800I-50000J0D01*
G01*
X14624160Y-10119800D02*
G75*
G02*
X14724160Y-10119800I50000J0D01*
G01*
X14978160Y-10119800D02*
G75*
G02*
X14878160Y-10119800I-50000J0D01*
G01*
X14878160Y-10119800D02*
G75*
G02*
X14978160Y-10119800I50000J0D01*
G01*
X15232160Y-10119800D02*
G75*
G02*
X15132160Y-10119800I-50000J0D01*
G01*
X15132160Y-10119800D02*
G75*
G02*
X15232160Y-10119800I50000J0D01*
G01*
D12*
X13657548Y-4691180D02*
X13657548Y-4793180D01*
X13606548Y-4742180D02*
X13708548Y-4742180D01*
X13657548Y-4945180D02*
X13657548Y-5047180D01*
X13606548Y-4996180D02*
X13708548Y-4996180D01*
X13657548Y-5199180D02*
X13657548Y-5301180D01*
X13606548Y-5250180D02*
X13708548Y-5250180D01*
X13657548Y-5453180D02*
X13657548Y-5555180D01*
X13606548Y-5504180D02*
X13708548Y-5504180D01*
X13657548Y-5707180D02*
X13657548Y-5809180D01*
X13606548Y-5758180D02*
X13708548Y-5758180D01*
X13657548Y-5961180D02*
X13657548Y-6063180D01*
X13606548Y-6012180D02*
X13708548Y-6012180D01*
X13657548Y-6215180D02*
X13657548Y-6317180D01*
X13606548Y-6266180D02*
X13708548Y-6266180D01*
X13657548Y-6469180D02*
X13657548Y-6571180D01*
X13606548Y-6520180D02*
X13708548Y-6520180D01*
X13657548Y-6723180D02*
X13657548Y-6825180D01*
X13606548Y-6774180D02*
X13708548Y-6774180D01*
X13657548Y-6977180D02*
X13657548Y-7079180D01*
X13606548Y-7028180D02*
X13708548Y-7028180D01*
X13657548Y-7231180D02*
X13657548Y-7333180D01*
X13606548Y-7282180D02*
X13708548Y-7282180D01*
X13657548Y-7485180D02*
X13657548Y-7587180D01*
X13606548Y-7536180D02*
X13708548Y-7536180D01*
X13657548Y-7739180D02*
X13657548Y-7841180D01*
X13606548Y-7790180D02*
X13708548Y-7790180D01*
X13657548Y-7993180D02*
X13657548Y-8095180D01*
X13606548Y-8044180D02*
X13708548Y-8044180D01*
X13657548Y-8247180D02*
X13657548Y-8349180D01*
X13606548Y-8298180D02*
X13708548Y-8298180D01*
X13657548Y-8501180D02*
X13657548Y-8603180D01*
X13606548Y-8552180D02*
X13708548Y-8552180D01*
X13657548Y-8755180D02*
X13657548Y-8857180D01*
X13606548Y-8806180D02*
X13708548Y-8806180D01*
X13657548Y-9009180D02*
X13657548Y-9111180D01*
X13606548Y-9060180D02*
X13708548Y-9060180D01*
X13657548Y-9263180D02*
X13657548Y-9365180D01*
X13606548Y-9314180D02*
X13708548Y-9314180D01*
X13657548Y-9517180D02*
X13657548Y-9619180D01*
X13606548Y-9568180D02*
X13708548Y-9568180D01*
X14292548Y-9494180D02*
X14292548Y-9596180D01*
X14241548Y-9545180D02*
X14343548Y-9545180D01*
X14546548Y-9494180D02*
X14546548Y-9596180D01*
X14495548Y-9545180D02*
X14597548Y-9545180D01*
X14800548Y-9494180D02*
X14800548Y-9596180D01*
X14749548Y-9545180D02*
X14851548Y-9545180D01*
X15435548Y-4691180D02*
X15435548Y-4793180D01*
X15384548Y-4742180D02*
X15486548Y-4742180D01*
X15435548Y-4945180D02*
X15435548Y-5047180D01*
X15384548Y-4996180D02*
X15486548Y-4996180D01*
X15435548Y-5199180D02*
X15435548Y-5301180D01*
X15384548Y-5250180D02*
X15486548Y-5250180D01*
X15435548Y-5453180D02*
X15435548Y-5555180D01*
X15384548Y-5504180D02*
X15486548Y-5504180D01*
X15435548Y-5707180D02*
X15435548Y-5809180D01*
X15384548Y-5758180D02*
X15486548Y-5758180D01*
X15435548Y-5961180D02*
X15435548Y-6063180D01*
X15384548Y-6012180D02*
X15486548Y-6012180D01*
X15435548Y-6215180D02*
X15435548Y-6317180D01*
X15384548Y-6266180D02*
X15486548Y-6266180D01*
X15435548Y-6469180D02*
X15435548Y-6571180D01*
X15384548Y-6520180D02*
X15486548Y-6520180D01*
X15435548Y-6723180D02*
X15435548Y-6825180D01*
X15384548Y-6774180D02*
X15486548Y-6774180D01*
X15435548Y-6977180D02*
X15435548Y-7079180D01*
X15384548Y-7028180D02*
X15486548Y-7028180D01*
X15435548Y-7231180D02*
X15435548Y-7333180D01*
X15384548Y-7282180D02*
X15486548Y-7282180D01*
X15435548Y-7485180D02*
X15435548Y-7587180D01*
X15384548Y-7536180D02*
X15486548Y-7536180D01*
X15435548Y-7739180D02*
X15435548Y-7841180D01*
X15384548Y-7790180D02*
X15486548Y-7790180D01*
X15435548Y-7993180D02*
X15435548Y-8095180D01*
X15384548Y-8044180D02*
X15486548Y-8044180D01*
X15435548Y-8247180D02*
X15435548Y-8349180D01*
X15384548Y-8298180D02*
X15486548Y-8298180D01*
X15435548Y-8501180D02*
X15435548Y-8603180D01*
X15384548Y-8552180D02*
X15486548Y-8552180D01*
X15435548Y-8755180D02*
X15435548Y-8857180D01*
X15384548Y-8806180D02*
X15486548Y-8806180D01*
X15435548Y-9009180D02*
X15435548Y-9111180D01*
X15384548Y-9060180D02*
X15486548Y-9060180D01*
X15435548Y-9263180D02*
X15435548Y-9365180D01*
X15384548Y-9314180D02*
X15486548Y-9314180D01*
X15435548Y-9517180D02*
X15435548Y-9619180D01*
X15384548Y-9568180D02*
X15486548Y-9568180D01*
D13*
X13731067Y-12043067D02*
X13731067Y-11830933D01*
X13518933Y-11830933D01*
X13518933Y-12043067D01*
X13731067Y-12043067D01*
X14640467Y-8881767D02*
X14640467Y-8669633D01*
X14428333Y-8669633D01*
X14428333Y-8881767D01*
X14640467Y-8881767D01*
X15551067Y-12041067D02*
X15551067Y-11828933D01*
X15338933Y-11828933D01*
X15338933Y-12041067D01*
X15551067Y-12041067D01*
D11*
X13551177Y-13184684D02*
X13551177Y-12984684D01*
X13551177Y-12984684D02*
X13598796Y-12984684D01*
X13598796Y-12984684D02*
X13627367Y-12994208D01*
X13627367Y-12994208D02*
X13646415Y-13013255D01*
X13646415Y-13013255D02*
X13655939Y-13032303D01*
X13655939Y-13032303D02*
X13665462Y-13070398D01*
X13665462Y-13070398D02*
X13665462Y-13098969D01*
X13665462Y-13098969D02*
X13655939Y-13137065D01*
X13655939Y-13137065D02*
X13646415Y-13156112D01*
X13646415Y-13156112D02*
X13627367Y-13175160D01*
X13627367Y-13175160D02*
X13598796Y-13184684D01*
X13598796Y-13184684D02*
X13551177Y-13184684D01*
X13751177Y-13184684D02*
X13751177Y-13051350D01*
X13751177Y-13089446D02*
X13760701Y-13070398D01*
X13760701Y-13070398D02*
X13770224Y-13060874D01*
X13770224Y-13060874D02*
X13789272Y-13051350D01*
X13789272Y-13051350D02*
X13808320Y-13051350D01*
X13874986Y-13184684D02*
X13874986Y-13051350D01*
X13874986Y-12984684D02*
X13865462Y-12994208D01*
X13865462Y-12994208D02*
X13874986Y-13003731D01*
X13874986Y-13003731D02*
X13884510Y-12994208D01*
X13884510Y-12994208D02*
X13874986Y-12984684D01*
X13874986Y-12984684D02*
X13874986Y-13003731D01*
X13998796Y-13184684D02*
X13979748Y-13175160D01*
X13979748Y-13175160D02*
X13970224Y-13156112D01*
X13970224Y-13156112D02*
X13970224Y-12984684D01*
X14103558Y-13184684D02*
X14084510Y-13175160D01*
X14084510Y-13175160D02*
X14074986Y-13156112D01*
X14074986Y-13156112D02*
X14074986Y-12984684D01*
X14332129Y-13184684D02*
X14332129Y-12984684D01*
X14332129Y-12984684D02*
X14398796Y-13127541D01*
X14398796Y-13127541D02*
X14465462Y-12984684D01*
X14465462Y-12984684D02*
X14465462Y-13184684D01*
X14646415Y-13184684D02*
X14646415Y-13079922D01*
X14646415Y-13079922D02*
X14636891Y-13060874D01*
X14636891Y-13060874D02*
X14617843Y-13051350D01*
X14617843Y-13051350D02*
X14579748Y-13051350D01*
X14579748Y-13051350D02*
X14560701Y-13060874D01*
X14646415Y-13175160D02*
X14627367Y-13184684D01*
X14627367Y-13184684D02*
X14579748Y-13184684D01*
X14579748Y-13184684D02*
X14560701Y-13175160D01*
X14560701Y-13175160D02*
X14551177Y-13156112D01*
X14551177Y-13156112D02*
X14551177Y-13137065D01*
X14551177Y-13137065D02*
X14560701Y-13118017D01*
X14560701Y-13118017D02*
X14579748Y-13108493D01*
X14579748Y-13108493D02*
X14627367Y-13108493D01*
X14627367Y-13108493D02*
X14646415Y-13098969D01*
X14741653Y-13051350D02*
X14741653Y-13251350D01*
X14741653Y-13060874D02*
X14760701Y-13051350D01*
X14760701Y-13051350D02*
X14798796Y-13051350D01*
X14798796Y-13051350D02*
X14817843Y-13060874D01*
X14817843Y-13060874D02*
X14827367Y-13070398D01*
X14827367Y-13070398D02*
X14836891Y-13089446D01*
X14836891Y-13089446D02*
X14836891Y-13146588D01*
X14836891Y-13146588D02*
X14827367Y-13165636D01*
X14827367Y-13165636D02*
X14817843Y-13175160D01*
X14817843Y-13175160D02*
X14798796Y-13184684D01*
X14798796Y-13184684D02*
X14760701Y-13184684D01*
X14760701Y-13184684D02*
X14741653Y-13175160D01*
X14922605Y-13165636D02*
X14932129Y-13175160D01*
X14932129Y-13175160D02*
X14922605Y-13184684D01*
X14922605Y-13184684D02*
X14913082Y-13175160D01*
X14913082Y-13175160D02*
X14922605Y-13165636D01*
X14922605Y-13165636D02*
X14922605Y-13184684D01*
X14922605Y-13060874D02*
X14932129Y-13070398D01*
X14932129Y-13070398D02*
X14922605Y-13079922D01*
X14922605Y-13079922D02*
X14913082Y-13070398D01*
X14913082Y-13070398D02*
X14922605Y-13060874D01*
X14922605Y-13060874D02*
X14922605Y-13079922D01*
D10*
X13250400Y-13493200D02*
X13290400Y-13533200D01*
X13290400Y-13493200D02*
X13250400Y-13533200D01*
D11*
X13589272Y-13404684D02*
X13608320Y-13404684D01*
X13608320Y-13404684D02*
X13627367Y-13414208D01*
X13627367Y-13414208D02*
X13636891Y-13423731D01*
X13636891Y-13423731D02*
X13646415Y-13442779D01*
X13646415Y-13442779D02*
X13655939Y-13480874D01*
X13655939Y-13480874D02*
X13655939Y-13528493D01*
X13655939Y-13528493D02*
X13646415Y-13566588D01*
X13646415Y-13566588D02*
X13636891Y-13585636D01*
X13636891Y-13585636D02*
X13627367Y-13595160D01*
X13627367Y-13595160D02*
X13608320Y-13604684D01*
X13608320Y-13604684D02*
X13589272Y-13604684D01*
X13589272Y-13604684D02*
X13570224Y-13595160D01*
X13570224Y-13595160D02*
X13560701Y-13585636D01*
X13560701Y-13585636D02*
X13551177Y-13566588D01*
X13551177Y-13566588D02*
X13541653Y-13528493D01*
X13541653Y-13528493D02*
X13541653Y-13480874D01*
X13541653Y-13480874D02*
X13551177Y-13442779D01*
X13551177Y-13442779D02*
X13560701Y-13423731D01*
X13560701Y-13423731D02*
X13570224Y-13414208D01*
X13570224Y-13414208D02*
X13589272Y-13404684D01*
X13741653Y-13585636D02*
X13751177Y-13595160D01*
X13751177Y-13595160D02*
X13741653Y-13604684D01*
X13741653Y-13604684D02*
X13732129Y-13595160D01*
X13732129Y-13595160D02*
X13741653Y-13585636D01*
X13741653Y-13585636D02*
X13741653Y-13604684D01*
X13922605Y-13471350D02*
X13922605Y-13604684D01*
X13874986Y-13395160D02*
X13827367Y-13538017D01*
X13827367Y-13538017D02*
X13951177Y-13538017D01*
X14065462Y-13404684D02*
X14084510Y-13404684D01*
X14084510Y-13404684D02*
X14103558Y-13414208D01*
X14103558Y-13414208D02*
X14113082Y-13423731D01*
X14113082Y-13423731D02*
X14122605Y-13442779D01*
X14122605Y-13442779D02*
X14132129Y-13480874D01*
X14132129Y-13480874D02*
X14132129Y-13528493D01*
X14132129Y-13528493D02*
X14122605Y-13566588D01*
X14122605Y-13566588D02*
X14113082Y-13585636D01*
X14113082Y-13585636D02*
X14103558Y-13595160D01*
X14103558Y-13595160D02*
X14084510Y-13604684D01*
X14084510Y-13604684D02*
X14065462Y-13604684D01*
X14065462Y-13604684D02*
X14046415Y-13595160D01*
X14046415Y-13595160D02*
X14036891Y-13585636D01*
X14036891Y-13585636D02*
X14027367Y-13566588D01*
X14027367Y-13566588D02*
X14017843Y-13528493D01*
X14017843Y-13528493D02*
X14017843Y-13480874D01*
X14017843Y-13480874D02*
X14027367Y-13442779D01*
X14027367Y-13442779D02*
X14036891Y-13423731D01*
X14036891Y-13423731D02*
X14046415Y-13414208D01*
X14046415Y-13414208D02*
X14065462Y-13404684D01*
X14255939Y-13404684D02*
X14274986Y-13404684D01*
X14274986Y-13404684D02*
X14294034Y-13414208D01*
X14294034Y-13414208D02*
X14303558Y-13423731D01*
X14303558Y-13423731D02*
X14313082Y-13442779D01*
X14313082Y-13442779D02*
X14322605Y-13480874D01*
X14322605Y-13480874D02*
X14322605Y-13528493D01*
X14322605Y-13528493D02*
X14313082Y-13566588D01*
X14313082Y-13566588D02*
X14303558Y-13585636D01*
X14303558Y-13585636D02*
X14294034Y-13595160D01*
X14294034Y-13595160D02*
X14274986Y-13604684D01*
X14274986Y-13604684D02*
X14255939Y-13604684D01*
X14255939Y-13604684D02*
X14236891Y-13595160D01*
X14236891Y-13595160D02*
X14227367Y-13585636D01*
X14227367Y-13585636D02*
X14217843Y-13566588D01*
X14217843Y-13566588D02*
X14208320Y-13528493D01*
X14208320Y-13528493D02*
X14208320Y-13480874D01*
X14208320Y-13480874D02*
X14217843Y-13442779D01*
X14217843Y-13442779D02*
X14227367Y-13423731D01*
X14227367Y-13423731D02*
X14236891Y-13414208D01*
X14236891Y-13414208D02*
X14255939Y-13404684D01*
X14408320Y-13604684D02*
X14408320Y-13471350D01*
X14408320Y-13490398D02*
X14417843Y-13480874D01*
X14417843Y-13480874D02*
X14436891Y-13471350D01*
X14436891Y-13471350D02*
X14465463Y-13471350D01*
X14465463Y-13471350D02*
X14484510Y-13480874D01*
X14484510Y-13480874D02*
X14494034Y-13499922D01*
X14494034Y-13499922D02*
X14494034Y-13604684D01*
X14494034Y-13499922D02*
X14503558Y-13480874D01*
X14503558Y-13480874D02*
X14522605Y-13471350D01*
X14522605Y-13471350D02*
X14551177Y-13471350D01*
X14551177Y-13471350D02*
X14570224Y-13480874D01*
X14570224Y-13480874D02*
X14579748Y-13499922D01*
X14579748Y-13499922D02*
X14579748Y-13604684D01*
X14674986Y-13604684D02*
X14674986Y-13471350D01*
X14674986Y-13490398D02*
X14684510Y-13480874D01*
X14684510Y-13480874D02*
X14703558Y-13471350D01*
X14703558Y-13471350D02*
X14732129Y-13471350D01*
X14732129Y-13471350D02*
X14751177Y-13480874D01*
X14751177Y-13480874D02*
X14760701Y-13499922D01*
X14760701Y-13499922D02*
X14760701Y-13604684D01*
X14760701Y-13499922D02*
X14770224Y-13480874D01*
X14770224Y-13480874D02*
X14789272Y-13471350D01*
X14789272Y-13471350D02*
X14817843Y-13471350D01*
X14817843Y-13471350D02*
X14836891Y-13480874D01*
X14836891Y-13480874D02*
X14846415Y-13499922D01*
X14846415Y-13499922D02*
X14846415Y-13604684D01*
X15236891Y-13395160D02*
X15065463Y-13652303D01*
X15494034Y-13404684D02*
X15513082Y-13404684D01*
X15513082Y-13404684D02*
X15532129Y-13414208D01*
X15532129Y-13414208D02*
X15541653Y-13423731D01*
X15541653Y-13423731D02*
X15551177Y-13442779D01*
X15551177Y-13442779D02*
X15560701Y-13480874D01*
X15560701Y-13480874D02*
X15560701Y-13528493D01*
X15560701Y-13528493D02*
X15551177Y-13566588D01*
X15551177Y-13566588D02*
X15541653Y-13585636D01*
X15541653Y-13585636D02*
X15532129Y-13595160D01*
X15532129Y-13595160D02*
X15513082Y-13604684D01*
X15513082Y-13604684D02*
X15494034Y-13604684D01*
X15494034Y-13604684D02*
X15474986Y-13595160D01*
X15474986Y-13595160D02*
X15465463Y-13585636D01*
X15465463Y-13585636D02*
X15455939Y-13566588D01*
X15455939Y-13566588D02*
X15446415Y-13528493D01*
X15446415Y-13528493D02*
X15446415Y-13480874D01*
X15446415Y-13480874D02*
X15455939Y-13442779D01*
X15455939Y-13442779D02*
X15465463Y-13423731D01*
X15465463Y-13423731D02*
X15474986Y-13414208D01*
X15474986Y-13414208D02*
X15494034Y-13404684D01*
X15646415Y-13585636D02*
X15655939Y-13595160D01*
X15655939Y-13595160D02*
X15646415Y-13604684D01*
X15646415Y-13604684D02*
X15636891Y-13595160D01*
X15636891Y-13595160D02*
X15646415Y-13585636D01*
X15646415Y-13585636D02*
X15646415Y-13604684D01*
X15779748Y-13404684D02*
X15798796Y-13404684D01*
X15798796Y-13404684D02*
X15817844Y-13414208D01*
X15817844Y-13414208D02*
X15827367Y-13423731D01*
X15827367Y-13423731D02*
X15836891Y-13442779D01*
X15836891Y-13442779D02*
X15846415Y-13480874D01*
X15846415Y-13480874D02*
X15846415Y-13528493D01*
X15846415Y-13528493D02*
X15836891Y-13566588D01*
X15836891Y-13566588D02*
X15827367Y-13585636D01*
X15827367Y-13585636D02*
X15817844Y-13595160D01*
X15817844Y-13595160D02*
X15798796Y-13604684D01*
X15798796Y-13604684D02*
X15779748Y-13604684D01*
X15779748Y-13604684D02*
X15760701Y-13595160D01*
X15760701Y-13595160D02*
X15751177Y-13585636D01*
X15751177Y-13585636D02*
X15741653Y-13566588D01*
X15741653Y-13566588D02*
X15732129Y-13528493D01*
X15732129Y-13528493D02*
X15732129Y-13480874D01*
X15732129Y-13480874D02*
X15741653Y-13442779D01*
X15741653Y-13442779D02*
X15751177Y-13423731D01*
X15751177Y-13423731D02*
X15760701Y-13414208D01*
X15760701Y-13414208D02*
X15779748Y-13404684D01*
X16036891Y-13604684D02*
X15922606Y-13604684D01*
X15979748Y-13604684D02*
X15979748Y-13404684D01*
X15979748Y-13404684D02*
X15960701Y-13433255D01*
X15960701Y-13433255D02*
X15941653Y-13452303D01*
X15941653Y-13452303D02*
X15922606Y-13461827D01*
X16217844Y-13404684D02*
X16122606Y-13404684D01*
X16122606Y-13404684D02*
X16113082Y-13499922D01*
X16113082Y-13499922D02*
X16122606Y-13490398D01*
X16122606Y-13490398D02*
X16141653Y-13480874D01*
X16141653Y-13480874D02*
X16189272Y-13480874D01*
X16189272Y-13480874D02*
X16208320Y-13490398D01*
X16208320Y-13490398D02*
X16217844Y-13499922D01*
X16217844Y-13499922D02*
X16227367Y-13518969D01*
X16227367Y-13518969D02*
X16227367Y-13566588D01*
X16227367Y-13566588D02*
X16217844Y-13585636D01*
X16217844Y-13585636D02*
X16208320Y-13595160D01*
X16208320Y-13595160D02*
X16189272Y-13604684D01*
X16189272Y-13604684D02*
X16141653Y-13604684D01*
X16141653Y-13604684D02*
X16122606Y-13595160D01*
X16122606Y-13595160D02*
X16113082Y-13585636D01*
X16294034Y-13404684D02*
X16427367Y-13404684D01*
X16427367Y-13404684D02*
X16341653Y-13604684D01*
X16494034Y-13404684D02*
X16494034Y-13442779D01*
X16570225Y-13404684D02*
X16570225Y-13442779D01*
X16865463Y-13680874D02*
X16855939Y-13671350D01*
X16855939Y-13671350D02*
X16836891Y-13642779D01*
X16836891Y-13642779D02*
X16827368Y-13623731D01*
X16827368Y-13623731D02*
X16817844Y-13595160D01*
X16817844Y-13595160D02*
X16808320Y-13547541D01*
X16808320Y-13547541D02*
X16808320Y-13509446D01*
X16808320Y-13509446D02*
X16817844Y-13461827D01*
X16817844Y-13461827D02*
X16827368Y-13433255D01*
X16827368Y-13433255D02*
X16836891Y-13414208D01*
X16836891Y-13414208D02*
X16855939Y-13385636D01*
X16855939Y-13385636D02*
X16865463Y-13376112D01*
X17027368Y-13404684D02*
X16989272Y-13404684D01*
X16989272Y-13404684D02*
X16970225Y-13414208D01*
X16970225Y-13414208D02*
X16960701Y-13423731D01*
X16960701Y-13423731D02*
X16941653Y-13452303D01*
X16941653Y-13452303D02*
X16932130Y-13490398D01*
X16932130Y-13490398D02*
X16932130Y-13566588D01*
X16932130Y-13566588D02*
X16941653Y-13585636D01*
X16941653Y-13585636D02*
X16951177Y-13595160D01*
X16951177Y-13595160D02*
X16970225Y-13604684D01*
X16970225Y-13604684D02*
X17008320Y-13604684D01*
X17008320Y-13604684D02*
X17027368Y-13595160D01*
X17027368Y-13595160D02*
X17036891Y-13585636D01*
X17036891Y-13585636D02*
X17046415Y-13566588D01*
X17046415Y-13566588D02*
X17046415Y-13518969D01*
X17046415Y-13518969D02*
X17036891Y-13499922D01*
X17036891Y-13499922D02*
X17027368Y-13490398D01*
X17027368Y-13490398D02*
X17008320Y-13480874D01*
X17008320Y-13480874D02*
X16970225Y-13480874D01*
X16970225Y-13480874D02*
X16951177Y-13490398D01*
X16951177Y-13490398D02*
X16941653Y-13499922D01*
X16941653Y-13499922D02*
X16932130Y-13518969D01*
X17160701Y-13490398D02*
X17141653Y-13480874D01*
X17141653Y-13480874D02*
X17132130Y-13471350D01*
X17132130Y-13471350D02*
X17122606Y-13452303D01*
X17122606Y-13452303D02*
X17122606Y-13442779D01*
X17122606Y-13442779D02*
X17132130Y-13423731D01*
X17132130Y-13423731D02*
X17141653Y-13414208D01*
X17141653Y-13414208D02*
X17160701Y-13404684D01*
X17160701Y-13404684D02*
X17198796Y-13404684D01*
X17198796Y-13404684D02*
X17217844Y-13414208D01*
X17217844Y-13414208D02*
X17227368Y-13423731D01*
X17227368Y-13423731D02*
X17236891Y-13442779D01*
X17236891Y-13442779D02*
X17236891Y-13452303D01*
X17236891Y-13452303D02*
X17227368Y-13471350D01*
X17227368Y-13471350D02*
X17217844Y-13480874D01*
X17217844Y-13480874D02*
X17198796Y-13490398D01*
X17198796Y-13490398D02*
X17160701Y-13490398D01*
X17160701Y-13490398D02*
X17141653Y-13499922D01*
X17141653Y-13499922D02*
X17132130Y-13509446D01*
X17132130Y-13509446D02*
X17122606Y-13528493D01*
X17122606Y-13528493D02*
X17122606Y-13566588D01*
X17122606Y-13566588D02*
X17132130Y-13585636D01*
X17132130Y-13585636D02*
X17141653Y-13595160D01*
X17141653Y-13595160D02*
X17160701Y-13604684D01*
X17160701Y-13604684D02*
X17198796Y-13604684D01*
X17198796Y-13604684D02*
X17217844Y-13595160D01*
X17217844Y-13595160D02*
X17227368Y-13585636D01*
X17227368Y-13585636D02*
X17236891Y-13566588D01*
X17236891Y-13566588D02*
X17236891Y-13528493D01*
X17236891Y-13528493D02*
X17227368Y-13509446D01*
X17227368Y-13509446D02*
X17217844Y-13499922D01*
X17217844Y-13499922D02*
X17198796Y-13490398D01*
X17474987Y-13604684D02*
X17474987Y-13404684D01*
X17560701Y-13604684D02*
X17560701Y-13499922D01*
X17560701Y-13499922D02*
X17551177Y-13480874D01*
X17551177Y-13480874D02*
X17532130Y-13471350D01*
X17532130Y-13471350D02*
X17503558Y-13471350D01*
X17503558Y-13471350D02*
X17484511Y-13480874D01*
X17484511Y-13480874D02*
X17474987Y-13490398D01*
X17684511Y-13604684D02*
X17665463Y-13595160D01*
X17665463Y-13595160D02*
X17655939Y-13585636D01*
X17655939Y-13585636D02*
X17646415Y-13566588D01*
X17646415Y-13566588D02*
X17646415Y-13509446D01*
X17646415Y-13509446D02*
X17655939Y-13490398D01*
X17655939Y-13490398D02*
X17665463Y-13480874D01*
X17665463Y-13480874D02*
X17684511Y-13471350D01*
X17684511Y-13471350D02*
X17713082Y-13471350D01*
X17713082Y-13471350D02*
X17732130Y-13480874D01*
X17732130Y-13480874D02*
X17741653Y-13490398D01*
X17741653Y-13490398D02*
X17751177Y-13509446D01*
X17751177Y-13509446D02*
X17751177Y-13566588D01*
X17751177Y-13566588D02*
X17741653Y-13585636D01*
X17741653Y-13585636D02*
X17732130Y-13595160D01*
X17732130Y-13595160D02*
X17713082Y-13604684D01*
X17713082Y-13604684D02*
X17684511Y-13604684D01*
X17865463Y-13604684D02*
X17846415Y-13595160D01*
X17846415Y-13595160D02*
X17836892Y-13576112D01*
X17836892Y-13576112D02*
X17836892Y-13404684D01*
X18017844Y-13595160D02*
X17998796Y-13604684D01*
X17998796Y-13604684D02*
X17960701Y-13604684D01*
X17960701Y-13604684D02*
X17941653Y-13595160D01*
X17941653Y-13595160D02*
X17932130Y-13576112D01*
X17932130Y-13576112D02*
X17932130Y-13499922D01*
X17932130Y-13499922D02*
X17941653Y-13480874D01*
X17941653Y-13480874D02*
X17960701Y-13471350D01*
X17960701Y-13471350D02*
X17998796Y-13471350D01*
X17998796Y-13471350D02*
X18017844Y-13480874D01*
X18017844Y-13480874D02*
X18027368Y-13499922D01*
X18027368Y-13499922D02*
X18027368Y-13518969D01*
X18027368Y-13518969D02*
X17932130Y-13538017D01*
X18103558Y-13595160D02*
X18122606Y-13604684D01*
X18122606Y-13604684D02*
X18160701Y-13604684D01*
X18160701Y-13604684D02*
X18179749Y-13595160D01*
X18179749Y-13595160D02*
X18189273Y-13576112D01*
X18189273Y-13576112D02*
X18189273Y-13566588D01*
X18189273Y-13566588D02*
X18179749Y-13547541D01*
X18179749Y-13547541D02*
X18160701Y-13538017D01*
X18160701Y-13538017D02*
X18132130Y-13538017D01*
X18132130Y-13538017D02*
X18113082Y-13528493D01*
X18113082Y-13528493D02*
X18103558Y-13509446D01*
X18103558Y-13509446D02*
X18103558Y-13499922D01*
X18103558Y-13499922D02*
X18113082Y-13480874D01*
X18113082Y-13480874D02*
X18132130Y-13471350D01*
X18132130Y-13471350D02*
X18160701Y-13471350D01*
X18160701Y-13471350D02*
X18179749Y-13480874D01*
X18255939Y-13680874D02*
X18265463Y-13671350D01*
X18265463Y-13671350D02*
X18284511Y-13642779D01*
X18284511Y-13642779D02*
X18294034Y-13623731D01*
X18294034Y-13623731D02*
X18303558Y-13595160D01*
X18303558Y-13595160D02*
X18313082Y-13547541D01*
X18313082Y-13547541D02*
X18313082Y-13509446D01*
X18313082Y-13509446D02*
X18303558Y-13461827D01*
X18303558Y-13461827D02*
X18294034Y-13433255D01*
X18294034Y-13433255D02*
X18284511Y-13414208D01*
X18284511Y-13414208D02*
X18265463Y-13385636D01*
X18265463Y-13385636D02*
X18255939Y-13376112D01*
D10*
X13290400Y-13777200D02*
G75*
G02*
X13190400Y-13777200I-50000J0D01*
G01*
X13190400Y-13777200D02*
G75*
G02*
X13290400Y-13777200I50000J0D01*
G01*
D11*
X13655939Y-13868684D02*
X13541653Y-13868684D01*
X13598796Y-13868684D02*
X13598796Y-13668684D01*
X13598796Y-13668684D02*
X13579748Y-13697255D01*
X13579748Y-13697255D02*
X13560701Y-13716303D01*
X13560701Y-13716303D02*
X13541653Y-13725827D01*
X13741653Y-13849636D02*
X13751177Y-13859160D01*
X13751177Y-13859160D02*
X13741653Y-13868684D01*
X13741653Y-13868684D02*
X13732129Y-13859160D01*
X13732129Y-13859160D02*
X13741653Y-13849636D01*
X13741653Y-13849636D02*
X13741653Y-13868684D01*
X13874986Y-13668684D02*
X13894034Y-13668684D01*
X13894034Y-13668684D02*
X13913082Y-13678208D01*
X13913082Y-13678208D02*
X13922605Y-13687731D01*
X13922605Y-13687731D02*
X13932129Y-13706779D01*
X13932129Y-13706779D02*
X13941653Y-13744874D01*
X13941653Y-13744874D02*
X13941653Y-13792493D01*
X13941653Y-13792493D02*
X13932129Y-13830588D01*
X13932129Y-13830588D02*
X13922605Y-13849636D01*
X13922605Y-13849636D02*
X13913082Y-13859160D01*
X13913082Y-13859160D02*
X13894034Y-13868684D01*
X13894034Y-13868684D02*
X13874986Y-13868684D01*
X13874986Y-13868684D02*
X13855939Y-13859160D01*
X13855939Y-13859160D02*
X13846415Y-13849636D01*
X13846415Y-13849636D02*
X13836891Y-13830588D01*
X13836891Y-13830588D02*
X13827367Y-13792493D01*
X13827367Y-13792493D02*
X13827367Y-13744874D01*
X13827367Y-13744874D02*
X13836891Y-13706779D01*
X13836891Y-13706779D02*
X13846415Y-13687731D01*
X13846415Y-13687731D02*
X13855939Y-13678208D01*
X13855939Y-13678208D02*
X13874986Y-13668684D01*
X14065462Y-13668684D02*
X14084510Y-13668684D01*
X14084510Y-13668684D02*
X14103558Y-13678208D01*
X14103558Y-13678208D02*
X14113082Y-13687731D01*
X14113082Y-13687731D02*
X14122605Y-13706779D01*
X14122605Y-13706779D02*
X14132129Y-13744874D01*
X14132129Y-13744874D02*
X14132129Y-13792493D01*
X14132129Y-13792493D02*
X14122605Y-13830588D01*
X14122605Y-13830588D02*
X14113082Y-13849636D01*
X14113082Y-13849636D02*
X14103558Y-13859160D01*
X14103558Y-13859160D02*
X14084510Y-13868684D01*
X14084510Y-13868684D02*
X14065462Y-13868684D01*
X14065462Y-13868684D02*
X14046415Y-13859160D01*
X14046415Y-13859160D02*
X14036891Y-13849636D01*
X14036891Y-13849636D02*
X14027367Y-13830588D01*
X14027367Y-13830588D02*
X14017843Y-13792493D01*
X14017843Y-13792493D02*
X14017843Y-13744874D01*
X14017843Y-13744874D02*
X14027367Y-13706779D01*
X14027367Y-13706779D02*
X14036891Y-13687731D01*
X14036891Y-13687731D02*
X14046415Y-13678208D01*
X14046415Y-13678208D02*
X14065462Y-13668684D01*
X14255939Y-13668684D02*
X14274986Y-13668684D01*
X14274986Y-13668684D02*
X14294034Y-13678208D01*
X14294034Y-13678208D02*
X14303558Y-13687731D01*
X14303558Y-13687731D02*
X14313082Y-13706779D01*
X14313082Y-13706779D02*
X14322605Y-13744874D01*
X14322605Y-13744874D02*
X14322605Y-13792493D01*
X14322605Y-13792493D02*
X14313082Y-13830588D01*
X14313082Y-13830588D02*
X14303558Y-13849636D01*
X14303558Y-13849636D02*
X14294034Y-13859160D01*
X14294034Y-13859160D02*
X14274986Y-13868684D01*
X14274986Y-13868684D02*
X14255939Y-13868684D01*
X14255939Y-13868684D02*
X14236891Y-13859160D01*
X14236891Y-13859160D02*
X14227367Y-13849636D01*
X14227367Y-13849636D02*
X14217843Y-13830588D01*
X14217843Y-13830588D02*
X14208320Y-13792493D01*
X14208320Y-13792493D02*
X14208320Y-13744874D01*
X14208320Y-13744874D02*
X14217843Y-13706779D01*
X14217843Y-13706779D02*
X14227367Y-13687731D01*
X14227367Y-13687731D02*
X14236891Y-13678208D01*
X14236891Y-13678208D02*
X14255939Y-13668684D01*
X14408320Y-13868684D02*
X14408320Y-13735350D01*
X14408320Y-13754398D02*
X14417843Y-13744874D01*
X14417843Y-13744874D02*
X14436891Y-13735350D01*
X14436891Y-13735350D02*
X14465463Y-13735350D01*
X14465463Y-13735350D02*
X14484510Y-13744874D01*
X14484510Y-13744874D02*
X14494034Y-13763922D01*
X14494034Y-13763922D02*
X14494034Y-13868684D01*
X14494034Y-13763922D02*
X14503558Y-13744874D01*
X14503558Y-13744874D02*
X14522605Y-13735350D01*
X14522605Y-13735350D02*
X14551177Y-13735350D01*
X14551177Y-13735350D02*
X14570224Y-13744874D01*
X14570224Y-13744874D02*
X14579748Y-13763922D01*
X14579748Y-13763922D02*
X14579748Y-13868684D01*
X14674986Y-13868684D02*
X14674986Y-13735350D01*
X14674986Y-13754398D02*
X14684510Y-13744874D01*
X14684510Y-13744874D02*
X14703558Y-13735350D01*
X14703558Y-13735350D02*
X14732129Y-13735350D01*
X14732129Y-13735350D02*
X14751177Y-13744874D01*
X14751177Y-13744874D02*
X14760701Y-13763922D01*
X14760701Y-13763922D02*
X14760701Y-13868684D01*
X14760701Y-13763922D02*
X14770224Y-13744874D01*
X14770224Y-13744874D02*
X14789272Y-13735350D01*
X14789272Y-13735350D02*
X14817843Y-13735350D01*
X14817843Y-13735350D02*
X14836891Y-13744874D01*
X14836891Y-13744874D02*
X14846415Y-13763922D01*
X14846415Y-13763922D02*
X14846415Y-13868684D01*
X15236891Y-13659160D02*
X15065463Y-13916303D01*
X15494034Y-13668684D02*
X15513082Y-13668684D01*
X15513082Y-13668684D02*
X15532129Y-13678208D01*
X15532129Y-13678208D02*
X15541653Y-13687731D01*
X15541653Y-13687731D02*
X15551177Y-13706779D01*
X15551177Y-13706779D02*
X15560701Y-13744874D01*
X15560701Y-13744874D02*
X15560701Y-13792493D01*
X15560701Y-13792493D02*
X15551177Y-13830588D01*
X15551177Y-13830588D02*
X15541653Y-13849636D01*
X15541653Y-13849636D02*
X15532129Y-13859160D01*
X15532129Y-13859160D02*
X15513082Y-13868684D01*
X15513082Y-13868684D02*
X15494034Y-13868684D01*
X15494034Y-13868684D02*
X15474986Y-13859160D01*
X15474986Y-13859160D02*
X15465463Y-13849636D01*
X15465463Y-13849636D02*
X15455939Y-13830588D01*
X15455939Y-13830588D02*
X15446415Y-13792493D01*
X15446415Y-13792493D02*
X15446415Y-13744874D01*
X15446415Y-13744874D02*
X15455939Y-13706779D01*
X15455939Y-13706779D02*
X15465463Y-13687731D01*
X15465463Y-13687731D02*
X15474986Y-13678208D01*
X15474986Y-13678208D02*
X15494034Y-13668684D01*
X15646415Y-13849636D02*
X15655939Y-13859160D01*
X15655939Y-13859160D02*
X15646415Y-13868684D01*
X15646415Y-13868684D02*
X15636891Y-13859160D01*
X15636891Y-13859160D02*
X15646415Y-13849636D01*
X15646415Y-13849636D02*
X15646415Y-13868684D01*
X15779748Y-13668684D02*
X15798796Y-13668684D01*
X15798796Y-13668684D02*
X15817844Y-13678208D01*
X15817844Y-13678208D02*
X15827367Y-13687731D01*
X15827367Y-13687731D02*
X15836891Y-13706779D01*
X15836891Y-13706779D02*
X15846415Y-13744874D01*
X15846415Y-13744874D02*
X15846415Y-13792493D01*
X15846415Y-13792493D02*
X15836891Y-13830588D01*
X15836891Y-13830588D02*
X15827367Y-13849636D01*
X15827367Y-13849636D02*
X15817844Y-13859160D01*
X15817844Y-13859160D02*
X15798796Y-13868684D01*
X15798796Y-13868684D02*
X15779748Y-13868684D01*
X15779748Y-13868684D02*
X15760701Y-13859160D01*
X15760701Y-13859160D02*
X15751177Y-13849636D01*
X15751177Y-13849636D02*
X15741653Y-13830588D01*
X15741653Y-13830588D02*
X15732129Y-13792493D01*
X15732129Y-13792493D02*
X15732129Y-13744874D01*
X15732129Y-13744874D02*
X15741653Y-13706779D01*
X15741653Y-13706779D02*
X15751177Y-13687731D01*
X15751177Y-13687731D02*
X15760701Y-13678208D01*
X15760701Y-13678208D02*
X15779748Y-13668684D01*
X15913082Y-13668684D02*
X16036891Y-13668684D01*
X16036891Y-13668684D02*
X15970225Y-13744874D01*
X15970225Y-13744874D02*
X15998796Y-13744874D01*
X15998796Y-13744874D02*
X16017844Y-13754398D01*
X16017844Y-13754398D02*
X16027367Y-13763922D01*
X16027367Y-13763922D02*
X16036891Y-13782969D01*
X16036891Y-13782969D02*
X16036891Y-13830588D01*
X16036891Y-13830588D02*
X16027367Y-13849636D01*
X16027367Y-13849636D02*
X16017844Y-13859160D01*
X16017844Y-13859160D02*
X15998796Y-13868684D01*
X15998796Y-13868684D02*
X15941653Y-13868684D01*
X15941653Y-13868684D02*
X15922606Y-13859160D01*
X15922606Y-13859160D02*
X15913082Y-13849636D01*
X16132129Y-13868684D02*
X16170225Y-13868684D01*
X16170225Y-13868684D02*
X16189272Y-13859160D01*
X16189272Y-13859160D02*
X16198796Y-13849636D01*
X16198796Y-13849636D02*
X16217844Y-13821065D01*
X16217844Y-13821065D02*
X16227367Y-13782969D01*
X16227367Y-13782969D02*
X16227367Y-13706779D01*
X16227367Y-13706779D02*
X16217844Y-13687731D01*
X16217844Y-13687731D02*
X16208320Y-13678208D01*
X16208320Y-13678208D02*
X16189272Y-13668684D01*
X16189272Y-13668684D02*
X16151177Y-13668684D01*
X16151177Y-13668684D02*
X16132129Y-13678208D01*
X16132129Y-13678208D02*
X16122606Y-13687731D01*
X16122606Y-13687731D02*
X16113082Y-13706779D01*
X16113082Y-13706779D02*
X16113082Y-13754398D01*
X16113082Y-13754398D02*
X16122606Y-13773446D01*
X16122606Y-13773446D02*
X16132129Y-13782969D01*
X16132129Y-13782969D02*
X16151177Y-13792493D01*
X16151177Y-13792493D02*
X16189272Y-13792493D01*
X16189272Y-13792493D02*
X16208320Y-13782969D01*
X16208320Y-13782969D02*
X16217844Y-13773446D01*
X16217844Y-13773446D02*
X16227367Y-13754398D01*
X16398796Y-13735350D02*
X16398796Y-13868684D01*
X16351177Y-13659160D02*
X16303558Y-13802017D01*
X16303558Y-13802017D02*
X16427367Y-13802017D01*
X16494034Y-13668684D02*
X16494034Y-13706779D01*
X16570225Y-13668684D02*
X16570225Y-13706779D01*
X16865463Y-13944874D02*
X16855939Y-13935350D01*
X16855939Y-13935350D02*
X16836891Y-13906779D01*
X16836891Y-13906779D02*
X16827368Y-13887731D01*
X16827368Y-13887731D02*
X16817844Y-13859160D01*
X16817844Y-13859160D02*
X16808320Y-13811541D01*
X16808320Y-13811541D02*
X16808320Y-13773446D01*
X16808320Y-13773446D02*
X16817844Y-13725827D01*
X16817844Y-13725827D02*
X16827368Y-13697255D01*
X16827368Y-13697255D02*
X16836891Y-13678208D01*
X16836891Y-13678208D02*
X16855939Y-13649636D01*
X16855939Y-13649636D02*
X16865463Y-13640112D01*
X17027368Y-13668684D02*
X16989272Y-13668684D01*
X16989272Y-13668684D02*
X16970225Y-13678208D01*
X16970225Y-13678208D02*
X16960701Y-13687731D01*
X16960701Y-13687731D02*
X16941653Y-13716303D01*
X16941653Y-13716303D02*
X16932130Y-13754398D01*
X16932130Y-13754398D02*
X16932130Y-13830588D01*
X16932130Y-13830588D02*
X16941653Y-13849636D01*
X16941653Y-13849636D02*
X16951177Y-13859160D01*
X16951177Y-13859160D02*
X16970225Y-13868684D01*
X16970225Y-13868684D02*
X17008320Y-13868684D01*
X17008320Y-13868684D02*
X17027368Y-13859160D01*
X17027368Y-13859160D02*
X17036891Y-13849636D01*
X17036891Y-13849636D02*
X17046415Y-13830588D01*
X17046415Y-13830588D02*
X17046415Y-13782969D01*
X17046415Y-13782969D02*
X17036891Y-13763922D01*
X17036891Y-13763922D02*
X17027368Y-13754398D01*
X17027368Y-13754398D02*
X17008320Y-13744874D01*
X17008320Y-13744874D02*
X16970225Y-13744874D01*
X16970225Y-13744874D02*
X16951177Y-13754398D01*
X16951177Y-13754398D02*
X16941653Y-13763922D01*
X16941653Y-13763922D02*
X16932130Y-13782969D01*
X17284511Y-13868684D02*
X17284511Y-13668684D01*
X17370225Y-13868684D02*
X17370225Y-13763922D01*
X17370225Y-13763922D02*
X17360701Y-13744874D01*
X17360701Y-13744874D02*
X17341653Y-13735350D01*
X17341653Y-13735350D02*
X17313082Y-13735350D01*
X17313082Y-13735350D02*
X17294034Y-13744874D01*
X17294034Y-13744874D02*
X17284511Y-13754398D01*
X17494034Y-13868684D02*
X17474987Y-13859160D01*
X17474987Y-13859160D02*
X17465463Y-13849636D01*
X17465463Y-13849636D02*
X17455939Y-13830588D01*
X17455939Y-13830588D02*
X17455939Y-13773446D01*
X17455939Y-13773446D02*
X17465463Y-13754398D01*
X17465463Y-13754398D02*
X17474987Y-13744874D01*
X17474987Y-13744874D02*
X17494034Y-13735350D01*
X17494034Y-13735350D02*
X17522606Y-13735350D01*
X17522606Y-13735350D02*
X17541653Y-13744874D01*
X17541653Y-13744874D02*
X17551177Y-13754398D01*
X17551177Y-13754398D02*
X17560701Y-13773446D01*
X17560701Y-13773446D02*
X17560701Y-13830588D01*
X17560701Y-13830588D02*
X17551177Y-13849636D01*
X17551177Y-13849636D02*
X17541653Y-13859160D01*
X17541653Y-13859160D02*
X17522606Y-13868684D01*
X17522606Y-13868684D02*
X17494034Y-13868684D01*
X17674987Y-13868684D02*
X17655939Y-13859160D01*
X17655939Y-13859160D02*
X17646415Y-13840112D01*
X17646415Y-13840112D02*
X17646415Y-13668684D01*
X17827368Y-13859160D02*
X17808320Y-13868684D01*
X17808320Y-13868684D02*
X17770225Y-13868684D01*
X17770225Y-13868684D02*
X17751177Y-13859160D01*
X17751177Y-13859160D02*
X17741653Y-13840112D01*
X17741653Y-13840112D02*
X17741653Y-13763922D01*
X17741653Y-13763922D02*
X17751177Y-13744874D01*
X17751177Y-13744874D02*
X17770225Y-13735350D01*
X17770225Y-13735350D02*
X17808320Y-13735350D01*
X17808320Y-13735350D02*
X17827368Y-13744874D01*
X17827368Y-13744874D02*
X17836892Y-13763922D01*
X17836892Y-13763922D02*
X17836892Y-13782969D01*
X17836892Y-13782969D02*
X17741653Y-13802017D01*
X17913082Y-13859160D02*
X17932130Y-13868684D01*
X17932130Y-13868684D02*
X17970225Y-13868684D01*
X17970225Y-13868684D02*
X17989273Y-13859160D01*
X17989273Y-13859160D02*
X17998796Y-13840112D01*
X17998796Y-13840112D02*
X17998796Y-13830588D01*
X17998796Y-13830588D02*
X17989273Y-13811541D01*
X17989273Y-13811541D02*
X17970225Y-13802017D01*
X17970225Y-13802017D02*
X17941653Y-13802017D01*
X17941653Y-13802017D02*
X17922606Y-13792493D01*
X17922606Y-13792493D02*
X17913082Y-13773446D01*
X17913082Y-13773446D02*
X17913082Y-13763922D01*
X17913082Y-13763922D02*
X17922606Y-13744874D01*
X17922606Y-13744874D02*
X17941653Y-13735350D01*
X17941653Y-13735350D02*
X17970225Y-13735350D01*
X17970225Y-13735350D02*
X17989273Y-13744874D01*
X18065463Y-13944874D02*
X18074987Y-13935350D01*
X18074987Y-13935350D02*
X18094034Y-13906779D01*
X18094034Y-13906779D02*
X18103558Y-13887731D01*
X18103558Y-13887731D02*
X18113082Y-13859160D01*
X18113082Y-13859160D02*
X18122606Y-13811541D01*
X18122606Y-13811541D02*
X18122606Y-13773446D01*
X18122606Y-13773446D02*
X18113082Y-13725827D01*
X18113082Y-13725827D02*
X18103558Y-13697255D01*
X18103558Y-13697255D02*
X18094034Y-13678208D01*
X18094034Y-13678208D02*
X18074987Y-13649636D01*
X18074987Y-13649636D02*
X18065463Y-13640112D01*
D12*
X13239400Y-13990200D02*
X13239400Y-14092200D01*
X13188400Y-14041200D02*
X13290400Y-14041200D01*
D11*
X13655939Y-14132684D02*
X13541653Y-14132684D01*
X13598796Y-14132684D02*
X13598796Y-13932684D01*
X13598796Y-13932684D02*
X13579748Y-13961255D01*
X13579748Y-13961255D02*
X13560701Y-13980303D01*
X13560701Y-13980303D02*
X13541653Y-13989827D01*
X13741653Y-14113636D02*
X13751177Y-14123160D01*
X13751177Y-14123160D02*
X13741653Y-14132684D01*
X13741653Y-14132684D02*
X13732129Y-14123160D01*
X13732129Y-14123160D02*
X13741653Y-14113636D01*
X13741653Y-14113636D02*
X13741653Y-14132684D01*
X13874986Y-13932684D02*
X13894034Y-13932684D01*
X13894034Y-13932684D02*
X13913082Y-13942208D01*
X13913082Y-13942208D02*
X13922605Y-13951731D01*
X13922605Y-13951731D02*
X13932129Y-13970779D01*
X13932129Y-13970779D02*
X13941653Y-14008874D01*
X13941653Y-14008874D02*
X13941653Y-14056493D01*
X13941653Y-14056493D02*
X13932129Y-14094588D01*
X13932129Y-14094588D02*
X13922605Y-14113636D01*
X13922605Y-14113636D02*
X13913082Y-14123160D01*
X13913082Y-14123160D02*
X13894034Y-14132684D01*
X13894034Y-14132684D02*
X13874986Y-14132684D01*
X13874986Y-14132684D02*
X13855939Y-14123160D01*
X13855939Y-14123160D02*
X13846415Y-14113636D01*
X13846415Y-14113636D02*
X13836891Y-14094588D01*
X13836891Y-14094588D02*
X13827367Y-14056493D01*
X13827367Y-14056493D02*
X13827367Y-14008874D01*
X13827367Y-14008874D02*
X13836891Y-13970779D01*
X13836891Y-13970779D02*
X13846415Y-13951731D01*
X13846415Y-13951731D02*
X13855939Y-13942208D01*
X13855939Y-13942208D02*
X13874986Y-13932684D01*
X14017843Y-13951731D02*
X14027367Y-13942208D01*
X14027367Y-13942208D02*
X14046415Y-13932684D01*
X14046415Y-13932684D02*
X14094034Y-13932684D01*
X14094034Y-13932684D02*
X14113082Y-13942208D01*
X14113082Y-13942208D02*
X14122605Y-13951731D01*
X14122605Y-13951731D02*
X14132129Y-13970779D01*
X14132129Y-13970779D02*
X14132129Y-13989827D01*
X14132129Y-13989827D02*
X14122605Y-14018398D01*
X14122605Y-14018398D02*
X14008320Y-14132684D01*
X14008320Y-14132684D02*
X14132129Y-14132684D01*
X14255939Y-13932684D02*
X14274986Y-13932684D01*
X14274986Y-13932684D02*
X14294034Y-13942208D01*
X14294034Y-13942208D02*
X14303558Y-13951731D01*
X14303558Y-13951731D02*
X14313082Y-13970779D01*
X14313082Y-13970779D02*
X14322605Y-14008874D01*
X14322605Y-14008874D02*
X14322605Y-14056493D01*
X14322605Y-14056493D02*
X14313082Y-14094588D01*
X14313082Y-14094588D02*
X14303558Y-14113636D01*
X14303558Y-14113636D02*
X14294034Y-14123160D01*
X14294034Y-14123160D02*
X14274986Y-14132684D01*
X14274986Y-14132684D02*
X14255939Y-14132684D01*
X14255939Y-14132684D02*
X14236891Y-14123160D01*
X14236891Y-14123160D02*
X14227367Y-14113636D01*
X14227367Y-14113636D02*
X14217843Y-14094588D01*
X14217843Y-14094588D02*
X14208320Y-14056493D01*
X14208320Y-14056493D02*
X14208320Y-14008874D01*
X14208320Y-14008874D02*
X14217843Y-13970779D01*
X14217843Y-13970779D02*
X14227367Y-13951731D01*
X14227367Y-13951731D02*
X14236891Y-13942208D01*
X14236891Y-13942208D02*
X14255939Y-13932684D01*
X14408320Y-14132684D02*
X14408320Y-13999350D01*
X14408320Y-14018398D02*
X14417843Y-14008874D01*
X14417843Y-14008874D02*
X14436891Y-13999350D01*
X14436891Y-13999350D02*
X14465463Y-13999350D01*
X14465463Y-13999350D02*
X14484510Y-14008874D01*
X14484510Y-14008874D02*
X14494034Y-14027922D01*
X14494034Y-14027922D02*
X14494034Y-14132684D01*
X14494034Y-14027922D02*
X14503558Y-14008874D01*
X14503558Y-14008874D02*
X14522605Y-13999350D01*
X14522605Y-13999350D02*
X14551177Y-13999350D01*
X14551177Y-13999350D02*
X14570224Y-14008874D01*
X14570224Y-14008874D02*
X14579748Y-14027922D01*
X14579748Y-14027922D02*
X14579748Y-14132684D01*
X14674986Y-14132684D02*
X14674986Y-13999350D01*
X14674986Y-14018398D02*
X14684510Y-14008874D01*
X14684510Y-14008874D02*
X14703558Y-13999350D01*
X14703558Y-13999350D02*
X14732129Y-13999350D01*
X14732129Y-13999350D02*
X14751177Y-14008874D01*
X14751177Y-14008874D02*
X14760701Y-14027922D01*
X14760701Y-14027922D02*
X14760701Y-14132684D01*
X14760701Y-14027922D02*
X14770224Y-14008874D01*
X14770224Y-14008874D02*
X14789272Y-13999350D01*
X14789272Y-13999350D02*
X14817843Y-13999350D01*
X14817843Y-13999350D02*
X14836891Y-14008874D01*
X14836891Y-14008874D02*
X14846415Y-14027922D01*
X14846415Y-14027922D02*
X14846415Y-14132684D01*
X15236891Y-13923160D02*
X15065463Y-14180303D01*
X15494034Y-13932684D02*
X15513082Y-13932684D01*
X15513082Y-13932684D02*
X15532129Y-13942208D01*
X15532129Y-13942208D02*
X15541653Y-13951731D01*
X15541653Y-13951731D02*
X15551177Y-13970779D01*
X15551177Y-13970779D02*
X15560701Y-14008874D01*
X15560701Y-14008874D02*
X15560701Y-14056493D01*
X15560701Y-14056493D02*
X15551177Y-14094588D01*
X15551177Y-14094588D02*
X15541653Y-14113636D01*
X15541653Y-14113636D02*
X15532129Y-14123160D01*
X15532129Y-14123160D02*
X15513082Y-14132684D01*
X15513082Y-14132684D02*
X15494034Y-14132684D01*
X15494034Y-14132684D02*
X15474986Y-14123160D01*
X15474986Y-14123160D02*
X15465463Y-14113636D01*
X15465463Y-14113636D02*
X15455939Y-14094588D01*
X15455939Y-14094588D02*
X15446415Y-14056493D01*
X15446415Y-14056493D02*
X15446415Y-14008874D01*
X15446415Y-14008874D02*
X15455939Y-13970779D01*
X15455939Y-13970779D02*
X15465463Y-13951731D01*
X15465463Y-13951731D02*
X15474986Y-13942208D01*
X15474986Y-13942208D02*
X15494034Y-13932684D01*
X15646415Y-14113636D02*
X15655939Y-14123160D01*
X15655939Y-14123160D02*
X15646415Y-14132684D01*
X15646415Y-14132684D02*
X15636891Y-14123160D01*
X15636891Y-14123160D02*
X15646415Y-14113636D01*
X15646415Y-14113636D02*
X15646415Y-14132684D01*
X15779748Y-13932684D02*
X15798796Y-13932684D01*
X15798796Y-13932684D02*
X15817844Y-13942208D01*
X15817844Y-13942208D02*
X15827367Y-13951731D01*
X15827367Y-13951731D02*
X15836891Y-13970779D01*
X15836891Y-13970779D02*
X15846415Y-14008874D01*
X15846415Y-14008874D02*
X15846415Y-14056493D01*
X15846415Y-14056493D02*
X15836891Y-14094588D01*
X15836891Y-14094588D02*
X15827367Y-14113636D01*
X15827367Y-14113636D02*
X15817844Y-14123160D01*
X15817844Y-14123160D02*
X15798796Y-14132684D01*
X15798796Y-14132684D02*
X15779748Y-14132684D01*
X15779748Y-14132684D02*
X15760701Y-14123160D01*
X15760701Y-14123160D02*
X15751177Y-14113636D01*
X15751177Y-14113636D02*
X15741653Y-14094588D01*
X15741653Y-14094588D02*
X15732129Y-14056493D01*
X15732129Y-14056493D02*
X15732129Y-14008874D01*
X15732129Y-14008874D02*
X15741653Y-13970779D01*
X15741653Y-13970779D02*
X15751177Y-13951731D01*
X15751177Y-13951731D02*
X15760701Y-13942208D01*
X15760701Y-13942208D02*
X15779748Y-13932684D01*
X16017844Y-13999350D02*
X16017844Y-14132684D01*
X15970225Y-13923160D02*
X15922606Y-14066017D01*
X15922606Y-14066017D02*
X16046415Y-14066017D01*
X16160701Y-13932684D02*
X16179748Y-13932684D01*
X16179748Y-13932684D02*
X16198796Y-13942208D01*
X16198796Y-13942208D02*
X16208320Y-13951731D01*
X16208320Y-13951731D02*
X16217844Y-13970779D01*
X16217844Y-13970779D02*
X16227367Y-14008874D01*
X16227367Y-14008874D02*
X16227367Y-14056493D01*
X16227367Y-14056493D02*
X16217844Y-14094588D01*
X16217844Y-14094588D02*
X16208320Y-14113636D01*
X16208320Y-14113636D02*
X16198796Y-14123160D01*
X16198796Y-14123160D02*
X16179748Y-14132684D01*
X16179748Y-14132684D02*
X16160701Y-14132684D01*
X16160701Y-14132684D02*
X16141653Y-14123160D01*
X16141653Y-14123160D02*
X16132129Y-14113636D01*
X16132129Y-14113636D02*
X16122606Y-14094588D01*
X16122606Y-14094588D02*
X16113082Y-14056493D01*
X16113082Y-14056493D02*
X16113082Y-14008874D01*
X16113082Y-14008874D02*
X16122606Y-13970779D01*
X16122606Y-13970779D02*
X16132129Y-13951731D01*
X16132129Y-13951731D02*
X16141653Y-13942208D01*
X16141653Y-13942208D02*
X16160701Y-13932684D01*
X16303558Y-13951731D02*
X16313082Y-13942208D01*
X16313082Y-13942208D02*
X16332129Y-13932684D01*
X16332129Y-13932684D02*
X16379748Y-13932684D01*
X16379748Y-13932684D02*
X16398796Y-13942208D01*
X16398796Y-13942208D02*
X16408320Y-13951731D01*
X16408320Y-13951731D02*
X16417844Y-13970779D01*
X16417844Y-13970779D02*
X16417844Y-13989827D01*
X16417844Y-13989827D02*
X16408320Y-14018398D01*
X16408320Y-14018398D02*
X16294034Y-14132684D01*
X16294034Y-14132684D02*
X16417844Y-14132684D01*
X16494034Y-13932684D02*
X16494034Y-13970779D01*
X16570225Y-13932684D02*
X16570225Y-13970779D01*
X16865463Y-14208874D02*
X16855939Y-14199350D01*
X16855939Y-14199350D02*
X16836891Y-14170779D01*
X16836891Y-14170779D02*
X16827368Y-14151731D01*
X16827368Y-14151731D02*
X16817844Y-14123160D01*
X16817844Y-14123160D02*
X16808320Y-14075541D01*
X16808320Y-14075541D02*
X16808320Y-14037446D01*
X16808320Y-14037446D02*
X16817844Y-13989827D01*
X16817844Y-13989827D02*
X16827368Y-13961255D01*
X16827368Y-13961255D02*
X16836891Y-13942208D01*
X16836891Y-13942208D02*
X16855939Y-13913636D01*
X16855939Y-13913636D02*
X16865463Y-13904112D01*
X17027368Y-13999350D02*
X17027368Y-14132684D01*
X16979749Y-13923160D02*
X16932130Y-14066017D01*
X16932130Y-14066017D02*
X17055939Y-14066017D01*
X17113082Y-13932684D02*
X17236891Y-13932684D01*
X17236891Y-13932684D02*
X17170225Y-14008874D01*
X17170225Y-14008874D02*
X17198796Y-14008874D01*
X17198796Y-14008874D02*
X17217844Y-14018398D01*
X17217844Y-14018398D02*
X17227368Y-14027922D01*
X17227368Y-14027922D02*
X17236891Y-14046969D01*
X17236891Y-14046969D02*
X17236891Y-14094588D01*
X17236891Y-14094588D02*
X17227368Y-14113636D01*
X17227368Y-14113636D02*
X17217844Y-14123160D01*
X17217844Y-14123160D02*
X17198796Y-14132684D01*
X17198796Y-14132684D02*
X17141653Y-14132684D01*
X17141653Y-14132684D02*
X17122606Y-14123160D01*
X17122606Y-14123160D02*
X17113082Y-14113636D01*
X17474987Y-14132684D02*
X17474987Y-13932684D01*
X17560701Y-14132684D02*
X17560701Y-14027922D01*
X17560701Y-14027922D02*
X17551177Y-14008874D01*
X17551177Y-14008874D02*
X17532130Y-13999350D01*
X17532130Y-13999350D02*
X17503558Y-13999350D01*
X17503558Y-13999350D02*
X17484511Y-14008874D01*
X17484511Y-14008874D02*
X17474987Y-14018398D01*
X17684511Y-14132684D02*
X17665463Y-14123160D01*
X17665463Y-14123160D02*
X17655939Y-14113636D01*
X17655939Y-14113636D02*
X17646415Y-14094588D01*
X17646415Y-14094588D02*
X17646415Y-14037446D01*
X17646415Y-14037446D02*
X17655939Y-14018398D01*
X17655939Y-14018398D02*
X17665463Y-14008874D01*
X17665463Y-14008874D02*
X17684511Y-13999350D01*
X17684511Y-13999350D02*
X17713082Y-13999350D01*
X17713082Y-13999350D02*
X17732130Y-14008874D01*
X17732130Y-14008874D02*
X17741653Y-14018398D01*
X17741653Y-14018398D02*
X17751177Y-14037446D01*
X17751177Y-14037446D02*
X17751177Y-14094588D01*
X17751177Y-14094588D02*
X17741653Y-14113636D01*
X17741653Y-14113636D02*
X17732130Y-14123160D01*
X17732130Y-14123160D02*
X17713082Y-14132684D01*
X17713082Y-14132684D02*
X17684511Y-14132684D01*
X17865463Y-14132684D02*
X17846415Y-14123160D01*
X17846415Y-14123160D02*
X17836892Y-14104112D01*
X17836892Y-14104112D02*
X17836892Y-13932684D01*
X18017844Y-14123160D02*
X17998796Y-14132684D01*
X17998796Y-14132684D02*
X17960701Y-14132684D01*
X17960701Y-14132684D02*
X17941653Y-14123160D01*
X17941653Y-14123160D02*
X17932130Y-14104112D01*
X17932130Y-14104112D02*
X17932130Y-14027922D01*
X17932130Y-14027922D02*
X17941653Y-14008874D01*
X17941653Y-14008874D02*
X17960701Y-13999350D01*
X17960701Y-13999350D02*
X17998796Y-13999350D01*
X17998796Y-13999350D02*
X18017844Y-14008874D01*
X18017844Y-14008874D02*
X18027368Y-14027922D01*
X18027368Y-14027922D02*
X18027368Y-14046969D01*
X18027368Y-14046969D02*
X17932130Y-14066017D01*
X18103558Y-14123160D02*
X18122606Y-14132684D01*
X18122606Y-14132684D02*
X18160701Y-14132684D01*
X18160701Y-14132684D02*
X18179749Y-14123160D01*
X18179749Y-14123160D02*
X18189273Y-14104112D01*
X18189273Y-14104112D02*
X18189273Y-14094588D01*
X18189273Y-14094588D02*
X18179749Y-14075541D01*
X18179749Y-14075541D02*
X18160701Y-14066017D01*
X18160701Y-14066017D02*
X18132130Y-14066017D01*
X18132130Y-14066017D02*
X18113082Y-14056493D01*
X18113082Y-14056493D02*
X18103558Y-14037446D01*
X18103558Y-14037446D02*
X18103558Y-14027922D01*
X18103558Y-14027922D02*
X18113082Y-14008874D01*
X18113082Y-14008874D02*
X18132130Y-13999350D01*
X18132130Y-13999350D02*
X18160701Y-13999350D01*
X18160701Y-13999350D02*
X18179749Y-14008874D01*
X18255939Y-14208874D02*
X18265463Y-14199350D01*
X18265463Y-14199350D02*
X18284511Y-14170779D01*
X18284511Y-14170779D02*
X18294034Y-14151731D01*
X18294034Y-14151731D02*
X18303558Y-14123160D01*
X18303558Y-14123160D02*
X18313082Y-14075541D01*
X18313082Y-14075541D02*
X18313082Y-14037446D01*
X18313082Y-14037446D02*
X18303558Y-13989827D01*
X18303558Y-13989827D02*
X18294034Y-13961255D01*
X18294034Y-13961255D02*
X18284511Y-13942208D01*
X18284511Y-13942208D02*
X18265463Y-13913636D01*
X18265463Y-13913636D02*
X18255939Y-13904112D01*
X13261111Y-14375911D02*
X13261111Y-14234489D01*
X13119689Y-14234489D01*
X13119689Y-14375911D01*
X13261111Y-14375911D01*
X13532129Y-14196684D02*
X13655939Y-14196684D01*
X13655939Y-14196684D02*
X13589272Y-14272874D01*
X13589272Y-14272874D02*
X13617843Y-14272874D01*
X13617843Y-14272874D02*
X13636891Y-14282398D01*
X13636891Y-14282398D02*
X13646415Y-14291922D01*
X13646415Y-14291922D02*
X13655939Y-14310969D01*
X13655939Y-14310969D02*
X13655939Y-14358588D01*
X13655939Y-14358588D02*
X13646415Y-14377636D01*
X13646415Y-14377636D02*
X13636891Y-14387160D01*
X13636891Y-14387160D02*
X13617843Y-14396684D01*
X13617843Y-14396684D02*
X13560701Y-14396684D01*
X13560701Y-14396684D02*
X13541653Y-14387160D01*
X13541653Y-14387160D02*
X13532129Y-14377636D01*
X13741653Y-14377636D02*
X13751177Y-14387160D01*
X13751177Y-14387160D02*
X13741653Y-14396684D01*
X13741653Y-14396684D02*
X13732129Y-14387160D01*
X13732129Y-14387160D02*
X13741653Y-14377636D01*
X13741653Y-14377636D02*
X13741653Y-14396684D01*
X13874986Y-14196684D02*
X13894034Y-14196684D01*
X13894034Y-14196684D02*
X13913082Y-14206208D01*
X13913082Y-14206208D02*
X13922605Y-14215731D01*
X13922605Y-14215731D02*
X13932129Y-14234779D01*
X13932129Y-14234779D02*
X13941653Y-14272874D01*
X13941653Y-14272874D02*
X13941653Y-14320493D01*
X13941653Y-14320493D02*
X13932129Y-14358588D01*
X13932129Y-14358588D02*
X13922605Y-14377636D01*
X13922605Y-14377636D02*
X13913082Y-14387160D01*
X13913082Y-14387160D02*
X13894034Y-14396684D01*
X13894034Y-14396684D02*
X13874986Y-14396684D01*
X13874986Y-14396684D02*
X13855939Y-14387160D01*
X13855939Y-14387160D02*
X13846415Y-14377636D01*
X13846415Y-14377636D02*
X13836891Y-14358588D01*
X13836891Y-14358588D02*
X13827367Y-14320493D01*
X13827367Y-14320493D02*
X13827367Y-14272874D01*
X13827367Y-14272874D02*
X13836891Y-14234779D01*
X13836891Y-14234779D02*
X13846415Y-14215731D01*
X13846415Y-14215731D02*
X13855939Y-14206208D01*
X13855939Y-14206208D02*
X13874986Y-14196684D01*
X14065462Y-14196684D02*
X14084510Y-14196684D01*
X14084510Y-14196684D02*
X14103558Y-14206208D01*
X14103558Y-14206208D02*
X14113082Y-14215731D01*
X14113082Y-14215731D02*
X14122605Y-14234779D01*
X14122605Y-14234779D02*
X14132129Y-14272874D01*
X14132129Y-14272874D02*
X14132129Y-14320493D01*
X14132129Y-14320493D02*
X14122605Y-14358588D01*
X14122605Y-14358588D02*
X14113082Y-14377636D01*
X14113082Y-14377636D02*
X14103558Y-14387160D01*
X14103558Y-14387160D02*
X14084510Y-14396684D01*
X14084510Y-14396684D02*
X14065462Y-14396684D01*
X14065462Y-14396684D02*
X14046415Y-14387160D01*
X14046415Y-14387160D02*
X14036891Y-14377636D01*
X14036891Y-14377636D02*
X14027367Y-14358588D01*
X14027367Y-14358588D02*
X14017843Y-14320493D01*
X14017843Y-14320493D02*
X14017843Y-14272874D01*
X14017843Y-14272874D02*
X14027367Y-14234779D01*
X14027367Y-14234779D02*
X14036891Y-14215731D01*
X14036891Y-14215731D02*
X14046415Y-14206208D01*
X14046415Y-14206208D02*
X14065462Y-14196684D01*
X14255939Y-14196684D02*
X14274986Y-14196684D01*
X14274986Y-14196684D02*
X14294034Y-14206208D01*
X14294034Y-14206208D02*
X14303558Y-14215731D01*
X14303558Y-14215731D02*
X14313082Y-14234779D01*
X14313082Y-14234779D02*
X14322605Y-14272874D01*
X14322605Y-14272874D02*
X14322605Y-14320493D01*
X14322605Y-14320493D02*
X14313082Y-14358588D01*
X14313082Y-14358588D02*
X14303558Y-14377636D01*
X14303558Y-14377636D02*
X14294034Y-14387160D01*
X14294034Y-14387160D02*
X14274986Y-14396684D01*
X14274986Y-14396684D02*
X14255939Y-14396684D01*
X14255939Y-14396684D02*
X14236891Y-14387160D01*
X14236891Y-14387160D02*
X14227367Y-14377636D01*
X14227367Y-14377636D02*
X14217843Y-14358588D01*
X14217843Y-14358588D02*
X14208320Y-14320493D01*
X14208320Y-14320493D02*
X14208320Y-14272874D01*
X14208320Y-14272874D02*
X14217843Y-14234779D01*
X14217843Y-14234779D02*
X14227367Y-14215731D01*
X14227367Y-14215731D02*
X14236891Y-14206208D01*
X14236891Y-14206208D02*
X14255939Y-14196684D01*
X14408320Y-14396684D02*
X14408320Y-14263350D01*
X14408320Y-14282398D02*
X14417843Y-14272874D01*
X14417843Y-14272874D02*
X14436891Y-14263350D01*
X14436891Y-14263350D02*
X14465463Y-14263350D01*
X14465463Y-14263350D02*
X14484510Y-14272874D01*
X14484510Y-14272874D02*
X14494034Y-14291922D01*
X14494034Y-14291922D02*
X14494034Y-14396684D01*
X14494034Y-14291922D02*
X14503558Y-14272874D01*
X14503558Y-14272874D02*
X14522605Y-14263350D01*
X14522605Y-14263350D02*
X14551177Y-14263350D01*
X14551177Y-14263350D02*
X14570224Y-14272874D01*
X14570224Y-14272874D02*
X14579748Y-14291922D01*
X14579748Y-14291922D02*
X14579748Y-14396684D01*
X14674986Y-14396684D02*
X14674986Y-14263350D01*
X14674986Y-14282398D02*
X14684510Y-14272874D01*
X14684510Y-14272874D02*
X14703558Y-14263350D01*
X14703558Y-14263350D02*
X14732129Y-14263350D01*
X14732129Y-14263350D02*
X14751177Y-14272874D01*
X14751177Y-14272874D02*
X14760701Y-14291922D01*
X14760701Y-14291922D02*
X14760701Y-14396684D01*
X14760701Y-14291922D02*
X14770224Y-14272874D01*
X14770224Y-14272874D02*
X14789272Y-14263350D01*
X14789272Y-14263350D02*
X14817843Y-14263350D01*
X14817843Y-14263350D02*
X14836891Y-14272874D01*
X14836891Y-14272874D02*
X14846415Y-14291922D01*
X14846415Y-14291922D02*
X14846415Y-14396684D01*
X15236891Y-14187160D02*
X15065463Y-14444303D01*
X15494034Y-14196684D02*
X15513082Y-14196684D01*
X15513082Y-14196684D02*
X15532129Y-14206208D01*
X15532129Y-14206208D02*
X15541653Y-14215731D01*
X15541653Y-14215731D02*
X15551177Y-14234779D01*
X15551177Y-14234779D02*
X15560701Y-14272874D01*
X15560701Y-14272874D02*
X15560701Y-14320493D01*
X15560701Y-14320493D02*
X15551177Y-14358588D01*
X15551177Y-14358588D02*
X15541653Y-14377636D01*
X15541653Y-14377636D02*
X15532129Y-14387160D01*
X15532129Y-14387160D02*
X15513082Y-14396684D01*
X15513082Y-14396684D02*
X15494034Y-14396684D01*
X15494034Y-14396684D02*
X15474986Y-14387160D01*
X15474986Y-14387160D02*
X15465463Y-14377636D01*
X15465463Y-14377636D02*
X15455939Y-14358588D01*
X15455939Y-14358588D02*
X15446415Y-14320493D01*
X15446415Y-14320493D02*
X15446415Y-14272874D01*
X15446415Y-14272874D02*
X15455939Y-14234779D01*
X15455939Y-14234779D02*
X15465463Y-14215731D01*
X15465463Y-14215731D02*
X15474986Y-14206208D01*
X15474986Y-14206208D02*
X15494034Y-14196684D01*
X15646415Y-14377636D02*
X15655939Y-14387160D01*
X15655939Y-14387160D02*
X15646415Y-14396684D01*
X15646415Y-14396684D02*
X15636891Y-14387160D01*
X15636891Y-14387160D02*
X15646415Y-14377636D01*
X15646415Y-14377636D02*
X15646415Y-14396684D01*
X15846415Y-14396684D02*
X15732129Y-14396684D01*
X15789272Y-14396684D02*
X15789272Y-14196684D01*
X15789272Y-14196684D02*
X15770225Y-14225255D01*
X15770225Y-14225255D02*
X15751177Y-14244303D01*
X15751177Y-14244303D02*
X15732129Y-14253827D01*
X16036891Y-14396684D02*
X15922606Y-14396684D01*
X15979748Y-14396684D02*
X15979748Y-14196684D01*
X15979748Y-14196684D02*
X15960701Y-14225255D01*
X15960701Y-14225255D02*
X15941653Y-14244303D01*
X15941653Y-14244303D02*
X15922606Y-14253827D01*
X16151177Y-14282398D02*
X16132129Y-14272874D01*
X16132129Y-14272874D02*
X16122606Y-14263350D01*
X16122606Y-14263350D02*
X16113082Y-14244303D01*
X16113082Y-14244303D02*
X16113082Y-14234779D01*
X16113082Y-14234779D02*
X16122606Y-14215731D01*
X16122606Y-14215731D02*
X16132129Y-14206208D01*
X16132129Y-14206208D02*
X16151177Y-14196684D01*
X16151177Y-14196684D02*
X16189272Y-14196684D01*
X16189272Y-14196684D02*
X16208320Y-14206208D01*
X16208320Y-14206208D02*
X16217844Y-14215731D01*
X16217844Y-14215731D02*
X16227367Y-14234779D01*
X16227367Y-14234779D02*
X16227367Y-14244303D01*
X16227367Y-14244303D02*
X16217844Y-14263350D01*
X16217844Y-14263350D02*
X16208320Y-14272874D01*
X16208320Y-14272874D02*
X16189272Y-14282398D01*
X16189272Y-14282398D02*
X16151177Y-14282398D01*
X16151177Y-14282398D02*
X16132129Y-14291922D01*
X16132129Y-14291922D02*
X16122606Y-14301446D01*
X16122606Y-14301446D02*
X16113082Y-14320493D01*
X16113082Y-14320493D02*
X16113082Y-14358588D01*
X16113082Y-14358588D02*
X16122606Y-14377636D01*
X16122606Y-14377636D02*
X16132129Y-14387160D01*
X16132129Y-14387160D02*
X16151177Y-14396684D01*
X16151177Y-14396684D02*
X16189272Y-14396684D01*
X16189272Y-14396684D02*
X16208320Y-14387160D01*
X16208320Y-14387160D02*
X16217844Y-14377636D01*
X16217844Y-14377636D02*
X16227367Y-14358588D01*
X16227367Y-14358588D02*
X16227367Y-14320493D01*
X16227367Y-14320493D02*
X16217844Y-14301446D01*
X16217844Y-14301446D02*
X16208320Y-14291922D01*
X16208320Y-14291922D02*
X16189272Y-14282398D01*
X16417844Y-14396684D02*
X16303558Y-14396684D01*
X16360701Y-14396684D02*
X16360701Y-14196684D01*
X16360701Y-14196684D02*
X16341653Y-14225255D01*
X16341653Y-14225255D02*
X16322606Y-14244303D01*
X16322606Y-14244303D02*
X16303558Y-14253827D01*
X16494034Y-14196684D02*
X16494034Y-14234779D01*
X16570225Y-14196684D02*
X16570225Y-14234779D01*
X16865463Y-14472874D02*
X16855939Y-14463350D01*
X16855939Y-14463350D02*
X16836891Y-14434779D01*
X16836891Y-14434779D02*
X16827368Y-14415731D01*
X16827368Y-14415731D02*
X16817844Y-14387160D01*
X16817844Y-14387160D02*
X16808320Y-14339541D01*
X16808320Y-14339541D02*
X16808320Y-14301446D01*
X16808320Y-14301446D02*
X16817844Y-14253827D01*
X16817844Y-14253827D02*
X16827368Y-14225255D01*
X16827368Y-14225255D02*
X16836891Y-14206208D01*
X16836891Y-14206208D02*
X16855939Y-14177636D01*
X16855939Y-14177636D02*
X16865463Y-14168112D01*
X16922606Y-14196684D02*
X17046415Y-14196684D01*
X17046415Y-14196684D02*
X16979749Y-14272874D01*
X16979749Y-14272874D02*
X17008320Y-14272874D01*
X17008320Y-14272874D02*
X17027368Y-14282398D01*
X17027368Y-14282398D02*
X17036891Y-14291922D01*
X17036891Y-14291922D02*
X17046415Y-14310969D01*
X17046415Y-14310969D02*
X17046415Y-14358588D01*
X17046415Y-14358588D02*
X17036891Y-14377636D01*
X17036891Y-14377636D02*
X17027368Y-14387160D01*
X17027368Y-14387160D02*
X17008320Y-14396684D01*
X17008320Y-14396684D02*
X16951177Y-14396684D01*
X16951177Y-14396684D02*
X16932130Y-14387160D01*
X16932130Y-14387160D02*
X16922606Y-14377636D01*
X17284511Y-14396684D02*
X17284511Y-14196684D01*
X17370225Y-14396684D02*
X17370225Y-14291922D01*
X17370225Y-14291922D02*
X17360701Y-14272874D01*
X17360701Y-14272874D02*
X17341653Y-14263350D01*
X17341653Y-14263350D02*
X17313082Y-14263350D01*
X17313082Y-14263350D02*
X17294034Y-14272874D01*
X17294034Y-14272874D02*
X17284511Y-14282398D01*
X17494034Y-14396684D02*
X17474987Y-14387160D01*
X17474987Y-14387160D02*
X17465463Y-14377636D01*
X17465463Y-14377636D02*
X17455939Y-14358588D01*
X17455939Y-14358588D02*
X17455939Y-14301446D01*
X17455939Y-14301446D02*
X17465463Y-14282398D01*
X17465463Y-14282398D02*
X17474987Y-14272874D01*
X17474987Y-14272874D02*
X17494034Y-14263350D01*
X17494034Y-14263350D02*
X17522606Y-14263350D01*
X17522606Y-14263350D02*
X17541653Y-14272874D01*
X17541653Y-14272874D02*
X17551177Y-14282398D01*
X17551177Y-14282398D02*
X17560701Y-14301446D01*
X17560701Y-14301446D02*
X17560701Y-14358588D01*
X17560701Y-14358588D02*
X17551177Y-14377636D01*
X17551177Y-14377636D02*
X17541653Y-14387160D01*
X17541653Y-14387160D02*
X17522606Y-14396684D01*
X17522606Y-14396684D02*
X17494034Y-14396684D01*
X17674987Y-14396684D02*
X17655939Y-14387160D01*
X17655939Y-14387160D02*
X17646415Y-14368112D01*
X17646415Y-14368112D02*
X17646415Y-14196684D01*
X17827368Y-14387160D02*
X17808320Y-14396684D01*
X17808320Y-14396684D02*
X17770225Y-14396684D01*
X17770225Y-14396684D02*
X17751177Y-14387160D01*
X17751177Y-14387160D02*
X17741653Y-14368112D01*
X17741653Y-14368112D02*
X17741653Y-14291922D01*
X17741653Y-14291922D02*
X17751177Y-14272874D01*
X17751177Y-14272874D02*
X17770225Y-14263350D01*
X17770225Y-14263350D02*
X17808320Y-14263350D01*
X17808320Y-14263350D02*
X17827368Y-14272874D01*
X17827368Y-14272874D02*
X17836892Y-14291922D01*
X17836892Y-14291922D02*
X17836892Y-14310969D01*
X17836892Y-14310969D02*
X17741653Y-14330017D01*
X17913082Y-14387160D02*
X17932130Y-14396684D01*
X17932130Y-14396684D02*
X17970225Y-14396684D01*
X17970225Y-14396684D02*
X17989273Y-14387160D01*
X17989273Y-14387160D02*
X17998796Y-14368112D01*
X17998796Y-14368112D02*
X17998796Y-14358588D01*
X17998796Y-14358588D02*
X17989273Y-14339541D01*
X17989273Y-14339541D02*
X17970225Y-14330017D01*
X17970225Y-14330017D02*
X17941653Y-14330017D01*
X17941653Y-14330017D02*
X17922606Y-14320493D01*
X17922606Y-14320493D02*
X17913082Y-14301446D01*
X17913082Y-14301446D02*
X17913082Y-14291922D01*
X17913082Y-14291922D02*
X17922606Y-14272874D01*
X17922606Y-14272874D02*
X17941653Y-14263350D01*
X17941653Y-14263350D02*
X17970225Y-14263350D01*
X17970225Y-14263350D02*
X17989273Y-14272874D01*
X18065463Y-14472874D02*
X18074987Y-14463350D01*
X18074987Y-14463350D02*
X18094034Y-14434779D01*
X18094034Y-14434779D02*
X18103558Y-14415731D01*
X18103558Y-14415731D02*
X18113082Y-14387160D01*
X18113082Y-14387160D02*
X18122606Y-14339541D01*
X18122606Y-14339541D02*
X18122606Y-14301446D01*
X18122606Y-14301446D02*
X18113082Y-14253827D01*
X18113082Y-14253827D02*
X18103558Y-14225255D01*
X18103558Y-14225255D02*
X18094034Y-14206208D01*
X18094034Y-14206208D02*
X18074987Y-14177636D01*
X18074987Y-14177636D02*
X18065463Y-14168112D01*
M02*
