%TF.GenerationSoftware,KiCad,Pcbnew,8.0.6-8.0.6-0~ubuntu22.04.1*%
%TF.CreationDate,2024-11-07T23:46:59-08:00*%
%TF.ProjectId,gbvideo_breakout,67627669-6465-46f5-9f62-7265616b6f75,rev?*%
%TF.SameCoordinates,Original*%
%TF.FileFunction,Drillmap*%
%TF.FilePolarity,Positive*%
%FSLAX45Y45*%
G04 Gerber Fmt 4.5, Leading zero omitted, Abs format (unit mm)*
G04 Created by KiCad (PCBNEW 8.0.6-8.0.6-0~ubuntu22.04.1) date 2024-11-07 23:46:59*
%MOMM*%
%LPD*%
G01*
G04 APERTURE LIST*
%ADD10C,0.100000*%
%ADD11C,0.200000*%
%ADD12C,0.150000*%
%ADD13C,0.180000*%
G04 APERTURE END LIST*
D10*
X15773400Y-12068200D02*
G75*
G02*
X15573400Y-12268200I-200000J0D01*
G01*
X15573400Y-4521200D02*
G75*
G02*
X15773400Y-4721200I0J-200000D01*
G01*
X13295400Y-4721200D02*
G75*
G02*
X13495400Y-4521200I200000J0D01*
G01*
X13495400Y-12268200D02*
G75*
G02*
X13295400Y-12068200I0J200000D01*
G01*
X13495400Y-4521200D02*
X15573400Y-4521200D01*
X13495400Y-12268200D02*
X14184400Y-12268200D01*
X15773400Y-12068200D02*
X15773400Y-4721200D01*
X14884400Y-12268200D02*
X15573400Y-12268200D01*
X14284400Y-12868200D02*
G75*
G02*
X14234400Y-12818200I0J50000D01*
G01*
X14284400Y-12868200D02*
X14784400Y-12868200D01*
X14184400Y-12268200D02*
G75*
G02*
X14234400Y-12318200I0J-50000D01*
G01*
X14834400Y-12818200D02*
X14834400Y-12318200D01*
X14834400Y-12818200D02*
G75*
G02*
X14784400Y-12868200I-50000J0D01*
G01*
X14234400Y-12818200D02*
X14234400Y-12318200D01*
X14834400Y-12318200D02*
G75*
G02*
X14884400Y-12268200I50000J0D01*
G01*
X13295400Y-12068200D02*
X13295400Y-4721200D01*
D11*
D12*
X14229048Y-4983180D02*
X14379048Y-5133180D01*
X14379048Y-4983180D02*
X14229048Y-5133180D01*
X14714048Y-4983180D02*
X14864048Y-5133180D01*
X14864048Y-4983180D02*
X14714048Y-5133180D01*
D13*
X14364048Y-4755180D02*
G75*
G02*
X14184048Y-4755180I-90000J0D01*
G01*
X14184048Y-4755180D02*
G75*
G02*
X14364048Y-4755180I90000J0D01*
G01*
X14909048Y-4755180D02*
G75*
G02*
X14729048Y-4755180I-90000J0D01*
G01*
X14729048Y-4755180D02*
G75*
G02*
X14909048Y-4755180I90000J0D01*
G01*
D11*
X13551177Y-13184684D02*
X13551177Y-12984684D01*
X13551177Y-12984684D02*
X13598796Y-12984684D01*
X13598796Y-12984684D02*
X13627367Y-12994208D01*
X13627367Y-12994208D02*
X13646415Y-13013255D01*
X13646415Y-13013255D02*
X13655939Y-13032303D01*
X13655939Y-13032303D02*
X13665462Y-13070398D01*
X13665462Y-13070398D02*
X13665462Y-13098969D01*
X13665462Y-13098969D02*
X13655939Y-13137065D01*
X13655939Y-13137065D02*
X13646415Y-13156112D01*
X13646415Y-13156112D02*
X13627367Y-13175160D01*
X13627367Y-13175160D02*
X13598796Y-13184684D01*
X13598796Y-13184684D02*
X13551177Y-13184684D01*
X13751177Y-13184684D02*
X13751177Y-13051350D01*
X13751177Y-13089446D02*
X13760701Y-13070398D01*
X13760701Y-13070398D02*
X13770224Y-13060874D01*
X13770224Y-13060874D02*
X13789272Y-13051350D01*
X13789272Y-13051350D02*
X13808320Y-13051350D01*
X13874986Y-13184684D02*
X13874986Y-13051350D01*
X13874986Y-12984684D02*
X13865462Y-12994208D01*
X13865462Y-12994208D02*
X13874986Y-13003731D01*
X13874986Y-13003731D02*
X13884510Y-12994208D01*
X13884510Y-12994208D02*
X13874986Y-12984684D01*
X13874986Y-12984684D02*
X13874986Y-13003731D01*
X13998796Y-13184684D02*
X13979748Y-13175160D01*
X13979748Y-13175160D02*
X13970224Y-13156112D01*
X13970224Y-13156112D02*
X13970224Y-12984684D01*
X14103558Y-13184684D02*
X14084510Y-13175160D01*
X14084510Y-13175160D02*
X14074986Y-13156112D01*
X14074986Y-13156112D02*
X14074986Y-12984684D01*
X14332129Y-13184684D02*
X14332129Y-12984684D01*
X14332129Y-12984684D02*
X14398796Y-13127541D01*
X14398796Y-13127541D02*
X14465462Y-12984684D01*
X14465462Y-12984684D02*
X14465462Y-13184684D01*
X14646415Y-13184684D02*
X14646415Y-13079922D01*
X14646415Y-13079922D02*
X14636891Y-13060874D01*
X14636891Y-13060874D02*
X14617843Y-13051350D01*
X14617843Y-13051350D02*
X14579748Y-13051350D01*
X14579748Y-13051350D02*
X14560701Y-13060874D01*
X14646415Y-13175160D02*
X14627367Y-13184684D01*
X14627367Y-13184684D02*
X14579748Y-13184684D01*
X14579748Y-13184684D02*
X14560701Y-13175160D01*
X14560701Y-13175160D02*
X14551177Y-13156112D01*
X14551177Y-13156112D02*
X14551177Y-13137065D01*
X14551177Y-13137065D02*
X14560701Y-13118017D01*
X14560701Y-13118017D02*
X14579748Y-13108493D01*
X14579748Y-13108493D02*
X14627367Y-13108493D01*
X14627367Y-13108493D02*
X14646415Y-13098969D01*
X14741653Y-13051350D02*
X14741653Y-13251350D01*
X14741653Y-13060874D02*
X14760701Y-13051350D01*
X14760701Y-13051350D02*
X14798796Y-13051350D01*
X14798796Y-13051350D02*
X14817843Y-13060874D01*
X14817843Y-13060874D02*
X14827367Y-13070398D01*
X14827367Y-13070398D02*
X14836891Y-13089446D01*
X14836891Y-13089446D02*
X14836891Y-13146588D01*
X14836891Y-13146588D02*
X14827367Y-13165636D01*
X14827367Y-13165636D02*
X14817843Y-13175160D01*
X14817843Y-13175160D02*
X14798796Y-13184684D01*
X14798796Y-13184684D02*
X14760701Y-13184684D01*
X14760701Y-13184684D02*
X14741653Y-13175160D01*
X14922605Y-13165636D02*
X14932129Y-13175160D01*
X14932129Y-13175160D02*
X14922605Y-13184684D01*
X14922605Y-13184684D02*
X14913082Y-13175160D01*
X14913082Y-13175160D02*
X14922605Y-13165636D01*
X14922605Y-13165636D02*
X14922605Y-13184684D01*
X14922605Y-13060874D02*
X14932129Y-13070398D01*
X14932129Y-13070398D02*
X14922605Y-13079922D01*
X14922605Y-13079922D02*
X14913082Y-13070398D01*
X14913082Y-13070398D02*
X14922605Y-13060874D01*
X14922605Y-13060874D02*
X14922605Y-13079922D01*
D12*
X13140400Y-13438200D02*
X13290400Y-13588200D01*
X13290400Y-13438200D02*
X13140400Y-13588200D01*
D11*
X13655939Y-13604684D02*
X13541653Y-13604684D01*
X13598796Y-13604684D02*
X13598796Y-13404684D01*
X13598796Y-13404684D02*
X13579748Y-13433255D01*
X13579748Y-13433255D02*
X13560701Y-13452303D01*
X13560701Y-13452303D02*
X13541653Y-13461827D01*
X13741653Y-13585636D02*
X13751177Y-13595160D01*
X13751177Y-13595160D02*
X13741653Y-13604684D01*
X13741653Y-13604684D02*
X13732129Y-13595160D01*
X13732129Y-13595160D02*
X13741653Y-13585636D01*
X13741653Y-13585636D02*
X13741653Y-13604684D01*
X13932129Y-13404684D02*
X13836891Y-13404684D01*
X13836891Y-13404684D02*
X13827367Y-13499922D01*
X13827367Y-13499922D02*
X13836891Y-13490398D01*
X13836891Y-13490398D02*
X13855939Y-13480874D01*
X13855939Y-13480874D02*
X13903558Y-13480874D01*
X13903558Y-13480874D02*
X13922605Y-13490398D01*
X13922605Y-13490398D02*
X13932129Y-13499922D01*
X13932129Y-13499922D02*
X13941653Y-13518969D01*
X13941653Y-13518969D02*
X13941653Y-13566588D01*
X13941653Y-13566588D02*
X13932129Y-13585636D01*
X13932129Y-13585636D02*
X13922605Y-13595160D01*
X13922605Y-13595160D02*
X13903558Y-13604684D01*
X13903558Y-13604684D02*
X13855939Y-13604684D01*
X13855939Y-13604684D02*
X13836891Y-13595160D01*
X13836891Y-13595160D02*
X13827367Y-13585636D01*
X14065462Y-13404684D02*
X14084510Y-13404684D01*
X14084510Y-13404684D02*
X14103558Y-13414208D01*
X14103558Y-13414208D02*
X14113082Y-13423731D01*
X14113082Y-13423731D02*
X14122605Y-13442779D01*
X14122605Y-13442779D02*
X14132129Y-13480874D01*
X14132129Y-13480874D02*
X14132129Y-13528493D01*
X14132129Y-13528493D02*
X14122605Y-13566588D01*
X14122605Y-13566588D02*
X14113082Y-13585636D01*
X14113082Y-13585636D02*
X14103558Y-13595160D01*
X14103558Y-13595160D02*
X14084510Y-13604684D01*
X14084510Y-13604684D02*
X14065462Y-13604684D01*
X14065462Y-13604684D02*
X14046415Y-13595160D01*
X14046415Y-13595160D02*
X14036891Y-13585636D01*
X14036891Y-13585636D02*
X14027367Y-13566588D01*
X14027367Y-13566588D02*
X14017843Y-13528493D01*
X14017843Y-13528493D02*
X14017843Y-13480874D01*
X14017843Y-13480874D02*
X14027367Y-13442779D01*
X14027367Y-13442779D02*
X14036891Y-13423731D01*
X14036891Y-13423731D02*
X14046415Y-13414208D01*
X14046415Y-13414208D02*
X14065462Y-13404684D01*
X14255939Y-13404684D02*
X14274986Y-13404684D01*
X14274986Y-13404684D02*
X14294034Y-13414208D01*
X14294034Y-13414208D02*
X14303558Y-13423731D01*
X14303558Y-13423731D02*
X14313082Y-13442779D01*
X14313082Y-13442779D02*
X14322605Y-13480874D01*
X14322605Y-13480874D02*
X14322605Y-13528493D01*
X14322605Y-13528493D02*
X14313082Y-13566588D01*
X14313082Y-13566588D02*
X14303558Y-13585636D01*
X14303558Y-13585636D02*
X14294034Y-13595160D01*
X14294034Y-13595160D02*
X14274986Y-13604684D01*
X14274986Y-13604684D02*
X14255939Y-13604684D01*
X14255939Y-13604684D02*
X14236891Y-13595160D01*
X14236891Y-13595160D02*
X14227367Y-13585636D01*
X14227367Y-13585636D02*
X14217843Y-13566588D01*
X14217843Y-13566588D02*
X14208320Y-13528493D01*
X14208320Y-13528493D02*
X14208320Y-13480874D01*
X14208320Y-13480874D02*
X14217843Y-13442779D01*
X14217843Y-13442779D02*
X14227367Y-13423731D01*
X14227367Y-13423731D02*
X14236891Y-13414208D01*
X14236891Y-13414208D02*
X14255939Y-13404684D01*
X14408320Y-13604684D02*
X14408320Y-13471350D01*
X14408320Y-13490398D02*
X14417843Y-13480874D01*
X14417843Y-13480874D02*
X14436891Y-13471350D01*
X14436891Y-13471350D02*
X14465463Y-13471350D01*
X14465463Y-13471350D02*
X14484510Y-13480874D01*
X14484510Y-13480874D02*
X14494034Y-13499922D01*
X14494034Y-13499922D02*
X14494034Y-13604684D01*
X14494034Y-13499922D02*
X14503558Y-13480874D01*
X14503558Y-13480874D02*
X14522605Y-13471350D01*
X14522605Y-13471350D02*
X14551177Y-13471350D01*
X14551177Y-13471350D02*
X14570224Y-13480874D01*
X14570224Y-13480874D02*
X14579748Y-13499922D01*
X14579748Y-13499922D02*
X14579748Y-13604684D01*
X14674986Y-13604684D02*
X14674986Y-13471350D01*
X14674986Y-13490398D02*
X14684510Y-13480874D01*
X14684510Y-13480874D02*
X14703558Y-13471350D01*
X14703558Y-13471350D02*
X14732129Y-13471350D01*
X14732129Y-13471350D02*
X14751177Y-13480874D01*
X14751177Y-13480874D02*
X14760701Y-13499922D01*
X14760701Y-13499922D02*
X14760701Y-13604684D01*
X14760701Y-13499922D02*
X14770224Y-13480874D01*
X14770224Y-13480874D02*
X14789272Y-13471350D01*
X14789272Y-13471350D02*
X14817843Y-13471350D01*
X14817843Y-13471350D02*
X14836891Y-13480874D01*
X14836891Y-13480874D02*
X14846415Y-13499922D01*
X14846415Y-13499922D02*
X14846415Y-13604684D01*
X15236891Y-13395160D02*
X15065463Y-13652303D01*
X15494034Y-13404684D02*
X15513082Y-13404684D01*
X15513082Y-13404684D02*
X15532129Y-13414208D01*
X15532129Y-13414208D02*
X15541653Y-13423731D01*
X15541653Y-13423731D02*
X15551177Y-13442779D01*
X15551177Y-13442779D02*
X15560701Y-13480874D01*
X15560701Y-13480874D02*
X15560701Y-13528493D01*
X15560701Y-13528493D02*
X15551177Y-13566588D01*
X15551177Y-13566588D02*
X15541653Y-13585636D01*
X15541653Y-13585636D02*
X15532129Y-13595160D01*
X15532129Y-13595160D02*
X15513082Y-13604684D01*
X15513082Y-13604684D02*
X15494034Y-13604684D01*
X15494034Y-13604684D02*
X15474986Y-13595160D01*
X15474986Y-13595160D02*
X15465463Y-13585636D01*
X15465463Y-13585636D02*
X15455939Y-13566588D01*
X15455939Y-13566588D02*
X15446415Y-13528493D01*
X15446415Y-13528493D02*
X15446415Y-13480874D01*
X15446415Y-13480874D02*
X15455939Y-13442779D01*
X15455939Y-13442779D02*
X15465463Y-13423731D01*
X15465463Y-13423731D02*
X15474986Y-13414208D01*
X15474986Y-13414208D02*
X15494034Y-13404684D01*
X15646415Y-13585636D02*
X15655939Y-13595160D01*
X15655939Y-13595160D02*
X15646415Y-13604684D01*
X15646415Y-13604684D02*
X15636891Y-13595160D01*
X15636891Y-13595160D02*
X15646415Y-13585636D01*
X15646415Y-13585636D02*
X15646415Y-13604684D01*
X15779748Y-13404684D02*
X15798796Y-13404684D01*
X15798796Y-13404684D02*
X15817844Y-13414208D01*
X15817844Y-13414208D02*
X15827367Y-13423731D01*
X15827367Y-13423731D02*
X15836891Y-13442779D01*
X15836891Y-13442779D02*
X15846415Y-13480874D01*
X15846415Y-13480874D02*
X15846415Y-13528493D01*
X15846415Y-13528493D02*
X15836891Y-13566588D01*
X15836891Y-13566588D02*
X15827367Y-13585636D01*
X15827367Y-13585636D02*
X15817844Y-13595160D01*
X15817844Y-13595160D02*
X15798796Y-13604684D01*
X15798796Y-13604684D02*
X15779748Y-13604684D01*
X15779748Y-13604684D02*
X15760701Y-13595160D01*
X15760701Y-13595160D02*
X15751177Y-13585636D01*
X15751177Y-13585636D02*
X15741653Y-13566588D01*
X15741653Y-13566588D02*
X15732129Y-13528493D01*
X15732129Y-13528493D02*
X15732129Y-13480874D01*
X15732129Y-13480874D02*
X15741653Y-13442779D01*
X15741653Y-13442779D02*
X15751177Y-13423731D01*
X15751177Y-13423731D02*
X15760701Y-13414208D01*
X15760701Y-13414208D02*
X15779748Y-13404684D01*
X16027367Y-13404684D02*
X15932129Y-13404684D01*
X15932129Y-13404684D02*
X15922606Y-13499922D01*
X15922606Y-13499922D02*
X15932129Y-13490398D01*
X15932129Y-13490398D02*
X15951177Y-13480874D01*
X15951177Y-13480874D02*
X15998796Y-13480874D01*
X15998796Y-13480874D02*
X16017844Y-13490398D01*
X16017844Y-13490398D02*
X16027367Y-13499922D01*
X16027367Y-13499922D02*
X16036891Y-13518969D01*
X16036891Y-13518969D02*
X16036891Y-13566588D01*
X16036891Y-13566588D02*
X16027367Y-13585636D01*
X16027367Y-13585636D02*
X16017844Y-13595160D01*
X16017844Y-13595160D02*
X15998796Y-13604684D01*
X15998796Y-13604684D02*
X15951177Y-13604684D01*
X15951177Y-13604684D02*
X15932129Y-13595160D01*
X15932129Y-13595160D02*
X15922606Y-13585636D01*
X16132129Y-13604684D02*
X16170225Y-13604684D01*
X16170225Y-13604684D02*
X16189272Y-13595160D01*
X16189272Y-13595160D02*
X16198796Y-13585636D01*
X16198796Y-13585636D02*
X16217844Y-13557065D01*
X16217844Y-13557065D02*
X16227367Y-13518969D01*
X16227367Y-13518969D02*
X16227367Y-13442779D01*
X16227367Y-13442779D02*
X16217844Y-13423731D01*
X16217844Y-13423731D02*
X16208320Y-13414208D01*
X16208320Y-13414208D02*
X16189272Y-13404684D01*
X16189272Y-13404684D02*
X16151177Y-13404684D01*
X16151177Y-13404684D02*
X16132129Y-13414208D01*
X16132129Y-13414208D02*
X16122606Y-13423731D01*
X16122606Y-13423731D02*
X16113082Y-13442779D01*
X16113082Y-13442779D02*
X16113082Y-13490398D01*
X16113082Y-13490398D02*
X16122606Y-13509446D01*
X16122606Y-13509446D02*
X16132129Y-13518969D01*
X16132129Y-13518969D02*
X16151177Y-13528493D01*
X16151177Y-13528493D02*
X16189272Y-13528493D01*
X16189272Y-13528493D02*
X16208320Y-13518969D01*
X16208320Y-13518969D02*
X16217844Y-13509446D01*
X16217844Y-13509446D02*
X16227367Y-13490398D01*
X16417844Y-13604684D02*
X16303558Y-13604684D01*
X16360701Y-13604684D02*
X16360701Y-13404684D01*
X16360701Y-13404684D02*
X16341653Y-13433255D01*
X16341653Y-13433255D02*
X16322606Y-13452303D01*
X16322606Y-13452303D02*
X16303558Y-13461827D01*
X16494034Y-13404684D02*
X16494034Y-13442779D01*
X16570225Y-13404684D02*
X16570225Y-13442779D01*
X16865463Y-13680874D02*
X16855939Y-13671350D01*
X16855939Y-13671350D02*
X16836891Y-13642779D01*
X16836891Y-13642779D02*
X16827368Y-13623731D01*
X16827368Y-13623731D02*
X16817844Y-13595160D01*
X16817844Y-13595160D02*
X16808320Y-13547541D01*
X16808320Y-13547541D02*
X16808320Y-13509446D01*
X16808320Y-13509446D02*
X16817844Y-13461827D01*
X16817844Y-13461827D02*
X16827368Y-13433255D01*
X16827368Y-13433255D02*
X16836891Y-13414208D01*
X16836891Y-13414208D02*
X16855939Y-13385636D01*
X16855939Y-13385636D02*
X16865463Y-13376112D01*
X16932130Y-13423731D02*
X16941653Y-13414208D01*
X16941653Y-13414208D02*
X16960701Y-13404684D01*
X16960701Y-13404684D02*
X17008320Y-13404684D01*
X17008320Y-13404684D02*
X17027368Y-13414208D01*
X17027368Y-13414208D02*
X17036891Y-13423731D01*
X17036891Y-13423731D02*
X17046415Y-13442779D01*
X17046415Y-13442779D02*
X17046415Y-13461827D01*
X17046415Y-13461827D02*
X17036891Y-13490398D01*
X17036891Y-13490398D02*
X16922606Y-13604684D01*
X16922606Y-13604684D02*
X17046415Y-13604684D01*
X17284511Y-13604684D02*
X17284511Y-13404684D01*
X17370225Y-13604684D02*
X17370225Y-13499922D01*
X17370225Y-13499922D02*
X17360701Y-13480874D01*
X17360701Y-13480874D02*
X17341653Y-13471350D01*
X17341653Y-13471350D02*
X17313082Y-13471350D01*
X17313082Y-13471350D02*
X17294034Y-13480874D01*
X17294034Y-13480874D02*
X17284511Y-13490398D01*
X17494034Y-13604684D02*
X17474987Y-13595160D01*
X17474987Y-13595160D02*
X17465463Y-13585636D01*
X17465463Y-13585636D02*
X17455939Y-13566588D01*
X17455939Y-13566588D02*
X17455939Y-13509446D01*
X17455939Y-13509446D02*
X17465463Y-13490398D01*
X17465463Y-13490398D02*
X17474987Y-13480874D01*
X17474987Y-13480874D02*
X17494034Y-13471350D01*
X17494034Y-13471350D02*
X17522606Y-13471350D01*
X17522606Y-13471350D02*
X17541653Y-13480874D01*
X17541653Y-13480874D02*
X17551177Y-13490398D01*
X17551177Y-13490398D02*
X17560701Y-13509446D01*
X17560701Y-13509446D02*
X17560701Y-13566588D01*
X17560701Y-13566588D02*
X17551177Y-13585636D01*
X17551177Y-13585636D02*
X17541653Y-13595160D01*
X17541653Y-13595160D02*
X17522606Y-13604684D01*
X17522606Y-13604684D02*
X17494034Y-13604684D01*
X17674987Y-13604684D02*
X17655939Y-13595160D01*
X17655939Y-13595160D02*
X17646415Y-13576112D01*
X17646415Y-13576112D02*
X17646415Y-13404684D01*
X17827368Y-13595160D02*
X17808320Y-13604684D01*
X17808320Y-13604684D02*
X17770225Y-13604684D01*
X17770225Y-13604684D02*
X17751177Y-13595160D01*
X17751177Y-13595160D02*
X17741653Y-13576112D01*
X17741653Y-13576112D02*
X17741653Y-13499922D01*
X17741653Y-13499922D02*
X17751177Y-13480874D01*
X17751177Y-13480874D02*
X17770225Y-13471350D01*
X17770225Y-13471350D02*
X17808320Y-13471350D01*
X17808320Y-13471350D02*
X17827368Y-13480874D01*
X17827368Y-13480874D02*
X17836892Y-13499922D01*
X17836892Y-13499922D02*
X17836892Y-13518969D01*
X17836892Y-13518969D02*
X17741653Y-13538017D01*
X17913082Y-13595160D02*
X17932130Y-13604684D01*
X17932130Y-13604684D02*
X17970225Y-13604684D01*
X17970225Y-13604684D02*
X17989273Y-13595160D01*
X17989273Y-13595160D02*
X17998796Y-13576112D01*
X17998796Y-13576112D02*
X17998796Y-13566588D01*
X17998796Y-13566588D02*
X17989273Y-13547541D01*
X17989273Y-13547541D02*
X17970225Y-13538017D01*
X17970225Y-13538017D02*
X17941653Y-13538017D01*
X17941653Y-13538017D02*
X17922606Y-13528493D01*
X17922606Y-13528493D02*
X17913082Y-13509446D01*
X17913082Y-13509446D02*
X17913082Y-13499922D01*
X17913082Y-13499922D02*
X17922606Y-13480874D01*
X17922606Y-13480874D02*
X17941653Y-13471350D01*
X17941653Y-13471350D02*
X17970225Y-13471350D01*
X17970225Y-13471350D02*
X17989273Y-13480874D01*
X18065463Y-13680874D02*
X18074987Y-13671350D01*
X18074987Y-13671350D02*
X18094034Y-13642779D01*
X18094034Y-13642779D02*
X18103558Y-13623731D01*
X18103558Y-13623731D02*
X18113082Y-13595160D01*
X18113082Y-13595160D02*
X18122606Y-13547541D01*
X18122606Y-13547541D02*
X18122606Y-13509446D01*
X18122606Y-13509446D02*
X18113082Y-13461827D01*
X18113082Y-13461827D02*
X18103558Y-13433255D01*
X18103558Y-13433255D02*
X18094034Y-13414208D01*
X18094034Y-13414208D02*
X18074987Y-13385636D01*
X18074987Y-13385636D02*
X18065463Y-13376112D01*
X18427368Y-13680874D02*
X18417844Y-13671350D01*
X18417844Y-13671350D02*
X18398796Y-13642779D01*
X18398796Y-13642779D02*
X18389273Y-13623731D01*
X18389273Y-13623731D02*
X18379749Y-13595160D01*
X18379749Y-13595160D02*
X18370225Y-13547541D01*
X18370225Y-13547541D02*
X18370225Y-13509446D01*
X18370225Y-13509446D02*
X18379749Y-13461827D01*
X18379749Y-13461827D02*
X18389273Y-13433255D01*
X18389273Y-13433255D02*
X18398796Y-13414208D01*
X18398796Y-13414208D02*
X18417844Y-13385636D01*
X18417844Y-13385636D02*
X18427368Y-13376112D01*
X18503558Y-13471350D02*
X18503558Y-13604684D01*
X18503558Y-13490398D02*
X18513082Y-13480874D01*
X18513082Y-13480874D02*
X18532130Y-13471350D01*
X18532130Y-13471350D02*
X18560701Y-13471350D01*
X18560701Y-13471350D02*
X18579749Y-13480874D01*
X18579749Y-13480874D02*
X18589273Y-13499922D01*
X18589273Y-13499922D02*
X18589273Y-13604684D01*
X18713082Y-13604684D02*
X18694034Y-13595160D01*
X18694034Y-13595160D02*
X18684511Y-13585636D01*
X18684511Y-13585636D02*
X18674987Y-13566588D01*
X18674987Y-13566588D02*
X18674987Y-13509446D01*
X18674987Y-13509446D02*
X18684511Y-13490398D01*
X18684511Y-13490398D02*
X18694034Y-13480874D01*
X18694034Y-13480874D02*
X18713082Y-13471350D01*
X18713082Y-13471350D02*
X18741654Y-13471350D01*
X18741654Y-13471350D02*
X18760701Y-13480874D01*
X18760701Y-13480874D02*
X18770225Y-13490398D01*
X18770225Y-13490398D02*
X18779749Y-13509446D01*
X18779749Y-13509446D02*
X18779749Y-13566588D01*
X18779749Y-13566588D02*
X18770225Y-13585636D01*
X18770225Y-13585636D02*
X18760701Y-13595160D01*
X18760701Y-13595160D02*
X18741654Y-13604684D01*
X18741654Y-13604684D02*
X18713082Y-13604684D01*
X18836892Y-13471350D02*
X18913082Y-13471350D01*
X18865463Y-13404684D02*
X18865463Y-13576112D01*
X18865463Y-13576112D02*
X18874987Y-13595160D01*
X18874987Y-13595160D02*
X18894034Y-13604684D01*
X18894034Y-13604684D02*
X18913082Y-13604684D01*
X19132130Y-13471350D02*
X19132130Y-13671350D01*
X19132130Y-13480874D02*
X19151177Y-13471350D01*
X19151177Y-13471350D02*
X19189273Y-13471350D01*
X19189273Y-13471350D02*
X19208320Y-13480874D01*
X19208320Y-13480874D02*
X19217844Y-13490398D01*
X19217844Y-13490398D02*
X19227368Y-13509446D01*
X19227368Y-13509446D02*
X19227368Y-13566588D01*
X19227368Y-13566588D02*
X19217844Y-13585636D01*
X19217844Y-13585636D02*
X19208320Y-13595160D01*
X19208320Y-13595160D02*
X19189273Y-13604684D01*
X19189273Y-13604684D02*
X19151177Y-13604684D01*
X19151177Y-13604684D02*
X19132130Y-13595160D01*
X19341654Y-13604684D02*
X19322606Y-13595160D01*
X19322606Y-13595160D02*
X19313082Y-13576112D01*
X19313082Y-13576112D02*
X19313082Y-13404684D01*
X19503558Y-13604684D02*
X19503558Y-13499922D01*
X19503558Y-13499922D02*
X19494035Y-13480874D01*
X19494035Y-13480874D02*
X19474987Y-13471350D01*
X19474987Y-13471350D02*
X19436892Y-13471350D01*
X19436892Y-13471350D02*
X19417844Y-13480874D01*
X19503558Y-13595160D02*
X19484511Y-13604684D01*
X19484511Y-13604684D02*
X19436892Y-13604684D01*
X19436892Y-13604684D02*
X19417844Y-13595160D01*
X19417844Y-13595160D02*
X19408320Y-13576112D01*
X19408320Y-13576112D02*
X19408320Y-13557065D01*
X19408320Y-13557065D02*
X19417844Y-13538017D01*
X19417844Y-13538017D02*
X19436892Y-13528493D01*
X19436892Y-13528493D02*
X19484511Y-13528493D01*
X19484511Y-13528493D02*
X19503558Y-13518969D01*
X19570225Y-13471350D02*
X19646415Y-13471350D01*
X19598796Y-13404684D02*
X19598796Y-13576112D01*
X19598796Y-13576112D02*
X19608320Y-13595160D01*
X19608320Y-13595160D02*
X19627368Y-13604684D01*
X19627368Y-13604684D02*
X19646415Y-13604684D01*
X19789273Y-13595160D02*
X19770225Y-13604684D01*
X19770225Y-13604684D02*
X19732130Y-13604684D01*
X19732130Y-13604684D02*
X19713082Y-13595160D01*
X19713082Y-13595160D02*
X19703558Y-13576112D01*
X19703558Y-13576112D02*
X19703558Y-13499922D01*
X19703558Y-13499922D02*
X19713082Y-13480874D01*
X19713082Y-13480874D02*
X19732130Y-13471350D01*
X19732130Y-13471350D02*
X19770225Y-13471350D01*
X19770225Y-13471350D02*
X19789273Y-13480874D01*
X19789273Y-13480874D02*
X19798796Y-13499922D01*
X19798796Y-13499922D02*
X19798796Y-13518969D01*
X19798796Y-13518969D02*
X19703558Y-13538017D01*
X19970225Y-13604684D02*
X19970225Y-13404684D01*
X19970225Y-13595160D02*
X19951177Y-13604684D01*
X19951177Y-13604684D02*
X19913082Y-13604684D01*
X19913082Y-13604684D02*
X19894035Y-13595160D01*
X19894035Y-13595160D02*
X19884511Y-13585636D01*
X19884511Y-13585636D02*
X19874987Y-13566588D01*
X19874987Y-13566588D02*
X19874987Y-13509446D01*
X19874987Y-13509446D02*
X19884511Y-13490398D01*
X19884511Y-13490398D02*
X19894035Y-13480874D01*
X19894035Y-13480874D02*
X19913082Y-13471350D01*
X19913082Y-13471350D02*
X19951177Y-13471350D01*
X19951177Y-13471350D02*
X19970225Y-13480874D01*
X20046416Y-13680874D02*
X20055939Y-13671350D01*
X20055939Y-13671350D02*
X20074987Y-13642779D01*
X20074987Y-13642779D02*
X20084511Y-13623731D01*
X20084511Y-13623731D02*
X20094035Y-13595160D01*
X20094035Y-13595160D02*
X20103558Y-13547541D01*
X20103558Y-13547541D02*
X20103558Y-13509446D01*
X20103558Y-13509446D02*
X20094035Y-13461827D01*
X20094035Y-13461827D02*
X20084511Y-13433255D01*
X20084511Y-13433255D02*
X20074987Y-13414208D01*
X20074987Y-13414208D02*
X20055939Y-13385636D01*
X20055939Y-13385636D02*
X20046416Y-13376112D01*
D13*
X13290400Y-13783200D02*
G75*
G02*
X13110400Y-13783200I-90000J0D01*
G01*
X13110400Y-13783200D02*
G75*
G02*
X13290400Y-13783200I90000J0D01*
G01*
D11*
X13655939Y-13874684D02*
X13541653Y-13874684D01*
X13598796Y-13874684D02*
X13598796Y-13674684D01*
X13598796Y-13674684D02*
X13579748Y-13703255D01*
X13579748Y-13703255D02*
X13560701Y-13722303D01*
X13560701Y-13722303D02*
X13541653Y-13731827D01*
X13741653Y-13855636D02*
X13751177Y-13865160D01*
X13751177Y-13865160D02*
X13741653Y-13874684D01*
X13741653Y-13874684D02*
X13732129Y-13865160D01*
X13732129Y-13865160D02*
X13741653Y-13855636D01*
X13741653Y-13855636D02*
X13741653Y-13874684D01*
X13865462Y-13760398D02*
X13846415Y-13750874D01*
X13846415Y-13750874D02*
X13836891Y-13741350D01*
X13836891Y-13741350D02*
X13827367Y-13722303D01*
X13827367Y-13722303D02*
X13827367Y-13712779D01*
X13827367Y-13712779D02*
X13836891Y-13693731D01*
X13836891Y-13693731D02*
X13846415Y-13684208D01*
X13846415Y-13684208D02*
X13865462Y-13674684D01*
X13865462Y-13674684D02*
X13903558Y-13674684D01*
X13903558Y-13674684D02*
X13922605Y-13684208D01*
X13922605Y-13684208D02*
X13932129Y-13693731D01*
X13932129Y-13693731D02*
X13941653Y-13712779D01*
X13941653Y-13712779D02*
X13941653Y-13722303D01*
X13941653Y-13722303D02*
X13932129Y-13741350D01*
X13932129Y-13741350D02*
X13922605Y-13750874D01*
X13922605Y-13750874D02*
X13903558Y-13760398D01*
X13903558Y-13760398D02*
X13865462Y-13760398D01*
X13865462Y-13760398D02*
X13846415Y-13769922D01*
X13846415Y-13769922D02*
X13836891Y-13779446D01*
X13836891Y-13779446D02*
X13827367Y-13798493D01*
X13827367Y-13798493D02*
X13827367Y-13836588D01*
X13827367Y-13836588D02*
X13836891Y-13855636D01*
X13836891Y-13855636D02*
X13846415Y-13865160D01*
X13846415Y-13865160D02*
X13865462Y-13874684D01*
X13865462Y-13874684D02*
X13903558Y-13874684D01*
X13903558Y-13874684D02*
X13922605Y-13865160D01*
X13922605Y-13865160D02*
X13932129Y-13855636D01*
X13932129Y-13855636D02*
X13941653Y-13836588D01*
X13941653Y-13836588D02*
X13941653Y-13798493D01*
X13941653Y-13798493D02*
X13932129Y-13779446D01*
X13932129Y-13779446D02*
X13922605Y-13769922D01*
X13922605Y-13769922D02*
X13903558Y-13760398D01*
X14065462Y-13674684D02*
X14084510Y-13674684D01*
X14084510Y-13674684D02*
X14103558Y-13684208D01*
X14103558Y-13684208D02*
X14113082Y-13693731D01*
X14113082Y-13693731D02*
X14122605Y-13712779D01*
X14122605Y-13712779D02*
X14132129Y-13750874D01*
X14132129Y-13750874D02*
X14132129Y-13798493D01*
X14132129Y-13798493D02*
X14122605Y-13836588D01*
X14122605Y-13836588D02*
X14113082Y-13855636D01*
X14113082Y-13855636D02*
X14103558Y-13865160D01*
X14103558Y-13865160D02*
X14084510Y-13874684D01*
X14084510Y-13874684D02*
X14065462Y-13874684D01*
X14065462Y-13874684D02*
X14046415Y-13865160D01*
X14046415Y-13865160D02*
X14036891Y-13855636D01*
X14036891Y-13855636D02*
X14027367Y-13836588D01*
X14027367Y-13836588D02*
X14017843Y-13798493D01*
X14017843Y-13798493D02*
X14017843Y-13750874D01*
X14017843Y-13750874D02*
X14027367Y-13712779D01*
X14027367Y-13712779D02*
X14036891Y-13693731D01*
X14036891Y-13693731D02*
X14046415Y-13684208D01*
X14046415Y-13684208D02*
X14065462Y-13674684D01*
X14255939Y-13674684D02*
X14274986Y-13674684D01*
X14274986Y-13674684D02*
X14294034Y-13684208D01*
X14294034Y-13684208D02*
X14303558Y-13693731D01*
X14303558Y-13693731D02*
X14313082Y-13712779D01*
X14313082Y-13712779D02*
X14322605Y-13750874D01*
X14322605Y-13750874D02*
X14322605Y-13798493D01*
X14322605Y-13798493D02*
X14313082Y-13836588D01*
X14313082Y-13836588D02*
X14303558Y-13855636D01*
X14303558Y-13855636D02*
X14294034Y-13865160D01*
X14294034Y-13865160D02*
X14274986Y-13874684D01*
X14274986Y-13874684D02*
X14255939Y-13874684D01*
X14255939Y-13874684D02*
X14236891Y-13865160D01*
X14236891Y-13865160D02*
X14227367Y-13855636D01*
X14227367Y-13855636D02*
X14217843Y-13836588D01*
X14217843Y-13836588D02*
X14208320Y-13798493D01*
X14208320Y-13798493D02*
X14208320Y-13750874D01*
X14208320Y-13750874D02*
X14217843Y-13712779D01*
X14217843Y-13712779D02*
X14227367Y-13693731D01*
X14227367Y-13693731D02*
X14236891Y-13684208D01*
X14236891Y-13684208D02*
X14255939Y-13674684D01*
X14408320Y-13874684D02*
X14408320Y-13741350D01*
X14408320Y-13760398D02*
X14417843Y-13750874D01*
X14417843Y-13750874D02*
X14436891Y-13741350D01*
X14436891Y-13741350D02*
X14465463Y-13741350D01*
X14465463Y-13741350D02*
X14484510Y-13750874D01*
X14484510Y-13750874D02*
X14494034Y-13769922D01*
X14494034Y-13769922D02*
X14494034Y-13874684D01*
X14494034Y-13769922D02*
X14503558Y-13750874D01*
X14503558Y-13750874D02*
X14522605Y-13741350D01*
X14522605Y-13741350D02*
X14551177Y-13741350D01*
X14551177Y-13741350D02*
X14570224Y-13750874D01*
X14570224Y-13750874D02*
X14579748Y-13769922D01*
X14579748Y-13769922D02*
X14579748Y-13874684D01*
X14674986Y-13874684D02*
X14674986Y-13741350D01*
X14674986Y-13760398D02*
X14684510Y-13750874D01*
X14684510Y-13750874D02*
X14703558Y-13741350D01*
X14703558Y-13741350D02*
X14732129Y-13741350D01*
X14732129Y-13741350D02*
X14751177Y-13750874D01*
X14751177Y-13750874D02*
X14760701Y-13769922D01*
X14760701Y-13769922D02*
X14760701Y-13874684D01*
X14760701Y-13769922D02*
X14770224Y-13750874D01*
X14770224Y-13750874D02*
X14789272Y-13741350D01*
X14789272Y-13741350D02*
X14817843Y-13741350D01*
X14817843Y-13741350D02*
X14836891Y-13750874D01*
X14836891Y-13750874D02*
X14846415Y-13769922D01*
X14846415Y-13769922D02*
X14846415Y-13874684D01*
X15236891Y-13665160D02*
X15065463Y-13922303D01*
X15494034Y-13674684D02*
X15513082Y-13674684D01*
X15513082Y-13674684D02*
X15532129Y-13684208D01*
X15532129Y-13684208D02*
X15541653Y-13693731D01*
X15541653Y-13693731D02*
X15551177Y-13712779D01*
X15551177Y-13712779D02*
X15560701Y-13750874D01*
X15560701Y-13750874D02*
X15560701Y-13798493D01*
X15560701Y-13798493D02*
X15551177Y-13836588D01*
X15551177Y-13836588D02*
X15541653Y-13855636D01*
X15541653Y-13855636D02*
X15532129Y-13865160D01*
X15532129Y-13865160D02*
X15513082Y-13874684D01*
X15513082Y-13874684D02*
X15494034Y-13874684D01*
X15494034Y-13874684D02*
X15474986Y-13865160D01*
X15474986Y-13865160D02*
X15465463Y-13855636D01*
X15465463Y-13855636D02*
X15455939Y-13836588D01*
X15455939Y-13836588D02*
X15446415Y-13798493D01*
X15446415Y-13798493D02*
X15446415Y-13750874D01*
X15446415Y-13750874D02*
X15455939Y-13712779D01*
X15455939Y-13712779D02*
X15465463Y-13693731D01*
X15465463Y-13693731D02*
X15474986Y-13684208D01*
X15474986Y-13684208D02*
X15494034Y-13674684D01*
X15646415Y-13855636D02*
X15655939Y-13865160D01*
X15655939Y-13865160D02*
X15646415Y-13874684D01*
X15646415Y-13874684D02*
X15636891Y-13865160D01*
X15636891Y-13865160D02*
X15646415Y-13855636D01*
X15646415Y-13855636D02*
X15646415Y-13874684D01*
X15779748Y-13674684D02*
X15798796Y-13674684D01*
X15798796Y-13674684D02*
X15817844Y-13684208D01*
X15817844Y-13684208D02*
X15827367Y-13693731D01*
X15827367Y-13693731D02*
X15836891Y-13712779D01*
X15836891Y-13712779D02*
X15846415Y-13750874D01*
X15846415Y-13750874D02*
X15846415Y-13798493D01*
X15846415Y-13798493D02*
X15836891Y-13836588D01*
X15836891Y-13836588D02*
X15827367Y-13855636D01*
X15827367Y-13855636D02*
X15817844Y-13865160D01*
X15817844Y-13865160D02*
X15798796Y-13874684D01*
X15798796Y-13874684D02*
X15779748Y-13874684D01*
X15779748Y-13874684D02*
X15760701Y-13865160D01*
X15760701Y-13865160D02*
X15751177Y-13855636D01*
X15751177Y-13855636D02*
X15741653Y-13836588D01*
X15741653Y-13836588D02*
X15732129Y-13798493D01*
X15732129Y-13798493D02*
X15732129Y-13750874D01*
X15732129Y-13750874D02*
X15741653Y-13712779D01*
X15741653Y-13712779D02*
X15751177Y-13693731D01*
X15751177Y-13693731D02*
X15760701Y-13684208D01*
X15760701Y-13684208D02*
X15779748Y-13674684D01*
X15913082Y-13674684D02*
X16046415Y-13674684D01*
X16046415Y-13674684D02*
X15960701Y-13874684D01*
X16160701Y-13674684D02*
X16179748Y-13674684D01*
X16179748Y-13674684D02*
X16198796Y-13684208D01*
X16198796Y-13684208D02*
X16208320Y-13693731D01*
X16208320Y-13693731D02*
X16217844Y-13712779D01*
X16217844Y-13712779D02*
X16227367Y-13750874D01*
X16227367Y-13750874D02*
X16227367Y-13798493D01*
X16227367Y-13798493D02*
X16217844Y-13836588D01*
X16217844Y-13836588D02*
X16208320Y-13855636D01*
X16208320Y-13855636D02*
X16198796Y-13865160D01*
X16198796Y-13865160D02*
X16179748Y-13874684D01*
X16179748Y-13874684D02*
X16160701Y-13874684D01*
X16160701Y-13874684D02*
X16141653Y-13865160D01*
X16141653Y-13865160D02*
X16132129Y-13855636D01*
X16132129Y-13855636D02*
X16122606Y-13836588D01*
X16122606Y-13836588D02*
X16113082Y-13798493D01*
X16113082Y-13798493D02*
X16113082Y-13750874D01*
X16113082Y-13750874D02*
X16122606Y-13712779D01*
X16122606Y-13712779D02*
X16132129Y-13693731D01*
X16132129Y-13693731D02*
X16141653Y-13684208D01*
X16141653Y-13684208D02*
X16160701Y-13674684D01*
X16322606Y-13874684D02*
X16360701Y-13874684D01*
X16360701Y-13874684D02*
X16379748Y-13865160D01*
X16379748Y-13865160D02*
X16389272Y-13855636D01*
X16389272Y-13855636D02*
X16408320Y-13827065D01*
X16408320Y-13827065D02*
X16417844Y-13788969D01*
X16417844Y-13788969D02*
X16417844Y-13712779D01*
X16417844Y-13712779D02*
X16408320Y-13693731D01*
X16408320Y-13693731D02*
X16398796Y-13684208D01*
X16398796Y-13684208D02*
X16379748Y-13674684D01*
X16379748Y-13674684D02*
X16341653Y-13674684D01*
X16341653Y-13674684D02*
X16322606Y-13684208D01*
X16322606Y-13684208D02*
X16313082Y-13693731D01*
X16313082Y-13693731D02*
X16303558Y-13712779D01*
X16303558Y-13712779D02*
X16303558Y-13760398D01*
X16303558Y-13760398D02*
X16313082Y-13779446D01*
X16313082Y-13779446D02*
X16322606Y-13788969D01*
X16322606Y-13788969D02*
X16341653Y-13798493D01*
X16341653Y-13798493D02*
X16379748Y-13798493D01*
X16379748Y-13798493D02*
X16398796Y-13788969D01*
X16398796Y-13788969D02*
X16408320Y-13779446D01*
X16408320Y-13779446D02*
X16417844Y-13760398D01*
X16494034Y-13674684D02*
X16494034Y-13712779D01*
X16570225Y-13674684D02*
X16570225Y-13712779D01*
X16865463Y-13950874D02*
X16855939Y-13941350D01*
X16855939Y-13941350D02*
X16836891Y-13912779D01*
X16836891Y-13912779D02*
X16827368Y-13893731D01*
X16827368Y-13893731D02*
X16817844Y-13865160D01*
X16817844Y-13865160D02*
X16808320Y-13817541D01*
X16808320Y-13817541D02*
X16808320Y-13779446D01*
X16808320Y-13779446D02*
X16817844Y-13731827D01*
X16817844Y-13731827D02*
X16827368Y-13703255D01*
X16827368Y-13703255D02*
X16836891Y-13684208D01*
X16836891Y-13684208D02*
X16855939Y-13655636D01*
X16855939Y-13655636D02*
X16865463Y-13646112D01*
X16932130Y-13693731D02*
X16941653Y-13684208D01*
X16941653Y-13684208D02*
X16960701Y-13674684D01*
X16960701Y-13674684D02*
X17008320Y-13674684D01*
X17008320Y-13674684D02*
X17027368Y-13684208D01*
X17027368Y-13684208D02*
X17036891Y-13693731D01*
X17036891Y-13693731D02*
X17046415Y-13712779D01*
X17046415Y-13712779D02*
X17046415Y-13731827D01*
X17046415Y-13731827D02*
X17036891Y-13760398D01*
X17036891Y-13760398D02*
X16922606Y-13874684D01*
X16922606Y-13874684D02*
X17046415Y-13874684D01*
X17284511Y-13874684D02*
X17284511Y-13674684D01*
X17370225Y-13874684D02*
X17370225Y-13769922D01*
X17370225Y-13769922D02*
X17360701Y-13750874D01*
X17360701Y-13750874D02*
X17341653Y-13741350D01*
X17341653Y-13741350D02*
X17313082Y-13741350D01*
X17313082Y-13741350D02*
X17294034Y-13750874D01*
X17294034Y-13750874D02*
X17284511Y-13760398D01*
X17494034Y-13874684D02*
X17474987Y-13865160D01*
X17474987Y-13865160D02*
X17465463Y-13855636D01*
X17465463Y-13855636D02*
X17455939Y-13836588D01*
X17455939Y-13836588D02*
X17455939Y-13779446D01*
X17455939Y-13779446D02*
X17465463Y-13760398D01*
X17465463Y-13760398D02*
X17474987Y-13750874D01*
X17474987Y-13750874D02*
X17494034Y-13741350D01*
X17494034Y-13741350D02*
X17522606Y-13741350D01*
X17522606Y-13741350D02*
X17541653Y-13750874D01*
X17541653Y-13750874D02*
X17551177Y-13760398D01*
X17551177Y-13760398D02*
X17560701Y-13779446D01*
X17560701Y-13779446D02*
X17560701Y-13836588D01*
X17560701Y-13836588D02*
X17551177Y-13855636D01*
X17551177Y-13855636D02*
X17541653Y-13865160D01*
X17541653Y-13865160D02*
X17522606Y-13874684D01*
X17522606Y-13874684D02*
X17494034Y-13874684D01*
X17674987Y-13874684D02*
X17655939Y-13865160D01*
X17655939Y-13865160D02*
X17646415Y-13846112D01*
X17646415Y-13846112D02*
X17646415Y-13674684D01*
X17827368Y-13865160D02*
X17808320Y-13874684D01*
X17808320Y-13874684D02*
X17770225Y-13874684D01*
X17770225Y-13874684D02*
X17751177Y-13865160D01*
X17751177Y-13865160D02*
X17741653Y-13846112D01*
X17741653Y-13846112D02*
X17741653Y-13769922D01*
X17741653Y-13769922D02*
X17751177Y-13750874D01*
X17751177Y-13750874D02*
X17770225Y-13741350D01*
X17770225Y-13741350D02*
X17808320Y-13741350D01*
X17808320Y-13741350D02*
X17827368Y-13750874D01*
X17827368Y-13750874D02*
X17836892Y-13769922D01*
X17836892Y-13769922D02*
X17836892Y-13788969D01*
X17836892Y-13788969D02*
X17741653Y-13808017D01*
X17913082Y-13865160D02*
X17932130Y-13874684D01*
X17932130Y-13874684D02*
X17970225Y-13874684D01*
X17970225Y-13874684D02*
X17989273Y-13865160D01*
X17989273Y-13865160D02*
X17998796Y-13846112D01*
X17998796Y-13846112D02*
X17998796Y-13836588D01*
X17998796Y-13836588D02*
X17989273Y-13817541D01*
X17989273Y-13817541D02*
X17970225Y-13808017D01*
X17970225Y-13808017D02*
X17941653Y-13808017D01*
X17941653Y-13808017D02*
X17922606Y-13798493D01*
X17922606Y-13798493D02*
X17913082Y-13779446D01*
X17913082Y-13779446D02*
X17913082Y-13769922D01*
X17913082Y-13769922D02*
X17922606Y-13750874D01*
X17922606Y-13750874D02*
X17941653Y-13741350D01*
X17941653Y-13741350D02*
X17970225Y-13741350D01*
X17970225Y-13741350D02*
X17989273Y-13750874D01*
X18065463Y-13950874D02*
X18074987Y-13941350D01*
X18074987Y-13941350D02*
X18094034Y-13912779D01*
X18094034Y-13912779D02*
X18103558Y-13893731D01*
X18103558Y-13893731D02*
X18113082Y-13865160D01*
X18113082Y-13865160D02*
X18122606Y-13817541D01*
X18122606Y-13817541D02*
X18122606Y-13779446D01*
X18122606Y-13779446D02*
X18113082Y-13731827D01*
X18113082Y-13731827D02*
X18103558Y-13703255D01*
X18103558Y-13703255D02*
X18094034Y-13684208D01*
X18094034Y-13684208D02*
X18074987Y-13655636D01*
X18074987Y-13655636D02*
X18065463Y-13646112D01*
X18427368Y-13950874D02*
X18417844Y-13941350D01*
X18417844Y-13941350D02*
X18398796Y-13912779D01*
X18398796Y-13912779D02*
X18389273Y-13893731D01*
X18389273Y-13893731D02*
X18379749Y-13865160D01*
X18379749Y-13865160D02*
X18370225Y-13817541D01*
X18370225Y-13817541D02*
X18370225Y-13779446D01*
X18370225Y-13779446D02*
X18379749Y-13731827D01*
X18379749Y-13731827D02*
X18389273Y-13703255D01*
X18389273Y-13703255D02*
X18398796Y-13684208D01*
X18398796Y-13684208D02*
X18417844Y-13655636D01*
X18417844Y-13655636D02*
X18427368Y-13646112D01*
X18503558Y-13741350D02*
X18503558Y-13874684D01*
X18503558Y-13760398D02*
X18513082Y-13750874D01*
X18513082Y-13750874D02*
X18532130Y-13741350D01*
X18532130Y-13741350D02*
X18560701Y-13741350D01*
X18560701Y-13741350D02*
X18579749Y-13750874D01*
X18579749Y-13750874D02*
X18589273Y-13769922D01*
X18589273Y-13769922D02*
X18589273Y-13874684D01*
X18713082Y-13874684D02*
X18694034Y-13865160D01*
X18694034Y-13865160D02*
X18684511Y-13855636D01*
X18684511Y-13855636D02*
X18674987Y-13836588D01*
X18674987Y-13836588D02*
X18674987Y-13779446D01*
X18674987Y-13779446D02*
X18684511Y-13760398D01*
X18684511Y-13760398D02*
X18694034Y-13750874D01*
X18694034Y-13750874D02*
X18713082Y-13741350D01*
X18713082Y-13741350D02*
X18741654Y-13741350D01*
X18741654Y-13741350D02*
X18760701Y-13750874D01*
X18760701Y-13750874D02*
X18770225Y-13760398D01*
X18770225Y-13760398D02*
X18779749Y-13779446D01*
X18779749Y-13779446D02*
X18779749Y-13836588D01*
X18779749Y-13836588D02*
X18770225Y-13855636D01*
X18770225Y-13855636D02*
X18760701Y-13865160D01*
X18760701Y-13865160D02*
X18741654Y-13874684D01*
X18741654Y-13874684D02*
X18713082Y-13874684D01*
X18836892Y-13741350D02*
X18913082Y-13741350D01*
X18865463Y-13674684D02*
X18865463Y-13846112D01*
X18865463Y-13846112D02*
X18874987Y-13865160D01*
X18874987Y-13865160D02*
X18894034Y-13874684D01*
X18894034Y-13874684D02*
X18913082Y-13874684D01*
X19132130Y-13741350D02*
X19132130Y-13941350D01*
X19132130Y-13750874D02*
X19151177Y-13741350D01*
X19151177Y-13741350D02*
X19189273Y-13741350D01*
X19189273Y-13741350D02*
X19208320Y-13750874D01*
X19208320Y-13750874D02*
X19217844Y-13760398D01*
X19217844Y-13760398D02*
X19227368Y-13779446D01*
X19227368Y-13779446D02*
X19227368Y-13836588D01*
X19227368Y-13836588D02*
X19217844Y-13855636D01*
X19217844Y-13855636D02*
X19208320Y-13865160D01*
X19208320Y-13865160D02*
X19189273Y-13874684D01*
X19189273Y-13874684D02*
X19151177Y-13874684D01*
X19151177Y-13874684D02*
X19132130Y-13865160D01*
X19341654Y-13874684D02*
X19322606Y-13865160D01*
X19322606Y-13865160D02*
X19313082Y-13846112D01*
X19313082Y-13846112D02*
X19313082Y-13674684D01*
X19503558Y-13874684D02*
X19503558Y-13769922D01*
X19503558Y-13769922D02*
X19494035Y-13750874D01*
X19494035Y-13750874D02*
X19474987Y-13741350D01*
X19474987Y-13741350D02*
X19436892Y-13741350D01*
X19436892Y-13741350D02*
X19417844Y-13750874D01*
X19503558Y-13865160D02*
X19484511Y-13874684D01*
X19484511Y-13874684D02*
X19436892Y-13874684D01*
X19436892Y-13874684D02*
X19417844Y-13865160D01*
X19417844Y-13865160D02*
X19408320Y-13846112D01*
X19408320Y-13846112D02*
X19408320Y-13827065D01*
X19408320Y-13827065D02*
X19417844Y-13808017D01*
X19417844Y-13808017D02*
X19436892Y-13798493D01*
X19436892Y-13798493D02*
X19484511Y-13798493D01*
X19484511Y-13798493D02*
X19503558Y-13788969D01*
X19570225Y-13741350D02*
X19646415Y-13741350D01*
X19598796Y-13674684D02*
X19598796Y-13846112D01*
X19598796Y-13846112D02*
X19608320Y-13865160D01*
X19608320Y-13865160D02*
X19627368Y-13874684D01*
X19627368Y-13874684D02*
X19646415Y-13874684D01*
X19789273Y-13865160D02*
X19770225Y-13874684D01*
X19770225Y-13874684D02*
X19732130Y-13874684D01*
X19732130Y-13874684D02*
X19713082Y-13865160D01*
X19713082Y-13865160D02*
X19703558Y-13846112D01*
X19703558Y-13846112D02*
X19703558Y-13769922D01*
X19703558Y-13769922D02*
X19713082Y-13750874D01*
X19713082Y-13750874D02*
X19732130Y-13741350D01*
X19732130Y-13741350D02*
X19770225Y-13741350D01*
X19770225Y-13741350D02*
X19789273Y-13750874D01*
X19789273Y-13750874D02*
X19798796Y-13769922D01*
X19798796Y-13769922D02*
X19798796Y-13788969D01*
X19798796Y-13788969D02*
X19703558Y-13808017D01*
X19970225Y-13874684D02*
X19970225Y-13674684D01*
X19970225Y-13865160D02*
X19951177Y-13874684D01*
X19951177Y-13874684D02*
X19913082Y-13874684D01*
X19913082Y-13874684D02*
X19894035Y-13865160D01*
X19894035Y-13865160D02*
X19884511Y-13855636D01*
X19884511Y-13855636D02*
X19874987Y-13836588D01*
X19874987Y-13836588D02*
X19874987Y-13779446D01*
X19874987Y-13779446D02*
X19884511Y-13760398D01*
X19884511Y-13760398D02*
X19894035Y-13750874D01*
X19894035Y-13750874D02*
X19913082Y-13741350D01*
X19913082Y-13741350D02*
X19951177Y-13741350D01*
X19951177Y-13741350D02*
X19970225Y-13750874D01*
X20046416Y-13950874D02*
X20055939Y-13941350D01*
X20055939Y-13941350D02*
X20074987Y-13912779D01*
X20074987Y-13912779D02*
X20084511Y-13893731D01*
X20084511Y-13893731D02*
X20094035Y-13865160D01*
X20094035Y-13865160D02*
X20103558Y-13817541D01*
X20103558Y-13817541D02*
X20103558Y-13779446D01*
X20103558Y-13779446D02*
X20094035Y-13731827D01*
X20094035Y-13731827D02*
X20084511Y-13703255D01*
X20084511Y-13703255D02*
X20074987Y-13684208D01*
X20074987Y-13684208D02*
X20055939Y-13655636D01*
X20055939Y-13655636D02*
X20046416Y-13646112D01*
M02*
