M48
; DRILL file {KiCad 8.0.6-8.0.6-0~ubuntu22.04.1} date 2024-11-07T23:47:00-0800
; FORMAT={-:-/ absolute / metric / decimal}
; #@! TF.CreationDate,2024-11-07T23:47:00-08:00
; #@! TF.GenerationSoftware,Kicad,Pcbnew,8.0.6-8.0.6-0~ubuntu22.04.1
; #@! TF.FileFunction,Plated,1,2,PTH
FMAT,2
METRIC
; #@! TA.AperFunction,Plated,PTH,ViaDrill
T1C0.400
; #@! TA.AperFunction,Plated,PTH,ComponentDrill
T2C1.000
; #@! TA.AperFunction,Plated,PTH,ComponentDrill
T3C1.020
; #@! TA.AperFunction,Plated,PTH,ComponentDrill
T4C3.000
%
G90
G05
T1
X134.1Y-98.7
X134.2Y-102.7
X134.7Y-108.0
X136.3Y-110.9
X136.4Y-106.1
X136.4Y-115.7
X137.8Y-104.3
X138.1Y-66.9
X138.1Y-78.0
X138.1Y-86.6
X138.1Y-90.7
X138.2Y-94.5
X138.5Y-59.6
X139.2Y-109.1
X139.3Y-114.0
X139.7Y-65.2
X139.8Y-47.3
X139.8Y-52.7
X139.9Y-55.3
X139.9Y-118.4
X140.0Y-121.1
X140.2Y-103.9
X141.0Y-69.0
X141.7Y-63.2
X141.8Y-68.2
X142.2Y-104.9
X143.8Y-66.6
X144.4Y-105.3
X144.5Y-112.6
X144.6Y-60.3
X144.6Y-115.7
X144.6Y-118.9
X145.0Y-106.9
X145.4Y-121.4
X145.5Y-110.1
X145.9Y-64.7
X146.1Y-77.6
X146.1Y-83.8
X146.1Y-105.3
X146.2Y-68.2
X147.0Y-54.6
X147.5Y-57.3
X147.8Y-113.4
X147.9Y-111.0
X148.1Y-120.9
X148.9Y-61.6
X150.6Y-104.6
X151.0Y-59.2
X151.1Y-121.1
X151.2Y-63.5
X151.2Y-65.4
X151.2Y-71.4
X151.2Y-77.8
X151.2Y-80.4
X151.4Y-47.3
X151.4Y-87.9
X151.5Y-94.5
X151.7Y-90.7
X152.4Y-55.8
X152.5Y-51.3
X152.5Y-53.8
X153.4Y-110.6
X153.4Y-115.7
X153.6Y-105.0
X156.3Y-99.7
X156.3Y-105.0
X156.3Y-110.7
X156.4Y-115.7
T2
X139.122Y-101.198
X141.662Y-101.198
X144.202Y-101.198
X146.742Y-101.198
X149.282Y-101.198
X151.822Y-101.198
T3
X136.575Y-47.422
X136.575Y-49.962
X136.575Y-52.502
X136.575Y-55.042
X136.575Y-57.582
X136.575Y-60.122
X136.575Y-62.662
X136.575Y-65.202
X136.575Y-67.742
X136.575Y-70.282
X136.575Y-72.822
X136.575Y-75.362
X136.575Y-77.902
X136.575Y-80.442
X136.575Y-82.982
X136.575Y-85.522
X136.575Y-88.062
X136.575Y-90.602
X136.575Y-93.142
X136.575Y-95.682
X142.925Y-95.452
X145.465Y-95.452
X148.005Y-95.452
X154.355Y-47.422
X154.355Y-49.962
X154.355Y-52.502
X154.355Y-55.042
X154.355Y-57.582
X154.355Y-60.122
X154.355Y-62.662
X154.355Y-65.202
X154.355Y-67.742
X154.355Y-70.282
X154.355Y-72.822
X154.355Y-75.362
X154.355Y-77.902
X154.355Y-80.442
X154.355Y-82.982
X154.355Y-85.522
X154.355Y-88.062
X154.355Y-90.602
X154.355Y-93.142
X154.355Y-95.682
T4
X136.25Y-119.37
X145.344Y-87.757
X154.45Y-119.35
M30
