%TF.GenerationSoftware,KiCad,Pcbnew,8.0.6-8.0.6-0~ubuntu22.04.1*%
%TF.CreationDate,2024-11-07T17:30:12-08:00*%
%TF.ProjectId,gbvideo_breakout,67627669-6465-46f5-9f62-7265616b6f75,rev?*%
%TF.SameCoordinates,Original*%
%TF.FileFunction,Copper,L2,Bot*%
%TF.FilePolarity,Positive*%
%FSLAX46Y46*%
G04 Gerber Fmt 4.6, Leading zero omitted, Abs format (unit mm)*
G04 Created by KiCad (PCBNEW 8.0.6-8.0.6-0~ubuntu22.04.1) date 2024-11-07 17:30:12*
%MOMM*%
%LPD*%
G01*
G04 APERTURE LIST*
%TA.AperFunction,ConnectorPad*%
%ADD10R,1.000000X5.000000*%
%TD*%
%TA.AperFunction,ComponentPad*%
%ADD11O,1.700000X1.700000*%
%TD*%
%TA.AperFunction,ComponentPad*%
%ADD12R,1.700000X1.700000*%
%TD*%
%TA.AperFunction,ViaPad*%
%ADD13C,0.800000*%
%TD*%
%TA.AperFunction,Conductor*%
%ADD14C,0.250000*%
%TD*%
G04 APERTURE END LIST*
D10*
%TO.P,GB1,5,SC*%
%TO.N,CLK_5V*%
X146074000Y-90152800D03*
%TO.P,GB1,3,SI*%
%TO.N,RX_5V*%
X144074000Y-90152800D03*
%TO.P,GB1,1,VDD35*%
%TO.N,unconnected-(GB1-VDD35-Pad1)*%
X142074000Y-90152800D03*
%TD*%
D11*
%TO.P,J1,6,Pin_6*%
%TO.N,GND*%
X150551600Y-67851600D03*
%TO.P,J1,5,Pin_5*%
%TO.N,CLK_3V3*%
X148011600Y-67851600D03*
%TO.P,J1,4,Pin_4*%
%TO.N,RX_3V3*%
X145471600Y-67851600D03*
%TO.P,J1,3,Pin_3*%
%TO.N,TX_3V3*%
X142931600Y-67851600D03*
%TO.P,J1,2,Pin_2*%
%TO.N,+3.3V*%
X140391600Y-67851600D03*
D12*
%TO.P,J1,1,Pin_1*%
%TO.N,+5V*%
X137851600Y-67851600D03*
%TD*%
D13*
%TO.N,GND*%
X141198600Y-71501000D03*
X149275800Y-67056000D03*
X149301200Y-68656200D03*
X136474200Y-81635600D03*
X137718800Y-86258400D03*
X141732000Y-84709000D03*
X148971000Y-78613000D03*
X138404600Y-74904600D03*
X141300200Y-73710800D03*
X136448800Y-70332600D03*
X151790400Y-69621400D03*
X147497800Y-75438000D03*
X147624800Y-77495400D03*
X146278600Y-81584800D03*
X136550400Y-83159600D03*
X136525000Y-84963000D03*
X141706600Y-81254600D03*
X146177000Y-85039200D03*
%TO.N,CLK_5V*%
X146335200Y-86698400D03*
%TO.N,RX_5V*%
X143947600Y-86038000D03*
%TO.N,CLK_3V3*%
X149688000Y-72880800D03*
X148011600Y-69426400D03*
%TO.N,RX_3V3*%
X144703800Y-81280000D03*
X144455600Y-69578800D03*
%TO.N,TX_3V3*%
X137997000Y-81205000D03*
X143388800Y-69545200D03*
%TO.N,+5V*%
X146538400Y-83447200D03*
X140442400Y-83294800D03*
%TD*%
D14*
%TO.N,RX_3V3*%
X144703800Y-81280000D02*
X144455600Y-81031800D01*
X144455600Y-81031800D02*
X144455600Y-69578800D01*
%TO.N,TX_3V3*%
X137997000Y-81205000D02*
X137750000Y-80958000D01*
X137750000Y-80958000D02*
X137750000Y-79840400D01*
X137750000Y-79840400D02*
X143388800Y-74201600D01*
X143388800Y-74201600D02*
X143388800Y-69545200D01*
%TO.N,CLK_5V*%
X146335200Y-86698400D02*
X146335200Y-89891600D01*
X146335200Y-89891600D02*
X146074000Y-90152800D01*
%TO.N,RX_5V*%
X143947600Y-86038000D02*
X143947600Y-90026400D01*
X143947600Y-90026400D02*
X144074000Y-90152800D01*
%TO.N,CLK_3V3*%
X149688000Y-72880800D02*
X149688000Y-71102800D01*
X149688000Y-71102800D02*
X148011600Y-69426400D01*
%TO.N,+5V*%
X146538400Y-83447200D02*
X140594800Y-83447200D01*
X140594800Y-83447200D02*
X140442400Y-83294800D01*
%TD*%
%TA.AperFunction,Conductor*%
%TO.N,GND*%
G36*
X152220263Y-66207785D02*
G01*
X152266018Y-66260589D01*
X152277223Y-66312121D01*
X152274596Y-80994876D01*
X152273866Y-85074711D01*
X152273866Y-85074712D01*
X152273858Y-85117871D01*
X152273541Y-85126715D01*
X152257153Y-85355302D01*
X152254632Y-85372811D01*
X152206832Y-85592384D01*
X152201846Y-85609357D01*
X152123284Y-85819906D01*
X152115933Y-85835996D01*
X152008216Y-86033212D01*
X151998651Y-86048093D01*
X151863961Y-86227982D01*
X151852376Y-86241350D01*
X151693458Y-86400245D01*
X151680088Y-86411828D01*
X151500182Y-86546488D01*
X151485300Y-86556051D01*
X151288065Y-86663740D01*
X151271974Y-86671089D01*
X151149664Y-86716706D01*
X151096090Y-86736687D01*
X151061413Y-86749620D01*
X151044439Y-86754603D01*
X150824854Y-86802371D01*
X150807345Y-86804889D01*
X150597693Y-86819887D01*
X150579576Y-86821184D01*
X150570729Y-86821500D01*
X147495153Y-86821500D01*
X147387119Y-86842989D01*
X147317527Y-86836762D01*
X147262350Y-86793898D01*
X147239106Y-86728008D01*
X147239608Y-86708407D01*
X147240660Y-86698400D01*
X147220874Y-86510144D01*
X147162379Y-86330116D01*
X147067733Y-86166184D01*
X146941071Y-86025512D01*
X146941070Y-86025511D01*
X146787934Y-85914251D01*
X146787929Y-85914248D01*
X146615007Y-85837257D01*
X146615002Y-85837255D01*
X146469201Y-85806265D01*
X146429846Y-85797900D01*
X146240554Y-85797900D01*
X146208097Y-85804798D01*
X146055397Y-85837255D01*
X146055392Y-85837257D01*
X145882470Y-85914248D01*
X145882465Y-85914251D01*
X145729329Y-86025511D01*
X145602666Y-86166185D01*
X145508021Y-86330115D01*
X145508018Y-86330122D01*
X145449527Y-86510140D01*
X145449526Y-86510144D01*
X145429740Y-86698400D01*
X145449526Y-86886656D01*
X145449527Y-86886659D01*
X145493492Y-87021970D01*
X145495487Y-87091811D01*
X145459407Y-87151644D01*
X145418895Y-87176470D01*
X145331669Y-87209003D01*
X145331664Y-87209006D01*
X145216455Y-87295252D01*
X145173266Y-87352945D01*
X145117332Y-87394815D01*
X145047640Y-87399799D01*
X144986317Y-87366313D01*
X144974734Y-87352945D01*
X144951805Y-87322317D01*
X144931546Y-87295254D01*
X144931544Y-87295253D01*
X144931544Y-87295252D01*
X144816335Y-87209006D01*
X144816328Y-87209002D01*
X144681482Y-87158708D01*
X144673938Y-87156926D01*
X144674382Y-87155046D01*
X144619281Y-87132214D01*
X144579440Y-87074817D01*
X144573100Y-87035673D01*
X144573100Y-86736687D01*
X144592785Y-86669648D01*
X144604950Y-86653715D01*
X144623491Y-86633122D01*
X144680133Y-86570216D01*
X144774779Y-86406284D01*
X144833274Y-86226256D01*
X144853060Y-86038000D01*
X144833274Y-85849744D01*
X144774779Y-85669716D01*
X144680133Y-85505784D01*
X144553471Y-85365112D01*
X144539969Y-85355302D01*
X144400334Y-85253851D01*
X144400329Y-85253848D01*
X144227407Y-85176857D01*
X144227402Y-85176855D01*
X144081601Y-85145865D01*
X144042246Y-85137500D01*
X143852954Y-85137500D01*
X143820497Y-85144398D01*
X143667797Y-85176855D01*
X143667792Y-85176857D01*
X143494870Y-85253848D01*
X143494865Y-85253851D01*
X143341729Y-85365111D01*
X143215066Y-85505785D01*
X143120421Y-85669715D01*
X143120418Y-85669722D01*
X143065983Y-85837257D01*
X143061926Y-85849744D01*
X143042140Y-86038000D01*
X143061926Y-86226256D01*
X143061927Y-86226259D01*
X143120418Y-86406277D01*
X143120421Y-86406284D01*
X143215067Y-86570216D01*
X143258372Y-86618310D01*
X143290250Y-86653715D01*
X143320480Y-86716706D01*
X143322100Y-86736687D01*
X143322100Y-87154097D01*
X143302415Y-87221136D01*
X143272412Y-87253363D01*
X143216457Y-87295251D01*
X143216453Y-87295254D01*
X143173266Y-87352945D01*
X143117332Y-87394815D01*
X143047640Y-87399799D01*
X142986317Y-87366313D01*
X142974734Y-87352945D01*
X142951805Y-87322317D01*
X142931546Y-87295254D01*
X142931544Y-87295253D01*
X142931544Y-87295252D01*
X142816335Y-87209006D01*
X142816328Y-87209002D01*
X142681482Y-87158708D01*
X142681483Y-87158708D01*
X142621883Y-87152301D01*
X142621881Y-87152300D01*
X142621873Y-87152300D01*
X142621864Y-87152300D01*
X141526129Y-87152300D01*
X141526123Y-87152301D01*
X141466516Y-87158708D01*
X141366863Y-87195877D01*
X141297171Y-87200861D01*
X141235848Y-87167376D01*
X141220427Y-87148585D01*
X141209488Y-87132214D01*
X141195789Y-87111711D01*
X141195787Y-87111708D01*
X141084292Y-87000213D01*
X141084288Y-87000210D01*
X140953185Y-86912609D01*
X140953172Y-86912602D01*
X140807501Y-86852264D01*
X140807489Y-86852261D01*
X140652845Y-86821500D01*
X140652842Y-86821500D01*
X140613562Y-86821500D01*
X137578796Y-86821500D01*
X137569948Y-86821184D01*
X137538877Y-86818961D01*
X137341312Y-86804825D01*
X137323800Y-86802306D01*
X137104171Y-86754521D01*
X137087194Y-86749536D01*
X136876592Y-86670974D01*
X136860498Y-86663623D01*
X136663223Y-86555889D01*
X136648339Y-86546322D01*
X136468411Y-86411611D01*
X136455040Y-86400024D01*
X136296106Y-86241067D01*
X136284521Y-86227694D01*
X136238484Y-86166185D01*
X136149834Y-86047741D01*
X136140276Y-86032866D01*
X136032565Y-85835564D01*
X136025220Y-85819474D01*
X135946691Y-85608862D01*
X135941708Y-85591885D01*
X135893954Y-85372240D01*
X135891439Y-85354733D01*
X135884786Y-85261552D01*
X135875171Y-85126892D01*
X135874857Y-85118083D01*
X135875183Y-83294800D01*
X139536940Y-83294800D01*
X139556726Y-83483056D01*
X139556727Y-83483059D01*
X139615218Y-83663077D01*
X139615221Y-83663084D01*
X139709867Y-83827016D01*
X139836529Y-83967688D01*
X139989665Y-84078948D01*
X139989670Y-84078951D01*
X140162592Y-84155942D01*
X140162597Y-84155944D01*
X140347754Y-84195300D01*
X140347755Y-84195300D01*
X140537044Y-84195300D01*
X140537046Y-84195300D01*
X140722203Y-84155944D01*
X140885090Y-84083420D01*
X140935526Y-84072700D01*
X145834652Y-84072700D01*
X145901691Y-84092385D01*
X145926800Y-84113726D01*
X145932526Y-84120085D01*
X145932530Y-84120089D01*
X146085665Y-84231348D01*
X146085670Y-84231351D01*
X146258592Y-84308342D01*
X146258597Y-84308344D01*
X146443754Y-84347700D01*
X146443755Y-84347700D01*
X146633044Y-84347700D01*
X146633046Y-84347700D01*
X146818203Y-84308344D01*
X146991130Y-84231351D01*
X147144271Y-84120088D01*
X147270933Y-83979416D01*
X147365579Y-83815484D01*
X147424074Y-83635456D01*
X147443860Y-83447200D01*
X147424074Y-83258944D01*
X147365579Y-83078916D01*
X147270933Y-82914984D01*
X147144271Y-82774312D01*
X147144270Y-82774311D01*
X146991134Y-82663051D01*
X146991129Y-82663048D01*
X146818207Y-82586057D01*
X146818202Y-82586055D01*
X146672401Y-82555065D01*
X146633046Y-82546700D01*
X146443754Y-82546700D01*
X146411297Y-82553598D01*
X146258597Y-82586055D01*
X146258592Y-82586057D01*
X146085670Y-82663048D01*
X146085665Y-82663051D01*
X145932530Y-82774310D01*
X145932526Y-82774314D01*
X145926800Y-82780674D01*
X145867313Y-82817321D01*
X145834652Y-82821700D01*
X141280655Y-82821700D01*
X141213616Y-82802015D01*
X141180102Y-82766865D01*
X141178755Y-82767844D01*
X141174934Y-82762585D01*
X141048270Y-82621911D01*
X140895134Y-82510651D01*
X140895129Y-82510648D01*
X140722207Y-82433657D01*
X140722202Y-82433655D01*
X140576401Y-82402665D01*
X140537046Y-82394300D01*
X140347754Y-82394300D01*
X140315297Y-82401198D01*
X140162597Y-82433655D01*
X140162592Y-82433657D01*
X139989670Y-82510648D01*
X139989665Y-82510651D01*
X139836529Y-82621911D01*
X139709866Y-82762585D01*
X139615221Y-82926515D01*
X139615218Y-82926522D01*
X139565703Y-83078915D01*
X139556726Y-83106544D01*
X139536940Y-83294800D01*
X135875183Y-83294800D01*
X135877733Y-69051940D01*
X135878109Y-66953735D01*
X136501100Y-66953735D01*
X136501100Y-68749470D01*
X136501101Y-68749476D01*
X136507508Y-68809083D01*
X136557802Y-68943928D01*
X136557806Y-68943935D01*
X136644052Y-69059144D01*
X136644055Y-69059147D01*
X136759264Y-69145393D01*
X136759271Y-69145397D01*
X136894117Y-69195691D01*
X136894116Y-69195691D01*
X136901044Y-69196435D01*
X136953727Y-69202100D01*
X138749472Y-69202099D01*
X138809083Y-69195691D01*
X138943931Y-69145396D01*
X139059146Y-69059146D01*
X139145396Y-68943931D01*
X139194410Y-68812516D01*
X139236281Y-68756584D01*
X139301745Y-68732166D01*
X139370018Y-68747017D01*
X139398273Y-68768169D01*
X139520199Y-68890095D01*
X139605629Y-68949914D01*
X139713765Y-69025632D01*
X139713767Y-69025633D01*
X139713770Y-69025635D01*
X139927937Y-69125503D01*
X140156192Y-69186663D01*
X140332634Y-69202100D01*
X140391599Y-69207259D01*
X140391600Y-69207259D01*
X140391601Y-69207259D01*
X140450566Y-69202100D01*
X140627008Y-69186663D01*
X140855263Y-69125503D01*
X141069430Y-69025635D01*
X141263001Y-68890095D01*
X141430095Y-68723001D01*
X141560025Y-68537442D01*
X141614602Y-68493817D01*
X141684100Y-68486623D01*
X141746455Y-68518146D01*
X141763175Y-68537442D01*
X141892881Y-68722682D01*
X141893105Y-68723001D01*
X142060199Y-68890095D01*
X142145629Y-68949914D01*
X142253765Y-69025632D01*
X142253767Y-69025633D01*
X142253770Y-69025635D01*
X142464375Y-69123842D01*
X142516813Y-69170013D01*
X142535965Y-69237207D01*
X142529900Y-69274541D01*
X142522117Y-69298495D01*
X142503126Y-69356944D01*
X142483340Y-69545200D01*
X142503126Y-69733456D01*
X142503127Y-69733459D01*
X142561618Y-69913477D01*
X142561621Y-69913484D01*
X142656267Y-70077416D01*
X142675961Y-70099288D01*
X142731450Y-70160915D01*
X142761680Y-70223906D01*
X142763300Y-70243887D01*
X142763300Y-73891147D01*
X142743615Y-73958186D01*
X142726981Y-73978828D01*
X137264144Y-79441664D01*
X137264138Y-79441672D01*
X137195692Y-79544105D01*
X137195684Y-79544119D01*
X137162347Y-79624607D01*
X137156823Y-79637943D01*
X137148537Y-79657945D01*
X137148535Y-79657953D01*
X137124500Y-79778789D01*
X137124500Y-80956559D01*
X137118431Y-80994876D01*
X137111326Y-81016744D01*
X137091540Y-81205000D01*
X137111326Y-81393256D01*
X137111327Y-81393259D01*
X137169818Y-81573277D01*
X137169821Y-81573284D01*
X137264467Y-81737216D01*
X137391129Y-81877888D01*
X137544265Y-81989148D01*
X137544270Y-81989151D01*
X137717192Y-82066142D01*
X137717197Y-82066144D01*
X137902354Y-82105500D01*
X137902355Y-82105500D01*
X138091644Y-82105500D01*
X138091646Y-82105500D01*
X138276803Y-82066144D01*
X138449730Y-81989151D01*
X138602871Y-81877888D01*
X138729533Y-81737216D01*
X138824179Y-81573284D01*
X138882674Y-81393256D01*
X138902460Y-81205000D01*
X138882674Y-81016744D01*
X138824179Y-80836716D01*
X138729533Y-80672784D01*
X138602871Y-80532112D01*
X138551808Y-80495013D01*
X138449733Y-80420851D01*
X138449732Y-80420850D01*
X138449730Y-80420849D01*
X138449060Y-80420551D01*
X138448733Y-80420272D01*
X138444104Y-80417600D01*
X138444592Y-80416753D01*
X138395826Y-80375300D01*
X138375506Y-80308451D01*
X138375500Y-80307273D01*
X138375500Y-80150852D01*
X138395185Y-80083813D01*
X138411819Y-80063171D01*
X143618419Y-74856571D01*
X143679742Y-74823086D01*
X143749434Y-74828070D01*
X143805367Y-74869942D01*
X143829784Y-74935406D01*
X143830100Y-74944252D01*
X143830100Y-81035252D01*
X143824030Y-81073570D01*
X143818126Y-81091744D01*
X143798340Y-81280000D01*
X143818126Y-81468256D01*
X143818127Y-81468259D01*
X143876618Y-81648277D01*
X143876621Y-81648284D01*
X143971267Y-81812216D01*
X144030399Y-81877888D01*
X144097929Y-81952888D01*
X144251065Y-82064148D01*
X144251070Y-82064151D01*
X144423992Y-82141142D01*
X144423997Y-82141144D01*
X144609154Y-82180500D01*
X144609155Y-82180500D01*
X144798444Y-82180500D01*
X144798446Y-82180500D01*
X144983603Y-82141144D01*
X145156530Y-82064151D01*
X145309671Y-81952888D01*
X145436333Y-81812216D01*
X145530979Y-81648284D01*
X145589474Y-81468256D01*
X145609260Y-81280000D01*
X145589474Y-81091744D01*
X145530979Y-80911716D01*
X145436333Y-80747784D01*
X145309671Y-80607112D01*
X145309670Y-80607111D01*
X145156530Y-80495848D01*
X145154654Y-80495013D01*
X145153745Y-80494240D01*
X145150904Y-80492600D01*
X145151204Y-80492080D01*
X145101421Y-80449758D01*
X145081106Y-80382907D01*
X145081100Y-80381738D01*
X145081100Y-70277487D01*
X145100785Y-70210448D01*
X145112950Y-70194515D01*
X145143203Y-70160915D01*
X145188133Y-70111016D01*
X145282779Y-69947084D01*
X145341274Y-69767056D01*
X145361060Y-69578800D01*
X145341274Y-69390544D01*
X145334057Y-69368335D01*
X145332061Y-69298495D01*
X145368141Y-69238662D01*
X145430841Y-69207832D01*
X145462792Y-69206488D01*
X145471600Y-69207259D01*
X145707008Y-69186663D01*
X145935263Y-69125503D01*
X146149430Y-69025635D01*
X146343001Y-68890095D01*
X146510095Y-68723001D01*
X146640025Y-68537442D01*
X146694602Y-68493817D01*
X146764100Y-68486623D01*
X146826455Y-68518146D01*
X146843175Y-68537442D01*
X146973101Y-68722996D01*
X146973106Y-68723002D01*
X147140195Y-68890092D01*
X147140198Y-68890094D01*
X147140199Y-68890095D01*
X147147689Y-68895340D01*
X147191316Y-68949914D01*
X147198512Y-69019412D01*
X147186530Y-69051940D01*
X147187064Y-69052178D01*
X147184421Y-69058113D01*
X147135961Y-69207259D01*
X147125926Y-69238144D01*
X147106140Y-69426400D01*
X147125926Y-69614656D01*
X147125927Y-69614659D01*
X147184418Y-69794677D01*
X147184421Y-69794684D01*
X147279067Y-69958616D01*
X147386034Y-70077414D01*
X147405729Y-70099288D01*
X147558865Y-70210548D01*
X147558870Y-70210551D01*
X147731792Y-70287542D01*
X147731797Y-70287544D01*
X147916954Y-70326900D01*
X147976148Y-70326900D01*
X148043187Y-70346585D01*
X148063829Y-70363219D01*
X149026181Y-71325571D01*
X149059666Y-71386894D01*
X149062500Y-71413252D01*
X149062500Y-72182112D01*
X149042815Y-72249151D01*
X149030650Y-72265084D01*
X148955466Y-72348584D01*
X148860821Y-72512515D01*
X148860818Y-72512522D01*
X148802327Y-72692540D01*
X148802326Y-72692544D01*
X148782540Y-72880800D01*
X148802326Y-73069056D01*
X148802327Y-73069059D01*
X148860818Y-73249077D01*
X148860821Y-73249084D01*
X148955467Y-73413016D01*
X149082129Y-73553688D01*
X149235265Y-73664948D01*
X149235270Y-73664951D01*
X149408192Y-73741942D01*
X149408197Y-73741944D01*
X149593354Y-73781300D01*
X149593355Y-73781300D01*
X149782644Y-73781300D01*
X149782646Y-73781300D01*
X149967803Y-73741944D01*
X150140730Y-73664951D01*
X150293871Y-73553688D01*
X150420533Y-73413016D01*
X150515179Y-73249084D01*
X150573674Y-73069056D01*
X150593460Y-72880800D01*
X150573674Y-72692544D01*
X150515179Y-72512516D01*
X150420533Y-72348584D01*
X150345350Y-72265084D01*
X150315120Y-72202092D01*
X150313500Y-72182112D01*
X150313500Y-71170541D01*
X150313501Y-71170520D01*
X150313501Y-71041191D01*
X150289464Y-70920355D01*
X150289463Y-70920349D01*
X150242312Y-70806515D01*
X150173858Y-70704067D01*
X150173855Y-70704063D01*
X148950560Y-69480769D01*
X148917075Y-69419446D01*
X148914923Y-69406068D01*
X148897274Y-69238144D01*
X148838779Y-69058116D01*
X148838776Y-69058110D01*
X148836138Y-69052186D01*
X148837467Y-69051593D01*
X148822768Y-68991031D01*
X148845613Y-68925002D01*
X148875506Y-68895342D01*
X148883001Y-68890095D01*
X149050095Y-68723001D01*
X149180330Y-68537005D01*
X149234907Y-68493381D01*
X149304405Y-68486187D01*
X149366760Y-68517710D01*
X149383479Y-68537005D01*
X149513490Y-68722678D01*
X149680517Y-68889705D01*
X149874021Y-69025200D01*
X150088107Y-69125029D01*
X150088116Y-69125033D01*
X150301600Y-69182234D01*
X150301600Y-68284612D01*
X150358607Y-68317525D01*
X150485774Y-68351600D01*
X150617426Y-68351600D01*
X150744593Y-68317525D01*
X150801600Y-68284612D01*
X150801600Y-69182233D01*
X151015083Y-69125033D01*
X151015092Y-69125029D01*
X151229178Y-69025200D01*
X151422682Y-68889705D01*
X151589705Y-68722682D01*
X151725200Y-68529178D01*
X151825029Y-68315092D01*
X151825032Y-68315086D01*
X151882236Y-68101600D01*
X150984612Y-68101600D01*
X151017525Y-68044593D01*
X151051600Y-67917426D01*
X151051600Y-67785774D01*
X151017525Y-67658607D01*
X150984612Y-67601600D01*
X151882236Y-67601600D01*
X151882235Y-67601599D01*
X151825032Y-67388113D01*
X151825029Y-67388107D01*
X151725200Y-67174022D01*
X151725199Y-67174020D01*
X151589713Y-66980526D01*
X151589708Y-66980520D01*
X151422682Y-66813494D01*
X151229178Y-66677999D01*
X151015092Y-66578170D01*
X151015086Y-66578167D01*
X150801600Y-66520964D01*
X150801600Y-67418588D01*
X150744593Y-67385675D01*
X150617426Y-67351600D01*
X150485774Y-67351600D01*
X150358607Y-67385675D01*
X150301600Y-67418588D01*
X150301600Y-66520964D01*
X150301599Y-66520964D01*
X150088113Y-66578167D01*
X150088107Y-66578170D01*
X149874022Y-66677999D01*
X149874020Y-66678000D01*
X149680526Y-66813486D01*
X149680520Y-66813491D01*
X149513491Y-66980520D01*
X149513490Y-66980522D01*
X149383480Y-67166195D01*
X149328903Y-67209819D01*
X149259404Y-67217012D01*
X149197050Y-67185490D01*
X149180330Y-67166194D01*
X149050094Y-66980197D01*
X148883002Y-66813106D01*
X148882995Y-66813101D01*
X148689434Y-66677567D01*
X148689430Y-66677565D01*
X148689428Y-66677564D01*
X148475263Y-66577697D01*
X148475259Y-66577696D01*
X148475255Y-66577694D01*
X148247013Y-66516538D01*
X148247003Y-66516536D01*
X148011601Y-66495941D01*
X148011599Y-66495941D01*
X147776196Y-66516536D01*
X147776186Y-66516538D01*
X147547944Y-66577694D01*
X147547935Y-66577698D01*
X147333771Y-66677564D01*
X147333769Y-66677565D01*
X147140197Y-66813105D01*
X146973105Y-66980197D01*
X146843175Y-67165758D01*
X146788598Y-67209383D01*
X146719100Y-67216577D01*
X146656745Y-67185054D01*
X146640025Y-67165758D01*
X146510094Y-66980197D01*
X146343002Y-66813106D01*
X146342995Y-66813101D01*
X146149434Y-66677567D01*
X146149430Y-66677565D01*
X146149428Y-66677564D01*
X145935263Y-66577697D01*
X145935259Y-66577696D01*
X145935255Y-66577694D01*
X145707013Y-66516538D01*
X145707003Y-66516536D01*
X145471601Y-66495941D01*
X145471599Y-66495941D01*
X145236196Y-66516536D01*
X145236186Y-66516538D01*
X145007944Y-66577694D01*
X145007935Y-66577698D01*
X144793771Y-66677564D01*
X144793769Y-66677565D01*
X144600197Y-66813105D01*
X144433105Y-66980197D01*
X144303175Y-67165758D01*
X144248598Y-67209383D01*
X144179100Y-67216577D01*
X144116745Y-67185054D01*
X144100025Y-67165758D01*
X143970094Y-66980197D01*
X143803002Y-66813106D01*
X143802995Y-66813101D01*
X143609434Y-66677567D01*
X143609430Y-66677565D01*
X143609428Y-66677564D01*
X143395263Y-66577697D01*
X143395259Y-66577696D01*
X143395255Y-66577694D01*
X143167013Y-66516538D01*
X143167003Y-66516536D01*
X142931601Y-66495941D01*
X142931599Y-66495941D01*
X142696196Y-66516536D01*
X142696186Y-66516538D01*
X142467944Y-66577694D01*
X142467935Y-66577698D01*
X142253771Y-66677564D01*
X142253769Y-66677565D01*
X142060197Y-66813105D01*
X141893105Y-66980197D01*
X141763175Y-67165758D01*
X141708598Y-67209383D01*
X141639100Y-67216577D01*
X141576745Y-67185054D01*
X141560025Y-67165758D01*
X141430094Y-66980197D01*
X141263002Y-66813106D01*
X141262995Y-66813101D01*
X141069434Y-66677567D01*
X141069430Y-66677565D01*
X141069428Y-66677564D01*
X140855263Y-66577697D01*
X140855259Y-66577696D01*
X140855255Y-66577694D01*
X140627013Y-66516538D01*
X140627003Y-66516536D01*
X140391601Y-66495941D01*
X140391599Y-66495941D01*
X140156196Y-66516536D01*
X140156186Y-66516538D01*
X139927944Y-66577694D01*
X139927935Y-66577698D01*
X139713771Y-66677564D01*
X139713769Y-66677565D01*
X139520200Y-66813103D01*
X139398273Y-66935030D01*
X139336950Y-66968514D01*
X139267258Y-66963530D01*
X139211325Y-66921658D01*
X139194410Y-66890681D01*
X139145397Y-66759271D01*
X139145393Y-66759264D01*
X139059147Y-66644055D01*
X139059144Y-66644052D01*
X138943935Y-66557806D01*
X138943928Y-66557802D01*
X138809082Y-66507508D01*
X138809083Y-66507508D01*
X138749483Y-66501101D01*
X138749481Y-66501100D01*
X138749473Y-66501100D01*
X138749464Y-66501100D01*
X136953729Y-66501100D01*
X136953723Y-66501101D01*
X136894116Y-66507508D01*
X136759271Y-66557802D01*
X136759264Y-66557806D01*
X136644055Y-66644052D01*
X136644052Y-66644055D01*
X136557806Y-66759264D01*
X136557802Y-66759271D01*
X136507508Y-66894117D01*
X136501101Y-66953716D01*
X136501100Y-66953735D01*
X135878109Y-66953735D01*
X135878224Y-66312078D01*
X135897921Y-66245042D01*
X135950733Y-66199296D01*
X136002224Y-66188100D01*
X152153224Y-66188100D01*
X152220263Y-66207785D01*
G37*
%TD.AperFunction*%
%TD*%
M02*
