M48
; DRILL file {KiCad 8.0.6-8.0.6-0~ubuntu22.04.1} date 2024-11-07T17:30:08-0800
; FORMAT={-:-/ absolute / metric / decimal}
; #@! TF.CreationDate,2024-11-07T17:30:08-08:00
; #@! TF.GenerationSoftware,Kicad,Pcbnew,8.0.6-8.0.6-0~ubuntu22.04.1
; #@! TF.FileFunction,Plated,1,2,PTH
FMAT,2
METRIC
; #@! TA.AperFunction,Plated,PTH,ViaDrill
T1C0.400
; #@! TA.AperFunction,Plated,PTH,ComponentDrill
T2C1.000
%
G90
G05
T1
X136.449Y-70.333
X136.474Y-81.636
X136.525Y-84.963
X136.55Y-83.16
X137.719Y-86.258
X137.997Y-81.205
X138.405Y-74.905
X140.442Y-83.295
X141.199Y-71.501
X141.3Y-73.711
X141.707Y-81.255
X141.732Y-84.709
X143.389Y-69.545
X143.948Y-86.038
X144.456Y-69.579
X144.704Y-81.28
X146.177Y-85.039
X146.279Y-81.585
X146.335Y-86.698
X146.538Y-83.447
X147.498Y-75.438
X147.625Y-77.495
X148.012Y-69.426
X148.971Y-78.613
X149.276Y-67.056
X149.301Y-68.656
X149.688Y-72.881
X151.79Y-69.621
T2
X137.852Y-67.852
X140.392Y-67.852
X142.932Y-67.852
X145.472Y-67.852
X148.012Y-67.852
X150.552Y-67.852
M30
