%TF.GenerationSoftware,KiCad,Pcbnew,8.0.6-8.0.6-0~ubuntu22.04.1*%
%TF.CreationDate,2024-11-07T17:30:12-08:00*%
%TF.ProjectId,gbvideo_breakout,67627669-6465-46f5-9f62-7265616b6f75,rev?*%
%TF.SameCoordinates,Original*%
%TF.FileFunction,Legend,Bot*%
%TF.FilePolarity,Positive*%
%FSLAX46Y46*%
G04 Gerber Fmt 4.6, Leading zero omitted, Abs format (unit mm)*
G04 Created by KiCad (PCBNEW 8.0.6-8.0.6-0~ubuntu22.04.1) date 2024-11-07 17:30:12*
%MOMM*%
%LPD*%
G01*
G04 APERTURE LIST*
%ADD10C,0.150000*%
G04 APERTURE END LIST*
D10*
G36*
X147566699Y-84827162D02*
G01*
X147566699Y-84981035D01*
X147566699Y-85134908D01*
X147566699Y-85288781D01*
X147566699Y-85442654D01*
X147566699Y-85596527D01*
X147566699Y-85750400D01*
X147721854Y-85750400D01*
X147876582Y-85750400D01*
X148031737Y-85750400D01*
X148031737Y-85596527D01*
X148195868Y-85596527D01*
X148195868Y-85442654D01*
X148346322Y-85442654D01*
X148346322Y-85288781D01*
X148496775Y-85288781D01*
X148496775Y-85134908D01*
X148647229Y-85134908D01*
X148647229Y-84981035D01*
X148797682Y-84981035D01*
X148961814Y-84981035D01*
X149125945Y-84981035D01*
X149125945Y-85134908D01*
X149125945Y-85288781D01*
X149125945Y-85442654D01*
X148961814Y-85442654D01*
X148797682Y-85442654D01*
X148797682Y-85596527D01*
X148797682Y-85750400D01*
X148952838Y-85750400D01*
X149107566Y-85750400D01*
X149262721Y-85750400D01*
X149262721Y-85596527D01*
X149426852Y-85596527D01*
X149426852Y-85442654D01*
X149426852Y-85288781D01*
X149426852Y-85134908D01*
X149426852Y-84981035D01*
X149426852Y-84827162D01*
X149262721Y-84827162D01*
X149262721Y-84673289D01*
X149110130Y-84673289D01*
X148957967Y-84673289D01*
X148805376Y-84673289D01*
X148653213Y-84673289D01*
X148500622Y-84673289D01*
X148500622Y-84827162D01*
X148348459Y-84827162D01*
X148348459Y-84981035D01*
X148195868Y-84981035D01*
X148195868Y-85134908D01*
X148031737Y-85134908D01*
X148031737Y-85288781D01*
X147867606Y-85288781D01*
X147867606Y-85134908D01*
X147867606Y-84981035D01*
X147867606Y-84827162D01*
X147867606Y-84673289D01*
X147717152Y-84673289D01*
X147566699Y-84673289D01*
X147566699Y-84827162D01*
G37*
G36*
X149271697Y-83603016D02*
G01*
X149426852Y-83603016D01*
X149426852Y-83756889D01*
X149426852Y-83910762D01*
X149426852Y-84064635D01*
X149426852Y-84218508D01*
X149426852Y-84372381D01*
X149269560Y-84372381D01*
X149269560Y-84526254D01*
X149112267Y-84526254D01*
X148954975Y-84526254D01*
X148797682Y-84526254D01*
X148633551Y-84526254D01*
X148496775Y-84526254D01*
X148332644Y-84526254D01*
X148195868Y-84526254D01*
X148038576Y-84526254D01*
X147881283Y-84526254D01*
X147723991Y-84526254D01*
X147723991Y-84372381D01*
X147566699Y-84372381D01*
X147566699Y-84218508D01*
X147566699Y-84064635D01*
X147566699Y-83910762D01*
X147867606Y-83910762D01*
X147867606Y-84064635D01*
X147867606Y-84218508D01*
X148031737Y-84218508D01*
X148195868Y-84218508D01*
X148195868Y-84064635D01*
X148332644Y-84064635D01*
X148496775Y-84064635D01*
X148496775Y-84218508D01*
X148654068Y-84218508D01*
X148811360Y-84218508D01*
X148968652Y-84218508D01*
X149125945Y-84218508D01*
X149125945Y-84064635D01*
X149125945Y-83910762D01*
X149125945Y-83756889D01*
X148961814Y-83756889D01*
X148797682Y-83756889D01*
X148797682Y-83910762D01*
X148633551Y-83910762D01*
X148633551Y-84064635D01*
X148496775Y-84064635D01*
X148332644Y-84064635D01*
X148332644Y-83910762D01*
X148496775Y-83910762D01*
X148496775Y-83756889D01*
X148339483Y-83756889D01*
X148182190Y-83756889D01*
X148024898Y-83756889D01*
X147867606Y-83756889D01*
X147867606Y-83910762D01*
X147566699Y-83910762D01*
X147566699Y-83756889D01*
X147566699Y-83603016D01*
X147721854Y-83603016D01*
X147721854Y-83449143D01*
X147876582Y-83449143D01*
X148031737Y-83449143D01*
X148186892Y-83449143D01*
X148341620Y-83449143D01*
X148496775Y-83449143D01*
X148651931Y-83449143D01*
X148806658Y-83449143D01*
X148961814Y-83449143D01*
X149116969Y-83449143D01*
X149271697Y-83449143D01*
X149271697Y-83603016D01*
G37*
G36*
X147566699Y-82378871D02*
G01*
X147566699Y-82532744D01*
X147566699Y-82686617D01*
X147566699Y-82840490D01*
X147566699Y-82994363D01*
X147566699Y-83148236D01*
X147566699Y-83302109D01*
X147721854Y-83302109D01*
X147876582Y-83302109D01*
X148031737Y-83302109D01*
X148031737Y-83148236D01*
X148195868Y-83148236D01*
X148195868Y-82994363D01*
X148346322Y-82994363D01*
X148346322Y-82840490D01*
X148496775Y-82840490D01*
X148496775Y-82686617D01*
X148647229Y-82686617D01*
X148647229Y-82532744D01*
X148797682Y-82532744D01*
X148961814Y-82532744D01*
X149125945Y-82532744D01*
X149125945Y-82686617D01*
X149125945Y-82840490D01*
X149125945Y-82994363D01*
X148961814Y-82994363D01*
X148797682Y-82994363D01*
X148797682Y-83148236D01*
X148797682Y-83302109D01*
X148952838Y-83302109D01*
X149107566Y-83302109D01*
X149262721Y-83302109D01*
X149262721Y-83148236D01*
X149426852Y-83148236D01*
X149426852Y-82994363D01*
X149426852Y-82840490D01*
X149426852Y-82686617D01*
X149426852Y-82532744D01*
X149426852Y-82378871D01*
X149262721Y-82378871D01*
X149262721Y-82224998D01*
X149110130Y-82224998D01*
X148957967Y-82224998D01*
X148805376Y-82224998D01*
X148653213Y-82224998D01*
X148500622Y-82224998D01*
X148500622Y-82378871D01*
X148348459Y-82378871D01*
X148348459Y-82532744D01*
X148195868Y-82532744D01*
X148195868Y-82686617D01*
X148031737Y-82686617D01*
X148031737Y-82840490D01*
X147867606Y-82840490D01*
X147867606Y-82686617D01*
X147867606Y-82532744D01*
X147867606Y-82378871D01*
X147867606Y-82224998D01*
X147717152Y-82224998D01*
X147566699Y-82224998D01*
X147566699Y-82378871D01*
G37*
G36*
X149426852Y-81154726D02*
G01*
X149426852Y-81308599D01*
X149262721Y-81308599D01*
X149262721Y-81462472D01*
X149098590Y-81462472D01*
X149098590Y-81616345D01*
X148952838Y-81616345D01*
X148952838Y-81770218D01*
X148806658Y-81770218D01*
X148806658Y-81924091D01*
X148660906Y-81924091D01*
X148660906Y-82077964D01*
X148503614Y-82077964D01*
X148346322Y-82077964D01*
X148189029Y-82077964D01*
X148031737Y-82077964D01*
X148031737Y-81924091D01*
X148031737Y-81770218D01*
X148031737Y-81616345D01*
X148031737Y-81462472D01*
X148195868Y-81462472D01*
X148195868Y-81616345D01*
X148195868Y-81770218D01*
X148351023Y-81770218D01*
X148505751Y-81770218D01*
X148505751Y-81616345D01*
X148660906Y-81616345D01*
X148660906Y-81462472D01*
X148814779Y-81462472D01*
X148814779Y-81308599D01*
X148660906Y-81308599D01*
X148505751Y-81308599D01*
X148351023Y-81308599D01*
X148195868Y-81308599D01*
X148195868Y-81462472D01*
X148031737Y-81462472D01*
X148031737Y-81308599D01*
X147876582Y-81308599D01*
X147721854Y-81308599D01*
X147566699Y-81308599D01*
X147566699Y-81154726D01*
X147566699Y-81000853D01*
X147719717Y-81000853D01*
X147873162Y-81000853D01*
X148026180Y-81000853D01*
X148179626Y-81000853D01*
X148332644Y-81000853D01*
X148485662Y-81000853D01*
X148639108Y-81000853D01*
X148792126Y-81000853D01*
X148945571Y-81000853D01*
X149098590Y-81000853D01*
X149262721Y-81000853D01*
X149426852Y-81000853D01*
X149426852Y-81154726D01*
G37*
G36*
X149852699Y-84981035D02*
G01*
X149852699Y-85134908D01*
X149852699Y-85288781D01*
X149852699Y-85442654D01*
X149852699Y-85596527D01*
X150016830Y-85596527D01*
X150016830Y-85750400D01*
X150171985Y-85750400D01*
X150326713Y-85750400D01*
X150481868Y-85750400D01*
X150632322Y-85750400D01*
X150782775Y-85750400D01*
X150933229Y-85750400D01*
X151083682Y-85750400D01*
X151238838Y-85750400D01*
X151393566Y-85750400D01*
X151548721Y-85750400D01*
X151548721Y-85596527D01*
X151712852Y-85596527D01*
X151712852Y-85442654D01*
X151712852Y-85288781D01*
X151712852Y-85134908D01*
X151712852Y-84981035D01*
X151712852Y-84827162D01*
X151548721Y-84827162D01*
X151548721Y-84673289D01*
X151393566Y-84673289D01*
X151238838Y-84673289D01*
X151083682Y-84673289D01*
X151083682Y-84827162D01*
X151083682Y-84981035D01*
X151247814Y-84981035D01*
X151411945Y-84981035D01*
X151411945Y-85134908D01*
X151411945Y-85288781D01*
X151411945Y-85442654D01*
X151254652Y-85442654D01*
X151097360Y-85442654D01*
X150940068Y-85442654D01*
X150782775Y-85442654D01*
X150625483Y-85442654D01*
X150468190Y-85442654D01*
X150310898Y-85442654D01*
X150153606Y-85442654D01*
X150153606Y-85288781D01*
X150153606Y-85134908D01*
X150153606Y-84981035D01*
X150317737Y-84981035D01*
X150481868Y-84981035D01*
X150481868Y-84827162D01*
X150481868Y-84673289D01*
X150326713Y-84673289D01*
X150171985Y-84673289D01*
X150016830Y-84673289D01*
X150016830Y-84827162D01*
X149852699Y-84827162D01*
X149852699Y-84981035D01*
G37*
G36*
X149852699Y-83603016D02*
G01*
X149852699Y-83756889D01*
X150006571Y-83756889D01*
X150160444Y-83756889D01*
X150314317Y-83756889D01*
X150468190Y-83756889D01*
X150622063Y-83756889D01*
X150775936Y-83756889D01*
X150929809Y-83756889D01*
X151083682Y-83756889D01*
X151083682Y-83910762D01*
X151083682Y-84064635D01*
X151083682Y-84218508D01*
X150929809Y-84218508D01*
X150775936Y-84218508D01*
X150622063Y-84218508D01*
X150468190Y-84218508D01*
X150314317Y-84218508D01*
X150160444Y-84218508D01*
X150006571Y-84218508D01*
X149852699Y-84218508D01*
X149852699Y-84372381D01*
X149852699Y-84526254D01*
X150005717Y-84526254D01*
X150159162Y-84526254D01*
X150312180Y-84526254D01*
X150465626Y-84526254D01*
X150618644Y-84526254D01*
X150771662Y-84526254D01*
X150925108Y-84526254D01*
X151078126Y-84526254D01*
X151231571Y-84526254D01*
X151384590Y-84526254D01*
X151548721Y-84526254D01*
X151712852Y-84526254D01*
X151712852Y-84372381D01*
X151712852Y-84218508D01*
X151548721Y-84218508D01*
X151384590Y-84218508D01*
X151384590Y-84064635D01*
X151384590Y-83910762D01*
X151384590Y-83756889D01*
X151384590Y-83603016D01*
X151231571Y-83603016D01*
X151231571Y-83449143D01*
X151078126Y-83449143D01*
X150925108Y-83449143D01*
X150771662Y-83449143D01*
X150618644Y-83449143D01*
X150465626Y-83449143D01*
X150312180Y-83449143D01*
X150159162Y-83449143D01*
X150005717Y-83449143D01*
X149852699Y-83449143D01*
X149852699Y-83603016D01*
G37*
G36*
X149852699Y-83148236D02*
G01*
X149852699Y-83302109D01*
X150007854Y-83302109D01*
X150162582Y-83302109D01*
X150317737Y-83302109D01*
X150472892Y-83302109D01*
X150627620Y-83302109D01*
X150782775Y-83302109D01*
X150937931Y-83302109D01*
X151092658Y-83302109D01*
X151247814Y-83302109D01*
X151384590Y-83302109D01*
X151384590Y-83148236D01*
X151384590Y-82994363D01*
X151384590Y-82840490D01*
X151384590Y-82686617D01*
X151384590Y-82532744D01*
X151384590Y-82378871D01*
X151247814Y-82378871D01*
X151247814Y-82224998D01*
X151092658Y-82224998D01*
X150937931Y-82224998D01*
X150782775Y-82224998D01*
X150782775Y-82378871D01*
X150782775Y-82532744D01*
X150933229Y-82532744D01*
X151083682Y-82532744D01*
X151083682Y-82686617D01*
X151083682Y-82840490D01*
X151083682Y-82994363D01*
X150929809Y-82994363D01*
X150775936Y-82994363D01*
X150622063Y-82994363D01*
X150468190Y-82994363D01*
X150314317Y-82994363D01*
X150160444Y-82994363D01*
X150006571Y-82994363D01*
X149852699Y-82994363D01*
X149852699Y-83148236D01*
G37*
G36*
X151231571Y-81154726D02*
G01*
X151384590Y-81154726D01*
X151384590Y-81308599D01*
X151384590Y-81462472D01*
X151384590Y-81616345D01*
X151384590Y-81770218D01*
X151384590Y-81924091D01*
X151231571Y-81924091D01*
X151231571Y-82077964D01*
X151078126Y-82077964D01*
X150925108Y-82077964D01*
X150771662Y-82077964D01*
X150618644Y-82077964D01*
X150465626Y-82077964D01*
X150312180Y-82077964D01*
X150159162Y-82077964D01*
X150005717Y-82077964D01*
X150005717Y-81924091D01*
X149852699Y-81924091D01*
X149852699Y-81770218D01*
X149852699Y-81616345D01*
X149852699Y-81462472D01*
X150153606Y-81462472D01*
X150153606Y-81616345D01*
X150153606Y-81770218D01*
X150308761Y-81770218D01*
X150463489Y-81770218D01*
X150618644Y-81770218D01*
X150773799Y-81770218D01*
X150928527Y-81770218D01*
X151083682Y-81770218D01*
X151083682Y-81616345D01*
X151083682Y-81462472D01*
X151083682Y-81308599D01*
X150928527Y-81308599D01*
X150773799Y-81308599D01*
X150618644Y-81308599D01*
X150463489Y-81308599D01*
X150308761Y-81308599D01*
X150153606Y-81308599D01*
X150153606Y-81462472D01*
X149852699Y-81462472D01*
X149852699Y-81308599D01*
X149852699Y-81154726D01*
X150005717Y-81154726D01*
X150005717Y-81000853D01*
X150159162Y-81000853D01*
X150312180Y-81000853D01*
X150465626Y-81000853D01*
X150618644Y-81000853D01*
X150771662Y-81000853D01*
X150925108Y-81000853D01*
X151078126Y-81000853D01*
X151231571Y-81000853D01*
X151231571Y-81154726D01*
G37*
G36*
X149852699Y-79622835D02*
G01*
X149852699Y-79776708D01*
X150005289Y-79776708D01*
X150157453Y-79776708D01*
X150310043Y-79776708D01*
X150462207Y-79776708D01*
X150614797Y-79776708D01*
X150766961Y-79776708D01*
X150919551Y-79776708D01*
X150919551Y-79930581D01*
X150765678Y-79930581D01*
X150611805Y-79930581D01*
X150457932Y-79930581D01*
X150304059Y-79930581D01*
X150150186Y-79930581D01*
X149996313Y-79930581D01*
X149996313Y-80084454D01*
X149996313Y-80238327D01*
X150150186Y-80238327D01*
X150304059Y-80238327D01*
X150457932Y-80238327D01*
X150611805Y-80238327D01*
X150765678Y-80238327D01*
X150919551Y-80238327D01*
X150919551Y-80392200D01*
X150766961Y-80392200D01*
X150614797Y-80392200D01*
X150462207Y-80392200D01*
X150310043Y-80392200D01*
X150157453Y-80392200D01*
X150005289Y-80392200D01*
X149852699Y-80392200D01*
X149852699Y-80546073D01*
X149852699Y-80699946D01*
X150006571Y-80699946D01*
X150160444Y-80699946D01*
X150314317Y-80699946D01*
X150468190Y-80699946D01*
X150622063Y-80699946D01*
X150775936Y-80699946D01*
X150929809Y-80699946D01*
X151083682Y-80699946D01*
X151083682Y-80853819D01*
X151234136Y-80853819D01*
X151384590Y-80853819D01*
X151384590Y-80699946D01*
X151384590Y-80546073D01*
X151384590Y-80392200D01*
X151384590Y-80238327D01*
X151230717Y-80238327D01*
X151230717Y-80084454D01*
X151384590Y-80084454D01*
X151384590Y-79930581D01*
X151384590Y-79776708D01*
X151384590Y-79622835D01*
X151231571Y-79622835D01*
X151231571Y-79468962D01*
X151078126Y-79468962D01*
X150925108Y-79468962D01*
X150771662Y-79468962D01*
X150618644Y-79468962D01*
X150465626Y-79468962D01*
X150312180Y-79468962D01*
X150159162Y-79468962D01*
X150005717Y-79468962D01*
X149852699Y-79468962D01*
X149852699Y-79622835D01*
G37*
G36*
X151220458Y-78400400D02*
G01*
X151384590Y-78400400D01*
X151384590Y-78554272D01*
X151384590Y-78708145D01*
X151384590Y-78862018D01*
X151384590Y-79015891D01*
X151384590Y-79169764D01*
X151220458Y-79169764D01*
X151220458Y-79323637D01*
X151070005Y-79323637D01*
X150919551Y-79323637D01*
X150919551Y-79169764D01*
X150919551Y-79015891D01*
X151083682Y-79015891D01*
X151083682Y-78862018D01*
X151083682Y-78708145D01*
X151083682Y-78554272D01*
X150919551Y-78554272D01*
X150782775Y-78554272D01*
X150782775Y-78708145D01*
X150782775Y-78862018D01*
X150782775Y-79015891D01*
X150782775Y-79169764D01*
X150632322Y-79169764D01*
X150481868Y-79169764D01*
X150481868Y-79323637D01*
X150324576Y-79323637D01*
X150167283Y-79323637D01*
X150009991Y-79323637D01*
X150009991Y-79169764D01*
X149852699Y-79169764D01*
X149852699Y-79015891D01*
X149852699Y-78862018D01*
X149852699Y-78708145D01*
X150153606Y-78708145D01*
X150153606Y-78862018D01*
X150153606Y-79015891D01*
X150317737Y-79015891D01*
X150481868Y-79015891D01*
X150481868Y-78862018D01*
X150481868Y-78708145D01*
X150481868Y-78554272D01*
X150317737Y-78554272D01*
X150153606Y-78554272D01*
X150153606Y-78708145D01*
X149852699Y-78708145D01*
X149852699Y-78554272D01*
X149852699Y-78400400D01*
X149852699Y-78246527D01*
X150004862Y-78246527D01*
X150156598Y-78246527D01*
X150308761Y-78246527D01*
X150460497Y-78246527D01*
X150612660Y-78246527D01*
X150764396Y-78246527D01*
X150916559Y-78246527D01*
X151068295Y-78246527D01*
X151220458Y-78246527D01*
X151220458Y-78400400D01*
G37*
G36*
X149852699Y-77176254D02*
G01*
X149852699Y-77330127D01*
X149852699Y-77484000D01*
X149852699Y-77637873D01*
X149852699Y-77791746D01*
X149852699Y-77945619D01*
X149852699Y-78099492D01*
X150007854Y-78099492D01*
X150162582Y-78099492D01*
X150317737Y-78099492D01*
X150472892Y-78099492D01*
X150627620Y-78099492D01*
X150782775Y-78099492D01*
X150937931Y-78099492D01*
X151092658Y-78099492D01*
X151247814Y-78099492D01*
X151402969Y-78099492D01*
X151557697Y-78099492D01*
X151712852Y-78099492D01*
X151712852Y-77945619D01*
X151712852Y-77791746D01*
X151556842Y-77791746D01*
X151400832Y-77791746D01*
X151245249Y-77791746D01*
X151089239Y-77791746D01*
X150933229Y-77791746D01*
X150777219Y-77791746D01*
X150621209Y-77791746D01*
X150465626Y-77791746D01*
X150309616Y-77791746D01*
X150153606Y-77791746D01*
X150153606Y-77637873D01*
X150153606Y-77484000D01*
X150153606Y-77330127D01*
X150153606Y-77176254D01*
X150153606Y-77022381D01*
X150003152Y-77022381D01*
X149852699Y-77022381D01*
X149852699Y-77176254D01*
G37*
G36*
X151231571Y-75952109D02*
G01*
X151384590Y-75952109D01*
X151384590Y-76105982D01*
X151384590Y-76259855D01*
X151384590Y-76413728D01*
X151384590Y-76567601D01*
X151384590Y-76721474D01*
X151231571Y-76721474D01*
X151231571Y-76875347D01*
X151078126Y-76875347D01*
X150925108Y-76875347D01*
X150771662Y-76875347D01*
X150618644Y-76875347D01*
X150465626Y-76875347D01*
X150312180Y-76875347D01*
X150159162Y-76875347D01*
X150005717Y-76875347D01*
X150005717Y-76721474D01*
X149852699Y-76721474D01*
X149852699Y-76567601D01*
X149852699Y-76413728D01*
X149852699Y-76259855D01*
X150153606Y-76259855D01*
X150153606Y-76413728D01*
X150153606Y-76567601D01*
X150308761Y-76567601D01*
X150463489Y-76567601D01*
X150618644Y-76567601D01*
X150773799Y-76567601D01*
X150928527Y-76567601D01*
X151083682Y-76567601D01*
X151083682Y-76413728D01*
X151083682Y-76259855D01*
X151083682Y-76105982D01*
X150928527Y-76105982D01*
X150773799Y-76105982D01*
X150618644Y-76105982D01*
X150463489Y-76105982D01*
X150308761Y-76105982D01*
X150153606Y-76105982D01*
X150153606Y-76259855D01*
X149852699Y-76259855D01*
X149852699Y-76105982D01*
X149852699Y-75952109D01*
X150005717Y-75952109D01*
X150005717Y-75798236D01*
X150159162Y-75798236D01*
X150312180Y-75798236D01*
X150465626Y-75798236D01*
X150618644Y-75798236D01*
X150771662Y-75798236D01*
X150925108Y-75798236D01*
X151078126Y-75798236D01*
X151231571Y-75798236D01*
X151231571Y-75952109D01*
G37*
G36*
X149852699Y-74881837D02*
G01*
X149852699Y-75035710D01*
X149852699Y-75189583D01*
X149852699Y-75343456D01*
X149852699Y-75497329D01*
X150016830Y-75497329D01*
X150016830Y-75651202D01*
X150167283Y-75651202D01*
X150317737Y-75651202D01*
X150468190Y-75651202D01*
X150618644Y-75651202D01*
X150769098Y-75651202D01*
X150919551Y-75651202D01*
X151070005Y-75651202D01*
X151220458Y-75651202D01*
X151220458Y-75497329D01*
X151384590Y-75497329D01*
X151384590Y-75343456D01*
X151384590Y-75189583D01*
X151384590Y-75035710D01*
X151384590Y-74881837D01*
X151384590Y-74727964D01*
X151220458Y-74727964D01*
X151220458Y-74574091D01*
X151070005Y-74574091D01*
X150919551Y-74574091D01*
X150919551Y-74727964D01*
X150919551Y-74881837D01*
X151083682Y-74881837D01*
X151083682Y-75035710D01*
X151083682Y-75189583D01*
X151083682Y-75343456D01*
X150928527Y-75343456D01*
X150773799Y-75343456D01*
X150618644Y-75343456D01*
X150463489Y-75343456D01*
X150308761Y-75343456D01*
X150153606Y-75343456D01*
X150153606Y-75189583D01*
X150153606Y-75035710D01*
X150153606Y-74881837D01*
X150317737Y-74881837D01*
X150317737Y-74727964D01*
X150317737Y-74574091D01*
X150167283Y-74574091D01*
X150016830Y-74574091D01*
X150016830Y-74727964D01*
X149852699Y-74727964D01*
X149852699Y-74881837D01*
G37*
G36*
X149852699Y-73503819D02*
G01*
X149852699Y-73657692D01*
X150003152Y-73657692D01*
X150003152Y-73811565D01*
X150153606Y-73811565D01*
X150153606Y-73965438D01*
X150317737Y-73965438D01*
X150317737Y-74119311D01*
X150162582Y-74119311D01*
X150007854Y-74119311D01*
X149852699Y-74119311D01*
X149852699Y-74273184D01*
X149852699Y-74427057D01*
X150003152Y-74427057D01*
X150153606Y-74427057D01*
X150304059Y-74427057D01*
X150454513Y-74427057D01*
X150604966Y-74427057D01*
X150755420Y-74427057D01*
X150919551Y-74427057D01*
X151070005Y-74427057D01*
X151220458Y-74427057D01*
X151384590Y-74427057D01*
X151548721Y-74427057D01*
X151712852Y-74427057D01*
X151712852Y-74273184D01*
X151712852Y-74119311D01*
X151553423Y-74119311D01*
X151393566Y-74119311D01*
X151234136Y-74119311D01*
X151074707Y-74119311D01*
X150914850Y-74119311D01*
X150755420Y-74119311D01*
X150755420Y-73965438D01*
X150919551Y-73965438D01*
X150919551Y-73811565D01*
X151070005Y-73811565D01*
X151070005Y-73657692D01*
X151220458Y-73657692D01*
X151220458Y-73503819D01*
X151220458Y-73349946D01*
X151070005Y-73349946D01*
X150919551Y-73349946D01*
X150919551Y-73503819D01*
X150755420Y-73503819D01*
X150755420Y-73657692D01*
X150609668Y-73657692D01*
X150609668Y-73811565D01*
X150463489Y-73811565D01*
X150463489Y-73657692D01*
X150317737Y-73657692D01*
X150317737Y-73503819D01*
X150153606Y-73503819D01*
X150153606Y-73349946D01*
X150003152Y-73349946D01*
X149852699Y-73349946D01*
X149852699Y-73503819D01*
G37*
M02*
